<svg width="85" height="22" viewBox="0 0 85 22" fill="none" xmlns="http://www.w3.org/2000/svg">
<rect width="85" height="22" rx="5" fill="#4FBC85"/>
<path d="M20.338 15.112C18.91 15.112 17.706 14.6313 16.726 13.67C16.2687 13.2127 15.9093 12.6667 15.648 12.032C15.3773 11.36 15.242 10.66 15.242 9.932C15.242 9.16667 15.382 8.45733 15.662 7.804C15.9513 7.132 16.32 6.57667 16.768 6.138C17.7667 5.16733 18.9707 4.682 20.38 4.682C21.444 4.682 22.3493 4.94333 23.096 5.466C23.4133 5.67133 23.712 5.93267 23.992 6.25C24.4587 6.79133 24.776 7.38867 24.944 8.042L23.922 8.406C23.8193 8.014 23.6187 7.60333 23.32 7.174C23.1053 6.88467 22.886 6.64667 22.662 6.46C22.4007 6.236 22.074 6.05867 21.682 5.928C21.29 5.77867 20.8467 5.704 20.352 5.704C19.2507 5.704 18.3173 6.08667 17.552 6.852C16.7587 7.64533 16.362 8.64867 16.362 9.862C16.362 10.674 16.5347 11.3973 16.88 12.032C17.216 12.676 17.6967 13.18 18.322 13.544C18.9193 13.908 19.6007 14.09 20.366 14.09C21.262 14.09 22.0087 13.852 22.606 13.376C22.8767 13.1707 23.1007 12.9373 23.278 12.676C23.4553 12.4427 23.6 12.2093 23.712 11.976C23.8053 11.752 23.8847 11.5467 23.95 11.36L24.972 11.724C24.804 12.3307 24.4913 12.9093 24.034 13.46C23.7913 13.7493 23.4973 14.0247 23.152 14.286C22.3773 14.8367 21.4393 15.112 20.338 15.112ZM29.6935 15.126C29.0495 15.126 28.4475 14.9673 27.8875 14.65C27.3368 14.3233 26.9075 13.8893 26.5995 13.348C26.2822 12.8067 26.1235 12.2047 26.1235 11.542C26.1235 10.506 26.4688 9.64733 27.1595 8.966C27.8502 8.266 28.7042 7.916 29.7215 7.916C30.7108 7.89733 31.5602 8.24733 32.2695 8.966C32.9882 9.67533 33.3382 10.52 33.3195 11.5C33.3382 12.508 32.9882 13.3713 32.2695 14.09C31.5508 14.7993 30.6922 15.1447 29.6935 15.126ZM29.7215 14.216C30.4495 14.216 31.0608 13.9547 31.5555 13.432C32.0315 12.9093 32.2695 12.2793 32.2695 11.542C32.2695 10.7953 32.0268 10.1513 31.5415 9.61C31.0468 9.078 30.4308 8.812 29.6935 8.812C28.9562 8.812 28.3495 9.07333 27.8735 9.596C27.3975 10.1187 27.1595 10.7533 27.1595 11.5C27.1408 12.2373 27.3788 12.8767 27.8735 13.418C28.3775 13.9593 28.9935 14.2253 29.7215 14.216ZM35.1041 8.042H36.0981V9.414C36.4247 8.75133 36.9007 8.30333 37.5261 8.07C37.7781 7.97667 38.0534 7.93 38.3521 7.93C38.5294 7.93 38.6414 7.93933 38.6881 7.958V9.036C38.6134 9.01733 38.4827 9.008 38.2961 9.008C37.5401 9.008 36.9894 9.26 36.6441 9.764C36.2987 10.268 36.1261 10.8793 36.1261 11.598V15H35.1041V8.042ZM47.0253 11.514C47.0253 12.1487 46.8899 12.7367 46.6193 13.278C46.3486 13.8193 45.9659 14.258 45.4713 14.594C44.9673 14.93 44.3933 15.098 43.7493 15.098C42.6106 15.098 41.7193 14.5893 41.0753 13.572V18.43H40.0533V8.042H41.0473V9.554C41.7659 8.462 42.6666 7.916 43.7493 7.916C44.7386 7.916 45.5366 8.28933 46.1433 9.036C46.7313 9.764 47.0253 10.59 47.0253 11.514ZM43.5533 14.216C44.2813 14.216 44.8739 13.9593 45.3313 13.446C45.7699 12.9233 45.9893 12.2887 45.9893 11.542C45.9893 10.4873 45.6113 9.708 44.8553 9.204C44.4913 8.952 44.0573 8.826 43.5533 8.826C42.8626 8.81667 42.2699 9.08267 41.7753 9.624C41.2806 10.1653 41.0426 10.7907 41.0613 11.5C41.0613 12.2467 41.2946 12.8813 41.7613 13.404C42.2373 13.9453 42.8346 14.216 43.5533 14.216ZM51.8829 15.126C51.2389 15.126 50.6369 14.9673 50.0769 14.65C49.5263 14.3233 49.0969 13.8893 48.7889 13.348C48.4716 12.8067 48.3129 12.2047 48.3129 11.542C48.3129 10.506 48.6583 9.64733 49.3489 8.966C50.0396 8.266 50.8936 7.916 51.9109 7.916C52.9003 7.89733 53.7496 8.24733 54.4589 8.966C55.1776 9.67533 55.5276 10.52 55.5089 11.5C55.5276 12.508 55.1776 13.3713 54.4589 14.09C53.7403 14.7993 52.8816 15.1447 51.8829 15.126ZM51.9109 14.216C52.6389 14.216 53.2503 13.9547 53.7449 13.432C54.2209 12.9093 54.4589 12.2793 54.4589 11.542C54.4589 10.7953 54.2163 10.1513 53.7309 9.61C53.2363 9.078 52.6203 8.812 51.8829 8.812C51.1456 8.812 50.5389 9.07333 50.0629 9.596C49.5869 10.1187 49.3489 10.7533 49.3489 11.5C49.3303 12.2373 49.5683 12.8767 50.0629 13.418C50.5669 13.9593 51.1829 14.2253 51.9109 14.216ZM57.2935 8.042H58.2875V9.414C58.6142 8.75133 59.0902 8.30333 59.7155 8.07C59.9675 7.97667 60.2428 7.93 60.5415 7.93C60.7188 7.93 60.8308 7.93933 60.8775 7.958V9.036C60.8028 9.01733 60.6722 9.008 60.4855 9.008C59.7295 9.008 59.1788 9.26 58.8335 9.764C58.4882 10.268 58.3155 10.8793 58.3155 11.598V15H57.2935V8.042ZM64.1416 10.982H66.0736V10.52C66.0736 9.39067 65.4809 8.826 64.2956 8.826C63.7263 8.826 63.2876 8.98 62.9796 9.288C62.6996 9.568 62.5316 9.88533 62.4756 10.24L61.4956 10.03C61.5049 9.834 61.5983 9.58667 61.7756 9.288C61.9529 8.98933 62.1863 8.72333 62.4756 8.49C62.9703 8.10733 63.5863 7.916 64.3236 7.916C65.5929 7.916 66.4376 8.39667 66.8576 9.358C66.9976 9.68467 67.0676 10.0673 67.0676 10.506V12.466C67.0676 13.6047 67.1049 14.4493 67.1796 15H66.1716C66.1063 14.6453 66.0736 14.2393 66.0736 13.782C65.4856 14.678 64.7016 15.126 63.7216 15.126C63.0216 15.126 62.4616 14.93 62.0416 14.538C61.6029 14.1553 61.3836 13.6653 61.3836 13.068V12.998C61.3836 12.3073 61.6589 11.7987 62.2096 11.472C62.7696 11.1453 63.4136 10.982 64.1416 10.982ZM66.0736 12.06V11.822H64.1276C63.6983 11.822 63.3203 11.9013 62.9936 12.06C62.6016 12.228 62.4056 12.536 62.4056 12.984C62.4056 13.3667 62.5503 13.67 62.8396 13.894C63.1196 14.118 63.4743 14.23 63.9036 14.23C64.5103 14.23 65.0283 14.0247 65.4576 13.614C65.8683 13.222 66.0736 12.704 66.0736 12.06ZM69.2837 15V4.374H70.3057V15H69.2837Z" fill="black"/>
</svg>
