<svg width="85" height="22" viewBox="0 0 85 22" fill="none" xmlns="http://www.w3.org/2000/svg">
<rect width="85" height="22" rx="5" fill="#BF9058"/>
<path d="M28.0667 7.72L27.0447 8.084C26.886 7.636 26.6527 7.23467 26.3447 6.88C26.1114 6.63733 25.8874 6.44133 25.6727 6.292C25.094 5.89067 24.38 5.69 23.5307 5.69C22.7467 5.69 22.056 5.88133 21.4587 6.264C20.8334 6.656 20.3574 7.16933 20.0307 7.804C19.6947 8.43867 19.5267 9.12933 19.5267 9.876C19.5267 11.052 19.8814 12.046 20.5907 12.858C21.328 13.6887 22.3127 14.104 23.5447 14.104C24.478 14.104 25.29 13.838 25.9807 13.306C26.6994 12.7553 27.0867 12.004 27.1427 11.052H22.8867V10.058H28.2907V10.45C28.2907 11.7567 27.8707 12.8533 27.0307 13.74C26.1534 14.6453 24.9867 15.098 23.5307 15.098C21.9814 15.098 20.74 14.6033 19.8067 13.614C18.8827 12.634 18.4207 11.4067 18.4207 9.932C18.4207 8.96133 18.6447 8.07467 19.0927 7.272C19.5407 6.46933 20.1567 5.83933 20.9407 5.382C21.7154 4.92467 22.588 4.696 23.5587 4.696C24.7907 4.696 25.7894 5.004 26.5547 5.62C27.2734 6.18 27.7774 6.88 28.0667 7.72ZM36.1846 11.836H30.5566C30.594 12.5173 30.8506 13.082 31.3266 13.53C31.7933 13.9873 32.3673 14.216 33.0486 14.216C33.5806 14.216 34.0333 14.09 34.4066 13.838C34.78 13.5767 35.046 13.208 35.2046 12.732L36.1006 13.012C35.9046 13.6653 35.5266 14.1833 34.9666 14.566C34.388 14.9393 33.7533 15.126 33.0626 15.126C32.4093 15.126 31.8073 14.9627 31.2566 14.636C30.706 14.3093 30.286 13.8707 29.9966 13.32C29.6886 12.7787 29.5346 12.1767 29.5346 11.514C29.5346 10.8793 29.6793 10.2913 29.9686 9.75C30.2393 9.19933 30.6453 8.756 31.1866 8.42C31.7093 8.084 32.288 7.916 32.9226 7.916C33.6226 7.916 34.22 8.07467 34.7146 8.392C35.2186 8.7 35.592 9.12467 35.8346 9.666C36.0773 10.1793 36.1986 10.7907 36.1986 11.5C36.1986 11.6213 36.194 11.7333 36.1846 11.836ZM30.5706 10.968H35.1766C35.1113 10.3333 34.878 9.81067 34.4766 9.4C34.0846 9.008 33.5666 8.812 32.9226 8.812C32.3346 8.812 31.8166 9.022 31.3686 9.442C30.9206 9.88067 30.6546 10.3893 30.5706 10.968ZM43.9886 15H42.9666V10.954C42.9666 10.31 42.8033 9.79667 42.4766 9.414C42.15 9.03133 41.674 8.84 41.0486 8.84C40.442 8.84 39.9426 9.05 39.5506 9.47C39.168 9.89933 38.9766 10.422 38.9766 11.038V15H37.9546V8.042H38.9486V9.316C39.5086 8.38267 40.3113 7.916 41.3566 7.916C42.178 7.916 42.8266 8.168 43.3026 8.672C43.76 9.204 43.9886 9.88067 43.9886 10.702V15ZM52.3448 11.836H46.7168C46.7541 12.5173 47.0108 13.082 47.4868 13.53C47.9534 13.9873 48.5274 14.216 49.2088 14.216C49.7408 14.216 50.1934 14.09 50.5668 13.838C50.9401 13.5767 51.2061 13.208 51.3648 12.732L52.2608 13.012C52.0648 13.6653 51.6868 14.1833 51.1268 14.566C50.5481 14.9393 49.9134 15.126 49.2228 15.126C48.5694 15.126 47.9674 14.9627 47.4168 14.636C46.8661 14.3093 46.4461 13.8707 46.1568 13.32C45.8488 12.7787 45.6948 12.1767 45.6948 11.514C45.6948 10.8793 45.8394 10.2913 46.1288 9.75C46.3994 9.19933 46.8054 8.756 47.3468 8.42C47.8694 8.084 48.4481 7.916 49.0828 7.916C49.7828 7.916 50.3801 8.07467 50.8748 8.392C51.3788 8.7 51.7521 9.12467 51.9948 9.666C52.2374 10.1793 52.3588 10.7907 52.3588 11.5C52.3588 11.6213 52.3541 11.7333 52.3448 11.836ZM46.7308 10.968H51.3368C51.2714 10.3333 51.0381 9.81067 50.6368 9.4C50.2448 9.008 49.7268 8.812 49.0828 8.812C48.4948 8.812 47.9768 9.022 47.5288 9.442C47.0808 9.88067 46.8148 10.3893 46.7308 10.968ZM54.1148 8.042H55.1088V9.414C55.4355 8.75133 55.9115 8.30333 56.5368 8.07C56.7888 7.97667 57.0641 7.93 57.3628 7.93C57.5401 7.93 57.6521 7.93933 57.6988 7.958V9.036C57.6241 9.01733 57.4935 9.008 57.3068 9.008C56.5508 9.008 56.0001 9.26 55.6548 9.764C55.3095 10.268 55.1368 10.8793 55.1368 11.598V15H54.1148V8.042ZM60.9629 10.982H62.8949V10.52C62.8949 9.39067 62.3022 8.826 61.1169 8.826C60.5475 8.826 60.1089 8.98 59.8009 9.288C59.5209 9.568 59.3529 9.88533 59.2969 10.24L58.3169 10.03C58.3262 9.834 58.4195 9.58667 58.5969 9.288C58.7742 8.98933 59.0075 8.72333 59.2969 8.49C59.7915 8.10733 60.4075 7.916 61.1449 7.916C62.4142 7.916 63.2589 8.39667 63.6789 9.358C63.8189 9.68467 63.8889 10.0673 63.8889 10.506V12.466C63.8889 13.6047 63.9262 14.4493 64.0009 15H62.9929C62.9275 14.6453 62.8949 14.2393 62.8949 13.782C62.3069 14.678 61.5229 15.126 60.5429 15.126C59.8429 15.126 59.2829 14.93 58.8629 14.538C58.4242 14.1553 58.2049 13.6653 58.2049 13.068V12.998C58.2049 12.3073 58.4802 11.7987 59.0309 11.472C59.5909 11.1453 60.2349 10.982 60.9629 10.982ZM62.8949 12.06V11.822H60.9489C60.5195 11.822 60.1415 11.9013 59.8149 12.06C59.4229 12.228 59.2269 12.536 59.2269 12.984C59.2269 13.3667 59.3715 13.67 59.6609 13.894C59.9409 14.118 60.2955 14.23 60.7249 14.23C61.3315 14.23 61.8495 14.0247 62.2789 13.614C62.6895 13.222 62.8949 12.704 62.8949 12.06ZM66.105 15V4.374H67.127V15H66.105Z" fill="black"/>
</svg>
