<svg width="31" height="22" viewBox="0 0 31 22" fill="none" xmlns="http://www.w3.org/2000/svg">
<rect width="31" height="22" rx="2" fill="#9E69F5"/>
<path d="M21.8248 1.04999V1.29999H21.7748V1.36249H21.7248V1.41249H21.6748V1.46249H21.5748V1.51249H21.5248V1.56249C21.5168 1.56374 21.5088 1.56511 21.5006 1.56636C21.4921 1.56924 21.4836 1.57211 21.4748 1.57499L21.4623 1.61249H21.4123V1.66249L21.3123 1.67499V1.71249C21.2937 1.71861 21.2937 1.71861 21.2748 1.72499L21.2623 1.76249L21.1623 1.77499V1.82499H21.0998V1.87499H20.9998V1.92499H20.9498V1.97499H20.8498V2.02499L20.7498 2.03749V2.07499C20.7418 2.07624 20.7338 2.07761 20.7256 2.07886C20.7171 2.08174 20.7086 2.08461 20.6998 2.08749L20.6873 2.12499L20.5873 2.13749V2.18749H20.4873V2.23749H20.3873V2.28749H20.3248V2.33749H20.2248V2.38749H20.1248V2.43749C20.096 2.44161 20.0671 2.44574 20.0373 2.44999L20.0248 2.48749L19.9248 2.49999V2.53749L19.8623 2.54999V2.58749C19.8487 2.59086 19.835 2.59424 19.821 2.59761C19.776 2.60824 19.776 2.60824 19.7546 2.63274C19.7373 2.64999 19.7373 2.64999 19.7037 2.65236C19.6942 2.65161 19.6847 2.65074 19.6748 2.64999V2.69999H19.5748V2.74999H19.4748V2.79999H19.3748V2.84999H19.3123V2.89999H19.2123V2.94999H19.1123V2.99999C19.0752 3.00411 19.0381 3.00824 18.9998 3.01249V3.06249H18.8998V3.11249H18.7998V3.16249H18.6998V3.21249H18.5998V3.26249H18.5373V3.31249L18.3998 3.32499V3.36249H18.3373V3.41249L18.2373 3.42499V3.46249C18.2002 3.46661 18.1631 3.47074 18.1248 3.47499V3.52499H18.0248V3.57499H17.9248V3.62499L17.8248 3.63749V3.67499L17.7248 3.68749V3.72499H17.6623V3.77499H17.5623V3.82499L17.4623 3.83749V3.87499C17.4552 3.87636 17.4482 3.87774 17.441 3.87911C17.4317 3.88111 17.4226 3.88311 17.4131 3.88511C17.404 3.88699 17.3948 3.88886 17.3855 3.89086C17.3778 3.89386 17.3702 3.89686 17.3623 3.89999L17.3498 3.93749C17.321 3.94161 17.2921 3.94574 17.2623 3.94999L17.2498 3.98749C17.221 3.99161 17.1921 3.99574 17.1623 3.99999L17.1498 4.03749H17.0623V4.08749C17.0543 4.08874 17.0463 4.09011 17.0381 4.09136C17.0296 4.09424 17.0211 4.09711 17.0123 4.09999L16.9998 4.13749C16.971 4.14161 16.9421 4.14574 16.9123 4.14999L16.8998 4.18749C16.871 4.19161 16.8421 4.19574 16.8123 4.19999L16.7998 4.23749L16.6998 4.24999V4.28749L16.5998 4.29999V4.34999H16.4998V4.39999H16.3998V4.44999L16.2998 4.46249L16.2873 4.49999H16.2373V4.54999H16.1373V4.66249H16.1748L16.1873 4.76249H16.2373V4.86249H16.2873V4.96249H16.3373V5.06249H16.3873L16.3998 5.21249H16.4373V5.37499C16.3912 5.38649 16.3563 5.38874 16.3098 5.38824C16.2963 5.38811 16.2828 5.38799 16.269 5.38799C16.2587 5.38774 16.2485 5.38761 16.238 5.38749L16.2255 5.33749L16.1755 5.32499V5.28749L16.1255 5.27499V5.17499H16.0755L16.063 5.07499H16.0255C16.0236 5.06299 16.0236 5.06299 16.0216 5.05074C16.0187 5.04224 16.0158 5.03374 16.013 5.02499C16.0006 5.02086 15.9882 5.01674 15.9755 5.01249L15.963 4.91249H15.913V4.86249H15.863V4.76249H15.813V4.71249H15.763V4.74999H15.7255V4.91249H15.763C15.7768 4.96799 15.777 5.02211 15.7762 5.07874C15.7762 5.08799 15.7761 5.09724 15.7761 5.10686C15.776 5.12949 15.7757 5.15224 15.7755 5.17486H15.8255V5.58736H15.8755L15.888 6.03736H15.9255V6.09986C15.9131 6.10399 15.9007 6.10811 15.888 6.11236V6.14986H15.9255L15.938 6.39986H15.9755V6.46236H16.0255V6.51236H16.0755V6.56236H16.1255L16.138 6.66236H16.188V6.71236H16.238V6.77486H16.288V6.82486H16.338V6.87486H16.388V6.97486H16.438V7.02486H16.488C16.4898 7.03686 16.4898 7.03686 16.4918 7.04911C16.4947 7.05761 16.4976 7.06611 16.5005 7.07486C16.5128 7.07899 16.5252 7.08311 16.538 7.08736L16.5505 7.17486L16.6005 7.18736V7.23736H16.6505V7.28736H16.7005V7.33736H16.7505V7.38736L16.8005 7.39986V7.44986L16.8505 7.46236V7.49986L16.9005 7.51236V7.54986L16.9505 7.56236V7.59986H17.0005L17.013 7.63736C17.038 7.65249 17.038 7.65249 17.063 7.66236V7.68736L17.263 7.69986V7.64986H17.313V7.58736H17.3505V7.51236H17.313V7.44986H17.263V7.39986H17.213V7.34986L17.1505 7.33736V7.29986H17.1005V7.24986H17.0505V7.19986L17.0005 7.18736V7.13736H16.9505V7.08736H16.9005V7.03736L16.8505 7.02486L16.838 6.93736H16.8005V6.87486C16.7925 6.87361 16.7845 6.87224 16.7762 6.87099C16.7677 6.86811 16.7592 6.86524 16.7505 6.86236C16.7367 6.82124 16.7367 6.79061 16.7372 6.74749C16.7373 6.73399 16.7375 6.72036 16.7375 6.70636C16.7377 6.69074 16.7377 6.69074 16.738 6.67486L16.688 6.66236V6.31236H16.738L16.7505 6.24986H16.788L16.8005 6.19986H16.9505V6.16236C16.993 6.14949 17.0318 6.14836 17.0755 6.14849H17.1217C17.1463 6.14849 17.1463 6.14849 17.1715 6.14861C17.1886 6.14861 17.2056 6.14874 17.2226 6.14874C17.2673 6.14874 17.312 6.14886 17.3563 6.14899C17.4021 6.14911 17.4477 6.14924 17.4938 6.14924C17.5833 6.14936 17.6726 6.14961 17.7626 6.14986L17.7751 6.06236H17.7251L17.7126 5.96236L17.6626 5.94986V5.91236C17.6378 5.90824 17.6131 5.90411 17.5876 5.89986L17.5751 5.84986H17.5126V5.79986H17.4626V5.74986H17.4126V5.69986H17.3626C17.3607 5.68786 17.3607 5.68786 17.3587 5.67561C17.3558 5.66711 17.353 5.65861 17.3501 5.64986C17.3377 5.64574 17.3253 5.64161 17.3126 5.63736L17.3001 5.53736H17.2626V5.48736C17.275 5.48324 17.2873 5.47911 17.3001 5.47486C17.3092 5.44961 17.3092 5.44961 17.3126 5.42486H17.3626V5.37486H17.4501L17.4626 5.32486H17.5751V5.28736C17.6162 5.27361 17.6468 5.27361 17.69 5.27411C17.7035 5.27424 17.7171 5.27436 17.7311 5.27436C17.7467 5.27461 17.7467 5.27461 17.7626 5.27486V5.22486H18.4376V5.27486C18.4488 5.27474 18.4602 5.27461 18.4718 5.27436C18.494 5.27424 18.494 5.27424 18.5165 5.27411C18.5311 5.27399 18.5458 5.27374 18.5608 5.27361C18.6001 5.27486 18.6001 5.27486 18.6376 5.28736V5.32486H18.7001V5.37486L18.8001 5.38736L18.8126 5.42486C18.825 5.42899 18.8373 5.43311 18.8501 5.43736V5.47486L18.9501 5.48736V5.53736H19.0001L19.0126 5.63736H19.0626V5.68736H19.1126V5.73736L19.1626 5.74986V5.84986H19.2126V5.94986H19.2626V6.09986H19.3126V6.56236L19.2626 6.57486V6.71236L19.2126 6.72486V6.81236L19.1626 6.82486V6.92486L19.1126 6.93736L19.1001 6.98736H19.0626L19.0501 7.03736H19.0126C19.0107 7.04936 19.0107 7.04936 19.0087 7.06161C19.0058 7.07011 19.003 7.07861 19.0001 7.08736C18.9877 7.09149 18.9753 7.09561 18.9626 7.09986C18.9475 7.12486 18.9475 7.12486 18.9376 7.14986H18.9126L18.8876 7.19986H18.8501L18.8376 7.24986H18.8001L18.7876 7.29986H18.7501L18.7376 7.34986H18.6501L18.6376 7.39986H18.5876L18.5751 7.44986H18.5376L18.5251 7.49986H18.4876L18.5001 7.63736C18.5125 7.64149 18.5248 7.64561 18.5376 7.64986L18.5501 8.06236H18.5876L18.6001 8.37486H18.6376C18.6531 8.45811 18.6512 8.53986 18.6501 8.62486H18.6876C18.6988 8.66324 18.7016 8.69724 18.7013 8.73711C18.7012 8.74886 18.7012 8.76049 18.7012 8.77261C18.7011 8.78461 18.701 8.79674 18.7008 8.80924C18.7008 8.82149 18.7007 8.83386 18.7007 8.84649C18.7006 8.87674 18.7003 8.90711 18.7001 8.93736H18.7501V9.08736H18.8001V9.13736H18.8501V9.18736L18.9501 9.19986L18.9626 9.23736C18.9878 9.24649 18.9878 9.24649 19.0126 9.24986V9.28736L19.1126 9.29986V9.34986H19.2126V9.39986H19.3001L19.3126 9.44986L19.3751 9.46236V9.49986H19.4626L19.4751 9.54986L19.5251 9.56236V9.59986C19.554 9.60399 19.5828 9.60811 19.6126 9.61236L19.6251 9.66236L19.6751 9.67486V10.0124L19.6251 10.0249L19.6126 10.0874H19.5751V10.2124L19.5251 10.2249L19.5126 10.2874H19.4751C19.4758 10.3071 19.4758 10.3071 19.4766 10.3272C19.4752 10.3716 19.4692 10.398 19.4501 10.4374H19.4251L19.4126 10.5249L19.3626 10.5374V10.6249L19.3126 10.6374L19.3001 10.6999H19.2751L19.2626 10.7874L19.2126 10.7999V10.8999H19.1626V10.9999L19.1126 11.0124C19.1133 11.0325 19.1133 11.0325 19.1141 11.053C19.1127 11.0956 19.11 11.115 19.0876 11.1499H19.0626L19.0501 11.2624H19.0126L19.0001 11.3624C18.9877 11.3665 18.9753 11.3706 18.9626 11.3749L18.9501 11.4624C18.9377 11.4665 18.9253 11.4706 18.9126 11.4749L18.9001 11.5749H18.8501V11.6749H18.8001V11.7749H18.7501V11.8749H18.7001L18.6876 11.9874H18.6501L18.6376 12.0874H18.6001L18.5876 12.1499H18.5501L18.5376 12.2874H18.4876V12.3874C18.4752 12.3915 18.4628 12.3956 18.4501 12.3999L18.4376 12.4999H18.3876V12.5999H18.3376V12.7124H18.2876V12.8124H18.2376C18.238 12.8356 18.238 12.8356 18.2383 12.8592C18.2385 12.8956 18.2367 12.9275 18.2251 12.9624H18.1876L18.1751 13.0624H18.1251V13.1249H18.0876L18.0751 13.2124C18.0627 13.2165 18.0503 13.2206 18.0376 13.2249C18.0285 13.2501 18.0285 13.2501 18.0251 13.2749H17.9751V13.3249H17.9251V13.3749H17.8751V13.4249H17.8251V13.4749H17.7751V13.5249C17.7631 13.5267 17.7631 13.5267 17.7508 13.5287C17.7423 13.5316 17.7338 13.5345 17.7251 13.5374L17.7126 13.5749C17.7002 13.579 17.6878 13.5831 17.6751 13.5874L17.6626 13.6249C17.6337 13.629 17.6048 13.6331 17.5751 13.6374L17.5626 13.6874H17.5126V13.7374H17.4501V13.7874H17.3626V13.8374L17.2626 13.8499V13.8874H17.2001V13.9374H17.1001V13.9874L16.9626 13.9999L16.9501 14.0374L16.8501 14.0499L16.8376 14.0874C16.794 14.1059 16.7467 14.1007 16.7001 14.0999V14.1499H16.5501V14.1999H16.3876V14.2499L16.2376 14.2624V14.2999L16.0876 14.3124V14.3499L15.8876 14.3624L15.8751 14.3999L15.7126 14.4124V14.4499C15.6837 14.454 15.6548 14.4581 15.6251 14.4624V14.5499H15.6626V14.5999L15.7126 14.6124L15.7251 14.6999L15.7751 14.7124V14.7499L15.8251 14.7624V14.8124H15.8751V14.8624L15.9251 14.8749V14.9124L15.9751 14.9249V14.9624H16.1251L16.1376 14.9124H16.1751V14.8249L16.2251 14.8124L16.2376 14.7499H16.2751L16.2876 14.6749L16.3376 14.6624L16.3501 14.5999H16.4376L16.4501 14.5499C16.4625 14.554 16.4748 14.5581 16.4876 14.5624V14.5999L16.5501 14.6124V14.6499C16.5625 14.654 16.5748 14.6581 16.5876 14.6624C16.6016 14.6985 16.6016 14.7335 16.6013 14.772C16.6012 14.7831 16.6012 14.7941 16.6012 14.8056C16.6011 14.8171 16.601 14.8286 16.6008 14.8405C16.6008 14.8522 16.6007 14.8639 16.6007 14.876C16.6006 14.9047 16.6003 14.9336 16.6001 14.9624L16.6501 14.9749V15.0624L16.7001 15.0749V15.1249L16.7501 15.1374V15.1749L16.8001 15.1874V15.2249L16.8501 15.2374V15.2749L16.9001 15.2874V15.3249L16.9626 15.3374V15.3749L17.0126 15.3874V15.4249L17.0626 15.4374V15.4749L17.1126 15.4874V15.5249H17.1501V15.5749L17.2126 15.5874V15.6249L17.3126 15.6374V15.6749H17.3501L17.3626 14.8624C17.375 14.8582 17.3873 14.8541 17.4001 14.8499L17.4126 14.5499H17.4626V14.3999H17.5126V14.3374H17.5626V14.2374H17.6126V14.1874H17.6626V14.1374H17.7126L17.7251 14.0374C17.754 14.0332 17.7828 14.0291 17.8126 14.0249L17.8251 13.9374L17.9251 13.9249V13.8749H17.9751V13.8249H18.0251V13.7749H18.0751V13.7249H18.1376V13.6749H18.1876V13.6249H18.2251L18.2376 13.5749H18.2751L18.2876 13.5249H18.3251L18.3376 13.4624H18.3751L18.3876 13.4124H18.4251L18.4376 13.3249C18.45 13.3207 18.4623 13.3166 18.4751 13.3124L18.4876 13.2249L18.5376 13.2124V13.1249L18.5876 13.1124V13.0124C18.6 13.0082 18.6123 13.0041 18.6251 12.9999L18.6376 12.8124L18.6876 12.7999V12.5999L18.7376 12.5874V12.4499C18.7971 12.4252 18.8371 12.4247 18.9001 12.4374V12.4874H18.9501V12.5374L19.0001 12.5499C19.0016 12.5707 19.0016 12.5707 19.0032 12.5921C19.0073 12.6381 19.0073 12.6381 19.0383 12.6554C19.0463 12.6576 19.0543 12.66 19.0626 12.6624V12.6999C19.075 12.704 19.0873 12.7081 19.1001 12.7124L19.1126 12.7999L19.1626 12.8124V12.8999L19.2126 12.9124V12.9499L19.2626 12.9624V13.0499L19.3126 13.0624L19.3251 13.1499C19.3375 13.154 19.3498 13.1581 19.3626 13.1624L19.3751 13.2499C19.3875 13.254 19.3998 13.2581 19.4126 13.2624L19.4251 13.3624L19.4751 13.3749V13.4624L19.5251 13.4749V13.5749L19.5751 13.5874V13.8749L19.6251 13.8874C19.6255 13.9829 19.6256 14.0786 19.6257 14.1736C19.6258 14.2061 19.626 14.2385 19.6261 14.271C19.6262 14.3176 19.6262 14.3642 19.6263 14.411C19.6263 14.4256 19.6265 14.4402 19.6265 14.4552V14.4961C19.6266 14.514 19.6266 14.514 19.6266 14.5322C19.6251 14.5624 19.6251 14.5624 19.6126 14.5999H19.5751C19.5755 14.622 19.5755 14.622 19.576 14.6446C19.5762 14.6641 19.5765 14.6835 19.5766 14.703C19.5768 14.7127 19.5771 14.7224 19.5773 14.7325C19.5781 14.8214 19.5781 14.8214 19.5501 14.8625H19.5251V15L19.4751 15.025V15.1125C19.4631 15.1156 19.4631 15.1156 19.4508 15.1187C19.4231 15.1347 19.4231 15.1347 19.419 15.1614C19.416 15.1867 19.4142 15.2121 19.4126 15.2375H19.3751L19.3626 15.3375H19.3251L19.3126 15.4375H19.2626V15.5375H19.2126V15.6375H19.1626V15.7375H19.1126L19.1001 15.8H19.0626L19.0501 15.9H19.0001V15.95H18.9501V16H18.9126L18.9001 16.0625H18.8626L18.8501 16.15H18.8001V16.2125H18.7501V16.2625H18.7001V16.3125H18.6501L18.6376 16.4125H18.6001V16.775H18.6376C18.65 16.8674 18.6516 16.9575 18.6508 17.0512C18.6508 17.0729 18.6508 17.0729 18.6507 17.0949C18.6506 17.1301 18.6503 17.1652 18.6501 17.2005H18.6876C18.7008 17.2756 18.7016 17.348 18.7008 17.4242C18.7008 17.4364 18.7007 17.4485 18.7007 17.461C18.7006 17.4906 18.7003 17.5204 18.7001 17.55H18.7501V17.9125H18.8001L18.8126 18.2125C18.825 18.2166 18.8373 18.2207 18.8501 18.225V18.475H18.9001V18.675H18.8501V18.7375H18.8001V18.7875H18.7501V18.8375H18.7001V18.8875H18.6501V18.9375H18.6001V18.9875H18.5376V19.0375H18.4876V19.0875C18.4587 19.0916 18.4298 19.0957 18.4001 19.1L18.3876 19.15H18.3376V19.2H18.2876V19.25H18.2251V19.3H18.1376V19.35C18.1296 19.3512 18.1216 19.3526 18.1133 19.3539C18.1048 19.3567 18.0963 19.3596 18.0876 19.3625L18.0751 19.4H18.0251V19.45H17.9751V19.5H17.9251V19.55L17.8251 19.5625V19.6125H17.7751V19.6625H17.7251L17.7126 19.7125H17.6626V19.7625H17.6126V19.8125H17.5126V19.8625H17.4626V19.9125H17.4126V19.9625L17.3126 19.975L17.3001 20.025H17.2626L17.2501 20.075H17.2001V20.125H17.1501V20.175H17.1126L17.1001 20.275H17.0626L17.0501 20.3375H17.0126V20.425L16.9626 20.4375C16.963 20.4607 16.963 20.4607 16.9633 20.4844C16.9635 20.5207 16.9617 20.5526 16.9501 20.5875H16.9126L16.9001 20.6875H16.8626L16.8501 20.75H16.8001V20.7875H16.6876V20.7375H16.5876V20.7C16.5505 20.6959 16.5133 20.6917 16.4751 20.6875V20.6375H16.2751V20.5875H16.1251V20.5375H16.0251V20.4875C16.0176 20.4876 16.01 20.4877 16.0022 20.488C15.9872 20.4881 15.9872 20.4881 15.972 20.4882C15.9621 20.4884 15.9522 20.4886 15.9421 20.4887C15.9137 20.4875 15.8897 20.4829 15.8626 20.475V20.4375L15.7626 20.425V20.3375H15.8126V20.275H15.8626V20.225H15.9126V20.175H15.9751V20.125H16.0251V20.075H16.1126V20.025H16.1751V19.975H16.2251V19.925H16.2751L16.2876 19.8625H16.3251L16.3376 19.8125H16.3751L16.3876 19.7625H16.4376V19.7125H16.4876V19.6625H16.5376V19.6125H16.5876V19.5625H16.6376V19.5125H16.6876V19.4625H16.7376L16.7501 19.4H16.7876L16.8001 19.35H16.8501V19.3H16.9001V19.25H16.9501V19.2H17.0001V19.15H17.0501V19.1H17.1001V19.05H17.1501L17.1626 18.9875H17.2001L17.2126 18.9375H17.2626V18.8875H17.3126V18.8375H17.3626V18.7875H17.4126V18.7375H17.4626V18.6875H17.5126V18.6375C17.5206 18.6362 17.5286 18.6349 17.5368 18.6336C17.5453 18.6307 17.5538 18.6279 17.5626 18.625L17.5751 18.5875C17.5875 18.5834 17.5998 18.5792 17.6126 18.575C17.6217 18.5497 17.6217 18.5497 17.6251 18.525H17.6751V18.475H17.7251V18.425H17.6751C17.6732 18.413 17.6732 18.413 17.6712 18.4007C17.6683 18.3922 17.6655 18.3837 17.6626 18.375C17.6502 18.3709 17.6378 18.3667 17.6251 18.3625L17.6126 18.325C17.5873 18.3159 17.5873 18.3159 17.5626 18.3125V18.2625H17.5126V18.2125H17.4626V18.1625H17.4126V18.1125H17.3626V18.0625H17.3126V17.9625H17.2626V17.9125L17.2001 17.9V17.85H17.1501V17.8H17.1001V17.7H17.0501V17.65H17.0001V17.55H16.9501L16.9376 17.45H16.9001V17.3875H16.8501V17.2875H16.8001L16.7876 17.1875H16.7501C16.7335 17.1377 16.7367 17.0894 16.7376 17.0375H16.6876V16.925H16.6376V16.775H16.5876V16.675H16.5376L16.5251 16.525C16.5127 16.5209 16.5003 16.5167 16.4876 16.5125L16.4751 16.3625H16.4376V16.2625H16.3876L16.3751 16.1625L16.3251 16.15V16.1125L16.2251 16.1V16.05H16.1751V16H16.1126V15.9625C16.0837 15.9584 16.0548 15.9542 16.0251 15.95V15.9H15.9626V15.85H15.8751L15.8626 15.8L15.8126 15.7875V15.75L15.7626 15.7375V15.7C15.7337 15.6959 15.7048 15.6917 15.6751 15.6875L15.6626 15.6375L15.6001 15.625V15.5875H15.5126V15.5375H15.4626V15.4875H15.3626V15.4375H15.3126V15.3875L15.2126 15.375L15.2001 15.3375C15.1748 15.3284 15.1748 15.3284 15.1501 15.325V15.2875C15.1212 15.2834 15.0923 15.2792 15.0626 15.275L15.0501 15.2375C15.0248 15.2284 15.0248 15.2284 15.0001 15.225V15.175H14.9001V15.125H14.8001V15.075H14.7376V15.025H14.6376V14.975L14.5376 14.9625L14.5251 14.925C14.5127 14.9209 14.5003 14.9167 14.4876 14.9125V14.875L14.3876 14.8625L14.3751 14.825C14.3498 14.8159 14.3498 14.8159 14.3251 14.8125V14.775L14.2251 14.7625V14.7125H14.1251V14.6625H14.0751V14.6125H13.9751V14.5625H13.8751V14.5125L13.7751 14.5L13.7626 14.4625C13.7373 14.4534 13.7373 14.4534 13.7126 14.45V14.4125L13.6126 14.4L13.6001 14.3625L13.5001 14.35V14.3H13.4001V14.25H13.3001V14.2H13.2001V14.15H13.1001L13.0876 14.1C13.074 14.1002 13.0602 14.1005 13.0462 14.1007C13.0001 14.1 13.0001 14.1 12.9626 14.0875V14.05C12.9255 14.0459 12.8883 14.0417 12.8501 14.0375V14L12.7501 13.9875L12.7376 13.95L12.5876 13.9375V13.9H12.5376V13.9375H12.4376V13.9875C12.4296 13.9887 12.4216 13.9901 12.4133 13.9914C12.4048 13.9942 12.3963 13.9971 12.3876 14L12.3751 14.0375C12.3627 14.0416 12.3503 14.0457 12.3376 14.05L12.3251 14.0875C12.3127 14.0916 12.3003 14.0957 12.2876 14.1C12.2785 14.1252 12.2785 14.1252 12.2751 14.15H12.1751V14.2H12.1251V14.25H12.0751V14.3H12.0251V14.35H11.9751V14.4C11.9671 14.4012 11.9591 14.4026 11.9508 14.4039C11.9423 14.4067 11.9338 14.4096 11.9251 14.4125L11.9126 14.45C11.9002 14.4541 11.8878 14.4582 11.8751 14.4625L11.8626 14.5C11.8502 14.5041 11.8378 14.5082 11.8251 14.5125C11.816 14.5377 11.816 14.5377 11.8126 14.5625H11.7376L11.7251 14.6125H11.6751L11.6626 14.6625H11.6251L11.6126 14.7125H11.5751L11.5626 14.7625H11.5251C11.5238 14.7705 11.5225 14.7785 11.5212 14.7867C11.517 14.7995 11.517 14.7995 11.5126 14.8125C11.5002 14.8166 11.4878 14.8207 11.4751 14.825L11.4626 14.8625C11.4502 14.8666 11.4378 14.8707 11.4251 14.875C11.416 14.9002 11.416 14.9002 11.4126 14.925H11.3626V14.975H11.3126V15.025H11.2626V15.075H11.2126V15.125C11.2046 15.1262 11.1966 15.1276 11.1883 15.1289C11.1798 15.1317 11.1713 15.1346 11.1626 15.1375L11.1501 15.175H11.1001V15.225H11.0501V15.275C11.0212 15.2791 10.9923 15.2832 10.9626 15.2875L10.9501 15.3375H10.9001V15.3875H10.8501V15.4375H10.8001V15.4875H10.7501V15.5375H10.7001V15.5875H10.6501V15.6375L10.6001 15.65L10.5876 15.7H10.5376V15.75H10.4876V15.8H10.4376V15.85H10.3876V15.9H10.3376V15.95H10.2876L10.2751 16.0125H10.2376L10.2251 16.0625H10.1876L10.1751 16.1125H10.1376L10.1251 16.2H10.0751V16.2625H10.0251V16.3125H9.97509V16.3625H9.92509V16.4125H9.87509V16.4625H9.82509L9.81259 16.5625H9.76259V16.6125C9.75021 16.6166 9.73784 16.6207 9.72509 16.625C9.71596 16.6502 9.71596 16.6502 9.71259 16.675H9.66259V16.725H9.61259V16.825H9.56259V16.875H9.51259V16.925H9.46259L9.45009 16.9875H9.41259L9.40009 17.075C9.38771 17.0791 9.37534 17.0832 9.36259 17.0875C9.35346 17.1127 9.35346 17.1127 9.35009 17.1375H9.30009V17.1875H9.25009V17.25H9.21259C9.20634 17.2932 9.20634 17.2932 9.20009 17.3375H9.16259C9.16134 17.3455 9.15996 17.3535 9.15871 17.3617C9.15584 17.3702 9.15296 17.3787 9.15009 17.3875C9.13771 17.3916 9.12534 17.3957 9.11259 17.4C9.10634 17.4432 9.10634 17.4432 9.10009 17.4875C9.08771 17.4916 9.07534 17.4957 9.06259 17.5C9.05634 17.5432 9.05634 17.5432 9.05009 17.5875L9.00009 17.6V17.7H8.95009V17.8H8.90009V17.8625C8.81146 17.8637 8.72509 17.8637 8.63759 17.85V17.8H8.53759V17.75H8.42509V17.7H8.27509V17.65H8.17509V17.6H8.06259V17.55H7.91259V17.5C7.89846 17.5002 7.88421 17.5005 7.86958 17.5007C7.82508 17.5 7.82509 17.5 7.81259 17.4875C7.81171 17.4644 7.81158 17.4411 7.81183 17.418C7.81196 17.4054 7.81208 17.3926 7.81208 17.3796C7.81233 17.3699 7.81246 17.3601 7.81259 17.35H7.86259V17.3L7.96259 17.2875V17.2375H8.01259V17.1875H8.07509V17.1375H8.12509V17.0875L8.22509 17.075L8.23759 17.025H8.27509L8.28759 16.975H8.32509V16.925H8.37509V16.875H8.42509V16.825H8.47509V16.775L8.52509 16.7625C8.53121 16.7192 8.53121 16.7192 8.53759 16.675H8.58759L8.60009 16.6125H8.63759L8.65009 16.5625H8.68759L8.70009 16.5H8.73759V16.425L8.78759 16.4125L8.80009 16.35H8.83759L8.85009 16.3H8.88759L8.90009 16.25H8.93759L8.95009 16.2H8.98759C8.99371 16.1567 8.99371 16.1567 9.00009 16.1125L9.05009 16.1L9.06259 16.05H9.10009L9.11259 15.9875H9.15009L9.16259 15.9375H9.20009V15.8875H9.25009V15.8L9.31259 15.7875V15.7375H9.36259L9.37509 15.675H9.40009L9.41259 15.625H9.45009L9.46259 15.5375L9.51259 15.525V15.475H9.56259V15.425H9.61259L9.62509 15.325C9.63746 15.3209 9.64984 15.3167 9.66259 15.3125L9.67509 15.275H9.71259V15.225L9.76259 15.2125L9.77509 15.1625H9.82509V15.075C9.83746 15.0709 9.84984 15.0667 9.86259 15.0625C9.87171 15.0372 9.87171 15.0372 9.87509 15.0125H9.92509V14.9625H9.97509V14.9125H10.0251V14.8125H10.0751L10.0876 14.75H10.1251L10.1376 14.7H10.1751L10.1876 14.6H10.2376V14.55H10.2751L10.2876 14.5H10.3251L10.3376 14.4H10.3751L10.3876 14.35H10.4251L10.4376 14.2875H10.4751L10.4876 14.2C10.5 14.1959 10.5123 14.1917 10.5251 14.1875C10.5342 14.1622 10.5342 14.1622 10.5376 14.1375H10.5876L10.6001 14.075H10.6251C10.6375 14.0317 10.6375 14.0317 10.6501 13.9875H10.6876L10.7001 13.925H10.7376L10.7501 13.875H10.7876V13.7875L10.8376 13.775L10.8501 13.725H10.8876L10.9001 13.675H10.9376L10.9501 13.5875L11.0001 13.575L11.0126 13.5125H11.0501L11.0626 13.4625H11.0876L11.1001 13.375L11.1501 13.3625V13.3125H11.2001L11.2126 13.25H11.2501V13.125L11.3001 13.1125V12.9625H11.2501V12.9125H11.2001V12.8125H11.1501V12.75H11.1001V12.7H11.0501V12.65H10.9876V12.6H10.9001L10.8876 12.5625L10.7376 12.55V12.5H10.5001L10.4876 12.45H10.2876V12.4C10.277 12.4001 10.2665 12.4002 10.2556 12.4005C10.1773 12.401 10.1018 12.3996 10.0256 12.3875V12.35L9.76309 12.3375V12.3L9.61309 12.2875V12.2375C9.51409 12.2416 9.41559 12.2457 9.31309 12.25V12.2875L9.26309 12.3L9.25059 12.35H9.21309L9.20059 12.4H9.16309L9.15059 12.45H9.11309L9.10059 12.5H9.06309L9.05059 12.55H9.00059L8.98809 12.6H8.95059L8.93809 12.65H8.90059L8.88809 12.7H8.85059V12.75H8.80059V12.8H8.75059C8.74446 12.8309 8.74446 12.8309 8.73809 12.8625H8.70059L8.68809 12.9125H8.63809V12.9625H8.58809V13.0125C8.55921 13.0166 8.53034 13.0207 8.50059 13.025L8.48809 13.0625H8.43809V13.125H8.38809V13.2125L8.43809 13.225V13.2625L8.48809 13.275V13.3125L8.53809 13.325V13.3625L8.58809 13.375V13.4125C8.59609 13.4137 8.60409 13.4151 8.61234 13.4164C8.62084 13.4192 8.62934 13.4221 8.63809 13.425C8.64421 13.4436 8.64421 13.4436 8.65059 13.4625C8.67559 13.4776 8.67559 13.4776 8.70059 13.4875V13.525L8.75059 13.5375V13.6875H8.70059V13.7375H8.65059V13.7875H8.58809V13.8375H8.48809V13.8875H8.43809V13.9375H8.33809V13.9875L8.23809 14V14.0375C8.20096 14.0416 8.16384 14.0457 8.12559 14.05V14.0875C8.08284 14.1017 8.04946 14.1012 8.00446 14.1007C7.98971 14.1006 7.97496 14.1005 7.95984 14.1005C7.94846 14.1002 7.93721 14.1001 7.92559 14.1L7.91309 14.0375L7.86309 14.025V13.8875L7.81309 13.875L7.80059 13.6375C7.78821 13.6334 7.77584 13.6292 7.76309 13.625L7.75059 13.425C7.73821 13.4209 7.72584 13.4167 7.71309 13.4125C7.70696 13.27 7.70696 13.27 7.70059 13.125H7.67559C7.66946 13.0692 7.66946 13.0692 7.66309 13.0125L7.71309 13V12.9125L7.76309 12.9V12.8125L7.81309 12.8C7.81921 12.7691 7.81921 12.7691 7.82559 12.7375H7.85059L7.87559 12.65H7.91309C7.91921 12.6191 7.91921 12.6191 7.92559 12.5875H7.96309L7.97559 12.5375H8.01309L8.02559 12.4875H8.06309L8.07559 12.4L8.12559 12.3875L8.13809 12.3375H8.17559L8.18809 12.2875H8.22559C8.23171 12.2566 8.23171 12.2566 8.23809 12.225H8.26309L8.27559 12.1375L8.32559 12.125V12.075H8.37559V12.025H8.42559L8.43809 11.9375L8.48809 11.925V11.875H8.53809V11.825C8.55046 11.8209 8.56284 11.8167 8.57559 11.8125C8.58471 11.7872 8.58471 11.7872 8.58809 11.7625H8.63809V11.7125H8.67559L8.68809 11.6125H8.73809V11.5625H8.78809V11.5125H8.83809V11.4625H8.88809C8.89421 11.4316 8.89421 11.4316 8.90059 11.4H8.93809L8.95059 11.35H8.98809L9.00059 11.3H9.05059V11.25H9.10059V11.2H9.46309V11.25C9.47134 11.25 9.47946 11.25 9.48796 11.2499C9.57309 11.2496 9.65796 11.2495 9.74296 11.2494C9.77484 11.2492 9.80659 11.2491 9.83834 11.249C9.88409 11.2489 9.92971 11.2489 9.97584 11.2487C9.98996 11.2487 10.0042 11.2486 10.019 11.2486H10.0591C10.0707 11.2485 10.0825 11.2485 10.0945 11.2485C10.1233 11.2499 10.148 11.2544 10.1756 11.2625V11.3C10.183 11.2999 10.1905 11.2999 10.1981 11.2997C10.2322 11.2995 10.2665 11.2994 10.3006 11.2992C10.3122 11.2991 10.324 11.299 10.336 11.2989C10.4046 11.2986 10.4697 11.3024 10.5385 11.3125V11.35H10.6885L10.701 11.3H10.7385L10.726 10.5875C10.7136 10.5834 10.7012 10.5792 10.6885 10.575C10.6882 10.5129 10.688 10.4509 10.6878 10.3887L10.6875 10.3254C10.6873 10.295 10.6873 10.2647 10.6872 10.2344C10.6871 10.2201 10.6871 10.2201 10.6871 10.2056C10.6871 10.1829 10.6877 10.1602 10.6885 10.1375C10.701 10.125 10.701 10.125 10.7495 10.1236C10.7711 10.1236 10.7927 10.1236 10.8143 10.1237C10.8257 10.1237 10.837 10.1239 10.8487 10.1239C10.8851 10.1239 10.9216 10.124 10.958 10.1242C10.9826 10.1242 11.0072 10.1244 11.0318 10.1244C11.0925 10.1245 11.153 10.1247 11.2131 10.125V10.1625H12.1881V10.125C12.3036 10.1209 12.4193 10.1167 12.5381 10.1125V10.075L12.7381 10.0625V10.025C12.7861 10.0137 12.8303 10.0111 12.8793 10.0117C12.8927 10.0119 12.9061 10.012 12.9198 10.012C12.935 10.0122 12.935 10.0122 12.9505 10.0125V9.97499C12.9937 9.96161 13.0335 9.96124 13.078 9.96174C13.0915 9.96186 13.105 9.96199 13.1188 9.96199C13.1291 9.96224 13.1393 9.96236 13.1498 9.96249L13.1623 9.91249H13.2998L13.3123 9.86249H13.4123L13.4248 9.81249H13.4998V9.76249C13.5118 9.76061 13.5118 9.76061 13.5241 9.75861C13.5326 9.75574 13.5411 9.75286 13.5498 9.74999L13.5623 9.71249C13.5747 9.70836 13.5871 9.70424 13.5998 9.69999C13.609 9.67474 13.609 9.67474 13.6123 9.64999H13.6623V9.54999H13.7123V9.36249H13.5748L13.5623 9.39999L13.4623 9.41249V9.44999C13.4126 9.46661 13.3642 9.46336 13.3123 9.46249V9.51249H13.1498V9.56249L12.9498 9.57499V9.61249L12.6998 9.62499V9.66249L12.3873 9.67499V9.71249C11.9986 9.72736 11.9986 9.72736 11.8123 9.72499V9.76249H11.7748V9.72499H11.6748L11.6623 9.76249H11.4498V9.72499C11.4365 9.72511 11.4231 9.72524 11.4092 9.72549C11.2055 9.72686 11.003 9.71961 10.7992 9.71249L10.7867 9.66249L10.7367 9.64999V9.61249L10.6867 9.59999V9.51249L10.6367 9.49999L10.6242 9.36249C10.6118 9.35836 10.5995 9.35424 10.5867 9.34999C10.5725 9.29574 10.5751 9.24511 10.5797 9.18999C10.5803 9.18124 10.581 9.17261 10.5817 9.16374C10.5832 9.14249 10.585 9.12136 10.5867 9.10011L10.6367 9.08761V9.03761H10.6867L10.6992 8.98761H10.7367V8.93761H10.8367V8.88761H10.8867V8.83761L10.9867 8.82511V8.78761C10.9987 8.78574 10.9987 8.78574 11.011 8.78374C11.0195 8.78086 11.028 8.77799 11.0367 8.77511L11.0492 8.73761L11.1492 8.72511V8.67511H11.1992V8.62511H11.2492V8.57511H11.2992V8.52511H11.3492L11.3617 8.46261H11.3992L11.4117 8.41261H11.4492L11.4617 8.31261H11.5117V8.26261H11.5617V8.16261H11.6117V8.06261H11.6617V7.90011H11.7117V7.70011L11.7617 7.68761V7.66261H11.7242L11.7117 7.56261H11.5742L11.5617 7.75011C11.5493 7.75424 11.537 7.75836 11.5242 7.76261L11.5117 7.90011L11.4617 7.91261V8.01261C11.4493 8.01674 11.437 8.02086 11.4242 8.02511L11.4117 8.11261L11.3617 8.12511V8.21261L11.3117 8.22511L11.2992 8.27511H11.2617L11.2492 8.32511H11.2117L11.1992 8.37511H11.1617L11.1492 8.42511H11.1117L11.0992 8.47511H11.0492L11.0367 8.52511H10.9992L10.9867 8.57511C10.9578 8.57924 10.929 8.58336 10.8992 8.58761V8.63761H10.8492L10.8367 8.68761H10.7492V8.73761H10.6492V8.78761L10.5492 8.80011L10.5367 8.83761H10.4367V8.88761L10.3367 8.90011V8.93761C10.2996 8.94174 10.2625 8.94586 10.2242 8.95011V8.98761C10.1882 8.99961 10.1655 9.00149 10.1281 9.00086C10.118 9.00074 10.108 9.00061 10.0975 9.00061C10.086 9.00036 10.086 9.00036 10.0742 9.00011V9.05011H9.97421V9.10011H9.91171V9.15011H9.86171V9.20011C9.83284 9.20424 9.80396 9.20836 9.77421 9.21261L9.76171 9.26261H9.72421L9.71171 9.36261H9.66171V9.45011H9.61171V9.51261H9.56171V9.56261H9.51171V9.61261H9.46171V9.66261L9.36171 9.67511V9.71261H9.09921V9.67511L8.94921 9.66261C8.93896 9.62174 8.93534 9.59424 8.93596 9.55324C8.93609 9.54324 8.93621 9.53324 8.93621 9.52299C8.93646 9.51536 8.93658 9.50786 8.93671 9.50011H8.98671V9.45011H9.04921V9.40011L9.14921 9.38761V9.35011H9.19921V9.30011H9.24921C9.25546 9.26924 9.25546 9.26924 9.26171 9.23761H9.29921L9.31171 9.13761H9.36171V9.03761H9.41171V8.93761H9.46171V8.83761H9.51171V8.77511H9.56171V8.67511H9.61171V8.62511H9.66171L9.67421 8.52511C9.68659 8.52099 9.69896 8.51686 9.71171 8.51261L9.72421 8.47511H9.76171L9.77421 8.41261H9.81171L9.82421 8.36261H9.86171L9.87421 8.31261H9.91171L9.92421 8.21261H10.0242V8.16261H10.0742V8.11261H10.1242V8.06261H10.1742V8.01261C10.1862 8.01074 10.1862 8.01074 10.1985 8.00874C10.207 8.00586 10.2155 8.00299 10.2242 8.00011L10.2367 7.96261C10.2491 7.95849 10.2615 7.95436 10.2742 7.95011L10.2867 7.91261H10.3242L10.3367 7.85011H10.3742L10.3867 7.80011H10.4242V7.71261L10.4742 7.70011L10.4867 7.61261C10.4991 7.60849 10.5115 7.60436 10.5242 7.60011C10.5262 7.59186 10.5283 7.58361 10.5305 7.57511C10.5325 7.56686 10.5346 7.55861 10.5367 7.55011C10.5491 7.54599 10.5615 7.54186 10.5742 7.53761L10.5867 7.35011C10.5991 7.34599 10.6115 7.34186 10.6242 7.33761V6.73761C10.6118 6.73349 10.5995 6.72936 10.5867 6.72511C10.5863 6.71099 10.5861 6.69686 10.5857 6.68224C10.5851 6.66374 10.5843 6.64524 10.5836 6.62661C10.5835 6.61736 10.5832 6.60799 10.5831 6.59836C10.5822 6.56799 10.5822 6.56799 10.5742 6.52511C10.5503 6.50511 10.5503 6.50511 10.5242 6.50011V6.42511L10.4742 6.41261V6.36261L10.4242 6.35011V6.31261L10.3742 6.30011V6.26261H10.2867V6.21261H10.2367L10.2242 6.17511C10.1953 6.17099 10.1665 6.16686 10.1367 6.16261V6.11261H10.0242V6.06261L9.92421 6.05011V6.01261L9.82421 6.00011L9.81171 5.96261C9.78284 5.95849 9.75396 5.95436 9.72421 5.95011L9.71171 5.91261C9.68646 5.90349 9.68646 5.90349 9.66171 5.90011V5.85011H9.56171V5.80011H9.51171V5.75011L9.44921 5.73761V5.70011H9.41171V5.65011L9.36171 5.63761V5.53761L9.31171 5.52511L9.29921 5.37511H9.26171C9.24509 5.32536 9.24834 5.27699 9.24921 5.22511H9.19921V5.02511L9.24921 5.01261V4.96261H9.29921L9.31171 4.91261H9.56171V4.87511C9.61471 4.86024 9.66634 4.86086 9.72046 4.86099H9.75396C9.79034 4.86086 9.82671 4.86086 9.86321 4.86099C9.88846 4.86099 9.91384 4.86099 9.93909 4.86086C9.99209 4.86086 10.0452 4.86086 10.0978 4.86099C10.1658 4.86111 10.2341 4.86099 10.3016 4.86099C10.354 4.86086 10.4062 4.86086 10.4591 4.86099C10.4841 4.86099 10.5092 4.86099 10.5343 4.86086C10.5693 4.86086 10.6043 4.86099 10.6395 4.86099C10.655 4.86099 10.655 4.86099 10.6708 4.86086C10.7156 4.86111 10.7557 4.86299 10.7983 4.87511V4.91261H10.9483L10.9608 4.96261C10.9806 4.96224 10.9806 4.96224 11.0007 4.96186C11.04 4.96249 11.073 4.96599 11.1108 4.97511V5.01261L11.2608 5.02511V5.07511H11.3733V5.11261C11.4022 5.11674 11.4311 5.12086 11.4608 5.12511L11.4733 5.16261L11.5733 5.17511V5.22511H11.6733V5.27511H11.7608L11.7733 5.32511C11.8022 5.32924 11.8311 5.33336 11.8608 5.33761V5.37511L11.9608 5.38761L11.9733 5.42511C11.9986 5.43424 11.9986 5.43424 12.0233 5.43761V5.48761H12.0733V5.52511L12.1733 5.53761V5.58761H12.2233V5.63761H12.2733V5.68761H12.3733V5.73761L12.4358 5.75011V5.80011H12.4858V5.85011H12.5358V5.90011H12.5858V5.95011H12.6358V6.00011H12.6858V6.05011H12.7358V6.10011H12.7983V6.15011H12.8483V6.20011L12.8983 6.21261V6.26261H12.9483V6.31261H12.9983L13.0108 6.40011C13.0232 6.40424 13.0356 6.40836 13.0483 6.41261V6.46261H13.0983V6.51261H13.1483L13.1608 6.61261L13.2108 6.62511V6.66261L13.2608 6.67511V6.76261H13.3108V6.82511H13.3608V6.87511H13.4108V6.97511H13.4608L13.4733 7.07511H13.5108C13.5121 7.08311 13.5135 7.09111 13.5147 7.09936C13.519 7.11211 13.519 7.11211 13.5233 7.12511C13.5357 7.12924 13.5481 7.13336 13.5608 7.13761L13.5733 7.22511C13.5857 7.22924 13.5981 7.23336 13.6108 7.23761L13.6233 7.33761H13.6733V7.43761H13.7233V7.50011H13.7733V7.60011H13.8233V7.75011H13.8733L13.8858 7.85011C13.8982 7.85424 13.9106 7.85836 13.9233 7.86261L13.9358 8.00011H13.9733L13.9858 8.11261H14.0233L14.0358 8.21261C14.0482 8.21674 14.0606 8.22086 14.0733 8.22511C14.0918 8.26874 14.0867 8.31599 14.0858 8.36261L14.1358 8.37511V8.42511C14.1647 8.42099 14.1936 8.41686 14.2233 8.41261C14.223 8.38899 14.223 8.38899 14.2226 8.36499C14.222 8.32961 14.2243 8.30949 14.2358 8.27511H14.2733L14.2858 8.16261H14.3233L14.3358 8.05011H14.3733L14.3858 7.95011H14.4233L14.4358 7.80011H14.4858V7.70011H14.5358V7.60011H14.5858V7.53761H14.6358V7.43761H14.6858V7.38761H14.7358V7.33761H14.7983V7.28761H14.8483V7.32511L14.9983 7.33761V7.38761H15.0983V7.43761L15.1983 7.45011V7.48761L15.2608 7.50011V7.53761L15.4108 7.55011V7.60011H15.5108V7.63761L15.7108 7.65011V7.55011L15.6608 7.53761V7.50011H15.6233V7.45011H15.5733V7.40011H15.5233C15.5215 7.38811 15.5215 7.38811 15.5195 7.37586C15.5166 7.36736 15.5137 7.35886 15.5108 7.35011C15.4985 7.34599 15.4861 7.34186 15.4733 7.33761L15.4608 7.30011C15.4356 7.29099 15.4356 7.29099 15.4108 7.28761V7.23761H15.3608L15.3483 7.15011H15.3108C15.309 7.13811 15.309 7.13811 15.307 7.12586C15.3041 7.11736 15.3012 7.10886 15.2983 7.10011C15.286 7.09599 15.2736 7.09186 15.2608 7.08761V7.03761H15.2108V6.93761H15.1608C15.159 6.92561 15.159 6.92561 15.157 6.91336C15.1541 6.90486 15.1512 6.89636 15.1483 6.88761C15.136 6.88349 15.1236 6.87936 15.1108 6.87511L15.0983 6.77511H15.0483V6.63761H14.9983V6.32511H14.9483V5.90011H14.8983L14.8858 5.07511C14.8611 5.07924 14.8363 5.08336 14.8108 5.08761L14.7858 5.12511C14.7735 5.12924 14.7611 5.13336 14.7483 5.13761L14.7358 5.16261C14.6537 5.18386 14.5708 5.19086 14.4858 5.18761V5.21261H14.4358V5.17511L14.3733 5.16261C14.3713 5.05936 14.3713 5.05936 14.3858 5.02511C14.3982 5.02099 14.4106 5.01686 14.4233 5.01261C14.4325 4.98736 14.4325 4.98736 14.4358 4.96261H14.4858V4.91261H14.5358V4.86261H14.6358V4.81261H14.6858V4.76261H14.7483V4.71261H14.7983V4.66261H14.8483V4.60011H14.8983V4.51261C14.9107 4.50849 14.9231 4.50436 14.9358 4.50011C14.945 4.47486 14.945 4.47486 14.9483 4.45011H14.9983V4.40011H15.0483V4.35011H15.0983V4.30011C15.2207 4.29074 15.3383 4.28474 15.4608 4.30011V4.25011H15.5733L15.5483 4.10011C15.536 4.09599 15.5236 4.09186 15.5108 4.08761L15.4983 4.00011C15.486 3.99599 15.4736 3.99186 15.4608 3.98761L15.4483 3.90011C15.436 3.89599 15.4236 3.89186 15.4108 3.88761C15.4067 3.87099 15.4025 3.85424 15.3983 3.83761C15.386 3.83349 15.3736 3.82936 15.3608 3.82511C15.3521 3.79611 15.3437 3.76686 15.3358 3.73761L15.3108 3.72511C15.3057 3.69611 15.3016 3.66686 15.2983 3.63761C15.286 3.63349 15.2736 3.62936 15.2608 3.62511C15.2583 3.60111 15.2561 3.57724 15.2538 3.55324C15.2525 3.53986 15.2512 3.52661 15.2498 3.51286C15.2485 3.47961 15.2506 3.45636 15.2608 3.42511H15.3608V3.37511H15.4108V3.42511H15.4608V3.47511H15.5108V3.52511H15.5608L15.5733 3.62511H15.6108C15.6127 3.63711 15.6127 3.63711 15.6147 3.64936C15.6176 3.65786 15.6205 3.66636 15.6233 3.67511C15.6357 3.67924 15.6481 3.68336 15.6608 3.68761L15.6733 3.77511C15.6857 3.77924 15.6981 3.78336 15.7108 3.78761L15.7233 3.88761H15.7608L15.7733 3.98761H15.9608V3.93761H16.0233V3.88761H16.1233V3.83761H16.2233V3.78761H16.3233V3.73761L16.4233 3.72511L16.4358 3.67511H16.5233L16.5358 3.62511H16.5858V3.58761L16.6858 3.57511V3.52511H16.7858V3.47511L16.8858 3.46261L16.8983 3.42511C16.9272 3.42099 16.9561 3.41686 16.9858 3.41261L16.9983 3.37511L17.0983 3.36261V3.32511L17.1983 3.31261L17.2108 3.26261H17.2608V3.22511L17.3608 3.21261V3.16261H17.4608V3.11261H17.5608V3.06261H17.6608V3.01261L17.7608 3.00011L17.7733 2.96261C17.8022 2.95849 17.8311 2.95436 17.8608 2.95011L17.8733 2.91261L17.9733 2.90011V2.86261L18.0733 2.85011L18.0858 2.80011H18.1733L18.1858 2.75011H18.2733V2.70011H18.3233V2.65011H18.4358V2.60011H18.5358V2.55011H18.6358V2.50011L18.7358 2.48761V2.45011L18.8358 2.43761V2.40011C18.8916 2.39386 18.8916 2.39386 18.9483 2.38761V2.33761H19.0483V2.28761H19.1483V2.23761H19.2483V2.18761H19.3483V2.13761L19.4483 2.12511V2.08761H19.5108V2.03761H19.6108V1.98761C19.6666 1.98136 19.6666 1.98136 19.7233 1.97511V1.93761L19.8233 1.92511V1.88761L19.9233 1.87511V1.82511H20.0233V1.77511L20.1733 1.76261V1.72511L20.2733 1.71261V1.67511H20.3358V1.62511H20.4358V1.57511C20.4915 1.56899 20.4915 1.56899 20.5483 1.56261V1.52511L20.6483 1.51261V1.47511L20.7483 1.46261V1.41261H20.8608V1.36261C20.9227 1.35649 20.9227 1.35649 20.9858 1.35011V1.31261L21.0858 1.30011V1.26261L21.1858 1.25011L21.1983 1.21261C21.2726 1.20636 21.2726 1.20636 21.3483 1.20011V1.16261C21.404 1.15636 21.404 1.15636 21.4608 1.15011V1.11261L21.5608 1.10011V1.06261C21.5835 1.06049 21.6061 1.05836 21.6288 1.05636C21.6477 1.05461 21.6477 1.05461 21.6671 1.05286C21.7191 1.04961 21.7712 1.05011 21.8233 1.05011L21.8248 1.04999ZM14.9373 7.76249V7.79999C14.9085 7.80411 14.8796 7.80824 14.8498 7.81249C14.8332 7.86224 14.8365 7.91061 14.8373 7.96249L14.7873 7.97499V8.06249L14.7373 8.07499V8.17499H14.6873V8.27499H14.6373V8.33749H14.5873V8.47499H14.5373L14.5248 8.57499C14.5062 8.58124 14.5062 8.58124 14.4873 8.58749L14.4748 8.68749H14.4373L14.4248 8.77499C14.4062 8.78124 14.4062 8.78124 14.3873 8.78749C14.3861 8.80324 14.3847 8.81899 14.3835 8.83511C14.3781 8.87899 14.371 8.89561 14.3373 8.92499C14.3283 8.95761 14.3283 8.95761 14.3248 8.98749C14.3062 8.99374 14.3062 8.99374 14.2873 8.99999L14.2748 9.08749C14.2562 9.09374 14.2562 9.09374 14.2373 9.09999L14.2248 9.19999C14.2062 9.20624 14.2062 9.20624 14.1873 9.21249L14.1748 9.33749C14.1562 9.34374 14.1562 9.34374 14.1373 9.34999C14.1311 9.39949 14.1311 9.39949 14.1248 9.44999C14.1125 9.45411 14.1001 9.45824 14.0873 9.46249L14.0748 9.54999C14.0625 9.55411 14.0501 9.55824 14.0373 9.56249C14.0286 9.59149 14.0202 9.62074 14.0123 9.64999L13.9873 9.66249C13.9835 9.67686 13.9796 9.69136 13.9756 9.70624C13.9691 9.72786 13.9691 9.72786 13.9623 9.74999C13.95 9.75411 13.9376 9.75824 13.9248 9.76249C13.9186 9.81199 13.9186 9.81199 13.9123 9.86249C13.9 9.86661 13.8876 9.87074 13.8748 9.87499L13.8623 9.96249C13.85 9.96661 13.8376 9.97074 13.8248 9.97499L13.8123 10.0625C13.8 10.0666 13.7876 10.0707 13.7748 10.075V10.175H13.7248L13.7123 10.275C13.7 10.2791 13.6876 10.2832 13.6748 10.2875L13.6623 10.375C13.65 10.3791 13.6376 10.3832 13.6248 10.3875C13.6046 10.4335 13.6115 10.4884 13.6123 10.5375L13.5623 10.55V10.65H13.5248C13.5128 10.686 13.511 10.7087 13.5116 10.7461C13.5117 10.7612 13.5117 10.7612 13.5118 10.7767C13.5121 10.7844 13.5122 10.7921 13.5123 10.8H13.4623V10.9L13.4123 10.9125V11.1625H13.3623V11.5125H13.4123C13.4122 11.5262 13.4122 11.5262 13.4121 11.5404C13.4118 11.5821 13.4117 11.6239 13.4116 11.6654C13.4115 11.6799 13.4113 11.6944 13.4112 11.7092C13.4112 11.7232 13.4112 11.7371 13.4111 11.7515C13.411 11.7707 13.411 11.7707 13.411 11.7904C13.4122 11.8207 13.4161 11.8459 13.4248 11.8747H13.4623V12.0747H13.5123C13.5122 12.085 13.5121 12.0952 13.5118 12.1057C13.5118 12.1192 13.5117 12.1327 13.5116 12.1466C13.5115 12.16 13.5112 12.1732 13.5111 12.187C13.5121 12.2189 13.5155 12.2445 13.5248 12.2747H13.5623V12.3872C13.5747 12.3914 13.5871 12.3955 13.5998 12.3997C13.6013 12.4095 13.6028 12.4192 13.6045 12.4294C13.6065 12.442 13.6086 12.4546 13.6108 12.4677C13.6128 12.4804 13.6148 12.493 13.617 12.506C13.6196 12.5162 13.6221 12.5266 13.6248 12.5372L13.6498 12.5497C13.6577 12.5837 13.6577 12.5837 13.6638 12.6255C13.6671 12.6462 13.6671 12.6462 13.6702 12.6674C13.6717 12.678 13.6733 12.6887 13.6748 12.6997C13.6872 12.7039 13.6996 12.708 13.7123 12.7122L13.7248 12.7997C13.7372 12.8039 13.7496 12.808 13.7623 12.8122C13.7686 12.8556 13.7686 12.8556 13.7748 12.8997C13.7872 12.9039 13.7996 12.908 13.8123 12.9122C13.8186 12.9802 13.8186 12.9802 13.8248 13.0497C13.8372 13.0539 13.8496 13.058 13.8623 13.0622L13.8748 13.1622C13.8872 13.1664 13.8996 13.1705 13.9123 13.1747C13.9186 13.2181 13.9186 13.2181 13.9248 13.2622C13.9372 13.2664 13.9496 13.2705 13.9623 13.2747C13.9711 13.3037 13.9795 13.333 13.9873 13.3622L14.0123 13.3747C14.0162 13.3889 14.0201 13.4031 14.0241 13.4177C14.0331 13.4651 14.0331 13.4651 14.0748 13.4872C14.0811 13.5059 14.0811 13.5059 14.0873 13.5247L14.1123 13.5372C14.1162 13.5516 14.1201 13.5661 14.1241 13.581C14.1285 13.5954 14.1328 13.6099 14.1373 13.6247C14.1497 13.6289 14.1621 13.633 14.1748 13.6372C14.1811 13.6806 14.1811 13.6806 14.1873 13.7247C14.1997 13.7289 14.2121 13.733 14.2248 13.7372C14.229 13.7539 14.2332 13.7706 14.2373 13.7872C14.2497 13.7914 14.2621 13.7955 14.2748 13.7997L14.2873 13.8747C14.2997 13.8789 14.3121 13.883 14.3248 13.8872C14.3336 13.9162 14.342 13.9455 14.3498 13.9747L14.3748 13.9872C14.3766 13.9955 14.3785 14.0037 14.3803 14.0122C14.3826 14.0205 14.385 14.0287 14.3873 14.0372C14.3997 14.0414 14.4121 14.0455 14.4248 14.0497C14.4311 14.0931 14.4311 14.0931 14.4373 14.1372H14.4873V14.1872H14.5873V14.2372H14.7498V14.1872H14.9998V14.1372H15.4123V14.0872C15.4201 14.0875 15.4278 14.0876 15.4358 14.0879C15.471 14.0886 15.5061 14.0891 15.5412 14.0896C15.5535 14.0899 15.5657 14.0902 15.5782 14.0905C15.59 14.0906 15.6017 14.0907 15.6137 14.0909C15.6246 14.0911 15.6353 14.0912 15.6465 14.0915C15.6812 14.0862 15.6888 14.0746 15.7123 14.0497C15.7472 14.045 15.7797 14.0422 15.8147 14.0411C15.8241 14.0407 15.8335 14.0402 15.8431 14.0399C15.8662 14.0389 15.8892 14.038 15.9123 14.0372L15.9248 13.9997C15.9361 13.999 15.9475 13.9982 15.9591 13.9975C15.9812 13.9959 15.9812 13.9959 16.0037 13.9942C16.0183 13.9932 16.0331 13.9922 16.0481 13.9912C16.0877 13.9886 16.0877 13.9886 16.1248 13.9747L16.1373 13.9497C16.1775 13.943 16.2172 13.9386 16.2577 13.9346C16.2802 13.9321 16.3026 13.9285 16.3248 13.9247L16.3373 13.8997C16.3713 13.8919 16.3713 13.8919 16.4131 13.8857C16.427 13.8836 16.4407 13.8815 16.455 13.8794C16.4656 13.8779 16.4763 13.8762 16.4873 13.8747L16.4998 13.8372L16.6373 13.8247V13.7747H16.7373V13.7247C16.7488 13.725 16.7488 13.725 16.7606 13.7252C16.7707 13.7252 16.7808 13.7254 16.7912 13.7255C16.8012 13.7256 16.8112 13.7259 16.8216 13.726C16.852 13.726 16.852 13.726 16.8873 13.7122V13.6747L16.9873 13.6622V13.6247H17.0498V13.5747H17.1498L17.1623 13.5247C17.1912 13.5206 17.2201 13.5165 17.2498 13.5122L17.2623 13.4747C17.2881 13.4661 17.2881 13.4661 17.3123 13.4622V13.4247L17.4123 13.4122V13.3622H17.4623V13.3122H17.5123V13.2622H17.5748V13.2122H17.6248V13.1622H17.6748V13.1122H17.7248V13.0622L17.7748 13.0497V12.9997H17.8248V12.8997H17.8748V12.8372H17.9248V12.7497H17.9748L17.9873 12.6497C17.9997 12.6456 18.0121 12.6415 18.0248 12.6372L18.0373 12.5372H18.0748L18.0873 12.4372H18.1248L18.1373 12.3247H18.1748L18.1873 12.1872H18.2248C18.2261 12.1797 18.2275 12.1722 18.2287 12.1646C18.2373 12.1372 18.2373 12.1372 18.2561 12.1205C18.2802 12.0939 18.2808 12.0765 18.2835 12.0411C18.2847 12.026 18.2847 12.026 18.286 12.0105C18.2863 12.0029 18.2868 11.9951 18.2873 11.9872C18.2997 11.9831 18.3121 11.979 18.3248 11.9747L18.3373 11.9372C18.3497 11.9331 18.3621 11.929 18.3748 11.9247C18.3761 11.9109 18.3775 11.8969 18.3787 11.8825C18.383 11.8601 18.383 11.8601 18.3873 11.8372L18.4248 11.8122C18.4335 11.7831 18.4418 11.754 18.4498 11.7247L18.4748 11.7122C18.4806 11.6906 18.4806 11.6906 18.4866 11.6685C18.491 11.6541 18.4953 11.6396 18.4998 11.6247C18.5122 11.6206 18.5246 11.6165 18.5373 11.6122V11.4747H18.4373V11.5122L18.3373 11.5247V11.5747H18.2873V11.6247H18.2373V11.6747H18.1748V11.7247H18.0873L18.0748 11.7747H17.9873L17.9748 11.8247H17.9248V11.8747C17.9016 11.8744 17.9016 11.8744 17.878 11.874C17.8416 11.8739 17.8097 11.8756 17.7748 11.8872V11.9247L17.6123 11.9372V11.9747C17.4323 11.981 17.4323 11.981 17.2498 11.9872V12.0247L17.1123 12.0372L17.0998 12.0747C17.0741 12.0834 17.0741 12.0834 17.0498 12.0872V12.1372H16.9623L16.9498 12.1747C16.9332 12.1789 16.9165 12.1831 16.8998 12.1872L16.8873 12.2247C16.875 12.2289 16.8626 12.233 16.8498 12.2372L16.8373 12.2747C16.8082 12.2831 16.779 12.2914 16.7498 12.2997L16.7373 12.3372C16.725 12.3414 16.7126 12.3455 16.6998 12.3497L16.6873 12.3872C16.675 12.3914 16.6626 12.3955 16.6498 12.3997L16.6248 12.4372C16.6125 12.4414 16.6001 12.4455 16.5873 12.4497L16.5748 12.4872C16.5501 12.4914 16.5253 12.4955 16.4998 12.4997V12.5497H16.4373V12.5997H16.3498L16.3373 12.6497H16.2873V12.6997H16.2373V12.7497L16.1373 12.7622L16.1248 12.7997C16.0991 12.8084 16.0991 12.8084 16.0748 12.8122V12.8622H16.0248V12.9122H15.9373V12.9622H15.8748V13.0122H15.8248V13.0622H15.7748V13.1122L15.6748 13.1247V13.1622L15.6123 13.1747V13.2122L15.5123 13.2247V13.2622C15.3636 13.2685 15.3636 13.2685 15.2123 13.2747V13.2247C15.1752 13.2206 15.1381 13.2165 15.0998 13.2122V13.1747L14.9998 13.1622V13.1247C14.9627 13.1206 14.9256 13.1165 14.8873 13.1122V13.0747C14.8585 13.0706 14.8296 13.0665 14.7998 13.0622V13.0122H14.7373V12.9622H14.6498L14.6373 12.8122H14.5873L14.5998 12.3372H14.6373V10.7497H14.5873V10.6372H14.5373V10.5372H14.4873V10.4372H14.4373V10.3372H14.3873C14.3875 10.3296 14.3876 10.3219 14.3878 10.314C14.3878 10.3039 14.388 10.2937 14.3881 10.2834C14.3882 10.2734 14.3885 10.2634 14.3886 10.253C14.3886 10.2226 14.3886 10.2226 14.3748 10.1872H14.3373C14.3311 10.113 14.3311 10.113 14.3248 10.0372H14.2873C14.2811 9.87599 14.2811 9.87599 14.2748 9.71224H14.2373V9.59974H14.2748L14.2873 9.33724H14.3248L14.3373 9.13724H14.3748C14.3915 9.08749 14.3882 9.03911 14.3873 8.98724H14.4373V8.88724H14.4873V8.82474H14.5373V8.73724H14.5873V8.67474H14.6498V8.62474H14.8498V8.67474H14.9498V9.19974H14.9998V9.34974H15.0498V9.39974H15.0998V9.44974H15.1498V9.49974H15.2123V9.54974H15.3123V9.59974L15.4123 9.61224V9.64974L15.5123 9.66224L15.5248 9.71224H15.6123V9.76224H15.7248V9.81224H15.8248V9.86224H15.9248V9.91224H15.9873V9.96224H16.1248V10.0122C16.162 10.0164 16.1991 10.0205 16.2373 10.0247V10.0622C16.2493 10.0641 16.2493 10.0641 16.2616 10.0661C16.2701 10.069 16.2786 10.0719 16.2873 10.0747L16.2998 10.1122L16.3998 10.1247V10.1622L16.5248 10.1872L16.5373 10.2247L16.6373 10.2372L16.6498 10.2747C16.6622 10.2789 16.6746 10.283 16.6873 10.2872L16.6998 10.3247L16.7998 10.3372L16.8123 10.3747C16.8212 10.3762 16.8301 10.3777 16.8392 10.3794C16.8507 10.3814 16.8622 10.3835 16.8741 10.3857C16.8912 10.3887 16.8912 10.3887 16.9087 10.3919C16.9182 10.3945 16.9276 10.397 16.9373 10.3997L16.9498 10.4247C16.9581 10.4265 16.9663 10.4284 16.9748 10.4302C16.9831 10.4325 16.9913 10.4349 16.9998 10.4372L17.0123 10.4747H17.0998L17.1123 10.5247C17.1412 10.5289 17.1701 10.533 17.1998 10.5372V10.5747C17.237 10.5789 17.2741 10.583 17.3123 10.5872V10.6247L17.4123 10.6372V10.6872H17.5123L17.5248 10.7372H17.6623V10.7872H17.7748V10.8372L17.9748 10.8497V10.8872H18.0248L18.0373 10.8497L18.1748 10.8372V10.7872H18.2748L18.2873 10.7497C18.2997 10.7456 18.3121 10.7415 18.3248 10.7372L18.3373 10.6997C18.3662 10.6956 18.3951 10.6915 18.4248 10.6872L18.4373 10.6497C18.454 10.6456 18.4707 10.6414 18.4873 10.6372L18.4998 10.5997C18.549 10.5814 18.6012 10.5859 18.6523 10.5865C18.6617 10.5865 18.671 10.5866 18.6806 10.5866C18.7035 10.5867 18.7263 10.587 18.7492 10.5872V10.6372H18.7992L18.8117 10.7372H18.8992V10.6872H18.9492V10.5872H18.9992V10.4872L19.0492 10.4747V10.3747H19.0992V10.3247H19.1492V10.2122H19.1992L19.2117 10.0747H19.2492L19.2617 9.96224H19.2992V9.87474H19.2617L19.2492 9.81224H19.1992V9.77474L19.0992 9.76224V9.72474L18.9992 9.71224V9.66224C18.9703 9.65811 18.9415 9.65399 18.9117 9.64974L18.8992 9.61224C18.891 9.61024 18.8827 9.60811 18.8742 9.60599C18.866 9.60399 18.8577 9.60186 18.8492 9.59974L18.8367 9.56224C18.8078 9.55811 18.779 9.55399 18.7492 9.54974L18.7367 9.51224C18.7243 9.50811 18.712 9.50399 18.6992 9.49974L18.6867 9.46224C18.6578 9.45811 18.629 9.45399 18.5992 9.44974L18.5867 9.41224C18.5758 9.40724 18.5758 9.40724 18.5648 9.40211C18.5367 9.38724 18.5367 9.38724 18.5078 9.34974C18.4743 9.30661 18.4392 9.30036 18.3867 9.28724L18.3742 9.24974C18.3618 9.24561 18.3495 9.24149 18.3367 9.23724L18.3242 9.19974C18.3118 9.19561 18.2995 9.19149 18.2867 9.18724L18.2742 9.14974H18.1867V9.09974H18.1367V9.04974H18.0867V8.99974L18.0367 8.98724L18.0242 8.93724H17.9742V8.88724H17.9242V8.83724H17.8742V8.78724H17.8242V8.73724H17.7742L17.7617 8.63724C17.7493 8.63311 17.737 8.62899 17.7242 8.62474L17.7117 8.58724C17.6993 8.58311 17.687 8.57899 17.6742 8.57474L17.6617 8.53724C17.6493 8.53311 17.637 8.52899 17.6242 8.52474C17.6156 8.49899 17.6156 8.49899 17.6117 8.47474H17.5742L17.5617 8.37474H17.5117V8.27474H17.4617V8.22474H17.4117V8.17474H17.2617L17.2492 8.21224C17.1258 8.21311 17.0017 8.21374 16.8792 8.21424C16.8218 8.21436 16.7646 8.21461 16.7067 8.21511C16.6515 8.21549 16.5962 8.21574 16.5405 8.21574C16.5193 8.21586 16.4982 8.21599 16.4771 8.21624C16.4476 8.21649 16.418 8.21649 16.3885 8.21649C16.3753 8.21674 16.3753 8.21674 16.3618 8.21686C16.3376 8.21674 16.3376 8.21674 16.2985 8.21224L16.2735 8.17474C16.2415 8.17086 16.2117 8.16886 16.1797 8.16849C16.1477 8.16811 16.118 8.16611 16.086 8.16224C16.0736 8.14361 16.0736 8.14361 16.061 8.12474C16.0288 8.11861 15.9988 8.11436 15.9665 8.11149C15.9351 8.10849 15.9046 8.10474 15.8735 8.09974L15.861 8.07474C15.8368 8.06886 15.8368 8.06886 15.8078 8.06686C15.7971 8.06574 15.7865 8.06474 15.7755 8.06361C15.7642 8.06261 15.753 8.06174 15.7415 8.06074C15.7302 8.05961 15.7188 8.05849 15.7073 8.05736C15.6793 8.05474 15.6515 8.05224 15.6235 8.04974L15.611 8.01224H15.4735L15.461 7.96224H15.361V7.91224H15.261V7.86224H15.111V7.81224H14.9985V7.76224H14.936L14.9373 7.76249ZM14.9998 11.9875V12.65H15.0498V12.75H15.0998V12.8H15.1498V12.85H15.2623V12.9H15.3623V12.85H15.5123V12.8H15.5748V12.75H15.6623L15.6748 12.7125C15.6872 12.7084 15.6996 12.7042 15.7123 12.7L15.7248 12.6625C15.7372 12.6584 15.7496 12.6542 15.7623 12.65L15.7748 12.6125C15.7872 12.6084 15.7996 12.6042 15.8123 12.6C15.8143 12.5917 15.8165 12.5835 15.8186 12.575C15.8206 12.5667 15.8227 12.5585 15.8248 12.55C15.8372 12.5459 15.8496 12.5417 15.8623 12.5375V12.3875C15.8437 12.3812 15.8437 12.3812 15.8248 12.375C15.8186 12.3564 15.8186 12.3564 15.8123 12.3375C15.8 12.3334 15.7876 12.3292 15.7748 12.325C15.7686 12.3126 15.7686 12.3126 15.7623 12.3C15.7301 12.2914 15.7301 12.2914 15.6928 12.286C15.6802 12.2839 15.6675 12.2817 15.6545 12.2796C15.6447 12.2781 15.635 12.2765 15.6248 12.275C15.6186 12.2564 15.6186 12.2564 15.6123 12.2375H15.5123V12.1875H15.4123V12.1375H15.3123V12.0875H15.2498V12.0375H15.1498V11.9875H14.9998Z" fill="url(#paint0_linear_227_11835)"/>
<path d="M21.1623 13.475H21.5623C21.5684 13.4936 21.5684 13.4936 21.5748 13.5125L21.8123 13.525C21.8184 13.5436 21.8184 13.5436 21.8248 13.5625C21.8928 13.5687 21.8928 13.5687 21.9623 13.575L21.9748 13.625H22.0748L22.0873 13.675L22.1498 13.6875V13.7125L22.2373 13.7375V13.775L22.2873 13.7875V13.825H22.3373V13.875H22.3873V13.925H22.4373V13.975H22.4873V14.0375H22.5373V14.0875H22.5873L22.5998 14.1875H22.6373L22.6498 14.2875H22.6873L22.6998 14.3875H22.7373C22.7386 14.3955 22.7399 14.4035 22.7412 14.4117C22.7454 14.4245 22.7454 14.4245 22.7498 14.4375C22.7622 14.4416 22.7746 14.4457 22.7873 14.45C22.8042 14.4912 22.8011 14.5342 22.8006 14.5775C22.8004 14.591 22.8003 14.6045 22.8003 14.6184C22.8001 14.6337 22.8001 14.6337 22.7998 14.6494H22.8498V14.9119H22.8998V15.0744H22.8498V15.1619H22.8998V15.2244H22.8498C22.8501 15.2356 22.8501 15.2356 22.8503 15.2472C22.8503 15.2572 22.8504 15.2672 22.8506 15.2775C22.8507 15.2874 22.8509 15.2972 22.8511 15.3074C22.8498 15.3357 22.8452 15.3597 22.8373 15.3869H22.7998C22.8001 15.4024 22.8003 15.4177 22.8006 15.4337C22.8003 15.5072 22.8003 15.5072 22.7873 15.5369C22.7749 15.541 22.7626 15.5451 22.7498 15.5494L22.7373 15.6369C22.7249 15.641 22.7126 15.6451 22.6998 15.6494L22.6873 15.7369C22.6749 15.741 22.6626 15.7451 22.6498 15.7494L22.6373 15.8369C22.6249 15.841 22.6126 15.8451 22.5998 15.8494C22.5907 15.8746 22.5907 15.8746 22.5873 15.8994H22.5373V15.9994H22.4873V16.0494H22.4373L22.4248 16.1494H22.3873L22.3748 16.2119H22.3373L22.3248 16.2619H22.2873V16.3119H22.2498L22.2373 16.3994L22.1873 16.4119V16.4619H22.1373V16.5244H22.0873V16.6119L22.0373 16.6244L22.0248 16.7244H21.9873L21.9748 16.8244H21.9373V17.3994H21.9748C21.9914 17.4491 21.9882 17.4975 21.9873 17.5494H22.0373V17.6494H22.0873V17.7494H22.1373V17.8119H22.1873V17.8619H22.2373L22.2498 17.9619H22.2873L22.2998 17.9994C22.3122 18.0035 22.3246 18.0076 22.3373 18.0119L22.3498 18.0494C22.3622 18.0535 22.3746 18.0576 22.3873 18.0619L22.3998 18.0994C22.4142 18.1035 22.4287 18.1076 22.4436 18.1119C22.4579 18.116 22.4724 18.1201 22.4873 18.1244L22.4998 18.1619C22.5122 18.166 22.5246 18.1701 22.5373 18.1744L22.5498 18.2119C22.5622 18.216 22.5746 18.2201 22.5873 18.2244C22.5997 18.243 22.5997 18.243 22.6123 18.2619C22.6247 18.266 22.6371 18.2701 22.6498 18.2744L22.6623 18.3119C22.6747 18.316 22.6871 18.3201 22.6998 18.3244V18.3744H22.7498V18.4244H22.7998V18.4744H22.4873V18.4244C22.4724 18.4245 22.4576 18.4246 22.4422 18.4249C22.4226 18.4249 22.4029 18.425 22.3834 18.4251C22.3736 18.4252 22.3638 18.4254 22.3537 18.4255C22.3394 18.4255 22.3394 18.4255 22.3249 18.4256C22.3119 18.4257 22.3119 18.4257 22.2986 18.4257C22.2748 18.4244 22.2748 18.4244 22.2373 18.4119V18.3744C22.2262 18.3745 22.2151 18.3746 22.2036 18.3749C22.1816 18.375 22.1816 18.375 22.1592 18.3751C22.1374 18.3754 22.1374 18.3754 22.1152 18.3756C22.0822 18.3746 22.0561 18.3717 22.0248 18.3619V18.3244L21.9248 18.3119V18.2744L21.7748 18.2619C21.7687 18.2432 21.7687 18.2432 21.7623 18.2244L21.6123 18.2119V18.1619H21.4998V18.1119H21.3623V18.0619H21.2498V18.0119H21.1998V17.9619H21.0998V17.9119H21.0498V17.8619C21.0418 17.8606 21.0338 17.8592 21.0256 17.858C21.0128 17.8537 21.0128 17.8537 20.9998 17.8494C20.9937 17.8307 20.9937 17.8307 20.9873 17.8119C20.9623 17.7967 20.9623 17.7967 20.9373 17.7869V17.7494L20.8873 17.7369V17.6994L20.8373 17.6869V17.6494H20.7998L20.7873 17.5494H20.7498V17.4494H20.6998L20.6873 17.3494H20.6498L20.6373 17.2369H20.5998L20.5873 17.0244H20.5498V16.4619L20.5748 16.4494C20.5808 16.4155 20.5853 16.3826 20.5888 16.3486C20.5899 16.3391 20.5911 16.3296 20.5922 16.3199C20.5948 16.2964 20.5973 16.2729 20.5998 16.2494H20.6498V16.1369H20.6873C20.6934 16.0874 20.6934 16.0874 20.6998 16.0369H20.7498V15.9369H20.7873V15.8494L20.8373 15.8369V15.7494L20.8873 15.7244V15.6494C20.8994 15.6454 20.8994 15.6454 20.9117 15.6412C20.9408 15.6262 20.9408 15.6262 20.9449 15.5919C20.9456 15.5794 20.9461 15.5669 20.9467 15.5541C20.9474 15.5415 20.9481 15.529 20.9488 15.5161C20.9492 15.5065 20.9494 15.4967 20.9498 15.4869L20.9998 15.4744L21.0123 15.4119H21.0373L21.0498 15.2744C21.0622 15.2702 21.0746 15.2661 21.0873 15.2619V15.0744H21.0498C21.0437 15.0249 21.0437 15.0249 21.0373 14.9744C21.0254 14.9734 21.0136 14.9724 21.0013 14.9712C20.9623 14.9619 20.9623 14.9619 20.9451 14.9384C20.9373 14.9119 20.9373 14.9119 20.9373 14.8744C20.9084 14.8702 20.8796 14.8661 20.8498 14.8619V14.8119H20.7998L20.7873 14.7744C20.7584 14.7702 20.7296 14.7661 20.6998 14.7619V14.7119H20.5998L20.5873 14.6744L20.4873 14.6619V14.6119H20.3873V14.5619C20.3378 14.5557 20.3378 14.5557 20.2873 14.5494C20.2812 14.4566 20.2812 14.4566 20.2748 14.3619H20.2373V14.2869H20.2748L20.2873 13.7744H20.3373V13.6744H20.3873V13.6244H20.4873V13.5744C20.5616 13.5681 20.5616 13.5681 20.6373 13.5619L20.6498 13.5244C20.8173 13.5144 20.9823 13.5102 21.1498 13.5119L21.1623 13.4744V13.475Z" fill="#2A1163"/>
<path d="M14.5876 15.475H14.7376V15.525L14.8376 15.5375V15.575L14.9001 15.5875V15.625H14.9501V15.675L15.0501 15.6875V15.7375H15.1001V15.7875H15.1876L15.2001 15.8375L15.2626 15.85V15.8875H15.3126V15.9375H15.4001L15.4126 15.9875C15.4414 15.9916 15.4703 15.9957 15.5001 16L15.5126 16.05L15.5626 16.0625V16.1L15.6251 16.1125V16.1375L15.7126 16.1625V16.2L15.7751 16.2125V16.25L15.8251 16.2625V16.3L15.8751 16.3125V16.35L15.9251 16.3625V16.4125H15.9751L15.9876 17.6H16.0251L16.0376 17.8625H16.0751V18.0625C16.0627 18.0666 16.0503 18.0707 16.0376 18.075L16.0251 18.1125H15.9751V18.1625H15.8751V18.2125L15.7251 18.225V18.2625L15.6251 18.275L15.6126 18.3125L15.4626 18.325V18.375H15.3626V18.425H15.2501V18.475H15.1001V18.525H15.0001V18.575H14.8501V18.625H14.7376V18.675L14.5876 18.6875V18.725C14.5504 18.7291 14.5133 18.7332 14.4751 18.7375V18.775L14.3751 18.7875V18.825C14.3407 18.8365 14.3206 18.8389 14.2852 18.8382C14.2694 18.838 14.2538 18.8377 14.2376 18.8375V18.8875H14.0876V18.9375L13.9376 18.95L13.9251 18.9875H13.7751V19.0375H13.6751V19.0875H13.6251L13.6126 19.35H13.5751C13.5752 19.357 13.5753 19.3639 13.5756 19.3711C13.5763 19.4362 13.5719 19.4986 13.5626 19.5624H13.5126V19.5999H13.4626V19.5624C13.4254 19.5582 13.3883 19.5541 13.3501 19.5499V19.5124L13.2001 19.4999V19.4499H13.0876V19.4124L12.9501 19.3999C12.9438 19.3751 12.9438 19.3751 12.9376 19.3499H12.8501V19.2999H12.7376V19.2499H12.6501C12.6334 19.2001 12.6367 19.1517 12.6376 19.0999L12.6876 19.0874L12.7001 18.9999H12.7376L12.7501 18.9374C12.7624 18.9332 12.7748 18.9291 12.7876 18.9249L12.8001 18.8874H12.8876V18.8374H12.9376V18.7874H12.9876V18.7374H13.0501V18.6874C13.0789 18.6832 13.1078 18.6791 13.1376 18.6749L13.1501 18.6374C13.1789 18.6332 13.2078 18.6291 13.2376 18.6249L13.2501 18.5749H13.3001V18.5374L13.4001 18.5249V18.4749H13.5126V18.4249H13.6126V18.3749H13.7126V18.3249L13.8126 18.3124V18.2749C13.8206 18.2736 13.8286 18.2722 13.8368 18.271C13.8496 18.2667 13.8496 18.2667 13.8626 18.2624L13.8751 18.2249C13.9039 18.2207 13.9328 18.2166 13.9626 18.2124L13.9751 18.1749L14.0751 18.1624V18.1249L14.1751 18.1124V18.0624H14.2751V18.0124H14.3876V17.9624H14.4876V17.9124H14.5876V17.8624L14.6876 17.8499V17.8124C14.7247 17.8082 14.7618 17.8041 14.8001 17.7999V17.7624L14.9001 17.7499V17.7124L15.0001 17.6999V17.6499H15.0501V17.4999H15.0001V17.3999H14.9501V17.3374H14.9001V17.2374H14.8501V17.1374H14.8001L14.7876 16.9874H14.7501L14.7376 16.8749H14.7001C14.6867 16.8316 14.6863 16.7919 14.6868 16.7474C14.6869 16.7339 14.6871 16.7204 14.6871 16.7065C14.6873 16.6911 14.6873 16.6911 14.6876 16.6755H14.6376V16.513H14.6001C14.5868 16.4732 14.5862 16.4451 14.5863 16.4035C14.5864 16.3895 14.5864 16.3755 14.5864 16.3611C14.5866 16.3465 14.5867 16.332 14.5868 16.3169C14.5868 16.3021 14.5869 16.2874 14.5869 16.2722C14.5871 16.2359 14.5873 16.1994 14.5876 16.163H14.5376V15.588L14.5876 15.5755V15.4755V15.475Z" fill="#2A1163"/>
<path d="M7.41205 5.27502H7.46205V5.32502H7.66205V5.37502C7.69918 5.37915 7.7363 5.38327 7.77455 5.38752V5.42502L7.92455 5.43752V5.48752H8.03705V5.52502L8.17455 5.53752C8.1808 5.55615 8.1808 5.55615 8.18705 5.57502L8.33705 5.58752V5.63752H8.48705V5.68752H8.64955V5.73752H8.74955V5.78752C8.75668 5.78727 8.7638 5.7869 8.77105 5.78665C8.83618 5.78515 8.88793 5.79152 8.9498 5.81252V5.85002H9.0498L9.0623 5.88752L9.1998 5.90002V5.95002H9.2998V6.00002H9.3623V6.03752L9.4623 6.05002V6.10002H9.5623V6.15002H9.6623V6.20002H9.7623L9.7748 6.25002L9.8748 6.26252V6.30002L9.9748 6.31252V6.36252H10.0248V6.40002L10.1248 6.41252V6.46252H10.1748V6.51252H10.2373V6.56252L10.2873 6.57502V6.61252H10.3248L10.3373 6.72502H10.3748C10.3854 6.76177 10.3889 6.79452 10.3889 6.83265C10.3889 6.84402 10.3891 6.8554 10.3891 6.86702C10.3891 6.88527 10.3891 6.88527 10.3889 6.9039C10.3889 6.91652 10.3889 6.92902 10.3891 6.94202C10.3891 6.96865 10.3889 6.99515 10.3889 7.02177C10.3889 7.0624 10.3889 7.10302 10.3891 7.14365C10.3891 7.16952 10.3889 7.19527 10.3889 7.22115C10.3889 7.23327 10.3891 7.2454 10.3891 7.25802C10.3889 7.27502 10.3889 7.27502 10.3889 7.2924V7.32252C10.3873 7.3499 10.3823 7.37377 10.3748 7.40002H10.3373V7.50002H10.2873L10.2748 7.60002H10.2248V7.65002C10.2124 7.65415 10.2001 7.65827 10.1873 7.66252C10.1782 7.68777 10.1782 7.68777 10.1748 7.71252H10.1248V7.76252H10.0748V7.81252H10.0248V7.86252H9.9748V7.91252C9.9668 7.91377 9.9588 7.91515 9.95055 7.9164C9.94205 7.91927 9.93355 7.92215 9.9248 7.92502L9.9123 7.96252C9.89993 7.96665 9.88755 7.97077 9.8748 7.97502L9.8623 8.01252H9.8123V8.06252H9.7623V8.11252H9.7123V8.16252C9.69993 8.16665 9.68755 8.17077 9.6748 8.17502C9.66568 8.20027 9.66568 8.20027 9.6623 8.22502H9.6123V8.27502H9.5623V8.32502H9.5123V8.37502H9.4623L9.4498 8.43752H9.4123L9.3998 8.48752H9.3623L9.3498 8.58752H9.2998V8.68752H9.2498V8.73752H9.2123L9.1998 8.83752H9.1623L9.1498 8.90002H9.1123V8.97502C9.10455 8.97815 9.0968 8.98127 9.0888 8.9844C9.05793 9.00265 9.05043 9.01727 9.0373 9.05002H9.0123L8.9998 9.10002H8.9498L8.9373 9.15002H8.8498L8.8373 9.20002H8.7873V9.15002H8.7373V9.10002H8.6873V8.77502H8.7373V8.57502H8.7873V8.42502H8.8373V8.31252H8.8873C8.89355 8.26302 8.89355 8.26302 8.8998 8.21252H8.9373L8.9498 8.06252C8.96218 8.0584 8.97455 8.05427 8.9873 8.05002L8.9998 7.91252C9.01218 7.9084 9.02455 7.90427 9.0373 7.90002V7.76252C9.02493 7.7584 9.01255 7.75427 8.9998 7.75002L8.9873 7.61252C8.97493 7.6084 8.96255 7.60427 8.9498 7.60002C8.94043 7.44752 8.93593 7.29502 8.9358 7.14252C8.93568 7.12665 8.93568 7.1109 8.93555 7.09452C8.93555 7.07965 8.93568 7.06477 8.93568 7.04952V7.00927C8.93705 6.9789 8.94105 6.95352 8.9498 6.92452H8.9873L8.9998 6.82452H9.0498V6.71202H9.0998V6.62452H9.0498V6.57452L8.9998 6.56202V6.52452L8.9373 6.51202V6.47452H8.8623C8.85993 6.46652 8.85768 6.45852 8.8553 6.45027C8.83805 6.41927 8.83805 6.41927 8.79205 6.41515C8.77805 6.41415 8.76418 6.41302 8.7498 6.41202L8.7373 6.36202C8.71255 6.35577 8.71255 6.35577 8.6873 6.34952V6.32452C8.65843 6.3204 8.62955 6.31627 8.5998 6.31202L8.5873 6.26202H8.4998L8.4873 6.21202L8.4248 6.19952V6.16202H8.3373L8.3248 6.11202C8.3168 6.11077 8.3088 6.1094 8.30055 6.10815C8.29205 6.10527 8.28355 6.1024 8.2748 6.09952L8.2623 6.06202H8.1873C8.18105 6.03727 8.18105 6.03727 8.1748 6.01202C8.14593 6.0079 8.11705 6.00377 8.0873 5.99952C8.08105 5.97477 8.08105 5.97477 8.0748 5.94952L8.0123 5.93702V5.91202C7.98343 5.9079 7.95455 5.90377 7.9248 5.89952C7.91855 5.87477 7.91855 5.87477 7.9123 5.84952L7.8623 5.83702V5.79952H7.7748C7.76868 5.77477 7.76868 5.77477 7.7623 5.74952L7.6998 5.73702V5.69952H7.6248V5.64952H7.5623V5.59952L7.4623 5.58702V5.53702H7.4123L7.3998 5.49952C7.38743 5.4954 7.37505 5.49127 7.3623 5.48702V5.32452H7.3998L7.41205 5.27502ZM9.51205 6.98752L9.49955 7.08752H9.46205C9.4498 7.13815 9.44855 7.18552 9.44955 7.23752H9.41205V7.33752H9.44955V7.38752H9.49955V7.43752H9.66205V7.38752H9.76205V7.33752H9.81205L9.82455 7.23752L9.87455 7.22502V7.03752H9.81205V6.98752H9.51205Z" fill="#7C0F80"/>
<path d="M19.5629 5.17499H19.8129V5.22499H19.9754V5.27499H20.1254V5.32499L20.2254 5.33749C20.2316 5.35611 20.2316 5.35611 20.2379 5.37499C20.2632 5.38411 20.2632 5.38411 20.2879 5.38749V5.43749H20.3379V5.48749H20.3879V5.53749H20.4379V5.58749H20.4879V5.63749H20.5379V5.68749H20.5879C20.5941 5.73699 20.5941 5.73699 20.6004 5.78749H20.6379C20.6392 5.79549 20.6406 5.80349 20.6418 5.81174C20.6447 5.82024 20.6476 5.82874 20.6504 5.83749C20.6689 5.84374 20.6689 5.84374 20.6879 5.84999C20.6941 5.89949 20.6941 5.89949 20.7004 5.94999H20.7379C20.7546 5.99974 20.7513 6.04811 20.7504 6.09999H20.8004V6.77499L20.7504 6.78749C20.7507 6.79674 20.7511 6.80586 20.7513 6.81536C20.7516 6.82761 20.7518 6.83974 20.7519 6.85236C20.7523 6.86436 20.7526 6.87636 20.7529 6.88886C20.7503 6.92661 20.7413 6.95336 20.7254 6.98749H20.7004V7.12499H20.7379C20.7488 7.16236 20.7518 7.19549 20.7512 7.23436C20.7511 7.24436 20.7509 7.25436 20.7509 7.26461C20.7507 7.27224 20.7506 7.27974 20.7504 7.28749H20.8004V7.33749H20.8504V7.38749H20.9004V7.43749H21.0004L21.0129 7.48749H21.1504L21.1629 7.44999C21.2027 7.43674 21.2308 7.43611 21.2724 7.43624C21.2864 7.43636 21.3004 7.43636 21.3148 7.43636C21.3294 7.43649 21.3439 7.43661 21.3591 7.43674C21.3738 7.43674 21.3886 7.43686 21.4037 7.43686C21.4401 7.43699 21.4766 7.43724 21.5129 7.43749C21.5331 7.51399 21.5376 7.58999 21.5004 7.66249H21.4754L21.4504 7.74999H21.4129L21.4004 7.81249H21.3629V7.86249H21.3129V7.91249H21.2629V7.96249H21.2129V8.01249H21.1629V8.06249H21.1129L21.1004 8.11249C21.0716 8.11661 21.0427 8.12074 21.0129 8.12499L21.0004 8.17499H20.9504V8.21249C20.9051 8.22761 20.8636 8.22649 20.8167 8.22624C20.8073 8.22624 20.7979 8.22611 20.7883 8.22611C20.7583 8.22611 20.7284 8.22599 20.6984 8.22574C20.6782 8.22574 20.6578 8.22561 20.6376 8.22561C20.5878 8.22549 20.5381 8.22524 20.4888 8.22499V8.17499C20.4733 8.17524 20.4579 8.17549 20.4419 8.17574C20.4056 8.17586 20.3737 8.17411 20.3388 8.16249V8.12499L20.2388 8.11249V8.07499L20.1763 8.06249V8.02499C20.1474 8.02086 20.1186 8.01674 20.0888 8.01249L20.0763 7.97499C20.0511 7.96586 20.0511 7.96586 20.0263 7.96249V7.91249H19.9763V7.86249H19.9263V7.76249H19.8763L19.8638 7.66249H19.8263L19.8138 7.44999H19.7763V6.76249H19.8138V6.57499H19.7763C19.7701 6.52549 19.7701 6.52549 19.7638 6.47499H19.7263C19.7253 6.45899 19.7243 6.44299 19.7232 6.42649C19.7206 6.39936 19.7206 6.39936 19.7138 6.37499C19.6898 6.35511 19.6898 6.35511 19.6638 6.34999V6.31249C19.6514 6.30836 19.6391 6.30424 19.6263 6.29999C19.6103 6.25186 19.6129 6.21311 19.6138 6.16249L19.5638 6.14999V6.01249L19.5138 5.99999V5.94999L19.4638 5.93749L19.4513 5.79999H19.4138V5.69999L19.3638 5.68749L19.3513 5.59999C19.3389 5.59586 19.3266 5.59174 19.3138 5.58749L19.3013 5.48749C19.2889 5.48336 19.2766 5.47924 19.2638 5.47499C19.2453 5.43136 19.2504 5.38411 19.2513 5.33749L19.3013 5.32499V5.27499H19.4013V5.22499C19.4756 5.21874 19.4756 5.21874 19.5513 5.21249L19.5638 5.17499H19.5629Z" fill="#750F7D"/>
<defs>
<linearGradient id="paint0_linear_227_11835" x1="14.744" y1="1.04999" x2="14.744" y2="20.7875" gradientUnits="userSpaceOnUse">
<stop stop-color="#960E89"/>
<stop offset="1" stop-color="#19125D"/>
</linearGradient>
</defs>
</svg>
