<svg width="85" height="22" viewBox="0 0 85 22" fill="none" xmlns="http://www.w3.org/2000/svg">
<rect width="85" height="22" rx="5" fill="#C4C4C4"/>
<path d="M34.6471 4.794H36.1871V15H35.1231V6.25L31.3291 15H30.3631L26.5971 6.32V15H25.5331V4.794H27.0591L30.8671 13.544L34.6471 4.794ZM41.0293 10.982H42.9613V10.52C42.9613 9.39067 42.3686 8.826 41.1833 8.826C40.6139 8.826 40.1753 8.98 39.8673 9.288C39.5873 9.568 39.4193 9.88533 39.3633 10.24L38.3833 10.03C38.3926 9.834 38.4859 9.58667 38.6633 9.288C38.8406 8.98933 39.0739 8.72333 39.3633 8.49C39.8579 8.10733 40.4739 7.916 41.2113 7.916C42.4806 7.916 43.3253 8.39667 43.7453 9.358C43.8853 9.68467 43.9553 10.0673 43.9553 10.506V12.466C43.9553 13.6047 43.9926 14.4493 44.0673 15H43.0593C42.9939 14.6453 42.9613 14.2393 42.9613 13.782C42.3733 14.678 41.5893 15.126 40.6093 15.126C39.9093 15.126 39.3493 14.93 38.9293 14.538C38.4906 14.1553 38.2713 13.6653 38.2713 13.068V12.998C38.2713 12.3073 38.5466 11.7987 39.0973 11.472C39.6573 11.1453 40.3013 10.982 41.0293 10.982ZM42.9613 12.06V11.822H41.0153C40.5859 11.822 40.2079 11.9013 39.8813 12.06C39.4893 12.228 39.2933 12.536 39.2933 12.984C39.2933 13.3667 39.4379 13.67 39.7273 13.894C40.0073 14.118 40.3619 14.23 40.7913 14.23C41.3979 14.23 41.9159 14.0247 42.3453 13.614C42.7559 13.222 42.9613 12.704 42.9613 12.06ZM46.2554 6.082C46.0968 5.942 46.0174 5.76467 46.0174 5.55C46.0174 5.33533 46.0921 5.15333 46.2414 5.004C46.4001 4.85467 46.5821 4.78 46.7874 4.78C46.9834 4.78 47.1654 4.85467 47.3334 5.004C47.4734 5.15333 47.5434 5.33533 47.5434 5.55C47.5434 5.76467 47.4734 5.94667 47.3334 6.096C47.1654 6.24533 46.9834 6.32 46.7874 6.32C46.5728 6.32 46.3954 6.24067 46.2554 6.082ZM46.2834 8.042H47.2914V16.484C47.2914 17.8093 46.6334 18.472 45.3174 18.472C45.1401 18.472 44.9254 18.4393 44.6734 18.374V17.534C44.8134 17.562 44.9768 17.576 45.1634 17.576C45.5181 17.576 45.7934 17.478 45.9894 17.282C46.1854 17.0953 46.2834 16.8247 46.2834 16.47V8.042ZM52.6691 15.126C52.0251 15.126 51.4231 14.9673 50.8631 14.65C50.3124 14.3233 49.8831 13.8893 49.5751 13.348C49.2577 12.8067 49.0991 12.2047 49.0991 11.542C49.0991 10.506 49.4444 9.64733 50.1351 8.966C50.8257 8.266 51.6797 7.916 52.6971 7.916C53.6864 7.89733 54.5357 8.24733 55.2451 8.966C55.9637 9.67533 56.3137 10.52 56.2951 11.5C56.3137 12.508 55.9637 13.3713 55.2451 14.09C54.5264 14.7993 53.6677 15.1447 52.6691 15.126ZM52.6971 14.216C53.4251 14.216 54.0364 13.9547 54.5311 13.432C55.0071 12.9093 55.2451 12.2793 55.2451 11.542C55.2451 10.7953 55.0024 10.1513 54.5171 9.61C54.0224 9.078 53.4064 8.812 52.6691 8.812C51.9317 8.812 51.3251 9.07333 50.8491 9.596C50.3731 10.1187 50.1351 10.7533 50.1351 11.5C50.1164 12.2373 50.3544 12.8767 50.8491 13.418C51.3531 13.9593 51.9691 14.2253 52.6971 14.216ZM58.0796 8.042H59.0736V9.414C59.4003 8.75133 59.8763 8.30333 60.5016 8.07C60.7536 7.97667 61.029 7.93 61.3276 7.93C61.505 7.93 61.617 7.93933 61.6636 7.958V9.036C61.589 9.01733 61.4583 9.008 61.2716 9.008C60.5156 9.008 59.965 9.26 59.6196 9.764C59.2743 10.268 59.1016 10.8793 59.1016 11.598V15H58.0796V8.042Z" fill="black"/>
</svg>
