<svg width="85" height="22" viewBox="0 0 85 22" fill="none" xmlns="http://www.w3.org/2000/svg">
<rect width="85" height="22" rx="5" fill="#FFD600"/>
<path d="M28.0026 4.794H29.5426V15H28.4786V6.25L24.6846 15H23.7186L19.9526 6.32V15H18.8886V4.794H20.4146L24.2226 13.544L28.0026 4.794ZM34.3848 10.982H36.3168V10.52C36.3168 9.39067 35.7241 8.826 34.5388 8.826C33.9694 8.826 33.5308 8.98 33.2228 9.288C32.9428 9.568 32.7748 9.88533 32.7188 10.24L31.7388 10.03C31.7481 9.834 31.8414 9.58667 32.0188 9.288C32.1961 8.98933 32.4294 8.72333 32.7188 8.49C33.2134 8.10733 33.8294 7.916 34.5667 7.916C35.8361 7.916 36.6808 8.39667 37.1008 9.358C37.2408 9.68467 37.3108 10.0673 37.3108 10.506V12.466C37.3108 13.6047 37.3481 14.4493 37.4228 15H36.4148C36.3494 14.6453 36.3168 14.2393 36.3168 13.782C35.7288 14.678 34.9448 15.126 33.9648 15.126C33.2648 15.126 32.7048 14.93 32.2848 14.538C31.8461 14.1553 31.6268 13.6653 31.6268 13.068V12.998C31.6268 12.3073 31.9021 11.7987 32.4528 11.472C33.0128 11.1453 33.6568 10.982 34.3848 10.982ZM36.3168 12.06V11.822H34.3708C33.9414 11.822 33.5634 11.9013 33.2368 12.06C32.8448 12.228 32.6488 12.536 32.6488 12.984C32.6488 13.3667 32.7934 13.67 33.0828 13.894C33.3628 14.118 33.7174 14.23 34.1468 14.23C34.7534 14.23 35.2714 14.0247 35.7008 13.614C36.1114 13.222 36.3168 12.704 36.3168 12.06ZM39.5269 8.042H40.5209V9.414C40.8476 8.75133 41.3236 8.30333 41.9489 8.07C42.2009 7.97667 42.4762 7.93 42.7749 7.93C42.9522 7.93 43.0642 7.93933 43.1109 7.958V9.036C43.0362 9.01733 42.9056 9.008 42.7189 9.008C41.9629 9.008 41.4122 9.26 41.0669 9.764C40.7216 10.268 40.5489 10.8793 40.5489 11.598V15H39.5269V8.042ZM48.8904 13.026C48.8904 13.6513 48.6524 14.1507 48.1764 14.524C47.7004 14.916 47.1171 15.112 46.4264 15.112C45.4091 15.112 44.6671 14.776 44.2004 14.104C43.9671 13.7867 43.8271 13.432 43.7804 13.04L44.7044 12.802C44.7697 13.1847 44.9424 13.5207 45.2224 13.81C45.5117 14.09 45.9084 14.23 46.4124 14.23C46.7951 14.23 47.1357 14.1227 47.4344 13.908C47.7144 13.712 47.8544 13.4367 47.8544 13.082C47.8544 12.802 47.7424 12.578 47.5184 12.41C47.3131 12.242 47.0471 12.1207 46.7204 12.046L45.6564 11.808C44.4991 11.556 43.9204 10.9493 43.9204 9.988C43.9204 9.26933 44.2097 8.73267 44.7884 8.378C45.2831 8.07 45.7824 7.916 46.2864 7.916C47.2384 7.92533 47.9337 8.23333 48.3724 8.84C48.5871 9.148 48.7271 9.46067 48.7924 9.778L47.8684 10.044C47.8031 9.77333 47.6677 9.512 47.4624 9.26C47.2104 8.96133 46.8184 8.812 46.2864 8.812C45.9037 8.812 45.5864 8.91933 45.3344 9.134C45.0731 9.33933 44.9424 9.60067 44.9424 9.918C44.9424 10.3847 45.2784 10.702 45.9504 10.87L47.0704 11.122C47.5837 11.2433 48.0131 11.4627 48.3584 11.78C48.7131 12.0973 48.8904 12.5127 48.8904 13.026ZM56.7308 15H55.7088V10.954C55.7088 10.31 55.5455 9.79667 55.2188 9.414C54.8922 9.03133 54.4162 8.84 53.7908 8.84C53.1842 8.84 52.6848 9.05 52.2928 9.47C51.9102 9.89933 51.7188 10.422 51.7188 11.038V15H50.6968V4.388H51.7188V9.288C52.2602 8.37333 53.0535 7.916 54.0988 7.916C54.9202 7.916 55.5688 8.168 56.0448 8.672C56.5022 9.204 56.7308 9.88067 56.7308 10.702V15ZM61.209 10.982H63.141V10.52C63.141 9.39067 62.5483 8.826 61.363 8.826C60.7936 8.826 60.355 8.98 60.047 9.288C59.767 9.568 59.599 9.88533 59.543 10.24L58.563 10.03C58.5723 9.834 58.6656 9.58667 58.843 9.288C59.0203 8.98933 59.2536 8.72333 59.543 8.49C60.0376 8.10733 60.6536 7.916 61.391 7.916C62.6603 7.916 63.505 8.39667 63.925 9.358C64.065 9.68467 64.135 10.0673 64.135 10.506V12.466C64.135 13.6047 64.1723 14.4493 64.247 15H63.239C63.1736 14.6453 63.141 14.2393 63.141 13.782C62.553 14.678 61.769 15.126 60.789 15.126C60.089 15.126 59.529 14.93 59.109 14.538C58.6703 14.1553 58.451 13.6653 58.451 13.068V12.998C58.451 12.3073 58.7263 11.7987 59.277 11.472C59.837 11.1453 60.481 10.982 61.209 10.982ZM63.141 12.06V11.822H61.195C60.7656 11.822 60.3876 11.9013 60.061 12.06C59.669 12.228 59.473 12.536 59.473 12.984C59.473 13.3667 59.6176 13.67 59.907 13.894C60.187 14.118 60.5416 14.23 60.971 14.23C61.5776 14.23 62.0956 14.0247 62.525 13.614C62.9356 13.222 63.141 12.704 63.141 12.06ZM66.3511 15V4.374H67.3731V15H66.3511Z" fill="black"/>
</svg>
