<svg width="85" height="22" viewBox="0 0 85 22" fill="none" xmlns="http://www.w3.org/2000/svg">
<rect width="85" height="22" rx="5" fill="#9E69F5"/>
<path d="M18.326 15.098C17.3367 15.098 16.506 14.7993 15.834 14.202C15.1807 13.6327 14.8073 12.97 14.714 12.214L15.722 11.934C15.834 12.5313 16.142 13.04 16.646 13.46C17.1407 13.88 17.7007 14.09 18.326 14.09C18.9513 14.09 19.474 13.9407 19.894 13.642C20.37 13.3153 20.608 12.844 20.608 12.228C20.608 11.5933 20.3233 11.108 19.754 10.772C19.4927 10.6133 19.1707 10.4967 18.788 10.422L17.444 10.156C17.1733 10.1 16.8747 10.002 16.548 9.862C16.212 9.70333 15.932 9.512 15.708 9.288C15.232 8.82133 14.994 8.23333 14.994 7.524C14.994 6.964 15.148 6.46467 15.456 6.026C15.7547 5.59667 16.1513 5.26067 16.646 5.018C17.1313 4.794 17.6587 4.682 18.228 4.682C19.2267 4.682 20.006 4.92933 20.566 5.424C21.1353 5.91867 21.4807 6.488 21.602 7.132L20.622 7.44C20.5193 6.98267 20.2673 6.57667 19.866 6.222C19.474 5.858 18.9233 5.676 18.214 5.676C17.654 5.65733 17.1547 5.82533 16.716 6.18C16.2773 6.53467 16.0627 6.96867 16.072 7.482C16.072 7.88333 16.198 8.22867 16.45 8.518C16.702 8.80733 17.0707 8.99867 17.556 9.092L18.844 9.344C19.7307 9.512 20.3933 9.81067 20.832 10.24C21.1307 10.5107 21.3547 10.8233 21.504 11.178C21.644 11.5233 21.714 11.836 21.714 12.116C21.7233 13.0027 21.4013 13.726 20.748 14.286C20.0947 14.846 19.2873 15.1167 18.326 15.098ZM29.7315 11.836H24.1035C24.1408 12.5173 24.3975 13.082 24.8735 13.53C25.3402 13.9873 25.9142 14.216 26.5955 14.216C27.1275 14.216 27.5802 14.09 27.9535 13.838C28.3268 13.5767 28.5928 13.208 28.7515 12.732L29.6475 13.012C29.4515 13.6653 29.0735 14.1833 28.5135 14.566C27.9348 14.9393 27.3002 15.126 26.6095 15.126C25.9562 15.126 25.3542 14.9627 24.8035 14.636C24.2528 14.3093 23.8328 13.8707 23.5435 13.32C23.2355 12.7787 23.0815 12.1767 23.0815 11.514C23.0815 10.8793 23.2262 10.2913 23.5155 9.75C23.7862 9.19933 24.1922 8.756 24.7335 8.42C25.2562 8.084 25.8348 7.916 26.4695 7.916C27.1695 7.916 27.7668 8.07467 28.2615 8.392C28.7655 8.7 29.1388 9.12467 29.3815 9.666C29.6242 10.1793 29.7455 10.7907 29.7455 11.5C29.7455 11.6213 29.7408 11.7333 29.7315 11.836ZM24.1175 10.968H28.7235C28.6582 10.3333 28.4248 9.81067 28.0235 9.4C27.6315 9.008 27.1135 8.812 26.4695 8.812C25.8815 8.812 25.3635 9.022 24.9155 9.442C24.4675 9.88067 24.2015 10.3893 24.1175 10.968ZM31.5015 8.042H32.4955V9.414C32.8222 8.75133 33.2982 8.30333 33.9235 8.07C34.1755 7.97667 34.4508 7.93 34.7495 7.93C34.9268 7.93 35.0388 7.93933 35.0855 7.958V9.036C35.0108 9.01733 34.8802 9.008 34.6935 9.008C33.9375 9.008 33.3868 9.26 33.0415 9.764C32.6962 10.268 32.5235 10.8793 32.5235 11.598V15H31.5015V8.042ZM41.3775 14.902V13.446C40.7522 14.5007 39.8562 15.028 38.6895 15.028C38.0549 15.028 37.4809 14.8647 36.9675 14.538C36.4729 14.2207 36.0902 13.7913 35.8195 13.25C35.5582 12.718 35.4275 12.13 35.4275 11.486C35.4275 10.8607 35.5582 10.282 35.8195 9.75C36.0902 9.20867 36.4775 8.77 36.9815 8.434C37.4762 8.08867 38.0455 7.916 38.6895 7.916C39.3242 7.916 39.8795 8.07933 40.3555 8.406C40.7289 8.66733 41.0742 9.03133 41.3915 9.498V8.042H42.3995V14.832C42.3995 16.0173 42.0729 16.9227 41.4195 17.548C40.7475 18.1733 39.8655 18.486 38.7735 18.486C37.9149 18.486 37.1775 18.2573 36.5615 17.8C35.9455 17.324 35.5769 16.7547 35.4555 16.092L36.3795 15.784C36.4915 16.2413 36.7389 16.6567 37.1215 17.03C37.5135 17.4033 38.0595 17.59 38.7595 17.59C39.5062 17.59 40.1175 17.3847 40.5935 16.974C41.1162 16.5447 41.3775 15.854 41.3775 14.902ZM38.8995 14.132C39.6182 14.132 40.2109 13.8707 40.6775 13.348C41.1535 12.8253 41.3915 12.2 41.3915 11.472C41.4102 10.7813 41.1722 10.1653 40.6775 9.624C40.1829 9.08267 39.5902 8.81667 38.8995 8.826C38.1435 8.826 37.5509 9.078 37.1215 9.582C36.6829 10.0767 36.4635 10.716 36.4635 11.5C36.4449 12.2373 36.6642 12.8627 37.1215 13.376C37.5789 13.8893 38.1715 14.1413 38.8995 14.132ZM50.8409 11.836H45.2129C45.2502 12.5173 45.5069 13.082 45.9829 13.53C46.4495 13.9873 47.0235 14.216 47.7049 14.216C48.2369 14.216 48.6895 14.09 49.0629 13.838C49.4362 13.5767 49.7022 13.208 49.8609 12.732L50.7569 13.012C50.5609 13.6653 50.1829 14.1833 49.6229 14.566C49.0442 14.9393 48.4095 15.126 47.7189 15.126C47.0655 15.126 46.4635 14.9627 45.9129 14.636C45.3622 14.3093 44.9422 13.8707 44.6529 13.32C44.3449 12.7787 44.1909 12.1767 44.1909 11.514C44.1909 10.8793 44.3355 10.2913 44.6249 9.75C44.8955 9.19933 45.3015 8.756 45.8429 8.42C46.3655 8.084 46.9442 7.916 47.5789 7.916C48.2789 7.916 48.8762 8.07467 49.3709 8.392C49.8749 8.7 50.2482 9.12467 50.4909 9.666C50.7335 10.1793 50.8549 10.7907 50.8549 11.5C50.8549 11.6213 50.8502 11.7333 50.8409 11.836ZM45.2269 10.968H49.8329C49.7675 10.3333 49.5342 9.81067 49.1329 9.4C48.7409 9.008 48.2229 8.812 47.5789 8.812C46.9909 8.812 46.4729 9.022 46.0249 9.442C45.5769 9.88067 45.3109 10.3893 45.2269 10.968ZM54.8789 10.982H56.8109V10.52C56.8109 9.39067 56.2182 8.826 55.0329 8.826C54.4636 8.826 54.0249 8.98 53.7169 9.288C53.4369 9.568 53.2689 9.88533 53.2129 10.24L52.2329 10.03C52.2422 9.834 52.3356 9.58667 52.5129 9.288C52.6902 8.98933 52.9236 8.72333 53.2129 8.49C53.7076 8.10733 54.3236 7.916 55.0609 7.916C56.3302 7.916 57.1749 8.39667 57.5949 9.358C57.7349 9.68467 57.8049 10.0673 57.8049 10.506V12.466C57.8049 13.6047 57.8422 14.4493 57.9169 15H56.9089C56.8436 14.6453 56.8109 14.2393 56.8109 13.782C56.2229 14.678 55.4389 15.126 54.4589 15.126C53.7589 15.126 53.1989 14.93 52.7789 14.538C52.3402 14.1553 52.1209 13.6653 52.1209 13.068V12.998C52.1209 12.3073 52.3962 11.7987 52.9469 11.472C53.5069 11.1453 54.1509 10.982 54.8789 10.982ZM56.8109 12.06V11.822H54.8649C54.4356 11.822 54.0576 11.9013 53.7309 12.06C53.3389 12.228 53.1429 12.536 53.1429 12.984C53.1429 13.3667 53.2876 13.67 53.5769 13.894C53.8569 14.118 54.2116 14.23 54.6409 14.23C55.2476 14.23 55.7656 14.0247 56.1949 13.614C56.6056 13.222 56.8109 12.704 56.8109 12.06ZM66.055 15H65.033V10.954C65.033 10.31 64.8697 9.79667 64.543 9.414C64.2164 9.03133 63.7404 8.84 63.115 8.84C62.5084 8.84 62.009 9.05 61.617 9.47C61.2344 9.89933 61.043 10.422 61.043 11.038V15H60.021V8.042H61.015V9.316C61.575 8.38267 62.3777 7.916 63.423 7.916C64.2444 7.916 64.893 8.168 65.369 8.672C65.8264 9.204 66.055 9.88067 66.055 10.702V15ZM70.5508 15.056C69.2348 15.056 68.5768 14.4353 68.5768 13.194V8.938H67.2888V8.042H68.5768V6.04H69.5848V8.042H71.3488V8.938H69.5848V13.18C69.5848 13.8333 69.9628 14.16 70.7188 14.16C70.8961 14.16 71.1061 14.1413 71.3488 14.104V14.944C71.1061 15.0187 70.8401 15.056 70.5508 15.056Z" fill="black"/>
</svg>
