<svg width="25" height="27" viewBox="0 0 25 27" fill="none" xmlns="http://www.w3.org/2000/svg">
<path d="M24.9584 9.4832C24.8655 9.20547 24.6248 9.00313 24.3354 8.95859L16.6502 7.78437L13.2069 0.449219C13.078 0.175 12.8022 0 12.4995 0C12.1967 0 11.9213 0.175 11.792 0.449219L8.34868 7.78437L0.663522 8.95898C0.374069 9.00313 0.133834 9.20586 0.040475 9.48359C-0.0524937 9.76094 0.0174281 10.0672 0.222116 10.277L5.80571 16.0023L4.48618 24.0898C4.43774 24.3852 4.56235 24.6824 4.80727 24.8543C4.94165 24.9492 5.09907 24.9973 5.25688 24.9973C5.38657 24.9973 5.51704 24.9645 5.63501 24.8996L12.4991 21.1031L19.3631 24.8996C19.4811 24.9645 19.6116 24.9973 19.7413 24.9973C19.8991 24.9973 20.0569 24.9492 20.1909 24.8543C20.4358 24.6824 20.5604 24.3852 20.512 24.0898L19.1924 16.0023L24.776 10.277C24.9811 10.0668 25.0514 9.76055 24.9584 9.4832Z" fill="#FFD600"/>
<path d="M13.3761 19H12.3121V9.928L9.8481 11.384L9.3721 10.572L12.3401 8.794H13.3761V19Z" fill="black"/>
</svg>
