<svg width="25" height="27" viewBox="0 0 25 27" fill="none" xmlns="http://www.w3.org/2000/svg">
<path d="M24.9584 9.4832C24.8655 9.20547 24.6248 9.00313 24.3354 8.95859L16.6502 7.78437L13.2069 0.449219C13.078 0.175 12.8022 0 12.4995 0C12.1967 0 11.9213 0.175 11.792 0.449219L8.34868 7.78437L0.663522 8.95898C0.374069 9.00313 0.133834 9.20586 0.040475 9.48359C-0.0524937 9.76094 0.0174281 10.0672 0.222116 10.277L5.80571 16.0023L4.48618 24.0898C4.43774 24.3852 4.56235 24.6824 4.80727 24.8543C4.94165 24.9492 5.09907 24.9973 5.25688 24.9973C5.38657 24.9973 5.51704 24.9645 5.63501 24.8996L12.4991 21.1031L19.3631 24.8996C19.4811 24.9645 19.6116 24.9973 19.7413 24.9973C19.8991 24.9973 20.0569 24.9492 20.1909 24.8543C20.4358 24.6824 20.5604 24.3852 20.512 24.0898L19.1924 16.0023L24.776 10.277C24.9811 10.0668 25.0514 9.76055 24.9584 9.4832Z" fill="#BF9058"/>
<path d="M15.4181 19H8.53008V18.678C8.53008 17.2687 9.31874 16.074 10.8961 15.094L12.4361 14.142C12.6974 13.9927 12.9354 13.834 13.1501 13.666C13.2714 13.5727 13.4534 13.4047 13.6961 13.162C14.0507 12.7607 14.2281 12.28 14.2281 11.72C14.2281 11.188 14.0134 10.712 13.5841 10.292C13.1547 9.88133 12.6227 9.676 11.9881 9.676C11.4747 9.676 11.0361 9.802 10.6721 10.054C10.3267 10.306 10.0654 10.614 9.88808 10.978C9.77608 11.2767 9.70608 11.6127 9.67808 11.986L8.61408 11.832C8.61408 11.384 8.72141 10.9453 8.93608 10.516C9.16008 10.0773 9.47274 9.69933 9.87408 9.382C10.4434 8.91533 11.1574 8.682 12.0161 8.682C12.9494 8.682 13.7427 8.98533 14.3961 9.592C15.0214 10.1987 15.3341 10.8987 15.3341 11.692C15.3341 12.364 15.1567 12.9427 14.8021 13.428C14.4381 13.9227 13.9014 14.3893 13.1921 14.828L11.5821 15.836C10.4527 16.536 9.86941 17.264 9.83208 18.02H15.4181V19Z" fill="black"/>
</svg>
