<svg width="25" height="27" viewBox="0 0 25 27" fill="none" xmlns="http://www.w3.org/2000/svg">
<path d="M24.9584 9.4832C24.8655 9.20547 24.6248 9.00313 24.3354 8.95859L16.6502 7.78437L13.2069 0.449219C13.078 0.175 12.8022 0 12.4995 0C12.1967 0 11.9213 0.175 11.792 0.449219L8.34868 7.78437L0.663522 8.95898C0.374069 9.00313 0.133834 9.20586 0.040475 9.48359C-0.0524937 9.76094 0.0174281 10.0672 0.222116 10.277L5.80571 16.0023L4.48618 24.0898C4.43774 24.3852 4.56235 24.6824 4.80727 24.8543C4.94165 24.9492 5.09907 24.9973 5.25688 24.9973C5.38657 24.9973 5.51704 24.9645 5.63501 24.8996L12.4991 21.1031L19.3631 24.8996C19.4811 24.9645 19.6116 24.9973 19.7413 24.9973C19.8991 24.9973 20.0569 24.9492 20.1909 24.8543C20.4358 24.6824 20.5604 24.3852 20.512 24.0898L19.1924 16.0023L24.776 10.277C24.9811 10.0668 25.0514 9.76055 24.9584 9.4832Z" fill="#C4C4C4"/>
<path d="M11.9549 19.098C10.9282 19.098 10.0929 18.79 9.44888 18.174C8.82355 17.5767 8.46888 16.8953 8.38488 16.13L9.42088 15.934C9.47688 16.5127 9.73355 17.0213 10.1909 17.46C10.6575 17.8987 11.2455 18.118 11.9549 18.118C12.2069 18.118 12.4635 18.076 12.7249 17.992C12.9955 17.908 13.2569 17.7867 13.5089 17.628C13.7702 17.4693 13.9802 17.2407 14.1389 16.942C14.3069 16.6433 14.3909 16.3027 14.3909 15.92C14.3909 15.332 14.1669 14.856 13.7189 14.492C13.2802 14.1373 12.6969 13.96 11.9689 13.96C11.6142 13.96 11.2969 14.0113 11.0169 14.114L10.5129 13.26L13.8589 9.774H8.62288V8.794H15.2309V9.732L12.0669 12.98C12.9069 12.952 13.6395 13.162 14.2649 13.61C15.0675 14.1607 15.4689 14.9167 15.4689 15.878C15.4689 16.522 15.3102 17.0867 14.9929 17.572C14.6849 18.0573 14.2602 18.4353 13.7189 18.706C13.1962 18.9673 12.6082 19.098 11.9549 19.098Z" fill="black"/>
</svg>
