<svg width="61" height="22" viewBox="0 0 61 22" fill="none" xmlns="http://www.w3.org/2000/svg">
<rect width="61" height="22" rx="2" fill="#8C1035"/>
<path d="M17.9137 10.905V15H16.4317V5.523H17.9137V9.501H22.6067V5.523H24.1017V15H22.6067V10.905H17.9137ZM25.8227 11.763C25.8227 11.139 25.9787 10.567 26.2907 10.047C26.6201 9.50967 27.0361 9.10667 27.5387 8.838C28.0587 8.552 28.6307 8.409 29.2547 8.409C29.8614 8.409 30.4247 8.552 30.9447 8.838C31.4647 9.124 31.8807 9.52267 32.1927 10.034C32.4961 10.5627 32.6477 11.1303 32.6477 11.737C32.6651 12.6643 32.3314 13.466 31.6467 14.142C30.9707 14.8093 30.1691 15.1343 29.2417 15.117C28.6437 15.117 28.0761 14.9697 27.5387 14.675C27.0361 14.4063 26.6201 14.0033 26.2907 13.466C25.9787 12.946 25.8227 12.3783 25.8227 11.763ZM27.3047 11.737C27.3047 12.3003 27.4867 12.7857 27.8507 13.193C28.2147 13.6003 28.6827 13.804 29.2547 13.804C29.8181 13.804 30.2817 13.6047 30.6457 13.206C31.0011 12.8073 31.1787 12.3263 31.1787 11.763C31.1787 11.1823 30.9967 10.697 30.6327 10.307C30.2861 9.90833 29.8224 9.709 29.2417 9.709C28.6697 9.709 28.2017 9.904 27.8377 10.294C27.4824 10.6753 27.3047 11.1563 27.3047 11.737ZM35.5788 5.146V15H34.1358V5.146H35.5788ZM37.0581 11.763C37.0581 10.9137 37.3398 10.151 37.9031 9.475C38.5098 8.76433 39.3028 8.409 40.2821 8.409C40.6288 8.409 41.0058 8.5 41.4131 8.682C41.8378 8.85533 42.1584 9.11533 42.3751 9.462V5.146H43.8181V15H42.4011V13.986C42.2451 14.246 42.0241 14.467 41.7381 14.649C41.4434 14.8137 41.1704 14.9307 40.9191 15C40.6591 15.0693 40.4338 15.104 40.2431 15.104C39.6451 15.104 39.0991 14.9437 38.6051 14.623C38.1198 14.3197 37.7384 13.908 37.4611 13.388C37.1924 12.868 37.0581 12.3263 37.0581 11.763ZM42.3881 11.763C42.3881 11.1823 42.2104 10.697 41.8551 10.307C41.4911 9.917 41.0231 9.722 40.4511 9.722C39.8878 9.722 39.4241 9.917 39.0601 10.307C38.6961 10.7143 38.5141 11.1997 38.5141 11.763C38.5141 12.3263 38.6961 12.8073 39.0601 13.206C39.4241 13.596 39.8878 13.791 40.4511 13.791C41.0231 13.791 41.4911 13.596 41.8551 13.206C42.2104 12.816 42.3881 12.335 42.3881 11.763Z" fill="#BA5272"/>
</svg>
