<svg width="55" height="28" viewBox="0 0 55 28" fill="none" xmlns="http://www.w3.org/2000/svg">
<rect width="55" height="28" rx="5" fill="#FF3449"/>
<path d="M15.4856 7.794H17.0816V16.516H21.6876V18H15.4856V7.794ZM23.7005 9.81C23.4299 9.81 23.1919 9.70733 22.9865 9.502C22.7812 9.29667 22.6785 9.05867 22.6785 8.788C22.6785 8.508 22.7812 8.26533 22.9865 8.06C23.1825 7.85467 23.4205 7.752 23.7005 7.752C23.9899 7.752 24.2325 7.85467 24.4285 8.06C24.6245 8.256 24.7225 8.49867 24.7225 8.788C24.7225 9.068 24.6245 9.306 24.4285 9.502C24.2232 9.70733 23.9805 9.81 23.7005 9.81ZM22.9305 18V11.042H24.4845V18H22.9305ZM30.2356 18H28.6816L25.7416 11.042H27.4216L29.4656 16.194L31.5096 11.042H33.1476L30.2356 18ZM40.239 14.976H34.947C34.9563 15.48 35.171 15.914 35.591 16.278C36.011 16.6327 36.4777 16.8053 36.991 16.796C37.9617 16.796 38.5777 16.404 38.839 15.62L40.141 16.026C40.0197 16.446 39.7957 16.8193 39.469 17.146C39.1517 17.4727 38.7783 17.72 38.349 17.888C37.901 18.0467 37.453 18.126 37.005 18.126C35.997 18.1447 35.1337 17.7993 34.415 17.09C33.6963 16.3807 33.3463 15.522 33.365 14.514C33.365 13.8607 33.5143 13.2587 33.813 12.708C34.121 12.1387 34.541 11.7 35.073 11.392C35.6143 11.0653 36.2117 10.902 36.865 10.902C37.929 10.902 38.7597 11.2333 39.357 11.896C39.9637 12.5587 40.267 13.4267 40.267 14.5C40.267 14.6307 40.2577 14.7893 40.239 14.976ZM36.879 12.232C36.3843 12.232 35.9737 12.3767 35.647 12.666C35.3017 12.946 35.0963 13.324 35.031 13.8H38.685C38.657 13.3333 38.475 12.9507 38.139 12.652C37.7843 12.372 37.3643 12.232 36.879 12.232Z" fill="white"/>
</svg>
