<svg width="20" height="20" viewBox="0 0 20 20" fill="none" xmlns="http://www.w3.org/2000/svg">
<g id="shield 2">
<path id="Vector" fill-rule="evenodd" clip-rule="evenodd" d="M9.90584 18.3167C9.96918 18.3383 10.0308 18.3392 10.0942 18.3167C10.9033 18.0417 16.6667 15.8483 16.6667 9.3775V3.58667C16.6669 3.51219 16.6421 3.4398 16.5963 3.38105C16.5506 3.3223 16.4864 3.28056 16.4142 3.2625L10.0808 1.67667C10.0278 1.6634 9.97225 1.6634 9.91918 1.67667L3.58584 3.2625C3.51359 3.28056 3.44947 3.3223 3.4037 3.38105C3.35794 3.4398 3.33317 3.51219 3.33334 3.58667V9.37667C3.33334 15.7825 9.09834 18.0325 9.90584 18.3167ZM10.84 5.83333C10.84 6.05435 10.7522 6.26631 10.5959 6.42259C10.4397 6.57887 10.2277 6.66667 10.0067 6.66667H10C9.779 6.66667 9.56704 6.57887 9.41075 6.42259C9.25447 6.26631 9.16668 6.05435 9.16668 5.83333C9.16668 5.61232 9.25447 5.40036 9.41075 5.24408C9.56704 5.0878 9.779 5 10 5H10.0067C10.2277 5 10.4397 5.0878 10.5959 5.24408C10.7522 5.40036 10.84 5.61232 10.84 5.83333ZM10.0067 13.3333C9.78566 13.3333 9.5737 13.2455 9.41742 13.0893C9.26114 12.933 9.17334 12.721 9.17334 12.5V8.33333C9.17334 8.11232 9.26114 7.90036 9.41742 7.74408C9.5737 7.5878 9.78566 7.5 10.0067 7.5C10.2277 7.5 10.4397 7.5878 10.5959 7.74408C10.7522 7.90036 10.84 8.11232 10.84 8.33333V12.5C10.84 12.721 10.7522 12.933 10.5959 13.0893C10.4397 13.2455 10.2277 13.3333 10.0067 13.3333Z" fill="#40FD3F"/>
</g>
</svg>
