<svg width="277" height="154" viewBox="0 0 277 154" fill="none" xmlns="http://www.w3.org/2000/svg">
<g filter="url(#filter0_d_3_859)">
<path d="M102.573 109.094L92 57H184.807L175.017 109.094L137.229 126L102.573 109.094Z" fill="url(#paint0_radial_3_859)"/>
<path d="M101.593 109.293L101.691 109.776L102.135 109.993L136.79 126.899L137.21 127.104L137.637 126.913L175.426 110.007L175.903 109.793L176 109.279L185.79 57.1847L186.012 56H184.807H92H90.7767L91.02 57.1989L101.593 109.293Z" stroke="url(#paint1_linear_3_859)" stroke-width="2"/>
</g>
<path d="M107.559 106.413L107.657 106.897L108.101 107.113L137.182 121.25L137.601 121.454L138.027 121.264L169.736 107.127L170.214 106.913L170.312 106.399L178.526 62.8345L178.75 61.6492H177.544H99.6666H98.4424L98.6867 62.8488L107.559 106.413Z" fill="url(#paint2_radial_3_859)" stroke="url(#paint3_linear_3_859)" stroke-width="2"/>
<g filter="url(#filter1_d_3_859)">
<path d="M154.132 81.2433C155.155 81.5894 156.199 81.9346 157.265 82.2807C158.33 82.6268 159.278 82.959 160.108 83.2774C162.114 84.052 163.64 85.1212 164.684 86.4835C165.729 87.8459 166.251 89.5371 166.251 91.5573C166.251 92.8298 165.953 94.0615 165.358 95.2516C164.763 96.4409 163.961 97.4301 162.951 98.2186C161.844 99.0904 160.565 99.7613 159.112 100.231C157.659 100.702 155.965 100.938 154.028 100.938C152.229 100.938 150.552 100.713 148.996 100.264C147.439 99.8152 146.121 99.2863 145.042 98.6782L143.61 100.129H141.847L141.577 89.4971H143.361C143.762 90.5084 144.274 91.5744 144.897 92.696C145.52 93.8175 146.239 94.8214 147.055 95.7079C147.899 96.6359 148.843 97.3902 149.887 97.9721C150.932 98.5533 152.153 98.8439 153.551 98.8439C155.432 98.8439 156.874 98.3851 157.877 97.4652C158.88 96.5453 159.382 95.3871 159.382 93.9905C159.382 92.8429 158.956 91.8781 158.105 91.0969C157.255 90.3158 155.937 89.6408 154.152 89.0718C152.99 88.6972 151.922 88.3503 150.946 88.0311C149.971 87.712 149.054 87.3855 148.196 87.0525C146.218 86.264 144.748 85.1368 143.787 83.67C142.825 82.204 142.344 80.565 142.344 78.7521C142.344 77.6037 142.594 76.5009 143.091 75.4423C143.589 74.3844 144.316 73.4327 145.27 72.5895C146.183 71.801 147.352 71.1578 148.777 70.6591C150.202 70.1612 151.752 69.9122 153.426 69.9122C155.059 69.9122 156.587 70.14 158.012 70.5962C159.437 71.0525 160.557 71.508 161.374 71.9643L162.64 70.7203H164.445L164.611 80.7511H162.827C162.412 79.6712 161.924 78.5668 161.363 77.438C160.803 76.3091 160.212 75.3712 159.59 74.6228C158.911 73.8196 158.13 73.1796 157.244 72.7013C156.359 72.2238 155.321 71.9847 154.132 71.9847C152.638 71.9847 151.417 72.4075 150.468 73.2515C149.521 74.0955 149.047 75.1403 149.047 76.3858C149.047 77.562 149.459 78.5236 150.282 79.2712C151.105 80.0189 152.388 80.676 154.132 81.2433ZM138.505 73.2074C137.91 73.5535 137.45 73.9224 137.125 74.3167C136.8 74.7101 136.478 75.2529 136.16 75.9434C135.731 76.8968 135.129 78.2885 134.355 80.1193C133.579 81.9501 132.694 84.0332 131.699 86.3676C130.813 88.4678 129.855 90.7688 128.824 93.269C127.794 95.7699 126.808 98.1672 125.867 100.461H121.696C119.758 95.7218 117.787 90.9068 115.781 86.0158C113.775 81.1241 112.364 77.7253 111.548 75.8185C111.23 75.128 110.922 74.6064 110.624 74.2538C110.327 73.902 109.853 73.5396 109.203 73.1658C108.732 72.9038 108.318 72.7209 107.958 72.6173C107.598 72.5136 107.121 72.4197 106.526 72.3373V70.7203H122.484V72.2957C120.991 72.4752 119.978 72.6654 119.446 72.8654C118.913 73.0662 118.648 73.3184 118.648 73.622C118.648 73.7747 118.671 73.9363 118.72 74.1093C118.769 74.2824 118.841 74.5134 118.939 74.8031C119.381 76.0177 120.183 78.002 121.345 80.756C122.506 83.5092 124.228 87.7087 126.51 93.3538C127.907 89.9175 129.069 87.0125 129.995 84.6388C130.922 82.2652 131.738 80.1675 132.444 78.3456C132.79 77.4625 133.077 76.6372 133.305 75.8708C133.534 75.1043 133.647 74.5273 133.647 74.1404C133.647 73.698 133.329 73.329 132.693 73.0311C132.057 72.7348 130.881 72.5169 129.167 72.3789V70.7203H141.1V72.3789C140.643 72.4197 140.207 72.503 139.792 72.627C139.377 72.7519 138.948 72.9454 138.505 73.2074Z" fill="url(#paint4_linear_3_859)"/>
<path d="M162.642 97.8258L162.644 97.8246C163.592 97.0836 164.348 96.1534 164.911 95.028C165.473 93.9041 165.751 92.7487 165.751 91.5573C165.751 89.6269 165.254 88.048 164.287 86.7878C163.311 85.5148 161.87 84.4937 159.928 83.7439C159.109 83.4295 158.169 83.1002 157.111 82.7562C156.044 82.41 154.999 82.0644 153.974 81.7179C152.203 81.1413 150.844 80.4573 149.946 79.6413C149.012 78.793 148.547 77.694 148.547 76.3858C148.547 74.9945 149.084 73.8149 150.136 72.8782L150.136 72.878C151.191 71.9386 152.538 71.4847 154.132 71.4847C155.389 71.4847 156.511 71.7379 157.481 72.2613L157.482 72.2613C158.425 72.7707 159.255 73.4513 159.972 74.3001L159.974 74.3032C160.627 75.0886 161.239 76.0614 161.811 77.2158C162.323 78.2463 162.776 79.258 163.169 80.2511H164.103L163.954 71.2203H162.845L161.724 72.3209L161.457 72.5835L161.13 72.4007C160.355 71.9675 159.269 71.5239 157.86 71.0724C156.488 70.6333 155.011 70.4122 153.426 70.4122C151.802 70.4122 150.309 70.6536 148.943 71.131L162.642 97.8258ZM162.642 97.8258C161.585 98.658 160.359 99.3023 158.959 99.7558L162.642 97.8258ZM149.134 99.7837L149.134 99.7837C150.641 100.218 152.271 100.438 154.028 100.438C155.926 100.438 157.566 100.206 158.958 99.7558L149.134 99.7837ZM149.134 99.7837C147.604 99.3425 146.324 98.8269 145.288 98.2426L144.955 98.0549M149.134 99.7837L144.955 98.0549M144.955 98.0549L144.686 98.327M144.955 98.0549L144.686 98.327M144.686 98.327L143.401 99.6295H142.334L142.09 89.9971H143.024L144.686 98.327ZM149.644 98.4091L149.644 98.4089C148.55 97.7996 147.565 97.0113 146.687 96.0456C146.686 96.0451 146.686 96.0446 146.685 96.0442L147.055 95.7079C146.239 94.8214 145.52 93.8175 144.897 92.696L149.644 98.4091ZM149.644 98.4091C150.775 99.0381 152.082 99.3439 153.551 99.3439C155.509 99.3439 157.089 98.8661 158.215 97.8338L158.215 97.8337M149.644 98.4091L158.215 97.8337M158.215 97.8337C159.324 96.8164 159.882 95.5231 159.882 93.9905C159.882 92.7018 159.397 91.6037 158.444 90.7286C157.516 89.8772 156.121 89.1746 154.305 88.5957C153.144 88.2214 152.076 87.8748 151.101 87.5559C150.135 87.2396 149.227 86.9163 148.379 86.5872C146.476 85.8285 145.098 84.7593 144.205 83.3959L144.205 83.3956M158.215 97.8337L144.205 83.3956M144.205 83.3956C143.298 82.0141 142.844 80.4711 142.844 78.7521M144.205 83.3956L142.844 78.7521M135.705 75.7382L135.706 75.7343C136.034 75.0221 136.377 74.4371 136.74 73.9981C137.113 73.5456 137.624 73.1417 138.252 72.7762C138.723 72.4977 139.188 72.2865 139.648 72.1482L139.649 72.148C139.956 72.0561 140.273 71.9852 140.6 71.9356V71.2203H129.667V71.9206C131.146 72.0599 132.244 72.2705 132.904 72.5778L132.906 72.5783C133.603 72.9049 134.147 73.4034 134.147 74.1404C134.147 74.6035 134.015 75.2385 133.784 76.0134C133.784 76.0135 133.784 76.0137 133.784 76.0138L133.305 75.8708L135.705 75.7382ZM135.705 75.7382C135.273 76.6967 134.669 78.0924 133.895 79.9243C133.119 81.7547 132.234 83.8374 131.239 86.1715L131.238 86.1733M135.705 75.7382L131.238 86.1733M131.238 86.1733C130.351 88.275 129.393 90.5773 128.362 93.0784L128.362 93.0784M131.238 86.1733L128.362 93.0784M128.362 93.0784C127.378 95.4671 126.434 97.7612 125.532 99.9609H122.031C120.135 95.3219 118.206 90.6103 116.244 85.8261L116.244 85.8261M128.362 93.0784L116.244 85.8261M116.244 85.8261C114.238 80.9346 112.826 77.5324 112.007 75.6217L112.007 75.6217M116.244 85.8261L112.007 75.6217M112.007 75.6217L112.002 75.6094M112.007 75.6217L112.002 75.6094M112.002 75.6094C111.675 74.9006 111.345 74.3332 111.006 73.9314L111.006 73.931M112.002 75.6094L111.006 73.931M111.006 73.931C110.655 73.5158 110.125 73.1192 109.452 72.7322L109.452 72.7322M111.006 73.931L109.452 72.7322M109.452 72.7322L109.446 72.7289M109.452 72.7322L109.446 72.7289M109.446 72.7289C108.955 72.4559 108.505 72.2545 108.096 72.1368C107.802 72.0519 107.444 71.9754 107.026 71.907V71.2203H121.984V71.8543C120.724 72.0182 119.806 72.1961 119.27 72.3974L119.27 72.3975M109.446 72.7289L119.27 72.3975M119.27 72.3975C118.721 72.6042 118.148 72.9688 118.148 73.622C118.148 73.8266 118.18 74.0339 118.239 74.2446M119.27 72.3975L118.465 74.9623M118.465 74.9623L118.465 74.9622C118.367 74.6698 118.291 74.4298 118.239 74.2446M118.465 74.9623L118.469 74.9742M118.465 74.9623L118.469 74.9742M118.239 74.2446C118.239 74.2443 118.239 74.2439 118.239 74.2436L118.72 74.1093M118.239 74.2446C118.239 74.245 118.239 74.2453 118.239 74.2457L118.72 74.1093M118.72 74.1093C118.671 73.9363 118.648 73.7747 118.648 73.622C118.648 73.3184 118.913 73.0662 119.446 72.8654L118.939 74.8031C118.841 74.5134 118.769 74.2824 118.72 74.1093ZM118.469 74.9742C118.916 76.2016 119.722 78.1959 120.884 80.9503L118.469 74.9742ZM142.844 78.7521C142.844 77.6788 143.077 76.6486 143.544 75.655M142.844 78.7521L143.544 75.655M143.544 75.655C144.01 74.6649 144.692 73.7677 145.599 72.9662M143.544 75.655L145.599 72.9662M145.599 72.9662C146.454 72.2285 147.563 71.6137 148.942 71.1311L145.599 72.9662ZM130.461 84.8206C131.388 82.447 132.204 80.3491 132.91 78.5271L120.884 80.9504C122.044 83.7 123.765 87.8966 126.047 93.5412L126.509 94.6848L126.974 93.5421C128.371 90.1045 129.534 87.1972 130.461 84.8206Z" stroke="url(#paint5_linear_3_859)"/>
</g>
<g clip-path="url(#clip0_3_859)">
<path fill-rule="evenodd" clip-rule="evenodd" d="M25 63C38.808 63 50 74.192 50 88C50 101.808 38.808 113 25 113C11.192 113 0 101.808 0 88C0 74.192 11.192 63 25 63Z" fill="#F8D05F"/>
<path fill-rule="evenodd" clip-rule="evenodd" d="M25 77C28.866 77 32 80.134 32 84C32 87.866 28.866 91 25 91C21.134 91 18 87.866 18 84C18 80.134 21.134 77 25 77Z" fill="#1F0D15"/>
<path fill-rule="evenodd" clip-rule="evenodd" d="M25 95C34.388 95 42 102 42 102C42 102 34.388 109 25 109C15.612 109 8 102 8 102C8 102 15.612 95 25 95Z" fill="#1F0D15"/>
</g>
<g clip-path="url(#clip1_3_859)">
<path fill-rule="evenodd" clip-rule="evenodd" d="M252 63C265.808 63 277 74.192 277 88C277 101.808 265.808 113 252 113C238.192 113 227 101.808 227 88C227 74.192 238.192 63 252 63Z" fill="#F8D05F"/>
<path fill-rule="evenodd" clip-rule="evenodd" d="M252 77C255.866 77 259 80.134 259 84C259 87.866 255.866 91 252 91C248.134 91 245 87.866 245 84C245 80.134 248.134 77 252 77Z" fill="#1F0D15"/>
<path fill-rule="evenodd" clip-rule="evenodd" d="M252 95C261.388 95 269 102 269 102C269 102 261.388 109 252 109C242.612 109 235 102 235 102C235 102 242.612 95 252 95Z" fill="#1F0D15"/>
</g>
<path d="M154.358 9.27386C152.899 9.27386 151.714 10.4568 151.714 11.9156C151.714 12.8445 152.194 13.662 152.919 14.1329C152.231 16.4916 150.849 19.9243 149.597 20.6363C147.218 21.9873 145.062 19.9451 146.106 14.3498C147.428 14.2048 148.458 13.0834 148.458 11.7231C148.458 10.2631 147.275 9.08023 145.815 9.08023C144.355 9.08023 143.172 10.2631 143.172 11.7231C143.172 12.6242 143.624 13.4185 144.313 13.8963C143.608 17.0181 142.569 18.2647 141.303 18.0919C139.389 17.831 139.039 14.3798 139.009 9.56139C139.969 9.16595 140.643 8.22077 140.643 7.11914C140.643 5.65911 139.46 4.47629 138 4.47629C136.541 4.47629 135.358 5.65919 135.358 7.11914C135.358 8.22085 136.033 9.16595 136.991 9.56139C136.961 14.3799 136.612 17.8311 134.697 18.092C133.431 18.2648 132.392 17.0181 131.688 13.8964C132.378 13.4185 132.828 12.6242 132.828 11.7232C132.828 10.2631 131.645 9.0803 130.186 9.0803C128.725 9.0803 127.542 10.2632 127.542 11.7232C127.542 13.0834 128.572 14.2049 129.894 14.3498C130.938 19.9453 128.783 21.9874 126.406 20.6364C125.151 19.9243 123.77 16.4916 123.082 14.1329C123.807 13.662 124.286 12.8445 124.286 11.9156C124.286 10.4568 123.103 9.27386 121.642 9.27386C120.184 9.27386 119 10.4568 119 11.9156C119 13.2967 120.06 14.4286 121.41 14.5481L123.32 27.5862H152.681L154.59 14.5481C155.941 14.4286 157 13.2967 157 11.9156C157 10.4568 155.817 9.27386 154.358 9.27386Z" fill="#FFD762"/>
<path d="M124.19 33.5237H138H151.812L152.333 29.9612H123.668L124.19 33.5237Z" fill="#FFD762"/>
<defs>
<filter id="filter0_d_3_859" x="64.5533" y="30" width="147.665" height="123.207" filterUnits="userSpaceOnUse" color-interpolation-filters="sRGB">
<feFlood flood-opacity="0" result="BackgroundImageFix"/>
<feColorMatrix in="SourceAlpha" type="matrix" values="0 0 0 0 0 0 0 0 0 0 0 0 0 0 0 0 0 0 127 0" result="hardAlpha"/>
<feOffset/>
<feGaussianBlur stdDeviation="12.5"/>
<feComposite in2="hardAlpha" operator="out"/>
<feColorMatrix type="matrix" values="0 0 0 0 0.979167 0 0 0 0 0.792375 0 0 0 0 0.350868 0 0 0 1 0"/>
<feBlend mode="normal" in2="BackgroundImageFix" result="effect1_dropShadow_3_859"/>
<feBlend mode="normal" in="SourceGraphic" in2="effect1_dropShadow_3_859" result="shape"/>
</filter>
<filter id="filter1_d_3_859" x="104.526" y="69.9122" width="63.7249" height="37.0253" filterUnits="userSpaceOnUse" color-interpolation-filters="sRGB">
<feFlood flood-opacity="0" result="BackgroundImageFix"/>
<feColorMatrix in="SourceAlpha" type="matrix" values="0 0 0 0 0 0 0 0 0 0 0 0 0 0 0 0 0 0 127 0" result="hardAlpha"/>
<feOffset dy="4"/>
<feGaussianBlur stdDeviation="1"/>
<feComposite in2="hardAlpha" operator="out"/>
<feColorMatrix type="matrix" values="0 0 0 0 0 0 0 0 0 0 0 0 0 0 0 0 0 0 0.5 0"/>
<feBlend mode="normal" in2="BackgroundImageFix" result="effect1_dropShadow_3_859"/>
<feBlend mode="normal" in="SourceGraphic" in2="effect1_dropShadow_3_859" result="shape"/>
</filter>
<radialGradient id="paint0_radial_3_859" cx="0" cy="0" r="1" gradientUnits="userSpaceOnUse" gradientTransform="translate(97.2456 75.9649) rotate(9.60304) scale(81.0302 109)">
<stop offset="0.102161" stop-color="#B37D16"/>
<stop offset="0.80694" stop-color="#F8F497"/>
<stop offset="1" stop-color="#C4963D"/>
</radialGradient>
<linearGradient id="paint1_linear_3_859" x1="92" y1="57" x2="164.228" y2="113.088" gradientUnits="userSpaceOnUse">
<stop stop-color="#F8F497"/>
<stop offset="1" stop-color="#B7851F"/>
</linearGradient>
<radialGradient id="paint2_radial_3_859" cx="0" cy="0" r="1" gradientUnits="userSpaceOnUse" gradientTransform="translate(142.842 62.6492) rotate(95.6824) scale(40.7529 55.0084)">
<stop stop-color="#AF4190"/>
<stop offset="0.472281" stop-color="#610547"/>
<stop offset="1" stop-color="#220119"/>
</radialGradient>
<linearGradient id="paint3_linear_3_859" x1="107.131" y1="62.6492" x2="167.254" y2="106.833" gradientUnits="userSpaceOnUse">
<stop stop-color="#F2E586"/>
<stop offset="0.54684" stop-color="#B37D16"/>
<stop offset="0.990875" stop-color="#F7F395"/>
</linearGradient>
<linearGradient id="paint4_linear_3_859" x1="106.526" y1="104.816" x2="106.526" y2="69.9122" gradientUnits="userSpaceOnUse">
<stop offset="0.276042" stop-color="#B37D16"/>
<stop offset="0.67" stop-color="#F8F497"/>
<stop offset="1" stop-color="#DDB149"/>
</linearGradient>
<linearGradient id="paint5_linear_3_859" x1="136.388" y1="69.9122" x2="136.386" y2="103.807" gradientUnits="userSpaceOnUse">
<stop stop-color="#DDB149"/>
<stop offset="1" stop-color="#F8F497"/>
</linearGradient>
<clipPath id="clip0_3_859">
<rect width="50" height="50" fill="white" transform="translate(0 63)"/>
</clipPath>
<clipPath id="clip1_3_859">
<rect width="50" height="50" fill="white" transform="translate(227 63)"/>
</clipPath>
</defs>
</svg>
