<svg width="323" height="153" viewBox="0 0 323 153" fill="none" xmlns="http://www.w3.org/2000/svg">
<g filter="url(#filter0_d_3_860)">
<path d="M125.573 108.094L115 56H207.807L198.017 108.094L160.229 125L125.573 108.094Z" fill="url(#paint0_radial_3_860)"/>
<path d="M124.593 108.293L124.691 108.776L125.135 108.993L159.79 125.899L160.21 126.104L160.637 125.913L198.426 109.007L198.903 108.793L199 108.279L208.79 56.1847L209.012 55H207.807H115H113.777L114.02 56.1989L124.593 108.293Z" stroke="url(#paint1_linear_3_860)" stroke-width="2"/>
</g>
<path d="M130.559 105.413L130.657 105.897L131.101 106.113L160.182 120.25L160.601 120.454L161.027 120.264L192.736 106.127L193.214 105.913L193.312 105.399L201.526 61.8345L201.75 60.6492H200.544H122.667H121.442L121.687 61.8488L130.559 105.413Z" fill="url(#paint2_radial_3_860)" stroke="url(#paint3_linear_3_860)" stroke-width="2"/>
<g filter="url(#filter1_d_3_860)">
<path d="M177.132 80.2433C178.155 80.5894 179.199 80.9346 180.265 81.2807C181.33 81.6268 182.278 81.959 183.108 82.2774C185.114 83.052 186.64 84.1212 187.684 85.4835C188.729 86.8459 189.251 88.5371 189.251 90.5573C189.251 91.8298 188.953 93.0615 188.358 94.2516C187.763 95.4409 186.961 96.4301 185.951 97.2186C184.844 98.0904 183.565 98.7613 182.112 99.2315C180.659 99.7016 178.965 99.9375 177.028 99.9375C175.229 99.9375 173.552 99.7131 171.996 99.2641C170.439 98.8152 169.121 98.2863 168.042 97.6782L166.61 99.1295H164.847L164.577 88.4971H166.361C166.762 89.5084 167.274 90.5744 167.897 91.696C168.52 92.8175 169.239 93.8214 170.055 94.7079C170.899 95.6359 171.843 96.3902 172.887 96.9721C173.932 97.5533 175.153 97.8439 176.551 97.8439C178.432 97.8439 179.874 97.3851 180.877 96.4652C181.88 95.5453 182.382 94.3871 182.382 92.9905C182.382 91.8429 181.956 90.8781 181.105 90.0969C180.255 89.3158 178.937 88.6408 177.152 88.0718C175.99 87.6972 174.922 87.3503 173.946 87.0311C172.971 86.712 172.054 86.3855 171.196 86.0525C169.218 85.264 167.748 84.1368 166.787 82.67C165.825 81.204 165.344 79.565 165.344 77.7521C165.344 76.6037 165.594 75.5009 166.091 74.4423C166.589 73.3844 167.316 72.4327 168.27 71.5895C169.183 70.801 170.352 70.1578 171.777 69.6591C173.202 69.1612 174.752 68.9122 176.426 68.9122C178.059 68.9122 179.587 69.14 181.012 69.5962C182.437 70.0525 183.557 70.508 184.374 70.9643L185.64 69.7203H187.445L187.611 79.7511H185.827C185.412 78.6712 184.924 77.5668 184.363 76.438C183.803 75.3091 183.212 74.3712 182.59 73.6228C181.911 72.8196 181.13 72.1796 180.244 71.7013C179.359 71.2238 178.321 70.9847 177.132 70.9847C175.638 70.9847 174.417 71.4075 173.468 72.2515C172.521 73.0955 172.047 74.1403 172.047 75.3858C172.047 76.562 172.459 77.5236 173.282 78.2712C174.105 79.0189 175.388 79.676 177.132 80.2433ZM161.505 72.2074C160.91 72.5535 160.45 72.9224 160.125 73.3167C159.8 73.7101 159.478 74.2529 159.16 74.9434C158.731 75.8968 158.129 77.2885 157.355 79.1193C156.579 80.9501 155.694 83.0332 154.699 85.3676C153.813 87.4678 152.855 89.7688 151.824 92.269C150.794 94.7699 149.808 97.1672 148.867 99.4609H144.696C142.758 94.7218 140.787 89.9068 138.781 85.0158C136.775 80.1241 135.364 76.7253 134.548 74.8185C134.23 74.128 133.922 73.6064 133.624 73.2538C133.327 72.902 132.853 72.5396 132.203 72.1658C131.732 71.9038 131.318 71.7209 130.958 71.6173C130.598 71.5136 130.121 71.4197 129.526 71.3373V69.7203H145.484V71.2957C143.991 71.4752 142.978 71.6654 142.446 71.8654C141.913 72.0662 141.648 72.3184 141.648 72.622C141.648 72.7747 141.671 72.9363 141.72 73.1093C141.769 73.2824 141.841 73.5134 141.939 73.8031C142.381 75.0177 143.183 77.002 144.345 79.756C145.506 82.5092 147.228 86.7087 149.51 92.3538C150.907 88.9175 152.069 86.0125 152.995 83.6388C153.922 81.2652 154.738 79.1675 155.444 77.3456C155.79 76.4625 156.077 75.6372 156.305 74.8708C156.534 74.1043 156.647 73.5273 156.647 73.1404C156.647 72.698 156.329 72.329 155.693 72.0311C155.057 71.7348 153.881 71.5169 152.167 71.3789V69.7203H164.1V71.3789C163.643 71.4197 163.207 71.503 162.792 71.627C162.377 71.7519 161.947 71.9454 161.505 72.2074Z" fill="url(#paint4_linear_3_860)"/>
<path d="M185.642 96.8258L185.644 96.8246C186.592 96.0836 187.348 95.1534 187.911 94.028C188.473 92.9041 188.751 91.7487 188.751 90.5573C188.751 88.6269 188.254 87.048 187.287 85.7878C186.311 84.5148 184.87 83.4937 182.928 82.7439C182.109 82.4295 181.169 82.1002 180.111 81.7562C179.044 81.41 177.999 81.0644 176.974 80.7179C175.203 80.1413 173.844 79.4573 172.946 78.6413C172.012 77.793 171.547 76.694 171.547 75.3858C171.547 73.9945 172.084 72.8149 173.136 71.8782L173.136 71.878C174.191 70.9386 175.538 70.4847 177.132 70.4847C178.389 70.4847 179.511 70.7379 180.481 71.2613L180.482 71.2613C181.425 71.7707 182.255 72.4513 182.972 73.3001L182.974 73.3032C183.627 74.0886 184.239 75.0614 184.811 76.2158C185.323 77.2463 185.776 78.258 186.169 79.2511H187.103L186.954 70.2203H185.845L184.724 71.3209L184.457 71.5835L184.13 71.4007C183.355 70.9675 182.269 70.5239 180.86 70.0724C179.488 69.6333 178.011 69.4122 176.426 69.4122C174.802 69.4122 173.309 69.6536 171.943 70.131L185.642 96.8258ZM185.642 96.8258C184.585 97.658 183.359 98.3023 181.959 98.7558L185.642 96.8258ZM172.134 98.7837L172.134 98.7837C173.641 99.2183 175.271 99.4375 177.028 99.4375C178.926 99.4375 180.566 99.2062 181.958 98.7558L172.134 98.7837ZM172.134 98.7837C170.604 98.3425 169.324 97.8269 168.288 97.2426L167.955 97.0549M172.134 98.7837L167.955 97.0549M167.955 97.0549L167.686 97.327M167.955 97.0549L167.686 97.327M167.686 97.327L166.401 98.6295H165.334L165.09 88.9971H166.024L167.686 97.327ZM172.644 97.4091L172.644 97.4089C171.55 96.7996 170.565 96.0113 169.687 95.0456C169.686 95.0451 169.686 95.0446 169.685 95.0442L170.055 94.7079C169.239 93.8214 168.52 92.8175 167.897 91.696L172.644 97.4091ZM172.644 97.4091C173.775 98.0381 175.082 98.3439 176.551 98.3439C178.509 98.3439 180.089 97.8661 181.215 96.8338L181.215 96.8337M172.644 97.4091L181.215 96.8337M181.215 96.8337C182.324 95.8164 182.882 94.5231 182.882 92.9905C182.882 91.7018 182.397 90.6037 181.444 89.7286C180.516 88.8772 179.121 88.1746 177.305 87.5957C176.144 87.2214 175.076 86.8748 174.101 86.5559C173.135 86.2396 172.227 85.9163 171.379 85.5872C169.476 84.8285 168.098 83.7593 167.205 82.3959L167.205 82.3956M181.215 96.8337L167.205 82.3956M167.205 82.3956C166.298 81.0141 165.844 79.4711 165.844 77.7521M167.205 82.3956L165.844 77.7521M158.704 74.7382L158.706 74.7343C159.034 74.0221 159.377 73.4371 159.74 72.9981C160.113 72.5456 160.624 72.1417 161.252 71.7762C161.723 71.4977 162.188 71.2865 162.648 71.1482L162.649 71.148C162.956 71.0561 163.273 70.9852 163.6 70.9356V70.2203H152.667V70.9206C154.146 71.0599 155.244 71.2705 155.904 71.5778L155.906 71.5783C156.603 71.9049 157.147 72.4034 157.147 73.1404C157.147 73.6035 157.015 74.2385 156.784 75.0134C156.784 75.0135 156.784 75.0137 156.784 75.0138L156.305 74.8708L158.704 74.7382ZM158.704 74.7382C158.273 75.6967 157.669 77.0924 156.895 78.9243C156.119 80.7547 155.234 82.8374 154.239 85.1715L154.238 85.1733M158.704 74.7382L154.238 85.1733M154.238 85.1733C153.351 87.275 152.393 89.5773 151.362 92.0784L151.362 92.0784M154.238 85.1733L151.362 92.0784M151.362 92.0784C150.378 94.4671 149.434 96.7612 148.532 98.9609H145.031C143.135 94.3219 141.206 89.6103 139.244 84.8261L139.244 84.8261M151.362 92.0784L139.244 84.8261M139.244 84.8261C137.238 79.9346 135.826 76.5324 135.007 74.6217L135.007 74.6217M139.244 84.8261L135.007 74.6217M135.007 74.6217L135.002 74.6094M135.007 74.6217L135.002 74.6094M135.002 74.6094C134.675 73.9006 134.345 73.3332 134.006 72.9314L134.006 72.931M135.002 74.6094L134.006 72.931M134.006 72.931C133.655 72.5158 133.125 72.1192 132.452 71.7322L132.452 71.7322M134.006 72.931L132.452 71.7322M132.452 71.7322L132.446 71.7289M132.452 71.7322L132.446 71.7289M132.446 71.7289C131.955 71.4559 131.505 71.2545 131.096 71.1368C130.802 71.0519 130.444 70.9754 130.026 70.907V70.2203H144.984V70.8543C143.724 71.0182 142.806 71.1961 142.27 71.3974L142.27 71.3975M132.446 71.7289L142.27 71.3975M142.27 71.3975C141.721 71.6042 141.148 71.9688 141.148 72.622C141.148 72.8266 141.179 73.0339 141.239 73.2446M142.27 71.3975L141.465 73.9623M141.465 73.9623L141.465 73.9622C141.367 73.6698 141.291 73.4298 141.239 73.2446M141.465 73.9623L141.469 73.9742M141.465 73.9623L141.469 73.9742M141.239 73.2446C141.239 73.2443 141.239 73.2439 141.239 73.2436L141.72 73.1093M141.239 73.2446C141.239 73.245 141.239 73.2453 141.239 73.2457L141.72 73.1093M141.72 73.1093C141.671 72.9363 141.648 72.7747 141.648 72.622C141.648 72.3184 141.913 72.0662 142.446 71.8654L141.939 73.8031C141.841 73.5134 141.769 73.2824 141.72 73.1093ZM141.469 73.9742C141.916 75.2016 142.722 77.1959 143.884 79.9503L141.469 73.9742ZM165.844 77.7521C165.844 76.6788 166.077 75.6486 166.544 74.655M165.844 77.7521L166.544 74.655M166.544 74.655C167.01 73.6649 167.692 72.7677 168.599 71.9662M166.544 74.655L168.599 71.9662M168.599 71.9662C169.454 71.2285 170.563 70.6137 171.942 70.1311L168.599 71.9662ZM153.461 83.8206C154.388 81.447 155.204 79.3491 155.91 77.5271L143.884 79.9504C145.044 82.7 146.765 86.8966 149.047 92.5412L149.509 93.6848L149.974 92.5421C151.371 89.1045 152.534 86.1972 153.461 83.8206Z" stroke="url(#paint5_linear_3_860)"/>
</g>
<g clip-path="url(#clip0_3_860)">
<path fill-rule="evenodd" clip-rule="evenodd" d="M20 60C31.0464 60 40 68.9536 40 80C40 91.0464 31.0464 100 20 100C8.9536 100 0 91.0464 0 80C0 68.9536 8.9536 60 20 60Z" fill="#F8D05F"/>
<path fill-rule="evenodd" clip-rule="evenodd" d="M20 71.2C23.0928 71.2 25.6 73.7072 25.6 76.8C25.6 79.8928 23.0928 82.4 20 82.4C16.9072 82.4 14.4 79.8928 14.4 76.8C14.4 73.7072 16.9072 71.2 20 71.2Z" fill="#1F0D15"/>
<path fill-rule="evenodd" clip-rule="evenodd" d="M20 85.6C27.5104 85.6 33.6 91.2 33.6 91.2C33.6 91.2 27.5104 96.8 20 96.8C12.4896 96.8 6.4 91.2 6.4 91.2C6.4 91.2 12.4896 85.6 20 85.6Z" fill="#1F0D15"/>
</g>
<g clip-path="url(#clip1_3_860)">
<path fill-rule="evenodd" clip-rule="evenodd" d="M65 60C76.0464 60 85 68.9536 85 80C85 91.0464 76.0464 100 65 100C53.9536 100 45 91.0464 45 80C45 68.9536 53.9536 60 65 60Z" fill="#F8D05F"/>
<path fill-rule="evenodd" clip-rule="evenodd" d="M65 71.2C68.0928 71.2 70.6 73.7072 70.6 76.8C70.6 79.8928 68.0928 82.4 65 82.4C61.9072 82.4 59.4 79.8928 59.4 76.8C59.4 73.7072 61.9072 71.2 65 71.2Z" fill="#1F0D15"/>
<path fill-rule="evenodd" clip-rule="evenodd" d="M65 85.6C72.5104 85.6 78.6 91.2 78.6 91.2C78.6 91.2 72.5104 96.8 65 96.8C57.4896 96.8 51.4 91.2 51.4 91.2C51.4 91.2 57.4896 85.6 65 85.6Z" fill="#1F0D15"/>
</g>
<g clip-path="url(#clip2_3_860)">
<path fill-rule="evenodd" clip-rule="evenodd" d="M43 83C54.0464 83 63 91.9536 63 103C63 114.046 54.0464 123 43 123C31.9536 123 23 114.046 23 103C23 91.9536 31.9536 83 43 83Z" fill="#F8D05F"/>
<path fill-rule="evenodd" clip-rule="evenodd" d="M43 94.2C46.0928 94.2 48.6 96.7072 48.6 99.8C48.6 102.893 46.0928 105.4 43 105.4C39.9072 105.4 37.4 102.893 37.4 99.8C37.4 96.7072 39.9072 94.2 43 94.2Z" fill="#1F0D15"/>
<path fill-rule="evenodd" clip-rule="evenodd" d="M43 108.6C50.5104 108.6 56.6 114.2 56.6 114.2C56.6 114.2 50.5104 119.8 43 119.8C35.4896 119.8 29.4 114.2 29.4 114.2C29.4 114.2 35.4896 108.6 43 108.6Z" fill="#1F0D15"/>
</g>
<g clip-path="url(#clip3_3_860)">
<path fill-rule="evenodd" clip-rule="evenodd" d="M258 60C269.046 60 278 68.9536 278 80C278 91.0464 269.046 100 258 100C246.954 100 238 91.0464 238 80C238 68.9536 246.954 60 258 60Z" fill="#F8D05F"/>
<path fill-rule="evenodd" clip-rule="evenodd" d="M258 71.2C261.093 71.2 263.6 73.7072 263.6 76.8C263.6 79.8928 261.093 82.4 258 82.4C254.907 82.4 252.4 79.8928 252.4 76.8C252.4 73.7072 254.907 71.2 258 71.2Z" fill="#1F0D15"/>
<path fill-rule="evenodd" clip-rule="evenodd" d="M258 85.6C265.51 85.6 271.6 91.2 271.6 91.2C271.6 91.2 265.51 96.8 258 96.8C250.49 96.8 244.4 91.2 244.4 91.2C244.4 91.2 250.49 85.6 258 85.6Z" fill="#1F0D15"/>
</g>
<g clip-path="url(#clip4_3_860)">
<path fill-rule="evenodd" clip-rule="evenodd" d="M303 60C314.046 60 323 68.9536 323 80C323 91.0464 314.046 100 303 100C291.954 100 283 91.0464 283 80C283 68.9536 291.954 60 303 60Z" fill="#F8D05F"/>
<path fill-rule="evenodd" clip-rule="evenodd" d="M303 71.2C306.093 71.2 308.6 73.7072 308.6 76.8C308.6 79.8928 306.093 82.4 303 82.4C299.907 82.4 297.4 79.8928 297.4 76.8C297.4 73.7072 299.907 71.2 303 71.2Z" fill="#1F0D15"/>
<path fill-rule="evenodd" clip-rule="evenodd" d="M303 85.6C310.51 85.6 316.6 91.2 316.6 91.2C316.6 91.2 310.51 96.8 303 96.8C295.49 96.8 289.4 91.2 289.4 91.2C289.4 91.2 295.49 85.6 303 85.6Z" fill="#1F0D15"/>
</g>
<g clip-path="url(#clip5_3_860)">
<path fill-rule="evenodd" clip-rule="evenodd" d="M281 83C292.046 83 301 91.9536 301 103C301 114.046 292.046 123 281 123C269.954 123 261 114.046 261 103C261 91.9536 269.954 83 281 83Z" fill="#F8D05F"/>
<path fill-rule="evenodd" clip-rule="evenodd" d="M281 94.2C284.093 94.2 286.6 96.7072 286.6 99.8C286.6 102.893 284.093 105.4 281 105.4C277.907 105.4 275.4 102.893 275.4 99.8C275.4 96.7072 277.907 94.2 281 94.2Z" fill="#1F0D15"/>
<path fill-rule="evenodd" clip-rule="evenodd" d="M281 108.6C288.51 108.6 294.6 114.2 294.6 114.2C294.6 114.2 288.51 119.8 281 119.8C273.49 119.8 267.4 114.2 267.4 114.2C267.4 114.2 273.49 108.6 281 108.6Z" fill="#1F0D15"/>
</g>
<path d="M177.358 9.27386C175.899 9.27386 174.714 10.4568 174.714 11.9156C174.714 12.8445 175.194 13.662 175.919 14.1329C175.231 16.4916 173.849 19.9243 172.597 20.6363C170.218 21.9873 168.062 19.9451 169.106 14.3498C170.428 14.2048 171.458 13.0834 171.458 11.7231C171.458 10.2631 170.275 9.08023 168.815 9.08023C167.355 9.08023 166.172 10.2631 166.172 11.7231C166.172 12.6242 166.624 13.4185 167.313 13.8963C166.608 17.0181 165.569 18.2647 164.303 18.0919C162.389 17.831 162.039 14.3798 162.009 9.56139C162.969 9.16595 163.643 8.22077 163.643 7.11914C163.643 5.65911 162.46 4.47629 161 4.47629C159.541 4.47629 158.358 5.65919 158.358 7.11914C158.358 8.22085 159.033 9.16595 159.991 9.56139C159.961 14.3799 159.612 17.8311 157.697 18.092C156.431 18.2648 155.392 17.0181 154.688 13.8964C155.378 13.4185 155.828 12.6242 155.828 11.7232C155.828 10.2631 154.645 9.0803 153.186 9.0803C151.725 9.0803 150.542 10.2632 150.542 11.7232C150.542 13.0834 151.572 14.2049 152.894 14.3498C153.938 19.9453 151.783 21.9874 149.406 20.6364C148.151 19.9243 146.77 16.4916 146.082 14.1329C146.807 13.662 147.286 12.8445 147.286 11.9156C147.286 10.4568 146.103 9.27386 144.642 9.27386C143.184 9.27386 142 10.4568 142 11.9156C142 13.2967 143.06 14.4286 144.41 14.5481L146.32 27.5862H175.681L177.59 14.5481C178.941 14.4286 180 13.2967 180 11.9156C180 10.4568 178.817 9.27386 177.358 9.27386Z" fill="#FFD762"/>
<path d="M147.19 33.5237H161H174.812L175.333 29.9612H146.668L147.19 33.5237Z" fill="#FFD762"/>
<defs>
<filter id="filter0_d_3_860" x="87.5533" y="29" width="147.665" height="123.207" filterUnits="userSpaceOnUse" color-interpolation-filters="sRGB">
<feFlood flood-opacity="0" result="BackgroundImageFix"/>
<feColorMatrix in="SourceAlpha" type="matrix" values="0 0 0 0 0 0 0 0 0 0 0 0 0 0 0 0 0 0 127 0" result="hardAlpha"/>
<feOffset/>
<feGaussianBlur stdDeviation="12.5"/>
<feComposite in2="hardAlpha" operator="out"/>
<feColorMatrix type="matrix" values="0 0 0 0 0.979167 0 0 0 0 0.792375 0 0 0 0 0.350868 0 0 0 1 0"/>
<feBlend mode="normal" in2="BackgroundImageFix" result="effect1_dropShadow_3_860"/>
<feBlend mode="normal" in="SourceGraphic" in2="effect1_dropShadow_3_860" result="shape"/>
</filter>
<filter id="filter1_d_3_860" x="127.526" y="68.9122" width="63.7248" height="37.0253" filterUnits="userSpaceOnUse" color-interpolation-filters="sRGB">
<feFlood flood-opacity="0" result="BackgroundImageFix"/>
<feColorMatrix in="SourceAlpha" type="matrix" values="0 0 0 0 0 0 0 0 0 0 0 0 0 0 0 0 0 0 127 0" result="hardAlpha"/>
<feOffset dy="4"/>
<feGaussianBlur stdDeviation="1"/>
<feComposite in2="hardAlpha" operator="out"/>
<feColorMatrix type="matrix" values="0 0 0 0 0 0 0 0 0 0 0 0 0 0 0 0 0 0 0.5 0"/>
<feBlend mode="normal" in2="BackgroundImageFix" result="effect1_dropShadow_3_860"/>
<feBlend mode="normal" in="SourceGraphic" in2="effect1_dropShadow_3_860" result="shape"/>
</filter>
<radialGradient id="paint0_radial_3_860" cx="0" cy="0" r="1" gradientUnits="userSpaceOnUse" gradientTransform="translate(120.246 74.9649) rotate(9.60304) scale(81.0302 109)">
<stop offset="0.102161" stop-color="#B37D16"/>
<stop offset="0.80694" stop-color="#F8F497"/>
<stop offset="1" stop-color="#C4963D"/>
</radialGradient>
<linearGradient id="paint1_linear_3_860" x1="115" y1="56" x2="187.228" y2="112.088" gradientUnits="userSpaceOnUse">
<stop stop-color="#F8F497"/>
<stop offset="1" stop-color="#B7851F"/>
</linearGradient>
<radialGradient id="paint2_radial_3_860" cx="0" cy="0" r="1" gradientUnits="userSpaceOnUse" gradientTransform="translate(165.842 61.6492) rotate(95.6824) scale(40.7529 55.0084)">
<stop stop-color="#AF4190"/>
<stop offset="0.472281" stop-color="#610547"/>
<stop offset="1" stop-color="#220119"/>
</radialGradient>
<linearGradient id="paint3_linear_3_860" x1="130.131" y1="61.6492" x2="190.254" y2="105.833" gradientUnits="userSpaceOnUse">
<stop stop-color="#F2E586"/>
<stop offset="0.54684" stop-color="#B37D16"/>
<stop offset="0.990875" stop-color="#F7F395"/>
</linearGradient>
<linearGradient id="paint4_linear_3_860" x1="129.526" y1="103.816" x2="129.526" y2="68.9122" gradientUnits="userSpaceOnUse">
<stop offset="0.276042" stop-color="#B37D16"/>
<stop offset="0.67" stop-color="#F8F497"/>
<stop offset="1" stop-color="#DDB149"/>
</linearGradient>
<linearGradient id="paint5_linear_3_860" x1="159.388" y1="68.9122" x2="159.386" y2="102.807" gradientUnits="userSpaceOnUse">
<stop stop-color="#DDB149"/>
<stop offset="1" stop-color="#F8F497"/>
</linearGradient>
<clipPath id="clip0_3_860">
<rect width="40" height="40" fill="white" transform="translate(0 60)"/>
</clipPath>
<clipPath id="clip1_3_860">
<rect width="40" height="40" fill="white" transform="translate(45 60)"/>
</clipPath>
<clipPath id="clip2_3_860">
<rect width="40" height="40" fill="white" transform="translate(23 83)"/>
</clipPath>
<clipPath id="clip3_3_860">
<rect width="40" height="40" fill="white" transform="translate(238 60)"/>
</clipPath>
<clipPath id="clip4_3_860">
<rect width="40" height="40" fill="white" transform="translate(283 60)"/>
</clipPath>
<clipPath id="clip5_3_860">
<rect width="40" height="40" fill="white" transform="translate(261 83)"/>
</clipPath>
</defs>
</svg>
