<svg width="347" height="152" viewBox="0 0 347 152" fill="none" xmlns="http://www.w3.org/2000/svg">
<g filter="url(#filter0_d_3_861)">
<path d="M137.573 107.094L127 55H219.807L210.017 107.094L172.229 124L137.573 107.094Z" fill="url(#paint0_radial_3_861)"/>
<path d="M136.593 107.293L136.691 107.776L137.135 107.993L171.79 124.899L172.21 125.104L172.637 124.913L210.426 108.007L210.903 107.793L211 107.279L220.79 55.1847L221.012 54H219.807H127H125.777L126.02 55.1989L136.593 107.293Z" stroke="url(#paint1_linear_3_861)" stroke-width="2"/>
</g>
<path d="M142.559 104.413L142.657 104.897L143.101 105.113L172.182 119.25L172.601 119.454L173.027 119.264L204.736 105.127L205.214 104.913L205.312 104.399L213.526 60.8345L213.75 59.6492H212.544H134.667H133.442L133.687 60.8488L142.559 104.413Z" fill="url(#paint2_radial_3_861)" stroke="url(#paint3_linear_3_861)" stroke-width="2"/>
<g filter="url(#filter1_d_3_861)">
<path d="M189.132 79.2433C190.155 79.5894 191.199 79.9346 192.265 80.2807C193.33 80.6268 194.278 80.959 195.108 81.2774C197.114 82.052 198.64 83.1212 199.684 84.4835C200.729 85.8459 201.251 87.5371 201.251 89.5573C201.251 90.8298 200.953 92.0615 200.358 93.2516C199.763 94.4409 198.961 95.4301 197.951 96.2186C196.844 97.0904 195.565 97.7613 194.112 98.2315C192.659 98.7016 190.965 98.9375 189.028 98.9375C187.229 98.9375 185.552 98.7131 183.996 98.2641C182.439 97.8152 181.121 97.2863 180.042 96.6782L178.61 98.1295H176.847L176.577 87.4971H178.361C178.762 88.5084 179.274 89.5744 179.897 90.696C180.52 91.8175 181.239 92.8214 182.055 93.7079C182.899 94.6359 183.843 95.3902 184.887 95.9721C185.932 96.5533 187.153 96.8439 188.551 96.8439C190.432 96.8439 191.874 96.3851 192.877 95.4652C193.88 94.5453 194.382 93.3871 194.382 91.9905C194.382 90.8429 193.956 89.8781 193.105 89.0969C192.255 88.3158 190.937 87.6408 189.152 87.0718C187.99 86.6972 186.922 86.3503 185.946 86.0311C184.971 85.712 184.054 85.3855 183.196 85.0525C181.218 84.264 179.748 83.1368 178.787 81.67C177.825 80.204 177.344 78.565 177.344 76.7521C177.344 75.6037 177.594 74.5009 178.091 73.4423C178.589 72.3844 179.316 71.4327 180.27 70.5895C181.183 69.801 182.352 69.1578 183.777 68.6591C185.202 68.1612 186.752 67.9122 188.426 67.9122C190.059 67.9122 191.587 68.14 193.012 68.5962C194.437 69.0525 195.557 69.508 196.374 69.9643L197.64 68.7203H199.445L199.611 78.7511H197.827C197.412 77.6712 196.924 76.5668 196.363 75.438C195.803 74.3091 195.212 73.3712 194.59 72.6228C193.911 71.8196 193.13 71.1796 192.244 70.7013C191.359 70.2238 190.321 69.9847 189.132 69.9847C187.638 69.9847 186.417 70.4075 185.468 71.2515C184.521 72.0955 184.047 73.1403 184.047 74.3858C184.047 75.562 184.459 76.5236 185.282 77.2712C186.105 78.0189 187.388 78.676 189.132 79.2433ZM173.505 71.2074C172.91 71.5535 172.45 71.9224 172.125 72.3167C171.8 72.7101 171.478 73.2529 171.16 73.9434C170.731 74.8968 170.129 76.2885 169.355 78.1193C168.579 79.9501 167.694 82.0332 166.699 84.3676C165.813 86.4678 164.855 88.7688 163.824 91.269C162.794 93.7699 161.808 96.1672 160.867 98.4609H156.696C154.758 93.7218 152.787 88.9068 150.781 84.0158C148.775 79.1241 147.364 75.7253 146.548 73.8185C146.23 73.128 145.922 72.6064 145.624 72.2538C145.327 71.902 144.853 71.5396 144.203 71.1658C143.732 70.9038 143.318 70.7209 142.958 70.6173C142.598 70.5136 142.121 70.4197 141.526 70.3373V68.7203H157.484V70.2957C155.991 70.4752 154.978 70.6654 154.446 70.8654C153.913 71.0662 153.648 71.3184 153.648 71.622C153.648 71.7747 153.671 71.9363 153.72 72.1093C153.769 72.2824 153.841 72.5134 153.939 72.8031C154.381 74.0177 155.183 76.002 156.345 78.756C157.506 81.5092 159.228 85.7087 161.51 91.3538C162.907 87.9175 164.069 85.0125 164.995 82.6388C165.922 80.2652 166.738 78.1675 167.444 76.3456C167.79 75.4625 168.077 74.6372 168.305 73.8708C168.534 73.1043 168.647 72.5273 168.647 72.1404C168.647 71.698 168.329 71.329 167.693 71.0311C167.057 70.7348 165.881 70.5169 164.167 70.3789V68.7203H176.1V70.3789C175.643 70.4197 175.207 70.503 174.792 70.627C174.377 70.7519 173.948 70.9454 173.505 71.2074Z" fill="url(#paint4_linear_3_861)"/>
<path d="M197.642 95.8258L197.644 95.8246C198.592 95.0836 199.348 94.1534 199.911 93.028C200.473 91.9041 200.751 90.7487 200.751 89.5573C200.751 87.6269 200.254 86.048 199.287 84.7878C198.311 83.5148 196.87 82.4937 194.928 81.7439C194.109 81.4295 193.169 81.1002 192.111 80.7562C191.044 80.41 189.999 80.0644 188.974 79.7179C187.203 79.1413 185.844 78.4573 184.946 77.6413C184.012 76.793 183.547 75.694 183.547 74.3858C183.547 72.9945 184.084 71.8149 185.136 70.8782L185.136 70.878C186.191 69.9386 187.538 69.4847 189.132 69.4847C190.389 69.4847 191.511 69.7379 192.481 70.2613L192.482 70.2613C193.425 70.7707 194.255 71.4513 194.972 72.3001L194.974 72.3032C195.627 73.0886 196.239 74.0614 196.811 75.2158C197.323 76.2463 197.776 77.258 198.169 78.2511H199.103L198.954 69.2203H197.845L196.724 70.3209L196.457 70.5835L196.13 70.4007C195.355 69.9675 194.269 69.5239 192.86 69.0724C191.488 68.6333 190.011 68.4122 188.426 68.4122C186.802 68.4122 185.309 68.6536 183.943 69.131L197.642 95.8258ZM197.642 95.8258C196.585 96.658 195.359 97.3023 193.959 97.7558L197.642 95.8258ZM184.134 97.7837L184.134 97.7837C185.641 98.2183 187.271 98.4375 189.028 98.4375C190.926 98.4375 192.566 98.2062 193.958 97.7558L184.134 97.7837ZM184.134 97.7837C182.604 97.3425 181.324 96.8269 180.288 96.2426L179.955 96.0549M184.134 97.7837L179.955 96.0549M179.955 96.0549L179.686 96.327M179.955 96.0549L179.686 96.327M179.686 96.327L178.401 97.6295H177.334L177.09 87.9971H178.024L179.686 96.327ZM184.644 96.4091L184.644 96.4089C183.55 95.7996 182.565 95.0113 181.687 94.0456C181.686 94.0451 181.686 94.0446 181.685 94.0442L182.055 93.7079C181.239 92.8214 180.52 91.8175 179.897 90.696L184.644 96.4091ZM184.644 96.4091C185.775 97.0381 187.082 97.3439 188.551 97.3439C190.509 97.3439 192.089 96.8661 193.215 95.8338L193.215 95.8337M184.644 96.4091L193.215 95.8337M193.215 95.8337C194.324 94.8164 194.882 93.5231 194.882 91.9905C194.882 90.7018 194.397 89.6037 193.444 88.7286C192.516 87.8772 191.121 87.1746 189.305 86.5957C188.144 86.2214 187.076 85.8748 186.101 85.5559C185.135 85.2396 184.227 84.9163 183.379 84.5872C181.476 83.8285 180.098 82.7593 179.205 81.3959L179.205 81.3956M193.215 95.8337L179.205 81.3956M179.205 81.3956C178.298 80.0141 177.844 78.4711 177.844 76.7521M179.205 81.3956L177.844 76.7521M170.705 73.7382L170.706 73.7343C171.034 73.0221 171.377 72.4371 171.74 71.9981C172.113 71.5456 172.624 71.1417 173.252 70.7762C173.723 70.4977 174.188 70.2865 174.648 70.1482L174.649 70.148C174.956 70.0561 175.273 69.9852 175.6 69.9356V69.2203H164.667V69.9206C166.146 70.0599 167.244 70.2705 167.904 70.5778L167.906 70.5783C168.603 70.9049 169.147 71.4034 169.147 72.1404C169.147 72.6035 169.015 73.2385 168.784 74.0134C168.784 74.0135 168.784 74.0137 168.784 74.0138L168.305 73.8708L170.705 73.7382ZM170.705 73.7382C170.273 74.6967 169.669 76.0924 168.895 77.9243C168.119 79.7547 167.234 81.8374 166.239 84.1715L166.238 84.1733M170.705 73.7382L166.238 84.1733M166.238 84.1733C165.351 86.275 164.393 88.5773 163.362 91.0784L163.362 91.0784M166.238 84.1733L163.362 91.0784M163.362 91.0784C162.378 93.4671 161.434 95.7612 160.532 97.9609H157.031C155.135 93.3219 153.206 88.6103 151.244 83.8261L151.244 83.8261M163.362 91.0784L151.244 83.8261M151.244 83.8261C149.238 78.9346 147.826 75.5324 147.007 73.6217L147.007 73.6217M151.244 83.8261L147.007 73.6217M147.007 73.6217L147.002 73.6094M147.007 73.6217L147.002 73.6094M147.002 73.6094C146.675 72.9006 146.345 72.3332 146.006 71.9314L146.006 71.931M147.002 73.6094L146.006 71.931M146.006 71.931C145.655 71.5158 145.125 71.1192 144.452 70.7322L144.452 70.7322M146.006 71.931L144.452 70.7322M144.452 70.7322L144.446 70.7289M144.452 70.7322L144.446 70.7289M144.446 70.7289C143.955 70.4559 143.505 70.2545 143.096 70.1368C142.802 70.0519 142.444 69.9754 142.026 69.907V69.2203H156.984V69.8543C155.724 70.0182 154.806 70.1961 154.27 70.3974L154.27 70.3975M144.446 70.7289L154.27 70.3975M154.27 70.3975C153.721 70.6042 153.148 70.9688 153.148 71.622C153.148 71.8266 153.18 72.0339 153.239 72.2446M154.27 70.3975L153.465 72.9623M153.465 72.9623L153.465 72.9622C153.367 72.6698 153.291 72.4298 153.239 72.2446M153.465 72.9623L153.469 72.9742M153.465 72.9623L153.469 72.9742M153.239 72.2446C153.239 72.2443 153.239 72.2439 153.239 72.2436L153.72 72.1093M153.239 72.2446C153.239 72.245 153.239 72.2453 153.239 72.2457L153.72 72.1093M153.72 72.1093C153.671 71.9363 153.648 71.7747 153.648 71.622C153.648 71.3184 153.913 71.0662 154.446 70.8654L153.939 72.8031C153.841 72.5134 153.769 72.2824 153.72 72.1093ZM153.469 72.9742C153.916 74.2016 154.722 76.1959 155.884 78.9503L153.469 72.9742ZM177.844 76.7521C177.844 75.6788 178.077 74.6486 178.544 73.655M177.844 76.7521L178.544 73.655M178.544 73.655C179.01 72.6649 179.692 71.7677 180.599 70.9662M178.544 73.655L180.599 70.9662M180.599 70.9662C181.454 70.2285 182.563 69.6137 183.942 69.1311L180.599 70.9662ZM165.461 82.8206C166.388 80.447 167.204 78.3491 167.91 76.5271L155.884 78.9504C157.044 81.7 158.765 85.8966 161.047 91.5412L161.509 92.6848L161.974 91.5421C163.371 88.1045 164.534 85.1972 165.461 82.8206Z" stroke="url(#paint5_linear_3_861)"/>
</g>
<g clip-path="url(#clip0_3_861)">
<path fill-rule="evenodd" clip-rule="evenodd" d="M37 93C46.9418 93 55 101.058 55 111C55 120.942 46.9418 129 37 129C27.0582 129 19 120.942 19 111C19 101.058 27.0582 93 37 93Z" fill="#F8D05F"/>
<path fill-rule="evenodd" clip-rule="evenodd" d="M37 103.08C39.7835 103.08 42.04 105.336 42.04 108.12C42.04 110.904 39.7835 113.16 37 113.16C34.2165 113.16 31.96 110.904 31.96 108.12C31.96 105.336 34.2165 103.08 37 103.08Z" fill="#1F0D15"/>
<path fill-rule="evenodd" clip-rule="evenodd" d="M37 116.04C43.7594 116.04 49.24 121.08 49.24 121.08C49.24 121.08 43.7594 126.12 37 126.12C30.2407 126.12 24.76 121.08 24.76 121.08C24.76 121.08 30.2407 116.04 37 116.04Z" fill="#1F0D15"/>
</g>
<g clip-path="url(#clip1_3_861)">
<path fill-rule="evenodd" clip-rule="evenodd" d="M274 93C283.942 93 292 101.058 292 111C292 120.942 283.942 129 274 129C264.058 129 256 120.942 256 111C256 101.058 264.058 93 274 93Z" fill="#F8D05F"/>
<path fill-rule="evenodd" clip-rule="evenodd" d="M274 103.08C276.784 103.08 279.04 105.336 279.04 108.12C279.04 110.904 276.784 113.16 274 113.16C271.217 113.16 268.96 110.904 268.96 108.12C268.96 105.336 271.217 103.08 274 103.08Z" fill="#1F0D15"/>
<path fill-rule="evenodd" clip-rule="evenodd" d="M274 116.04C280.759 116.04 286.24 121.08 286.24 121.08C286.24 121.08 280.759 126.12 274 126.12C267.241 126.12 261.76 121.08 261.76 121.08C261.76 121.08 267.241 116.04 274 116.04Z" fill="#1F0D15"/>
</g>
<g clip-path="url(#clip2_3_861)">
<path fill-rule="evenodd" clip-rule="evenodd" d="M74 93C83.9418 93 92 101.058 92 111C92 120.942 83.9418 129 74 129C64.0582 129 56 120.942 56 111C56 101.058 64.0582 93 74 93Z" fill="#F8D05F"/>
<path fill-rule="evenodd" clip-rule="evenodd" d="M74 103.08C76.7835 103.08 79.04 105.336 79.04 108.12C79.04 110.904 76.7835 113.16 74 113.16C71.2165 113.16 68.96 110.904 68.96 108.12C68.96 105.336 71.2165 103.08 74 103.08Z" fill="#1F0D15"/>
<path fill-rule="evenodd" clip-rule="evenodd" d="M74 116.04C80.7594 116.04 86.24 121.08 86.24 121.08C86.24 121.08 80.7594 126.12 74 126.12C67.2407 126.12 61.76 121.08 61.76 121.08C61.76 121.08 67.2407 116.04 74 116.04Z" fill="#1F0D15"/>
</g>
<g clip-path="url(#clip3_3_861)">
<path fill-rule="evenodd" clip-rule="evenodd" d="M311 93C320.942 93 329 101.058 329 111C329 120.942 320.942 129 311 129C301.058 129 293 120.942 293 111C293 101.058 301.058 93 311 93Z" fill="#F8D05F"/>
<path fill-rule="evenodd" clip-rule="evenodd" d="M311 103.08C313.784 103.08 316.04 105.336 316.04 108.12C316.04 110.904 313.784 113.16 311 113.16C308.217 113.16 305.96 110.904 305.96 108.12C305.96 105.336 308.217 103.08 311 103.08Z" fill="#1F0D15"/>
<path fill-rule="evenodd" clip-rule="evenodd" d="M311 116.04C317.759 116.04 323.24 121.08 323.24 121.08C323.24 121.08 317.759 126.12 311 126.12C304.241 126.12 298.76 121.08 298.76 121.08C298.76 121.08 304.241 116.04 311 116.04Z" fill="#1F0D15"/>
</g>
<g clip-path="url(#clip4_3_861)">
<path fill-rule="evenodd" clip-rule="evenodd" d="M18 61C27.9418 61 36 69.0582 36 79C36 88.9418 27.9418 97 18 97C8.05824 97 0 88.9418 0 79C0 69.0582 8.05824 61 18 61Z" fill="#F8D05F"/>
<path fill-rule="evenodd" clip-rule="evenodd" d="M18 71.08C20.7835 71.08 23.04 73.3365 23.04 76.12C23.04 78.9035 20.7835 81.16 18 81.16C15.2165 81.16 12.96 78.9035 12.96 76.12C12.96 73.3365 15.2165 71.08 18 71.08Z" fill="#1F0D15"/>
<path fill-rule="evenodd" clip-rule="evenodd" d="M18 84.04C24.7594 84.04 30.24 89.08 30.24 89.08C30.24 89.08 24.7594 94.12 18 94.12C11.2407 94.12 5.76001 89.08 5.76001 89.08C5.76001 89.08 11.2407 84.04 18 84.04Z" fill="#1F0D15"/>
</g>
<g clip-path="url(#clip5_3_861)">
<path fill-rule="evenodd" clip-rule="evenodd" d="M255 61C264.942 61 273 69.0582 273 79C273 88.9418 264.942 97 255 97C245.058 97 237 88.9418 237 79C237 69.0582 245.058 61 255 61Z" fill="#F8D05F"/>
<path fill-rule="evenodd" clip-rule="evenodd" d="M255 71.08C257.784 71.08 260.04 73.3365 260.04 76.12C260.04 78.9035 257.784 81.16 255 81.16C252.217 81.16 249.96 78.9035 249.96 76.12C249.96 73.3365 252.217 71.08 255 71.08Z" fill="#1F0D15"/>
<path fill-rule="evenodd" clip-rule="evenodd" d="M255 84.04C261.759 84.04 267.24 89.08 267.24 89.08C267.24 89.08 261.759 94.12 255 94.12C248.241 94.12 242.76 89.08 242.76 89.08C242.76 89.08 248.241 84.04 255 84.04Z" fill="#1F0D15"/>
</g>
<g clip-path="url(#clip6_3_861)">
<path fill-rule="evenodd" clip-rule="evenodd" d="M55 61C64.9418 61 73 69.0582 73 79C73 88.9418 64.9418 97 55 97C45.0582 97 37 88.9418 37 79C37 69.0582 45.0582 61 55 61Z" fill="#F8D05F"/>
<path fill-rule="evenodd" clip-rule="evenodd" d="M55 71.08C57.7835 71.08 60.04 73.3365 60.04 76.12C60.04 78.9035 57.7835 81.16 55 81.16C52.2165 81.16 49.96 78.9035 49.96 76.12C49.96 73.3365 52.2165 71.08 55 71.08Z" fill="#1F0D15"/>
<path fill-rule="evenodd" clip-rule="evenodd" d="M55 84.04C61.7594 84.04 67.24 89.08 67.24 89.08C67.24 89.08 61.7594 94.12 55 94.12C48.2407 94.12 42.76 89.08 42.76 89.08C42.76 89.08 48.2407 84.04 55 84.04Z" fill="#1F0D15"/>
</g>
<g clip-path="url(#clip7_3_861)">
<path fill-rule="evenodd" clip-rule="evenodd" d="M292 61C301.942 61 310 69.0582 310 79C310 88.9418 301.942 97 292 97C282.058 97 274 88.9418 274 79C274 69.0582 282.058 61 292 61Z" fill="#F8D05F"/>
<path fill-rule="evenodd" clip-rule="evenodd" d="M292 71.08C294.784 71.08 297.04 73.3365 297.04 76.12C297.04 78.9035 294.784 81.16 292 81.16C289.217 81.16 286.96 78.9035 286.96 76.12C286.96 73.3365 289.217 71.08 292 71.08Z" fill="#1F0D15"/>
<path fill-rule="evenodd" clip-rule="evenodd" d="M292 84.04C298.759 84.04 304.24 89.08 304.24 89.08C304.24 89.08 298.759 94.12 292 94.12C285.241 94.12 279.76 89.08 279.76 89.08C279.76 89.08 285.241 84.04 292 84.04Z" fill="#1F0D15"/>
</g>
<g clip-path="url(#clip8_3_861)">
<path fill-rule="evenodd" clip-rule="evenodd" d="M92 61C101.942 61 110 69.0582 110 79C110 88.9418 101.942 97 92 97C82.0582 97 74 88.9418 74 79C74 69.0582 82.0582 61 92 61Z" fill="#F8D05F"/>
<path fill-rule="evenodd" clip-rule="evenodd" d="M92 71.08C94.7835 71.08 97.04 73.3365 97.04 76.12C97.04 78.9035 94.7835 81.16 92 81.16C89.2165 81.16 86.96 78.9035 86.96 76.12C86.96 73.3365 89.2165 71.08 92 71.08Z" fill="#1F0D15"/>
<path fill-rule="evenodd" clip-rule="evenodd" d="M92 84.04C98.7594 84.04 104.24 89.08 104.24 89.08C104.24 89.08 98.7594 94.12 92 94.12C85.2407 94.12 79.76 89.08 79.76 89.08C79.76 89.08 85.2407 84.04 92 84.04Z" fill="#1F0D15"/>
</g>
<g clip-path="url(#clip9_3_861)">
<path fill-rule="evenodd" clip-rule="evenodd" d="M329 61C338.942 61 347 69.0582 347 79C347 88.9418 338.942 97 329 97C319.058 97 311 88.9418 311 79C311 69.0582 319.058 61 329 61Z" fill="#F8D05F"/>
<path fill-rule="evenodd" clip-rule="evenodd" d="M329 71.08C331.784 71.08 334.04 73.3365 334.04 76.12C334.04 78.9035 331.784 81.16 329 81.16C326.217 81.16 323.96 78.9035 323.96 76.12C323.96 73.3365 326.217 71.08 329 71.08Z" fill="#1F0D15"/>
<path fill-rule="evenodd" clip-rule="evenodd" d="M329 84.04C335.759 84.04 341.24 89.08 341.24 89.08C341.24 89.08 335.759 94.12 329 94.12C322.241 94.12 316.76 89.08 316.76 89.08C316.76 89.08 322.241 84.04 329 84.04Z" fill="#1F0D15"/>
</g>
<path d="M189.358 9.27386C187.899 9.27386 186.714 10.4568 186.714 11.9156C186.714 12.8445 187.194 13.662 187.919 14.1329C187.231 16.4916 185.849 19.9243 184.597 20.6363C182.218 21.9873 180.062 19.9451 181.106 14.3498C182.428 14.2048 183.458 13.0834 183.458 11.7231C183.458 10.2631 182.275 9.08023 180.815 9.08023C179.355 9.08023 178.172 10.2631 178.172 11.7231C178.172 12.6242 178.624 13.4185 179.313 13.8963C178.608 17.0181 177.569 18.2647 176.303 18.0919C174.389 17.831 174.039 14.3798 174.009 9.56139C174.969 9.16595 175.643 8.22077 175.643 7.11914C175.643 5.65911 174.46 4.47629 173 4.47629C171.541 4.47629 170.358 5.65919 170.358 7.11914C170.358 8.22085 171.033 9.16595 171.991 9.56139C171.961 14.3799 171.612 17.8311 169.697 18.092C168.431 18.2648 167.392 17.0181 166.688 13.8964C167.378 13.4185 167.828 12.6242 167.828 11.7232C167.828 10.2631 166.645 9.0803 165.186 9.0803C163.725 9.0803 162.542 10.2632 162.542 11.7232C162.542 13.0834 163.572 14.2049 164.894 14.3498C165.938 19.9453 163.783 21.9874 161.406 20.6364C160.151 19.9243 158.77 16.4916 158.082 14.1329C158.807 13.662 159.286 12.8445 159.286 11.9156C159.286 10.4568 158.103 9.27386 156.642 9.27386C155.184 9.27386 154 10.4568 154 11.9156C154 13.2967 155.06 14.4286 156.41 14.5481L158.32 27.5862H187.681L189.59 14.5481C190.941 14.4286 192 13.2967 192 11.9156C192 10.4568 190.817 9.27386 189.358 9.27386Z" fill="#FFD762"/>
<path d="M159.189 33.5237H173H186.812L187.333 29.9612H158.668L159.189 33.5237Z" fill="#FFD762"/>
<defs>
<filter id="filter0_d_3_861" x="99.5533" y="28" width="147.665" height="123.207" filterUnits="userSpaceOnUse" color-interpolation-filters="sRGB">
<feFlood flood-opacity="0" result="BackgroundImageFix"/>
<feColorMatrix in="SourceAlpha" type="matrix" values="0 0 0 0 0 0 0 0 0 0 0 0 0 0 0 0 0 0 127 0" result="hardAlpha"/>
<feOffset/>
<feGaussianBlur stdDeviation="12.5"/>
<feComposite in2="hardAlpha" operator="out"/>
<feColorMatrix type="matrix" values="0 0 0 0 0.979167 0 0 0 0 0.792375 0 0 0 0 0.350868 0 0 0 1 0"/>
<feBlend mode="normal" in2="BackgroundImageFix" result="effect1_dropShadow_3_861"/>
<feBlend mode="normal" in="SourceGraphic" in2="effect1_dropShadow_3_861" result="shape"/>
</filter>
<filter id="filter1_d_3_861" x="139.526" y="67.9122" width="63.7249" height="37.0253" filterUnits="userSpaceOnUse" color-interpolation-filters="sRGB">
<feFlood flood-opacity="0" result="BackgroundImageFix"/>
<feColorMatrix in="SourceAlpha" type="matrix" values="0 0 0 0 0 0 0 0 0 0 0 0 0 0 0 0 0 0 127 0" result="hardAlpha"/>
<feOffset dy="4"/>
<feGaussianBlur stdDeviation="1"/>
<feComposite in2="hardAlpha" operator="out"/>
<feColorMatrix type="matrix" values="0 0 0 0 0 0 0 0 0 0 0 0 0 0 0 0 0 0 0.5 0"/>
<feBlend mode="normal" in2="BackgroundImageFix" result="effect1_dropShadow_3_861"/>
<feBlend mode="normal" in="SourceGraphic" in2="effect1_dropShadow_3_861" result="shape"/>
</filter>
<radialGradient id="paint0_radial_3_861" cx="0" cy="0" r="1" gradientUnits="userSpaceOnUse" gradientTransform="translate(132.246 73.9649) rotate(9.60304) scale(81.0302 109)">
<stop offset="0.102161" stop-color="#B37D16"/>
<stop offset="0.80694" stop-color="#F8F497"/>
<stop offset="1" stop-color="#C4963D"/>
</radialGradient>
<linearGradient id="paint1_linear_3_861" x1="127" y1="55" x2="199.228" y2="111.088" gradientUnits="userSpaceOnUse">
<stop stop-color="#F8F497"/>
<stop offset="1" stop-color="#B7851F"/>
</linearGradient>
<radialGradient id="paint2_radial_3_861" cx="0" cy="0" r="1" gradientUnits="userSpaceOnUse" gradientTransform="translate(177.842 60.6492) rotate(95.6824) scale(40.7529 55.0084)">
<stop stop-color="#AF4190"/>
<stop offset="0.472281" stop-color="#610547"/>
<stop offset="1" stop-color="#220119"/>
</radialGradient>
<linearGradient id="paint3_linear_3_861" x1="142.131" y1="60.6492" x2="202.254" y2="104.833" gradientUnits="userSpaceOnUse">
<stop stop-color="#F2E586"/>
<stop offset="0.54684" stop-color="#B37D16"/>
<stop offset="0.990875" stop-color="#F7F395"/>
</linearGradient>
<linearGradient id="paint4_linear_3_861" x1="141.526" y1="102.816" x2="141.526" y2="67.9122" gradientUnits="userSpaceOnUse">
<stop offset="0.276042" stop-color="#B37D16"/>
<stop offset="0.67" stop-color="#F8F497"/>
<stop offset="1" stop-color="#DDB149"/>
</linearGradient>
<linearGradient id="paint5_linear_3_861" x1="171.388" y1="67.9122" x2="171.386" y2="101.807" gradientUnits="userSpaceOnUse">
<stop stop-color="#DDB149"/>
<stop offset="1" stop-color="#F8F497"/>
</linearGradient>
<clipPath id="clip0_3_861">
<rect width="36" height="36" fill="white" transform="translate(19 93)"/>
</clipPath>
<clipPath id="clip1_3_861">
<rect width="36" height="36" fill="white" transform="translate(256 93)"/>
</clipPath>
<clipPath id="clip2_3_861">
<rect width="36" height="36" fill="white" transform="translate(56 93)"/>
</clipPath>
<clipPath id="clip3_3_861">
<rect width="36" height="36" fill="white" transform="translate(293 93)"/>
</clipPath>
<clipPath id="clip4_3_861">
<rect width="36" height="36" fill="white" transform="translate(0 61)"/>
</clipPath>
<clipPath id="clip5_3_861">
<rect width="36" height="36" fill="white" transform="translate(237 61)"/>
</clipPath>
<clipPath id="clip6_3_861">
<rect width="36" height="36" fill="white" transform="translate(37 61)"/>
</clipPath>
<clipPath id="clip7_3_861">
<rect width="36" height="36" fill="white" transform="translate(274 61)"/>
</clipPath>
<clipPath id="clip8_3_861">
<rect width="36" height="36" fill="white" transform="translate(74 61)"/>
</clipPath>
<clipPath id="clip9_3_861">
<rect width="36" height="36" fill="white" transform="translate(311 61)"/>
</clipPath>
</defs>
</svg>
