<svg width="38" height="38" viewBox="0 0 38 38" fill="none" xmlns="http://www.w3.org/2000/svg">
<g id="crown 1">
<g id="Group">
<path id="Vector" d="M35.3583 9.27386C33.8994 9.27386 32.7142 10.4568 32.7142 11.9156C32.7142 12.8445 33.1943 13.662 33.9191 14.1329C33.2314 16.4916 31.849 19.9243 30.5966 20.6363C28.2181 21.9873 26.0623 19.9451 27.106 14.3498C28.4281 14.2048 29.4579 13.0834 29.4579 11.7231C29.4579 10.2631 28.275 9.08023 26.815 9.08023C25.3551 9.08023 24.1722 10.2631 24.1722 11.7231C24.1722 12.6242 24.6244 13.4185 25.3133 13.8963C24.6082 17.0181 23.5691 18.2647 22.3027 18.0919C20.3893 17.831 20.0391 14.3798 20.0089 9.56139C20.9692 9.16595 21.6429 8.22077 21.6429 7.11914C21.6429 5.65911 20.46 4.47629 19.0001 4.47629C17.5412 4.47629 16.3583 5.65919 16.3583 7.11914C16.3583 8.22085 17.0333 9.16595 17.9911 9.56139C17.9609 14.3799 17.6119 17.8311 15.6973 18.092C14.4309 18.2648 13.3918 17.0181 12.6879 13.8964C13.3779 13.4185 13.8278 12.6242 13.8278 11.7232C13.8278 10.2631 12.6449 9.0803 11.1861 9.0803C9.72488 9.0803 8.54206 10.2632 8.54206 11.7232C8.54206 13.0834 9.57184 14.2049 10.8939 14.3498C11.9376 19.9453 9.78292 21.9874 7.40562 20.6364C6.15088 19.9243 4.76974 16.4916 4.08203 14.1329C4.80685 13.662 5.28579 12.8445 5.28579 11.9156C5.28579 10.4568 4.10289 9.27386 2.64174 9.27386C1.18401 9.27386 0 10.4568 0 11.9156C0 13.2967 1.05992 14.4286 2.40981 14.5481L4.31975 27.5862H33.6814L35.5902 14.5481C36.9412 14.4286 38 13.2967 38 11.9156C38 10.4568 36.8172 9.27386 35.3583 9.27386Z" fill="#FFD762"/>
<path id="Vector_2" d="M5.18931 33.5237H18.9998H32.8115L33.3333 29.9612H4.66748L5.18931 33.5237Z" fill="#FFD762"/>
</g>
</g>
</svg>
