<svg width="108" height="29" viewBox="0 0 108 29" fill="none" xmlns="http://www.w3.org/2000/svg">
<rect x="0.5" y="0.5" width="107" height="28" rx="4.5" fill="#3C0434"/>
<rect x="0.5" y="0.5" width="107" height="28" rx="4.5" stroke="#FFD762"/>
<path d="M21.6043 18.258C22.1923 18.3793 22.6823 18.44 23.0743 18.44C23.4756 18.44 23.7229 18.4307 23.8163 18.412C24.8989 18.244 25.7016 17.7027 26.2243 16.788C26.4296 16.424 26.5323 16.018 26.5323 15.57C26.5323 15.122 26.3876 14.688 26.0983 14.268C25.9023 13.988 25.6409 13.7827 25.3143 13.652C24.9969 13.512 24.6796 13.442 24.3623 13.442C23.6343 13.442 23.0603 13.5353 22.6403 13.722L22.3603 13.848L22.5423 8.808H27.3303V9.97H23.3263L23.2143 12.98C23.7836 12.7747 24.2876 12.672 24.7263 12.672C25.1743 12.672 25.6363 12.756 26.1123 12.924C26.5976 13.092 26.9616 13.372 27.2043 13.764C27.5776 14.3427 27.7643 14.9213 27.7643 15.5V15.556C27.7643 16.088 27.6476 16.5733 27.4143 17.012C27.1903 17.4507 26.9476 17.8053 26.6863 18.076C25.9396 18.8227 24.7869 19.196 23.2283 19.196C22.7616 19.196 22.2949 19.154 21.8283 19.07L21.6043 18.258ZM32.9487 19.126C31.334 19.126 30.5267 18.4773 30.5267 17.18V13.064H29.2527V12.392H29.7847C30.4753 12.3547 30.8673 11.776 30.9607 10.656L31.7167 9.788V12.392H33.3687V13.064H31.7167V16.69C31.7167 17.4087 31.824 17.8753 32.0387 18.09C32.2627 18.2953 32.58 18.398 32.9907 18.398C33.4013 18.398 33.714 18.3187 33.9287 18.16V19.042C33.7887 19.098 33.602 19.126 33.3687 19.126H32.9487ZM36.7726 13.316C37.2113 12.4107 37.8366 11.958 38.6486 11.958C39.47 11.958 40.1233 12.224 40.6086 12.756C41.094 13.2787 41.3366 14.002 41.3366 14.926V17.95C41.402 18.23 41.5233 18.37 41.7006 18.37H42.3026V19H39.1386V18.37L39.8106 18.356C39.8386 18.3187 39.9366 18.1833 40.1046 17.95V15.164C40.1046 14.3987 39.974 13.792 39.7126 13.344C39.4513 12.896 39.092 12.672 38.6346 12.672C38.1866 12.672 37.762 12.8867 37.3606 13.316C36.9686 13.736 36.7726 14.2447 36.7726 14.842V17.95C36.838 18.23 36.9593 18.37 37.1366 18.37H37.7386V19H34.6446V18.37L35.3166 18.356C35.3446 18.3187 35.4426 18.1833 35.6106 17.95V10.04H34.5606V9.76L36.2266 8.64H36.7726V13.316ZM56.9234 18.37H57.7074V19H53.2554V18.37H54.2354C54.4314 18.37 54.5294 18.3233 54.5294 18.23C54.5294 18.1647 54.4921 18.0853 54.4174 17.992L51.5614 14.394H50.3154V17.964C50.3154 18.2347 50.5254 18.37 50.9454 18.37H51.8694V19H47.3334V18.37H48.3414C48.4814 18.37 48.6121 18.3327 48.7334 18.258C48.8641 18.174 48.9294 18.076 48.9294 17.964V9.956C48.9294 9.79733 48.8641 9.65267 48.7334 9.522C48.6121 9.39133 48.4534 9.326 48.2574 9.326H47.3334V8.696H52.4154C53.4328 8.696 54.2308 8.98067 54.8094 9.55C55.3974 10.11 55.6914 10.8193 55.6914 11.678C55.6914 13.274 54.7954 14.1653 53.0034 14.352L55.8874 17.992C56.1021 18.244 56.4474 18.37 56.9234 18.37ZM50.3154 9.886V13.764H52.1214C53.5028 13.764 54.1934 13.064 54.1934 11.664C54.1934 10.2547 53.7594 9.494 52.8914 9.382C52.6021 9.34467 52.1588 9.326 51.5614 9.326C50.9641 9.326 50.6048 9.382 50.4834 9.494C50.3714 9.59667 50.3154 9.72733 50.3154 9.886ZM62.0655 19.266C61.1228 19.266 60.3248 18.902 59.6715 18.174C59.0182 17.446 58.6915 16.5733 58.6915 15.556C58.6915 14.5387 59.0182 13.6567 59.6715 12.91C60.3248 12.1633 61.1228 11.79 62.0655 11.79C63.0175 11.79 63.8342 12.1633 64.5155 12.91C65.2062 13.6567 65.5515 14.5387 65.5515 15.556C65.5515 16.5733 65.2062 17.446 64.5155 18.174C63.8342 18.902 63.0175 19.266 62.0655 19.266ZM64.1655 15.542C64.1655 14.7393 63.9415 14.0487 63.4935 13.47C63.0548 12.882 62.5508 12.588 61.9815 12.588C61.4122 12.588 60.9362 12.8867 60.5535 13.484C60.1802 14.072 59.9935 14.772 59.9935 15.584C59.9935 16.3867 60.2128 17.0727 60.6515 17.642C61.0995 18.202 61.5988 18.482 62.1495 18.482C62.7095 18.482 63.1855 18.1927 63.5775 17.614C63.9695 17.0353 64.1655 16.3447 64.1655 15.542ZM69.7628 19.266C68.8201 19.266 68.0221 18.902 67.3688 18.174C66.7154 17.446 66.3888 16.5733 66.3888 15.556C66.3888 14.5387 66.7154 13.6567 67.3688 12.91C68.0221 12.1633 68.8201 11.79 69.7628 11.79C70.7148 11.79 71.5314 12.1633 72.2128 12.91C72.9034 13.6567 73.2488 14.5387 73.2488 15.556C73.2488 16.5733 72.9034 17.446 72.2128 18.174C71.5314 18.902 70.7148 19.266 69.7628 19.266ZM71.8628 15.542C71.8628 14.7393 71.6388 14.0487 71.1908 13.47C70.7521 12.882 70.2481 12.588 69.6788 12.588C69.1094 12.588 68.6334 12.8867 68.2508 13.484C67.8774 14.072 67.6908 14.772 67.6908 15.584C67.6908 16.3867 67.9101 17.0727 68.3488 17.642C68.7968 18.202 69.2961 18.482 69.8468 18.482C70.4068 18.482 70.8828 18.1927 71.2748 17.614C71.6668 17.0353 71.8628 16.3447 71.8628 15.542ZM80.12 13.106C80.5493 12.266 81.198 11.846 82.066 11.846C82.9433 11.846 83.6013 12.1167 84.04 12.658C84.4787 13.1993 84.698 13.8667 84.698 14.66V17.95C84.7633 18.23 84.9313 18.37 85.202 18.37H85.734V19H82.5V18.37L83.102 18.356H83.116C83.228 18.356 83.368 18.2207 83.536 17.95V14.66C83.536 14.1187 83.4147 13.6427 83.172 13.232C82.9387 12.8213 82.5887 12.616 82.122 12.616C81.6553 12.616 81.2633 12.7653 80.946 13.064C80.6287 13.3627 80.47 13.7173 80.47 14.128V17.95C80.5353 18.23 80.7033 18.37 80.974 18.37H81.506V19H78.272V18.37L78.874 18.356H78.888C79 18.356 79.14 18.2207 79.308 17.95V14.66C79.308 14.1187 79.1913 13.6427 78.958 13.232C78.734 12.8213 78.384 12.616 77.908 12.616C77.4413 12.616 77.0447 12.7653 76.718 13.064C76.4007 13.3627 76.242 13.7173 76.242 14.128V17.95C76.3073 18.23 76.4753 18.37 76.746 18.37H77.278V19H74.044V18.37L74.646 18.356C74.8327 18.3187 74.9773 18.1833 75.08 17.95V13.12H74.03V12.84L75.696 11.72H76.242V12.714C76.69 12.1447 77.2127 11.8553 77.81 11.846H77.852C78.916 11.846 79.672 12.266 80.12 13.106Z" fill="#FEFFAB"/>
</svg>
