<svg width="49" height="55" viewBox="0 0 49 55" fill="none" xmlns="http://www.w3.org/2000/svg">
<rect x="0.5" y="0.5" width="48" height="54" rx="4.5" fill="#3C0434"/>
<rect x="0.5" y="0.5" width="48" height="54" rx="4.5" stroke="#FFD762"/>
<path d="M17.1294 10.274V10.094H18.6954V21.218C18.7314 21.422 18.8214 21.602 18.9654 21.758C19.1214 21.902 19.3074 21.992 19.5234 22.028H20.8374V23H14.8614V22.028H16.2834V22.01C16.4994 21.986 16.6794 21.902 16.8234 21.758C16.9794 21.602 17.0754 21.422 17.1114 21.218H17.1294V13.262C16.8534 13.394 16.4754 13.46 15.9954 13.46H14.8434V12.38L15.0954 12.398C15.5994 12.398 16.0134 12.272 16.3374 12.02C16.6614 11.768 16.8714 11.444 16.9674 11.048C17.0754 10.64 17.1294 10.382 17.1294 10.274ZM26.4779 22.356C27.5606 22.356 28.1019 22.0153 28.1019 21.334C28.1019 20.9887 28.0226 20.7693 27.8639 20.676C27.4439 20.424 27.1499 20.298 26.9819 20.298C26.9726 20.298 26.6739 20.2233 26.0859 20.074C25.4979 19.9153 25.0266 19.7567 24.6719 19.598C24.3172 19.43 24.0326 19.206 23.8179 18.926C23.6126 18.6367 23.5099 18.31 23.5099 17.946C23.5099 17.5727 23.6079 17.2507 23.8039 16.98C23.9999 16.7 24.2472 16.4807 24.5459 16.322C25.1432 16.0233 25.6426 15.874 26.0439 15.874C26.4452 15.874 26.8512 15.9627 27.2619 16.14C27.2526 16.1027 27.2479 16.042 27.2479 15.958C27.2479 15.8647 27.2199 15.776 27.1639 15.692H27.8639L29.0679 17.806L28.6759 18.128L28.3819 17.75C27.5046 17.05 26.8186 16.7 26.3239 16.7C25.8386 16.7 25.4419 16.798 25.1339 16.994C24.8259 17.1807 24.6719 17.3627 24.6719 17.54C24.6719 17.708 24.7746 17.9273 24.9799 18.198C25.1946 18.4687 25.6846 18.6927 26.4499 18.87C27.2246 19.0473 27.7846 19.22 28.1299 19.388C28.8672 19.7613 29.2359 20.3307 29.2359 21.096V21.138C29.2359 21.7167 28.9699 22.1927 28.4379 22.566C27.9152 22.9393 27.2339 23.126 26.3939 23.126C25.9739 23.126 25.5072 23.0047 24.9939 22.762L25.0079 22.79L25.0359 22.832H25.0219C25.0312 22.86 25.0359 22.9207 25.0359 23.014C25.0359 23.1167 25.0639 23.21 25.1199 23.294H24.4199L23.2159 21.18L23.6079 20.858L23.9019 21.236L24.8399 21.894C25.4652 22.202 26.0112 22.356 26.4779 22.356ZM33.9086 23.126C32.294 23.126 31.4866 22.4773 31.4866 21.18V17.064H30.2126V16.392H30.7446C31.4353 16.3547 31.8273 15.776 31.9206 14.656L32.6766 13.788V16.392H34.3286V17.064H32.6766V20.69C32.6766 21.4087 32.784 21.8753 32.9986 22.09C33.2226 22.2953 33.54 22.398 33.9506 22.398C34.3613 22.398 34.674 22.3187 34.8886 22.16V23.042C34.7486 23.098 34.562 23.126 34.3286 23.126H33.9086ZM14.5309 43.37H15.3149V44H10.8629V43.37H11.8429C12.0389 43.37 12.1369 43.3233 12.1369 43.23C12.1369 43.1647 12.0995 43.0853 12.0249 42.992L9.16886 39.394H7.92286V42.964C7.92286 43.2347 8.13286 43.37 8.55286 43.37H9.47686V44H4.94086V43.37H5.94886C6.08886 43.37 6.21953 43.3327 6.34086 43.258C6.47153 43.174 6.53686 43.076 6.53686 42.964V34.956C6.53686 34.7973 6.47153 34.6527 6.34086 34.522C6.21953 34.3913 6.06086 34.326 5.86486 34.326H4.94086V33.696H10.0229C11.0402 33.696 11.8382 33.9807 12.4169 34.55C13.0049 35.11 13.2989 35.8193 13.2989 36.678C13.2989 38.274 12.4029 39.1653 10.6109 39.352L13.4949 42.992C13.7095 43.244 14.0549 43.37 14.5309 43.37ZM7.92286 34.886V38.764H9.72886C11.1102 38.764 11.8009 38.064 11.8009 36.664C11.8009 35.2547 11.3669 34.494 10.4989 34.382C10.2095 34.3447 9.76619 34.326 9.16886 34.326C8.57153 34.326 8.21219 34.382 8.09086 34.494C7.97886 34.5967 7.92286 34.7273 7.92286 34.886ZM19.6729 44.266C18.7302 44.266 17.9322 43.902 17.2789 43.174C16.6256 42.446 16.2989 41.5733 16.2989 40.556C16.2989 39.5387 16.6256 38.6567 17.2789 37.91C17.9322 37.1633 18.7302 36.79 19.6729 36.79C20.6249 36.79 21.4416 37.1633 22.1229 37.91C22.8136 38.6567 23.1589 39.5387 23.1589 40.556C23.1589 41.5733 22.8136 42.446 22.1229 43.174C21.4416 43.902 20.6249 44.266 19.6729 44.266ZM21.7729 40.542C21.7729 39.7393 21.5489 39.0487 21.1009 38.47C20.6622 37.882 20.1582 37.588 19.5889 37.588C19.0196 37.588 18.5436 37.8867 18.1609 38.484C17.7876 39.072 17.6009 39.772 17.6009 40.584C17.6009 41.3867 17.8202 42.0727 18.2589 42.642C18.7069 43.202 19.2062 43.482 19.7569 43.482C20.3169 43.482 20.7929 43.1927 21.1849 42.614C21.5769 42.0353 21.7729 41.3447 21.7729 40.542ZM27.3702 44.266C26.4275 44.266 25.6295 43.902 24.9762 43.174C24.3228 42.446 23.9962 41.5733 23.9962 40.556C23.9962 39.5387 24.3228 38.6567 24.9762 37.91C25.6295 37.1633 26.4275 36.79 27.3702 36.79C28.3222 36.79 29.1388 37.1633 29.8202 37.91C30.5108 38.6567 30.8562 39.5387 30.8562 40.556C30.8562 41.5733 30.5108 42.446 29.8202 43.174C29.1388 43.902 28.3222 44.266 27.3702 44.266ZM29.4702 40.542C29.4702 39.7393 29.2462 39.0487 28.7982 38.47C28.3595 37.882 27.8555 37.588 27.2862 37.588C26.7168 37.588 26.2408 37.8867 25.8582 38.484C25.4848 39.072 25.2982 39.772 25.2982 40.584C25.2982 41.3867 25.5175 42.0727 25.9562 42.642C26.4042 43.202 26.9035 43.482 27.4542 43.482C28.0142 43.482 28.4902 43.1927 28.8822 42.614C29.2742 42.0353 29.4702 41.3447 29.4702 40.542ZM37.7274 38.106C38.1568 37.266 38.8054 36.846 39.6734 36.846C40.5508 36.846 41.2088 37.1167 41.6474 37.658C42.0861 38.1993 42.3054 38.8667 42.3054 39.66V42.95C42.3708 43.23 42.5388 43.37 42.8094 43.37H43.3414V44H40.1074V43.37L40.7094 43.356H40.7234C40.8354 43.356 40.9754 43.2207 41.1434 42.95V39.66C41.1434 39.1187 41.0221 38.6427 40.7794 38.232C40.5461 37.8213 40.1961 37.616 39.7294 37.616C39.2628 37.616 38.8708 37.7653 38.5534 38.064C38.2361 38.3627 38.0774 38.7173 38.0774 39.128V42.95C38.1428 43.23 38.3108 43.37 38.5814 43.37H39.1134V44H35.8794V43.37L36.4814 43.356H36.4954C36.6074 43.356 36.7474 43.2207 36.9154 42.95V39.66C36.9154 39.1187 36.7988 38.6427 36.5654 38.232C36.3414 37.8213 35.9914 37.616 35.5154 37.616C35.0488 37.616 34.6521 37.7653 34.3254 38.064C34.0081 38.3627 33.8494 38.7173 33.8494 39.128V42.95C33.9148 43.23 34.0828 43.37 34.3534 43.37H34.8854V44H31.6514V43.37L32.2534 43.356C32.4401 43.3187 32.5848 43.1833 32.6874 42.95V38.12H31.6374V37.84L33.3034 36.72H33.8494V37.714C34.2974 37.1447 34.8201 36.8553 35.4174 36.846H35.4594C36.5234 36.846 37.2794 37.266 37.7274 38.106Z" fill="#FEFFAB"/>
</svg>
