<svg width="108" height="29" viewBox="0 0 108 29" fill="none" xmlns="http://www.w3.org/2000/svg">
<rect x="0.5" y="0.5" width="107" height="28" rx="4.5" fill="#3C0434"/>
<rect x="0.5" y="0.5" width="107" height="28" rx="4.5" stroke="#FFD762"/>
<path d="M24.9116 7.274V7.094H26.4776V18.218C26.5136 18.422 26.6036 18.602 26.7476 18.758C26.9036 18.902 27.0896 18.992 27.3056 19.028H28.6196V20H22.6436V19.028H24.0656V19.01C24.2816 18.986 24.4616 18.902 24.6056 18.758C24.7616 18.602 24.8576 18.422 24.8936 18.218H24.9116V10.262C24.6356 10.394 24.2576 10.46 23.7776 10.46H22.6256V9.38L22.8776 9.398C23.3816 9.398 23.7956 9.272 24.1196 9.02C24.4436 8.768 24.6536 8.444 24.7496 8.048C24.8576 7.64 24.9116 7.382 24.9116 7.274ZM34.2601 19.356C35.3428 19.356 35.8841 19.0153 35.8841 18.334C35.8841 17.9887 35.8048 17.7693 35.6461 17.676C35.2261 17.424 34.9321 17.298 34.7641 17.298C34.7548 17.298 34.4561 17.2233 33.8681 17.074C33.2801 16.9153 32.8088 16.7567 32.4541 16.598C32.0995 16.43 31.8148 16.206 31.6001 15.926C31.3948 15.6367 31.2921 15.31 31.2921 14.946C31.2921 14.5727 31.3901 14.2507 31.5861 13.98C31.7821 13.7 32.0295 13.4807 32.3281 13.322C32.9255 13.0233 33.4248 12.874 33.8261 12.874C34.2275 12.874 34.6335 12.9627 35.0441 13.14C35.0348 13.1027 35.0301 13.042 35.0301 12.958C35.0301 12.8647 35.0021 12.776 34.9461 12.692H35.6461L36.8501 14.806L36.4581 15.128L36.1641 14.75C35.2868 14.05 34.6008 13.7 34.1061 13.7C33.6208 13.7 33.2241 13.798 32.9161 13.994C32.6081 14.1807 32.4541 14.3627 32.4541 14.54C32.4541 14.708 32.5568 14.9273 32.7621 15.198C32.9768 15.4687 33.4668 15.6927 34.2321 15.87C35.0068 16.0473 35.5668 16.22 35.9121 16.388C36.6495 16.7613 37.0181 17.3307 37.0181 18.096V18.138C37.0181 18.7167 36.7521 19.1927 36.2201 19.566C35.6975 19.9393 35.0161 20.126 34.1761 20.126C33.7561 20.126 33.2895 20.0047 32.7761 19.762L32.7901 19.79L32.8181 19.832H32.8041C32.8135 19.86 32.8181 19.9207 32.8181 20.014C32.8181 20.1167 32.8461 20.21 32.9021 20.294H32.2021L30.9981 18.18L31.3901 17.858L31.6841 18.236L32.6221 18.894C33.2475 19.202 33.7935 19.356 34.2601 19.356ZM41.6908 20.126C40.0762 20.126 39.2688 19.4773 39.2688 18.18V14.064H37.9948V13.392H38.5268C39.2175 13.3547 39.6095 12.776 39.7028 11.656L40.4588 10.788V13.392H42.1108V14.064H40.4588V17.69C40.4588 18.4087 40.5662 18.8753 40.7808 19.09C41.0048 19.2953 41.3222 19.398 41.7328 19.398C42.1435 19.398 42.4562 19.3187 42.6708 19.16V20.042C42.5308 20.098 42.3442 20.126 42.1108 20.126H41.6908ZM57.2301 19.37H58.0141V20H53.5621V19.37H54.5421C54.7381 19.37 54.8361 19.3233 54.8361 19.23C54.8361 19.1647 54.7987 19.0853 54.7241 18.992L51.8681 15.394H50.6221V18.964C50.6221 19.2347 50.8321 19.37 51.2521 19.37H52.1761V20H47.6401V19.37H48.6481C48.7881 19.37 48.9187 19.3327 49.0401 19.258C49.1707 19.174 49.2361 19.076 49.2361 18.964V10.956C49.2361 10.7973 49.1707 10.6527 49.0401 10.522C48.9187 10.3913 48.7601 10.326 48.5641 10.326H47.6401V9.696H52.7221C53.7394 9.696 54.5374 9.98067 55.1161 10.55C55.7041 11.11 55.9981 11.8193 55.9981 12.678C55.9981 14.274 55.1021 15.1653 53.3101 15.352L56.1941 18.992C56.4087 19.244 56.7541 19.37 57.2301 19.37ZM50.6221 10.886V14.764H52.4281C53.8094 14.764 54.5001 14.064 54.5001 12.664C54.5001 11.2547 54.0661 10.494 53.1981 10.382C52.9087 10.3447 52.4654 10.326 51.8681 10.326C51.2707 10.326 50.9114 10.382 50.7901 10.494C50.6781 10.5967 50.6221 10.7273 50.6221 10.886ZM62.3721 20.266C61.4295 20.266 60.6315 19.902 59.9781 19.174C59.3248 18.446 58.9981 17.5733 58.9981 16.556C58.9981 15.5387 59.3248 14.6567 59.9781 13.91C60.6315 13.1633 61.4295 12.79 62.3721 12.79C63.3241 12.79 64.1408 13.1633 64.8221 13.91C65.5128 14.6567 65.8581 15.5387 65.8581 16.556C65.8581 17.5733 65.5128 18.446 64.8221 19.174C64.1408 19.902 63.3241 20.266 62.3721 20.266ZM64.4721 16.542C64.4721 15.7393 64.2481 15.0487 63.8001 14.47C63.3615 13.882 62.8575 13.588 62.2881 13.588C61.7188 13.588 61.2428 13.8867 60.8601 14.484C60.4868 15.072 60.3001 15.772 60.3001 16.584C60.3001 17.3867 60.5195 18.0727 60.9581 18.642C61.4061 19.202 61.9055 19.482 62.4561 19.482C63.0161 19.482 63.4921 19.1927 63.8841 18.614C64.2761 18.0353 64.4721 17.3447 64.4721 16.542ZM70.0694 20.266C69.1267 20.266 68.3287 19.902 67.6754 19.174C67.0221 18.446 66.6954 17.5733 66.6954 16.556C66.6954 15.5387 67.0221 14.6567 67.6754 13.91C68.3287 13.1633 69.1267 12.79 70.0694 12.79C71.0214 12.79 71.8381 13.1633 72.5194 13.91C73.2101 14.6567 73.5554 15.5387 73.5554 16.556C73.5554 17.5733 73.2101 18.446 72.5194 19.174C71.8381 19.902 71.0214 20.266 70.0694 20.266ZM72.1694 16.542C72.1694 15.7393 71.9454 15.0487 71.4974 14.47C71.0587 13.882 70.5547 13.588 69.9854 13.588C69.4161 13.588 68.9401 13.8867 68.5574 14.484C68.1841 15.072 67.9974 15.772 67.9974 16.584C67.9974 17.3867 68.2167 18.0727 68.6554 18.642C69.1034 19.202 69.6027 19.482 70.1534 19.482C70.7134 19.482 71.1894 19.1927 71.5814 18.614C71.9734 18.0353 72.1694 17.3447 72.1694 16.542ZM80.4267 14.106C80.856 13.266 81.5047 12.846 82.3727 12.846C83.25 12.846 83.908 13.1167 84.3467 13.658C84.7853 14.1993 85.0047 14.8667 85.0047 15.66V18.95C85.07 19.23 85.238 19.37 85.5087 19.37H86.0407V20H82.8067V19.37L83.4087 19.356H83.4227C83.5347 19.356 83.6747 19.2207 83.8427 18.95V15.66C83.8427 15.1187 83.7213 14.6427 83.4787 14.232C83.2453 13.8213 82.8953 13.616 82.4287 13.616C81.962 13.616 81.57 13.7653 81.2527 14.064C80.9353 14.3627 80.7767 14.7173 80.7767 15.128V18.95C80.842 19.23 81.01 19.37 81.2807 19.37H81.8127V20H78.5787V19.37L79.1807 19.356H79.1947C79.3067 19.356 79.4467 19.2207 79.6147 18.95V15.66C79.6147 15.1187 79.498 14.6427 79.2647 14.232C79.0407 13.8213 78.6907 13.616 78.2147 13.616C77.748 13.616 77.3513 13.7653 77.0247 14.064C76.7073 14.3627 76.5487 14.7173 76.5487 15.128V18.95C76.614 19.23 76.782 19.37 77.0527 19.37H77.5847V20H74.3507V19.37L74.9527 19.356C75.1393 19.3187 75.284 19.1833 75.3867 18.95V14.12H74.3367V13.84L76.0027 12.72H76.5487V13.714C76.9967 13.1447 77.5193 12.8553 78.1167 12.846H78.1587C79.2227 12.846 79.9787 13.266 80.4267 14.106Z" fill="#FEFFAB"/>
</svg>
