<svg width="49" height="55" viewBox="0 0 49 55" fill="none" xmlns="http://www.w3.org/2000/svg">
<rect x="0.5" y="0.5" width="48" height="54" rx="4.5" fill="#3C0434"/>
<rect x="0.5" y="0.5" width="48" height="54" rx="4.5" stroke="#FFD762"/>
<path d="M21.8394 19.796H19.6434V21.38H19.6614C19.6974 21.584 19.7874 21.764 19.9314 21.92C20.0874 22.064 20.2734 22.154 20.4894 22.19H21.6594V23H16.0434V22.19H17.3034V22.172C17.5194 22.148 17.7054 22.064 17.8614 21.92C18.0174 21.764 18.1134 21.584 18.1494 21.38V19.796H12.5514L18.0414 9.986H19.6434V18.518H21.8394V19.796ZM14.3514 18.518H18.1494V12.002L14.3514 18.518ZM26.3071 23.126C24.6924 23.126 23.8851 22.4773 23.8851 21.18V17.064H22.6111V16.392H23.1431C23.8337 16.3547 24.2257 15.776 24.3191 14.656L25.0751 13.788V16.392H26.7271V17.064H25.0751V20.69C25.0751 21.4087 25.1824 21.8753 25.3971 22.09C25.6211 22.2953 25.9384 22.398 26.3491 22.398C26.7597 22.398 27.0724 22.3187 27.2871 22.16V23.042C27.1471 23.098 26.9604 23.126 26.7271 23.126H26.3071ZM30.131 17.316C30.5697 16.4107 31.195 15.958 32.007 15.958C32.8284 15.958 33.4817 16.224 33.967 16.756C34.4524 17.2787 34.695 18.002 34.695 18.926V21.95C34.7604 22.23 34.8817 22.37 35.059 22.37H35.661V23H32.497V22.37L33.169 22.356C33.197 22.3187 33.295 22.1833 33.463 21.95V19.164C33.463 18.3987 33.3324 17.792 33.071 17.344C32.8097 16.896 32.4504 16.672 31.993 16.672C31.545 16.672 31.1204 16.8867 30.719 17.316C30.327 17.736 30.131 18.2447 30.131 18.842V21.95C30.1964 22.23 30.3177 22.37 30.495 22.37H31.097V23H28.003V22.37L28.675 22.356C28.703 22.3187 28.801 22.1833 28.969 21.95V14.04H27.919V13.76L29.585 12.64H30.131V17.316ZM14.5309 43.37H15.3149V44H10.8629V43.37H11.8429C12.0389 43.37 12.1369 43.3233 12.1369 43.23C12.1369 43.1647 12.0995 43.0853 12.0249 42.992L9.16886 39.394H7.92286V42.964C7.92286 43.2347 8.13286 43.37 8.55286 43.37H9.47686V44H4.94086V43.37H5.94886C6.08886 43.37 6.21953 43.3327 6.34086 43.258C6.47153 43.174 6.53686 43.076 6.53686 42.964V34.956C6.53686 34.7973 6.47153 34.6527 6.34086 34.522C6.21953 34.3913 6.06086 34.326 5.86486 34.326H4.94086V33.696H10.0229C11.0402 33.696 11.8382 33.9807 12.4169 34.55C13.0049 35.11 13.2989 35.8193 13.2989 36.678C13.2989 38.274 12.4029 39.1653 10.6109 39.352L13.4949 42.992C13.7095 43.244 14.0549 43.37 14.5309 43.37ZM7.92286 34.886V38.764H9.72886C11.1102 38.764 11.8009 38.064 11.8009 36.664C11.8009 35.2547 11.3669 34.494 10.4989 34.382C10.2095 34.3447 9.76619 34.326 9.16886 34.326C8.57153 34.326 8.21219 34.382 8.09086 34.494C7.97886 34.5967 7.92286 34.7273 7.92286 34.886ZM19.6729 44.266C18.7302 44.266 17.9322 43.902 17.2789 43.174C16.6256 42.446 16.2989 41.5733 16.2989 40.556C16.2989 39.5387 16.6256 38.6567 17.2789 37.91C17.9322 37.1633 18.7302 36.79 19.6729 36.79C20.6249 36.79 21.4416 37.1633 22.1229 37.91C22.8136 38.6567 23.1589 39.5387 23.1589 40.556C23.1589 41.5733 22.8136 42.446 22.1229 43.174C21.4416 43.902 20.6249 44.266 19.6729 44.266ZM21.7729 40.542C21.7729 39.7393 21.5489 39.0487 21.1009 38.47C20.6622 37.882 20.1582 37.588 19.5889 37.588C19.0196 37.588 18.5436 37.8867 18.1609 38.484C17.7876 39.072 17.6009 39.772 17.6009 40.584C17.6009 41.3867 17.8202 42.0727 18.2589 42.642C18.7069 43.202 19.2062 43.482 19.7569 43.482C20.3169 43.482 20.7929 43.1927 21.1849 42.614C21.5769 42.0353 21.7729 41.3447 21.7729 40.542ZM27.3702 44.266C26.4275 44.266 25.6295 43.902 24.9762 43.174C24.3228 42.446 23.9962 41.5733 23.9962 40.556C23.9962 39.5387 24.3228 38.6567 24.9762 37.91C25.6295 37.1633 26.4275 36.79 27.3702 36.79C28.3222 36.79 29.1388 37.1633 29.8202 37.91C30.5108 38.6567 30.8562 39.5387 30.8562 40.556C30.8562 41.5733 30.5108 42.446 29.8202 43.174C29.1388 43.902 28.3222 44.266 27.3702 44.266ZM29.4702 40.542C29.4702 39.7393 29.2462 39.0487 28.7982 38.47C28.3595 37.882 27.8555 37.588 27.2862 37.588C26.7168 37.588 26.2408 37.8867 25.8582 38.484C25.4848 39.072 25.2982 39.772 25.2982 40.584C25.2982 41.3867 25.5175 42.0727 25.9562 42.642C26.4042 43.202 26.9035 43.482 27.4542 43.482C28.0142 43.482 28.4902 43.1927 28.8822 42.614C29.2742 42.0353 29.4702 41.3447 29.4702 40.542ZM37.7274 38.106C38.1568 37.266 38.8054 36.846 39.6734 36.846C40.5508 36.846 41.2088 37.1167 41.6474 37.658C42.0861 38.1993 42.3054 38.8667 42.3054 39.66V42.95C42.3708 43.23 42.5388 43.37 42.8094 43.37H43.3414V44H40.1074V43.37L40.7094 43.356H40.7234C40.8354 43.356 40.9754 43.2207 41.1434 42.95V39.66C41.1434 39.1187 41.0221 38.6427 40.7794 38.232C40.5461 37.8213 40.1961 37.616 39.7294 37.616C39.2628 37.616 38.8708 37.7653 38.5534 38.064C38.2361 38.3627 38.0774 38.7173 38.0774 39.128V42.95C38.1428 43.23 38.3108 43.37 38.5814 43.37H39.1134V44H35.8794V43.37L36.4814 43.356H36.4954C36.6074 43.356 36.7474 43.2207 36.9154 42.95V39.66C36.9154 39.1187 36.7988 38.6427 36.5654 38.232C36.3414 37.8213 35.9914 37.616 35.5154 37.616C35.0488 37.616 34.6521 37.7653 34.3254 38.064C34.0081 38.3627 33.8494 38.7173 33.8494 39.128V42.95C33.9148 43.23 34.0828 43.37 34.3534 43.37H34.8854V44H31.6514V43.37L32.2534 43.356C32.4401 43.3187 32.5848 43.1833 32.6874 42.95V38.12H31.6374V37.84L33.3034 36.72H33.8494V37.714C34.2974 37.1447 34.8201 36.8553 35.4174 36.846H35.4594C36.5234 36.846 37.2794 37.266 37.7274 38.106Z" fill="#FEFFAB"/>
</svg>
