<svg width="49" height="55" viewBox="0 0 49 55" fill="none" xmlns="http://www.w3.org/2000/svg">
<rect x="0.5" y="0.5" width="48" height="54" rx="4.5" fill="#3C0434"/>
<rect x="0.5" y="0.5" width="48" height="54" rx="4.5" stroke="#FFD762"/>
<path d="M15.5904 10.04C17.8944 10.04 19.0464 11.168 19.0464 13.424C19.0464 14.204 18.8724 14.834 18.5244 15.314C18.1764 15.794 17.4924 16.412 16.4724 17.168C15.4644 17.912 14.7384 18.578 14.2944 19.166C13.7064 19.958 13.4064 20.738 13.3944 21.506H17.2824C17.5704 21.506 17.8884 21.398 18.2364 21.182C18.5964 20.966 18.8844 20.744 19.1004 20.516L19.4064 20.192L18.8124 23.018H11.8464V21.506C11.8464 20.57 12.3264 19.568 13.2864 18.5C13.7304 18.008 14.2044 17.54 14.7084 17.096C16.0284 15.896 16.8624 15.026 17.2104 14.486C17.3784 14.198 17.4624 13.808 17.4624 13.316C17.4624 12.812 17.2284 12.38 16.7604 12.02C16.2924 11.66 15.7884 11.48 15.2484 11.48C14.7084 11.48 14.1564 11.564 13.5924 11.732C13.0404 11.9 12.5724 12.098 12.1884 12.326L12.0084 12.434L11.7924 11.516C11.9964 11.276 12.5064 10.97 13.3224 10.598C14.1384 10.226 14.8944 10.04 15.5904 10.04ZM23.0408 17.176C23.3862 16.2893 24.1468 15.846 25.3228 15.846C27.1242 15.8553 28.0248 17.008 28.0248 19.304V21.95C28.0902 22.23 28.2582 22.37 28.5288 22.37H29.0608V23H25.8268V22.37L26.4288 22.356C26.6155 22.3187 26.7602 22.1833 26.8628 21.95V19.584C26.8628 17.6053 26.3168 16.616 25.2248 16.616C23.7688 16.616 23.0408 17.5633 23.0408 19.458V21.95C23.1062 22.23 23.2742 22.37 23.5448 22.37H24.0768V23H20.8428V22.37L21.4448 22.356C21.6315 22.3187 21.7762 22.1833 21.8788 21.95V17.12H20.8288V16.84L22.4948 15.72H23.0408V17.176ZM30.9306 22.174C30.3333 21.474 30.0346 20.564 30.0346 19.444C30.0346 18.3147 30.3333 17.428 30.9306 16.784C31.5373 16.14 32.2979 15.818 33.2126 15.818C34.1273 15.818 34.8599 16.1633 35.4106 16.854V14.04H34.3606V13.76L36.0266 12.64H36.5866V22.076C36.6426 22.1413 36.7126 22.174 36.7966 22.174C36.8526 22.174 37.0253 21.992 37.3146 21.628V22.258C37.1653 22.874 36.8619 23.182 36.4046 23.182C35.9473 23.182 35.6159 22.8507 35.4106 22.188L35.4246 22.146L35.4106 22.118C34.8506 22.846 34.1133 23.21 33.1986 23.21C32.2933 23.21 31.5373 22.8647 30.9306 22.174ZM31.4206 19.486C31.4299 20.3353 31.6119 21.0167 31.9666 21.53C32.3213 22.0433 32.8159 22.3 33.4506 22.3C34.6173 22.3 35.2706 21.4693 35.4106 19.808V19.052C35.3266 17.5027 34.6733 16.7233 33.4506 16.714C32.8626 16.714 32.3819 16.9567 32.0086 17.442C31.6353 17.9273 31.4393 18.6087 31.4206 19.486ZM14.5309 43.37H15.3149V44H10.8629V43.37H11.8429C12.0389 43.37 12.1369 43.3233 12.1369 43.23C12.1369 43.1647 12.0995 43.0853 12.0249 42.992L9.16886 39.394H7.92286V42.964C7.92286 43.2347 8.13286 43.37 8.55286 43.37H9.47686V44H4.94086V43.37H5.94886C6.08886 43.37 6.21953 43.3327 6.34086 43.258C6.47153 43.174 6.53686 43.076 6.53686 42.964V34.956C6.53686 34.7973 6.47153 34.6527 6.34086 34.522C6.21953 34.3913 6.06086 34.326 5.86486 34.326H4.94086V33.696H10.0229C11.0402 33.696 11.8382 33.9807 12.4169 34.55C13.0049 35.11 13.2989 35.8193 13.2989 36.678C13.2989 38.274 12.4029 39.1653 10.6109 39.352L13.4949 42.992C13.7095 43.244 14.0549 43.37 14.5309 43.37ZM7.92286 34.886V38.764H9.72886C11.1102 38.764 11.8009 38.064 11.8009 36.664C11.8009 35.2547 11.3669 34.494 10.4989 34.382C10.2095 34.3447 9.76619 34.326 9.16886 34.326C8.57153 34.326 8.21219 34.382 8.09086 34.494C7.97886 34.5967 7.92286 34.7273 7.92286 34.886ZM19.6729 44.266C18.7302 44.266 17.9322 43.902 17.2789 43.174C16.6256 42.446 16.2989 41.5733 16.2989 40.556C16.2989 39.5387 16.6256 38.6567 17.2789 37.91C17.9322 37.1633 18.7302 36.79 19.6729 36.79C20.6249 36.79 21.4416 37.1633 22.1229 37.91C22.8136 38.6567 23.1589 39.5387 23.1589 40.556C23.1589 41.5733 22.8136 42.446 22.1229 43.174C21.4416 43.902 20.6249 44.266 19.6729 44.266ZM21.7729 40.542C21.7729 39.7393 21.5489 39.0487 21.1009 38.47C20.6622 37.882 20.1582 37.588 19.5889 37.588C19.0196 37.588 18.5436 37.8867 18.1609 38.484C17.7876 39.072 17.6009 39.772 17.6009 40.584C17.6009 41.3867 17.8202 42.0727 18.2589 42.642C18.7069 43.202 19.2062 43.482 19.7569 43.482C20.3169 43.482 20.7929 43.1927 21.1849 42.614C21.5769 42.0353 21.7729 41.3447 21.7729 40.542ZM27.3702 44.266C26.4275 44.266 25.6295 43.902 24.9762 43.174C24.3228 42.446 23.9962 41.5733 23.9962 40.556C23.9962 39.5387 24.3228 38.6567 24.9762 37.91C25.6295 37.1633 26.4275 36.79 27.3702 36.79C28.3222 36.79 29.1388 37.1633 29.8202 37.91C30.5108 38.6567 30.8562 39.5387 30.8562 40.556C30.8562 41.5733 30.5108 42.446 29.8202 43.174C29.1388 43.902 28.3222 44.266 27.3702 44.266ZM29.4702 40.542C29.4702 39.7393 29.2462 39.0487 28.7982 38.47C28.3595 37.882 27.8555 37.588 27.2862 37.588C26.7168 37.588 26.2408 37.8867 25.8582 38.484C25.4848 39.072 25.2982 39.772 25.2982 40.584C25.2982 41.3867 25.5175 42.0727 25.9562 42.642C26.4042 43.202 26.9035 43.482 27.4542 43.482C28.0142 43.482 28.4902 43.1927 28.8822 42.614C29.2742 42.0353 29.4702 41.3447 29.4702 40.542ZM37.7274 38.106C38.1568 37.266 38.8054 36.846 39.6734 36.846C40.5508 36.846 41.2088 37.1167 41.6474 37.658C42.0861 38.1993 42.3054 38.8667 42.3054 39.66V42.95C42.3708 43.23 42.5388 43.37 42.8094 43.37H43.3414V44H40.1074V43.37L40.7094 43.356H40.7234C40.8354 43.356 40.9754 43.2207 41.1434 42.95V39.66C41.1434 39.1187 41.0221 38.6427 40.7794 38.232C40.5461 37.8213 40.1961 37.616 39.7294 37.616C39.2628 37.616 38.8708 37.7653 38.5534 38.064C38.2361 38.3627 38.0774 38.7173 38.0774 39.128V42.95C38.1428 43.23 38.3108 43.37 38.5814 43.37H39.1134V44H35.8794V43.37L36.4814 43.356H36.4954C36.6074 43.356 36.7474 43.2207 36.9154 42.95V39.66C36.9154 39.1187 36.7988 38.6427 36.5654 38.232C36.3414 37.8213 35.9914 37.616 35.5154 37.616C35.0488 37.616 34.6521 37.7653 34.3254 38.064C34.0081 38.3627 33.8494 38.7173 33.8494 39.128V42.95C33.9148 43.23 34.0828 43.37 34.3534 43.37H34.8854V44H31.6514V43.37L32.2534 43.356C32.4401 43.3187 32.5848 43.1833 32.6874 42.95V38.12H31.6374V37.84L33.3034 36.72H33.8494V37.714C34.2974 37.1447 34.8201 36.8553 35.4174 36.846H35.4594C36.5234 36.846 37.2794 37.266 37.7274 38.106Z" fill="#FEFFAB"/>
</svg>
