<svg width="108" height="29" viewBox="0 0 108 29" fill="none" xmlns="http://www.w3.org/2000/svg">
<rect x="0.5" y="0.5" width="107" height="28" rx="4.5" fill="#3C0434"/>
<rect x="0.5" y="0.5" width="107" height="28" rx="4.5" stroke="#FFD762"/>
<path d="M23.3562 8.92C25.1482 8.92 26.0442 9.79733 26.0442 11.552C26.0442 12.1587 25.9089 12.6487 25.6382 13.022C25.3675 13.3953 24.8355 13.876 24.0422 14.464C23.2582 15.0427 22.6935 15.5607 22.3482 16.018C21.8909 16.634 21.6575 17.2407 21.6482 17.838H24.6722C24.8962 17.838 25.1435 17.754 25.4142 17.586C25.6942 17.418 25.9182 17.2453 26.0862 17.068L26.3242 16.816L25.8622 19.014H20.4442V17.838C20.4442 17.11 20.8175 16.3307 21.5642 15.5C21.9095 15.1173 22.2782 14.7533 22.6702 14.408C23.6969 13.4747 24.3455 12.798 24.6162 12.378C24.7469 12.154 24.8122 11.8507 24.8122 11.468C24.8122 11.076 24.6302 10.74 24.2662 10.46C23.9022 10.18 23.5102 10.04 23.0902 10.04C22.6702 10.04 22.2409 10.1053 21.8022 10.236C21.3729 10.3667 21.0089 10.5207 20.7102 10.698L20.5702 10.782L20.4022 10.068C20.5609 9.88133 20.9575 9.64333 21.5922 9.354C22.2269 9.06467 22.8149 8.92 23.3562 8.92ZM29.7235 13.176C30.0688 12.2893 30.8295 11.846 32.0055 11.846C33.8068 11.8553 34.7075 13.008 34.7075 15.304V17.95C34.7728 18.23 34.9408 18.37 35.2115 18.37H35.7435V19H32.5095V18.37L33.1115 18.356C33.2981 18.3187 33.4428 18.1833 33.5455 17.95V15.584C33.5455 13.6053 32.9995 12.616 31.9075 12.616C30.4515 12.616 29.7235 13.5633 29.7235 15.458V17.95C29.7888 18.23 29.9568 18.37 30.2275 18.37H30.7595V19H27.5255V18.37L28.1275 18.356C28.3141 18.3187 28.4588 18.1833 28.5615 17.95V13.12H27.5115V12.84L29.1775 11.72H29.7235V13.176ZM37.6132 18.174C37.0159 17.474 36.7172 16.564 36.7172 15.444C36.7172 14.3147 37.0159 13.428 37.6132 12.784C38.2199 12.14 38.9806 11.818 39.8952 11.818C40.8099 11.818 41.5426 12.1633 42.0932 12.854V10.04H41.0432V9.76L42.7092 8.64H43.2692V18.076C43.3252 18.1413 43.3952 18.174 43.4792 18.174C43.5352 18.174 43.7079 17.992 43.9972 17.628V18.258C43.8479 18.874 43.5446 19.182 43.0872 19.182C42.6299 19.182 42.2986 18.8507 42.0932 18.188L42.1072 18.146L42.0932 18.118C41.5332 18.846 40.7959 19.21 39.8812 19.21C38.9759 19.21 38.2199 18.8647 37.6132 18.174ZM38.1032 15.486C38.1126 16.3353 38.2946 17.0167 38.6492 17.53C39.0039 18.0433 39.4986 18.3 40.1332 18.3C41.2999 18.3 41.9532 17.4693 42.0932 15.808V15.052C42.0092 13.5027 41.3559 12.7233 40.1332 12.714C39.5452 12.714 39.0646 12.9567 38.6912 13.442C38.3179 13.9273 38.1219 14.6087 38.1032 15.486ZM58.4615 18.37H59.2455V19H54.7935V18.37H55.7735C55.9695 18.37 56.0675 18.3233 56.0675 18.23C56.0675 18.1647 56.0302 18.0853 55.9555 17.992L53.0995 14.394H51.8535V17.964C51.8535 18.2347 52.0635 18.37 52.4835 18.37H53.4075V19H48.8715V18.37H49.8795C50.0195 18.37 50.1502 18.3327 50.2715 18.258C50.4022 18.174 50.4675 18.076 50.4675 17.964V9.956C50.4675 9.79733 50.4022 9.65267 50.2715 9.522C50.1502 9.39133 49.9915 9.326 49.7955 9.326H48.8715V8.696H53.9535C54.9709 8.696 55.7689 8.98067 56.3475 9.55C56.9355 10.11 57.2295 10.8193 57.2295 11.678C57.2295 13.274 56.3335 14.1653 54.5415 14.352L57.4255 17.992C57.6402 18.244 57.9855 18.37 58.4615 18.37ZM51.8535 9.886V13.764H53.6595C55.0409 13.764 55.7315 13.064 55.7315 11.664C55.7315 10.2547 55.2975 9.494 54.4295 9.382C54.1402 9.34467 53.6969 9.326 53.0995 9.326C52.5022 9.326 52.1429 9.382 52.0215 9.494C51.9095 9.59667 51.8535 9.72733 51.8535 9.886ZM63.6036 19.266C62.6609 19.266 61.8629 18.902 61.2096 18.174C60.5562 17.446 60.2296 16.5733 60.2296 15.556C60.2296 14.5387 60.5562 13.6567 61.2096 12.91C61.8629 12.1633 62.6609 11.79 63.6036 11.79C64.5556 11.79 65.3722 12.1633 66.0536 12.91C66.7442 13.6567 67.0896 14.5387 67.0896 15.556C67.0896 16.5733 66.7442 17.446 66.0536 18.174C65.3722 18.902 64.5556 19.266 63.6036 19.266ZM65.7036 15.542C65.7036 14.7393 65.4796 14.0487 65.0316 13.47C64.5929 12.882 64.0889 12.588 63.5196 12.588C62.9502 12.588 62.4742 12.8867 62.0916 13.484C61.7182 14.072 61.5316 14.772 61.5316 15.584C61.5316 16.3867 61.7509 17.0727 62.1896 17.642C62.6376 18.202 63.1369 18.482 63.6876 18.482C64.2476 18.482 64.7236 18.1927 65.1156 17.614C65.5076 17.0353 65.7036 16.3447 65.7036 15.542ZM71.3008 19.266C70.3582 19.266 69.5602 18.902 68.9068 18.174C68.2535 17.446 67.9268 16.5733 67.9268 15.556C67.9268 14.5387 68.2535 13.6567 68.9068 12.91C69.5602 12.1633 70.3582 11.79 71.3008 11.79C72.2528 11.79 73.0695 12.1633 73.7508 12.91C74.4415 13.6567 74.7868 14.5387 74.7868 15.556C74.7868 16.5733 74.4415 17.446 73.7508 18.174C73.0695 18.902 72.2528 19.266 71.3008 19.266ZM73.4008 15.542C73.4008 14.7393 73.1768 14.0487 72.7288 13.47C72.2902 12.882 71.7862 12.588 71.2168 12.588C70.6475 12.588 70.1715 12.8867 69.7888 13.484C69.4155 14.072 69.2288 14.772 69.2288 15.584C69.2288 16.3867 69.4482 17.0727 69.8868 17.642C70.3348 18.202 70.8342 18.482 71.3848 18.482C71.9448 18.482 72.4208 18.1927 72.8128 17.614C73.2048 17.0353 73.4008 16.3447 73.4008 15.542ZM81.6581 13.106C82.0874 12.266 82.7361 11.846 83.6041 11.846C84.4814 11.846 85.1394 12.1167 85.5781 12.658C86.0168 13.1993 86.2361 13.8667 86.2361 14.66V17.95C86.3014 18.23 86.4694 18.37 86.7401 18.37H87.2721V19H84.0381V18.37L84.6401 18.356H84.6541C84.7661 18.356 84.9061 18.2207 85.0741 17.95V14.66C85.0741 14.1187 84.9528 13.6427 84.7101 13.232C84.4768 12.8213 84.1268 12.616 83.6601 12.616C83.1934 12.616 82.8014 12.7653 82.4841 13.064C82.1668 13.3627 82.0081 13.7173 82.0081 14.128V17.95C82.0734 18.23 82.2414 18.37 82.5121 18.37H83.0441V19H79.8101V18.37L80.4121 18.356H80.4261C80.5381 18.356 80.6781 18.2207 80.8461 17.95V14.66C80.8461 14.1187 80.7294 13.6427 80.4961 13.232C80.2721 12.8213 79.9221 12.616 79.4461 12.616C78.9794 12.616 78.5828 12.7653 78.2561 13.064C77.9388 13.3627 77.7801 13.7173 77.7801 14.128V17.95C77.8454 18.23 78.0134 18.37 78.2841 18.37H78.8161V19H75.5821V18.37L76.1841 18.356C76.3708 18.3187 76.5154 18.1833 76.6181 17.95V13.12H75.5681V12.84L77.2341 11.72H77.7801V12.714C78.2281 12.1447 78.7508 11.8553 79.3481 11.846H79.3901C80.4541 11.846 81.2101 12.266 81.6581 13.106Z" fill="#FEFFAB"/>
</svg>
