<svg width="83" height="83" viewBox="0 0 83 83" fill="none" xmlns="http://www.w3.org/2000/svg">
<g clip-path="url(#clip0_2_1616)">
<path d="M82.0449 72.2594L80.7866 71.0012C79.635 69.8495 77.8329 69.7499 76.5567 70.687L62.3761 56.5065C63.4558 54.7251 64.217 52.7638 64.6102 50.6916C64.8524 49.4181 64.5119 48.1281 63.6773 47.1523C62.8579 46.1958 61.6676 45.674 60.4052 45.71C59.0972 45.753 57.9318 46.4159 57.1996 47.4139L51.2879 41.5022L77.6764 15.1123C77.8134 14.9752 77.92 14.8119 77.9893 14.632L82.9071 1.88402C83.1037 1.37324 82.9819 0.794655 82.5942 0.407149C82.2067 0.0196428 81.6254 -0.103632 81.1174 0.0942568L68.3709 5.01213C68.1895 5.08139 68.0262 5.18925 67.8891 5.32502L41.5005 31.715L15.1105 5.32502C14.9735 5.18942 14.8101 5.08139 14.6302 5.01213L1.8823 0.0942568C1.37281 -0.103632 0.792935 0.0194806 0.40543 0.407149C0.0179242 0.794655 -0.103891 1.37324 0.092538 1.88402L5.0104 14.632C5.07966 14.8119 5.18623 14.9752 5.3233 15.1123L31.7133 41.5022L25.8003 47.4139C25.0681 46.4159 23.9026 45.753 22.5946 45.71C21.3226 45.6712 20.1419 46.1958 19.3239 47.1523C18.4879 48.1281 18.1475 49.4181 18.3896 50.6916C18.7814 52.7595 19.5426 54.7167 20.6264 56.5035L6.44315 70.6868C5.16693 69.7512 3.36614 69.8494 2.21319 71.001L0.956437 72.2592C-0.315567 73.5312 -0.315567 75.6019 0.956437 76.8739L6.12767 82.0452C6.76432 82.6818 7.60032 83.0002 8.43648 83.0002C9.27118 83.0002 10.1072 82.6818 10.7438 82.0452L12.0006 80.7884C13.1535 79.6355 13.2505 77.8347 12.3162 76.5585L26.4663 62.4084C28.3459 63.5726 30.4346 64.3823 32.6506 64.7891C32.8915 64.8334 33.1324 64.8541 33.3731 64.8541C34.3199 64.8541 35.2444 64.5164 35.9891 63.8853C36.9511 63.0673 37.491 61.8741 37.466 60.6062C37.4397 59.1916 36.6978 57.9348 35.5808 57.2094L41.5008 51.2895L47.4208 57.2094C46.3024 57.9347 45.5605 59.1929 45.5342 60.613C45.5107 61.874 46.049 63.0671 47.011 63.8851C47.757 64.5163 48.6817 64.854 49.6285 64.854C49.8679 64.854 50.1103 64.8332 50.351 64.7889C52.567 64.382 54.6557 63.5722 56.5339 62.4083L70.6839 76.5583C70.2742 77.1147 70.0445 77.7778 70.0445 78.4809C70.0445 79.3529 70.3837 80.1724 70.9996 80.7883L72.2563 82.045C72.893 82.6817 73.729 83.0001 74.5651 83.0001C75.3998 83.0001 76.2358 82.6817 76.8725 82.045L82.0436 76.8753C82.6594 76.2579 83.0001 75.4384 83.0001 74.5664C82.9999 73.6947 82.6593 72.8738 82.0449 72.2594ZM10.3933 74.5668L8.43615 72.6081L22.2152 58.8276L23.2326 59.8449L23.2451 59.8587C23.2478 59.8615 23.252 59.8642 23.2548 59.867L24.1738 60.786L10.3933 74.5668ZM69.6401 7.4898L79.2004 3.80241L75.5118 13.3613L49.3306 39.5451L47.3719 37.5865L71.5598 13.3999C72.0996 12.8588 72.0996 11.9825 71.5598 11.4427C71.0185 10.9014 70.1425 10.9014 69.6027 11.4427L45.4148 35.6291L43.4576 33.672L69.6401 7.4898ZM32.6753 56.1991C32.1037 55.997 31.5639 55.7326 31.0433 55.4309C30.855 55.3188 30.6682 55.2052 30.487 55.0807C30.343 54.9838 30.1991 54.8855 30.0607 54.7803C29.7202 54.5201 29.3866 54.2474 29.0739 53.9415C28.7832 53.6466 28.5243 53.3311 28.2779 53.0072C28.1519 52.8397 28.0358 52.6668 27.9222 52.4909C27.8294 52.3526 27.7423 52.21 27.6578 52.0674C27.5138 51.8183 27.3741 51.5664 27.2551 51.3047C27.244 51.2825 27.2356 51.259 27.226 51.2369C27.0849 50.924 26.9589 50.603 26.8538 50.2749L33.6707 43.4594L39.5422 49.3323L32.6753 56.1991ZM11.4411 13.4C10.8999 12.8589 10.8999 11.9827 11.4411 11.4429C11.981 10.9016 12.8572 10.9016 13.3983 11.4429L50.8074 48.852C51.3487 49.3932 51.3487 50.2694 50.8074 50.8092C50.5375 51.0806 50.1831 51.2147 49.8289 51.2147C49.4744 51.2147 49.1202 51.0804 48.8503 50.8092L11.4411 13.4ZM61.8903 50.1753C61.3408 53.0723 59.9497 55.7188 57.8487 57.849L57.7892 57.9098C55.6521 60.0414 52.834 61.5182 49.8498 62.0665C49.3529 62.1593 48.9792 61.9226 48.8034 61.7744C48.4767 61.4975 48.2941 61.092 48.3023 60.6587C48.3134 60.0081 48.7591 59.4573 49.3612 59.3465C49.6671 59.2912 49.9619 59.1887 50.2623 59.1084C50.2733 59.1056 50.283 59.1069 50.2941 59.1042C50.3135 59.0986 50.3301 59.0904 50.3494 59.0849C50.8116 58.9588 51.2644 58.808 51.7099 58.6266C51.8303 58.5781 51.9481 58.5228 52.0657 58.4716C52.4241 58.311 52.7798 58.1476 53.1245 57.9525C53.3902 57.8057 53.6436 57.6341 53.8997 57.4667C54.1088 57.3283 54.3219 57.2038 54.5253 57.0515C54.9959 56.7027 55.4499 56.3233 55.8791 55.9026L55.8929 55.8888C55.8942 55.8875 55.8956 55.8875 55.8971 55.8846C55.9233 55.8596 55.9428 55.8293 55.9676 55.803C56.3399 55.4182 56.6873 55.014 57.003 54.5863C57.2479 54.2596 57.4528 53.9122 57.6604 53.5662C57.7337 53.4444 57.8168 53.3308 57.8846 53.2062C58.1267 52.7688 58.3288 52.3149 58.5144 51.8525C58.5296 51.8124 58.5504 51.7737 58.5657 51.7334C58.7511 51.2517 58.8978 50.7591 59.0197 50.2566C59.0252 50.2303 59.0362 50.2068 59.0419 50.1805C59.0446 50.1735 59.0433 50.1652 59.0446 50.157C59.0917 49.9563 59.1622 49.7652 59.1982 49.5618C59.3048 48.9542 59.8501 48.4975 60.4952 48.4767C60.5105 48.4752 60.527 48.4752 60.5423 48.4752C61.0835 48.4752 61.4198 48.7714 61.5734 48.9513C61.8599 49.2853 61.9747 49.7325 61.8903 50.1753ZM80.0862 74.917L74.915 80.0882C74.7212 80.2806 74.4057 80.282 74.2146 80.0882L72.9564 78.8314C72.8304 78.7054 72.8125 78.5573 72.8125 78.4812C72.8125 78.4052 72.8305 78.2571 72.9579 78.131L73.5849 77.5027L77.5007 73.5883L78.1291 72.9585C78.2259 72.863 78.3533 72.8145 78.4793 72.8145C78.6066 72.8145 78.7327 72.863 78.8295 72.9585L80.0862 74.2167C80.2123 74.3428 80.2316 74.4894 80.2316 74.5669C80.2316 74.6428 80.2123 74.7909 80.0862 74.917Z" fill="#FFD762"/>
</g>
<defs>
<clipPath id="clip0_2_1616">
<rect width="83" height="83" fill="white"/>
</clipPath>
</defs>
</svg>
