<svg width="49" height="55" viewBox="0 0 49 55" fill="none" xmlns="http://www.w3.org/2000/svg">
<rect x="0.5" y="0.5" width="48" height="54" rx="4.5" fill="#3C0434"/>
<rect x="0.5" y="0.5" width="48" height="54" rx="4.5" stroke="#FFD762"/>
<path d="M17.7751 11.192C17.5231 11.012 17.0611 10.916 16.3891 10.904H16.3531C15.6931 10.904 14.8891 11.276 13.9411 12.02L13.4191 11.3L13.9411 10.958C15.1651 10.154 16.1431 9.752 16.8751 9.752C17.6071 9.752 18.2311 9.884 18.7471 10.148C19.2631 10.4 19.6231 10.76 19.8271 11.228C20.0431 11.684 20.1511 12.188 20.1511 12.74C20.1511 13.28 19.9171 13.82 19.4491 14.36C18.9931 14.888 18.2791 15.362 17.3071 15.782C18.8671 15.83 19.9291 16.328 20.4931 17.276C20.7571 17.72 20.8891 18.26 20.8891 18.896C20.8891 19.904 20.5411 20.738 19.8451 21.398C19.1611 22.046 18.2671 22.544 17.1631 22.892C16.5271 23.096 15.8671 23.198 15.1831 23.198C14.4991 23.198 13.8331 23.15 13.1851 23.054L12.8791 21.992L13.2031 22.046L13.5991 22.1C13.8631 22.136 14.2351 22.154 14.7151 22.154C15.2071 22.154 15.6511 22.118 16.0471 22.046C16.7671 21.902 17.4751 21.548 18.1711 20.984C18.8671 20.42 19.2151 19.724 19.2151 18.896C19.2151 17.372 18.2491 16.61 16.3171 16.61H16.2991C16.1911 16.598 16.0651 16.592 15.9211 16.592C15.7891 16.592 15.5671 16.634 15.2551 16.718L14.3911 16.952L14.2471 15.908L14.9851 15.818C15.2371 15.782 15.5371 15.68 15.8851 15.512C17.6371 14.6 18.5131 13.616 18.5131 12.56C18.5131 11.996 18.2671 11.54 17.7751 11.192ZM27.2136 15.79H27.2416C27.5029 15.79 27.7222 15.7993 27.8996 15.818C27.7596 16.3593 27.6896 16.728 27.6896 16.924C27.5029 16.896 27.2836 16.882 27.0316 16.882C26.2942 16.882 25.6829 17.204 25.1976 17.848C24.7216 18.4827 24.4836 19.1173 24.4836 19.752V21.95C24.5489 22.23 24.7169 22.37 24.9876 22.37H25.6596V23H22.1456V22.37L22.8876 22.356C23.0742 22.3187 23.2189 22.1833 23.3216 21.95V17.386H22.2716V17.106L23.9376 15.986H24.4836V17.792C25.0342 16.4573 25.9442 15.79 27.2136 15.79ZM29.5019 22.174C28.9046 21.474 28.6059 20.564 28.6059 19.444C28.6059 18.3147 28.9046 17.428 29.5019 16.784C30.1086 16.14 30.8692 15.818 31.7839 15.818C32.6986 15.818 33.4312 16.1633 33.9819 16.854V14.04H32.9319V13.76L34.5979 12.64H35.1579V22.076C35.2139 22.1413 35.2839 22.174 35.3679 22.174C35.4239 22.174 35.5966 21.992 35.8859 21.628V22.258C35.7366 22.874 35.4332 23.182 34.9759 23.182C34.5186 23.182 34.1872 22.8507 33.9819 22.188L33.9959 22.146L33.9819 22.118C33.4219 22.846 32.6846 23.21 31.7699 23.21C30.8646 23.21 30.1086 22.8647 29.5019 22.174ZM29.9919 19.486C30.0012 20.3353 30.1832 21.0167 30.5379 21.53C30.8926 22.0433 31.3872 22.3 32.0219 22.3C33.1886 22.3 33.8419 21.4693 33.9819 19.808V19.052C33.8979 17.5027 33.2446 16.7233 32.0219 16.714C31.4339 16.714 30.9532 16.9567 30.5799 17.442C30.2066 17.9273 30.0106 18.6087 29.9919 19.486ZM14.5309 43.37H15.3149V44H10.8629V43.37H11.8429C12.0389 43.37 12.1369 43.3233 12.1369 43.23C12.1369 43.1647 12.0995 43.0853 12.0249 42.992L9.16886 39.394H7.92286V42.964C7.92286 43.2347 8.13286 43.37 8.55286 43.37H9.47686V44H4.94086V43.37H5.94886C6.08886 43.37 6.21953 43.3327 6.34086 43.258C6.47153 43.174 6.53686 43.076 6.53686 42.964V34.956C6.53686 34.7973 6.47153 34.6527 6.34086 34.522C6.21953 34.3913 6.06086 34.326 5.86486 34.326H4.94086V33.696H10.0229C11.0402 33.696 11.8382 33.9807 12.4169 34.55C13.0049 35.11 13.2989 35.8193 13.2989 36.678C13.2989 38.274 12.4029 39.1653 10.6109 39.352L13.4949 42.992C13.7095 43.244 14.0549 43.37 14.5309 43.37ZM7.92286 34.886V38.764H9.72886C11.1102 38.764 11.8009 38.064 11.8009 36.664C11.8009 35.2547 11.3669 34.494 10.4989 34.382C10.2095 34.3447 9.76619 34.326 9.16886 34.326C8.57153 34.326 8.21219 34.382 8.09086 34.494C7.97886 34.5967 7.92286 34.7273 7.92286 34.886ZM19.6729 44.266C18.7302 44.266 17.9322 43.902 17.2789 43.174C16.6256 42.446 16.2989 41.5733 16.2989 40.556C16.2989 39.5387 16.6256 38.6567 17.2789 37.91C17.9322 37.1633 18.7302 36.79 19.6729 36.79C20.6249 36.79 21.4416 37.1633 22.1229 37.91C22.8136 38.6567 23.1589 39.5387 23.1589 40.556C23.1589 41.5733 22.8136 42.446 22.1229 43.174C21.4416 43.902 20.6249 44.266 19.6729 44.266ZM21.7729 40.542C21.7729 39.7393 21.5489 39.0487 21.1009 38.47C20.6622 37.882 20.1582 37.588 19.5889 37.588C19.0196 37.588 18.5436 37.8867 18.1609 38.484C17.7876 39.072 17.6009 39.772 17.6009 40.584C17.6009 41.3867 17.8202 42.0727 18.2589 42.642C18.7069 43.202 19.2062 43.482 19.7569 43.482C20.3169 43.482 20.7929 43.1927 21.1849 42.614C21.5769 42.0353 21.7729 41.3447 21.7729 40.542ZM27.3702 44.266C26.4275 44.266 25.6295 43.902 24.9762 43.174C24.3228 42.446 23.9962 41.5733 23.9962 40.556C23.9962 39.5387 24.3228 38.6567 24.9762 37.91C25.6295 37.1633 26.4275 36.79 27.3702 36.79C28.3222 36.79 29.1388 37.1633 29.8202 37.91C30.5108 38.6567 30.8562 39.5387 30.8562 40.556C30.8562 41.5733 30.5108 42.446 29.8202 43.174C29.1388 43.902 28.3222 44.266 27.3702 44.266ZM29.4702 40.542C29.4702 39.7393 29.2462 39.0487 28.7982 38.47C28.3595 37.882 27.8555 37.588 27.2862 37.588C26.7168 37.588 26.2408 37.8867 25.8582 38.484C25.4848 39.072 25.2982 39.772 25.2982 40.584C25.2982 41.3867 25.5175 42.0727 25.9562 42.642C26.4042 43.202 26.9035 43.482 27.4542 43.482C28.0142 43.482 28.4902 43.1927 28.8822 42.614C29.2742 42.0353 29.4702 41.3447 29.4702 40.542ZM37.7274 38.106C38.1568 37.266 38.8054 36.846 39.6734 36.846C40.5508 36.846 41.2088 37.1167 41.6474 37.658C42.0861 38.1993 42.3054 38.8667 42.3054 39.66V42.95C42.3708 43.23 42.5388 43.37 42.8094 43.37H43.3414V44H40.1074V43.37L40.7094 43.356H40.7234C40.8354 43.356 40.9754 43.2207 41.1434 42.95V39.66C41.1434 39.1187 41.0221 38.6427 40.7794 38.232C40.5461 37.8213 40.1961 37.616 39.7294 37.616C39.2628 37.616 38.8708 37.7653 38.5534 38.064C38.2361 38.3627 38.0774 38.7173 38.0774 39.128V42.95C38.1428 43.23 38.3108 43.37 38.5814 43.37H39.1134V44H35.8794V43.37L36.4814 43.356H36.4954C36.6074 43.356 36.7474 43.2207 36.9154 42.95V39.66C36.9154 39.1187 36.7988 38.6427 36.5654 38.232C36.3414 37.8213 35.9914 37.616 35.5154 37.616C35.0488 37.616 34.6521 37.7653 34.3254 38.064C34.0081 38.3627 33.8494 38.7173 33.8494 39.128V42.95C33.9148 43.23 34.0828 43.37 34.3534 43.37H34.8854V44H31.6514V43.37L32.2534 43.356C32.4401 43.3187 32.5848 43.1833 32.6874 42.95V38.12H31.6374V37.84L33.3034 36.72H33.8494V37.714C34.2974 37.1447 34.8201 36.8553 35.4174 36.846H35.4594C36.5234 36.846 37.2794 37.266 37.7274 38.106Z" fill="#FEFFAB"/>
</svg>
