<svg width="108" height="29" viewBox="0 0 108 29" fill="none" xmlns="http://www.w3.org/2000/svg">
<rect x="0.5" y="0.5" width="107" height="28" rx="4.5" fill="#3C0434"/>
<rect x="0.5" y="0.5" width="107" height="28" rx="4.5" stroke="#FFD762"/>
<path d="M25.3729 9.816C25.1769 9.676 24.8176 9.60133 24.2949 9.592H24.2669C23.7536 9.592 23.1282 9.88133 22.3909 10.46L21.9849 9.9L22.3909 9.634C23.3429 9.00867 24.1036 8.696 24.6729 8.696C25.2422 8.696 25.7276 8.79867 26.1289 9.004C26.5302 9.2 26.8102 9.48 26.9689 9.844C27.1369 10.1987 27.2209 10.5907 27.2209 11.02C27.2209 11.44 27.0389 11.86 26.6749 12.28C26.3202 12.6907 25.7649 13.0593 25.0089 13.386C26.2222 13.4233 27.0482 13.8107 27.4869 14.548C27.6922 14.8933 27.7949 15.3133 27.7949 15.808C27.7949 16.592 27.5242 17.2407 26.9829 17.754C26.4509 18.258 25.7556 18.6453 24.8969 18.916C24.4022 19.0747 23.8889 19.154 23.3569 19.154C22.8249 19.154 22.3069 19.1167 21.8029 19.042L21.5649 18.216L21.8169 18.258L22.1249 18.3C22.3302 18.328 22.6196 18.342 22.9929 18.342C23.3756 18.342 23.7209 18.314 24.0289 18.258C24.5889 18.146 25.1396 17.8707 25.6809 17.432C26.2222 16.9933 26.4929 16.452 26.4929 15.808C26.4929 14.6227 25.7416 14.03 24.2389 14.03H24.2249C24.1409 14.0207 24.0429 14.016 23.9309 14.016C23.8282 14.016 23.6556 14.0487 23.4129 14.114L22.7409 14.296L22.6289 13.484L23.2029 13.414C23.3989 13.386 23.6322 13.3067 23.9029 13.176C25.2656 12.4667 25.9469 11.7013 25.9469 10.88C25.9469 10.4413 25.7556 10.0867 25.3729 9.816ZM33.8962 11.79H33.9242C34.1855 11.79 34.4048 11.7993 34.5822 11.818C34.4422 12.3593 34.3722 12.728 34.3722 12.924C34.1855 12.896 33.9662 12.882 33.7142 12.882C32.9768 12.882 32.3655 13.204 31.8802 13.848C31.4042 14.4827 31.1662 15.1173 31.1662 15.752V17.95C31.2315 18.23 31.3995 18.37 31.6702 18.37H32.3422V19H28.8282V18.37L29.5702 18.356C29.7568 18.3187 29.9015 18.1833 30.0042 17.95V13.386H28.9542V13.106L30.6202 11.986H31.1662V13.792C31.7168 12.4573 32.6268 11.79 33.8962 11.79ZM36.1845 18.174C35.5872 17.474 35.2885 16.564 35.2885 15.444C35.2885 14.3147 35.5872 13.428 36.1845 12.784C36.7912 12.14 37.5518 11.818 38.4665 11.818C39.3812 11.818 40.1138 12.1633 40.6645 12.854V10.04H39.6145V9.76L41.2805 8.64H41.8405V18.076C41.8965 18.1413 41.9665 18.174 42.0505 18.174C42.1065 18.174 42.2792 17.992 42.5685 17.628V18.258C42.4192 18.874 42.1158 19.182 41.6585 19.182C41.2012 19.182 40.8698 18.8507 40.6645 18.188L40.6785 18.146L40.6645 18.118C40.1045 18.846 39.3672 19.21 38.4525 19.21C37.5472 19.21 36.7912 18.8647 36.1845 18.174ZM36.6745 15.486C36.6838 16.3353 36.8658 17.0167 37.2205 17.53C37.5752 18.0433 38.0698 18.3 38.7045 18.3C39.8712 18.3 40.5245 17.4693 40.6645 15.808V15.052C40.5805 13.5027 39.9272 12.7233 38.7045 12.714C38.1165 12.714 37.6358 12.9567 37.2625 13.442C36.8892 13.9273 36.6932 14.6087 36.6745 15.486ZM57.0328 18.37H57.8168V19H53.3648V18.37H54.3448C54.5408 18.37 54.6388 18.3233 54.6388 18.23C54.6388 18.1647 54.6015 18.0853 54.5268 17.992L51.6708 14.394H50.4248V17.964C50.4248 18.2347 50.6348 18.37 51.0548 18.37H51.9788V19H47.4428V18.37H48.4508C48.5908 18.37 48.7215 18.3327 48.8428 18.258C48.9735 18.174 49.0388 18.076 49.0388 17.964V9.956C49.0388 9.79733 48.9735 9.65267 48.8428 9.522C48.7215 9.39133 48.5628 9.326 48.3668 9.326H47.4428V8.696H52.5248C53.5421 8.696 54.3401 8.98067 54.9188 9.55C55.5068 10.11 55.8008 10.8193 55.8008 11.678C55.8008 13.274 54.9048 14.1653 53.1128 14.352L55.9968 17.992C56.2115 18.244 56.5568 18.37 57.0328 18.37ZM50.4248 9.886V13.764H52.2308C53.6121 13.764 54.3028 13.064 54.3028 11.664C54.3028 10.2547 53.8688 9.494 53.0008 9.382C52.7115 9.34467 52.2681 9.326 51.6708 9.326C51.0735 9.326 50.7141 9.382 50.5928 9.494C50.4808 9.59667 50.4248 9.72733 50.4248 9.886ZM62.1749 19.266C61.2322 19.266 60.4342 18.902 59.7809 18.174C59.1275 17.446 58.8009 16.5733 58.8009 15.556C58.8009 14.5387 59.1275 13.6567 59.7809 12.91C60.4342 12.1633 61.2322 11.79 62.1749 11.79C63.1269 11.79 63.9435 12.1633 64.6249 12.91C65.3155 13.6567 65.6609 14.5387 65.6609 15.556C65.6609 16.5733 65.3155 17.446 64.6249 18.174C63.9435 18.902 63.1269 19.266 62.1749 19.266ZM64.2749 15.542C64.2749 14.7393 64.0509 14.0487 63.6029 13.47C63.1642 12.882 62.6602 12.588 62.0909 12.588C61.5215 12.588 61.0455 12.8867 60.6629 13.484C60.2895 14.072 60.1029 14.772 60.1029 15.584C60.1029 16.3867 60.3222 17.0727 60.7609 17.642C61.2089 18.202 61.7082 18.482 62.2589 18.482C62.8189 18.482 63.2949 18.1927 63.6869 17.614C64.0789 17.0353 64.2749 16.3447 64.2749 15.542ZM69.8721 19.266C68.9295 19.266 68.1315 18.902 67.4781 18.174C66.8248 17.446 66.4981 16.5733 66.4981 15.556C66.4981 14.5387 66.8248 13.6567 67.4781 12.91C68.1315 12.1633 68.9295 11.79 69.8721 11.79C70.8241 11.79 71.6408 12.1633 72.3221 12.91C73.0128 13.6567 73.3581 14.5387 73.3581 15.556C73.3581 16.5733 73.0128 17.446 72.3221 18.174C71.6408 18.902 70.8241 19.266 69.8721 19.266ZM71.9721 15.542C71.9721 14.7393 71.7481 14.0487 71.3001 13.47C70.8615 12.882 70.3575 12.588 69.7881 12.588C69.2188 12.588 68.7428 12.8867 68.3601 13.484C67.9868 14.072 67.8001 14.772 67.8001 15.584C67.8001 16.3867 68.0195 17.0727 68.4581 17.642C68.9061 18.202 69.4055 18.482 69.9561 18.482C70.5161 18.482 70.9921 18.1927 71.3841 17.614C71.7761 17.0353 71.9721 16.3447 71.9721 15.542ZM80.2294 13.106C80.6587 12.266 81.3074 11.846 82.1754 11.846C83.0527 11.846 83.7107 12.1167 84.1494 12.658C84.5881 13.1993 84.8074 13.8667 84.8074 14.66V17.95C84.8727 18.23 85.0407 18.37 85.3114 18.37H85.8434V19H82.6094V18.37L83.2114 18.356H83.2254C83.3374 18.356 83.4774 18.2207 83.6454 17.95V14.66C83.6454 14.1187 83.5241 13.6427 83.2814 13.232C83.0481 12.8213 82.6981 12.616 82.2314 12.616C81.7647 12.616 81.3727 12.7653 81.0554 13.064C80.7381 13.3627 80.5794 13.7173 80.5794 14.128V17.95C80.6447 18.23 80.8127 18.37 81.0834 18.37H81.6154V19H78.3814V18.37L78.9834 18.356H78.9974C79.1094 18.356 79.2494 18.2207 79.4174 17.95V14.66C79.4174 14.1187 79.3007 13.6427 79.0674 13.232C78.8434 12.8213 78.4934 12.616 78.0174 12.616C77.5507 12.616 77.1541 12.7653 76.8274 13.064C76.5101 13.3627 76.3514 13.7173 76.3514 14.128V17.95C76.4167 18.23 76.5847 18.37 76.8554 18.37H77.3874V19H74.1534V18.37L74.7554 18.356C74.9421 18.3187 75.0867 18.1833 75.1894 17.95V13.12H74.1394V12.84L75.8054 11.72H76.3514V12.714C76.7994 12.1447 77.3221 11.8553 77.9194 11.846H77.9614C79.0254 11.846 79.7814 12.266 80.2294 13.106Z" fill="#FEFFAB"/>
</svg>
