<svg width="212.000000" height="109.000000" viewBox="0 0 212 109" fill="none" xmlns="http://www.w3.org/2000/svg" xmlns:xlink="http://www.w3.org/1999/xlink">
	<desc>
			Created with Pixso.
	</desc>
	<defs>
		<clipPath id="clip108_5997">
			<rect id="tm"  rx="47" ry="47" width="45.934223" height="45.934223" transform="translate(21.502441 24.127930) rotate(-0.000000)" fill="white" fill-opacity="0"/>
		</clipPath>
		<filter id="filter_108_6001_dd" x="3.686523" y="28.471619" width="30.128418" height="34.757202" filterUnits="userSpaceOnUse" color-interpolation-filters="sRGB">
			<feFlood flood-opacity="0" result="BackgroundImageFix"/>
			<feColorMatrix in="SourceAlpha" type="matrix" values="0 0 0 0 0 0 0 0 0 0 0 0 0 0 0 0 0 0 127 0" result="hardAlpha"/>
			<feOffset dx="0" dy="4"/>
			<feGaussianBlur stdDeviation="1.33333"/>
			<feComposite in2="hardAlpha" operator="out" k2="-1" k3="1"/>
			<feColorMatrix type="matrix" values="0 0 0 0 0 0 0 0 0 0 0 0 0 0 0 0 0 0 0.25 0"/>
			<feBlend mode="normal" in2="BackgroundImageFix" result="effect_dropShadow_1"/>
			<feBlend mode="normal" in="SourceGraphic" in2="effect_dropShadow_1" result="shape"/>
		</filter>
		<filter id="filter_108_6002_dd" x="3.686523" y="28.759277" width="23.309570" height="34.469543" filterUnits="userSpaceOnUse" color-interpolation-filters="sRGB">
			<feFlood flood-opacity="0" result="BackgroundImageFix"/>
			<feColorMatrix in="SourceAlpha" type="matrix" values="0 0 0 0 0 0 0 0 0 0 0 0 0 0 0 0 0 0 127 0" result="hardAlpha"/>
			<feOffset dx="0" dy="4"/>
			<feGaussianBlur stdDeviation="1.33333"/>
			<feComposite in2="hardAlpha" operator="out" k2="-1" k3="1"/>
			<feColorMatrix type="matrix" values="0 0 0 0 0 0 0 0 0 0 0 0 0 0 0 0 0 0 0.25 0"/>
			<feBlend mode="normal" in2="BackgroundImageFix" result="effect_dropShadow_1"/>
			<feBlend mode="normal" in="SourceGraphic" in2="effect_dropShadow_1" result="shape"/>
		</filter>
		<clipPath id="clip108_6000">
			<rect id="shield-antivirus-svgrepo-com 1" width="35.689922" height="35.689926" transform="matrix(-0.972708 0.232033 0.232033 0.972708 34.7158 19.7012)" fill="white" fill-opacity="0"/>
		</clipPath>
		<filter id="filter_108_6005_dd" x="22.778809" y="-4.980957" width="47.853516" height="49.042236" filterUnits="userSpaceOnUse" color-interpolation-filters="sRGB">
			<feFlood flood-opacity="0" result="BackgroundImageFix"/>
			<feColorMatrix in="SourceAlpha" type="matrix" values="0 0 0 0 0 0 0 0 0 0 0 0 0 0 0 0 0 0 127 0" result="hardAlpha"/>
			<feOffset dx="0" dy="4"/>
			<feGaussianBlur stdDeviation="3.33333"/>
			<feComposite in2="hardAlpha" operator="out" k2="-1" k3="1"/>
			<feColorMatrix type="matrix" values="0 0 0 0 0 0 0 0 0 0 0 0 0 0 0 0 0 0 0.5 0"/>
			<feBlend mode="normal" in2="BackgroundImageFix" result="effect_dropShadow_1"/>
			<feBlend mode="normal" in="SourceGraphic" in2="effect_dropShadow_1" result="shape"/>
		</filter>
		<clipPath id="clip108_6003">
			<rect id="helmet_red" width="30.570757" height="31.864920" transform="translate(31.929688 0.000000)" fill="white" fill-opacity="0"/>
		</clipPath>
		<filter id="filter_108_6023_dd" x="49.443359" y="-2.603271" width="46.664551" height="67.724365" filterUnits="userSpaceOnUse" color-interpolation-filters="sRGB">
			<feFlood flood-opacity="0" result="BackgroundImageFix"/>
			<feColorMatrix in="SourceAlpha" type="matrix" values="0 0 0 0 0 0 0 0 0 0 0 0 0 0 0 0 0 0 127 0" result="hardAlpha"/>
			<feOffset dx="0" dy="4"/>
			<feGaussianBlur stdDeviation="3.33333"/>
			<feComposite in2="hardAlpha" operator="out" k2="-1" k3="1"/>
			<feColorMatrix type="matrix" values="0 0 0 0 0 0 0 0 0 0 0 0 0 0 0 0 0 0 0.5 0"/>
			<feBlend mode="normal" in2="BackgroundImageFix" result="effect_dropShadow_1"/>
			<feBlend mode="normal" in="SourceGraphic" in2="effect_dropShadow_1" result="shape"/>
		</filter>
		<clipPath id="clip108_6021">
			<rect id="sword_red" width="28.884270" height="51.868382" transform="translate(59.612793 0.000000)" fill="white" fill-opacity="0"/>
		</clipPath>
		<filter id="filter_108_6030_dd" x="18.920898" y="74.710022" width="49.680176" height="13.216003" filterUnits="userSpaceOnUse" color-interpolation-filters="sRGB">
			<feFlood flood-opacity="0" result="BackgroundImageFix"/>
			<feColorMatrix in="SourceAlpha" type="matrix" values="0 0 0 0 0 0 0 0 0 0 0 0 0 0 0 0 0 0 127 0" result="hardAlpha"/>
			<feOffset dx="0" dy="2"/>
			<feGaussianBlur stdDeviation="0.666667"/>
			<feComposite in2="hardAlpha" operator="out" k2="-1" k3="1"/>
			<feColorMatrix type="matrix" values="0 0 0 0 0 0 0 0 0 0 0 0 0 0 0 0 0 0 0.5 0"/>
			<feBlend mode="normal" in2="BackgroundImageFix" result="effect_dropShadow_1"/>
			<feBlend mode="normal" in="SourceGraphic" in2="effect_dropShadow_1" result="shape"/>
		</filter>
		<clipPath id="clip108_6033">
			<rect id="bmw-2-logo-svgrepo-com 1" width="37.547379" height="37.547379" transform="translate(147.773438 28.321350)" fill="white" fill-opacity="0"/>
		</clipPath>
		<clipPath id="clip108_6032">
			<rect id="bmw"  rx="47" ry="47" width="45.934223" height="45.934223" transform="translate(143.580078 24.127930)" fill="white" fill-opacity="0"/>
		</clipPath>
		<filter id="filter_108_6041_dd" x="174.071777" y="28.542847" width="30.212891" height="34.859070" filterUnits="userSpaceOnUse" color-interpolation-filters="sRGB">
			<feFlood flood-opacity="0" result="BackgroundImageFix"/>
			<feColorMatrix in="SourceAlpha" type="matrix" values="0 0 0 0 0 0 0 0 0 0 0 0 0 0 0 0 0 0 127 0" result="hardAlpha"/>
			<feOffset dx="-4" dy="4"/>
			<feGaussianBlur stdDeviation="1.33333"/>
			<feComposite in2="hardAlpha" operator="out" k2="-1" k3="1"/>
			<feColorMatrix type="matrix" values="0 0 0 0 0 0 0 0 0 0 0 0 0 0 0 0 0 0 0.25 0"/>
			<feBlend mode="normal" in2="BackgroundImageFix" result="effect_dropShadow_1"/>
			<feBlend mode="normal" in="SourceGraphic" in2="effect_dropShadow_1" result="shape"/>
		</filter>
		<filter id="filter_108_6042_dd" x="180.916504" y="28.831665" width="23.368164" height="34.570251" filterUnits="userSpaceOnUse" color-interpolation-filters="sRGB">
			<feFlood flood-opacity="0" result="BackgroundImageFix"/>
			<feColorMatrix in="SourceAlpha" type="matrix" values="0 0 0 0 0 0 0 0 0 0 0 0 0 0 0 0 0 0 127 0" result="hardAlpha"/>
			<feOffset dx="-4" dy="4"/>
			<feGaussianBlur stdDeviation="1.33333"/>
			<feComposite in2="hardAlpha" operator="out" k2="-1" k3="1"/>
			<feColorMatrix type="matrix" values="0 0 0 0 0 0 0 0 0 0 0 0 0 0 0 0 0 0 0.25 0"/>
			<feBlend mode="normal" in2="BackgroundImageFix" result="effect_dropShadow_1"/>
			<feBlend mode="normal" in="SourceGraphic" in2="effect_dropShadow_1" result="shape"/>
		</filter>
		<clipPath id="clip108_6040">
			<rect id="shield-antivirus-svgrepo-com 1" width="35.825710" height="35.825710" transform="translate(177.151855 19.739014) rotate(-13.416809)" fill="white" fill-opacity="0"/>
		</clipPath>
		<filter id="filter_108_6045_dd" x="140.935547" y="-4.977112" width="47.959473" height="49.152710" filterUnits="userSpaceOnUse" color-interpolation-filters="sRGB">
			<feFlood flood-opacity="0" result="BackgroundImageFix"/>
			<feColorMatrix in="SourceAlpha" type="matrix" values="0 0 0 0 0 0 0 0 0 0 0 0 0 0 0 0 0 0 127 0" result="hardAlpha"/>
			<feOffset dx="0" dy="4"/>
			<feGaussianBlur stdDeviation="3.33333"/>
			<feComposite in2="hardAlpha" operator="out" k2="-1" k3="1"/>
			<feColorMatrix type="matrix" values="0 0 0 0 0 0 0 0 0 0 0 0 0 0 0 0 0 0 0.5 0"/>
			<feBlend mode="normal" in2="BackgroundImageFix" result="effect_dropShadow_1"/>
			<feBlend mode="normal" in="SourceGraphic" in2="effect_dropShadow_1" result="shape"/>
		</filter>
		<clipPath id="clip108_6043">
			<rect id="helmet_red" width="30.687067" height="31.986153" transform="matrix(-1 0 0 1 179.748 0)" fill="white" fill-opacity="0"/>
		</clipPath>
		<filter id="filter_108_6063_dd" x="115.374512" y="-2.590332" width="46.766113" height="67.905945" filterUnits="userSpaceOnUse" color-interpolation-filters="sRGB">
			<feFlood flood-opacity="0" result="BackgroundImageFix"/>
			<feColorMatrix in="SourceAlpha" type="matrix" values="0 0 0 0 0 0 0 0 0 0 0 0 0 0 0 0 0 0 127 0" result="hardAlpha"/>
			<feOffset dx="0" dy="4"/>
			<feGaussianBlur stdDeviation="3.33333"/>
			<feComposite in2="hardAlpha" operator="out" k2="-1" k3="1"/>
			<feColorMatrix type="matrix" values="0 0 0 0 0 0 0 0 0 0 0 0 0 0 0 0 0 0 0.5 0"/>
			<feBlend mode="normal" in2="BackgroundImageFix" result="effect_dropShadow_1"/>
			<feBlend mode="normal" in="SourceGraphic" in2="effect_dropShadow_1" result="shape"/>
		</filter>
		<clipPath id="clip108_6061">
			<rect id="sword_red" width="28.994165" height="52.065723" transform="matrix(-1 0 0 1 151.97 0)" fill="white" fill-opacity="0"/>
		</clipPath>
		<filter id="filter_108_6070_dd" x="141.608398" y="74.973999" width="54.480957" height="12.916016" filterUnits="userSpaceOnUse" color-interpolation-filters="sRGB">
			<feFlood flood-opacity="0" result="BackgroundImageFix"/>
			<feColorMatrix in="SourceAlpha" type="matrix" values="0 0 0 0 0 0 0 0 0 0 0 0 0 0 0 0 0 0 127 0" result="hardAlpha"/>
			<feOffset dx="0" dy="2"/>
			<feGaussianBlur stdDeviation="0.666667"/>
			<feComposite in2="hardAlpha" operator="out" k2="-1" k3="1"/>
			<feColorMatrix type="matrix" values="0 0 0 0 0 0 0 0 0 0 0 0 0 0 0 0 0 0 0.5 0"/>
			<feBlend mode="normal" in2="BackgroundImageFix" result="effect_dropShadow_1"/>
			<feBlend mode="normal" in="SourceGraphic" in2="effect_dropShadow_1" result="shape"/>
		</filter>
		<filter id="filter_108_6072_dd" x="58.532715" y="4.343994" width="94.453125" height="83.645691" filterUnits="userSpaceOnUse" color-interpolation-filters="sRGB">
			<feFlood flood-opacity="0" result="BackgroundImageFix"/>
			<feColorMatrix in="SourceAlpha" type="matrix" values="0 0 0 0 0 0 0 0 0 0 0 0 0 0 0 0 0 0 127 0" result="hardAlpha"/>
			<feOffset dx="0" dy="0"/>
			<feGaussianBlur stdDeviation="8.33333"/>
			<feComposite in2="hardAlpha" operator="out" k2="-1" k3="1"/>
			<feColorMatrix type="matrix" values="0 0 0 0 0.98039 0 0 0 0 0.79216 0 0 0 0 0.34902 0 0 0 1 0"/>
			<feBlend mode="normal" in2="BackgroundImageFix" result="effect_dropShadow_1"/>
			<feBlend mode="normal" in="SourceGraphic" in2="effect_dropShadow_1" result="shape"/>
		</filter>
		<filter id="filter_108_6074_dd" x="90.176758" y="36.852844" width="29.480957" height="19.236694" filterUnits="userSpaceOnUse" color-interpolation-filters="sRGB">
			<feFlood flood-opacity="0" result="BackgroundImageFix"/>
			<feColorMatrix in="SourceAlpha" type="matrix" values="0 0 0 0 0 0 0 0 0 0 0 0 0 0 0 0 0 0 127 0" result="hardAlpha"/>
			<feOffset dx="0" dy="4"/>
			<feGaussianBlur stdDeviation="0.666667"/>
			<feComposite in2="hardAlpha" operator="out" k2="-1" k3="1"/>
			<feColorMatrix type="matrix" values="0 0 0 0 0 0 0 0 0 0 0 0 0 0 0 0 0 0 0.5 0"/>
			<feBlend mode="normal" in2="BackgroundImageFix" result="effect_dropShadow_1"/>
			<feBlend mode="normal" in="SourceGraphic" in2="effect_dropShadow_1" result="shape"/>
		</filter>
		<radialGradient id="paint_radial_108_6072_0" cx="0.000000" cy="0.000000" r="1.000000" gradientUnits="userSpaceOnUse" gradientTransform="translate(88.2175 39.4352) rotate(9.60304) scale(34.5708 46.5041)">
			<stop offset="0.102161" stop-color="#B37D16"/>
			<stop offset="0.806940" stop-color="#F8F497"/>
			<stop offset="1.000000" stop-color="#C4963D"/>
		</radialGradient>
		<linearGradient id="paint_linear_108_6072_1" x1="85.979492" y1="31.343988" x2="116.794991" y2="55.273346" gradientUnits="userSpaceOnUse">
			<stop stop-color="#F8F497"/>
			<stop offset="1.000000" stop-color="#B7851F"/>
		</linearGradient>
		<radialGradient id="paint_radial_108_6073_0" cx="0.000000" cy="0.000000" r="1.000000" gradientUnits="userSpaceOnUse" gradientTransform="translate(107.67 33.7541) rotate(95.6824) scale(17.3869 23.4689)">
			<stop stop-color="#AF4190"/>
			<stop offset="0.472281" stop-color="#610547"/>
			<stop offset="1.000000" stop-color="#220119"/>
		</radialGradient>
		<linearGradient id="paint_linear_108_6073_1" x1="92.434837" y1="33.754089" x2="118.085724" y2="52.604912" gradientUnits="userSpaceOnUse">
			<stop stop-color="#F2E586"/>
			<stop offset="0.546840" stop-color="#B37D16"/>
			<stop offset="0.990875" stop-color="#F7F395"/>
		</linearGradient>
		<linearGradient id="paint_linear_108_6074_0" x1="92.176750" y1="51.744133" x2="92.176750" y2="36.852844" gradientUnits="userSpaceOnUse">
			<stop offset="0.276042" stop-color="#B37D16"/>
			<stop offset="0.670000" stop-color="#F8F497"/>
			<stop offset="1.000000" stop-color="#DDB149"/>
		</linearGradient>
		<linearGradient id="paint_linear_108_6074_1" x1="104.917305" y1="36.852844" x2="104.917305" y2="51.313744" gradientUnits="userSpaceOnUse">
			<stop stop-color="#DDB149"/>
			<stop offset="1.000000" stop-color="#F8F497"/>
		</linearGradient>
	</defs>
	<rect id="tm" rx="47" ry="47" width="45.934223" height="45.934223" transform="translate(21.502441 24.127930) rotate(-0.000000)" fill="#000000" fill-opacity="1.000000"/>
	<g clip-path="url(#clip108_5997)">
		<path id="Vector" d="M54.4785 50.9103C54.9414 50.9469 55.375 50.9003 55.8281 50.7957C56.0845 50.7234 56.3354 50.6322 56.5781 50.5228C56.8125 50.404 57.0376 50.2672 57.251 50.1135C57.457 49.9523 57.6509 49.7755 57.8306 49.5849C58.0024 49.3873 58.1597 49.1772 58.3008 48.9565C58.4712 48.6664 58.6001 48.3743 58.71 48.0552C58.7832 47.7897 58.8389 47.5316 58.8735 47.261C58.8882 47.0493 58.8931 46.8444 58.8882 46.6349C58.8638 46.2867 58.8027 45.9676 58.71 45.6316C58.644 45.4436 58.5708 45.2583 58.4907 45.076C58.3081 44.7155 58.0938 44.4061 57.8306 44.0991C57.6504 43.91 57.4565 43.7341 57.251 43.5728C56.9844 43.3798 56.6987 43.2149 56.3979 43.0806C56.1494 42.9825 55.8936 42.9028 55.6333 42.842C55.2642 42.7766 54.8896 42.7488 54.5151 42.7592C53.8867 42.8102 53.2554 43.0027 52.7246 43.3486C52.688 43.3753 52.647 43.4094 52.6104 43.4361C53.0293 44.0672 53.3066 44.8027 53.4751 45.5359C53.5234 45.7722 53.5625 46.0089 53.5869 46.2473C53.667 47.0047 53.5918 47.7722 53.3823 48.503C53.2046 49.1047 52.9292 49.7136 52.5664 50.2277C53.1167 50.6229 53.8062 50.8614 54.4785 50.9103ZM51.4653 45.4876C51.396 45.299 51.3149 45.1151 51.2217 44.9371C51.0024 45.3513 50.8442 45.7921 50.7734 46.2574C50.7344 46.5228 50.7173 46.791 50.7344 47.0613C50.771 47.6387 50.9565 48.2182 51.2314 48.7276C51.4067 48.3745 51.5386 48.0258 51.6187 47.6387C51.7529 46.976 51.7114 46.2744 51.5112 45.6263L51.4653 45.4876ZM48.2642 50.8715C48.7783 50.7862 49.2412 50.613 49.6968 50.3644L49.8721 50.2598C49.7744 50.1282 49.689 49.9772 49.6089 49.8358C49.3345 49.3508 49.1265 48.8315 48.9897 48.2914C48.9121 47.9767 48.8579 47.6569 48.8267 47.3343C48.7876 46.8472 48.8071 46.3572 48.8853 45.8749C49.0337 45.0004 49.3579 44.1796 49.8569 43.4487C49.645 43.3099 49.4258 43.1807 49.1919 43.0833C48.7949 42.9175 48.376 42.8055 47.9448 42.7738C47.0483 42.7056 46.1714 42.9127 45.4165 43.4C45.9521 44.2063 46.2837 45.1514 46.4175 46.1088C46.4468 46.3987 46.4663 46.6739 46.4639 46.9661C46.4492 47.5388 46.3521 48.0967 46.1812 48.6447C45.9985 49.2269 45.728 49.7606 45.397 50.2719C46.2349 50.8226 47.2729 51.0273 48.2642 50.8715ZM44.3105 45.4512C44.2397 45.2558 44.1523 45.0668 44.0498 44.8861C43.894 45.1857 43.7603 45.4951 43.6724 45.8192C43.5869 46.1526 43.5337 46.4965 43.5337 46.8422C43.5361 47.0615 43.5557 47.2832 43.5972 47.4975C43.6885 47.942 43.8452 48.3705 44.0625 48.7691C44.1987 48.5034 44.3154 48.2258 44.396 47.9383C44.4688 47.6483 44.5225 47.3682 44.5396 47.0711C44.5566 46.6665 44.5273 46.2623 44.4346 45.87C44.4033 45.7311 44.3569 45.5852 44.3105 45.4512ZM41.792 45.383C41.9502 44.7618 42.2036 44.187 42.5396 43.6412L42.6689 43.4489L42.6885 43.4197C42.2231 43.1322 41.7236 42.9326 41.1855 42.8278C40.7959 42.7521 40.3716 42.7448 39.9771 42.7765C39.4268 42.8546 38.9028 43.0253 38.4302 43.3174C38.374 43.3541 38.3135 43.3954 38.2622 43.4366C38.6841 44.0678 38.959 44.8033 39.127 45.5365C39.2124 45.9274 39.2607 46.3256 39.271 46.7255C39.2754 47.0884 39.249 47.4509 39.1929 47.8094C39.1523 48.0433 39.0991 48.2751 39.0342 48.5036C38.8569 49.1053 38.5811 49.7142 38.2183 50.2283C39.502 51.1469 41.3779 51.1565 42.6763 50.2575C42.1797 49.5146 41.8408 48.6984 41.6924 47.8166C41.5942 47.2078 41.5884 46.5878 41.6753 45.9774C41.7065 45.7775 41.7456 45.5803 41.792 45.383ZM37.0928 45.4218C37.0293 45.256 36.9561 45.0941 36.8735 44.9371C36.6567 45.3513 36.498 45.7921 36.4277 46.2574C36.3887 46.5228 36.3716 46.791 36.3887 47.0613C36.4253 47.6387 36.6104 48.2182 36.8833 48.7276C37.0146 48.4621 37.127 48.2015 37.2046 47.9139C37.4336 47.1172 37.3901 46.1992 37.0928 45.4218ZM34.564 47.9383C34.4751 47.4557 34.4434 46.9643 34.4692 46.4742C34.5396 45.3909 34.8984 44.3461 35.5093 43.4487C35.2998 43.3099 35.0781 43.1807 34.8467 43.0833C34.4473 42.9175 34.0283 42.8055 33.5996 42.7738C33.2803 42.7495 32.9639 42.7668 32.647 42.8055C32.4473 42.842 32.25 42.8884 32.0552 42.9444C31.7407 43.0496 31.438 43.1868 31.1514 43.3537C30.9312 43.4941 30.7217 43.6513 30.5254 43.8237C30.334 44.0029 30.1572 44.1968 29.9966 44.4038C29.8037 44.6699 29.6396 44.9557 29.5068 45.2564C29.4077 45.505 29.3271 45.7606 29.2656 46.0212L29.2314 46.2234C29.1963 46.4979 29.1821 46.7749 29.1904 47.0516C29.2026 47.2587 29.2314 47.4609 29.2661 47.6654C29.3608 48.0649 29.4878 48.4206 29.6777 48.7861C29.7764 48.9565 29.8828 49.1223 29.9971 49.2828C30.2017 49.5461 30.4209 49.7725 30.6719 49.9918C30.8789 50.1541 31.0967 50.3014 31.3247 50.4328C31.6245 50.584 31.9263 50.7055 32.2505 50.7957C32.4453 50.8419 32.6499 50.881 32.8496 50.9052C33.0737 50.9198 33.2905 50.9296 33.5122 50.9173C34.1055 50.8746 34.6836 50.7122 35.2124 50.4398L35.3511 50.3643L35.5244 50.2596C35.3608 50.0355 35.2246 49.7725 35.0977 49.5239C34.8521 49.0208 34.6724 48.4877 34.564 47.9383ZM58.3979 51.6506C58.1631 51.819 57.9199 51.976 57.6699 52.1209C57.4092 52.2527 57.1426 52.3721 56.8706 52.4789C56.5903 52.574 56.3076 52.6567 56.0181 52.7226L55.7231 52.7762C55.207 52.8395 54.688 52.8663 54.1714 52.8102C53.5513 52.741 52.9448 52.5784 52.3735 52.3279C51.9688 52.1443 51.584 51.9207 51.2236 51.6604C50.8218 51.9405 50.4077 52.1819 49.9546 52.3718C49.3325 52.6278 48.6738 52.7831 48.0034 52.8319C47.5352 52.8589 47.0654 52.8344 46.6025 52.7589C45.6743 52.5909 44.7998 52.2303 44.0303 51.6799C43.7012 51.9113 43.3579 52.1183 42.9902 52.2863C42.23 52.6322 41.4263 52.8223 40.5903 52.8418C40.04 52.849 39.4941 52.7906 38.958 52.6519C38.2031 52.4543 37.5137 52.1183 36.8755 51.6602C36.5391 51.894 36.2007 52.0987 35.833 52.2717C35.0703 52.6248 34.2373 52.8246 33.397 52.8418C33.0459 52.8467 32.7026 52.8174 32.3569 52.776C32.0625 52.7233 31.7715 52.6559 31.4844 52.5738C31.2065 52.4793 30.9336 52.3721 30.666 52.2524C30.4077 52.1207 30.1567 51.976 29.9131 51.8186C29.5996 51.5957 29.3027 51.3507 29.0239 51.0854C28.8247 50.8761 28.6353 50.6574 28.4565 50.4301C28.2896 50.1948 28.1333 49.9517 27.9888 49.7018C27.8564 49.4407 27.7354 49.174 27.626 48.9025C27.5312 48.6225 27.4497 48.338 27.3823 48.0501C27.3306 47.7524 27.2935 47.4525 27.2705 47.1512L27.2607 46.8442L27.2705 46.5349L27.2925 46.2303L27.3315 45.9306L27.3823 45.6359L27.4531 45.3435L27.5312 45.061L27.626 44.7834L27.7358 44.5082L27.8574 44.2427L27.9888 43.9844L28.1348 43.731L28.2886 43.4896L28.4565 43.2535L28.6343 43.0295C28.8242 42.808 29.0239 42.601 29.231 42.4009C29.4507 42.213 29.6787 42.0342 29.9131 41.8651C30.1577 41.7097 30.4087 41.5649 30.666 41.4313C30.9336 41.3109 31.207 41.2027 31.4844 41.1071C31.772 41.0267 32.062 40.956 32.3569 40.9077C32.7881 40.8539 33.2212 40.8247 33.6553 40.8492C34.2056 40.8905 34.7417 40.9977 35.2583 41.178C35.7607 41.3619 36.2393 41.6057 36.6831 41.9041L36.7832 41.9747L36.8633 42.0332C37.7236 41.3925 38.7539 40.9908 39.8208 40.8713C40.459 40.8105 41.1045 40.837 41.7329 40.9735C42.2944 41.0976 42.8364 41.2984 43.3433 41.5704C43.5869 41.7046 43.8184 41.8555 44.0449 42.0137C44.4272 41.7262 44.856 41.4875 45.2974 41.3025C46.1426 40.9443 47.085 40.7957 48.0034 40.8494C48.2983 40.8713 48.5981 40.9127 48.8853 40.9735C49.5732 41.1238 50.2295 41.3935 50.8242 41.7702C50.9536 41.8528 51.0874 41.9432 51.2095 42.0332C51.8018 41.5966 52.4678 41.2692 53.1753 41.0662C53.7114 40.9127 54.2544 40.8445 54.8125 40.8372L55.1289 40.8445L55.4429 40.8691L55.75 40.9081C56.0488 40.9598 56.3447 41.0264 56.6367 41.1075C56.918 41.2001 57.1934 41.3083 57.4624 41.4316C57.7222 41.562 57.9741 41.7068 58.2178 41.8655C58.4517 42.0334 58.6758 42.2087 58.8926 42.4014C59.1001 42.5979 59.2959 42.8062 59.48 43.0251C59.6567 43.2512 59.8208 43.487 59.9717 43.7314L60.1133 43.9848L60.2446 44.2431L60.3589 44.5086L60.4639 44.7813L60.5542 45.0614L60.6318 45.3439C60.6978 45.639 60.749 45.9286 60.7852 46.2308C60.8071 46.5378 60.8145 46.8445 60.8071 47.1516C60.7847 47.453 60.7466 47.7531 60.6924 48.0505L60.6245 48.3429L60.5439 48.6255L60.4492 48.903C60.3428 49.1754 60.2227 49.4422 60.0884 49.7021C59.8965 50.0361 59.6802 50.3553 59.4404 50.657C59.2529 50.8769 59.0537 51.0867 58.8438 51.2854L58.6245 51.4732L58.3979 51.6506Z" fill="#FFFFFF" fill-opacity="0" fill-rule="evenodd"/>
		<path id="Vector" d="M36.7759 50.0211C35.8892 49.1342 35.3848 47.9991 35.3848 46.6542C35.3848 45.3729 35.8647 44.2328 36.6758 43.356C37.4727 44.2256 37.9644 45.3852 37.9644 46.6542C37.9644 47.5361 37.7939 48.2792 37.3799 48.9927C37.9961 47.0343 37.8184 45.6553 37.0635 44.5616C37.1997 44.754 37.5698 45.8332 37.502 46.6541C37.502 47.5627 37.2241 48.4081 36.751 49.1096L36.7759 50.0211ZM60.437 46.6544C60.437 49.858 57.8232 52.4667 54.6221 52.4667C53.2822 52.4667 52.0449 52.011 51.0337 51.2368C50.0205 52.0017 48.7754 52.4667 47.4238 52.4667C46.0884 52.4667 44.856 52.011 43.8403 51.2585C42.8242 52.0186 41.5996 52.4667 40.2739 52.4667C38.9341 52.4667 37.6968 52.011 36.6855 51.2368C35.6748 52.0017 34.4277 52.4667 33.0781 52.4667C29.8745 52.4667 27.2607 49.8578 27.2607 46.6544C27.2607 43.4511 29.8745 40.8372 33.0781 40.8372C34.4277 40.8372 35.6748 41.3027 36.6733 42.0821C37.6748 41.3027 38.9243 40.8372 40.2739 40.8372C41.6235 40.8372 42.854 41.3 43.855 42.0601C44.875 41.266 46.1309 40.8355 47.4238 40.8372C48.7754 40.8372 50.0205 41.3027 51.0195 42.0821C52.0229 41.3027 53.2725 40.8372 54.6221 40.8372C57.9448 40.8372 60.437 43.4438 60.437 46.6544ZM54.6221 41.4463C53.6377 41.4463 52.7319 41.7264 51.9497 42.2161C53.2285 41.1952 55.2822 40.9737 57.6401 41.7971C56.79 41.2807 55.6938 40.947 54.6221 40.947C53.2603 40.947 51.9985 41.4414 51.0142 42.2453L51.0288 42.9006C50.0908 42.0018 48.8193 41.4465 47.4233 41.4465C46.4795 41.4449 45.5542 41.7119 44.7559 42.2163C46.0303 41.1954 48.0864 40.9739 50.4419 41.7973C49.5913 41.2809 48.4976 40.9472 47.4233 40.9472C46.0664 40.9472 44.8389 41.4052 43.8545 42.2114L43.8545 42.9008C42.9194 42.002 41.6699 41.4467 40.2739 41.4467C39.3291 41.445 38.4028 41.712 37.604 42.2165C38.8804 41.1956 40.9341 40.9741 43.292 41.7975C42.4419 41.2811 41.3481 40.9474 40.2739 40.9474C38.9146 40.9474 37.6528 41.4418 36.666 42.2457L36.6807 42.901C35.7456 42.0022 34.4736 41.4468 33.0781 41.4468C32.1323 41.4455 31.2056 41.7125 30.4058 42.2167C31.6846 41.1958 33.7383 40.9743 36.0962 41.7977C35.2461 41.2813 34.1499 40.9476 33.0781 40.9476C29.9355 40.9476 27.3706 43.5152 27.3706 46.655C27.3706 47.7465 27.7505 48.9399 28.396 49.9022C27.0928 47.3323 27.7505 45.3785 28.5811 44.163C28.2622 44.8768 27.8457 45.8317 27.8677 46.655C27.9478 49.4883 30.2109 51.8634 33.0781 51.8634C34.5322 51.8634 35.7603 51.347 36.7251 50.3724C37.6797 51.3688 38.7979 51.8634 40.2744 51.8634C40.9443 51.8635 41.6079 51.7303 42.2261 51.4714C42.8442 51.2125 43.4043 50.8332 43.8745 50.3555C44.8027 51.286 46.0132 51.8634 47.4238 51.8634C48.8809 51.8634 50.106 51.347 51.0708 50.3724C52.0278 51.3688 53.1436 51.8634 54.6221 51.8634C57.4897 51.8634 59.8281 49.5223 59.8281 46.655C59.8276 43.8068 57.4697 41.4463 54.6221 41.4463ZM43.168 49.9992C42.3652 50.697 41.3374 51.0811 40.2739 51.0809C39.229 51.0635 38.7612 50.881 38.3154 50.6619C39.5918 51.6558 42.4272 51.2708 43.1509 50.6471C42.3618 51.2147 41.3701 51.5414 40.2739 51.5414C38.9292 51.5414 37.7964 51.0493 36.9048 50.1699C37.8208 49.2368 38.2837 48.0651 38.2837 46.6547C38.2837 45.2831 37.7456 44.0288 36.8706 43.0958C37.5405 42.4233 38.8657 41.7657 40.2739 41.7657C41.5552 41.7657 42.7612 42.348 43.6382 43.1614L42.9927 43.1614C42.167 44.1504 41.7207 45.2736 41.7207 46.6547C41.7207 47.746 42.1006 48.9396 42.7441 49.9018C41.4409 47.3319 42.1006 45.3782 42.9292 44.1627C42.6099 44.8764 42.1982 45.8338 42.2178 46.6547C42.2471 47.9288 42.8242 49.1102 43.6064 50.0261L43.168 49.9992ZM43.8525 49.9164C43.0288 49.0395 42.5396 47.9358 42.5396 46.6544C42.5396 45.3731 43.0386 44.2014 43.8545 43.3268C44.6855 44.1989 45.1606 45.356 45.1606 46.6544C45.1606 47.5363 44.9897 48.2794 44.5757 48.9929C45.1924 47.0345 45.0142 45.6555 44.2593 44.5618C44.3955 44.7542 44.7661 45.8334 44.7002 46.6542C44.7002 47.5898 44.4053 48.4642 43.9058 49.1805L43.8525 49.9164ZM44.106 50.1743C44.9683 49.2535 45.4819 48.0234 45.4819 46.6542C45.4819 45.2827 44.9805 44.0989 44.106 43.161C44.9829 42.2989 46.1035 41.7653 47.4238 41.7653C48.6978 41.7653 49.8911 42.2451 50.7612 43.0516L50.2007 43.0541C49.3682 44.069 48.9136 45.3416 48.9146 46.6544C48.9146 47.7458 49.2944 48.9393 49.9399 49.9016C48.6367 47.3317 49.2944 45.378 50.1255 44.1625C49.8062 44.8762 49.3916 45.8287 49.4111 46.6544C49.4404 48.0186 49.8989 49.1417 50.7803 50.0844L50.2764 50.0309C49.5063 50.6816 48.5078 51.0811 47.4233 51.0811C46.3784 51.0638 45.9521 50.8569 45.4673 50.6621C46.7412 51.6559 49.5771 51.271 50.3003 50.6473C49.5112 51.2149 48.5195 51.5416 47.4233 51.5416C46.0181 51.5412 45.0098 50.9833 44.106 50.1743ZM44.9438 50.1307C45.6401 50.6325 46.5078 50.9249 47.4233 50.9249C48.3418 50.9249 49.2407 50.6154 49.9448 50.121C49.2505 49.1587 48.8047 47.9286 48.8047 46.6544C48.8047 45.3756 49.2212 44.1893 49.9297 43.2148C49.207 42.6722 48.3271 42.3798 47.4233 42.3818C46.5073 42.3818 45.6597 42.662 44.9629 43.1613C45.6328 44.1066 46.0859 45.3951 46.0859 46.6544C46.0864 47.9286 45.6382 49.1685 44.9438 50.1307ZM43.8696 48.9542C44.3115 48.2686 44.5459 47.47 44.5444 46.6544C44.5444 45.7921 44.3057 44.9858 43.855 44.3354C43.4214 45.02 43.1533 45.8093 43.1533 46.6544C43.1533 47.4827 43.4556 48.2938 43.8696 48.9542ZM42.749 50.1136C42.0376 49.1246 41.6089 47.9358 41.6089 46.6544C41.6084 45.4026 42.0146 44.1845 42.7656 43.1832C42.0688 42.6984 41.1802 42.3818 40.2764 42.3818C39.1924 42.3209 38.0083 42.9421 37.8354 43.2343C38.4785 44.1625 38.8926 45.4241 38.8926 46.6544C38.8926 47.926 38.4785 49.1053 37.7671 50.0818C38.4614 50.6179 39.3335 50.9249 40.2739 50.9249C41.1924 50.9249 42.0498 50.6325 42.749 50.1136ZM36.4321 50.0844L35.9282 50.0309C35.1582 50.6816 34.1621 51.0811 33.0781 51.0811C32.0327 51.0638 31.7231 50.8154 31.1167 50.6621C32.3936 51.6559 35.229 51.271 35.9551 50.6473C35.1631 51.2149 34.1719 51.5416 33.0781 51.5416C30.3887 51.5416 28.189 49.3467 28.189 46.6548C28.189 43.963 30.3862 41.7659 33.0781 41.7659C34.3521 41.7659 35.5454 42.2457 36.4155 43.0521L35.8525 43.0547C35.0513 44.0363 34.5664 45.2932 34.5664 46.655C34.5664 47.7465 34.9487 48.9399 35.5918 49.9022C34.2891 47.3323 34.9492 45.3785 35.7773 44.163C35.458 44.8768 35.0464 45.8293 35.0659 46.655C35.0947 48.0186 35.5503 49.1415 36.4321 50.0844ZM36.6929 48.9175C37.1216 48.2405 37.3486 47.4555 37.3481 46.6542C37.3481 45.8213 37.1069 45.0394 36.6855 44.3716C36.269 45.0246 36.0015 45.8213 36.0015 46.6542C36.0015 47.4704 36.291 48.2744 36.6929 48.9175ZM35.5991 50.121C34.9048 49.1587 34.4565 47.9286 34.4565 46.6544C34.4565 45.3756 34.8735 44.1893 35.582 43.2148C34.8604 42.6722 33.981 42.3798 33.0781 42.3818C30.7246 42.3818 28.8052 44.3013 28.8052 46.6544C28.8052 49.0079 30.7246 50.9249 33.0781 50.9249C33.9941 50.9249 34.8955 50.6154 35.5991 50.121ZM51.124 50.0211C50.2373 49.1342 49.7329 47.9991 49.7329 46.6542C49.7329 45.3729 50.2129 44.2328 51.0215 43.356C51.8203 44.2256 52.3101 45.3852 52.3101 46.6542C52.3101 47.5361 52.1396 48.2792 51.7256 48.9927C52.3442 47.0343 52.1641 45.6553 51.4111 44.5616C51.5454 44.754 51.918 45.8332 51.8496 46.6541C51.8496 47.5627 51.5723 48.4081 51.0996 49.1096L51.124 50.0211ZM51.2529 50.1697C52.1665 49.2366 52.6318 48.0649 52.6318 46.6544C52.6318 45.2829 52.0933 44.0286 51.2163 43.0956C51.8887 42.4232 53.2114 41.7656 54.6221 41.7656C57.3115 41.7656 59.5059 43.9626 59.5059 46.6544C59.5059 47.5363 59.3379 48.2794 58.9238 48.9929C59.54 47.0345 59.3599 45.6555 58.6074 44.5618C58.7412 44.7542 59.1138 45.8334 59.0454 46.6542C59.0454 49.0927 57.0581 51.0807 54.6221 51.0807C53.5767 51.0634 53.1089 50.8809 52.6606 50.6617C53.9375 51.6555 56.7729 51.2706 57.4966 50.6469C56.707 51.2145 55.7158 51.5412 54.6221 51.5412C53.2773 51.5412 52.1445 51.0491 51.2529 50.1697ZM52.1128 50.0818C52.8096 50.6179 53.6816 50.9249 54.6221 50.9249C56.9727 50.9249 58.8926 49.0078 58.8926 46.6544C58.8926 44.3013 56.9727 42.3818 54.6221 42.3818C53.5381 42.3209 52.354 42.9421 52.1812 43.2343C52.8242 44.1625 53.2388 45.4241 53.2388 46.6544C53.2383 47.9258 52.8242 49.1051 52.1128 50.0818ZM51.041 48.9175C51.4551 48.2574 51.6963 47.4827 51.6963 46.6542C51.6963 45.8213 51.4526 45.0394 51.0337 44.3716C50.6147 45.0246 50.3491 45.8213 50.3491 46.6542C50.3491 47.4704 50.6367 48.2744 51.041 48.9175Z" fill="#D0D1D3" fill-opacity="1.000000" fill-rule="evenodd"/>
	</g>
	<rect id="tm"  rx="47" ry="47" width="45.934223" height="45.934223" transform="translate(21.502441 24.127930) rotate(-0.000000)" stroke="#CDCCCC" stroke-opacity="1.000000" stroke-width="1.000000"/>
	<rect id="shield-antivirus-svgrepo-com 1" width="35.689922" height="35.689926" transform="matrix(-0.972708 0.232033 0.232033 0.972708 34.7158 19.7012)" fill="#FFFFFF" fill-opacity="0"/>
	<g clip-path="url(#clip108_6000)">
		<g filter="url(#filter_108_6001_dd)">
			<path id="Vector" d="M22.9951 55.2288L23.6064 54.4472C26.9585 50.1445 31.1294 44.7916 29.418 37.6186L27.7876 30.7841L26.5815 31.0718C22.2271 32.1106 18.4897 30.9927 17.8882 28.4716L15.4761 29.047C16.0776 31.5681 13.2471 34.2527 8.89258 35.2914L7.68652 35.5792L9.31689 42.4136C11.0278 49.5867 17.1655 52.4805 22.0977 54.8058L22.9951 55.2288Z" fill="#D84025" fill-opacity="1.000000" fill-rule="nonzero"/>
		</g>
		<g filter="url(#filter_108_6002_dd)">
			<path id="Vector" d="M8.89258 35.2914C13.2471 34.2526 16.0776 31.5681 15.4761 29.047L16.6821 28.7593L22.9961 55.2274L22.9946 55.2288L22.0977 54.8058C17.1655 52.4805 11.0278 49.5867 9.31641 42.4136L7.68652 35.5792L8.89258 35.2914Z" fill="#A13023" fill-opacity="1.000000" fill-rule="nonzero"/>
		</g>
	</g>
	<rect id="helmet_red" width="30.570757" height="31.864920" transform="translate(31.929688 0.000000)" fill="#FFFFFF" fill-opacity="0"/>
	<g clip-path="url(#clip108_6003)">
		<g filter="url(#filter_108_6005_dd)">
			<path id="Vector" d="M54.4434 22.5884C54.7529 23.8439 55.0605 25.0985 55.3672 26.3521C52.543 27.9683 48.9771 28.8708 44.4976 28.8724L44.4976 23.6889L54.4434 22.5884Z" fill="#535353" fill-opacity="1.000000" fill-rule="evenodd"/>
			<path id="Vector" d="M34.5596 22.5884C34.2466 23.8439 33.936 25.0985 33.6279 26.3521C36.458 27.9683 40.0161 28.8708 44.4976 28.8724L44.4976 23.6889L34.5596 22.5884Z" fill="#676767" fill-opacity="1.000000" fill-rule="evenodd"/>
			<path id="Vector" d="M42.2744 9.07593C35.8218 3.36945 48.0229 3.91022 51.4614 1.01904C51.7041 1.2605 51.8481 1.55072 51.875 1.85376C51.9023 2.15674 51.8115 2.45917 51.6143 2.72339C53.1406 3.67163 55.8242 2.37787 57.2793 4.19531C55.6304 4.12402 54.6265 4.61829 54.0142 5.27991C58.5361 4.75616 56.7671 7.9433 60.6318 8.12305C57.7524 9.34241 50.9897 7.00128 46.8086 9.85059C44.9209 9.79791 44.1621 9.13324 42.2744 9.07593Z" fill="#A23023" fill-opacity="1.000000" fill-rule="evenodd"/>
			<path id="Vector" d="M60.6304 8.07031C57.7798 9.32965 51.0669 6.93005 46.916 9.85059C46.1436 9.81775 45.3838 9.68408 44.6675 9.45514C50.0962 4.66058 54.9136 8.91675 60.6323 8.07031L60.6304 8.07031Z" fill="#1A1A1A" fill-opacity="1.000000" fill-rule="evenodd"/>
			<path id="Vector" d="M42.6509 8.59113C43.396 8.64917 44.127 8.78314 44.8232 8.9892L44.8726 9.0014C44.6289 8.72992 44.3901 8.45844 44.1553 8.18695C42.02 6.37048 46.5137 4.22156 49.2393 3.78076C50.2207 4.41522 51.7329 4.11481 52.5078 4.56012C51.8398 5.10004 51.4258 6.03345 50.7554 6.57336C58.4072 5.79858 54.9219 7.64093 58.5938 7.99786C58.3467 7.87286 58.1221 7.72473 57.9258 7.55707C56.6963 6.51233 56.8789 5.37152 54.1982 5.67657L52.7065 5.84583C52.9702 5.57336 53.2358 5.30139 53.5034 5.02991C54.1079 4.39929 55.0176 3.9679 56.0405 3.82654C55.8008 3.72211 55.5366 3.65222 55.2617 3.62061C55 3.59113 54.7358 3.57532 54.4707 3.57336C53.2783 3.552 52.1411 3.62213 51.1919 3.05176L50.8398 2.83673C50.9092 2.74213 50.981 2.64911 51.0444 2.55609C51.2031 2.34729 51.27 2.10669 51.2354 1.86823C50.0054 2.56219 48.3047 3.02887 46.8477 3.41626C45.6938 3.72131 44.4829 4.02631 43.3887 4.40607C42.6162 4.67755 41.7495 5.05426 41.3394 5.56976C40.5957 6.53064 41.7451 7.77972 42.6509 8.59113Z" fill="#EF4123" fill-opacity="1.000000" fill-rule="evenodd"/>
			<path id="Vector" d="M43.7261 8.71741C44.1138 8.79333 44.4961 8.88403 44.8716 8.98914L44.9204 9.0014C44.6782 8.72821 44.4399 8.45496 44.2061 8.18176C42.0781 6.35364 46.5562 4.19092 49.2725 3.74731C50.2505 4.38586 51.7573 4.0835 52.5293 4.53168C51.8638 5.07507 51.4512 6.0144 50.7832 6.5578C58.4082 5.77808 54.9346 7.63226 58.5942 7.99139C56.689 7.61841 56.7236 6.27075 55.6411 5.9469C54.5591 5.62305 53.1294 6.36902 52.0391 6.0451C52.1533 5.42041 52.6704 4.91235 53.4219 4.13721C52.3779 3.6629 49.7461 4.08655 50.2935 2.71741C47.9512 4.65912 40.4058 3.8548 43.2686 8.55011L43.7261 8.71741Z" fill="#D03927" fill-opacity="1.000000" fill-rule="evenodd"/>
			<path id="Vector" d="M47.894 10.445C47.894 11.7113 46.3354 12.7379 44.4121 12.7379C42.4893 12.7379 40.9307 11.7113 40.9307 10.445C40.9307 9.17877 42.4893 8.15222 44.4121 8.15222C46.3354 8.15222 47.894 9.17877 47.894 10.445Z" fill="#CDCCCC" fill-opacity="1.000000" fill-rule="evenodd"/>
			<path id="Vector" d="M44.4277 10.5299C48.793 10.5299 52.5225 12.2605 54.0146 14.7017C54.8159 14.959 55.3672 15.4889 55.3672 16.0954C55.3628 16.297 55.3022 16.4957 55.1885 16.6786C55.0747 16.8615 54.9106 17.0244 54.707 17.1567C54.6333 20.7266 50.0596 23.6074 44.4277 23.6074C38.7964 23.6074 34.2388 20.7328 34.1528 17.1721C33.9399 17.0392 33.7681 16.8738 33.6479 16.687C33.5283 16.5002 33.4634 16.2964 33.458 16.0892C33.458 15.4767 34.0278 14.936 34.8477 14.6833C36.3457 12.2482 40.0688 10.5299 44.4277 10.5299Z" fill="#8B8A8A" fill-opacity="1.000000" fill-rule="evenodd"/>
			<path id="Vector" d="M42.7993 20.2107C46.6372 20.2107 49.7627 18.2312 49.7627 15.7949C49.7627 13.3586 46.6313 11.3792 42.7993 11.3792C38.9673 11.3792 35.8359 13.3586 35.8359 15.7949C35.8359 18.2312 38.959 20.2107 42.7993 20.2107Z" fill="#989898" fill-opacity="1.000000" fill-rule="evenodd"/>
			<path id="Vector" d="M40.6758 15.2853C42.127 15.2853 43.3086 14.5219 43.3086 13.587C43.3086 12.6521 42.127 11.8886 40.6758 11.8886C39.2251 11.8886 38.0435 12.6505 38.0435 13.587C38.0435 14.5234 39.2373 15.2853 40.6758 15.2853Z" fill="#ACACAC" fill-opacity="1.000000" fill-rule="evenodd"/>
			<path id="Vector" d="M44.4976 14.2665L44.3979 14.2665C43.0093 14.2611 41.6313 14.4487 40.3311 14.8201L32.7788 16.9646L32.7788 23.3547C36.083 26.2792 39.9365 28.5695 44.4976 30.0613L44.4976 14.2665Z" fill="#CDCCCC" fill-opacity="1.000000" fill-rule="evenodd"/>
			<path id="Vector" d="M42.7993 15.2854C42.1973 15.3616 41.6069 15.484 41.0366 15.6509L39.5884 16.0679L39.5884 26.7622C40.6104 27.3513 41.6821 27.886 42.7969 28.3629L42.7969 15.2854L42.7993 15.2854ZM38.9087 16.2639L36.6567 16.9125L36.6567 24.8458C37.3687 25.37 38.1187 25.8771 38.9087 26.3594L38.9087 16.2639ZM35.979 17.1069L34.4771 17.5394L34.4771 23.0865C34.9585 23.5096 35.459 23.9244 35.979 24.3309L35.979 17.1069Z" fill="#333333" fill-opacity="1.000000" fill-rule="evenodd"/>
			<path id="Vector" d="M44.4976 14.2664L44.5972 14.2664C45.9824 14.262 47.3569 14.4496 48.6538 14.82L56.2163 16.963L56.2163 23.3532C52.9102 26.2792 49.0566 28.5695 44.4976 30.0613L44.4976 14.2664Z" fill="#B4B4B4" fill-opacity="1.000000" fill-rule="evenodd"/>
			<path id="Vector" d="M46.1958 15.2854C46.8101 15.3618 47.4126 15.4842 47.9951 15.6509L49.4727 16.0679L49.4727 26.7622C48.4297 27.351 47.3354 27.8857 46.1978 28.3629L46.1978 15.2854L46.1958 15.2854ZM50.1665 16.2639L52.4629 16.9125L52.4629 24.8458C51.7383 25.37 50.9727 25.8771 50.1665 26.3594L50.1665 16.2639ZM53.1567 17.1069L54.6875 17.5394L54.6875 23.0865C54.1978 23.5096 53.6875 23.9244 53.1567 24.3309L53.1567 17.1069Z" fill="#1A1A1A" fill-opacity="1.000000" fill-rule="evenodd"/>
			<path id="Vector" d="M43.5342 8.66174C44.186 8.66174 44.4985 8.96661 44.2334 9.34106C44.0654 9.54108 43.8242 9.70856 43.5337 9.82751C43.2427 9.94647 42.9116 10.0129 42.5718 10.0204C41.9219 10.0204 41.6094 9.71698 41.8745 9.34106C42.043 9.14148 42.2837 8.97424 42.5742 8.85535C42.8643 8.73645 43.1948 8.6698 43.5342 8.66174Z" fill="#E3E3E3" fill-opacity="1.000000" fill-rule="evenodd"/>
		</g>
	</g>
	<rect id="sword_red" width="28.884270" height="51.868382" transform="translate(59.612793 0.000000)" fill="#FFFFFF" fill-opacity="0"/>
	<g clip-path="url(#clip108_6021)">
		<g filter="url(#filter_108_6023_dd)">
			<path id="Vector" d="M60.0093 47.2835L60.145 47.3539C60.2993 47.4366 60.4712 47.4818 60.646 47.4855C60.8208 47.4893 60.9941 47.4517 61.1519 47.3757C61.3115 47.3045 61.4526 47.1966 61.563 47.0608C61.6729 46.925 61.7495 46.7651 61.7866 46.5942C62.0991 45.228 62.7246 43.5585 63.6143 41.8343C64.5034 40.1101 65.5024 38.6345 66.4277 37.5887C66.5439 37.4584 66.6284 37.3033 66.6753 37.1353C66.7222 36.9673 66.73 36.7908 66.6982 36.6193C66.6665 36.4478 66.5957 36.2859 66.4917 36.1459C66.3877 36.0059 66.2529 35.8914 66.0981 35.8114L65.9604 35.7411L66.5264 34.6469L69.1841 36.0162L71.8413 37.384L71.2754 38.4782L71.1396 38.4078C70.9839 38.3264 70.8115 38.2819 70.6357 38.2777C70.4604 38.2736 70.2861 38.31 70.1265 38.3841C69.9673 38.4581 69.8271 38.5679 69.7173 38.7048C69.6069 38.8418 69.5298 39.0023 69.4917 39.1738C69.1792 40.5385 68.5542 42.2095 67.6646 43.9321C66.7749 45.6547 65.7759 47.1319 64.8506 48.1777C64.7349 48.3081 64.6499 48.4633 64.603 48.6314C64.5562 48.7996 64.5488 48.9761 64.5806 49.1478C64.6123 49.3194 64.6826 49.4814 64.7866 49.6216C64.8906 49.7618 65.0254 49.8763 65.1807 49.9565L65.3179 50.0269L64.752 51.1211L62.0947 49.7533L59.4434 48.3793L60.0093 47.2835Z" fill="#CA3927" fill-opacity="1.000000" fill-rule="evenodd"/>
			<path id="Vector" d="M66.7739 38.234C67.2124 38.4626 66.6035 40.5413 65.4126 42.8737C64.2217 45.2061 62.9004 46.9135 62.4697 46.6848C62.0391 46.4561 62.6401 44.3774 63.8311 42.045C65.022 39.7126 66.3354 38.0053 66.7739 38.234Z" fill="#F04B23" fill-opacity="1.000000" fill-rule="evenodd"/>
			<path id="Vector" d="M86.1079 3.39673L84.6836 11.4454L71.3965 37.1944L67.0859 34.9697L80.373 9.2207L86.1079 3.39673Z" fill="#D1D2D2" fill-opacity="1.000000" fill-rule="evenodd"/>
			<path id="Vector" d="M81.8081 7.74432L84.0703 6.27112L83.2749 11.0728L71.332 37.1944L84.6772 11.4454L86.1079 3.39673L81.8081 7.74432Z" fill="#E6E6E5" fill-opacity="1.000000" fill-rule="evenodd"/>
			<path id="Vector" d="M82.3711 10.6998L76.0933 23.5217L69.8135 36.3452L69.1284 35.9965L68.4443 35.6477L75.4077 23.1745L82.3711 10.6998Z" fill="#818181" fill-opacity="1.000000" fill-rule="evenodd"/>
			<path id="Vector" d="M65.7729 33.4233L73.3726 37.3669C73.7632 37.084 74.2373 36.9418 74.7183 36.9631C75.1992 36.9844 75.6592 37.168 76.0239 37.4843C76.3882 37.8005 76.6362 38.231 76.728 38.7064C76.8193 39.1817 76.749 39.6742 76.5278 40.1044C76.3071 40.5346 75.9487 40.8774 75.5103 41.0777C75.0718 41.2779 74.5791 41.3238 74.1118 41.208C73.644 41.0922 73.229 40.8215 72.9336 40.4394C72.6377 40.0573 72.4785 39.5862 72.4814 39.1021L64.8818 35.1585C64.4907 35.4421 64.0161 35.585 63.5342 35.5639C63.0522 35.5428 62.5913 35.3592 62.2261 35.0425C61.8608 34.7258 61.6123 34.2946 61.5205 33.8185C61.4287 33.3423 61.4995 32.8489 61.7207 32.418C61.9419 31.987 62.3013 31.6436 62.7402 31.4431C63.1792 31.2426 63.6729 31.1968 64.1411 31.3129C64.6094 31.4291 65.0249 31.7006 65.3213 32.0834C65.6172 32.4663 65.7764 32.9384 65.7729 33.4233Z" fill="#333333" fill-opacity="1.000000" fill-rule="evenodd"/>
		</g>
	</g>
	<g filter="url(#filter_108_6030_dd)">
		<path id="Audi AG" d="M28.5408 83.806L27.5808 81.574L22.8168 81.574L21.8568 83.806L20.9208 83.806L24.6888 75.058L25.7328 75.058L29.5128 83.806L28.5408 83.806ZM27.2328 80.734L25.1928 76.006L23.1648 80.734L27.2328 80.734ZM30.4569 77.842L31.3209 77.842L31.3209 81.31C31.3209 81.87 31.4649 82.31 31.7529 82.63C32.0249 82.958 32.4329 83.122 32.9769 83.122C33.4889 83.122 33.9129 82.942 34.2489 82.582C34.5849 82.222 34.7529 81.774 34.7529 81.238L34.7529 77.842L35.6169 77.842L35.6169 83.806L34.7649 83.806L34.7649 82.714C34.2849 83.522 33.6009 83.926 32.7129 83.926C32.0169 83.926 31.4609 83.706 31.0449 83.266C30.6529 82.826 30.4569 82.246 30.4569 81.526L30.4569 77.842ZM37.1516 80.818C37.1516 80.018 37.4076 79.31 37.9196 78.694C38.4396 78.054 39.1156 77.734 39.9476 77.734C40.4996 77.734 40.9716 77.874 41.3636 78.154C41.6996 78.394 41.9996 78.706 42.2636 79.09L42.2636 74.71L43.1276 74.71L43.1276 83.806L42.2756 83.806L42.2756 82.534C41.7316 83.438 40.9556 83.89 39.9476 83.89C39.1156 83.89 38.4356 83.582 37.9076 82.966C37.4036 82.358 37.1516 81.642 37.1516 80.818ZM40.1276 83.134C40.7276 83.142 41.2396 82.91 41.6636 82.438C42.0876 81.966 42.2916 81.422 42.2756 80.806C42.2756 80.414 42.1836 80.046 41.9996 79.702C41.8156 79.35 41.5596 79.062 41.2316 78.838C40.8956 78.622 40.5276 78.514 40.1276 78.514C39.4876 78.514 38.9836 78.734 38.6156 79.174C38.2316 79.622 38.0396 80.178 38.0396 80.842C38.0396 81.714 38.3636 82.37 39.0116 82.81C39.3396 83.026 39.7116 83.134 40.1276 83.134ZM45.0713 76.174C44.9433 76.03 44.8793 75.874 44.8793 75.706C44.8793 75.538 44.9433 75.382 45.0713 75.238C45.1993 75.11 45.3553 75.046 45.5393 75.046C45.7153 75.046 45.8673 75.11 45.9953 75.238C46.1233 75.366 46.1873 75.522 46.1873 75.706C46.1873 75.89 46.1233 76.046 45.9953 76.174C45.8673 76.302 45.7153 76.366 45.5393 76.366C45.3553 76.366 45.1993 76.302 45.0713 76.174ZM45.0953 83.806L45.0953 77.842L45.9713 77.842L45.9713 83.806L45.0953 83.806ZM57.0173 83.806L56.0573 81.574L51.2933 81.574L50.3333 83.806L49.3973 83.806L53.1653 75.058L54.2093 75.058L57.9893 83.806L57.0173 83.806ZM55.7093 80.734L53.6693 76.006L51.6413 80.734L55.7093 80.734ZM66.409 77.566L65.533 77.878C65.397 77.494 65.197 77.15 64.933 76.846C64.733 76.638 64.541 76.47 64.357 76.342C63.861 75.998 63.249 75.826 62.521 75.826C61.849 75.826 61.257 75.99 60.745 76.318C60.209 76.654 59.801 77.094 59.521 77.638C59.233 78.182 59.089 78.774 59.089 79.414C59.089 80.422 59.393 81.274 60.001 81.97C60.633 82.682 61.477 83.038 62.533 83.038C63.333 83.038 64.029 82.81 64.621 82.354C65.237 81.882 65.569 81.238 65.617 80.422L61.969 80.422L61.969 79.57L66.601 79.57L66.601 79.906C66.601 81.026 66.241 81.966 65.521 82.726C64.769 83.502 63.769 83.89 62.521 83.89C61.193 83.89 60.129 83.466 59.329 82.618C58.537 81.778 58.141 80.726 58.141 79.462C58.141 78.63 58.333 77.87 58.717 77.182C59.101 76.494 59.629 75.954 60.301 75.562C60.965 75.17 61.713 74.974 62.545 74.974C63.601 74.974 64.457 75.238 65.113 75.766C65.729 76.246 66.161 76.846 66.409 77.566Z" fill="#FFFFFF" fill-opacity="1.000000" fill-rule="evenodd"/>
	</g>
	<rect id="bmw" rx="47" ry="47" width="45.934223" height="45.934223" transform="translate(143.580078 24.127930)" fill="#000000" fill-opacity="1.000000"/>
	<g clip-path="url(#clip108_6032)">
		<rect id="bmw-2-logo-svgrepo-com 1" width="37.547379" height="37.547379" transform="translate(147.773438 28.321350)" fill="#FFFFFF" fill-opacity="0"/>
		<g clip-path="url(#clip108_6033)">
			<path id="Vector" d="M166.547 28.3214C176.887 28.3214 185.321 36.7548 185.321 47.095C185.321 57.4353 176.887 65.8687 166.547 65.8687C156.207 65.8687 147.773 57.4353 147.773 47.095C147.773 36.7548 156.207 28.3214 166.547 28.3214Z" fill="#000000" fill-opacity="1.000000" fill-rule="evenodd"/>
			<path id="Vector" d="M155.64 41.4647L151.21 37.6544L152.869 35.7257C153.207 35.3333 153.522 35.0576 153.815 34.897C154.109 34.7361 154.407 34.6694 154.709 34.696C155.01 34.7217 155.264 34.8212 155.468 34.9969C155.656 35.1592 155.783 35.3725 155.848 35.6359C155.913 35.898 155.893 36.1949 155.789 36.524C156.135 36.2805 156.474 36.1577 156.807 36.1526C157.14 36.1483 157.436 36.257 157.694 36.4788C157.898 36.6525 158.052 36.877 158.141 37.1296C158.232 37.3846 158.261 37.6284 158.229 37.8613C158.198 38.0942 158.108 38.3442 157.964 38.6116C157.82 38.8792 157.607 39.1769 157.326 39.5048L155.64 41.4647ZM153.657 38.575L154.613 37.4636C154.872 37.1631 155.04 36.9315 155.119 36.7707C155.223 36.5603 155.262 36.3668 155.234 36.1907C155.206 36.0148 155.115 35.8596 154.96 35.7264C154.814 35.6005 154.649 35.5294 154.468 35.515C154.284 35.5009 154.107 35.5524 153.936 35.6677C153.764 35.7842 153.52 36.0272 153.201 36.397L152.318 37.4235L153.657 38.575ZM155.703 40.334L156.803 39.0552C156.992 38.835 157.118 38.6744 157.18 38.5742C157.29 38.3963 157.362 38.2312 157.396 38.0773C157.431 37.924 157.422 37.7669 157.374 37.6064C157.323 37.4463 157.229 37.3052 157.088 37.1837C156.923 37.0416 156.737 36.9673 156.53 36.96C156.324 36.9534 156.121 37.0161 155.921 37.1484C155.724 37.2801 155.483 37.51 155.202 37.8367L154.18 39.0247L155.703 40.334ZM163.005 34.9192L163.005 29.9083L164.327 29.9083L165.895 33.4562C166.04 33.7864 166.146 34.0337 166.211 34.1982C166.287 34.0162 166.404 33.7478 166.564 33.3944L168.151 29.9083L169.332 29.9083L169.332 34.9192L168.486 34.9192L168.486 30.7249L166.56 34.9192L165.768 34.9192L163.851 30.6537L163.851 34.9192L163.005 34.9192ZM174.989 37.8452L178.055 33.6878L178.474 34.2042L176.397 36.8464C176.184 37.1211 175.962 37.3894 175.732 37.651C176.226 37.412 176.511 37.2753 176.589 37.2408L179.798 35.8392L180.291 36.4468L178.766 38.5847C178.389 39.116 178.01 39.5859 177.631 39.9944C177.915 39.8436 178.249 39.6788 178.629 39.4994L181.608 38.0727L182.019 38.5793L177.29 40.6838L176.896 40.1983L179.206 36.9988C179.399 36.7307 179.519 36.5678 179.565 36.5099C179.354 36.6144 179.172 36.7003 179.019 36.7677L175.405 38.3588L174.989 37.8452Z" fill="#FFFFFF" fill-opacity="1.000000" fill-rule="nonzero"/>
			<path id="Vector" d="M177.637 47.2809C177.637 53.2867 172.739 58.1849 166.733 58.1849L166.733 47.2809L177.637 47.2809Z" fill="#00ACEC" fill-opacity="1.000000" fill-rule="evenodd"/>
			<path id="Vector" d="M177.637 46.9091C177.637 40.9034 172.739 36.0051 166.733 36.0051L166.733 46.9091L177.637 46.9091Z" fill="#FFFFFF" fill-opacity="1.000000" fill-rule="evenodd"/>
			<path id="Vector" d="M155.458 46.9091C155.458 40.9034 160.355 36.0051 166.361 36.0051L166.361 46.9091L155.458 46.9091Z" fill="#00ACEC" fill-opacity="1.000000" fill-rule="evenodd"/>
			<path id="Vector" d="M155.458 47.2809C155.458 53.2867 160.355 58.1849 166.361 58.1849L166.361 47.2809L155.458 47.2809Z" fill="#FFFFFF" fill-opacity="1.000000" fill-rule="evenodd"/>
		</g>
	</g>
	<rect id="bmw"  rx="47" ry="47" width="45.934223" height="45.934223" transform="translate(143.580078 24.127930)" stroke="#CDCCCC" stroke-opacity="1.000000" stroke-width="1.000000"/>
	<rect id="shield-antivirus-svgrepo-com 1" width="35.825710" height="35.825710" transform="translate(177.151855 19.739014) rotate(-13.416809)" fill="#FFFFFF" fill-opacity="0"/>
	<g clip-path="url(#clip108_6040)">
		<g filter="url(#filter_108_6041_dd)">
			<path id="Vector" d="M188.918 55.4019L188.304 54.6172C184.939 50.2982 180.752 44.9249 182.47 37.7246L184.106 30.8641L185.317 31.153C189.688 32.1957 193.44 31.0736 194.044 28.5428L196.465 29.1204C195.861 31.6512 198.703 34.3459 203.074 35.3887L204.285 35.6774L202.648 42.538C200.931 49.7382 194.769 52.6431 189.818 54.9773L188.918 55.4019Z" fill="#7AB9E8" fill-opacity="1.000000" fill-rule="nonzero"/>
		</g>
		<g filter="url(#filter_108_6042_dd)">
			<path id="Vector" d="M203.074 35.3887C198.703 34.3459 195.861 31.6512 196.465 29.1205L195.254 28.8317L188.917 55.4005L188.918 55.4019L189.818 54.9773C194.769 52.6431 200.93 49.7383 202.648 42.538L204.285 35.6775L203.074 35.3887Z" fill="#579ADF" fill-opacity="1.000000" fill-rule="nonzero"/>
		</g>
	</g>
	<rect id="helmet_red" width="30.687067" height="31.986153" transform="matrix(-1 0 0 1 179.748 0)" fill="#FFFFFF" fill-opacity="0"/>
	<g clip-path="url(#clip108_6043)">
		<g filter="url(#filter_108_6045_dd)">
			<path id="Vector" d="M157.148 22.6743C156.837 23.9347 156.529 25.194 156.221 26.4523C159.056 28.0747 162.635 28.9807 167.132 28.9822L167.132 23.7791L157.148 22.6743Z" fill="#535353" fill-opacity="1.000000" fill-rule="evenodd"/>
			<path id="Vector" d="M177.107 22.6743C177.421 23.9347 177.733 25.194 178.042 26.4523C175.201 28.0747 171.63 28.9807 167.131 28.9822L167.131 23.7791L177.107 22.6743Z" fill="#676767" fill-opacity="1.000000" fill-rule="evenodd"/>
			<path id="Vector" d="M169.363 9.11041C175.84 3.38226 163.593 3.92505 160.141 1.02289C159.897 1.26526 159.753 1.55658 159.726 1.86078C159.698 2.16492 159.79 2.46851 159.988 2.7337C158.456 3.68555 155.762 2.3869 154.301 4.21124C155.956 4.13971 156.964 4.6358 157.579 5.29993C153.04 4.77423 154.815 7.97345 150.936 8.15387C153.826 9.37793 160.614 7.02789 164.812 9.88806C166.707 9.83514 167.468 9.16797 169.363 9.11041Z" fill="#1B2241" fill-opacity="1.000000" fill-rule="evenodd"/>
			<path id="Vector" d="M150.938 8.10101C153.798 9.36517 160.537 6.95642 164.704 9.88806C165.479 9.8551 166.242 9.72095 166.961 9.49115C161.511 4.67834 156.676 8.95068 150.936 8.10101L150.938 8.10101Z" fill="#1A1A1A" fill-opacity="1.000000" fill-rule="evenodd"/>
			<path id="Vector" d="M168.985 8.62378C168.237 8.68207 167.503 8.81653 166.805 9.02338L166.755 9.03564C167 8.76312 167.24 8.4906 167.476 8.21808C169.619 6.39471 165.108 4.23761 162.372 3.7951C161.387 4.43201 159.869 4.13043 159.091 4.57745C159.762 5.11945 160.177 6.0564 160.85 6.59833C153.169 5.82062 156.668 7.66998 152.981 8.02826C153.23 7.90277 153.455 7.75409 153.652 7.58582C154.886 6.53711 154.704 5.39191 157.394 5.69812L158.892 5.86804C158.627 5.59454 158.36 5.32153 158.091 5.04901C157.485 4.41602 156.572 3.98297 155.545 3.84106C155.786 3.73621 156.051 3.66608 156.326 3.6344C156.589 3.6048 156.854 3.58893 157.121 3.58691C158.317 3.56549 159.459 3.63593 160.412 3.06335L160.766 2.84747C160.695 2.75256 160.624 2.65918 160.56 2.5658C160.4 2.35614 160.333 2.11469 160.368 1.87531C161.603 2.5719 163.31 3.04034 164.772 3.42926C165.931 3.73541 167.146 4.04163 168.245 4.42285C169.02 4.69531 169.89 5.07349 170.302 5.59094C171.048 6.55548 169.895 7.80933 168.985 8.62378Z" fill="#4386BB" fill-opacity="1.000000" fill-rule="evenodd"/>
			<path id="Vector" d="M167.906 8.75055C167.517 8.82678 167.133 8.91779 166.756 9.02332L166.707 9.03564C166.95 8.76135 167.189 8.48712 167.424 8.21283C169.56 6.37781 165.065 4.20685 162.339 3.7616C161.357 4.40253 159.844 4.099 159.069 4.54889C159.737 5.09436 160.151 6.03729 160.822 6.5827C153.168 5.79999 156.655 7.66125 152.981 8.02179C154.894 7.6474 154.859 6.29462 155.945 5.96948C157.032 5.64441 158.467 6.39319 159.561 6.06812C159.446 5.44104 158.928 4.93103 158.173 4.15295C159.221 3.67682 161.863 4.10211 161.314 2.72772C163.665 4.67682 171.239 3.86945 168.365 8.58264L167.906 8.75055Z" fill="#283A84" fill-opacity="1.000000" fill-rule="evenodd"/>
			<path id="Vector" d="M163.722 10.4847C163.722 11.7559 165.287 12.7863 167.217 12.7863C169.147 12.7863 170.712 11.7559 170.712 10.4847C170.712 9.21368 169.147 8.18323 167.217 8.18323C165.287 8.18323 163.722 9.21368 163.722 10.4847Z" fill="#CDCCCC" fill-opacity="1.000000" fill-rule="evenodd"/>
			<path id="Vector" d="M167.201 10.57C162.82 10.57 159.076 12.3072 157.578 14.7577C156.774 15.0159 156.221 15.5479 156.221 16.1567C156.225 16.3591 156.286 16.5585 156.4 16.7421C156.514 16.9257 156.679 17.0892 156.883 17.222C156.957 20.8055 161.548 23.6973 167.201 23.6973C172.854 23.6973 177.429 20.8117 177.516 17.2374C177.729 17.1041 177.902 16.938 178.022 16.7505C178.143 16.563 178.208 16.3584 178.213 16.1505C178.213 15.5356 177.641 14.9929 176.818 14.7393C175.314 12.2949 171.577 10.57 167.201 10.57Z" fill="#8B8A8A" fill-opacity="1.000000" fill-rule="evenodd"/>
			<path id="Vector" d="M168.836 20.2876C164.984 20.2876 161.847 18.3005 161.847 15.855C161.847 13.4094 164.99 11.4224 168.836 11.4224C172.683 11.4224 175.826 13.4094 175.826 15.855C175.826 18.3005 172.691 20.2876 168.836 20.2876Z" fill="#989898" fill-opacity="1.000000" fill-rule="evenodd"/>
			<path id="Vector" d="M170.968 15.3435C169.512 15.3435 168.325 14.5771 168.325 13.6387C168.325 12.7003 169.512 11.9338 170.968 11.9338C172.424 11.9338 173.61 12.6987 173.61 13.6387C173.61 14.5787 172.412 15.3435 170.968 15.3435Z" fill="#ACACAC" fill-opacity="1.000000" fill-rule="evenodd"/>
			<path id="Vector" d="M167.132 14.3207L167.231 14.3207C168.625 14.3154 170.009 14.5037 171.314 14.8764L178.895 17.0291L178.895 23.4436C175.578 26.3792 171.71 28.6782 167.132 30.1756L167.132 14.3207Z" fill="#CDCCCC" fill-opacity="1.000000" fill-rule="evenodd"/>
			<path id="Vector" d="M168.837 15.3435C169.441 15.4199 170.034 15.5428 170.606 15.7104L172.06 16.1289L172.06 26.864C171.034 27.4553 169.958 27.9921 168.839 28.4708L168.839 15.3435L168.837 15.3435ZM172.742 16.3257L175.002 16.9768L175.002 24.9402C174.288 25.4665 173.535 25.9755 172.742 26.4596L172.742 16.3257ZM175.683 17.172L177.19 17.6061L177.19 23.1743C176.708 23.599 176.205 24.0154 175.683 24.4235L175.683 17.172Z" fill="#333333" fill-opacity="1.000000" fill-rule="evenodd"/>
			<path id="Vector" d="M167.132 14.3207L167.032 14.3207C165.642 14.3163 164.262 14.5046 162.959 14.8764L155.369 17.0275L155.369 23.442C158.688 26.3792 162.556 28.6782 167.132 30.1756L167.132 14.3207Z" fill="#B4B4B4" fill-opacity="1.000000" fill-rule="evenodd"/>
			<path id="Vector" d="M165.427 15.3435C164.811 15.4202 164.206 15.5431 163.621 15.7104L162.138 16.1289L162.138 26.864C163.185 27.455 164.283 27.9918 165.425 28.4708L165.425 15.3435L165.427 15.3435ZM161.441 16.3257L159.136 16.9768L159.136 24.9402C159.863 25.4665 160.631 25.9755 161.441 26.4596L161.441 16.3257ZM158.439 17.172L156.902 17.6061L156.902 23.1743C157.395 23.599 157.907 24.0154 158.439 24.4235L158.439 17.172Z" fill="#1A1A1A" fill-opacity="1.000000" fill-rule="evenodd"/>
			<path id="Vector" d="M168.099 8.6947C167.444 8.6947 167.131 9.00073 167.397 9.37665C167.565 9.57739 167.808 9.74548 168.1 9.86493C168.392 9.98431 168.724 10.051 169.065 10.0586C169.717 10.0586 170.031 9.75391 169.765 9.37665C169.596 9.17627 169.354 9.00842 169.062 8.88904C168.771 8.76971 168.439 8.70282 168.099 8.6947Z" fill="#E3E3E3" fill-opacity="1.000000" fill-rule="evenodd"/>
		</g>
	</g>
	<rect id="sword_red" width="28.994165" height="52.065723" transform="matrix(-1 0 0 1 151.97 0)" fill="#FFFFFF" fill-opacity="0"/>
	<g clip-path="url(#clip108_6061)">
		<g filter="url(#filter_108_6063_dd)">
			<path id="Vector" d="M151.573 47.4634L151.436 47.5341C151.281 47.6171 151.109 47.6624 150.934 47.6662C150.758 47.67 150.584 47.6323 150.425 47.556C150.265 47.4845 150.124 47.3762 150.013 47.2399C149.902 47.1036 149.826 46.9431 149.789 46.7714C149.475 45.4 148.847 43.7242 147.954 41.9935C147.061 40.2628 146.059 38.7815 145.129 37.7318C145.013 37.601 144.928 37.4453 144.881 37.2766C144.834 37.108 144.826 36.9308 144.858 36.7587C144.89 36.5865 144.961 36.424 145.065 36.2834C145.17 36.1428 145.305 36.028 145.46 35.9477L145.599 35.8771L145.031 34.7787L142.363 36.1533L139.695 37.5262L140.263 38.6246L140.4 38.554C140.556 38.4722 140.729 38.4276 140.905 38.4234C141.082 38.4193 141.257 38.4557 141.417 38.5302C141.577 38.6045 141.717 38.7147 141.828 38.8521C141.938 38.9896 142.016 39.1507 142.054 39.3229C142.368 40.6927 142.995 42.3701 143.888 44.0992C144.781 45.8284 145.784 47.3112 146.713 48.361C146.829 48.4919 146.914 48.6477 146.961 48.8165C147.008 48.9852 147.016 49.1625 146.984 49.3348C146.952 49.507 146.881 49.6697 146.777 49.8104C146.672 49.9511 146.537 50.0661 146.382 50.1466L146.244 50.2172L146.812 51.3156L149.479 49.9426L152.141 48.5634L151.573 47.4634Z" fill="#4592CF" fill-opacity="1.000000" fill-rule="evenodd"/>
			<path id="Vector" d="M144.782 38.3795C144.342 38.609 144.954 40.6956 146.149 43.0368C147.345 45.3781 148.671 47.092 149.103 46.8624C149.535 46.6328 148.932 44.5463 147.736 42.205C146.541 39.8638 145.222 38.1499 144.782 38.3795Z" fill="#283A84" fill-opacity="1.000000" fill-rule="evenodd"/>
			<path id="Vector" d="M125.375 3.40967L126.805 11.4889L140.142 37.3359L144.469 35.1028L131.132 9.2558L125.375 3.40967Z" fill="#D1D2D2" fill-opacity="1.000000" fill-rule="evenodd"/>
			<path id="Vector" d="M129.691 7.7738L127.42 6.29498L128.219 11.1149L140.207 37.3359L126.811 11.4889L125.375 3.40967L129.691 7.7738Z" fill="#E6E6E5" fill-opacity="1.000000" fill-rule="evenodd"/>
			<path id="Vector" d="M129.126 10.7405L135.428 23.6112L141.731 36.4835L142.419 36.1334L143.105 35.7833L136.116 23.2627L129.126 10.7405Z" fill="#818181" fill-opacity="1.000000" fill-rule="evenodd"/>
			<path id="Vector" d="M145.788 33.5505L138.159 37.5091C137.767 37.2252 137.291 37.0824 136.808 37.1038C136.325 37.1251 135.863 37.3094 135.498 37.6268C135.132 37.9443 134.883 38.3765 134.791 38.8536C134.699 39.3308 134.77 39.8251 134.991 40.257C135.213 40.6888 135.573 41.033 136.013 41.2339C136.453 41.4349 136.948 41.481 137.417 41.3648C137.886 41.2485 138.303 40.9767 138.6 40.5933C138.896 40.2097 139.056 39.7369 139.053 39.2509L146.682 35.2923C147.074 35.577 147.551 35.7203 148.035 35.6992C148.519 35.6781 148.981 35.4937 149.348 35.1758C149.714 34.858 149.964 34.4251 150.056 33.9471C150.148 33.4691 150.077 32.9739 149.855 32.5413C149.633 32.1087 149.272 31.764 148.832 31.5627C148.391 31.3615 147.896 31.3154 147.425 31.4321C146.955 31.5487 146.538 31.8212 146.241 32.2055C145.944 32.5898 145.784 33.0637 145.788 33.5505Z" fill="#333333" fill-opacity="1.000000" fill-rule="evenodd"/>
		</g>
	</g>
	<g filter="url(#filter_108_6070_dd)">
		<path id="BMW AG" d="M146.872 83.806L143.608 83.806L143.608 75.058L146.752 75.058C147.568 75.042 148.24 75.234 148.768 75.634C149.304 76.026 149.572 76.566 149.572 77.254C149.572 77.486 149.532 77.726 149.452 77.974C149.404 78.126 149.332 78.278 149.236 78.43C149.012 78.782 148.68 79.058 148.24 79.258C148.856 79.418 149.308 79.734 149.596 80.206C149.836 80.606 149.956 81.006 149.956 81.406C149.956 82.222 149.648 82.834 149.032 83.242C148.448 83.618 147.728 83.806 146.872 83.806ZM146.68 75.898L144.52 75.898L144.52 78.946L146.608 78.946C147.296 78.946 147.804 78.798 148.132 78.502C148.468 78.206 148.636 77.826 148.636 77.362C148.636 76.866 148.448 76.498 148.072 76.258C147.696 76.018 147.232 75.898 146.68 75.898ZM146.716 79.762L144.52 79.762L144.52 82.966L146.896 82.966C147.464 82.966 147.96 82.838 148.384 82.582C148.808 82.318 149.02 81.906 149.02 81.346C149.02 80.674 148.668 80.214 147.964 79.966C147.612 79.83 147.196 79.762 146.716 79.762ZM159.6 75.058L160.92 75.058L160.92 83.806L160.008 83.806L160.008 76.306L156.756 83.806L155.928 83.806L152.7 76.366L152.7 83.806L151.788 83.806L151.788 75.058L153.096 75.058L156.36 82.558L159.6 75.058ZM166.199 83.806L165.191 83.806L162.455 75.058L163.415 75.058L165.707 82.486L165.731 82.486L168.035 75.058L169.079 75.058L171.407 82.522L171.419 82.522L173.723 75.058L174.647 75.058L171.899 83.806L170.879 83.806L168.551 76.294L166.199 83.806ZM184.506 83.806L183.546 81.574L178.782 81.574L177.822 83.806L176.886 83.806L180.654 75.058L181.698 75.058L185.478 83.806L184.506 83.806ZM183.198 80.734L181.158 76.006L179.13 80.734L183.198 80.734ZM193.897 77.566L193.021 77.878C192.885 77.494 192.685 77.15 192.421 76.846C192.221 76.638 192.029 76.47 191.845 76.342C191.349 75.998 190.737 75.826 190.009 75.826C189.337 75.826 188.745 75.99 188.233 76.318C187.697 76.654 187.289 77.094 187.009 77.638C186.721 78.182 186.577 78.774 186.577 79.414C186.577 80.422 186.881 81.274 187.489 81.97C188.121 82.682 188.965 83.038 190.021 83.038C190.821 83.038 191.517 82.81 192.109 82.354C192.725 81.882 193.057 81.238 193.105 80.422L189.457 80.422L189.457 79.57L194.089 79.57L194.089 79.906C194.089 81.026 193.729 81.966 193.009 82.726C192.257 83.502 191.257 83.89 190.009 83.89C188.681 83.89 187.617 83.466 186.817 82.618C186.025 81.778 185.629 80.726 185.629 79.462C185.629 78.63 185.821 77.87 186.205 77.182C186.589 76.494 187.117 75.954 187.789 75.562C188.453 75.17 189.201 74.974 190.033 74.974C191.089 74.974 191.945 75.238 192.601 75.766C193.217 76.246 193.649 76.846 193.897 77.566Z" fill="#FFFFFF" fill-opacity="1.000000" fill-rule="evenodd"/>
	</g>
	<g filter="url(#filter_108_6072_dd)">
		<path id="Vector 1" d="M90.4902 53.5695L85.9795 31.344L125.575 31.344L121.398 53.5695L105.276 60.7823L90.4902 53.5695Z" fill="url(#paint_radial_108_6072_0)" fill-opacity="1.000000" fill-rule="nonzero"/>
	</g>
	<path id="Vector 1" d="M83.5327 29.344L88.7266 54.9343L89.6133 55.367L105.239 62.9897L123.17 54.9676L127.986 29.344L83.5327 29.344ZM90.4902 53.5695L85.9795 31.344L125.575 31.344L125.199 33.344L121.398 53.5695L105.276 60.7823L90.4902 53.5695Z" fill="url(#paint_linear_108_6072_1)" fill-opacity="1.000000" fill-rule="evenodd"/>
	<path id="Vector 2" d="M93.0352 52.3403L89.25 33.7541L122.476 33.7541L118.971 52.3403L105.442 58.3721L93.0352 52.3403Z" fill="url(#paint_radial_108_6073_0)" fill-opacity="1.000000" fill-rule="nonzero"/>
	<path id="Vector 2" d="M86.8018 31.7541L91.2725 53.7072L92.1606 54.139L105.406 60.5781L120.742 53.7404L124.888 31.7541L86.8018 31.7541ZM93.0352 52.3403L89.6572 35.7541L89.25 33.7541L122.476 33.7541L122.099 35.7541L118.971 52.3403L105.442 58.3721L93.0352 52.3403Z" fill="url(#paint_linear_108_6073_1)" fill-opacity="1.000000" fill-rule="evenodd"/>
	<g filter="url(#filter_108_6074_dd)">
		<path id="Vector" d="M112.487 41.6871C112.924 41.8348 113.37 41.9821 113.824 42.1298C114.279 42.2774 114.683 42.4191 115.037 42.5549C115.893 42.8854 116.544 43.3416 116.989 43.9229C117.435 44.5041 117.658 45.2256 117.658 46.0875C117.658 46.6304 117.531 47.1559 117.277 47.6637C117.023 48.1711 116.681 48.5931 116.25 48.9295C115.778 49.3015 115.232 49.5877 114.612 49.7883C113.992 49.9889 113.27 50.0895 112.443 50.0895C111.675 50.0895 110.96 49.9938 110.296 49.8022C109.632 49.6107 109.07 49.385 108.609 49.1256L107.999 49.7448L107.246 49.7448L107.131 45.2086L107.892 45.2086C108.063 45.64 108.282 46.0948 108.547 46.5733C108.813 47.0518 109.12 47.4802 109.468 47.8583C109.828 48.2543 110.231 48.576 110.676 48.8243C111.122 49.0723 111.643 49.1963 112.239 49.1963C113.042 49.1963 113.657 49.0005 114.085 48.6081C114.513 48.2156 114.728 47.7215 114.728 47.1256C114.728 46.636 114.546 46.2244 114.183 45.8911C113.82 45.5579 113.258 45.2698 112.496 45.0272C112 44.8673 111.544 44.7193 111.128 44.5831C110.712 44.447 110.321 44.3077 109.955 44.1656C109.111 43.8292 108.484 43.3483 108.074 42.7225C107.664 42.097 107.458 41.3978 107.458 40.6243C107.458 40.1343 107.564 39.6639 107.777 39.2122C107.989 38.7609 108.299 38.3548 108.707 37.9951C109.096 37.6587 109.595 37.3843 110.203 37.1715C110.811 36.959 111.472 36.8528 112.187 36.8528C112.883 36.8528 113.535 36.95 114.143 37.1447C114.75 37.3394 115.229 37.5336 115.577 37.7283L116.117 37.1976L116.888 37.1976L116.958 41.4772L116.197 41.4772C116.02 41.0164 115.812 40.5452 115.573 40.0637C115.334 39.582 115.081 39.1819 114.816 38.8625C114.526 38.5199 114.193 38.2469 113.815 38.0428C113.438 37.8391 112.995 37.7371 112.487 37.7371C111.85 37.7371 111.329 37.9174 110.924 38.2775C110.52 38.6376 110.318 39.0833 110.318 39.6147C110.318 40.1166 110.494 40.5268 110.845 40.8458C111.196 41.1648 111.744 41.4451 112.487 41.6871ZM105.82 38.2587C105.566 38.4064 105.37 38.5638 105.231 38.7319C105.093 38.8998 104.956 39.1314 104.82 39.426C104.637 39.8328 104.38 40.4265 104.05 41.2076C103.719 41.9887 103.341 42.8774 102.917 43.8734C102.539 44.7694 102.13 45.7511 101.69 46.8178C101.25 47.8848 100.83 48.9076 100.428 49.8862L98.6484 49.8862C97.8223 47.8643 96.981 45.81 96.1255 43.7233C95.2695 41.6363 94.6675 40.1862 94.3193 39.3727C94.1836 39.0781 94.0522 38.8556 93.9253 38.7051C93.7983 38.5551 93.5962 38.4005 93.3188 38.241C93.1177 38.1292 92.9409 38.0511 92.7876 38.0069C92.6343 37.9627 92.4307 37.9227 92.1768 37.8875L92.1768 37.1976L98.9854 37.1976L98.9854 37.8697C98.3481 37.9464 97.916 38.0275 97.689 38.1128C97.4619 38.1984 97.3481 38.306 97.3481 38.4356C97.3481 38.5007 97.3584 38.5697 97.3794 38.6435C97.3999 38.7173 97.4312 38.8159 97.4727 38.9395C97.6611 39.4577 98.0034 40.3043 98.499 41.4792C98.9946 42.6539 99.7295 44.4456 100.703 46.854C101.299 45.3879 101.794 44.1485 102.19 43.1358C102.585 42.1232 102.933 41.2281 103.234 40.4509C103.382 40.0741 103.504 39.722 103.602 39.395C103.699 39.068 103.748 38.8218 103.748 38.6567C103.748 38.468 103.612 38.3106 103.341 38.1835C103.069 38.0571 102.568 37.9641 101.836 37.9052L101.836 37.1976L106.927 37.1976L106.927 37.9052C106.732 37.9227 106.546 37.9582 106.369 38.0111C106.192 38.0644 106.009 38.1469 105.82 38.2587Z" fill="url(#paint_linear_108_6074_0)" fill-opacity="1.000000" fill-rule="nonzero"/>
	</g>
	<path id="Vector" d="M108.609 49.1256C109.07 49.385 109.632 49.6107 110.296 49.8022C110.373 49.8245 110.451 49.8455 110.53 49.8652C111.127 50.0148 111.765 50.0895 112.443 50.0895C112.833 50.0895 113.2 50.0671 113.544 50.0223C113.929 49.9722 114.285 49.8942 114.612 49.7883C115.232 49.5877 115.778 49.3015 116.25 48.9295C116.681 48.5931 117.023 48.1711 117.277 47.6637C117.531 47.1559 117.658 46.6304 117.658 46.0875Q117.658 44.96 117.149 44.1526Q117.075 44.0343 116.989 43.9229C116.544 43.3416 115.893 42.8854 115.037 42.5549C114.683 42.4191 114.279 42.2774 113.824 42.1298C113.37 41.9821 112.924 41.8348 112.487 41.6871C111.744 41.4451 111.196 41.1648 110.845 40.8458C110.494 40.5268 110.318 40.1166 110.318 39.6147C110.318 39.0833 110.52 38.6376 110.924 38.2775C111.118 38.1049 111.339 37.9736 111.586 37.8836C111.855 37.7859 112.155 37.7371 112.487 37.7371C112.995 37.7371 113.438 37.8391 113.815 38.0428C113.877 38.0765 113.939 38.1121 113.999 38.1497C114.302 38.3391 114.574 38.5765 114.816 38.8625C115.081 39.1819 115.334 39.582 115.573 40.0637Q115.775 40.4716 115.948 40.8696Q116.082 41.1763 116.197 41.4772L116.958 41.4772L116.954 41.1863L116.945 40.6569L116.942 40.4772L116.888 37.1976L116.117 37.1976L116.104 37.2106L115.891 37.4199L115.577 37.7283C115.284 37.5646 114.899 37.4011 114.423 37.2374C114.333 37.2065 114.239 37.1756 114.143 37.1447C113.535 36.95 112.883 36.8528 112.187 36.8528Q111.758 36.8528 111.356 36.9036Q110.75 36.9801 110.203 37.1715C109.595 37.3843 109.096 37.6587 108.707 37.9951C108.299 38.3548 107.989 38.7609 107.777 39.2122C107.564 39.6639 107.458 40.1343 107.458 40.6243C107.458 41.3978 107.664 42.097 108.074 42.7225C108.484 43.3483 109.111 43.8292 109.955 44.1656C110.321 44.3077 110.712 44.447 111.128 44.5831C111.544 44.7193 112 44.8673 112.496 45.0272C113.258 45.2698 113.82 45.5579 114.183 45.8911C114.546 46.2244 114.728 46.636 114.728 47.1256C114.728 47.7215 114.513 48.2156 114.085 48.6081C113.877 48.7993 113.624 48.9438 113.327 49.0417C113.013 49.1448 112.651 49.1963 112.239 49.1963Q111.461 49.1963 110.854 48.915Q110.764 48.8728 110.676 48.8243C110.231 48.576 109.828 48.2543 109.468 47.8583C109.12 47.4802 108.813 47.0518 108.547 46.5733C108.399 46.3058 108.265 46.0457 108.146 45.7928C108.052 45.5936 107.968 45.3988 107.892 45.2086L107.131 45.2086L107.139 45.5076L107.151 46.0237L107.156 46.2086L107.246 49.7448L107.999 49.7448L108.018 49.7252L108.24 49.4999L108.609 49.1256ZM108.205 48.1118L108.298 48.0173Q108.248 47.9517 108.199 47.8846L108.205 48.1118ZM115.534 48.2177Q115.585 48.1804 115.635 48.1415Q115.748 48.0532 115.85 47.9536Q116.17 47.6407 116.383 47.2165Q116.6 46.7825 116.646 46.3311Q116.658 46.21 116.658 46.0875Q116.658 45.1395 116.201 44.5384Q116.199 44.5349 116.196 44.5313Q115.698 43.8821 114.679 43.4886Q114.174 43.2949 113.515 43.0808L113.51 43.0791L112.178 42.6381Q110.858 42.2085 110.172 41.586Q109.873 41.3135 109.676 40.9802Q109.594 40.8416 109.53 40.6924Q109.519 40.6646 109.507 40.6365Q109.318 40.1635 109.318 39.6147Q109.318 39.1297 109.468 38.6967Q109.476 38.6736 109.484 38.6509Q109.424 38.6968 109.369 38.7446Q108.913 39.1473 108.682 39.6377Q108.537 39.9468 108.486 40.2708Q108.458 40.4454 108.458 40.6243Q108.458 41.1722 108.641 41.6503Q108.746 41.9238 108.91 42.1744Q109.352 42.8489 110.317 43.2335Q110.841 43.4371 111.437 43.632L112.8 44.0743Q114.152 44.5053 114.859 45.1545Q115.215 45.4814 115.428 45.8842Q115.47 45.9637 115.506 46.0461Q115.549 46.1435 115.583 46.2438Q115.728 46.6599 115.728 47.1256Q115.728 47.7087 115.534 48.2177ZM97.4727 38.9395C97.4312 38.8159 97.3999 38.7173 97.3794 38.6435C97.3584 38.5697 97.3481 38.5007 97.3481 38.4356C97.3481 38.3457 97.4028 38.2664 97.5122 38.1976C97.5605 38.1673 97.6196 38.139 97.689 38.1128C97.916 38.0275 98.3481 37.9464 98.9854 37.8697L98.9854 37.1976L97.9854 37.1976L97.2837 37.1976L93.1768 37.1976L92.2725 37.1976L92.1768 37.1976L92.1768 37.8875C92.4307 37.9227 92.6343 37.9627 92.7876 38.0069C92.9204 38.0452 93.0708 38.1088 93.2388 38.1976C93.2651 38.2114 93.2915 38.2259 93.3188 38.241C93.5962 38.4005 93.7983 38.5551 93.9253 38.7051C94.0522 38.8556 94.1836 39.0781 94.3193 39.3727C94.6675 40.1862 95.2695 41.6363 96.1255 43.7233Q97.4092 46.8533 98.6484 49.8862L100.428 49.8862C100.5 49.7101 100.574 49.5325 100.647 49.3536C100.982 48.5381 101.33 47.6928 101.69 46.8178C102.13 45.7511 102.539 44.7694 102.917 43.8734C103.163 43.2967 103.393 42.756 103.607 42.2513C103.763 41.8843 103.911 41.5364 104.05 41.2076C104.38 40.4265 104.637 39.8328 104.82 39.426C104.956 39.1314 105.093 38.8998 105.231 38.7319C105.37 38.5638 105.566 38.4064 105.82 38.2587C105.856 38.2372 105.893 38.2169 105.928 38.1976C106.079 38.1163 106.226 38.0541 106.369 38.0111C106.546 37.9582 106.732 37.9227 106.927 37.9052L106.927 37.1976L105.927 37.1976L105.697 37.1976L102.836 37.1976L101.893 37.1976L101.836 37.1976L101.836 37.9052C102.568 37.9641 103.069 38.0571 103.341 38.1835C103.351 38.1882 103.36 38.1929 103.37 38.1976C103.622 38.3222 103.748 38.4749 103.748 38.6567C103.748 38.8218 103.699 39.068 103.602 39.395C103.504 39.722 103.382 40.0741 103.234 40.4509C103.071 40.8733 102.893 41.3304 102.702 41.8223C102.541 42.2356 102.37 42.6735 102.19 43.1358C101.92 43.8273 101.603 44.6245 101.24 45.5273C101.071 45.9468 100.892 46.389 100.703 46.854C100.685 46.8093 100.667 46.7648 100.649 46.7204C100.479 46.2998 100.316 45.8984 100.161 45.5162C99.4521 43.7706 98.8979 42.4249 98.499 41.4792C98.0034 40.3043 97.6611 39.4577 97.4727 38.9395ZM100.107 48.0375L97.5776 41.868Q96.8257 40.0855 96.5327 39.2816L96.5283 39.2697L96.5244 39.2577Q96.4536 39.0468 96.4175 38.9161Q96.3481 38.673 96.3481 38.4356Q96.3481 38.314 96.3716 38.1976L94.7969 38.1976Q95.0181 38.4999 95.2275 38.9545L95.2354 38.9717L97.0508 43.3444L99.3198 48.8862L99.7583 48.8862L100.107 48.0375Z" fill="url(#paint_linear_108_6074_1)" fill-opacity="1.000000" fill-rule="evenodd"/>
</svg>
