<svg width="212.000000" height="109.000000" viewBox="0 0 212 109" fill="none" xmlns="http://www.w3.org/2000/svg" xmlns:xlink="http://www.w3.org/1999/xlink">
	<desc>
			Created with Pixso.
	</desc>
	<defs>
		<clipPath id="clip108_6276">
			<rect id="ba" rx="47" ry="47" width="45.934223" height="45.934223" transform="translate(21.502441 24.127930) rotate(-0.000000)" fill="white" fill-opacity="0"/>
		</clipPath>
		<filter id="filter_108_6279_dd" x="3.686279" y="28.471619" width="30.128906" height="34.757202" filterUnits="userSpaceOnUse" color-interpolation-filters="sRGB">
			<feFlood flood-opacity="0" result="BackgroundImageFix"/>
			<feColorMatrix in="SourceAlpha" type="matrix" values="0 0 0 0 0 0 0 0 0 0 0 0 0 0 0 0 0 0 127 0" result="hardAlpha"/>
			<feOffset dx="0" dy="4"/>
			<feGaussianBlur stdDeviation="1.33333"/>
			<feComposite in2="hardAlpha" operator="out" k2="-1" k3="1"/>
			<feColorMatrix type="matrix" values="0 0 0 0 0 0 0 0 0 0 0 0 0 0 0 0 0 0 0.25 0"/>
			<feBlend mode="normal" in2="BackgroundImageFix" result="effect_dropShadow_1"/>
			<feBlend mode="normal" in="SourceGraphic" in2="effect_dropShadow_1" result="shape"/>
		</filter>
		<filter id="filter_108_6280_dd" x="3.686279" y="28.759277" width="23.309570" height="34.469543" filterUnits="userSpaceOnUse" color-interpolation-filters="sRGB">
			<feFlood flood-opacity="0" result="BackgroundImageFix"/>
			<feColorMatrix in="SourceAlpha" type="matrix" values="0 0 0 0 0 0 0 0 0 0 0 0 0 0 0 0 0 0 127 0" result="hardAlpha"/>
			<feOffset dx="0" dy="4"/>
			<feGaussianBlur stdDeviation="1.33333"/>
			<feComposite in2="hardAlpha" operator="out" k2="-1" k3="1"/>
			<feColorMatrix type="matrix" values="0 0 0 0 0 0 0 0 0 0 0 0 0 0 0 0 0 0 0.25 0"/>
			<feBlend mode="normal" in2="BackgroundImageFix" result="effect_dropShadow_1"/>
			<feBlend mode="normal" in="SourceGraphic" in2="effect_dropShadow_1" result="shape"/>
		</filter>
		<clipPath id="clip108_6278">
			<rect id="shield-antivirus-svgrepo-com 1" width="35.689922" height="35.689926" transform="matrix(-0.972708 0.232033 0.232033 0.972708 34.7158 19.7012)" fill="white" fill-opacity="0"/>
		</clipPath>
		<filter id="filter_108_6283_dd" x="22.778809" y="-4.980957" width="47.853271" height="49.042236" filterUnits="userSpaceOnUse" color-interpolation-filters="sRGB">
			<feFlood flood-opacity="0" result="BackgroundImageFix"/>
			<feColorMatrix in="SourceAlpha" type="matrix" values="0 0 0 0 0 0 0 0 0 0 0 0 0 0 0 0 0 0 127 0" result="hardAlpha"/>
			<feOffset dx="0" dy="4"/>
			<feGaussianBlur stdDeviation="3.33333"/>
			<feComposite in2="hardAlpha" operator="out" k2="-1" k3="1"/>
			<feColorMatrix type="matrix" values="0 0 0 0 0 0 0 0 0 0 0 0 0 0 0 0 0 0 0.5 0"/>
			<feBlend mode="normal" in2="BackgroundImageFix" result="effect_dropShadow_1"/>
			<feBlend mode="normal" in="SourceGraphic" in2="effect_dropShadow_1" result="shape"/>
		</filter>
		<clipPath id="clip108_6281">
			<rect id="helmet_red" width="30.570757" height="31.864920" transform="translate(31.929443 0.000000)" fill="white" fill-opacity="0"/>
		</clipPath>
		<filter id="filter_108_6301_dd" x="49.443115" y="-2.603271" width="46.664551" height="67.724365" filterUnits="userSpaceOnUse" color-interpolation-filters="sRGB">
			<feFlood flood-opacity="0" result="BackgroundImageFix"/>
			<feColorMatrix in="SourceAlpha" type="matrix" values="0 0 0 0 0 0 0 0 0 0 0 0 0 0 0 0 0 0 127 0" result="hardAlpha"/>
			<feOffset dx="0" dy="4"/>
			<feGaussianBlur stdDeviation="3.33333"/>
			<feComposite in2="hardAlpha" operator="out" k2="-1" k3="1"/>
			<feColorMatrix type="matrix" values="0 0 0 0 0 0 0 0 0 0 0 0 0 0 0 0 0 0 0.5 0"/>
			<feBlend mode="normal" in2="BackgroundImageFix" result="effect_dropShadow_1"/>
			<feBlend mode="normal" in="SourceGraphic" in2="effect_dropShadow_1" result="shape"/>
		</filter>
		<clipPath id="clip108_6299">
			<rect id="sword_red" width="28.884270" height="51.868382" transform="translate(59.613037 0.000000)" fill="white" fill-opacity="0"/>
		</clipPath>
		<filter id="filter_108_6308_dd" x="2.300537" y="74.710022" width="66.655518" height="29.035950" filterUnits="userSpaceOnUse" color-interpolation-filters="sRGB">
			<feFlood flood-opacity="0" result="BackgroundImageFix"/>
			<feColorMatrix in="SourceAlpha" type="matrix" values="0 0 0 0 0 0 0 0 0 0 0 0 0 0 0 0 0 0 127 0" result="hardAlpha"/>
			<feOffset dx="0" dy="2"/>
			<feGaussianBlur stdDeviation="0.666667"/>
			<feComposite in2="hardAlpha" operator="out" k2="-1" k3="1"/>
			<feColorMatrix type="matrix" values="0 0 0 0 0 0 0 0 0 0 0 0 0 0 0 0 0 0 0.5 0"/>
			<feBlend mode="normal" in2="BackgroundImageFix" result="effect_dropShadow_1"/>
			<feBlend mode="normal" in="SourceGraphic" in2="effect_dropShadow_1" result="shape"/>
		</filter>
		<clipPath id="clip108_6310">
			<rect id="lockheed" rx="47" ry="47" width="45.934223" height="45.934223" transform="translate(143.580078 24.127930)" fill="white" fill-opacity="0"/>
		</clipPath>
		<filter id="filter_108_6314_dd" x="174.071533" y="28.542847" width="30.212891" height="34.859070" filterUnits="userSpaceOnUse" color-interpolation-filters="sRGB">
			<feFlood flood-opacity="0" result="BackgroundImageFix"/>
			<feColorMatrix in="SourceAlpha" type="matrix" values="0 0 0 0 0 0 0 0 0 0 0 0 0 0 0 0 0 0 127 0" result="hardAlpha"/>
			<feOffset dx="-4" dy="4"/>
			<feGaussianBlur stdDeviation="1.33333"/>
			<feComposite in2="hardAlpha" operator="out" k2="-1" k3="1"/>
			<feColorMatrix type="matrix" values="0 0 0 0 0 0 0 0 0 0 0 0 0 0 0 0 0 0 0.25 0"/>
			<feBlend mode="normal" in2="BackgroundImageFix" result="effect_dropShadow_1"/>
			<feBlend mode="normal" in="SourceGraphic" in2="effect_dropShadow_1" result="shape"/>
		</filter>
		<filter id="filter_108_6315_dd" x="180.916504" y="28.831665" width="23.367920" height="34.570251" filterUnits="userSpaceOnUse" color-interpolation-filters="sRGB">
			<feFlood flood-opacity="0" result="BackgroundImageFix"/>
			<feColorMatrix in="SourceAlpha" type="matrix" values="0 0 0 0 0 0 0 0 0 0 0 0 0 0 0 0 0 0 127 0" result="hardAlpha"/>
			<feOffset dx="-4" dy="4"/>
			<feGaussianBlur stdDeviation="1.33333"/>
			<feComposite in2="hardAlpha" operator="out" k2="-1" k3="1"/>
			<feColorMatrix type="matrix" values="0 0 0 0 0 0 0 0 0 0 0 0 0 0 0 0 0 0 0.25 0"/>
			<feBlend mode="normal" in2="BackgroundImageFix" result="effect_dropShadow_1"/>
			<feBlend mode="normal" in="SourceGraphic" in2="effect_dropShadow_1" result="shape"/>
		</filter>
		<clipPath id="clip108_6313">
			<rect id="shield-antivirus-svgrepo-com 1" width="35.825710" height="35.825710" transform="translate(177.151855 19.739014) rotate(-13.416809)" fill="white" fill-opacity="0"/>
		</clipPath>
		<filter id="filter_108_6318_dd" x="140.935547" y="-4.977112" width="47.959473" height="49.152710" filterUnits="userSpaceOnUse" color-interpolation-filters="sRGB">
			<feFlood flood-opacity="0" result="BackgroundImageFix"/>
			<feColorMatrix in="SourceAlpha" type="matrix" values="0 0 0 0 0 0 0 0 0 0 0 0 0 0 0 0 0 0 127 0" result="hardAlpha"/>
			<feOffset dx="0" dy="4"/>
			<feGaussianBlur stdDeviation="3.33333"/>
			<feComposite in2="hardAlpha" operator="out" k2="-1" k3="1"/>
			<feColorMatrix type="matrix" values="0 0 0 0 0 0 0 0 0 0 0 0 0 0 0 0 0 0 0.5 0"/>
			<feBlend mode="normal" in2="BackgroundImageFix" result="effect_dropShadow_1"/>
			<feBlend mode="normal" in="SourceGraphic" in2="effect_dropShadow_1" result="shape"/>
		</filter>
		<clipPath id="clip108_6316">
			<rect id="helmet_red" width="30.687067" height="31.986153" transform="matrix(-1 0 0 1 179.748 0)" fill="white" fill-opacity="0"/>
		</clipPath>
		<filter id="filter_108_6336_dd" x="115.375000" y="-2.590332" width="46.766113" height="67.905945" filterUnits="userSpaceOnUse" color-interpolation-filters="sRGB">
			<feFlood flood-opacity="0" result="BackgroundImageFix"/>
			<feColorMatrix in="SourceAlpha" type="matrix" values="0 0 0 0 0 0 0 0 0 0 0 0 0 0 0 0 0 0 127 0" result="hardAlpha"/>
			<feOffset dx="0" dy="4"/>
			<feGaussianBlur stdDeviation="3.33333"/>
			<feComposite in2="hardAlpha" operator="out" k2="-1" k3="1"/>
			<feColorMatrix type="matrix" values="0 0 0 0 0 0 0 0 0 0 0 0 0 0 0 0 0 0 0.5 0"/>
			<feBlend mode="normal" in2="BackgroundImageFix" result="effect_dropShadow_1"/>
			<feBlend mode="normal" in="SourceGraphic" in2="effect_dropShadow_1" result="shape"/>
		</filter>
		<clipPath id="clip108_6334">
			<rect id="sword_red" width="28.994165" height="52.065723" transform="matrix(-1 0 0 1 151.971 0)" fill="white" fill-opacity="0"/>
		</clipPath>
		<filter id="filter_108_6343_dd" x="140.424805" y="74.697998" width="56.378662" height="26.216003" filterUnits="userSpaceOnUse" color-interpolation-filters="sRGB">
			<feFlood flood-opacity="0" result="BackgroundImageFix"/>
			<feColorMatrix in="SourceAlpha" type="matrix" values="0 0 0 0 0 0 0 0 0 0 0 0 0 0 0 0 0 0 127 0" result="hardAlpha"/>
			<feOffset dx="0" dy="2"/>
			<feGaussianBlur stdDeviation="0.666667"/>
			<feComposite in2="hardAlpha" operator="out" k2="-1" k3="1"/>
			<feColorMatrix type="matrix" values="0 0 0 0 0 0 0 0 0 0 0 0 0 0 0 0 0 0 0.5 0"/>
			<feBlend mode="normal" in2="BackgroundImageFix" result="effect_dropShadow_1"/>
			<feBlend mode="normal" in="SourceGraphic" in2="effect_dropShadow_1" result="shape"/>
		</filter>
		<filter id="filter_108_6345_dd" x="58.532715" y="4.343994" width="94.452881" height="83.645691" filterUnits="userSpaceOnUse" color-interpolation-filters="sRGB">
			<feFlood flood-opacity="0" result="BackgroundImageFix"/>
			<feColorMatrix in="SourceAlpha" type="matrix" values="0 0 0 0 0 0 0 0 0 0 0 0 0 0 0 0 0 0 127 0" result="hardAlpha"/>
			<feOffset dx="0" dy="0"/>
			<feGaussianBlur stdDeviation="8.33333"/>
			<feComposite in2="hardAlpha" operator="out" k2="-1" k3="1"/>
			<feColorMatrix type="matrix" values="0 0 0 0 0.98039 0 0 0 0 0.79216 0 0 0 0 0.34902 0 0 0 1 0"/>
			<feBlend mode="normal" in2="BackgroundImageFix" result="effect_dropShadow_1"/>
			<feBlend mode="normal" in="SourceGraphic" in2="effect_dropShadow_1" result="shape"/>
		</filter>
		<filter id="filter_108_6347_dd" x="90.176758" y="36.852844" width="29.481201" height="19.236694" filterUnits="userSpaceOnUse" color-interpolation-filters="sRGB">
			<feFlood flood-opacity="0" result="BackgroundImageFix"/>
			<feColorMatrix in="SourceAlpha" type="matrix" values="0 0 0 0 0 0 0 0 0 0 0 0 0 0 0 0 0 0 127 0" result="hardAlpha"/>
			<feOffset dx="0" dy="4"/>
			<feGaussianBlur stdDeviation="0.666667"/>
			<feComposite in2="hardAlpha" operator="out" k2="-1" k3="1"/>
			<feColorMatrix type="matrix" values="0 0 0 0 0 0 0 0 0 0 0 0 0 0 0 0 0 0 0.5 0"/>
			<feBlend mode="normal" in2="BackgroundImageFix" result="effect_dropShadow_1"/>
			<feBlend mode="normal" in="SourceGraphic" in2="effect_dropShadow_1" result="shape"/>
		</filter>
		<radialGradient id="paint_radial_108_6345_0" cx="0.000000" cy="0.000000" r="1.000000" gradientUnits="userSpaceOnUse" gradientTransform="translate(88.2175 39.4352) rotate(9.60304) scale(34.5708 46.5041)">
			<stop offset="0.102161" stop-color="#B37D16"/>
			<stop offset="0.806940" stop-color="#F8F497"/>
			<stop offset="1.000000" stop-color="#C4963D"/>
		</radialGradient>
		<linearGradient id="paint_linear_108_6345_1" x1="85.979492" y1="31.343988" x2="116.794991" y2="55.273346" gradientUnits="userSpaceOnUse">
			<stop stop-color="#F8F497"/>
			<stop offset="1.000000" stop-color="#B7851F"/>
		</linearGradient>
		<radialGradient id="paint_radial_108_6346_0" cx="0.000000" cy="0.000000" r="1.000000" gradientUnits="userSpaceOnUse" gradientTransform="translate(107.671 33.7541) rotate(95.6824) scale(17.3869 23.4689)">
			<stop stop-color="#AF4190"/>
			<stop offset="0.472281" stop-color="#610547"/>
			<stop offset="1.000000" stop-color="#220119"/>
		</radialGradient>
		<linearGradient id="paint_linear_108_6346_1" x1="92.435326" y1="33.754089" x2="118.086212" y2="52.604912" gradientUnits="userSpaceOnUse">
			<stop stop-color="#F2E586"/>
			<stop offset="0.546840" stop-color="#B37D16"/>
			<stop offset="0.990875" stop-color="#F7F395"/>
		</linearGradient>
		<linearGradient id="paint_linear_108_6347_0" x1="92.176750" y1="51.744133" x2="92.176750" y2="36.852844" gradientUnits="userSpaceOnUse">
			<stop offset="0.276042" stop-color="#B37D16"/>
			<stop offset="0.670000" stop-color="#F8F497"/>
			<stop offset="1.000000" stop-color="#DDB149"/>
		</linearGradient>
		<linearGradient id="paint_linear_108_6347_1" x1="104.917305" y1="36.852844" x2="104.917305" y2="51.313744" gradientUnits="userSpaceOnUse">
			<stop stop-color="#DDB149"/>
			<stop offset="1.000000" stop-color="#F8F497"/>
		</linearGradient>
	</defs>
	<rect id="ba" rx="47" ry="47" width="45.934223" height="45.934223" transform="translate(21.502441 24.127930) rotate(-0.000000)" fill="#00319C" fill-opacity="1.000000"/>
	<g clip-path="url(#clip108_6276)">
		<path id="Vector" d="M37.8228 54.3532C36.0452 54.3581 34.3135 53.7626 32.9182 52.6577C34.4915 49.1181 37.6851 44.3718 42.0439 39.7322C45.4312 41.8609 46.6982 46.1847 44.9929 49.8055C43.6074 49.1689 42.3198 48.3642 41.2246 47.3561L43.6133 51.8373C42.1165 53.4468 40.0181 54.3581 37.8228 54.3532ZM29.8987 46.434C29.8987 44.3357 30.7339 42.3195 32.2209 40.8322C33.7083 39.345 35.7197 38.5099 37.8228 38.5099C38.9941 38.5099 40.104 38.7701 41.113 39.2228C36.8196 43.0166 33.4941 47.4275 31.5239 51.2418C30.4697 49.8622 29.8997 48.1706 29.8997 46.434L29.8987 46.434ZM45.9924 50.2338C46.5427 49.0418 46.8274 47.7482 46.8274 46.435C46.8274 43.308 45.2288 40.5477 42.8037 38.9333C44.291 37.405 45.8496 35.954 47.4736 34.5792C45.5483 35.7203 43.7151 37.0139 41.999 38.4552C38.1689 36.4586 33.4639 37.4568 30.7749 40.8381C28.0908 44.2193 28.1877 49.032 31.0037 52.3066C29.2769 56.0399 28.9768 59.0388 30.4944 60.0479C32.1243 61.1323 35.658 59.1669 37.7817 55.9636C37.7817 55.9636 34.5022 58.9273 32.6943 58.2448C31.5845 57.8273 31.5845 56.1318 32.4958 53.6922C34.0388 54.8275 35.9084 55.4385 37.8228 55.4385C40.2927 55.4385 42.5232 54.4451 44.1482 52.8416L44.469 53.4429C48.3899 53.1221 60.1089 52.8161 60.1089 52.8161C60.1089 52.2509 52.3528 52.7604 45.9866 50.2338L45.9924 50.2338Z" fill="#FFFFFF" fill-opacity="1.000000" fill-rule="nonzero"/>
	</g>
	<rect id="ba" rx="47" ry="47" width="45.934223" height="45.934223" transform="translate(21.502441 24.127930) rotate(-0.000000)" stroke="#CDCCCC" stroke-opacity="1.000000" stroke-width="1.000000"/>
	<rect id="shield-antivirus-svgrepo-com 1" width="35.689922" height="35.689926" transform="matrix(-0.972708 0.232033 0.232033 0.972708 34.7158 19.7012)" fill="#FFFFFF" fill-opacity="0"/>
	<g clip-path="url(#clip108_6278)">
		<g filter="url(#filter_108_6279_dd)">
			<path id="Vector" d="M22.9949 55.2288L23.6062 54.4472C26.9585 50.1445 31.1292 44.7916 29.4182 37.6186L27.7878 30.7841L26.5818 31.0718C22.2271 32.1106 18.4897 30.9927 17.8882 28.4716L15.4761 29.047C16.0774 31.5681 13.2471 34.2527 8.89258 35.2914L7.68628 35.5792L9.31665 42.4136C11.0278 49.5867 17.1658 52.4805 22.0977 54.8058L22.9949 55.2288Z" fill="#D84025" fill-opacity="1.000000" fill-rule="nonzero"/>
		</g>
		<g filter="url(#filter_108_6280_dd)">
			<path id="Vector" d="M8.89233 35.2914C13.2471 34.2526 16.0774 31.5681 15.4761 29.047L16.6821 28.7593L22.9958 55.2274L22.9946 55.2288L22.0974 54.8058C17.1658 52.4805 11.0276 49.5867 9.31665 42.4136L7.68628 35.5792L8.89233 35.2914Z" fill="#A13023" fill-opacity="1.000000" fill-rule="nonzero"/>
		</g>
	</g>
	<rect id="helmet_red" width="30.570757" height="31.864920" transform="translate(31.929443 0.000000)" fill="#FFFFFF" fill-opacity="0"/>
	<g clip-path="url(#clip108_6281)">
		<g filter="url(#filter_108_6283_dd)">
			<path id="Vector" d="M54.4436 22.5884C54.7527 23.8439 55.0605 25.0985 55.3672 26.3521C52.543 27.9683 48.9771 28.8708 44.4976 28.8724L44.4976 23.6889L54.4436 22.5884Z" fill="#535353" fill-opacity="1.000000" fill-rule="evenodd"/>
			<path id="Vector" d="M34.5598 22.5884C34.2463 23.8439 33.9358 25.0985 33.6279 26.3521C36.4583 27.9683 40.0161 28.8708 44.4976 28.8724L44.4976 23.6889L34.5598 22.5884Z" fill="#676767" fill-opacity="1.000000" fill-rule="evenodd"/>
			<path id="Vector" d="M42.2742 9.07593C35.8218 3.36945 48.0227 3.91022 51.4614 1.01904C51.7041 1.2605 51.8479 1.55072 51.8752 1.85376C51.9023 2.15674 51.8118 2.45917 51.6143 2.72339C53.1409 3.67163 55.8242 2.37787 57.2793 4.19531C55.6304 4.12402 54.6265 4.61829 54.0142 5.27991C58.5364 4.75616 56.7671 7.9433 60.6321 8.12305C57.7527 9.34241 50.99 7.00128 46.8086 9.85059C44.9209 9.79791 44.1619 9.13324 42.2742 9.07593Z" fill="#A23023" fill-opacity="1.000000" fill-rule="evenodd"/>
			<path id="Vector" d="M60.6299 8.07031C57.7798 9.32965 51.0664 6.93005 46.9158 9.85059C46.1433 9.81775 45.3835 9.68408 44.6672 9.45514C50.0962 4.66058 54.9133 8.91675 60.6321 8.07031L60.6299 8.07031Z" fill="#1A1A1A" fill-opacity="1.000000" fill-rule="evenodd"/>
			<path id="Vector" d="M42.6509 8.59113C43.396 8.64917 44.127 8.78314 44.8232 8.9892L44.8723 9.0014C44.6292 8.72992 44.3901 8.45844 44.155 8.18695C42.0198 6.37048 46.5137 4.22156 49.2393 3.78076C50.2207 4.41522 51.7332 4.11481 52.5078 4.56012C51.8396 5.10004 51.4258 6.03345 50.7556 6.57336C58.4075 5.79858 54.9216 7.64093 58.5938 7.99786C58.3467 7.87286 58.1221 7.72473 57.9258 7.55707C56.6963 6.51233 56.8787 5.37152 54.1982 5.67657L52.7065 5.84583C52.9702 5.57336 53.2358 5.30139 53.5037 5.02991C54.1079 4.39929 55.0173 3.9679 56.0405 3.82654C55.8008 3.72211 55.5364 3.65222 55.2617 3.62061C55 3.59113 54.7356 3.57532 54.4709 3.57336C53.2781 3.552 52.1409 3.62213 51.1921 3.05176L50.8396 2.83673C50.9094 2.74213 50.981 2.64911 51.0444 2.55609C51.2031 2.34729 51.2698 2.10669 51.2351 1.86823C50.0056 2.56219 48.3047 3.02887 46.8477 3.41626C45.6941 3.72131 44.4829 4.02631 43.3887 4.40607C42.6162 4.67755 41.7493 5.05426 41.3394 5.56976C40.5957 6.53064 41.7451 7.77972 42.6509 8.59113Z" fill="#EF4123" fill-opacity="1.000000" fill-rule="evenodd"/>
			<path id="Vector" d="M43.7261 8.71741C44.1138 8.79333 44.4961 8.88403 44.8716 8.98914L44.9207 9.0014C44.6782 8.72821 44.4402 8.45496 44.2058 8.18176C42.0781 6.35364 46.5564 4.19092 49.2722 3.74731C50.2502 4.38586 51.7573 4.0835 52.5293 4.53168C51.8635 5.07507 51.4512 6.0144 50.7834 6.5578C58.4082 5.77808 54.9348 7.63226 58.5942 7.99139C56.689 7.61841 56.7236 6.27075 55.6414 5.9469C54.5591 5.62305 53.1296 6.36902 52.0393 6.0451C52.1536 5.42041 52.6702 4.91235 53.4216 4.13721C52.3782 3.6629 49.7461 4.08655 50.2932 2.71741C47.9509 4.65912 40.4058 3.8548 43.2686 8.55011L43.7261 8.71741Z" fill="#D03927" fill-opacity="1.000000" fill-rule="evenodd"/>
			<path id="Vector" d="M47.8943 10.445C47.8943 11.7113 46.3354 12.7379 44.4126 12.7379C42.4897 12.7379 40.9309 11.7113 40.9309 10.445C40.9309 9.17877 42.4897 8.15222 44.4126 8.15222C46.3354 8.15222 47.8943 9.17877 47.8943 10.445Z" fill="#CDCCCC" fill-opacity="1.000000" fill-rule="evenodd"/>
			<path id="Vector" d="M44.428 10.5299C48.793 10.5299 52.5227 12.2605 54.0144 14.7017C54.8159 14.959 55.3669 15.4889 55.3669 16.0954C55.363 16.297 55.3022 16.4957 55.1885 16.6786C55.0747 16.8615 54.9109 17.0244 54.7073 17.1567C54.6333 20.7266 50.0593 23.6074 44.428 23.6074C38.7964 23.6074 34.2388 20.7328 34.1528 17.1721C33.9399 17.0392 33.7678 16.8738 33.6479 16.687C33.5281 16.5002 33.4634 16.2964 33.458 16.0892C33.458 15.4767 34.0278 14.936 34.8474 14.6833C36.3455 12.2482 40.0691 10.5299 44.428 10.5299Z" fill="#8B8A8A" fill-opacity="1.000000" fill-rule="evenodd"/>
			<path id="Vector" d="M42.7991 20.2107C46.637 20.2107 49.7625 18.2312 49.7625 15.7949C49.7625 13.3586 46.6309 11.3792 42.7991 11.3792C38.967 11.3792 35.8357 13.3586 35.8357 15.7949C35.8357 18.2312 38.959 20.2107 42.7991 20.2107Z" fill="#989898" fill-opacity="1.000000" fill-rule="evenodd"/>
			<path id="Vector" d="M40.676 15.2853C42.1267 15.2853 43.3083 14.5219 43.3083 13.587C43.3083 12.6521 42.1267 11.8886 40.676 11.8886C39.2251 11.8886 38.0435 12.6505 38.0435 13.587C38.0435 14.5234 39.2373 15.2853 40.676 15.2853Z" fill="#ACACAC" fill-opacity="1.000000" fill-rule="evenodd"/>
			<path id="Vector" d="M44.4976 14.2665L44.3979 14.2665C43.0095 14.2611 41.6313 14.4487 40.3311 14.8201L32.7788 16.9646L32.7788 23.3547C36.0833 26.2792 39.9365 28.5695 44.4976 30.0613L44.4976 14.2665Z" fill="#CDCCCC" fill-opacity="1.000000" fill-rule="evenodd"/>
			<path id="Vector" d="M42.7991 15.2854C42.1973 15.3616 41.6069 15.484 41.0364 15.6509L39.5886 16.0679L39.5886 26.7622C40.6104 27.3513 41.6824 27.886 42.7971 28.3629L42.7971 15.2854L42.7991 15.2854ZM38.9087 16.2639L36.6567 16.9125L36.6567 24.8458C37.3687 25.37 38.1187 25.8771 38.9087 26.3594L38.9087 16.2639ZM35.979 17.1069L34.4771 17.5394L34.4771 23.0865C34.9583 23.5096 35.459 23.9244 35.979 24.3309L35.979 17.1069Z" fill="#333333" fill-opacity="1.000000" fill-rule="evenodd"/>
			<path id="Vector" d="M44.4976 14.2664L44.5972 14.2664C45.9822 14.262 47.3569 14.4496 48.6541 14.82L56.2163 16.963L56.2163 23.3532C52.9099 26.2792 49.0566 28.5695 44.4976 30.0613L44.4976 14.2664Z" fill="#B4B4B4" fill-opacity="1.000000" fill-rule="evenodd"/>
			<path id="Vector" d="M46.1958 15.2854C46.8098 15.3618 47.4126 15.4842 47.9949 15.6509L49.4727 16.0679L49.4727 26.7622C48.4294 27.351 47.3354 27.8857 46.1978 28.3629L46.1978 15.2854L46.1958 15.2854ZM50.1665 16.2639L52.4629 16.9125L52.4629 24.8458C51.7383 25.37 50.9729 25.8771 50.1665 26.3594L50.1665 16.2639ZM53.1567 17.1069L54.6877 17.5394L54.6877 23.0865C54.1978 23.5096 53.6875 23.9244 53.1567 24.3309L53.1567 17.1069Z" fill="#1A1A1A" fill-opacity="1.000000" fill-rule="evenodd"/>
			<path id="Vector" d="M43.5339 8.66174C44.1858 8.66174 44.4985 8.96661 44.2332 9.34106C44.0652 9.54108 43.8242 9.70856 43.5332 9.82751C43.2424 9.94647 42.9114 10.0129 42.5715 10.0204C41.9219 10.0204 41.6091 9.71698 41.8745 9.34106C42.0427 9.14148 42.2832 8.97424 42.5737 8.85535C42.8643 8.73645 43.1948 8.6698 43.5339 8.66174Z" fill="#E3E3E3" fill-opacity="1.000000" fill-rule="evenodd"/>
		</g>
	</g>
	<rect id="sword_red" width="28.884270" height="51.868382" transform="translate(59.613037 0.000000)" fill="#FFFFFF" fill-opacity="0"/>
	<g clip-path="url(#clip108_6299)">
		<g filter="url(#filter_108_6301_dd)">
			<path id="Vector" d="M60.009 47.2835L60.145 47.3539C60.2993 47.4366 60.4707 47.4818 60.6458 47.4855C60.8208 47.4893 60.9941 47.4517 61.1519 47.3757C61.3115 47.3045 61.4521 47.1966 61.5625 47.0608C61.6729 46.925 61.7495 46.7651 61.7864 46.5942C62.0991 45.228 62.7244 43.5585 63.6138 41.8343C64.5034 40.1101 65.5022 38.6345 66.4277 37.5887C66.5437 37.4584 66.6284 37.3033 66.675 37.1353C66.7219 36.9673 66.7297 36.7908 66.698 36.6193C66.666 36.4478 66.5955 36.2859 66.4915 36.1459C66.3875 36.0059 66.2529 35.8914 66.0979 35.8114L65.9602 35.7411L66.5261 34.6469L69.1838 36.0162L71.8413 37.384L71.2754 38.4782L71.1394 38.4078C70.9836 38.3264 70.8113 38.2819 70.6357 38.2777C70.46 38.2736 70.2856 38.31 70.1265 38.3841C69.967 38.4581 69.8269 38.5679 69.7168 38.7048C69.6067 38.8418 69.5298 39.0023 69.4917 39.1738C69.179 40.5385 68.5537 42.2095 67.6643 43.9321C66.7747 45.6547 65.7759 47.1319 64.8503 48.1777C64.7344 48.3081 64.6499 48.4633 64.603 48.6314C64.5562 48.7996 64.5483 48.9761 64.5801 49.1478C64.6121 49.3194 64.6826 49.4814 64.7866 49.6216C64.8906 49.7618 65.0251 49.8763 65.1802 49.9565L65.3179 50.0269L64.752 51.1211L62.0945 49.7533L59.4431 48.3793L60.009 47.2835Z" fill="#CA3927" fill-opacity="1.000000" fill-rule="evenodd"/>
			<path id="Vector" d="M66.7737 38.234C67.2122 38.4626 66.6033 40.5413 65.4124 42.8737C64.2212 45.2061 62.8999 46.9135 62.4695 46.6848C62.0388 46.4561 62.6399 44.3774 63.8308 42.045C65.022 39.7126 66.3354 38.0053 66.7737 38.234Z" fill="#F04B23" fill-opacity="1.000000" fill-rule="evenodd"/>
			<path id="Vector" d="M86.1077 3.39673L84.6833 11.4454L71.3965 37.1944L67.0859 34.9697L80.3728 9.2207L86.1077 3.39673Z" fill="#D1D2D2" fill-opacity="1.000000" fill-rule="evenodd"/>
			<path id="Vector" d="M81.8081 7.74432L84.0703 6.27112L83.2749 11.0728L71.3318 37.1944L84.677 11.4454L86.1077 3.39673L81.8081 7.74432Z" fill="#E6E6E5" fill-opacity="1.000000" fill-rule="evenodd"/>
			<path id="Vector" d="M82.3713 10.6998L76.0933 23.5217L69.814 36.3452L69.1284 35.9965L68.4446 35.6477L75.408 23.1745L82.3713 10.6998Z" fill="#818181" fill-opacity="1.000000" fill-rule="evenodd"/>
			<path id="Vector" d="M65.7727 33.4233L73.3723 37.3669C73.7629 37.084 74.2371 36.9418 74.718 36.9631C75.1992 36.9844 75.6589 37.168 76.0234 37.4843C76.3879 37.8005 76.636 38.231 76.7275 38.7064C76.8191 39.1817 76.7485 39.6742 76.5278 40.1044C76.3069 40.5346 75.9482 40.8774 75.51 41.0777C75.0715 41.2779 74.5789 41.3238 74.1116 41.208C73.644 41.0922 73.229 40.8215 72.9331 40.4394C72.6375 40.0573 72.4783 39.5862 72.4814 39.1021L64.8818 35.1585C64.4905 35.4421 64.0156 35.585 63.5339 35.5639C63.052 35.5428 62.5913 35.3592 62.2261 35.0425C61.8606 34.7258 61.6121 34.2946 61.5203 33.8185C61.4287 33.3423 61.499 32.8489 61.7205 32.418C61.9417 31.987 62.3008 31.6436 62.74 31.4431C63.1792 31.2426 63.6726 31.1968 64.1409 31.3129C64.6091 31.4291 65.0249 31.7006 65.321 32.0834C65.6169 32.4663 65.7761 32.9384 65.7727 33.4233Z" fill="#333333" fill-opacity="1.000000" fill-rule="evenodd"/>
		</g>
	</g>
	<g filter="url(#filter_108_6308_dd)">
		<path id="The Boeing Company" d="M8.14055 75.922L8.14055 83.806L7.22855 83.806L7.22855 75.922L4.30055 75.922L4.30055 75.058L11.0685 75.058L11.0685 75.922L8.14055 75.922ZM17.4587 83.806L16.5827 83.806L16.5827 80.338C16.5827 79.786 16.4427 79.346 16.1627 79.018C15.8827 78.69 15.4747 78.526 14.9387 78.526C14.4187 78.526 13.9907 78.706 13.6547 79.066C13.3267 79.434 13.1627 79.882 13.1627 80.41L13.1627 83.806L12.2867 83.806L12.2867 74.71L13.1627 74.71L13.1627 78.91C13.6267 78.126 14.3067 77.734 15.2027 77.734C15.9067 77.734 16.4627 77.95 16.8707 78.382C17.2627 78.838 17.4587 79.418 17.4587 80.122L17.4587 83.806ZM24.6211 81.094L19.7971 81.094C19.8291 81.678 20.0491 82.162 20.4571 82.546C20.8571 82.938 21.3491 83.134 21.9331 83.134C22.3891 83.134 22.7771 83.026 23.0971 82.81C23.4171 82.586 23.6451 82.27 23.7811 81.862L24.5491 82.102C24.3811 82.662 24.0571 83.106 23.5771 83.434C23.0811 83.754 22.5371 83.914 21.9451 83.914C21.3851 83.914 20.8691 83.774 20.3971 83.494C19.9251 83.214 19.5651 82.838 19.3171 82.366C19.0531 81.902 18.9211 81.386 18.9211 80.818C18.9211 80.274 19.0451 79.77 19.2931 79.306C19.5251 78.834 19.8731 78.454 20.3371 78.166C20.7851 77.878 21.2811 77.734 21.8251 77.734C22.4251 77.734 22.9371 77.87 23.3611 78.142C23.7931 78.406 24.1131 78.77 24.3211 79.234C24.5291 79.674 24.6331 80.198 24.6331 80.806C24.6331 80.91 24.6291 81.006 24.6211 81.094ZM19.8091 80.35L23.7571 80.35C23.7011 79.806 23.5011 79.358 23.1571 79.006C22.8211 78.67 22.3771 78.502 21.8251 78.502C21.3211 78.502 20.8771 78.682 20.4931 79.042C20.1091 79.418 19.8811 79.854 19.8091 80.35ZM32.7475 83.806L29.4835 83.806L29.4835 75.058L32.6275 75.058C33.4435 75.042 34.1155 75.234 34.6435 75.634C35.1795 76.026 35.4475 76.566 35.4475 77.254C35.4475 77.486 35.4075 77.726 35.3275 77.974C35.2795 78.126 35.2075 78.278 35.1115 78.43C34.8875 78.782 34.5555 79.058 34.1155 79.258C34.7315 79.418 35.1835 79.734 35.4715 80.206C35.7115 80.606 35.8315 81.006 35.8315 81.406C35.8315 82.222 35.5235 82.834 34.9075 83.242C34.3235 83.618 33.6035 83.806 32.7475 83.806ZM32.5555 75.898L30.3955 75.898L30.3955 78.946L32.4835 78.946C33.1715 78.946 33.6795 78.798 34.0075 78.502C34.3435 78.206 34.5115 77.826 34.5115 77.362C34.5115 76.866 34.3235 76.498 33.9475 76.258C33.5715 76.018 33.1075 75.898 32.5555 75.898ZM32.5915 79.762L30.3955 79.762L30.3955 82.966L32.7715 82.966C33.3395 82.966 33.8355 82.838 34.2595 82.582C34.6835 82.318 34.8955 81.906 34.8955 81.346C34.8955 80.674 34.5435 80.214 33.8395 79.966C33.4875 79.83 33.0715 79.762 32.5915 79.762ZM40.0632 83.914C39.5112 83.914 38.9952 83.778 38.5152 83.506C38.0432 83.226 37.6752 82.854 37.4112 82.39C37.1392 81.926 37.0032 81.41 37.0032 80.842C37.0032 79.954 37.2992 79.218 37.8912 78.634C38.4832 78.034 39.2152 77.734 40.0872 77.734C40.9352 77.718 41.6632 78.018 42.2712 78.634C42.8872 79.242 43.1872 79.966 43.1712 80.806C43.1872 81.67 42.8872 82.41 42.2712 83.026C41.6552 83.634 40.9192 83.93 40.0632 83.914ZM40.0872 83.134C40.7112 83.134 41.2352 82.91 41.6592 82.462C42.0672 82.014 42.2712 81.474 42.2712 80.842C42.2712 80.202 42.0632 79.65 41.6472 79.186C41.2232 78.73 40.6952 78.502 40.0632 78.502C39.4312 78.502 38.9112 78.726 38.5032 79.174C38.0952 79.622 37.8912 80.166 37.8912 80.806C37.8752 81.438 38.0792 81.986 38.5032 82.45C38.9352 82.914 39.4632 83.142 40.0872 83.134ZM49.9688 81.094L45.1448 81.094C45.1768 81.678 45.3968 82.162 45.8048 82.546C46.2048 82.938 46.6968 83.134 47.2808 83.134C47.7368 83.134 48.1248 83.026 48.4448 82.81C48.7648 82.586 48.9928 82.27 49.1288 81.862L49.8968 82.102C49.7288 82.662 49.4048 83.106 48.9248 83.434C48.4288 83.754 47.8848 83.914 47.2928 83.914C46.7328 83.914 46.2168 83.774 45.7448 83.494C45.2728 83.214 44.9128 82.838 44.6648 82.366C44.4008 81.902 44.2688 81.386 44.2688 80.818C44.2688 80.274 44.3928 79.77 44.6408 79.306C44.8728 78.834 45.2208 78.454 45.6848 78.166C46.1328 77.878 46.6288 77.734 47.1728 77.734C47.7728 77.734 48.2848 77.87 48.7088 78.142C49.1408 78.406 49.4608 78.77 49.6688 79.234C49.8768 79.674 49.9808 80.198 49.9808 80.806C49.9808 80.91 49.9768 81.006 49.9688 81.094ZM45.1568 80.35L49.1048 80.35C49.0488 79.806 48.8488 79.358 48.5048 79.006C48.1688 78.67 47.7248 78.502 47.1728 78.502C46.6688 78.502 46.2248 78.682 45.8408 79.042C45.4568 79.418 45.2288 79.854 45.1568 80.35ZM51.462 76.174C51.334 76.03 51.27 75.874 51.27 75.706C51.27 75.538 51.334 75.382 51.462 75.238C51.59 75.11 51.746 75.046 51.93 75.046C52.106 75.046 52.258 75.11 52.386 75.238C52.514 75.366 52.578 75.522 52.578 75.706C52.578 75.89 52.514 76.046 52.386 76.174C52.258 76.302 52.106 76.366 51.93 76.366C51.746 76.366 51.59 76.302 51.462 76.174ZM51.486 83.806L51.486 77.842L52.362 77.842L52.362 83.806L51.486 83.806ZM59.5056 83.806L58.6296 83.806L58.6296 80.338C58.6296 79.786 58.4896 79.346 58.2096 79.018C57.9296 78.69 57.5216 78.526 56.9856 78.526C56.4656 78.526 56.0376 78.706 55.7016 79.066C55.3736 79.434 55.2096 79.882 55.2096 80.41L55.2096 83.806L54.3336 83.806L54.3336 77.842L55.1856 77.842L55.1856 78.934C55.6656 78.134 56.3536 77.734 57.2496 77.734C57.9536 77.734 58.5096 77.95 58.9176 78.382C59.3096 78.838 59.5056 79.418 59.5056 80.122L59.5056 83.806ZM66.08 83.722L66.08 82.474C65.544 83.378 64.776 83.83 63.776 83.83C63.232 83.83 62.74 83.69 62.3 83.41C61.876 83.138 61.548 82.77 61.316 82.306C61.092 81.85 60.98 81.346 60.98 80.794C60.98 80.258 61.092 79.762 61.316 79.306C61.548 78.842 61.88 78.466 62.312 78.178C62.736 77.882 63.224 77.734 63.776 77.734C64.32 77.734 64.796 77.874 65.204 78.154C65.524 78.378 65.82 78.69 66.092 79.09L66.092 77.842L66.956 77.842L66.956 83.662C66.956 84.678 66.676 85.454 66.116 85.99C65.54 86.526 64.784 86.794 63.848 86.794C63.112 86.794 62.48 86.598 61.952 86.206C61.424 85.798 61.108 85.31 61.004 84.742L61.796 84.478C61.892 84.87 62.104 85.226 62.432 85.546C62.768 85.866 63.236 86.026 63.836 86.026C64.476 86.026 65 85.85 65.408 85.498C65.856 85.13 66.08 84.538 66.08 83.722ZM63.956 83.062C64.572 83.062 65.08 82.838 65.48 82.39C65.888 81.942 66.092 81.406 66.092 80.782C66.108 80.19 65.904 79.662 65.48 79.198C65.056 78.734 64.548 78.506 63.956 78.514C63.308 78.514 62.8 78.73 62.432 79.162C62.056 79.586 61.868 80.134 61.868 80.806C61.852 81.438 62.04 81.974 62.432 82.414C62.824 82.854 63.332 83.07 63.956 83.062ZM13.6399 96.902C12.4159 96.902 11.3839 96.49 10.5439 95.666C10.1519 95.274 9.84387 94.806 9.61987 94.262C9.38787 93.686 9.27188 93.086 9.27188 92.462C9.27188 91.806 9.39188 91.198 9.63188 90.638C9.87988 90.062 10.1959 89.586 10.5799 89.21C11.4359 88.378 12.4679 87.962 13.6759 87.962C14.5879 87.962 15.3639 88.186 16.0039 88.634C16.2759 88.81 16.5319 89.034 16.7719 89.306C17.1719 89.77 17.4439 90.282 17.5879 90.842L16.7119 91.154C16.6239 90.818 16.4519 90.466 16.1959 90.098C16.0119 89.85 15.8239 89.646 15.6319 89.486C15.4079 89.294 15.1279 89.142 14.7919 89.03C14.4559 88.902 14.0759 88.838 13.6519 88.838C12.7079 88.838 11.9079 89.166 11.2519 89.822C10.5719 90.502 10.2319 91.362 10.2319 92.402C10.2319 93.098 10.3799 93.718 10.6759 94.262C10.9639 94.814 11.3759 95.246 11.9119 95.558C12.4239 95.87 13.0079 96.026 13.6639 96.026C14.4319 96.026 15.0719 95.822 15.5839 95.414C15.8159 95.238 16.0079 95.038 16.1599 94.814C16.3119 94.614 16.4359 94.414 16.5319 94.214C16.6119 94.022 16.6799 93.846 16.7359 93.686L17.6119 93.998C17.4679 94.518 17.1999 95.014 16.8079 95.486C16.5999 95.734 16.3479 95.97 16.0519 96.194C15.3879 96.666 14.5839 96.902 13.6399 96.902ZM21.6589 96.914C21.1069 96.914 20.5909 96.778 20.1109 96.506C19.6389 96.226 19.2709 95.854 19.0069 95.39C18.7349 94.926 18.5989 94.41 18.5989 93.842C18.5989 92.954 18.8949 92.218 19.4869 91.634C20.0789 91.034 20.8109 90.734 21.6829 90.734C22.5309 90.718 23.2589 91.018 23.8669 91.634C24.4829 92.242 24.7829 92.966 24.7669 93.806C24.7829 94.67 24.4829 95.41 23.8669 96.026C23.2509 96.634 22.5149 96.93 21.6589 96.914ZM21.6829 96.134C22.3069 96.134 22.8309 95.91 23.2549 95.462C23.6629 95.014 23.8669 94.474 23.8669 93.842C23.8669 93.202 23.6589 92.65 23.2429 92.186C22.8189 91.73 22.2909 91.502 21.6589 91.502C21.0269 91.502 20.5069 91.726 20.0989 92.174C19.6909 92.622 19.4869 93.166 19.4869 93.806C19.4709 94.438 19.6749 94.986 20.0989 95.45C20.5309 95.914 21.0589 96.142 21.6829 96.134ZM31.2165 96.806L30.3645 96.806L30.3645 93.302C30.3645 92.79 30.2365 92.362 29.9805 92.018C29.7165 91.69 29.3325 91.526 28.8285 91.526C28.3165 91.526 27.9125 91.71 27.6165 92.078C27.3205 92.446 27.1725 92.89 27.1725 93.41L27.1725 96.806L26.2965 96.806L26.2965 90.842L27.1485 90.842L27.1485 91.874C27.4125 91.482 27.6965 91.194 28.0005 91.01C28.3045 90.826 28.6645 90.734 29.0805 90.734C29.9845 90.734 30.6205 91.134 30.9885 91.934C31.4925 91.134 32.1925 90.734 33.0885 90.734C33.7845 90.734 34.3285 90.954 34.7205 91.394C35.0965 91.834 35.2845 92.41 35.2845 93.122L35.2845 96.806L34.4205 96.806L34.4205 93.338C34.4205 92.794 34.2925 92.358 34.0365 92.03C33.7725 91.694 33.3845 91.526 32.8725 91.526C32.3765 91.526 31.9765 91.706 31.6725 92.066C31.3685 92.418 31.2165 92.854 31.2165 93.374L31.2165 96.806ZM43.1592 93.818C43.1592 94.362 43.0432 94.866 42.8112 95.33C42.5792 95.794 42.2512 96.17 41.8272 96.458C41.3952 96.746 40.9032 96.89 40.3512 96.89C39.3752 96.89 38.6112 96.454 38.0592 95.582L38.0592 99.746L37.1832 99.746L37.1832 90.842L38.0352 90.842L38.0352 92.138C38.6512 91.202 39.4232 90.734 40.3512 90.734C41.1992 90.734 41.8832 91.054 42.4032 91.694C42.9072 92.318 43.1592 93.026 43.1592 93.818ZM40.1832 96.134C40.8072 96.134 41.3152 95.914 41.7072 95.474C42.0832 95.026 42.2712 94.482 42.2712 93.842C42.2712 92.938 41.9472 92.27 41.2992 91.838C40.9872 91.622 40.6152 91.514 40.1832 91.514C39.5912 91.506 39.0832 91.734 38.6592 92.198C38.2352 92.662 38.0312 93.198 38.0472 93.806C38.0472 94.446 38.2472 94.99 38.6472 95.438C39.0552 95.902 39.5672 96.134 40.1832 96.134ZM46.6389 93.362L48.2949 93.362L48.2949 92.966C48.2949 91.998 47.7869 91.514 46.7709 91.514C46.2829 91.514 45.9069 91.646 45.6429 91.91C45.4029 92.15 45.2589 92.422 45.2109 92.726L44.3709 92.546C44.3789 92.378 44.4589 92.166 44.6109 91.91C44.7629 91.654 44.9629 91.426 45.2109 91.226C45.6349 90.898 46.1629 90.734 46.7949 90.734C47.8829 90.734 48.6069 91.146 48.9669 91.97C49.0869 92.25 49.1469 92.578 49.1469 92.954L49.1469 94.634C49.1469 95.61 49.1789 96.334 49.2429 96.806L48.3789 96.806C48.3229 96.502 48.2949 96.154 48.2949 95.762C47.7909 96.53 47.1189 96.914 46.2789 96.914C45.6789 96.914 45.1989 96.746 44.8389 96.41C44.4629 96.082 44.2749 95.662 44.2749 95.15L44.2749 95.09C44.2749 94.498 44.5109 94.062 44.9829 93.782C45.4629 93.502 46.0149 93.362 46.6389 93.362ZM48.2949 94.286L48.2949 94.082L46.6269 94.082C46.2589 94.082 45.9349 94.15 45.6549 94.286C45.3189 94.43 45.1509 94.694 45.1509 95.078C45.1509 95.406 45.2749 95.666 45.5229 95.858C45.7629 96.05 46.0669 96.146 46.4349 96.146C46.9549 96.146 47.3989 95.97 47.7669 95.618C48.1189 95.282 48.2949 94.838 48.2949 94.286ZM56.2185 96.806L55.3425 96.806L55.3425 93.338C55.3425 92.786 55.2025 92.346 54.9225 92.018C54.6425 91.69 54.2345 91.526 53.6985 91.526C53.1785 91.526 52.7505 91.706 52.4145 92.066C52.0865 92.434 51.9225 92.882 51.9225 93.41L51.9225 96.806L51.0465 96.806L51.0465 90.842L51.8985 90.842L51.8985 91.934C52.3785 91.134 53.0665 90.734 53.9625 90.734C54.6665 90.734 55.2225 90.95 55.6305 91.382C56.0225 91.838 56.2185 92.418 56.2185 93.122L56.2185 96.806ZM59.0473 99.746L58.0993 99.746L59.6473 96.398L56.9353 90.842L57.9313 90.842L60.1153 95.45L62.1913 90.842L63.1273 90.842L59.0473 99.746Z" fill="#FFFFFF" fill-opacity="1.000000" fill-rule="evenodd"/>
	</g>
	<rect id="lockheed" rx="47" ry="47" width="45.934223" height="45.934223" transform="translate(143.580078 24.127930)" fill="#003E69" fill-opacity="1.000000"/>
	<g clip-path="url(#clip108_6310)">
		<path id="Layer" d="M174.158 34.5792C174.076 35.0004 173.939 35.4096 173.828 35.8228C173.038 38.6423 172.266 41.4659 171.516 44.2956C175.073 44.3016 178.633 44.2855 182.192 44.3036C178.066 46.2465 173.959 48.2317 169.9 50.3076C169.098 53.3287 168.243 56.3358 167.395 59.3448C167.913 56.4587 168.489 53.5847 169.033 50.7047C166.274 52.0993 163.537 53.5303 160.796 54.9552C157.499 56.6763 154.194 58.3854 150.904 60.1227L150.902 60.0381L150.902 59.8909C157.017 56.4265 163.144 52.9821 169.261 49.5196C169.509 48.2055 169.767 46.8935 170.009 45.5774C168.34 45.5532 166.673 45.4887 165.002 45.4605C163.041 47.226 161.108 49.0298 159.127 50.7752C160.744 48.9754 162.372 47.1857 164.041 45.4343C160.427 45.3376 156.812 45.257 153.198 45.1582C152.434 45.1542 151.664 45.0897 150.902 45.13L150.902 44.3198C155.635 44.3198 160.365 44.2996 165.095 44.2976C168.11 41.0508 171.135 37.816 174.158 34.5792ZM166.496 44.1001C166.429 44.1586 166.373 44.2291 166.316 44.2976C167.632 44.2936 168.947 44.2976 170.262 44.2956C170.537 42.8405 170.819 41.3873 171.093 39.9322C169.551 41.3127 168.031 42.7155 166.496 44.1001ZM171.135 45.6157C170.841 46.7363 170.535 47.8549 170.23 48.9734C172.151 47.8992 174.058 46.7988 175.986 45.7386C174.37 45.6862 172.751 45.652 171.135 45.6157Z" fill="#FFFFFF" fill-opacity="1.000000" fill-rule="evenodd"/>
	</g>
	<rect id="lockheed" rx="47" ry="47" width="45.934223" height="45.934223" transform="translate(143.580078 24.127930)" stroke="#CDCCCC" stroke-opacity="1.000000" stroke-width="1.000000"/>
	<rect id="shield-antivirus-svgrepo-com 1" width="35.825710" height="35.825710" transform="translate(177.151855 19.739014) rotate(-13.416809)" fill="#FFFFFF" fill-opacity="0"/>
	<g clip-path="url(#clip108_6313)">
		<g filter="url(#filter_108_6314_dd)">
			<path id="Vector" d="M188.918 55.4019L188.304 54.6172C184.939 50.2982 180.752 44.9249 182.47 37.7246L184.107 30.8641L185.317 31.153C189.688 32.1957 193.44 31.0736 194.044 28.5428L196.465 29.1204C195.862 31.6512 198.703 34.3459 203.074 35.3887L204.284 35.6774L202.648 42.538C200.93 49.7382 194.769 52.6431 189.819 54.9773L188.918 55.4019Z" fill="#7AB9E8" fill-opacity="1.000000" fill-rule="nonzero"/>
		</g>
		<g filter="url(#filter_108_6315_dd)">
			<path id="Vector" d="M203.074 35.3887C198.702 34.3459 195.861 31.6512 196.465 29.1205L195.254 28.8317L188.917 55.4005L188.918 55.4019L189.818 54.9773C194.769 52.6431 200.93 49.7383 202.648 42.538L204.284 35.6775L203.074 35.3887Z" fill="#579ADF" fill-opacity="1.000000" fill-rule="nonzero"/>
		</g>
	</g>
	<rect id="helmet_red" width="30.687067" height="31.986153" transform="matrix(-1 0 0 1 179.748 0)" fill="#FFFFFF" fill-opacity="0"/>
	<g clip-path="url(#clip108_6316)">
		<g filter="url(#filter_108_6318_dd)">
			<path id="Vector" d="M157.148 22.6743C156.838 23.9347 156.529 25.194 156.221 26.4523C159.056 28.0747 162.635 28.9807 167.132 28.9822L167.132 23.7791L157.148 22.6743Z" fill="#535353" fill-opacity="1.000000" fill-rule="evenodd"/>
			<path id="Vector" d="M177.107 22.6743C177.422 23.9347 177.733 25.194 178.042 26.4523C175.201 28.0747 171.63 28.9807 167.132 28.9822L167.132 23.7791L177.107 22.6743Z" fill="#676767" fill-opacity="1.000000" fill-rule="evenodd"/>
			<path id="Vector" d="M169.363 9.11041C175.84 3.38226 163.593 3.92505 160.141 1.02289C159.897 1.26526 159.753 1.55658 159.726 1.86078C159.698 2.16492 159.79 2.46851 159.988 2.7337C158.455 3.68555 155.762 2.3869 154.301 4.21124C155.956 4.13971 156.964 4.6358 157.579 5.29993C153.039 4.77423 154.815 7.97345 150.936 8.15387C153.826 9.37793 160.615 7.02789 164.812 9.88806C166.706 9.83514 167.469 9.16797 169.363 9.11041Z" fill="#1B2241" fill-opacity="1.000000" fill-rule="evenodd"/>
			<path id="Vector" d="M150.938 8.10101C153.799 9.36517 160.538 6.95642 164.704 9.88806C165.479 9.8551 166.242 9.72095 166.961 9.49115C161.511 4.67834 156.676 8.95068 150.936 8.10101L150.938 8.10101Z" fill="#1A1A1A" fill-opacity="1.000000" fill-rule="evenodd"/>
			<path id="Vector" d="M168.985 8.62378C168.237 8.68207 167.504 8.81653 166.805 9.02338L166.755 9.03564C167 8.76312 167.24 8.4906 167.475 8.21808C169.619 6.39471 165.108 4.23761 162.372 3.7951C161.387 4.43201 159.869 4.13043 159.091 4.57745C159.761 5.11945 160.177 6.0564 160.85 6.59833C153.169 5.82062 156.668 7.66998 152.982 8.02826C153.23 7.90277 153.455 7.75409 153.652 7.58582C154.886 6.53711 154.703 5.39191 157.394 5.69812L158.891 5.86804C158.627 5.59454 158.36 5.32153 158.091 5.04901C157.485 4.41602 156.572 3.98297 155.545 3.84106C155.785 3.73621 156.051 3.66608 156.326 3.6344C156.589 3.6048 156.854 3.58893 157.12 3.58691C158.318 3.56549 159.459 3.63593 160.412 3.06335L160.765 2.84747C160.696 2.75256 160.624 2.65918 160.56 2.5658C160.4 2.35614 160.333 2.11469 160.368 1.87531C161.603 2.5719 163.31 3.04034 164.772 3.42926C165.931 3.73541 167.146 4.04163 168.245 4.42285C169.02 4.69531 169.89 5.07349 170.302 5.59094C171.048 6.55548 169.895 7.80933 168.985 8.62378Z" fill="#4386BB" fill-opacity="1.000000" fill-rule="evenodd"/>
			<path id="Vector" d="M167.906 8.75055C167.517 8.82678 167.133 8.91779 166.756 9.02332L166.707 9.03564C166.95 8.76135 167.189 8.48712 167.425 8.21283C169.561 6.37781 165.065 4.20685 162.339 3.7616C161.357 4.40253 159.844 4.099 159.07 4.54889C159.738 5.09436 160.152 6.03729 160.822 6.5827C153.168 5.79999 156.655 7.66125 152.982 8.02179C154.894 7.6474 154.859 6.29462 155.946 5.96948C157.032 5.64441 158.467 6.39319 159.562 6.06812C159.447 5.44104 158.928 4.93103 158.174 4.15295C159.221 3.67682 161.864 4.10211 161.314 2.72772C163.665 4.67682 171.239 3.86945 168.365 8.58264L167.906 8.75055Z" fill="#283A84" fill-opacity="1.000000" fill-rule="evenodd"/>
			<path id="Vector" d="M163.722 10.4847C163.722 11.7559 165.287 12.7863 167.217 12.7863C169.147 12.7863 170.712 11.7559 170.712 10.4847C170.712 9.21368 169.147 8.18323 167.217 8.18323C165.287 8.18323 163.722 9.21368 163.722 10.4847Z" fill="#CDCCCC" fill-opacity="1.000000" fill-rule="evenodd"/>
			<path id="Vector" d="M167.201 10.57C162.82 10.57 159.076 12.3072 157.578 14.7577C156.774 15.0159 156.221 15.5479 156.221 16.1567C156.225 16.3591 156.286 16.5585 156.4 16.7421C156.514 16.9257 156.679 17.0892 156.883 17.222C156.957 20.8055 161.549 23.6973 167.201 23.6973C172.854 23.6973 177.429 20.8117 177.516 17.2374C177.729 17.1041 177.902 16.938 178.022 16.7505C178.143 16.563 178.208 16.3584 178.213 16.1505C178.213 15.5356 177.641 14.9929 176.818 14.7393C175.315 12.2949 171.577 10.57 167.201 10.57Z" fill="#8B8A8A" fill-opacity="1.000000" fill-rule="evenodd"/>
			<path id="Vector" d="M168.837 20.2876C164.984 20.2876 161.847 18.3005 161.847 15.855C161.847 13.4094 164.99 11.4224 168.837 11.4224C172.683 11.4224 175.826 13.4094 175.826 15.855C175.826 18.3005 172.691 20.2876 168.837 20.2876Z" fill="#989898" fill-opacity="1.000000" fill-rule="evenodd"/>
			<path id="Vector" d="M170.968 15.3435C169.511 15.3435 168.325 14.5771 168.325 13.6387C168.325 12.7003 169.511 11.9338 170.968 11.9338C172.424 11.9338 173.61 12.6987 173.61 13.6387C173.61 14.5787 172.412 15.3435 170.968 15.3435Z" fill="#ACACAC" fill-opacity="1.000000" fill-rule="evenodd"/>
			<path id="Vector" d="M167.132 14.3207L167.232 14.3207C168.625 14.3154 170.009 14.5037 171.314 14.8764L178.895 17.0291L178.895 23.4436C175.578 26.3792 171.71 28.6782 167.132 30.1756L167.132 14.3207Z" fill="#CDCCCC" fill-opacity="1.000000" fill-rule="evenodd"/>
			<path id="Vector" d="M168.836 15.3435C169.44 15.4199 170.033 15.5428 170.606 15.7104L172.059 16.1289L172.059 26.864C171.033 27.4553 169.958 27.9921 168.838 28.4708L168.838 15.3435L168.836 15.3435ZM172.742 16.3257L175.002 16.9768L175.002 24.9402C174.288 25.4665 173.535 25.9755 172.742 26.4596L172.742 16.3257ZM175.682 17.172L177.19 17.6061L177.19 23.1743C176.707 23.599 176.205 24.0154 175.682 24.4235L175.682 17.172Z" fill="#333333" fill-opacity="1.000000" fill-rule="evenodd"/>
			<path id="Vector" d="M167.132 14.3207L167.032 14.3207C165.642 14.3163 164.262 14.5046 162.96 14.8764L155.368 17.0275L155.368 23.442C158.688 26.3792 162.555 28.6782 167.132 30.1756L167.132 14.3207Z" fill="#B4B4B4" fill-opacity="1.000000" fill-rule="evenodd"/>
			<path id="Vector" d="M165.427 15.3435C164.81 15.4202 164.205 15.5431 163.621 15.7104L162.137 16.1289L162.137 26.864C163.185 27.455 164.283 27.9918 165.425 28.4708L165.425 15.3435L165.427 15.3435ZM161.441 16.3257L159.136 16.9768L159.136 24.9402C159.863 25.4665 160.632 25.9755 161.441 26.4596L161.441 16.3257ZM158.439 17.172L156.903 17.6061L156.903 23.1743C157.394 23.599 157.906 24.0154 158.439 24.4235L158.439 17.172Z" fill="#1A1A1A" fill-opacity="1.000000" fill-rule="evenodd"/>
			<path id="Vector" d="M168.099 8.6947C167.444 8.6947 167.131 9.00073 167.397 9.37665C167.565 9.57739 167.807 9.74548 168.099 9.86493C168.391 9.98431 168.724 10.051 169.065 10.0586C169.717 10.0586 170.031 9.75391 169.765 9.37665C169.596 9.17627 169.354 9.00842 169.062 8.88904C168.771 8.76971 168.439 8.70282 168.099 8.6947Z" fill="#E3E3E3" fill-opacity="1.000000" fill-rule="evenodd"/>
		</g>
	</g>
	<rect id="sword_red" width="28.994165" height="52.065723" transform="matrix(-1 0 0 1 151.971 0)" fill="#FFFFFF" fill-opacity="0"/>
	<g clip-path="url(#clip108_6334)">
		<g filter="url(#filter_108_6336_dd)">
			<path id="Vector" d="M151.573 47.4634L151.437 47.5341C151.282 47.6171 151.11 47.6624 150.934 47.6662C150.758 47.67 150.584 47.6323 150.426 47.556C150.266 47.4845 150.124 47.3762 150.014 47.2399C149.903 47.1036 149.826 46.9431 149.789 46.7714C149.475 45.4 148.847 43.7242 147.955 41.9935C147.062 40.2628 146.059 38.7815 145.13 37.7318C145.013 37.601 144.929 37.4453 144.882 37.2766C144.834 37.108 144.827 36.9308 144.859 36.7587C144.891 36.5865 144.961 36.424 145.066 36.2834C145.17 36.1428 145.305 36.028 145.461 35.9477L145.599 35.8771L145.031 34.7787L142.364 36.1533L139.696 37.5262L140.264 38.6246L140.4 38.554C140.557 38.4722 140.73 38.4276 140.906 38.4234C141.082 38.4193 141.257 38.4557 141.417 38.5302C141.577 38.6045 141.718 38.7147 141.828 38.8521C141.939 38.9896 142.016 39.1507 142.054 39.3229C142.368 40.6927 142.996 42.3701 143.889 44.0992C144.781 45.8284 145.784 47.3112 146.713 48.361C146.83 48.4919 146.915 48.6477 146.962 48.8165C147.009 48.9852 147.016 49.1625 146.985 49.3348C146.953 49.507 146.882 49.6697 146.777 49.8104C146.673 49.9511 146.538 50.0661 146.382 50.1466L146.244 50.2172L146.812 51.3156L149.48 49.9426L152.141 48.5634L151.573 47.4634Z" fill="#4592CF" fill-opacity="1.000000" fill-rule="evenodd"/>
			<path id="Vector" d="M144.782 38.3795C144.342 38.609 144.953 40.6956 146.149 43.0368C147.345 45.3781 148.671 47.092 149.103 46.8624C149.535 46.6328 148.932 44.5463 147.736 42.205C146.541 39.8638 145.222 38.1499 144.782 38.3795Z" fill="#283A84" fill-opacity="1.000000" fill-rule="evenodd"/>
			<path id="Vector" d="M125.375 3.40967L126.805 11.4889L140.142 37.3359L144.469 35.1028L131.132 9.2558L125.375 3.40967Z" fill="#D1D2D2" fill-opacity="1.000000" fill-rule="evenodd"/>
			<path id="Vector" d="M129.691 7.7738L127.42 6.29498L128.219 11.1149L140.207 37.3359L126.811 11.4889L125.375 3.40967L129.691 7.7738Z" fill="#E6E6E5" fill-opacity="1.000000" fill-rule="evenodd"/>
			<path id="Vector" d="M129.126 10.7405L135.427 23.6112L141.731 36.4835L142.419 36.1334L143.105 35.7833L136.116 23.2627L129.126 10.7405Z" fill="#818181" fill-opacity="1.000000" fill-rule="evenodd"/>
			<path id="Vector" d="M145.787 33.5505L138.159 37.5091C137.767 37.2252 137.291 37.0824 136.808 37.1038C136.325 37.1251 135.864 37.3094 135.498 37.6268C135.132 37.9443 134.883 38.3765 134.791 38.8536C134.699 39.3308 134.77 39.8251 134.991 40.257C135.213 40.6888 135.573 41.033 136.013 41.2339C136.453 41.4349 136.948 41.481 137.417 41.3648C137.886 41.2485 138.303 40.9767 138.6 40.5933C138.896 40.2097 139.056 39.7369 139.053 39.2509L146.682 35.2923C147.074 35.577 147.551 35.7203 148.035 35.6992C148.518 35.6781 148.981 35.4937 149.348 35.1758C149.714 34.858 149.964 34.4251 150.056 33.9471C150.148 33.4691 150.077 32.9739 149.855 32.5413C149.633 32.1087 149.272 31.764 148.832 31.5627C148.391 31.3615 147.896 31.3154 147.425 31.4321C146.955 31.5487 146.538 31.8212 146.241 32.2055C145.944 32.5898 145.784 33.0637 145.787 33.5505Z" fill="#333333" fill-opacity="1.000000" fill-rule="evenodd"/>
		</g>
	</g>
	<g filter="url(#filter_108_6343_dd)">
		<path id="Lockheed Martin" d="M142.425 83.806L142.425 75.058L143.349 75.058L143.349 82.942L147.501 82.942L147.501 83.806L142.425 83.806ZM151.036 83.914C150.484 83.914 149.968 83.778 149.488 83.506C149.016 83.226 148.648 82.854 148.384 82.39C148.112 81.926 147.976 81.41 147.976 80.842C147.976 79.954 148.272 79.218 148.864 78.634C149.456 78.034 150.188 77.734 151.06 77.734C151.908 77.718 152.636 78.018 153.244 78.634C153.86 79.242 154.16 79.966 154.144 80.806C154.16 81.67 153.86 82.41 153.244 83.026C152.628 83.634 151.892 83.93 151.036 83.914ZM151.06 83.134C151.684 83.134 152.208 82.91 152.632 82.462C153.04 82.014 153.244 81.474 153.244 80.842C153.244 80.202 153.036 79.65 152.62 79.186C152.196 78.73 151.668 78.502 151.036 78.502C150.404 78.502 149.884 78.726 149.476 79.174C149.068 79.622 148.864 80.166 148.864 80.806C148.848 81.438 149.052 81.986 149.476 82.45C149.908 82.914 150.436 83.142 151.06 83.134ZM156.129 80.794C156.129 81.69 156.465 82.358 157.137 82.798C157.465 83.022 157.849 83.134 158.289 83.134C158.769 83.134 159.177 83.01 159.513 82.762C159.633 82.674 159.757 82.554 159.885 82.402C160.061 82.17 160.193 81.938 160.281 81.706L161.085 81.97C160.949 82.45 160.645 82.882 160.173 83.266C159.661 83.698 159.029 83.914 158.277 83.914C157.421 83.93 156.697 83.642 156.105 83.05C155.521 82.458 155.233 81.722 155.241 80.842C155.241 80.266 155.381 79.734 155.661 79.246C155.941 78.766 156.313 78.394 156.777 78.13C157.241 77.866 157.753 77.734 158.313 77.734C158.985 77.734 159.577 77.918 160.089 78.286C160.609 78.678 160.929 79.13 161.049 79.642L160.257 79.906C160.169 79.586 159.953 79.274 159.609 78.97C159.273 78.666 158.833 78.514 158.289 78.514C157.665 78.514 157.149 78.734 156.741 79.174C156.333 79.622 156.129 80.162 156.129 80.794ZM163.453 80.818L163.417 80.818L163.417 83.806L162.541 83.806L162.541 74.698L163.417 74.698L163.417 80.266L166.249 77.842L167.485 77.842L164.341 80.518L167.629 83.806L166.417 83.806L163.453 80.818ZM173.795 83.806L172.919 83.806L172.919 80.338C172.919 79.786 172.779 79.346 172.499 79.018C172.219 78.69 171.811 78.526 171.275 78.526C170.755 78.526 170.327 78.706 169.991 79.066C169.663 79.434 169.499 79.882 169.499 80.41L169.499 83.806L168.623 83.806L168.623 74.71L169.499 74.71L169.499 78.91C169.963 78.126 170.643 77.734 171.539 77.734C172.243 77.734 172.799 77.95 173.207 78.382C173.599 78.838 173.795 79.418 173.795 80.122L173.795 83.806ZM180.957 81.094L176.133 81.094C176.165 81.678 176.385 82.162 176.793 82.546C177.193 82.938 177.685 83.134 178.269 83.134C178.725 83.134 179.113 83.026 179.433 82.81C179.753 82.586 179.981 82.27 180.117 81.862L180.885 82.102C180.717 82.662 180.393 83.106 179.913 83.434C179.417 83.754 178.873 83.914 178.281 83.914C177.721 83.914 177.205 83.774 176.733 83.494C176.261 83.214 175.901 82.838 175.653 82.366C175.389 81.902 175.257 81.386 175.257 80.818C175.257 80.274 175.381 79.77 175.629 79.306C175.861 78.834 176.209 78.454 176.673 78.166C177.121 77.878 177.617 77.734 178.161 77.734C178.761 77.734 179.273 77.87 179.697 78.142C180.129 78.406 180.449 78.77 180.657 79.234C180.865 79.674 180.969 80.198 180.969 80.806C180.969 80.91 180.965 81.006 180.957 81.094ZM176.145 80.35L180.093 80.35C180.037 79.806 179.837 79.358 179.493 79.006C179.157 78.67 178.713 78.502 178.161 78.502C177.657 78.502 177.213 78.682 176.829 79.042C176.445 79.418 176.217 79.854 176.145 80.35ZM187.742 81.094L182.918 81.094C182.95 81.678 183.17 82.162 183.578 82.546C183.978 82.938 184.47 83.134 185.054 83.134C185.51 83.134 185.898 83.026 186.218 82.81C186.538 82.586 186.766 82.27 186.902 81.862L187.67 82.102C187.502 82.662 187.178 83.106 186.698 83.434C186.202 83.754 185.658 83.914 185.066 83.914C184.506 83.914 183.99 83.774 183.518 83.494C183.046 83.214 182.686 82.838 182.438 82.366C182.174 81.902 182.042 81.386 182.042 80.818C182.042 80.274 182.166 79.77 182.414 79.306C182.646 78.834 182.994 78.454 183.458 78.166C183.906 77.878 184.402 77.734 184.946 77.734C185.546 77.734 186.058 77.87 186.482 78.142C186.914 78.406 187.234 78.77 187.442 79.234C187.65 79.674 187.754 80.198 187.754 80.806C187.754 80.91 187.75 81.006 187.742 81.094ZM182.93 80.35L186.878 80.35C186.822 79.806 186.622 79.358 186.278 79.006C185.942 78.67 185.498 78.502 184.946 78.502C184.442 78.502 183.998 78.682 183.614 79.042C183.23 79.418 183.002 79.854 182.93 80.35ZM188.827 80.818C188.827 80.018 189.083 79.31 189.595 78.694C190.115 78.054 190.791 77.734 191.623 77.734C192.175 77.734 192.647 77.874 193.039 78.154C193.375 78.394 193.675 78.706 193.939 79.09L193.939 74.71L194.803 74.71L194.803 83.806L193.951 83.806L193.951 82.534C193.407 83.438 192.631 83.89 191.623 83.89C190.791 83.89 190.111 83.582 189.583 82.966C189.079 82.358 188.827 81.642 188.827 80.818ZM191.803 83.134C192.403 83.142 192.915 82.91 193.339 82.438C193.763 81.966 193.967 81.422 193.951 80.806C193.951 80.414 193.859 80.046 193.675 79.702C193.491 79.35 193.235 79.062 192.907 78.838C192.571 78.622 192.203 78.514 191.803 78.514C191.163 78.514 190.659 78.734 190.291 79.174C189.907 79.622 189.715 80.178 189.715 80.842C189.715 81.714 190.039 82.37 190.687 82.81C191.015 83.026 191.387 83.134 191.803 83.134ZM159.366 88.058L160.686 88.058L160.686 96.806L159.774 96.806L159.774 89.306L156.522 96.806L155.694 96.806L152.466 89.366L152.466 96.806L151.554 96.806L151.554 88.058L152.862 88.058L156.126 95.558L159.366 88.058ZM164.836 93.362L166.492 93.362L166.492 92.966C166.492 91.998 165.984 91.514 164.968 91.514C164.48 91.514 164.104 91.646 163.84 91.91C163.6 92.15 163.456 92.422 163.408 92.726L162.568 92.546C162.576 92.378 162.656 92.166 162.808 91.91C162.96 91.654 163.16 91.426 163.408 91.226C163.832 90.898 164.36 90.734 164.992 90.734C166.08 90.734 166.804 91.146 167.164 91.97C167.284 92.25 167.344 92.578 167.344 92.954L167.344 94.634C167.344 95.61 167.376 96.334 167.44 96.806L166.576 96.806C166.52 96.502 166.492 96.154 166.492 95.762C165.988 96.53 165.316 96.914 164.476 96.914C163.876 96.914 163.396 96.746 163.036 96.41C162.66 96.082 162.472 95.662 162.472 95.15L162.472 95.09C162.472 94.498 162.708 94.062 163.18 93.782C163.66 93.502 164.212 93.362 164.836 93.362ZM166.492 94.286L166.492 94.082L164.824 94.082C164.456 94.082 164.132 94.15 163.852 94.286C163.516 94.43 163.348 94.694 163.348 95.078C163.348 95.406 163.472 95.666 163.72 95.858C163.96 96.05 164.264 96.146 164.632 96.146C165.152 96.146 165.596 95.97 165.964 95.618C166.316 95.282 166.492 94.838 166.492 94.286ZM169.244 90.842L170.096 90.842L170.096 92.018C170.376 91.45 170.784 91.066 171.32 90.866C171.536 90.786 171.772 90.746 172.028 90.746C172.18 90.746 172.276 90.754 172.316 90.77L172.316 91.694C172.252 91.678 172.14 91.67 171.98 91.67C171.332 91.67 170.86 91.886 170.564 92.318C170.268 92.75 170.12 93.274 170.12 93.89L170.12 96.806L169.244 96.806L169.244 90.842ZM175.574 96.854C174.446 96.854 173.882 96.322 173.882 95.258L173.882 91.61L172.778 91.61L172.778 90.842L173.882 90.842L173.882 89.126L174.746 89.126L174.746 90.842L176.258 90.842L176.258 91.61L174.746 91.61L174.746 95.246C174.746 95.806 175.07 96.086 175.718 96.086C175.87 96.086 176.05 96.07 176.258 96.038L176.258 96.758C176.05 96.822 175.822 96.854 175.574 96.854ZM177.704 89.174C177.576 89.03 177.512 88.874 177.512 88.706C177.512 88.538 177.576 88.382 177.704 88.238C177.832 88.11 177.988 88.046 178.172 88.046C178.348 88.046 178.5 88.11 178.628 88.238C178.756 88.366 178.82 88.522 178.82 88.706C178.82 88.89 178.756 89.046 178.628 89.174C178.5 89.302 178.348 89.366 178.172 89.366C177.988 89.366 177.832 89.302 177.704 89.174ZM177.728 96.806L177.728 90.842L178.604 90.842L178.604 96.806L177.728 96.806ZM185.748 96.806L184.872 96.806L184.872 93.338C184.872 92.786 184.732 92.346 184.452 92.018C184.172 91.69 183.764 91.526 183.228 91.526C182.708 91.526 182.28 91.706 181.944 92.066C181.616 92.434 181.452 92.882 181.452 93.41L181.452 96.806L180.576 96.806L180.576 90.842L181.428 90.842L181.428 91.934C181.908 91.134 182.596 90.734 183.492 90.734C184.196 90.734 184.752 90.95 185.16 91.382C185.552 91.838 185.748 92.418 185.748 93.122L185.748 96.806Z" fill="#FFFFFF" fill-opacity="1.000000" fill-rule="evenodd"/>
	</g>
	<g filter="url(#filter_108_6345_dd)">
		<path id="Vector 1" d="M90.4902 53.5695L85.9795 31.344L125.575 31.344L121.398 53.5695L105.276 60.7823L90.4902 53.5695Z" fill="url(#paint_radial_108_6345_0)" fill-opacity="1.000000" fill-rule="nonzero"/>
	</g>
	<path id="Vector 1" d="M83.5327 29.344L88.7266 54.9343L89.6135 55.367L105.239 62.9897L123.17 54.9676L127.986 29.344L83.5327 29.344ZM90.4902 53.5695L85.9795 31.344L125.575 31.344L125.199 33.344L121.398 53.5695L105.276 60.7823L90.4902 53.5695Z" fill="url(#paint_linear_108_6345_1)" fill-opacity="1.000000" fill-rule="evenodd"/>
	<path id="Vector 2" d="M93.0356 52.3403L89.2505 33.7541L122.476 33.7541L118.971 52.3403L105.443 58.3721L93.0356 52.3403Z" fill="url(#paint_radial_108_6346_0)" fill-opacity="1.000000" fill-rule="nonzero"/>
	<path id="Vector 2" d="M86.802 31.7541L91.2729 53.7072L92.1611 54.139L105.406 60.5781L120.743 53.7404L124.888 31.7541L86.802 31.7541ZM93.0356 52.3403L89.6577 35.7541L89.2505 33.7541L122.476 33.7541L122.099 35.7541L118.971 52.3403L105.443 58.3721L93.0356 52.3403Z" fill="url(#paint_linear_108_6346_1)" fill-opacity="1.000000" fill-rule="evenodd"/>
	<g filter="url(#filter_108_6347_dd)">
		<path id="Vector" d="M112.487 41.6871C112.924 41.8348 113.37 41.9821 113.824 42.1298C114.279 42.2774 114.683 42.4191 115.037 42.5549C115.893 42.8854 116.544 43.3416 116.99 43.9229C117.435 44.5041 117.658 45.2256 117.658 46.0875C117.658 46.6304 117.531 47.1559 117.277 47.6637C117.023 48.1711 116.681 48.5931 116.25 48.9295C115.778 49.3015 115.232 49.5877 114.612 49.7883C113.992 49.9889 113.27 50.0895 112.443 50.0895C111.676 50.0895 110.96 49.9938 110.296 49.8022C109.632 49.6107 109.07 49.385 108.609 49.1256L107.999 49.7448L107.246 49.7448L107.131 45.2086L107.892 45.2086C108.063 45.64 108.281 46.0948 108.547 46.5733C108.813 47.0518 109.12 47.4802 109.468 47.8583C109.828 48.2543 110.231 48.576 110.677 48.8243C111.122 49.0723 111.643 49.1963 112.239 49.1963C113.042 49.1963 113.657 49.0005 114.085 48.6081C114.513 48.2156 114.727 47.7215 114.727 47.1256C114.727 46.636 114.546 46.2244 114.183 45.8911C113.82 45.5579 113.258 45.2698 112.496 45.0272C112 44.8673 111.544 44.7193 111.128 44.5831C110.712 44.447 110.321 44.3077 109.955 44.1656C109.111 43.8292 108.484 43.3483 108.074 42.7225C107.663 42.097 107.458 41.3978 107.458 40.6243C107.458 40.1343 107.565 39.6639 107.777 39.2122C107.989 38.7609 108.299 38.3548 108.707 37.9951C109.096 37.6587 109.595 37.3843 110.203 37.1715C110.811 36.959 111.472 36.8528 112.186 36.8528C112.883 36.8528 113.535 36.95 114.143 37.1447C114.751 37.3394 115.229 37.5336 115.577 37.7283L116.117 37.1976L116.888 37.1976L116.958 41.4772L116.197 41.4772C116.02 41.0164 115.812 40.5452 115.573 40.0637C115.334 39.582 115.081 39.1819 114.816 38.8625C114.527 38.5199 114.193 38.2469 113.815 38.0428C113.438 37.8391 112.995 37.7371 112.487 37.7371C111.85 37.7371 111.329 37.9174 110.924 38.2775C110.52 38.6376 110.318 39.0833 110.318 39.6147C110.318 40.1166 110.494 40.5268 110.845 40.8458C111.196 41.1648 111.743 41.4451 112.487 41.6871ZM105.821 38.2587C105.567 38.4064 105.37 38.5638 105.231 38.7319C105.093 38.8998 104.956 39.1314 104.82 39.426C104.637 39.8328 104.38 40.4265 104.05 41.2076C103.719 41.9887 103.341 42.8774 102.917 43.8734C102.539 44.7694 102.13 45.7511 101.69 46.8178C101.25 47.8848 100.83 48.9076 100.428 49.8862L98.6487 49.8862C97.8223 47.8643 96.9812 45.81 96.1255 43.7233C95.2693 41.6363 94.6675 40.1862 94.3191 39.3727C94.1836 39.0781 94.052 38.8556 93.925 38.7051C93.7983 38.5551 93.5964 38.4005 93.3188 38.241C93.1179 38.1292 92.9412 38.0511 92.7876 38.0069C92.6343 37.9627 92.4307 37.9227 92.1768 37.8875L92.1768 37.1976L98.9851 37.1976L98.9851 37.8697C98.3481 37.9464 97.916 38.0275 97.689 38.1128C97.4617 38.1984 97.3484 38.306 97.3484 38.4356C97.3484 38.5007 97.3584 38.5697 97.3794 38.6435C97.3999 38.7173 97.4309 38.8159 97.4724 38.9395C97.6611 39.4577 98.0032 40.3043 98.499 41.4792C98.9946 42.6539 99.7292 44.4456 100.703 46.854C101.299 45.3879 101.795 44.1485 102.19 43.1358C102.585 42.1232 102.933 41.2281 103.234 40.4509C103.382 40.0741 103.504 39.722 103.602 39.395C103.699 39.068 103.748 38.8218 103.748 38.6567C103.748 38.468 103.612 38.3106 103.341 38.1835C103.069 38.0571 102.568 37.9641 101.836 37.9052L101.836 37.1976L106.927 37.1976L106.927 37.9052C106.732 37.9227 106.546 37.9582 106.369 38.0111C106.192 38.0644 106.009 38.1469 105.821 38.2587Z" fill="url(#paint_linear_108_6347_0)" fill-opacity="1.000000" fill-rule="nonzero"/>
	</g>
	<path id="Vector" d="M108.609 49.1256C109.07 49.385 109.632 49.6107 110.296 49.8022C110.373 49.8245 110.451 49.8455 110.53 49.8652C111.127 50.0148 111.765 50.0895 112.443 50.0895C112.833 50.0895 113.2 50.0671 113.544 50.0223C113.929 49.9722 114.285 49.8942 114.612 49.7883C115.232 49.5877 115.778 49.3015 116.25 48.9295C116.681 48.5931 117.023 48.1711 117.277 47.6637C117.531 47.1559 117.658 46.6304 117.658 46.0875Q117.658 44.96 117.149 44.1526Q117.075 44.0343 116.99 43.9229C116.544 43.3416 115.893 42.8854 115.037 42.5549C114.683 42.4191 114.279 42.2774 113.824 42.1298C113.37 41.9821 112.924 41.8348 112.487 41.6871C111.743 41.4451 111.196 41.1648 110.845 40.8458C110.494 40.5268 110.318 40.1166 110.318 39.6147C110.318 39.0833 110.52 38.6376 110.924 38.2775C111.118 38.1049 111.339 37.9736 111.586 37.8836C111.855 37.7859 112.156 37.7371 112.487 37.7371C112.995 37.7371 113.438 37.8391 113.815 38.0428C113.878 38.0765 113.939 38.1121 113.999 38.1497C114.302 38.3391 114.574 38.5765 114.816 38.8625C115.081 39.1819 115.334 39.582 115.573 40.0637Q115.775 40.4716 115.948 40.8696Q116.082 41.1763 116.197 41.4772L116.958 41.4772L116.954 41.1863L116.945 40.6569L116.942 40.4772L116.888 37.1976L116.117 37.1976L116.104 37.2106L115.891 37.4199L115.577 37.7283C115.284 37.5646 114.899 37.4011 114.423 37.2374C114.333 37.2065 114.24 37.1756 114.143 37.1447C113.535 36.95 112.883 36.8528 112.186 36.8528Q111.759 36.8528 111.356 36.9036Q110.75 36.9801 110.203 37.1715C109.595 37.3843 109.096 37.6587 108.707 37.9951C108.299 38.3548 107.989 38.7609 107.777 39.2122C107.565 39.6639 107.458 40.1343 107.458 40.6243C107.458 41.3978 107.663 42.097 108.074 42.7225C108.484 43.3483 109.111 43.8292 109.955 44.1656C110.321 44.3077 110.712 44.447 111.128 44.5831C111.544 44.7193 112 44.8673 112.496 45.0272C113.258 45.2698 113.82 45.5579 114.183 45.8911C114.546 46.2244 114.727 46.636 114.727 47.1256C114.727 47.7215 114.513 48.2156 114.085 48.6081C113.877 48.7993 113.624 48.9438 113.326 49.0417C113.013 49.1448 112.651 49.1963 112.239 49.1963Q111.461 49.1963 110.854 48.915Q110.764 48.8728 110.677 48.8243C110.231 48.576 109.828 48.2543 109.468 47.8583C109.12 47.4802 108.813 47.0518 108.547 46.5733C108.399 46.3058 108.265 46.0457 108.146 45.7928C108.052 45.5936 107.968 45.3988 107.892 45.2086L107.131 45.2086L107.138 45.5076L107.152 46.0237L107.156 46.2086L107.246 49.7448L107.999 49.7448L108.018 49.7252L108.24 49.4999L108.609 49.1256ZM108.205 48.1118L108.298 48.0173Q108.248 47.9517 108.199 47.8846L108.205 48.1118ZM115.534 48.2177Q115.585 48.1804 115.635 48.1415Q115.748 48.0532 115.85 47.9536Q116.17 47.6407 116.383 47.2165Q116.6 46.7825 116.646 46.3311Q116.658 46.21 116.658 46.0875Q116.658 45.1395 116.201 44.5384Q116.198 44.5349 116.196 44.5313Q115.698 43.8821 114.679 43.4886Q114.174 43.2949 113.515 43.0808L113.51 43.0791L112.178 42.6381Q110.858 42.2085 110.173 41.586Q109.873 41.3135 109.676 40.9802Q109.594 40.8416 109.531 40.6924Q109.519 40.6646 109.507 40.6365Q109.318 40.1635 109.318 39.6147Q109.318 39.1297 109.468 38.6967Q109.476 38.6736 109.484 38.6509Q109.424 38.6968 109.369 38.7446Q108.913 39.1473 108.682 39.6377Q108.537 39.9468 108.486 40.2708Q108.458 40.4454 108.458 40.6243Q108.458 41.1722 108.641 41.6503Q108.746 41.9238 108.91 42.1744Q109.352 42.8489 110.317 43.2335Q110.842 43.4371 111.437 43.632L112.8 44.0743Q114.152 44.5053 114.859 45.1545Q115.215 45.4814 115.428 45.8842Q115.47 45.9637 115.506 46.0461Q115.549 46.1435 115.584 46.2438Q115.727 46.6599 115.727 47.1256Q115.727 47.7087 115.534 48.2177ZM97.4724 38.9395C97.4309 38.8159 97.3999 38.7173 97.3794 38.6435C97.3584 38.5697 97.3484 38.5007 97.3484 38.4356C97.3484 38.3457 97.4028 38.2664 97.5122 38.1976C97.5605 38.1673 97.6194 38.139 97.689 38.1128C97.916 38.0275 98.3481 37.9464 98.9851 37.8697L98.9851 37.1976L97.9851 37.1976L97.2837 37.1976L93.1768 37.1976L92.2725 37.1976L92.1768 37.1976L92.1768 37.8875C92.4307 37.9227 92.6343 37.9627 92.7876 38.0069C92.9204 38.0452 93.0708 38.1088 93.239 38.1976C93.2651 38.2114 93.2917 38.2259 93.3188 38.241C93.5964 38.4005 93.7983 38.5551 93.925 38.7051C94.052 38.8556 94.1836 39.0781 94.3191 39.3727C94.6675 40.1862 95.2693 41.6363 96.1255 43.7233Q97.4089 46.8533 98.6487 49.8862L100.428 49.8862C100.501 49.7101 100.573 49.5325 100.647 49.3536C100.982 48.5381 101.33 47.6928 101.69 46.8178C102.13 45.7511 102.539 44.7694 102.917 43.8734C103.162 43.2967 103.393 42.756 103.607 42.2513C103.763 41.8843 103.91 41.5364 104.05 41.2076C104.38 40.4265 104.637 39.8328 104.82 39.426C104.956 39.1314 105.093 38.8998 105.231 38.7319C105.37 38.5638 105.567 38.4064 105.821 38.2587C105.857 38.2372 105.893 38.2169 105.928 38.1976C106.079 38.1163 106.226 38.0541 106.369 38.0111C106.546 37.9582 106.732 37.9227 106.927 37.9052L106.927 37.1976L105.927 37.1976L105.697 37.1976L102.836 37.1976L101.893 37.1976L101.836 37.1976L101.836 37.9052C102.568 37.9641 103.069 38.0571 103.341 38.1835C103.351 38.1882 103.361 38.1929 103.37 38.1976C103.622 38.3222 103.748 38.4749 103.748 38.6567C103.748 38.8218 103.699 39.068 103.602 39.395C103.504 39.722 103.382 40.0741 103.234 40.4509C103.071 40.8733 102.893 41.3304 102.702 41.8223C102.541 42.2356 102.37 42.6735 102.19 43.1358C101.92 43.8273 101.603 44.6245 101.24 45.5273C101.071 45.9468 100.892 46.389 100.703 46.854C100.685 46.8093 100.667 46.7648 100.649 46.7204C100.479 46.2998 100.316 45.8984 100.161 45.5162C99.4519 43.7706 98.8979 42.4249 98.499 41.4792C98.0032 40.3043 97.6611 39.4577 97.4724 38.9395ZM100.107 48.0375L97.5779 41.868Q96.8254 40.0855 96.533 39.2816L96.5286 39.2697L96.5244 39.2577Q96.4536 39.0468 96.4172 38.9161Q96.3484 38.673 96.3484 38.4356Q96.3484 38.314 96.3716 38.1976L94.7971 38.1976Q95.0183 38.4999 95.2275 38.9545L95.2354 38.9717L97.051 43.3444L99.3198 48.8862L99.7583 48.8862L100.107 48.0375Z" fill="url(#paint_linear_108_6347_1)" fill-opacity="1.000000" fill-rule="evenodd"/>
</svg>
