<svg width="24.040771" height="38.000000" viewBox="0 0 24.0408 38" fill="none" xmlns="http://www.w3.org/2000/svg" xmlns:xlink="http://www.w3.org/1999/xlink">
	<desc>
			Created with Pixso.
	</desc>
	<defs>
		<clipPath id="clip1_1486">
			<rect id="candles 1" width="24.040817" height="38.000000" fill="white" fill-opacity="0"/>
		</clipPath>
	</defs>
	<rect id="candles 1" width="24.040817" height="38.000000" fill="#FFFFFF" fill-opacity="0"/>
	<g clip-path="url(#clip1_1486)">
		<path id="Vector" d="M19.3877 25.5918L19.3877 13.1837L24.0408 13.1837L24.0408 25.5918L19.3877 25.5918ZM20.9387 5.42859L22.4897 5.42859L22.4897 12.4082L20.9387 12.4082L20.9387 5.42859ZM10.0815 9.30615L14.7346 9.30615L14.7346 14.7347L10.0815 14.7347L10.0815 9.30615ZM11.6326 0L13.1836 0L13.1836 8.53064L11.6326 8.53064L11.6326 0ZM0 14.7347L4.65308 14.7347L4.65308 25.5918L0 25.5918L0 14.7347ZM1.55103 8.53064L3.10205 8.53064L3.10205 13.9592L1.55103 13.9592L1.55103 8.53064ZM3.10205 31.7959L1.55103 31.7959L1.55103 26.3673L3.10205 26.3673L3.10205 31.7959ZM13.1836 38L11.6326 38L11.6326 15.5103L13.1836 15.5103L13.1836 38ZM22.4897 33.3469L20.9387 33.3469L20.9387 26.3673L22.4897 26.3673L22.4897 33.3469Z" fill="#FFD762" fill-opacity="1.000000" fill-rule="evenodd"/>
	</g>
</svg>
