<svg width="212.000000" height="109.000000" viewBox="0 0 212 109" fill="none" xmlns="http://www.w3.org/2000/svg" xmlns:xlink="http://www.w3.org/1999/xlink">
	<desc>
			Created with Pixso.
	</desc>
	<defs>
		<clipPath id="clip108_6189">
			<rect id="chanel" rx="47" ry="47" width="45.934223" height="45.934223" transform="translate(21.502441 24.127930) rotate(-0.000000)" fill="white" fill-opacity="0"/>
		</clipPath>
		<filter id="filter_108_6192_dd" x="3.686035" y="28.471619" width="30.129150" height="34.757202" filterUnits="userSpaceOnUse" color-interpolation-filters="sRGB">
			<feFlood flood-opacity="0" result="BackgroundImageFix"/>
			<feColorMatrix in="SourceAlpha" type="matrix" values="0 0 0 0 0 0 0 0 0 0 0 0 0 0 0 0 0 0 127 0" result="hardAlpha"/>
			<feOffset dx="0" dy="4"/>
			<feGaussianBlur stdDeviation="1.33333"/>
			<feComposite in2="hardAlpha" operator="out" k2="-1" k3="1"/>
			<feColorMatrix type="matrix" values="0 0 0 0 0 0 0 0 0 0 0 0 0 0 0 0 0 0 0.25 0"/>
			<feBlend mode="normal" in2="BackgroundImageFix" result="effect_dropShadow_1"/>
			<feBlend mode="normal" in="SourceGraphic" in2="effect_dropShadow_1" result="shape"/>
		</filter>
		<filter id="filter_108_6193_dd" x="3.686523" y="28.759277" width="23.309326" height="34.469543" filterUnits="userSpaceOnUse" color-interpolation-filters="sRGB">
			<feFlood flood-opacity="0" result="BackgroundImageFix"/>
			<feColorMatrix in="SourceAlpha" type="matrix" values="0 0 0 0 0 0 0 0 0 0 0 0 0 0 0 0 0 0 127 0" result="hardAlpha"/>
			<feOffset dx="0" dy="4"/>
			<feGaussianBlur stdDeviation="1.33333"/>
			<feComposite in2="hardAlpha" operator="out" k2="-1" k3="1"/>
			<feColorMatrix type="matrix" values="0 0 0 0 0 0 0 0 0 0 0 0 0 0 0 0 0 0 0.25 0"/>
			<feBlend mode="normal" in2="BackgroundImageFix" result="effect_dropShadow_1"/>
			<feBlend mode="normal" in="SourceGraphic" in2="effect_dropShadow_1" result="shape"/>
		</filter>
		<clipPath id="clip108_6191">
			<rect id="shield-antivirus-svgrepo-com 1" width="35.689922" height="35.689926" transform="matrix(-0.972708 0.232033 0.232033 0.972708 34.7158 19.7012)" fill="white" fill-opacity="0"/>
		</clipPath>
		<filter id="filter_108_6196_dd" x="22.778809" y="-4.980957" width="47.853271" height="49.042236" filterUnits="userSpaceOnUse" color-interpolation-filters="sRGB">
			<feFlood flood-opacity="0" result="BackgroundImageFix"/>
			<feColorMatrix in="SourceAlpha" type="matrix" values="0 0 0 0 0 0 0 0 0 0 0 0 0 0 0 0 0 0 127 0" result="hardAlpha"/>
			<feOffset dx="0" dy="4"/>
			<feGaussianBlur stdDeviation="3.33333"/>
			<feComposite in2="hardAlpha" operator="out" k2="-1" k3="1"/>
			<feColorMatrix type="matrix" values="0 0 0 0 0 0 0 0 0 0 0 0 0 0 0 0 0 0 0.5 0"/>
			<feBlend mode="normal" in2="BackgroundImageFix" result="effect_dropShadow_1"/>
			<feBlend mode="normal" in="SourceGraphic" in2="effect_dropShadow_1" result="shape"/>
		</filter>
		<clipPath id="clip108_6194">
			<rect id="helmet_red" width="30.570757" height="31.864920" transform="translate(31.929443 0.000000)" fill="white" fill-opacity="0"/>
		</clipPath>
		<filter id="filter_108_6214_dd" x="49.443115" y="-2.603271" width="46.664551" height="67.724365" filterUnits="userSpaceOnUse" color-interpolation-filters="sRGB">
			<feFlood flood-opacity="0" result="BackgroundImageFix"/>
			<feColorMatrix in="SourceAlpha" type="matrix" values="0 0 0 0 0 0 0 0 0 0 0 0 0 0 0 0 0 0 127 0" result="hardAlpha"/>
			<feOffset dx="0" dy="4"/>
			<feGaussianBlur stdDeviation="3.33333"/>
			<feComposite in2="hardAlpha" operator="out" k2="-1" k3="1"/>
			<feColorMatrix type="matrix" values="0 0 0 0 0 0 0 0 0 0 0 0 0 0 0 0 0 0 0.5 0"/>
			<feBlend mode="normal" in2="BackgroundImageFix" result="effect_dropShadow_1"/>
			<feBlend mode="normal" in="SourceGraphic" in2="effect_dropShadow_1" result="shape"/>
		</filter>
		<clipPath id="clip108_6212">
			<rect id="sword_red" width="28.884270" height="51.868382" transform="translate(59.613037 0.000000)" fill="white" fill-opacity="0"/>
		</clipPath>
		<filter id="filter_108_6221_dd" x="8.328613" y="74.697998" width="68.072510" height="13.216003" filterUnits="userSpaceOnUse" color-interpolation-filters="sRGB">
			<feFlood flood-opacity="0" result="BackgroundImageFix"/>
			<feColorMatrix in="SourceAlpha" type="matrix" values="0 0 0 0 0 0 0 0 0 0 0 0 0 0 0 0 0 0 127 0" result="hardAlpha"/>
			<feOffset dx="0" dy="2"/>
			<feGaussianBlur stdDeviation="0.666667"/>
			<feComposite in2="hardAlpha" operator="out" k2="-1" k3="1"/>
			<feColorMatrix type="matrix" values="0 0 0 0 0 0 0 0 0 0 0 0 0 0 0 0 0 0 0.5 0"/>
			<feBlend mode="normal" in2="BackgroundImageFix" result="effect_dropShadow_1"/>
			<feBlend mode="normal" in="SourceGraphic" in2="effect_dropShadow_1" result="shape"/>
		</filter>
		<clipPath id="clip108_6224">
			<rect id="Dior_Logo 1" width="34.418430" height="14.914654" transform="translate(149.337891 39.272644)" fill="white" fill-opacity="0"/>
		</clipPath>
		<clipPath id="clip108_6223">
			<rect id="dior" rx="47" ry="47" width="45.934223" height="45.934223" transform="translate(143.580078 24.127930)" fill="white" fill-opacity="0"/>
		</clipPath>
		<filter id="filter_108_6240_dd" x="174.071533" y="28.542847" width="30.212891" height="34.859070" filterUnits="userSpaceOnUse" color-interpolation-filters="sRGB">
			<feFlood flood-opacity="0" result="BackgroundImageFix"/>
			<feColorMatrix in="SourceAlpha" type="matrix" values="0 0 0 0 0 0 0 0 0 0 0 0 0 0 0 0 0 0 127 0" result="hardAlpha"/>
			<feOffset dx="-4" dy="4"/>
			<feGaussianBlur stdDeviation="1.33333"/>
			<feComposite in2="hardAlpha" operator="out" k2="-1" k3="1"/>
			<feColorMatrix type="matrix" values="0 0 0 0 0 0 0 0 0 0 0 0 0 0 0 0 0 0 0.25 0"/>
			<feBlend mode="normal" in2="BackgroundImageFix" result="effect_dropShadow_1"/>
			<feBlend mode="normal" in="SourceGraphic" in2="effect_dropShadow_1" result="shape"/>
		</filter>
		<filter id="filter_108_6241_dd" x="180.916504" y="28.831665" width="23.367920" height="34.570251" filterUnits="userSpaceOnUse" color-interpolation-filters="sRGB">
			<feFlood flood-opacity="0" result="BackgroundImageFix"/>
			<feColorMatrix in="SourceAlpha" type="matrix" values="0 0 0 0 0 0 0 0 0 0 0 0 0 0 0 0 0 0 127 0" result="hardAlpha"/>
			<feOffset dx="-4" dy="4"/>
			<feGaussianBlur stdDeviation="1.33333"/>
			<feComposite in2="hardAlpha" operator="out" k2="-1" k3="1"/>
			<feColorMatrix type="matrix" values="0 0 0 0 0 0 0 0 0 0 0 0 0 0 0 0 0 0 0.25 0"/>
			<feBlend mode="normal" in2="BackgroundImageFix" result="effect_dropShadow_1"/>
			<feBlend mode="normal" in="SourceGraphic" in2="effect_dropShadow_1" result="shape"/>
		</filter>
		<clipPath id="clip108_6239">
			<rect id="shield-antivirus-svgrepo-com 1" width="35.825710" height="35.825710" transform="translate(177.151855 19.739014) rotate(-13.416809)" fill="white" fill-opacity="0"/>
		</clipPath>
		<filter id="filter_108_6244_dd" x="140.935547" y="-4.977112" width="47.959473" height="49.152710" filterUnits="userSpaceOnUse" color-interpolation-filters="sRGB">
			<feFlood flood-opacity="0" result="BackgroundImageFix"/>
			<feColorMatrix in="SourceAlpha" type="matrix" values="0 0 0 0 0 0 0 0 0 0 0 0 0 0 0 0 0 0 127 0" result="hardAlpha"/>
			<feOffset dx="0" dy="4"/>
			<feGaussianBlur stdDeviation="3.33333"/>
			<feComposite in2="hardAlpha" operator="out" k2="-1" k3="1"/>
			<feColorMatrix type="matrix" values="0 0 0 0 0 0 0 0 0 0 0 0 0 0 0 0 0 0 0.5 0"/>
			<feBlend mode="normal" in2="BackgroundImageFix" result="effect_dropShadow_1"/>
			<feBlend mode="normal" in="SourceGraphic" in2="effect_dropShadow_1" result="shape"/>
		</filter>
		<clipPath id="clip108_6242">
			<rect id="helmet_red" width="30.687067" height="31.986153" transform="matrix(-1 0 0 1 179.748 0)" fill="white" fill-opacity="0"/>
		</clipPath>
		<filter id="filter_108_6262_dd" x="115.375000" y="-2.590332" width="46.766113" height="67.905945" filterUnits="userSpaceOnUse" color-interpolation-filters="sRGB">
			<feFlood flood-opacity="0" result="BackgroundImageFix"/>
			<feColorMatrix in="SourceAlpha" type="matrix" values="0 0 0 0 0 0 0 0 0 0 0 0 0 0 0 0 0 0 127 0" result="hardAlpha"/>
			<feOffset dx="0" dy="4"/>
			<feGaussianBlur stdDeviation="3.33333"/>
			<feComposite in2="hardAlpha" operator="out" k2="-1" k3="1"/>
			<feColorMatrix type="matrix" values="0 0 0 0 0 0 0 0 0 0 0 0 0 0 0 0 0 0 0.5 0"/>
			<feBlend mode="normal" in2="BackgroundImageFix" result="effect_dropShadow_1"/>
			<feBlend mode="normal" in="SourceGraphic" in2="effect_dropShadow_1" result="shape"/>
		</filter>
		<clipPath id="clip108_6260">
			<rect id="sword_red" width="28.994165" height="52.065723" transform="matrix(-1 0 0 1 151.971 0)" fill="white" fill-opacity="0"/>
		</clipPath>
		<filter id="filter_108_6269_dd" x="142.420410" y="74.710022" width="51.848877" height="26.204590" filterUnits="userSpaceOnUse" color-interpolation-filters="sRGB">
			<feFlood flood-opacity="0" result="BackgroundImageFix"/>
			<feColorMatrix in="SourceAlpha" type="matrix" values="0 0 0 0 0 0 0 0 0 0 0 0 0 0 0 0 0 0 127 0" result="hardAlpha"/>
			<feOffset dx="0" dy="2"/>
			<feGaussianBlur stdDeviation="0.666667"/>
			<feComposite in2="hardAlpha" operator="out" k2="-1" k3="1"/>
			<feColorMatrix type="matrix" values="0 0 0 0 0 0 0 0 0 0 0 0 0 0 0 0 0 0 0.5 0"/>
			<feBlend mode="normal" in2="BackgroundImageFix" result="effect_dropShadow_1"/>
			<feBlend mode="normal" in="SourceGraphic" in2="effect_dropShadow_1" result="shape"/>
		</filter>
		<filter id="filter_108_6271_dd" x="58.532715" y="4.343994" width="94.452881" height="83.645691" filterUnits="userSpaceOnUse" color-interpolation-filters="sRGB">
			<feFlood flood-opacity="0" result="BackgroundImageFix"/>
			<feColorMatrix in="SourceAlpha" type="matrix" values="0 0 0 0 0 0 0 0 0 0 0 0 0 0 0 0 0 0 127 0" result="hardAlpha"/>
			<feOffset dx="0" dy="0"/>
			<feGaussianBlur stdDeviation="8.33333"/>
			<feComposite in2="hardAlpha" operator="out" k2="-1" k3="1"/>
			<feColorMatrix type="matrix" values="0 0 0 0 0.98039 0 0 0 0 0.79216 0 0 0 0 0.34902 0 0 0 1 0"/>
			<feBlend mode="normal" in2="BackgroundImageFix" result="effect_dropShadow_1"/>
			<feBlend mode="normal" in="SourceGraphic" in2="effect_dropShadow_1" result="shape"/>
		</filter>
		<filter id="filter_108_6273_dd" x="90.176758" y="36.852844" width="29.481201" height="19.236694" filterUnits="userSpaceOnUse" color-interpolation-filters="sRGB">
			<feFlood flood-opacity="0" result="BackgroundImageFix"/>
			<feColorMatrix in="SourceAlpha" type="matrix" values="0 0 0 0 0 0 0 0 0 0 0 0 0 0 0 0 0 0 127 0" result="hardAlpha"/>
			<feOffset dx="0" dy="4"/>
			<feGaussianBlur stdDeviation="0.666667"/>
			<feComposite in2="hardAlpha" operator="out" k2="-1" k3="1"/>
			<feColorMatrix type="matrix" values="0 0 0 0 0 0 0 0 0 0 0 0 0 0 0 0 0 0 0.5 0"/>
			<feBlend mode="normal" in2="BackgroundImageFix" result="effect_dropShadow_1"/>
			<feBlend mode="normal" in="SourceGraphic" in2="effect_dropShadow_1" result="shape"/>
		</filter>
		<radialGradient id="paint_radial_108_6271_0" cx="0.000000" cy="0.000000" r="1.000000" gradientUnits="userSpaceOnUse" gradientTransform="translate(88.2175 39.4352) rotate(9.60304) scale(34.5708 46.5041)">
			<stop offset="0.102161" stop-color="#B37D16"/>
			<stop offset="0.806940" stop-color="#F8F497"/>
			<stop offset="1.000000" stop-color="#C4963D"/>
		</radialGradient>
		<linearGradient id="paint_linear_108_6271_1" x1="85.979492" y1="31.343988" x2="116.794991" y2="55.273346" gradientUnits="userSpaceOnUse">
			<stop stop-color="#F8F497"/>
			<stop offset="1.000000" stop-color="#B7851F"/>
		</linearGradient>
		<radialGradient id="paint_radial_108_6272_0" cx="0.000000" cy="0.000000" r="1.000000" gradientUnits="userSpaceOnUse" gradientTransform="translate(107.671 33.7541) rotate(95.6824) scale(17.3869 23.4689)">
			<stop stop-color="#AF4190"/>
			<stop offset="0.472281" stop-color="#610547"/>
			<stop offset="1.000000" stop-color="#220119"/>
		</radialGradient>
		<linearGradient id="paint_linear_108_6272_1" x1="92.435326" y1="33.754089" x2="118.086212" y2="52.604912" gradientUnits="userSpaceOnUse">
			<stop stop-color="#F2E586"/>
			<stop offset="0.546840" stop-color="#B37D16"/>
			<stop offset="0.990875" stop-color="#F7F395"/>
		</linearGradient>
		<linearGradient id="paint_linear_108_6273_0" x1="92.176750" y1="51.744133" x2="92.176750" y2="36.852844" gradientUnits="userSpaceOnUse">
			<stop offset="0.276042" stop-color="#B37D16"/>
			<stop offset="0.670000" stop-color="#F8F497"/>
			<stop offset="1.000000" stop-color="#DDB149"/>
		</linearGradient>
		<linearGradient id="paint_linear_108_6273_1" x1="104.917305" y1="36.852844" x2="104.917305" y2="51.313744" gradientUnits="userSpaceOnUse">
			<stop stop-color="#DDB149"/>
			<stop offset="1.000000" stop-color="#F8F497"/>
		</linearGradient>
	</defs>
	<rect id="chanel" rx="47" ry="47" width="45.934223" height="45.934223" transform="translate(21.502441 24.127930) rotate(-0.000000)" fill="#1D1D1B" fill-opacity="1.000000"/>
	<g clip-path="url(#clip108_6189)">
		<path id="Vector" d="M38.2729 59.0794C36.7112 59.0072 34.9719 58.533 33.5698 57.7971C32.4937 57.2321 31.6404 56.5999 30.7468 55.7048C30.0469 55.0038 29.5303 54.358 29.0933 53.6371L28.9019 53.3215L29.1733 53.1776C29.7024 52.897 32.1138 51.6622 32.1328 51.6622C32.1433 51.6622 32.2429 51.7978 32.3542 51.9635C33.6108 53.8366 35.5769 55.0551 37.8777 55.3868C38.2798 55.4448 39.4893 55.4355 39.9272 55.3711C40.4148 55.2994 40.9993 55.1665 41.3706 55.043C41.3948 55.0349 41.3486 54.96 41.2424 54.8348C40.4199 53.8654 39.6702 52.5349 39.2485 51.2961C38.4856 49.0555 38.4314 46.6505 39.0925 44.3906C39.5032 42.9873 40.21 41.6252 41.105 40.5121C41.2383 40.3463 41.3474 40.2 41.3474 40.187C41.3474 40.1428 40.6489 39.9568 40.1909 39.8792C39.4834 39.759 38.376 39.7441 37.7366 39.8461C36.6606 40.0177 35.5686 40.4207 34.7153 40.9609C33.7644 41.5629 32.9714 42.3366 32.3389 43.2797L32.0593 43.6962L31.7036 43.5095C31.5081 43.4068 30.7815 43.0302 30.0891 42.6727C29.3965 42.3151 28.8252 42.0184 28.8252 42.0184C28.8142 42.0087 29.2476 41.3192 29.426 41.0626C29.968 40.2835 30.9302 39.2518 31.6409 38.6875C33.4995 37.2121 35.5659 36.3812 37.8923 36.1736C38.324 36.1351 39.394 36.1348 39.8103 36.173C41.2871 36.3086 42.5532 36.6667 43.8611 37.3188L44.4863 37.6305L44.6958 37.5113C45.0339 37.3189 45.6348 37.0413 46.0911 36.8665C47.3713 36.3763 48.6606 36.143 50.0852 36.1437C51.0801 36.1442 51.9099 36.2419 52.8108 36.4647C54.8462 36.968 56.582 37.9333 58.0774 39.3936C58.8882 40.1852 59.5237 40.9935 60.0366 41.8859L60.1145 42.0212L58.8491 42.674C58.1531 43.033 57.425 43.4099 57.2312 43.5116L56.8787 43.6964L56.6123 43.2945C55.2979 41.3115 53.1475 40.0204 50.7937 39.8011C50.0969 39.7363 49.0623 39.796 48.4333 39.9376C48.1099 40.0104 47.5842 40.1605 47.5845 40.1801C47.5845 40.1904 47.6704 40.3041 47.7754 40.433C49.1243 42.088 49.9663 44.1053 50.2385 46.3331C50.3035 46.8648 50.3123 48.2224 50.2539 48.7488C50.0081 50.9717 49.1677 53.0231 47.8259 54.6746C47.5217 55.049 47.5347 55.0231 47.6323 55.0608C47.6785 55.0786 47.894 55.1382 48.1113 55.1934C49.2163 55.4733 50.4058 55.5129 51.5225 55.3068C53.554 54.9319 55.3833 53.7307 56.5598 51.9989C56.6694 51.8379 56.7681 51.6953 56.7795 51.6821C56.7908 51.6689 57.062 51.7894 57.3823 51.9499C58.0164 52.2678 60.0029 53.2958 60.0244 53.3171C60.0598 53.3526 59.4268 54.2924 59.0383 54.7806C58.6709 55.2427 57.7073 56.2051 57.2471 56.57C55.5835 57.8884 53.7166 58.6944 51.6602 58.9822C49.2991 59.3127 46.7986 58.8701 44.7639 57.7617L44.4766 57.6051L44.1199 57.7938C42.3528 58.7287 40.3259 59.1744 38.2729 59.0794ZM44.8694 52.5845C45.8542 51.3656 46.4685 49.887 46.6199 48.3719C46.6709 47.8633 46.6406 46.8275 46.5615 46.3644C46.3438 45.0901 45.8777 43.998 45.126 43.0001C44.9844 42.8121 44.7781 42.5609 44.6677 42.4418L44.467 42.2252L44.2808 42.4271C44.0354 42.6933 43.6262 43.2364 43.4202 43.5698C42.373 45.2628 42.0312 47.3427 42.4746 49.3222C42.7537 50.5679 43.395 51.8228 44.2595 52.814L44.4587 53.0422L44.5459 52.9598C44.5938 52.9144 44.7393 52.7456 44.8694 52.5845Z" fill="#FFFFFF" fill-opacity="1.000000" fill-rule="nonzero"/>
	</g>
	<rect id="chanel" rx="47" ry="47" width="45.934223" height="45.934223" transform="translate(21.502441 24.127930) rotate(-0.000000)" stroke="#CDCCCC" stroke-opacity="1.000000" stroke-width="1.000000"/>
	<rect id="shield-antivirus-svgrepo-com 1" width="35.689922" height="35.689926" transform="matrix(-0.972708 0.232033 0.232033 0.972708 34.7158 19.7012)" fill="#FFFFFF" fill-opacity="0"/>
	<g clip-path="url(#clip108_6191)">
		<g filter="url(#filter_108_6192_dd)">
			<path id="Vector" d="M22.9946 55.2288L23.606 54.4472C26.9583 50.1445 31.1289 44.7916 29.418 37.6186L27.7876 30.7841L26.5815 31.0718C22.2268 32.1106 18.4895 30.9927 17.8882 28.4716L15.4761 29.047C16.0771 31.5681 13.2471 34.2527 8.89209 35.2914L7.68604 35.5792L9.31641 42.4136C11.0273 49.5867 17.1655 52.4805 22.0974 54.8058L22.9946 55.2288Z" fill="#D84025" fill-opacity="1.000000" fill-rule="nonzero"/>
		</g>
		<g filter="url(#filter_108_6193_dd)">
			<path id="Vector" d="M8.89258 35.2914C13.2471 34.2526 16.0776 31.5681 15.4761 29.047L16.6821 28.7593L22.9958 55.2274L22.9946 55.2288L22.0974 54.8058C17.1655 52.4805 11.0278 49.5867 9.31641 42.4136L7.68652 35.5792L8.89258 35.2914Z" fill="#A13023" fill-opacity="1.000000" fill-rule="nonzero"/>
		</g>
	</g>
	<rect id="helmet_red" width="30.570757" height="31.864920" transform="translate(31.929443 0.000000)" fill="#FFFFFF" fill-opacity="0"/>
	<g clip-path="url(#clip108_6194)">
		<g filter="url(#filter_108_6196_dd)">
			<path id="Vector" d="M54.4436 22.5884C54.7527 23.8439 55.0605 25.0985 55.3672 26.3521C52.543 27.9683 48.9771 28.8708 44.4976 28.8724L44.4976 23.6889L54.4436 22.5884Z" fill="#535353" fill-opacity="1.000000" fill-rule="evenodd"/>
			<path id="Vector" d="M34.5598 22.5884C34.2463 23.8439 33.9358 25.0985 33.6279 26.3521C36.4583 27.9683 40.0161 28.8708 44.4976 28.8724L44.4976 23.6889L34.5598 22.5884Z" fill="#676767" fill-opacity="1.000000" fill-rule="evenodd"/>
			<path id="Vector" d="M42.2742 9.07593C35.8218 3.36945 48.0227 3.91022 51.4614 1.01904C51.7041 1.2605 51.8479 1.55072 51.8752 1.85376C51.9023 2.15674 51.8118 2.45917 51.6143 2.72339C53.1409 3.67163 55.8242 2.37787 57.2793 4.19531C55.6304 4.12402 54.6265 4.61829 54.0142 5.27991C58.5364 4.75616 56.7671 7.9433 60.6321 8.12305C57.7527 9.34241 50.99 7.00128 46.8086 9.85059C44.9209 9.79791 44.1619 9.13324 42.2742 9.07593Z" fill="#A23023" fill-opacity="1.000000" fill-rule="evenodd"/>
			<path id="Vector" d="M60.6299 8.07031C57.7798 9.32965 51.0664 6.93005 46.9158 9.85059C46.1433 9.81775 45.3835 9.68408 44.6672 9.45514C50.0962 4.66058 54.9133 8.91675 60.6321 8.07031L60.6299 8.07031Z" fill="#1A1A1A" fill-opacity="1.000000" fill-rule="evenodd"/>
			<path id="Vector" d="M42.6509 8.59113C43.396 8.64917 44.127 8.78314 44.8232 8.9892L44.8723 9.0014C44.6292 8.72992 44.3901 8.45844 44.155 8.18695C42.0198 6.37048 46.5137 4.22156 49.2393 3.78076C50.2207 4.41522 51.7332 4.11481 52.5078 4.56012C51.8396 5.10004 51.4258 6.03345 50.7556 6.57336C58.4075 5.79858 54.9216 7.64093 58.5938 7.99786C58.3467 7.87286 58.1221 7.72473 57.9258 7.55707C56.6963 6.51233 56.8787 5.37152 54.1982 5.67657L52.7065 5.84583C52.9702 5.57336 53.2358 5.30139 53.5037 5.02991C54.1079 4.39929 55.0173 3.9679 56.0405 3.82654C55.8008 3.72211 55.5364 3.65222 55.2617 3.62061C55 3.59113 54.7356 3.57532 54.4709 3.57336C53.2781 3.552 52.1409 3.62213 51.1921 3.05176L50.8396 2.83673C50.9094 2.74213 50.981 2.64911 51.0444 2.55609C51.2031 2.34729 51.2698 2.10669 51.2351 1.86823C50.0056 2.56219 48.3047 3.02887 46.8477 3.41626C45.6941 3.72131 44.4829 4.02631 43.3887 4.40607C42.6162 4.67755 41.7493 5.05426 41.3394 5.56976C40.5957 6.53064 41.7451 7.77972 42.6509 8.59113Z" fill="#EF4123" fill-opacity="1.000000" fill-rule="evenodd"/>
			<path id="Vector" d="M43.7261 8.71741C44.1138 8.79333 44.4961 8.88403 44.8716 8.98914L44.9207 9.0014C44.6782 8.72821 44.4402 8.45496 44.2058 8.18176C42.0781 6.35364 46.5564 4.19092 49.2722 3.74731C50.2502 4.38586 51.7573 4.0835 52.5293 4.53168C51.8635 5.07507 51.4512 6.0144 50.7834 6.5578C58.4082 5.77808 54.9348 7.63226 58.5942 7.99139C56.689 7.61841 56.7236 6.27075 55.6414 5.9469C54.5591 5.62305 53.1296 6.36902 52.0393 6.0451C52.1536 5.42041 52.6702 4.91235 53.4216 4.13721C52.3782 3.6629 49.7461 4.08655 50.2932 2.71741C47.9509 4.65912 40.4058 3.8548 43.2686 8.55011L43.7261 8.71741Z" fill="#D03927" fill-opacity="1.000000" fill-rule="evenodd"/>
			<path id="Vector" d="M47.8943 10.445C47.8943 11.7113 46.3354 12.7379 44.4126 12.7379C42.4897 12.7379 40.9309 11.7113 40.9309 10.445C40.9309 9.17877 42.4897 8.15222 44.4126 8.15222C46.3354 8.15222 47.8943 9.17877 47.8943 10.445Z" fill="#CDCCCC" fill-opacity="1.000000" fill-rule="evenodd"/>
			<path id="Vector" d="M44.428 10.5299C48.793 10.5299 52.5227 12.2605 54.0144 14.7017C54.8159 14.959 55.3669 15.4889 55.3669 16.0954C55.363 16.297 55.3022 16.4957 55.1885 16.6786C55.0747 16.8615 54.9109 17.0244 54.7073 17.1567C54.6333 20.7266 50.0593 23.6074 44.428 23.6074C38.7964 23.6074 34.2388 20.7328 34.1528 17.1721C33.9399 17.0392 33.7678 16.8738 33.6479 16.687C33.5281 16.5002 33.4634 16.2964 33.458 16.0892C33.458 15.4767 34.0278 14.936 34.8474 14.6833C36.3455 12.2482 40.0691 10.5299 44.428 10.5299Z" fill="#8B8A8A" fill-opacity="1.000000" fill-rule="evenodd"/>
			<path id="Vector" d="M42.7991 20.2107C46.637 20.2107 49.7625 18.2312 49.7625 15.7949C49.7625 13.3586 46.6309 11.3792 42.7991 11.3792C38.967 11.3792 35.8357 13.3586 35.8357 15.7949C35.8357 18.2312 38.959 20.2107 42.7991 20.2107Z" fill="#989898" fill-opacity="1.000000" fill-rule="evenodd"/>
			<path id="Vector" d="M40.676 15.2853C42.1267 15.2853 43.3083 14.5219 43.3083 13.587C43.3083 12.6521 42.1267 11.8886 40.676 11.8886C39.2251 11.8886 38.0435 12.6505 38.0435 13.587C38.0435 14.5234 39.2373 15.2853 40.676 15.2853Z" fill="#ACACAC" fill-opacity="1.000000" fill-rule="evenodd"/>
			<path id="Vector" d="M44.4976 14.2665L44.3979 14.2665C43.0095 14.2611 41.6313 14.4487 40.3311 14.8201L32.7788 16.9646L32.7788 23.3547C36.0833 26.2792 39.9365 28.5695 44.4976 30.0613L44.4976 14.2665Z" fill="#CDCCCC" fill-opacity="1.000000" fill-rule="evenodd"/>
			<path id="Vector" d="M42.7991 15.2854C42.1973 15.3616 41.6069 15.484 41.0364 15.6509L39.5886 16.0679L39.5886 26.7622C40.6104 27.3513 41.6824 27.886 42.7971 28.3629L42.7971 15.2854L42.7991 15.2854ZM38.9087 16.2639L36.6567 16.9125L36.6567 24.8458C37.3687 25.37 38.1187 25.8771 38.9087 26.3594L38.9087 16.2639ZM35.979 17.1069L34.4771 17.5394L34.4771 23.0865C34.9583 23.5096 35.459 23.9244 35.979 24.3309L35.979 17.1069Z" fill="#333333" fill-opacity="1.000000" fill-rule="evenodd"/>
			<path id="Vector" d="M44.4976 14.2664L44.5972 14.2664C45.9822 14.262 47.3569 14.4496 48.6541 14.82L56.2163 16.963L56.2163 23.3532C52.9099 26.2792 49.0566 28.5695 44.4976 30.0613L44.4976 14.2664Z" fill="#B4B4B4" fill-opacity="1.000000" fill-rule="evenodd"/>
			<path id="Vector" d="M46.1958 15.2854C46.8098 15.3618 47.4126 15.4842 47.9949 15.6509L49.4727 16.0679L49.4727 26.7622C48.4294 27.351 47.3354 27.8857 46.1978 28.3629L46.1978 15.2854L46.1958 15.2854ZM50.1665 16.2639L52.4629 16.9125L52.4629 24.8458C51.7383 25.37 50.9729 25.8771 50.1665 26.3594L50.1665 16.2639ZM53.1567 17.1069L54.6877 17.5394L54.6877 23.0865C54.1978 23.5096 53.6875 23.9244 53.1567 24.3309L53.1567 17.1069Z" fill="#1A1A1A" fill-opacity="1.000000" fill-rule="evenodd"/>
			<path id="Vector" d="M43.5339 8.66174C44.1858 8.66174 44.4985 8.96661 44.2332 9.34106C44.0652 9.54108 43.8242 9.70856 43.5332 9.82751C43.2424 9.94647 42.9114 10.0129 42.5715 10.0204C41.9219 10.0204 41.6091 9.71698 41.8745 9.34106C42.0427 9.14148 42.2832 8.97424 42.5737 8.85535C42.8643 8.73645 43.1948 8.6698 43.5339 8.66174Z" fill="#E3E3E3" fill-opacity="1.000000" fill-rule="evenodd"/>
		</g>
	</g>
	<rect id="sword_red" width="28.884270" height="51.868382" transform="translate(59.613037 0.000000)" fill="#FFFFFF" fill-opacity="0"/>
	<g clip-path="url(#clip108_6212)">
		<g filter="url(#filter_108_6214_dd)">
			<path id="Vector" d="M60.009 47.2835L60.145 47.3539C60.2993 47.4366 60.4707 47.4818 60.6458 47.4855C60.8208 47.4893 60.9941 47.4517 61.1519 47.3757C61.3115 47.3045 61.4521 47.1966 61.5625 47.0608C61.6729 46.925 61.7495 46.7651 61.7864 46.5942C62.0991 45.228 62.7244 43.5585 63.6138 41.8343C64.5034 40.1101 65.5022 38.6345 66.4277 37.5887C66.5437 37.4584 66.6284 37.3033 66.675 37.1353C66.7219 36.9673 66.7297 36.7908 66.698 36.6193C66.666 36.4478 66.5955 36.2859 66.4915 36.1459C66.3875 36.0059 66.2529 35.8914 66.0979 35.8114L65.9602 35.7411L66.5261 34.6469L69.1838 36.0162L71.8413 37.384L71.2754 38.4782L71.1394 38.4078C70.9836 38.3264 70.8113 38.2819 70.6357 38.2777C70.46 38.2736 70.2856 38.31 70.1265 38.3841C69.967 38.4581 69.8269 38.5679 69.7168 38.7048C69.6067 38.8418 69.5298 39.0023 69.4917 39.1738C69.179 40.5385 68.5537 42.2095 67.6643 43.9321C66.7747 45.6547 65.7759 47.1319 64.8503 48.1777C64.7344 48.3081 64.6499 48.4633 64.603 48.6314C64.5562 48.7996 64.5483 48.9761 64.5801 49.1478C64.6121 49.3194 64.6826 49.4814 64.7866 49.6216C64.8906 49.7618 65.0251 49.8763 65.1802 49.9565L65.3179 50.0269L64.752 51.1211L62.0945 49.7533L59.4431 48.3793L60.009 47.2835Z" fill="#CA3927" fill-opacity="1.000000" fill-rule="evenodd"/>
			<path id="Vector" d="M66.7737 38.234C67.2122 38.4626 66.6033 40.5413 65.4124 42.8737C64.2212 45.2061 62.8999 46.9135 62.4695 46.6848C62.0388 46.4561 62.6399 44.3774 63.8308 42.045C65.022 39.7126 66.3354 38.0053 66.7737 38.234Z" fill="#F04B23" fill-opacity="1.000000" fill-rule="evenodd"/>
			<path id="Vector" d="M86.1077 3.39673L84.6833 11.4454L71.3965 37.1944L67.0859 34.9697L80.3728 9.2207L86.1077 3.39673Z" fill="#D1D2D2" fill-opacity="1.000000" fill-rule="evenodd"/>
			<path id="Vector" d="M81.8081 7.74432L84.0703 6.27112L83.2749 11.0728L71.3318 37.1944L84.677 11.4454L86.1077 3.39673L81.8081 7.74432Z" fill="#E6E6E5" fill-opacity="1.000000" fill-rule="evenodd"/>
			<path id="Vector" d="M82.3713 10.6998L76.0933 23.5217L69.814 36.3452L69.1284 35.9965L68.4446 35.6477L75.408 23.1745L82.3713 10.6998Z" fill="#818181" fill-opacity="1.000000" fill-rule="evenodd"/>
			<path id="Vector" d="M65.7727 33.4233L73.3723 37.3669C73.7629 37.084 74.2371 36.9418 74.718 36.9631C75.1992 36.9844 75.6589 37.168 76.0234 37.4843C76.3879 37.8005 76.636 38.231 76.7275 38.7064C76.8191 39.1817 76.7485 39.6742 76.5278 40.1044C76.3069 40.5346 75.9482 40.8774 75.51 41.0777C75.0715 41.2779 74.5789 41.3238 74.1116 41.208C73.644 41.0922 73.229 40.8215 72.9331 40.4394C72.6375 40.0573 72.4783 39.5862 72.4814 39.1021L64.8818 35.1585C64.4905 35.4421 64.0156 35.585 63.5339 35.5639C63.052 35.5428 62.5913 35.3592 62.2261 35.0425C61.8606 34.7258 61.6121 34.2946 61.5203 33.8185C61.4287 33.3423 61.499 32.8489 61.7205 32.418C61.9417 31.987 62.3008 31.6436 62.74 31.4431C63.1792 31.2426 63.6726 31.1968 64.1409 31.3129C64.6091 31.4291 65.0249 31.7006 65.321 32.0834C65.6169 32.4663 65.7761 32.9384 65.7727 33.4233Z" fill="#333333" fill-opacity="1.000000" fill-rule="evenodd"/>
		</g>
	</g>
	<g filter="url(#filter_108_6221_dd)">
		<path id="Chanel S. A. " d="M14.6965 83.902C13.4725 83.902 12.4405 83.49 11.6005 82.666C11.2085 82.274 10.9005 81.806 10.6765 81.262C10.4445 80.686 10.3285 80.086 10.3285 79.462C10.3285 78.806 10.4485 78.198 10.6885 77.638C10.9365 77.062 11.2525 76.586 11.6365 76.21C12.4925 75.378 13.5245 74.962 14.7325 74.962C15.6445 74.962 16.4205 75.186 17.0605 75.634C17.3325 75.81 17.5885 76.034 17.8285 76.306C18.2285 76.77 18.5005 77.282 18.6445 77.842L17.7685 78.154C17.6805 77.818 17.5085 77.466 17.2525 77.098C17.0685 76.85 16.8805 76.646 16.6885 76.486C16.4645 76.294 16.1845 76.142 15.8485 76.03C15.5125 75.902 15.1325 75.838 14.7085 75.838C13.7645 75.838 12.9645 76.166 12.3085 76.822C11.6285 77.502 11.2885 78.362 11.2885 79.402C11.2885 80.098 11.4365 80.718 11.7325 81.262C12.0205 81.814 12.4325 82.246 12.9685 82.558C13.4805 82.87 14.0645 83.026 14.7205 83.026C15.4885 83.026 16.1285 82.822 16.6405 82.414C16.8725 82.238 17.0645 82.038 17.2165 81.814C17.3685 81.614 17.4925 81.414 17.5885 81.214C17.6685 81.022 17.7365 80.846 17.7925 80.686L18.6685 80.998C18.5245 81.518 18.2565 82.014 17.8645 82.486C17.6565 82.734 17.4045 82.97 17.1085 83.194C16.4445 83.666 15.6405 83.902 14.6965 83.902ZM25.2595 83.806L24.3835 83.806L24.3835 80.338C24.3835 79.786 24.2435 79.346 23.9635 79.018C23.6835 78.69 23.2755 78.526 22.7395 78.526C22.2195 78.526 21.7915 78.706 21.4555 79.066C21.1275 79.434 20.9635 79.882 20.9635 80.41L20.9635 83.806L20.0875 83.806L20.0875 74.71L20.9635 74.71L20.9635 78.91C21.4275 78.126 22.1075 77.734 23.0035 77.734C23.7075 77.734 24.2635 77.95 24.6715 78.382C25.0635 78.838 25.2595 79.418 25.2595 80.122L25.2595 83.806ZM29.0979 80.362L30.7539 80.362L30.7539 79.966C30.7539 78.998 30.2459 78.514 29.2299 78.514C28.7419 78.514 28.3659 78.646 28.1019 78.91C27.8619 79.15 27.7179 79.422 27.6699 79.726L26.8299 79.546C26.8379 79.378 26.9179 79.166 27.0699 78.91C27.2219 78.654 27.4219 78.426 27.6699 78.226C28.0939 77.898 28.6219 77.734 29.2539 77.734C30.3419 77.734 31.0659 78.146 31.4259 78.97C31.5459 79.25 31.6059 79.578 31.6059 79.954L31.6059 81.634C31.6059 82.61 31.6379 83.334 31.7019 83.806L30.8379 83.806C30.7819 83.502 30.7539 83.154 30.7539 82.762C30.2499 83.53 29.5779 83.914 28.7379 83.914C28.1379 83.914 27.6579 83.746 27.2979 83.41C26.9219 83.082 26.7339 82.662 26.7339 82.15L26.7339 82.09C26.7339 81.498 26.9699 81.062 27.4419 80.782C27.9219 80.502 28.4739 80.362 29.0979 80.362ZM30.7539 81.286L30.7539 81.082L29.0859 81.082C28.7179 81.082 28.3939 81.15 28.1139 81.286C27.7779 81.43 27.6099 81.694 27.6099 82.078C27.6099 82.406 27.7339 82.666 27.9819 82.858C28.2219 83.05 28.5259 83.146 28.8939 83.146C29.4139 83.146 29.8579 82.97 30.2259 82.618C30.5779 82.282 30.7539 81.838 30.7539 81.286ZM38.6775 83.806L37.8015 83.806L37.8015 80.338C37.8015 79.786 37.6615 79.346 37.3815 79.018C37.1015 78.69 36.6935 78.526 36.1575 78.526C35.6375 78.526 35.2095 78.706 34.8735 79.066C34.5455 79.434 34.3815 79.882 34.3815 80.41L34.3815 83.806L33.5055 83.806L33.5055 77.842L34.3575 77.842L34.3575 78.934C34.8375 78.134 35.5255 77.734 36.4215 77.734C37.1255 77.734 37.6815 77.95 38.0895 78.382C38.4815 78.838 38.6775 79.418 38.6775 80.122L38.6775 83.806ZM45.8399 81.094L41.0159 81.094C41.0479 81.678 41.2679 82.162 41.6759 82.546C42.0759 82.938 42.5679 83.134 43.1519 83.134C43.6079 83.134 43.9959 83.026 44.3159 82.81C44.6359 82.586 44.8639 82.27 44.9999 81.862L45.7679 82.102C45.5999 82.662 45.2759 83.106 44.7959 83.434C44.2999 83.754 43.7559 83.914 43.1639 83.914C42.6039 83.914 42.0879 83.774 41.6159 83.494C41.1439 83.214 40.7839 82.838 40.5359 82.366C40.2719 81.902 40.1399 81.386 40.1399 80.818C40.1399 80.274 40.2639 79.77 40.5119 79.306C40.7439 78.834 41.0919 78.454 41.5559 78.166C42.0039 77.878 42.4999 77.734 43.0439 77.734C43.6439 77.734 44.1559 77.87 44.5799 78.142C45.0119 78.406 45.3319 78.77 45.5399 79.234C45.7479 79.674 45.8519 80.198 45.8519 80.806C45.8519 80.91 45.8479 81.006 45.8399 81.094ZM41.0279 80.35L44.9759 80.35C44.9199 79.806 44.7199 79.358 44.3759 79.006C44.0399 78.67 43.5959 78.502 43.0439 78.502C42.5399 78.502 42.0959 78.682 41.7119 79.042C41.3279 79.418 41.0999 79.854 41.0279 80.35ZM47.357 83.806L47.357 74.698L48.233 74.698L48.233 83.806L47.357 83.806ZM55.9739 83.89C55.1259 83.89 54.4139 83.634 53.8379 83.122C53.2779 82.634 52.9579 82.066 52.8779 81.418L53.7419 81.178C53.8379 81.69 54.1019 82.126 54.5339 82.486C54.9579 82.846 55.4379 83.026 55.9739 83.026C56.5099 83.026 56.9579 82.898 57.3179 82.642C57.7259 82.362 57.9299 81.958 57.9299 81.43C57.9299 80.886 57.6859 80.47 57.1979 80.182C56.9739 80.046 56.6979 79.946 56.3699 79.882L55.2179 79.654C54.9859 79.606 54.7299 79.522 54.4499 79.402C54.1619 79.266 53.9219 79.102 53.7299 78.91C53.3219 78.51 53.1179 78.006 53.1179 77.398C53.1179 76.918 53.2499 76.49 53.5139 76.114C53.7699 75.746 54.1099 75.458 54.5339 75.25C54.9499 75.058 55.4019 74.962 55.8899 74.962C56.7459 74.962 57.4139 75.174 57.8939 75.598C58.3819 76.022 58.6779 76.51 58.7819 77.062L57.9419 77.326C57.8539 76.934 57.6379 76.586 57.2939 76.282C56.9579 75.97 56.4859 75.814 55.8779 75.814C55.3979 75.798 54.9699 75.942 54.5939 76.246C54.2179 76.55 54.0339 76.922 54.0419 77.362C54.0419 77.706 54.1499 78.002 54.3659 78.25C54.5819 78.498 54.8979 78.662 55.3139 78.742L56.4179 78.958C57.1779 79.102 57.7459 79.358 58.1219 79.726C58.3779 79.958 58.5699 80.226 58.6979 80.53C58.8179 80.826 58.8779 81.094 58.8779 81.334C58.8859 82.094 58.6099 82.714 58.0499 83.194C57.4899 83.674 56.7979 83.906 55.9739 83.89ZM60.494 83.674C60.334 83.498 60.254 83.306 60.254 83.098C60.254 82.882 60.334 82.694 60.494 82.534C60.646 82.382 60.834 82.306 61.058 82.306C61.282 82.306 61.47 82.382 61.622 82.534C61.782 82.694 61.862 82.882 61.862 83.098C61.862 83.306 61.782 83.498 61.622 83.674C61.47 83.826 61.282 83.902 61.058 83.902C60.834 83.902 60.646 83.826 60.494 83.674ZM71.033 83.806L70.073 81.574L65.309 81.574L64.349 83.806L63.413 83.806L67.181 75.058L68.225 75.058L72.005 83.806L71.033 83.806ZM69.725 80.734L67.685 76.006L65.657 80.734L69.725 80.734ZM73.0331 83.674C72.8731 83.498 72.7931 83.306 72.7931 83.098C72.7931 82.882 72.8731 82.694 73.0331 82.534C73.1851 82.382 73.3731 82.306 73.5971 82.306C73.8211 82.306 74.0091 82.382 74.1611 82.534C74.3211 82.694 74.4011 82.882 74.4011 83.098C74.4011 83.306 74.3211 83.498 74.1611 83.674C74.0091 83.826 73.8211 83.902 73.5971 83.902C73.3731 83.902 73.1851 83.826 73.0331 83.674Z" fill="#FFFFFF" fill-opacity="1.000000" fill-rule="evenodd"/>
	</g>
	<rect id="dior" rx="47" ry="47" width="45.934223" height="45.934223" transform="translate(143.580078 24.127930)" fill="#000000" fill-opacity="1.000000"/>
	<g clip-path="url(#clip108_6223)">
		<rect id="Dior_Logo 1" width="34.418430" height="14.914654" transform="translate(149.337891 39.272644)" fill="#FFFFFF" fill-opacity="0"/>
		<g clip-path="url(#clip108_6224)">
			<mask id="mask108_6227" mask-type="alpha" maskUnits="userSpaceOnUse" x="136.239258" y="17.744995" width="176.381592" height="228.258545">
				<path id="path2463" d="M136.239 246.004L312.621 246.004L312.621 17.745L136.239 17.745L136.239 246.004Z" fill="#000000" fill-opacity="1.000000" fill-rule="nonzero"/>
			</mask>
			<g mask="url(#mask108_6227)">
				<mask id="mask108_6231" mask-type="alpha" maskUnits="userSpaceOnUse" x="150.383789" y="40.324097" width="32.348877" height="12.998535">
					<path id="path2466" d="M150.384 53.3226L182.733 53.3226L182.733 40.3241L150.384 40.3241L150.384 53.3226Z" fill="#000000" fill-opacity="1.000000" fill-rule="nonzero"/>
				</mask>
				<g mask="url(#mask108_6231)">
					<path id="path2495" d="M177.591 48.1619C177.581 48.1011 177.581 48.0482 177.884 47.9536C178.185 47.8602 178.919 47.6114 179.365 47.3649C179.811 47.116 179.885 47.0811 179.99 47.1509C180.094 47.2196 180.064 47.3885 180.064 47.5078L180.064 48.7169C180.228 48.449 180.763 47.5574 181.189 47.295C181.523 47.0879 181.641 47.071 181.849 47.0665C182.097 47.062 182.685 47.2151 182.711 47.8354C182.731 48.3206 182.373 48.5154 182.146 48.485C181.963 48.4591 181.833 48.2914 181.725 48.1225C181.615 47.9514 181.442 47.85 181.269 47.9086C181.095 47.9683 180.124 48.5987 180.069 49.4949C180.029 50.1546 180.069 52.2114 180.069 52.2114C180.069 52.5233 180.188 52.6437 180.328 52.7271C180.466 52.8115 180.976 52.816 181.119 52.8362C181.264 52.8565 181.259 52.8903 181.259 52.9353C181.259 52.9792 181.259 53.0006 181.13 53.0006L177.715 53.0006C177.605 53.0006 177.562 52.9792 177.562 52.915C177.562 52.8261 177.705 52.8419 177.814 52.8261C177.923 52.8115 178.5 52.8588 178.666 52.5683C178.788 52.3781 178.773 52.0718 178.773 52.0718L178.756 48.4591C178.756 48.1675 178.669 48.1248 178.589 48.0786C178.508 48.0324 178.374 48.0077 178.092 48.1034C177.825 48.1912 177.641 48.2734 177.591 48.1619Z" fill="#FFFFFF" fill-opacity="1.000000" fill-rule="nonzero"/>
					<path id="path2497" d="M165.645 48.163C165.599 48.0741 165.684 48.0167 165.938 47.9503C166.22 47.8748 166.839 47.6868 167.33 47.4088C167.821 47.1318 167.906 47.1025 168.009 47.1363C168.114 47.1712 168.104 47.3547 168.104 47.5033L168.104 52.1776C168.104 52.4399 168.139 52.5491 168.257 52.6583C168.376 52.7676 168.673 52.8317 169.06 52.8317C169.234 52.8317 169.288 52.852 169.288 52.9263C169.288 53.0006 169.234 53.0006 169.164 53.0006L165.774 53.0006C165.67 53.0006 165.645 52.9556 165.645 52.9117C165.645 52.8565 165.691 52.8216 165.849 52.8216C165.982 52.8216 166.595 52.8677 166.735 52.5491C166.789 52.4276 166.815 52.2576 166.815 52.0988L166.815 48.3904C166.815 48.109 166.596 47.984 166.344 48.0448C166.049 48.1124 165.706 48.279 165.645 48.163Z" fill="#FFFFFF" fill-opacity="1.000000" fill-rule="nonzero"/>
					<path id="path2499" d="M167.373 44.9297C167.834 44.9297 168.208 44.556 168.208 44.0966C168.208 43.6362 167.834 43.2635 167.373 43.2635C166.914 43.2635 166.541 43.6362 166.541 44.0966C166.541 44.556 166.914 44.9297 167.373 44.9297Z" fill="#FFFFFF" fill-opacity="1.000000" fill-rule="nonzero"/>
					<path id="path2501" d="M171.448 50.2311C171.615 51.7476 172.518 52.9274 173.637 52.7292C174.758 52.5311 175.32 51.4604 175.185 49.7458C175.047 48.002 174.184 47.1318 173.023 47.2365C171.823 47.3456 171.279 48.7135 171.448 50.2311ZM172.557 46.9697C174.002 46.6995 176.056 47.0181 176.524 49.2787C176.99 51.5392 175.434 52.7427 174.084 53.0366C172.765 53.3225 170.524 53.1188 170.119 50.687C169.754 48.5041 171.338 47.197 172.557 46.9697Z" fill="#FFFFFF" fill-opacity="1.000000" fill-rule="nonzero"/>
					<path id="path2503" d="M155.457 52.6348L156.294 52.6348C159.411 52.6348 160.247 52.3454 161.344 50.8886C162.44 49.4318 162.571 47.3401 162.571 46.6331C162.571 45.9261 162.383 44.1518 161.286 42.6511C160.188 41.1505 158.357 40.7609 156.755 40.7609L155.45 40.7609C155.14 40.7609 155.125 40.8983 155.125 41.1144L155.125 52.36C155.125 52.6055 155.211 52.6348 155.457 52.6348ZM150.383 52.8982C150.383 52.7845 150.53 52.7653 150.668 52.7608C152.254 52.7158 152.55 52.6606 152.731 52.4726C152.83 52.3691 152.976 52.2846 152.976 51.5494L152.976 41.4352C152.976 40.5267 151.872 40.6708 151.093 40.5909C150.82 40.5639 150.797 40.5267 150.797 40.4468C150.797 40.368 150.849 40.3297 150.992 40.3241L157.383 40.3241C164.41 40.3241 164.77 45.4611 164.77 46.8312C164.77 49.7752 162.823 53.013 158.754 53.013L150.588 53.013C150.488 53.013 150.383 52.9995 150.383 52.8982Z" fill="#FFFFFF" fill-opacity="1.000000" fill-rule="nonzero"/>
				</g>
			</g>
		</g>
	</g>
	<rect id="dior" rx="47" ry="47" width="45.934223" height="45.934223" transform="translate(143.580078 24.127930)" stroke="#CDCCCC" stroke-opacity="1.000000" stroke-width="1.000000"/>
	<rect id="shield-antivirus-svgrepo-com 1" width="35.825710" height="35.825710" transform="translate(177.151855 19.739014) rotate(-13.416809)" fill="#FFFFFF" fill-opacity="0"/>
	<g clip-path="url(#clip108_6239)">
		<g filter="url(#filter_108_6240_dd)">
			<path id="Vector" d="M188.918 55.4019L188.304 54.6172C184.939 50.2982 180.752 44.9249 182.47 37.7246L184.107 30.8641L185.317 31.153C189.688 32.1957 193.44 31.0736 194.044 28.5428L196.465 29.1204C195.862 31.6512 198.703 34.3459 203.074 35.3887L204.284 35.6774L202.648 42.538C200.93 49.7382 194.769 52.6431 189.819 54.9773L188.918 55.4019Z" fill="#7AB9E8" fill-opacity="1.000000" fill-rule="nonzero"/>
		</g>
		<g filter="url(#filter_108_6241_dd)">
			<path id="Vector" d="M203.074 35.3887C198.702 34.3459 195.861 31.6512 196.465 29.1205L195.254 28.8317L188.917 55.4005L188.918 55.4019L189.818 54.9773C194.769 52.6431 200.93 49.7383 202.648 42.538L204.284 35.6775L203.074 35.3887Z" fill="#579ADF" fill-opacity="1.000000" fill-rule="nonzero"/>
		</g>
	</g>
	<rect id="helmet_red" width="30.687067" height="31.986153" transform="matrix(-1 0 0 1 179.748 0)" fill="#FFFFFF" fill-opacity="0"/>
	<g clip-path="url(#clip108_6242)">
		<g filter="url(#filter_108_6244_dd)">
			<path id="Vector" d="M157.148 22.6743C156.838 23.9347 156.529 25.194 156.221 26.4523C159.056 28.0747 162.635 28.9807 167.132 28.9822L167.132 23.7791L157.148 22.6743Z" fill="#535353" fill-opacity="1.000000" fill-rule="evenodd"/>
			<path id="Vector" d="M177.107 22.6743C177.422 23.9347 177.733 25.194 178.042 26.4523C175.201 28.0747 171.63 28.9807 167.132 28.9822L167.132 23.7791L177.107 22.6743Z" fill="#676767" fill-opacity="1.000000" fill-rule="evenodd"/>
			<path id="Vector" d="M169.363 9.11041C175.84 3.38226 163.593 3.92505 160.141 1.02289C159.897 1.26526 159.753 1.55658 159.726 1.86078C159.698 2.16492 159.79 2.46851 159.988 2.7337C158.455 3.68555 155.762 2.3869 154.301 4.21124C155.956 4.13971 156.964 4.6358 157.579 5.29993C153.039 4.77423 154.815 7.97345 150.936 8.15387C153.826 9.37793 160.615 7.02789 164.812 9.88806C166.706 9.83514 167.469 9.16797 169.363 9.11041Z" fill="#1B2241" fill-opacity="1.000000" fill-rule="evenodd"/>
			<path id="Vector" d="M150.938 8.10101C153.799 9.36517 160.538 6.95642 164.704 9.88806C165.479 9.8551 166.242 9.72095 166.961 9.49115C161.511 4.67834 156.676 8.95068 150.936 8.10101L150.938 8.10101Z" fill="#1A1A1A" fill-opacity="1.000000" fill-rule="evenodd"/>
			<path id="Vector" d="M168.985 8.62378C168.237 8.68207 167.504 8.81653 166.805 9.02338L166.755 9.03564C167 8.76312 167.24 8.4906 167.475 8.21808C169.619 6.39471 165.108 4.23761 162.372 3.7951C161.387 4.43201 159.869 4.13043 159.091 4.57745C159.761 5.11945 160.177 6.0564 160.85 6.59833C153.169 5.82062 156.668 7.66998 152.982 8.02826C153.23 7.90277 153.455 7.75409 153.652 7.58582C154.886 6.53711 154.703 5.39191 157.394 5.69812L158.891 5.86804C158.627 5.59454 158.36 5.32153 158.091 5.04901C157.485 4.41602 156.572 3.98297 155.545 3.84106C155.785 3.73621 156.051 3.66608 156.326 3.6344C156.589 3.6048 156.854 3.58893 157.12 3.58691C158.318 3.56549 159.459 3.63593 160.412 3.06335L160.765 2.84747C160.696 2.75256 160.624 2.65918 160.56 2.5658C160.4 2.35614 160.333 2.11469 160.368 1.87531C161.603 2.5719 163.31 3.04034 164.772 3.42926C165.931 3.73541 167.146 4.04163 168.245 4.42285C169.02 4.69531 169.89 5.07349 170.302 5.59094C171.048 6.55548 169.895 7.80933 168.985 8.62378Z" fill="#4386BB" fill-opacity="1.000000" fill-rule="evenodd"/>
			<path id="Vector" d="M167.906 8.75055C167.517 8.82678 167.133 8.91779 166.756 9.02332L166.707 9.03564C166.95 8.76135 167.189 8.48712 167.425 8.21283C169.561 6.37781 165.065 4.20685 162.339 3.7616C161.357 4.40253 159.844 4.099 159.07 4.54889C159.738 5.09436 160.152 6.03729 160.822 6.5827C153.168 5.79999 156.655 7.66125 152.982 8.02179C154.894 7.6474 154.859 6.29462 155.946 5.96948C157.032 5.64441 158.467 6.39319 159.562 6.06812C159.447 5.44104 158.928 4.93103 158.174 4.15295C159.221 3.67682 161.864 4.10211 161.314 2.72772C163.665 4.67682 171.239 3.86945 168.365 8.58264L167.906 8.75055Z" fill="#283A84" fill-opacity="1.000000" fill-rule="evenodd"/>
			<path id="Vector" d="M163.722 10.4847C163.722 11.7559 165.287 12.7863 167.217 12.7863C169.147 12.7863 170.712 11.7559 170.712 10.4847C170.712 9.21368 169.147 8.18323 167.217 8.18323C165.287 8.18323 163.722 9.21368 163.722 10.4847Z" fill="#CDCCCC" fill-opacity="1.000000" fill-rule="evenodd"/>
			<path id="Vector" d="M167.201 10.57C162.82 10.57 159.076 12.3072 157.578 14.7577C156.774 15.0159 156.221 15.5479 156.221 16.1567C156.225 16.3591 156.286 16.5585 156.4 16.7421C156.514 16.9257 156.679 17.0892 156.883 17.222C156.957 20.8055 161.549 23.6973 167.201 23.6973C172.854 23.6973 177.429 20.8117 177.516 17.2374C177.729 17.1041 177.902 16.938 178.022 16.7505C178.143 16.563 178.208 16.3584 178.213 16.1505C178.213 15.5356 177.641 14.9929 176.818 14.7393C175.315 12.2949 171.577 10.57 167.201 10.57Z" fill="#8B8A8A" fill-opacity="1.000000" fill-rule="evenodd"/>
			<path id="Vector" d="M168.837 20.2876C164.984 20.2876 161.847 18.3005 161.847 15.855C161.847 13.4094 164.99 11.4224 168.837 11.4224C172.683 11.4224 175.826 13.4094 175.826 15.855C175.826 18.3005 172.691 20.2876 168.837 20.2876Z" fill="#989898" fill-opacity="1.000000" fill-rule="evenodd"/>
			<path id="Vector" d="M170.968 15.3435C169.511 15.3435 168.325 14.5771 168.325 13.6387C168.325 12.7003 169.511 11.9338 170.968 11.9338C172.424 11.9338 173.61 12.6987 173.61 13.6387C173.61 14.5787 172.412 15.3435 170.968 15.3435Z" fill="#ACACAC" fill-opacity="1.000000" fill-rule="evenodd"/>
			<path id="Vector" d="M167.132 14.3207L167.232 14.3207C168.625 14.3154 170.009 14.5037 171.314 14.8764L178.895 17.0291L178.895 23.4436C175.578 26.3792 171.71 28.6782 167.132 30.1756L167.132 14.3207Z" fill="#CDCCCC" fill-opacity="1.000000" fill-rule="evenodd"/>
			<path id="Vector" d="M168.836 15.3435C169.44 15.4199 170.033 15.5428 170.606 15.7104L172.059 16.1289L172.059 26.864C171.033 27.4553 169.958 27.9921 168.838 28.4708L168.838 15.3435L168.836 15.3435ZM172.742 16.3257L175.002 16.9768L175.002 24.9402C174.288 25.4665 173.535 25.9755 172.742 26.4596L172.742 16.3257ZM175.682 17.172L177.19 17.6061L177.19 23.1743C176.707 23.599 176.205 24.0154 175.682 24.4235L175.682 17.172Z" fill="#333333" fill-opacity="1.000000" fill-rule="evenodd"/>
			<path id="Vector" d="M167.132 14.3207L167.032 14.3207C165.642 14.3163 164.262 14.5046 162.96 14.8764L155.368 17.0275L155.368 23.442C158.688 26.3792 162.555 28.6782 167.132 30.1756L167.132 14.3207Z" fill="#B4B4B4" fill-opacity="1.000000" fill-rule="evenodd"/>
			<path id="Vector" d="M165.427 15.3435C164.81 15.4202 164.205 15.5431 163.621 15.7104L162.137 16.1289L162.137 26.864C163.185 27.455 164.283 27.9918 165.425 28.4708L165.425 15.3435L165.427 15.3435ZM161.441 16.3257L159.136 16.9768L159.136 24.9402C159.863 25.4665 160.632 25.9755 161.441 26.4596L161.441 16.3257ZM158.439 17.172L156.903 17.6061L156.903 23.1743C157.394 23.599 157.906 24.0154 158.439 24.4235L158.439 17.172Z" fill="#1A1A1A" fill-opacity="1.000000" fill-rule="evenodd"/>
			<path id="Vector" d="M168.099 8.6947C167.444 8.6947 167.131 9.00073 167.397 9.37665C167.565 9.57739 167.807 9.74548 168.099 9.86493C168.391 9.98431 168.724 10.051 169.065 10.0586C169.717 10.0586 170.031 9.75391 169.765 9.37665C169.596 9.17627 169.354 9.00842 169.062 8.88904C168.771 8.76971 168.439 8.70282 168.099 8.6947Z" fill="#E3E3E3" fill-opacity="1.000000" fill-rule="evenodd"/>
		</g>
	</g>
	<rect id="sword_red" width="28.994165" height="52.065723" transform="matrix(-1 0 0 1 151.971 0)" fill="#FFFFFF" fill-opacity="0"/>
	<g clip-path="url(#clip108_6260)">
		<g filter="url(#filter_108_6262_dd)">
			<path id="Vector" d="M151.573 47.4634L151.437 47.5341C151.282 47.6171 151.11 47.6624 150.934 47.6662C150.758 47.67 150.584 47.6323 150.426 47.556C150.266 47.4845 150.124 47.3762 150.014 47.2399C149.903 47.1036 149.826 46.9431 149.789 46.7714C149.475 45.4 148.847 43.7242 147.955 41.9935C147.062 40.2628 146.059 38.7815 145.13 37.7318C145.013 37.601 144.929 37.4453 144.882 37.2766C144.834 37.108 144.827 36.9308 144.859 36.7587C144.891 36.5865 144.961 36.424 145.066 36.2834C145.17 36.1428 145.305 36.028 145.461 35.9477L145.599 35.8771L145.031 34.7787L142.364 36.1533L139.696 37.5262L140.264 38.6246L140.4 38.554C140.557 38.4722 140.73 38.4276 140.906 38.4234C141.082 38.4193 141.257 38.4557 141.417 38.5302C141.577 38.6045 141.718 38.7147 141.828 38.8521C141.939 38.9896 142.016 39.1507 142.054 39.3229C142.368 40.6927 142.996 42.3701 143.889 44.0992C144.781 45.8284 145.784 47.3112 146.713 48.361C146.83 48.4919 146.915 48.6477 146.962 48.8165C147.009 48.9852 147.016 49.1625 146.985 49.3348C146.953 49.507 146.882 49.6697 146.777 49.8104C146.673 49.9511 146.538 50.0661 146.382 50.1466L146.244 50.2172L146.812 51.3156L149.48 49.9426L152.141 48.5634L151.573 47.4634Z" fill="#4592CF" fill-opacity="1.000000" fill-rule="evenodd"/>
			<path id="Vector" d="M144.782 38.3795C144.342 38.609 144.953 40.6956 146.149 43.0368C147.345 45.3781 148.671 47.092 149.103 46.8624C149.535 46.6328 148.932 44.5463 147.736 42.205C146.541 39.8638 145.222 38.1499 144.782 38.3795Z" fill="#283A84" fill-opacity="1.000000" fill-rule="evenodd"/>
			<path id="Vector" d="M125.375 3.40967L126.805 11.4889L140.142 37.3359L144.469 35.1028L131.132 9.2558L125.375 3.40967Z" fill="#D1D2D2" fill-opacity="1.000000" fill-rule="evenodd"/>
			<path id="Vector" d="M129.691 7.7738L127.42 6.29498L128.219 11.1149L140.207 37.3359L126.811 11.4889L125.375 3.40967L129.691 7.7738Z" fill="#E6E6E5" fill-opacity="1.000000" fill-rule="evenodd"/>
			<path id="Vector" d="M129.126 10.7405L135.427 23.6112L141.731 36.4835L142.419 36.1334L143.105 35.7833L136.116 23.2627L129.126 10.7405Z" fill="#818181" fill-opacity="1.000000" fill-rule="evenodd"/>
			<path id="Vector" d="M145.787 33.5505L138.159 37.5091C137.767 37.2252 137.291 37.0824 136.808 37.1038C136.325 37.1251 135.864 37.3094 135.498 37.6268C135.132 37.9443 134.883 38.3765 134.791 38.8536C134.699 39.3308 134.77 39.8251 134.991 40.257C135.213 40.6888 135.573 41.033 136.013 41.2339C136.453 41.4349 136.948 41.481 137.417 41.3648C137.886 41.2485 138.303 40.9767 138.6 40.5933C138.896 40.2097 139.056 39.7369 139.053 39.2509L146.682 35.2923C147.074 35.577 147.551 35.7203 148.035 35.6992C148.518 35.6781 148.981 35.4937 149.348 35.1758C149.714 34.858 149.964 34.4251 150.056 33.9471C150.148 33.4691 150.077 32.9739 149.855 32.5413C149.633 32.1087 149.272 31.764 148.832 31.5627C148.391 31.3615 147.896 31.3154 147.425 31.4321C146.955 31.5487 146.538 31.8212 146.241 32.2055C145.944 32.5898 145.784 33.0637 145.787 33.5505Z" fill="#333333" fill-opacity="1.000000" fill-rule="evenodd"/>
		</g>
	</g>
	<g filter="url(#filter_108_6269_dd)">
		<path id="Christian Dior SE" d="M148.788 83.902C147.564 83.902 146.532 83.49 145.692 82.666C145.3 82.274 144.992 81.806 144.768 81.262C144.536 80.686 144.42 80.086 144.42 79.462C144.42 78.806 144.54 78.198 144.78 77.638C145.028 77.062 145.344 76.586 145.728 76.21C146.584 75.378 147.616 74.962 148.824 74.962C149.736 74.962 150.512 75.186 151.152 75.634C151.424 75.81 151.68 76.034 151.92 76.306C152.32 76.77 152.592 77.282 152.736 77.842L151.86 78.154C151.772 77.818 151.6 77.466 151.344 77.098C151.16 76.85 150.972 76.646 150.78 76.486C150.556 76.294 150.276 76.142 149.94 76.03C149.604 75.902 149.224 75.838 148.8 75.838C147.856 75.838 147.056 76.166 146.4 76.822C145.72 77.502 145.38 78.362 145.38 79.402C145.38 80.098 145.528 80.718 145.824 81.262C146.112 81.814 146.524 82.246 147.06 82.558C147.572 82.87 148.156 83.026 148.812 83.026C149.58 83.026 150.22 82.822 150.732 82.414C150.964 82.238 151.156 82.038 151.308 81.814C151.46 81.614 151.584 81.414 151.68 81.214C151.76 81.022 151.828 80.846 151.884 80.686L152.76 80.998C152.616 81.518 152.348 82.014 151.956 82.486C151.748 82.734 151.496 82.97 151.2 83.194C150.536 83.666 149.732 83.902 148.788 83.902ZM159.351 83.806L158.475 83.806L158.475 80.338C158.475 79.786 158.335 79.346 158.055 79.018C157.775 78.69 157.367 78.526 156.831 78.526C156.311 78.526 155.883 78.706 155.547 79.066C155.219 79.434 155.055 79.882 155.055 80.41L155.055 83.806L154.179 83.806L154.179 74.71L155.055 74.71L155.055 78.91C155.519 78.126 156.199 77.734 157.095 77.734C157.799 77.734 158.355 77.95 158.763 78.382C159.155 78.838 159.351 79.418 159.351 80.122L159.351 83.806ZM161.246 77.842L162.098 77.842L162.098 79.018C162.378 78.45 162.786 78.066 163.322 77.866C163.538 77.786 163.774 77.746 164.03 77.746C164.182 77.746 164.278 77.754 164.318 77.77L164.318 78.694C164.254 78.678 164.142 78.67 163.982 78.67C163.334 78.67 162.862 78.886 162.566 79.318C162.27 79.75 162.122 80.274 162.122 80.89L162.122 83.806L161.246 83.806L161.246 77.842ZM165.464 76.174C165.336 76.03 165.272 75.874 165.272 75.706C165.272 75.538 165.336 75.382 165.464 75.238C165.592 75.11 165.748 75.046 165.932 75.046C166.108 75.046 166.26 75.11 166.388 75.238C166.516 75.366 166.58 75.522 166.58 75.706C166.58 75.89 166.516 76.046 166.388 76.174C166.26 76.302 166.108 76.366 165.932 76.366C165.748 76.366 165.592 76.302 165.464 76.174ZM165.488 83.806L165.488 77.842L166.364 77.842L166.364 83.806L165.488 83.806ZM172.272 82.114C172.272 82.65 172.068 83.078 171.66 83.398C171.252 83.734 170.752 83.902 170.16 83.902C169.288 83.902 168.652 83.614 168.252 83.038C168.052 82.766 167.932 82.462 167.892 82.126L168.684 81.922C168.74 82.25 168.888 82.538 169.128 82.786C169.376 83.026 169.716 83.146 170.148 83.146C170.476 83.146 170.768 83.054 171.024 82.87C171.264 82.702 171.384 82.466 171.384 82.162C171.384 81.922 171.288 81.73 171.096 81.586C170.92 81.442 170.692 81.338 170.412 81.274L169.5 81.07C168.508 80.854 168.012 80.334 168.012 79.51C168.012 78.894 168.26 78.434 168.756 78.13C169.18 77.866 169.608 77.734 170.04 77.734C170.856 77.742 171.452 78.006 171.828 78.526C172.012 78.79 172.132 79.058 172.188 79.33L171.396 79.558C171.34 79.326 171.224 79.102 171.048 78.886C170.832 78.63 170.496 78.502 170.04 78.502C169.712 78.502 169.44 78.594 169.224 78.778C169 78.954 168.888 79.178 168.888 79.45C168.888 79.85 169.176 80.122 169.752 80.266L170.712 80.482C171.152 80.586 171.52 80.774 171.816 81.046C172.12 81.318 172.272 81.674 172.272 82.114ZM175.744 83.854C174.616 83.854 174.052 83.322 174.052 82.258L174.052 78.61L172.948 78.61L172.948 77.842L174.052 77.842L174.052 76.126L174.916 76.126L174.916 77.842L176.428 77.842L176.428 78.61L174.916 78.61L174.916 82.246C174.916 82.806 175.24 83.086 175.888 83.086C176.04 83.086 176.22 83.07 176.428 83.038L176.428 83.758C176.22 83.822 175.992 83.854 175.744 83.854ZM177.874 76.174C177.746 76.03 177.682 75.874 177.682 75.706C177.682 75.538 177.746 75.382 177.874 75.238C178.002 75.11 178.158 75.046 178.342 75.046C178.518 75.046 178.67 75.11 178.798 75.238C178.926 75.366 178.99 75.522 178.99 75.706C178.99 75.89 178.926 76.046 178.798 76.174C178.67 76.302 178.518 76.366 178.342 76.366C178.158 76.366 178.002 76.302 177.874 76.174ZM177.898 83.806L177.898 77.842L178.774 77.842L178.774 83.806L177.898 83.806ZM182.69 80.362L184.346 80.362L184.346 79.966C184.346 78.998 183.838 78.514 182.822 78.514C182.334 78.514 181.958 78.646 181.694 78.91C181.454 79.15 181.31 79.422 181.262 79.726L180.422 79.546C180.43 79.378 180.51 79.166 180.662 78.91C180.814 78.654 181.014 78.426 181.262 78.226C181.686 77.898 182.214 77.734 182.846 77.734C183.934 77.734 184.658 78.146 185.018 78.97C185.138 79.25 185.198 79.578 185.198 79.954L185.198 81.634C185.198 82.61 185.23 83.334 185.294 83.806L184.43 83.806C184.374 83.502 184.346 83.154 184.346 82.762C183.842 83.53 183.17 83.914 182.33 83.914C181.73 83.914 181.25 83.746 180.89 83.41C180.514 83.082 180.326 82.662 180.326 82.15L180.326 82.09C180.326 81.498 180.562 81.062 181.034 80.782C181.514 80.502 182.066 80.362 182.69 80.362ZM184.346 81.286L184.346 81.082L182.678 81.082C182.31 81.082 181.986 81.15 181.706 81.286C181.37 81.43 181.202 81.694 181.202 82.078C181.202 82.406 181.326 82.666 181.574 82.858C181.814 83.05 182.118 83.146 182.486 83.146C183.006 83.146 183.45 82.97 183.818 82.618C184.17 82.282 184.346 81.838 184.346 81.286ZM192.269 83.806L191.393 83.806L191.393 80.338C191.393 79.786 191.253 79.346 190.973 79.018C190.693 78.69 190.285 78.526 189.749 78.526C189.229 78.526 188.801 78.706 188.465 79.066C188.137 79.434 187.973 79.882 187.973 80.41L187.973 83.806L187.097 83.806L187.097 77.842L187.949 77.842L187.949 78.934C188.429 78.134 189.117 77.734 190.013 77.734C190.717 77.734 191.273 77.95 191.681 78.382C192.073 78.838 192.269 79.418 192.269 80.122L192.269 83.806ZM149.169 96.806L149.169 88.058L151.773 88.058C152.453 88.058 153.077 88.17 153.645 88.394C154.213 88.61 154.701 88.914 155.109 89.306C155.965 90.138 156.393 91.174 156.393 92.414C156.393 93.054 156.273 93.65 156.033 94.202C155.801 94.73 155.473 95.194 155.049 95.594C154.161 96.402 153.069 96.806 151.773 96.806L149.169 96.806ZM150.093 88.922L150.093 95.942L151.737 95.942C152.465 95.942 153.109 95.79 153.669 95.486C154.245 95.182 154.681 94.77 154.977 94.25C155.289 93.722 155.445 93.118 155.445 92.438C155.445 91.43 155.109 90.59 154.437 89.918C153.773 89.254 152.873 88.922 151.737 88.922L150.093 88.922ZM157.952 89.174C157.824 89.03 157.76 88.874 157.76 88.706C157.76 88.538 157.824 88.382 157.952 88.238C158.08 88.11 158.236 88.046 158.42 88.046C158.596 88.046 158.748 88.11 158.876 88.238C159.004 88.366 159.068 88.522 159.068 88.706C159.068 88.89 159.004 89.046 158.876 89.174C158.748 89.302 158.596 89.366 158.42 89.366C158.236 89.366 158.08 89.302 157.952 89.174ZM157.976 96.806L157.976 90.842L158.852 90.842L158.852 96.806L157.976 96.806ZM163.452 96.914C162.9 96.914 162.384 96.778 161.904 96.506C161.432 96.226 161.064 95.854 160.8 95.39C160.528 94.926 160.392 94.41 160.392 93.842C160.392 92.954 160.688 92.218 161.28 91.634C161.872 91.034 162.604 90.734 163.476 90.734C164.324 90.718 165.052 91.018 165.66 91.634C166.276 92.242 166.576 92.966 166.56 93.806C166.576 94.67 166.276 95.41 165.66 96.026C165.044 96.634 164.308 96.93 163.452 96.914ZM163.476 96.134C164.1 96.134 164.624 95.91 165.048 95.462C165.456 95.014 165.66 94.474 165.66 93.842C165.66 93.202 165.452 92.65 165.036 92.186C164.612 91.73 164.084 91.502 163.452 91.502C162.82 91.502 162.3 91.726 161.892 92.174C161.484 92.622 161.28 93.166 161.28 93.806C161.264 94.438 161.468 94.986 161.892 95.45C162.324 95.914 162.852 96.142 163.476 96.134ZM168.089 90.842L168.941 90.842L168.941 92.018C169.221 91.45 169.629 91.066 170.165 90.866C170.381 90.786 170.617 90.746 170.873 90.746C171.025 90.746 171.121 90.754 171.161 90.77L171.161 91.694C171.097 91.678 170.985 91.67 170.825 91.67C170.177 91.67 169.705 91.886 169.409 92.318C169.113 92.75 168.965 93.274 168.965 93.89L168.965 96.806L168.089 96.806L168.089 90.842ZM178.101 96.89C177.253 96.89 176.541 96.634 175.965 96.122C175.405 95.634 175.085 95.066 175.005 94.418L175.869 94.178C175.965 94.69 176.229 95.126 176.661 95.486C177.085 95.846 177.565 96.026 178.101 96.026C178.637 96.026 179.085 95.898 179.445 95.642C179.853 95.362 180.057 94.958 180.057 94.43C180.057 93.886 179.813 93.47 179.325 93.182C179.101 93.046 178.825 92.946 178.497 92.882L177.345 92.654C177.113 92.606 176.857 92.522 176.577 92.402C176.289 92.266 176.049 92.102 175.857 91.91C175.449 91.51 175.245 91.006 175.245 90.398C175.245 89.918 175.377 89.49 175.641 89.114C175.897 88.746 176.237 88.458 176.661 88.25C177.077 88.058 177.529 87.962 178.017 87.962C178.873 87.962 179.541 88.174 180.021 88.598C180.509 89.022 180.805 89.51 180.909 90.062L180.069 90.326C179.981 89.934 179.765 89.586 179.421 89.282C179.085 88.97 178.613 88.814 178.005 88.814C177.525 88.798 177.097 88.942 176.721 89.246C176.345 89.55 176.161 89.922 176.169 90.362C176.169 90.706 176.277 91.002 176.493 91.25C176.709 91.498 177.025 91.662 177.441 91.742L178.545 91.958C179.305 92.102 179.873 92.358 180.249 92.726C180.505 92.958 180.697 93.226 180.825 93.53C180.945 93.826 181.005 94.094 181.005 94.334C181.013 95.094 180.737 95.714 180.177 96.194C179.617 96.674 178.925 96.906 178.101 96.89ZM182.837 96.806L182.837 88.058L188.309 88.058L188.309 88.91L183.761 88.91L183.761 91.934L187.925 91.934L187.925 92.786L183.761 92.786L183.761 95.954L188.357 95.954L188.357 96.806L182.837 96.806Z" fill="#FFFFFF" fill-opacity="1.000000" fill-rule="evenodd"/>
	</g>
	<g filter="url(#filter_108_6271_dd)">
		<path id="Vector 1" d="M90.4902 53.5695L85.9795 31.344L125.575 31.344L121.398 53.5695L105.276 60.7823L90.4902 53.5695Z" fill="url(#paint_radial_108_6271_0)" fill-opacity="1.000000" fill-rule="nonzero"/>
	</g>
	<path id="Vector 1" d="M83.5327 29.344L88.7266 54.9343L89.6135 55.367L105.239 62.9897L123.17 54.9676L127.986 29.344L83.5327 29.344ZM90.4902 53.5695L85.9795 31.344L125.575 31.344L125.199 33.344L121.398 53.5695L105.276 60.7823L90.4902 53.5695Z" fill="url(#paint_linear_108_6271_1)" fill-opacity="1.000000" fill-rule="evenodd"/>
	<path id="Vector 2" d="M93.0356 52.3403L89.2505 33.7541L122.476 33.7541L118.971 52.3403L105.443 58.3721L93.0356 52.3403Z" fill="url(#paint_radial_108_6272_0)" fill-opacity="1.000000" fill-rule="nonzero"/>
	<path id="Vector 2" d="M86.802 31.7541L91.2729 53.7072L92.1611 54.139L105.406 60.5781L120.743 53.7404L124.888 31.7541L86.802 31.7541ZM93.0356 52.3403L89.6577 35.7541L89.2505 33.7541L122.476 33.7541L122.099 35.7541L118.971 52.3403L105.443 58.3721L93.0356 52.3403Z" fill="url(#paint_linear_108_6272_1)" fill-opacity="1.000000" fill-rule="evenodd"/>
	<g filter="url(#filter_108_6273_dd)">
		<path id="Vector" d="M112.487 41.6871C112.924 41.8348 113.37 41.9821 113.824 42.1298C114.279 42.2774 114.683 42.4191 115.037 42.5549C115.893 42.8854 116.544 43.3416 116.99 43.9229C117.435 44.5041 117.658 45.2256 117.658 46.0875C117.658 46.6304 117.531 47.1559 117.277 47.6637C117.023 48.1711 116.681 48.5931 116.25 48.9295C115.778 49.3015 115.232 49.5877 114.612 49.7883C113.992 49.9889 113.27 50.0895 112.443 50.0895C111.676 50.0895 110.96 49.9938 110.296 49.8022C109.632 49.6107 109.07 49.385 108.609 49.1256L107.999 49.7448L107.246 49.7448L107.131 45.2086L107.892 45.2086C108.063 45.64 108.281 46.0948 108.547 46.5733C108.813 47.0518 109.12 47.4802 109.468 47.8583C109.828 48.2543 110.231 48.576 110.677 48.8243C111.122 49.0723 111.643 49.1963 112.239 49.1963C113.042 49.1963 113.657 49.0005 114.085 48.6081C114.513 48.2156 114.727 47.7215 114.727 47.1256C114.727 46.636 114.546 46.2244 114.183 45.8911C113.82 45.5579 113.258 45.2698 112.496 45.0272C112 44.8673 111.544 44.7193 111.128 44.5831C110.712 44.447 110.321 44.3077 109.955 44.1656C109.111 43.8292 108.484 43.3483 108.074 42.7225C107.663 42.097 107.458 41.3978 107.458 40.6243C107.458 40.1343 107.565 39.6639 107.777 39.2122C107.989 38.7609 108.299 38.3548 108.707 37.9951C109.096 37.6587 109.595 37.3843 110.203 37.1715C110.811 36.959 111.472 36.8528 112.186 36.8528C112.883 36.8528 113.535 36.95 114.143 37.1447C114.751 37.3394 115.229 37.5336 115.577 37.7283L116.117 37.1976L116.888 37.1976L116.958 41.4772L116.197 41.4772C116.02 41.0164 115.812 40.5452 115.573 40.0637C115.334 39.582 115.081 39.1819 114.816 38.8625C114.527 38.5199 114.193 38.2469 113.815 38.0428C113.438 37.8391 112.995 37.7371 112.487 37.7371C111.85 37.7371 111.329 37.9174 110.924 38.2775C110.52 38.6376 110.318 39.0833 110.318 39.6147C110.318 40.1166 110.494 40.5268 110.845 40.8458C111.196 41.1648 111.743 41.4451 112.487 41.6871ZM105.821 38.2587C105.567 38.4064 105.37 38.5638 105.231 38.7319C105.093 38.8998 104.956 39.1314 104.82 39.426C104.637 39.8328 104.38 40.4265 104.05 41.2076C103.719 41.9887 103.341 42.8774 102.917 43.8734C102.539 44.7694 102.13 45.7511 101.69 46.8178C101.25 47.8848 100.83 48.9076 100.428 49.8862L98.6487 49.8862C97.8223 47.8643 96.9812 45.81 96.1255 43.7233C95.2693 41.6363 94.6675 40.1862 94.3191 39.3727C94.1836 39.0781 94.052 38.8556 93.925 38.7051C93.7983 38.5551 93.5964 38.4005 93.3188 38.241C93.1179 38.1292 92.9412 38.0511 92.7876 38.0069C92.6343 37.9627 92.4307 37.9227 92.1768 37.8875L92.1768 37.1976L98.9851 37.1976L98.9851 37.8697C98.3481 37.9464 97.916 38.0275 97.689 38.1128C97.4617 38.1984 97.3484 38.306 97.3484 38.4356C97.3484 38.5007 97.3584 38.5697 97.3794 38.6435C97.3999 38.7173 97.4309 38.8159 97.4724 38.9395C97.6611 39.4577 98.0032 40.3043 98.499 41.4792C98.9946 42.6539 99.7292 44.4456 100.703 46.854C101.299 45.3879 101.795 44.1485 102.19 43.1358C102.585 42.1232 102.933 41.2281 103.234 40.4509C103.382 40.0741 103.504 39.722 103.602 39.395C103.699 39.068 103.748 38.8218 103.748 38.6567C103.748 38.468 103.612 38.3106 103.341 38.1835C103.069 38.0571 102.568 37.9641 101.836 37.9052L101.836 37.1976L106.927 37.1976L106.927 37.9052C106.732 37.9227 106.546 37.9582 106.369 38.0111C106.192 38.0644 106.009 38.1469 105.821 38.2587Z" fill="url(#paint_linear_108_6273_0)" fill-opacity="1.000000" fill-rule="nonzero"/>
	</g>
	<path id="Vector" d="M108.609 49.1256C109.07 49.385 109.632 49.6107 110.296 49.8022C110.373 49.8245 110.451 49.8455 110.53 49.8652C111.127 50.0148 111.765 50.0895 112.443 50.0895C112.833 50.0895 113.2 50.0671 113.544 50.0223C113.929 49.9722 114.285 49.8942 114.612 49.7883C115.232 49.5877 115.778 49.3015 116.25 48.9295C116.681 48.5931 117.023 48.1711 117.277 47.6637C117.531 47.1559 117.658 46.6304 117.658 46.0875Q117.658 44.96 117.149 44.1526Q117.075 44.0343 116.99 43.9229C116.544 43.3416 115.893 42.8854 115.037 42.5549C114.683 42.4191 114.279 42.2774 113.824 42.1298C113.37 41.9821 112.924 41.8348 112.487 41.6871C111.743 41.4451 111.196 41.1648 110.845 40.8458C110.494 40.5268 110.318 40.1166 110.318 39.6147C110.318 39.0833 110.52 38.6376 110.924 38.2775C111.118 38.1049 111.339 37.9736 111.586 37.8836C111.855 37.7859 112.156 37.7371 112.487 37.7371C112.995 37.7371 113.438 37.8391 113.815 38.0428C113.878 38.0765 113.939 38.1121 113.999 38.1497C114.302 38.3391 114.574 38.5765 114.816 38.8625C115.081 39.1819 115.334 39.582 115.573 40.0637Q115.775 40.4716 115.948 40.8696Q116.082 41.1763 116.197 41.4772L116.958 41.4772L116.954 41.1863L116.945 40.6569L116.942 40.4772L116.888 37.1976L116.117 37.1976L116.104 37.2106L115.891 37.4199L115.577 37.7283C115.284 37.5646 114.899 37.4011 114.423 37.2374C114.333 37.2065 114.24 37.1756 114.143 37.1447C113.535 36.95 112.883 36.8528 112.186 36.8528Q111.759 36.8528 111.356 36.9036Q110.75 36.9801 110.203 37.1715C109.595 37.3843 109.096 37.6587 108.707 37.9951C108.299 38.3548 107.989 38.7609 107.777 39.2122C107.565 39.6639 107.458 40.1343 107.458 40.6243C107.458 41.3978 107.663 42.097 108.074 42.7225C108.484 43.3483 109.111 43.8292 109.955 44.1656C110.321 44.3077 110.712 44.447 111.128 44.5831C111.544 44.7193 112 44.8673 112.496 45.0272C113.258 45.2698 113.82 45.5579 114.183 45.8911C114.546 46.2244 114.727 46.636 114.727 47.1256C114.727 47.7215 114.513 48.2156 114.085 48.6081C113.877 48.7993 113.624 48.9438 113.326 49.0417C113.013 49.1448 112.651 49.1963 112.239 49.1963Q111.461 49.1963 110.854 48.915Q110.764 48.8728 110.677 48.8243C110.231 48.576 109.828 48.2543 109.468 47.8583C109.12 47.4802 108.813 47.0518 108.547 46.5733C108.399 46.3058 108.265 46.0457 108.146 45.7928C108.052 45.5936 107.968 45.3988 107.892 45.2086L107.131 45.2086L107.138 45.5076L107.152 46.0237L107.156 46.2086L107.246 49.7448L107.999 49.7448L108.018 49.7252L108.24 49.4999L108.609 49.1256ZM108.205 48.1118L108.298 48.0173Q108.248 47.9517 108.199 47.8846L108.205 48.1118ZM115.534 48.2177Q115.585 48.1804 115.635 48.1415Q115.748 48.0532 115.85 47.9536Q116.17 47.6407 116.383 47.2165Q116.6 46.7825 116.646 46.3311Q116.658 46.21 116.658 46.0875Q116.658 45.1395 116.201 44.5384Q116.198 44.5349 116.196 44.5313Q115.698 43.8821 114.679 43.4886Q114.174 43.2949 113.515 43.0808L113.51 43.0791L112.178 42.6381Q110.858 42.2085 110.173 41.586Q109.873 41.3135 109.676 40.9802Q109.594 40.8416 109.531 40.6924Q109.519 40.6646 109.507 40.6365Q109.318 40.1635 109.318 39.6147Q109.318 39.1297 109.468 38.6967Q109.476 38.6736 109.484 38.6509Q109.424 38.6968 109.369 38.7446Q108.913 39.1473 108.682 39.6377Q108.537 39.9468 108.486 40.2708Q108.458 40.4454 108.458 40.6243Q108.458 41.1722 108.641 41.6503Q108.746 41.9238 108.91 42.1744Q109.352 42.8489 110.317 43.2335Q110.842 43.4371 111.437 43.632L112.8 44.0743Q114.152 44.5053 114.859 45.1545Q115.215 45.4814 115.428 45.8842Q115.47 45.9637 115.506 46.0461Q115.549 46.1435 115.584 46.2438Q115.727 46.6599 115.727 47.1256Q115.727 47.7087 115.534 48.2177ZM97.4724 38.9395C97.4309 38.8159 97.3999 38.7173 97.3794 38.6435C97.3584 38.5697 97.3484 38.5007 97.3484 38.4356C97.3484 38.3457 97.4028 38.2664 97.5122 38.1976C97.5605 38.1673 97.6194 38.139 97.689 38.1128C97.916 38.0275 98.3481 37.9464 98.9851 37.8697L98.9851 37.1976L97.9851 37.1976L97.2837 37.1976L93.1768 37.1976L92.2725 37.1976L92.1768 37.1976L92.1768 37.8875C92.4307 37.9227 92.6343 37.9627 92.7876 38.0069C92.9204 38.0452 93.0708 38.1088 93.239 38.1976C93.2651 38.2114 93.2917 38.2259 93.3188 38.241C93.5964 38.4005 93.7983 38.5551 93.925 38.7051C94.052 38.8556 94.1836 39.0781 94.3191 39.3727C94.6675 40.1862 95.2693 41.6363 96.1255 43.7233Q97.4089 46.8533 98.6487 49.8862L100.428 49.8862C100.501 49.7101 100.573 49.5325 100.647 49.3536C100.982 48.5381 101.33 47.6928 101.69 46.8178C102.13 45.7511 102.539 44.7694 102.917 43.8734C103.162 43.2967 103.393 42.756 103.607 42.2513C103.763 41.8843 103.91 41.5364 104.05 41.2076C104.38 40.4265 104.637 39.8328 104.82 39.426C104.956 39.1314 105.093 38.8998 105.231 38.7319C105.37 38.5638 105.567 38.4064 105.821 38.2587C105.857 38.2372 105.893 38.2169 105.928 38.1976C106.079 38.1163 106.226 38.0541 106.369 38.0111C106.546 37.9582 106.732 37.9227 106.927 37.9052L106.927 37.1976L105.927 37.1976L105.697 37.1976L102.836 37.1976L101.893 37.1976L101.836 37.1976L101.836 37.9052C102.568 37.9641 103.069 38.0571 103.341 38.1835C103.351 38.1882 103.361 38.1929 103.37 38.1976C103.622 38.3222 103.748 38.4749 103.748 38.6567C103.748 38.8218 103.699 39.068 103.602 39.395C103.504 39.722 103.382 40.0741 103.234 40.4509C103.071 40.8733 102.893 41.3304 102.702 41.8223C102.541 42.2356 102.37 42.6735 102.19 43.1358C101.92 43.8273 101.603 44.6245 101.24 45.5273C101.071 45.9468 100.892 46.389 100.703 46.854C100.685 46.8093 100.667 46.7648 100.649 46.7204C100.479 46.2998 100.316 45.8984 100.161 45.5162C99.4519 43.7706 98.8979 42.4249 98.499 41.4792C98.0032 40.3043 97.6611 39.4577 97.4724 38.9395ZM100.107 48.0375L97.5779 41.868Q96.8254 40.0855 96.533 39.2816L96.5286 39.2697L96.5244 39.2577Q96.4536 39.0468 96.4172 38.9161Q96.3484 38.673 96.3484 38.4356Q96.3484 38.314 96.3716 38.1976L94.7971 38.1976Q95.0183 38.4999 95.2275 38.9545L95.2354 38.9717L97.051 43.3444L99.3198 48.8862L99.7583 48.8862L100.107 48.0375Z" fill="url(#paint_linear_108_6273_1)" fill-opacity="1.000000" fill-rule="evenodd"/>
</svg>
