<svg width="212.000000" height="100.000000" viewBox="0 0 212 100" fill="none" xmlns="http://www.w3.org/2000/svg" xmlns:xlink="http://www.w3.org/1999/xlink">
	<desc>
			Created with Pixso.
	</desc>
	<defs>
		<clipPath id="clip108_5843">
			<rect id="fb" rx="47" ry="47" width="45.934223" height="45.934223" transform="translate(21.502441 24.127930) rotate(-0.000000)" fill="white" fill-opacity="0"/>
		</clipPath>
		<filter id="filter_108_5846_dd" x="3.686279" y="28.471680" width="30.128906" height="34.757202" filterUnits="userSpaceOnUse" color-interpolation-filters="sRGB">
			<feFlood flood-opacity="0" result="BackgroundImageFix"/>
			<feColorMatrix in="SourceAlpha" type="matrix" values="0 0 0 0 0 0 0 0 0 0 0 0 0 0 0 0 0 0 127 0" result="hardAlpha"/>
			<feOffset dx="0" dy="4"/>
			<feGaussianBlur stdDeviation="1.33333"/>
			<feComposite in2="hardAlpha" operator="out" k2="-1" k3="1"/>
			<feColorMatrix type="matrix" values="0 0 0 0 0 0 0 0 0 0 0 0 0 0 0 0 0 0 0.25 0"/>
			<feBlend mode="normal" in2="BackgroundImageFix" result="effect_dropShadow_1"/>
			<feBlend mode="normal" in="SourceGraphic" in2="effect_dropShadow_1" result="shape"/>
		</filter>
		<filter id="filter_108_5847_dd" x="3.686279" y="28.759277" width="23.309570" height="34.469604" filterUnits="userSpaceOnUse" color-interpolation-filters="sRGB">
			<feFlood flood-opacity="0" result="BackgroundImageFix"/>
			<feColorMatrix in="SourceAlpha" type="matrix" values="0 0 0 0 0 0 0 0 0 0 0 0 0 0 0 0 0 0 127 0" result="hardAlpha"/>
			<feOffset dx="0" dy="4"/>
			<feGaussianBlur stdDeviation="1.33333"/>
			<feComposite in2="hardAlpha" operator="out" k2="-1" k3="1"/>
			<feColorMatrix type="matrix" values="0 0 0 0 0 0 0 0 0 0 0 0 0 0 0 0 0 0 0.25 0"/>
			<feBlend mode="normal" in2="BackgroundImageFix" result="effect_dropShadow_1"/>
			<feBlend mode="normal" in="SourceGraphic" in2="effect_dropShadow_1" result="shape"/>
		</filter>
		<clipPath id="clip108_5845">
			<rect id="shield-antivirus-svgrepo-com 1" width="35.689922" height="35.689926" transform="matrix(-0.972708 0.232033 0.232033 0.972708 34.7158 19.7012)" fill="white" fill-opacity="0"/>
		</clipPath>
		<filter id="filter_108_5850_dd" x="22.778809" y="-4.980957" width="47.853271" height="49.042236" filterUnits="userSpaceOnUse" color-interpolation-filters="sRGB">
			<feFlood flood-opacity="0" result="BackgroundImageFix"/>
			<feColorMatrix in="SourceAlpha" type="matrix" values="0 0 0 0 0 0 0 0 0 0 0 0 0 0 0 0 0 0 127 0" result="hardAlpha"/>
			<feOffset dx="0" dy="4"/>
			<feGaussianBlur stdDeviation="3.33333"/>
			<feComposite in2="hardAlpha" operator="out" k2="-1" k3="1"/>
			<feColorMatrix type="matrix" values="0 0 0 0 0 0 0 0 0 0 0 0 0 0 0 0 0 0 0.5 0"/>
			<feBlend mode="normal" in2="BackgroundImageFix" result="effect_dropShadow_1"/>
			<feBlend mode="normal" in="SourceGraphic" in2="effect_dropShadow_1" result="shape"/>
		</filter>
		<clipPath id="clip108_5848">
			<rect id="helmet_red" width="30.570757" height="31.864920" transform="translate(31.929443 0.000000)" fill="white" fill-opacity="0"/>
		</clipPath>
		<filter id="filter_108_5868_dd" x="49.443115" y="-2.603271" width="46.664551" height="67.724365" filterUnits="userSpaceOnUse" color-interpolation-filters="sRGB">
			<feFlood flood-opacity="0" result="BackgroundImageFix"/>
			<feColorMatrix in="SourceAlpha" type="matrix" values="0 0 0 0 0 0 0 0 0 0 0 0 0 0 0 0 0 0 127 0" result="hardAlpha"/>
			<feOffset dx="0" dy="4"/>
			<feGaussianBlur stdDeviation="3.33333"/>
			<feComposite in2="hardAlpha" operator="out" k2="-1" k3="1"/>
			<feColorMatrix type="matrix" values="0 0 0 0 0 0 0 0 0 0 0 0 0 0 0 0 0 0 0.5 0"/>
			<feBlend mode="normal" in2="BackgroundImageFix" result="effect_dropShadow_1"/>
			<feBlend mode="normal" in="SourceGraphic" in2="effect_dropShadow_1" result="shape"/>
		</filter>
		<clipPath id="clip108_5866">
			<rect id="sword_red" width="28.884270" height="51.868382" transform="translate(59.613037 0.000000)" fill="white" fill-opacity="0"/>
		</clipPath>
		<filter id="filter_108_5875_dd" x="4.791992" y="74.697998" width="80.515381" height="13.216675" filterUnits="userSpaceOnUse" color-interpolation-filters="sRGB">
			<feFlood flood-opacity="0" result="BackgroundImageFix"/>
			<feColorMatrix in="SourceAlpha" type="matrix" values="0 0 0 0 0 0 0 0 0 0 0 0 0 0 0 0 0 0 127 0" result="hardAlpha"/>
			<feOffset dx="0" dy="2"/>
			<feGaussianBlur stdDeviation="0.666667"/>
			<feComposite in2="hardAlpha" operator="out" k2="-1" k3="1"/>
			<feColorMatrix type="matrix" values="0 0 0 0 0 0 0 0 0 0 0 0 0 0 0 0 0 0 0.5 0"/>
			<feBlend mode="normal" in2="BackgroundImageFix" result="effect_dropShadow_1"/>
			<feBlend mode="normal" in="SourceGraphic" in2="effect_dropShadow_1" result="shape"/>
		</filter>
		<clipPath id="clip108_5877">
			<rect id="twitter" rx="47" ry="47" width="45.934223" height="45.934223" transform="translate(143.580078 24.127930)" fill="white" fill-opacity="0"/>
		</clipPath>
		<filter id="filter_108_5880_dd" x="174.071533" y="28.542969" width="30.212891" height="34.859009" filterUnits="userSpaceOnUse" color-interpolation-filters="sRGB">
			<feFlood flood-opacity="0" result="BackgroundImageFix"/>
			<feColorMatrix in="SourceAlpha" type="matrix" values="0 0 0 0 0 0 0 0 0 0 0 0 0 0 0 0 0 0 127 0" result="hardAlpha"/>
			<feOffset dx="-4" dy="4"/>
			<feGaussianBlur stdDeviation="1.33333"/>
			<feComposite in2="hardAlpha" operator="out" k2="-1" k3="1"/>
			<feColorMatrix type="matrix" values="0 0 0 0 0 0 0 0 0 0 0 0 0 0 0 0 0 0 0.25 0"/>
			<feBlend mode="normal" in2="BackgroundImageFix" result="effect_dropShadow_1"/>
			<feBlend mode="normal" in="SourceGraphic" in2="effect_dropShadow_1" result="shape"/>
		</filter>
		<filter id="filter_108_5881_dd" x="180.916504" y="28.831665" width="23.367920" height="34.570312" filterUnits="userSpaceOnUse" color-interpolation-filters="sRGB">
			<feFlood flood-opacity="0" result="BackgroundImageFix"/>
			<feColorMatrix in="SourceAlpha" type="matrix" values="0 0 0 0 0 0 0 0 0 0 0 0 0 0 0 0 0 0 127 0" result="hardAlpha"/>
			<feOffset dx="-4" dy="4"/>
			<feGaussianBlur stdDeviation="1.33333"/>
			<feComposite in2="hardAlpha" operator="out" k2="-1" k3="1"/>
			<feColorMatrix type="matrix" values="0 0 0 0 0 0 0 0 0 0 0 0 0 0 0 0 0 0 0.25 0"/>
			<feBlend mode="normal" in2="BackgroundImageFix" result="effect_dropShadow_1"/>
			<feBlend mode="normal" in="SourceGraphic" in2="effect_dropShadow_1" result="shape"/>
		</filter>
		<clipPath id="clip108_5879">
			<rect id="shield-antivirus-svgrepo-com 1" width="35.825710" height="35.825710" transform="translate(177.151855 19.739014) rotate(-13.416809)" fill="white" fill-opacity="0"/>
		</clipPath>
		<filter id="filter_108_5884_dd" x="140.935547" y="-4.977051" width="47.959473" height="49.152710" filterUnits="userSpaceOnUse" color-interpolation-filters="sRGB">
			<feFlood flood-opacity="0" result="BackgroundImageFix"/>
			<feColorMatrix in="SourceAlpha" type="matrix" values="0 0 0 0 0 0 0 0 0 0 0 0 0 0 0 0 0 0 127 0" result="hardAlpha"/>
			<feOffset dx="0" dy="4"/>
			<feGaussianBlur stdDeviation="3.33333"/>
			<feComposite in2="hardAlpha" operator="out" k2="-1" k3="1"/>
			<feColorMatrix type="matrix" values="0 0 0 0 0 0 0 0 0 0 0 0 0 0 0 0 0 0 0.5 0"/>
			<feBlend mode="normal" in2="BackgroundImageFix" result="effect_dropShadow_1"/>
			<feBlend mode="normal" in="SourceGraphic" in2="effect_dropShadow_1" result="shape"/>
		</filter>
		<clipPath id="clip108_5882">
			<rect id="helmet_red" width="30.687067" height="31.986153" transform="matrix(-1 0 0 1 179.748 0)" fill="white" fill-opacity="0"/>
		</clipPath>
		<filter id="filter_108_5902_dd" x="115.375000" y="-2.590332" width="46.766113" height="67.905884" filterUnits="userSpaceOnUse" color-interpolation-filters="sRGB">
			<feFlood flood-opacity="0" result="BackgroundImageFix"/>
			<feColorMatrix in="SourceAlpha" type="matrix" values="0 0 0 0 0 0 0 0 0 0 0 0 0 0 0 0 0 0 127 0" result="hardAlpha"/>
			<feOffset dx="0" dy="4"/>
			<feGaussianBlur stdDeviation="3.33333"/>
			<feComposite in2="hardAlpha" operator="out" k2="-1" k3="1"/>
			<feColorMatrix type="matrix" values="0 0 0 0 0 0 0 0 0 0 0 0 0 0 0 0 0 0 0.5 0"/>
			<feBlend mode="normal" in2="BackgroundImageFix" result="effect_dropShadow_1"/>
			<feBlend mode="normal" in="SourceGraphic" in2="effect_dropShadow_1" result="shape"/>
		</filter>
		<clipPath id="clip108_5900">
			<rect id="sword_red" width="28.994165" height="52.065723" transform="matrix(-1 0 0 1 151.971 0)" fill="white" fill-opacity="0"/>
		</clipPath>
		<filter id="filter_108_5909_dd" x="136.886475" y="75.046021" width="62.713867" height="12.868652" filterUnits="userSpaceOnUse" color-interpolation-filters="sRGB">
			<feFlood flood-opacity="0" result="BackgroundImageFix"/>
			<feColorMatrix in="SourceAlpha" type="matrix" values="0 0 0 0 0 0 0 0 0 0 0 0 0 0 0 0 0 0 127 0" result="hardAlpha"/>
			<feOffset dx="0" dy="2"/>
			<feGaussianBlur stdDeviation="0.666667"/>
			<feComposite in2="hardAlpha" operator="out" k2="-1" k3="1"/>
			<feColorMatrix type="matrix" values="0 0 0 0 0 0 0 0 0 0 0 0 0 0 0 0 0 0 0.5 0"/>
			<feBlend mode="normal" in2="BackgroundImageFix" result="effect_dropShadow_1"/>
			<feBlend mode="normal" in="SourceGraphic" in2="effect_dropShadow_1" result="shape"/>
		</filter>
		<filter id="filter_108_5911_dd" x="58.532715" y="4.343994" width="94.452881" height="83.645630" filterUnits="userSpaceOnUse" color-interpolation-filters="sRGB">
			<feFlood flood-opacity="0" result="BackgroundImageFix"/>
			<feColorMatrix in="SourceAlpha" type="matrix" values="0 0 0 0 0 0 0 0 0 0 0 0 0 0 0 0 0 0 127 0" result="hardAlpha"/>
			<feOffset dx="0" dy="0"/>
			<feGaussianBlur stdDeviation="8.33333"/>
			<feComposite in2="hardAlpha" operator="out" k2="-1" k3="1"/>
			<feColorMatrix type="matrix" values="0 0 0 0 0.98039 0 0 0 0 0.79216 0 0 0 0 0.34902 0 0 0 1 0"/>
			<feBlend mode="normal" in2="BackgroundImageFix" result="effect_dropShadow_1"/>
			<feBlend mode="normal" in="SourceGraphic" in2="effect_dropShadow_1" result="shape"/>
		</filter>
		<filter id="filter_108_5913_dd" x="90.176758" y="36.852783" width="29.481201" height="19.236694" filterUnits="userSpaceOnUse" color-interpolation-filters="sRGB">
			<feFlood flood-opacity="0" result="BackgroundImageFix"/>
			<feColorMatrix in="SourceAlpha" type="matrix" values="0 0 0 0 0 0 0 0 0 0 0 0 0 0 0 0 0 0 127 0" result="hardAlpha"/>
			<feOffset dx="0" dy="4"/>
			<feGaussianBlur stdDeviation="0.666667"/>
			<feComposite in2="hardAlpha" operator="out" k2="-1" k3="1"/>
			<feColorMatrix type="matrix" values="0 0 0 0 0 0 0 0 0 0 0 0 0 0 0 0 0 0 0.5 0"/>
			<feBlend mode="normal" in2="BackgroundImageFix" result="effect_dropShadow_1"/>
			<feBlend mode="normal" in="SourceGraphic" in2="effect_dropShadow_1" result="shape"/>
		</filter>
		<radialGradient id="paint_radial_108_5911_0" cx="0.000000" cy="0.000000" r="1.000000" gradientUnits="userSpaceOnUse" gradientTransform="translate(88.2175 39.4352) rotate(9.60304) scale(34.5708 46.5041)">
			<stop offset="0.102161" stop-color="#B37D16"/>
			<stop offset="0.806940" stop-color="#F8F497"/>
			<stop offset="1.000000" stop-color="#C4963D"/>
		</radialGradient>
		<linearGradient id="paint_linear_108_5911_1" x1="85.979492" y1="31.343988" x2="116.794991" y2="55.273346" gradientUnits="userSpaceOnUse">
			<stop stop-color="#F8F497"/>
			<stop offset="1.000000" stop-color="#B7851F"/>
		</linearGradient>
		<radialGradient id="paint_radial_108_5912_0" cx="0.000000" cy="0.000000" r="1.000000" gradientUnits="userSpaceOnUse" gradientTransform="translate(107.671 33.7542) rotate(95.6824) scale(17.3869 23.4689)">
			<stop stop-color="#AF4190"/>
			<stop offset="0.472281" stop-color="#610547"/>
			<stop offset="1.000000" stop-color="#220119"/>
		</radialGradient>
		<linearGradient id="paint_linear_108_5912_1" x1="92.435326" y1="33.754150" x2="118.086212" y2="52.604973" gradientUnits="userSpaceOnUse">
			<stop stop-color="#F2E586"/>
			<stop offset="0.546840" stop-color="#B37D16"/>
			<stop offset="0.990875" stop-color="#F7F395"/>
		</linearGradient>
		<linearGradient id="paint_linear_108_5913_0" x1="92.176750" y1="51.744072" x2="92.176750" y2="36.852783" gradientUnits="userSpaceOnUse">
			<stop offset="0.276042" stop-color="#B37D16"/>
			<stop offset="0.670000" stop-color="#F8F497"/>
			<stop offset="1.000000" stop-color="#DDB149"/>
		</linearGradient>
		<linearGradient id="paint_linear_108_5913_1" x1="104.917305" y1="36.852783" x2="104.917305" y2="51.313683" gradientUnits="userSpaceOnUse">
			<stop stop-color="#DDB149"/>
			<stop offset="1.000000" stop-color="#F8F497"/>
		</linearGradient>
	</defs>
	<rect id="fb" rx="47" ry="47" width="45.934223" height="45.934223" transform="translate(21.502441 24.127930) rotate(-0.000000)" fill="#1773EA" fill-opacity="1.000000"/>
	<g clip-path="url(#clip108_5843)">
		<path id="Vector" d="M40.7542 46.4105L40.7542 57.7531C40.7542 57.9486 40.8521 58.0464 41.0476 58.0464L45.5454 58.0464C45.741 58.0464 45.8386 57.9486 45.8386 57.7531L45.8386 46.215L49.1633 46.215C49.3589 46.215 49.4565 46.1172 49.4565 45.9216L49.75 42.4016C49.75 42.2061 49.6521 42.1083 49.4565 42.1083L45.8386 42.1083L45.8386 39.6638C45.8386 39.077 46.3276 38.5881 47.012 38.5881L49.5544 38.5881C49.8477 38.5881 49.9456 38.4904 49.9456 38.2948L49.9456 34.8726C49.9456 34.677 49.8477 34.5792 49.6521 34.5792L45.3499 34.5792C42.8076 34.5792 40.7542 36.437 40.7542 38.7837L40.7542 42.1083L38.5054 42.1083C38.3098 42.1083 38.2119 42.2061 38.2119 42.4016L38.2119 45.9216C38.2119 46.1172 38.3098 46.215 38.5054 46.215L40.7542 46.215L40.7542 46.4105Z" fill="#FFFFFF" fill-opacity="1.000000" fill-rule="evenodd"/>
	</g>
	<rect id="fb" rx="47" ry="47" width="45.934223" height="45.934223" transform="translate(21.502441 24.127930) rotate(-0.000000)" stroke="#CDCCCC" stroke-opacity="1.000000" stroke-width="1.000000"/>
	<rect id="shield-antivirus-svgrepo-com 1" width="35.689922" height="35.689926" transform="matrix(-0.972708 0.232033 0.232033 0.972708 34.7158 19.7012)" fill="#FFFFFF" fill-opacity="0"/>
	<g clip-path="url(#clip108_5845)">
		<g filter="url(#filter_108_5846_dd)">
			<path id="Vector" d="M22.9949 55.2289L23.6062 54.4473C26.9585 50.1445 31.1292 44.7916 29.4182 37.6187L27.7878 30.7842L26.5818 31.0719C22.2271 32.1106 18.4897 30.9928 17.8882 28.4717L15.4761 29.0471C16.0774 31.5682 13.2471 34.2527 8.89258 35.2915L7.68628 35.5792L9.31665 42.4137C11.0278 49.5867 17.1658 52.4806 22.0977 54.8059L22.9949 55.2289Z" fill="#D84025" fill-opacity="1.000000" fill-rule="nonzero"/>
		</g>
		<g filter="url(#filter_108_5847_dd)">
			<path id="Vector" d="M8.89233 35.2914C13.2471 34.2527 16.0774 31.5681 15.4761 29.047L16.6821 28.7593L22.9958 55.2274L22.9946 55.2289L22.0974 54.8058C17.1658 52.4805 11.0276 49.5867 9.31665 42.4136L7.68628 35.5791L8.89233 35.2914Z" fill="#A13023" fill-opacity="1.000000" fill-rule="nonzero"/>
		</g>
	</g>
	<rect id="helmet_red" width="30.570757" height="31.864920" transform="translate(31.929443 0.000000)" fill="#FFFFFF" fill-opacity="0"/>
	<g clip-path="url(#clip108_5848)">
		<g filter="url(#filter_108_5850_dd)">
			<path id="Vector" d="M54.4436 22.5884C54.7527 23.844 55.0605 25.0985 55.3672 26.3521C52.543 27.9683 48.9771 28.8708 44.4976 28.8723L44.4976 23.689L54.4436 22.5884Z" fill="#535353" fill-opacity="1.000000" fill-rule="evenodd"/>
			<path id="Vector" d="M34.5598 22.5884C34.2463 23.844 33.9358 25.0985 33.6279 26.3521C36.4583 27.9683 40.0161 28.8708 44.4976 28.8723L44.4976 23.689L34.5598 22.5884Z" fill="#676767" fill-opacity="1.000000" fill-rule="evenodd"/>
			<path id="Vector" d="M42.2742 9.07593C35.8218 3.36951 48.0227 3.91016 51.4614 1.01904C51.7041 1.2605 51.8479 1.55078 51.8752 1.85376C51.9023 2.15674 51.8118 2.45923 51.6143 2.72339C53.1409 3.67163 55.8242 2.37781 57.2793 4.19531C55.6304 4.12402 54.6265 4.61829 54.0142 5.27991C58.5364 4.75623 56.7671 7.94324 60.6321 8.12305C57.7527 9.34241 50.99 7.00122 46.8086 9.85059C44.9209 9.79797 44.1619 9.13318 42.2742 9.07593Z" fill="#A23023" fill-opacity="1.000000" fill-rule="evenodd"/>
			<path id="Vector" d="M60.6299 8.07031C57.7798 9.32971 51.0664 6.93005 46.9158 9.85059C46.1433 9.81775 45.3835 9.68408 44.6672 9.45508C50.0962 4.66064 54.9133 8.91675 60.6321 8.07031L60.6299 8.07031Z" fill="#1A1A1A" fill-opacity="1.000000" fill-rule="evenodd"/>
			<path id="Vector" d="M42.6509 8.59106C43.396 8.64917 44.127 8.78308 44.8232 8.98914L44.8723 9.00134C44.6292 8.72986 44.3901 8.45837 44.155 8.18689C42.0198 6.37048 46.5137 4.22144 49.2393 3.78076C50.2207 4.41516 51.7332 4.11475 52.5078 4.56006C51.8396 5.09998 51.4258 6.03333 50.7556 6.57324C58.4075 5.79846 54.9216 7.64087 58.5938 7.9978C58.3467 7.8728 58.1221 7.72461 57.9258 7.55701C56.6963 6.51233 56.8787 5.37146 54.1982 5.67651L52.7065 5.84583C52.9702 5.57324 53.2358 5.30127 53.5037 5.02979C54.1079 4.39929 55.0173 3.9679 56.0405 3.82642C55.8008 3.72205 55.5364 3.65222 55.2617 3.62061C55 3.59106 54.7356 3.57532 54.4709 3.57324C53.2781 3.552 52.1409 3.62207 51.1921 3.05164L50.8396 2.83667C50.9094 2.74207 50.981 2.64905 51.0444 2.55603C51.2031 2.34717 51.2698 2.10669 51.2351 1.86816C50.0056 2.56213 48.3047 3.02881 46.8477 3.41626C45.6941 3.72119 44.4829 4.02625 43.3887 4.40601C42.6162 4.67749 41.7493 5.0542 41.3394 5.5697C40.5957 6.53064 41.7451 7.77966 42.6509 8.59106Z" fill="#EF4123" fill-opacity="1.000000" fill-rule="evenodd"/>
			<path id="Vector" d="M43.7261 8.71741C44.1138 8.79333 44.4961 8.88403 44.8716 8.98914L44.9207 9.00134C44.6782 8.72815 44.4402 8.45496 44.2058 8.18176C42.0781 6.35364 46.5564 4.19092 49.2722 3.74731C50.2502 4.38586 51.7573 4.0835 52.5293 4.53174C51.8635 5.07507 51.4512 6.0144 50.7834 6.55774C58.4082 5.77808 54.9348 7.6322 58.5942 7.99146C56.689 7.61841 56.7236 6.27075 55.6414 5.9469C54.5591 5.62305 53.1296 6.36902 52.0393 6.04517C52.1536 5.42041 52.6702 4.91235 53.4216 4.13721C52.3782 3.66296 49.7461 4.08655 50.2932 2.71741C47.9509 4.65906 40.4058 3.85474 43.2686 8.55017L43.7261 8.71741Z" fill="#D03927" fill-opacity="1.000000" fill-rule="evenodd"/>
			<path id="Vector" d="M47.8943 10.4451C47.8943 11.7113 46.3354 12.7378 44.4126 12.7378C42.4897 12.7378 40.9309 11.7113 40.9309 10.4451C40.9309 9.17871 42.4897 8.15222 44.4126 8.15222C46.3354 8.15222 47.8943 9.17871 47.8943 10.4451Z" fill="#CDCCCC" fill-opacity="1.000000" fill-rule="evenodd"/>
			<path id="Vector" d="M44.428 10.5299C48.793 10.5299 52.5227 12.2605 54.0144 14.7017C54.8159 14.959 55.3669 15.4889 55.3669 16.0953C55.363 16.297 55.3022 16.4957 55.1885 16.6786C55.0747 16.8615 54.9109 17.0244 54.7073 17.1567C54.6333 20.7267 50.0593 23.6074 44.428 23.6074C38.7964 23.6074 34.2388 20.7328 34.1528 17.172C33.9399 17.0392 33.7678 16.8738 33.6479 16.687C33.5281 16.5002 33.4634 16.2964 33.458 16.0892C33.458 15.4767 34.0278 14.936 34.8474 14.6833C36.3455 12.2483 40.0691 10.5299 44.428 10.5299Z" fill="#8B8A8A" fill-opacity="1.000000" fill-rule="evenodd"/>
			<path id="Vector" d="M42.7991 20.2107C46.637 20.2107 49.7625 18.2312 49.7625 15.7949C49.7625 13.3586 46.6309 11.3792 42.7991 11.3792C38.967 11.3792 35.8357 13.3586 35.8357 15.7949C35.8357 18.2312 38.959 20.2107 42.7991 20.2107Z" fill="#989898" fill-opacity="1.000000" fill-rule="evenodd"/>
			<path id="Vector" d="M40.676 15.2854C42.1267 15.2854 43.3083 14.522 43.3083 13.587C43.3083 12.6522 42.1267 11.8887 40.676 11.8887C39.2251 11.8887 38.0435 12.6506 38.0435 13.587C38.0435 14.5234 39.2373 15.2854 40.676 15.2854Z" fill="#ACACAC" fill-opacity="1.000000" fill-rule="evenodd"/>
			<path id="Vector" d="M44.4976 14.2665L44.3979 14.2665C43.0095 14.2611 41.6313 14.4487 40.3311 14.8201L32.7788 16.9646L32.7788 23.3547C36.0833 26.2793 39.9365 28.5696 44.4976 30.0613L44.4976 14.2665Z" fill="#CDCCCC" fill-opacity="1.000000" fill-rule="evenodd"/>
			<path id="Vector" d="M42.7991 15.2854C42.1973 15.3616 41.6069 15.484 41.0364 15.651L39.5886 16.0679L39.5886 26.7622C40.6104 27.3513 41.6824 27.8861 42.7971 28.3629L42.7971 15.2854L42.7991 15.2854ZM38.9087 16.2638L36.6567 16.9125L36.6567 24.8458C37.3687 25.37 38.1187 25.8771 38.9087 26.3594L38.9087 16.2638ZM35.979 17.1069L34.4771 17.5394L34.4771 23.0864C34.9583 23.5096 35.459 23.9244 35.979 24.3309L35.979 17.1069Z" fill="#333333" fill-opacity="1.000000" fill-rule="evenodd"/>
			<path id="Vector" d="M44.4976 14.2665L44.5972 14.2665C45.9822 14.2621 47.3569 14.4496 48.6541 14.8201L56.2163 16.963L56.2163 23.3531C52.9099 26.2793 49.0566 28.5696 44.4976 30.0613L44.4976 14.2665Z" fill="#B4B4B4" fill-opacity="1.000000" fill-rule="evenodd"/>
			<path id="Vector" d="M46.1958 15.2854C46.8098 15.3618 47.4126 15.4843 47.9949 15.651L49.4727 16.0679L49.4727 26.7622C48.4294 27.351 47.3354 27.8857 46.1978 28.3629L46.1978 15.2854L46.1958 15.2854ZM50.1665 16.2638L52.4629 16.9125L52.4629 24.8458C51.7383 25.37 50.9729 25.8771 50.1665 26.3594L50.1665 16.2638ZM53.1567 17.1069L54.6877 17.5394L54.6877 23.0864C54.1978 23.5096 53.6875 23.9244 53.1567 24.3309L53.1567 17.1069Z" fill="#1A1A1A" fill-opacity="1.000000" fill-rule="evenodd"/>
			<path id="Vector" d="M43.5339 8.66174C44.1858 8.66174 44.4985 8.96667 44.2332 9.34106C44.0652 9.54114 43.8242 9.70862 43.5332 9.82751C43.2424 9.94641 42.9114 10.0129 42.5715 10.0204C41.9219 10.0204 41.6091 9.71692 41.8745 9.34106C42.0427 9.14148 42.2832 8.97424 42.5737 8.85535C42.8643 8.73645 43.1948 8.6698 43.5339 8.66174Z" fill="#E3E3E3" fill-opacity="1.000000" fill-rule="evenodd"/>
		</g>
	</g>
	<rect id="sword_red" width="28.884270" height="51.868382" transform="translate(59.613037 0.000000)" fill="#FFFFFF" fill-opacity="0"/>
	<g clip-path="url(#clip108_5866)">
		<g filter="url(#filter_108_5868_dd)">
			<path id="Vector" d="M60.009 47.2836L60.145 47.3539C60.2993 47.4366 60.4707 47.4817 60.6458 47.4855C60.8208 47.4894 60.9941 47.4517 61.1519 47.3757C61.3115 47.3046 61.4521 47.1967 61.5625 47.0608C61.6729 46.925 61.7495 46.7651 61.7864 46.5941C62.0991 45.2279 62.7244 43.5585 63.6138 41.8344C64.5034 40.1101 65.5022 38.6345 66.4277 37.5887C66.5437 37.4584 66.6284 37.3033 66.675 37.1354C66.7219 36.9673 66.7297 36.7908 66.698 36.6194C66.666 36.4479 66.5955 36.2859 66.4915 36.1459C66.3875 36.0059 66.2529 35.8915 66.0979 35.8114L65.9602 35.7411L66.5261 34.6469L69.1838 36.0162L71.8413 37.3839L71.2754 38.4781L71.1394 38.4078C70.9836 38.3264 70.8113 38.2819 70.6357 38.2777C70.46 38.2736 70.2856 38.3101 70.1265 38.384C69.967 38.4581 69.8269 38.5679 69.7168 38.7048C69.6067 38.8418 69.5298 39.0023 69.4917 39.1738C69.179 40.5385 68.5537 42.2095 67.6643 43.9321C66.7747 45.6547 65.7759 47.1318 64.8503 48.1776C64.7344 48.3081 64.6499 48.4633 64.603 48.6315C64.5562 48.7996 64.5483 48.9762 64.5801 49.1478C64.6121 49.3193 64.6826 49.4814 64.7866 49.6216C64.8906 49.7617 65.0251 49.8763 65.1802 49.9565L65.3179 50.0269L64.752 51.1211L62.0945 49.7533L59.4431 48.3793L60.009 47.2836Z" fill="#CA3927" fill-opacity="1.000000" fill-rule="evenodd"/>
			<path id="Vector" d="M66.7737 38.2339C67.2122 38.4626 66.6033 40.5413 65.4124 42.8737C64.2212 45.2061 62.8999 46.9135 62.4695 46.6847C62.0388 46.4561 62.6399 44.3774 63.8308 42.045C65.022 39.7126 66.3354 38.0052 66.7737 38.2339Z" fill="#F04B23" fill-opacity="1.000000" fill-rule="evenodd"/>
			<path id="Vector" d="M86.1077 3.39673L84.6833 11.4453L71.3965 37.1945L67.0859 34.9697L80.3728 9.2207L86.1077 3.39673Z" fill="#D1D2D2" fill-opacity="1.000000" fill-rule="evenodd"/>
			<path id="Vector" d="M81.8081 7.74438L84.0703 6.27112L83.2749 11.0728L71.3318 37.1945L84.677 11.4453L86.1077 3.39673L81.8081 7.74438Z" fill="#E6E6E5" fill-opacity="1.000000" fill-rule="evenodd"/>
			<path id="Vector" d="M82.3713 10.6997L76.0933 23.5216L69.814 36.3452L69.1284 35.9965L68.4446 35.6476L75.408 23.1744L82.3713 10.6997Z" fill="#818181" fill-opacity="1.000000" fill-rule="evenodd"/>
			<path id="Vector" d="M65.7727 33.4233L73.3723 37.3669C73.7629 37.0841 74.2371 36.9418 74.718 36.9631C75.1992 36.9844 75.6589 37.168 76.0234 37.4843C76.3879 37.8005 76.636 38.231 76.7275 38.7063C76.8191 39.1818 76.7485 39.6742 76.5278 40.1044C76.3069 40.5345 75.9482 40.8774 75.51 41.0776C75.0715 41.2778 74.5789 41.3239 74.1116 41.208C73.644 41.0922 73.229 40.8214 72.9331 40.4393C72.6375 40.0574 72.4783 39.5862 72.4814 39.1021L64.8818 35.1586C64.4905 35.4421 64.0156 35.585 63.5339 35.564C63.052 35.5428 62.5913 35.3591 62.2261 35.0425C61.8606 34.7258 61.6121 34.2947 61.5203 33.8185C61.4287 33.3423 61.499 32.8489 61.7205 32.418C61.9417 31.9871 62.3008 31.6436 62.74 31.4431C63.1792 31.2427 63.6726 31.1968 64.1409 31.313C64.6091 31.4291 65.0249 31.7006 65.321 32.0835C65.6169 32.4663 65.7761 32.9384 65.7727 33.4233Z" fill="#333333" fill-opacity="1.000000" fill-rule="evenodd"/>
		</g>
	</g>
	<g filter="url(#filter_108_5875_dd)">
		<path id="Facebook Inc." d="M7.71608 75.922L7.71608 79.066L11.8321 79.066L11.8321 79.906L7.71608 79.906L7.71608 83.806L6.79208 83.806L6.79208 75.058L12.2161 75.058L12.2161 75.922L7.71608 75.922ZM15.3401 80.362L16.9961 80.362L16.9961 79.966C16.9961 78.998 16.4881 78.514 15.4721 78.514C14.9841 78.514 14.6081 78.646 14.3441 78.91C14.1041 79.15 13.9601 79.422 13.9121 79.726L13.0721 79.546C13.0801 79.378 13.1601 79.166 13.3121 78.91C13.4641 78.654 13.6641 78.426 13.9121 78.226C14.3361 77.898 14.8641 77.734 15.4961 77.734C16.5841 77.734 17.3081 78.146 17.6681 78.97C17.7881 79.25 17.8481 79.578 17.8481 79.954L17.8481 81.634C17.8481 82.61 17.8801 83.334 17.9441 83.806L17.0801 83.806C17.0241 83.502 16.9961 83.154 16.9961 82.762C16.4921 83.53 15.8201 83.914 14.9801 83.914C14.3801 83.914 13.9001 83.746 13.5401 83.41C13.1641 83.082 12.9761 82.662 12.9761 82.15L12.9761 82.09C12.9761 81.498 13.2121 81.062 13.6841 80.782C14.1641 80.502 14.7161 80.362 15.3401 80.362ZM16.9961 81.286L16.9961 81.082L15.3281 81.082C14.9601 81.082 14.6361 81.15 14.3561 81.286C14.0201 81.43 13.8521 81.694 13.8521 82.078C13.8521 82.406 13.9761 82.666 14.2241 82.858C14.4641 83.05 14.7681 83.146 15.1361 83.146C15.6561 83.146 16.1001 82.97 16.4681 82.618C16.8201 82.282 16.9961 81.838 16.9961 81.286ZM20.2037 80.794C20.2037 81.69 20.5397 82.358 21.2117 82.798C21.5397 83.022 21.9237 83.134 22.3637 83.134C22.8437 83.134 23.2517 83.01 23.5877 82.762C23.7077 82.674 23.8317 82.554 23.9597 82.402C24.1357 82.17 24.2677 81.938 24.3557 81.706L25.1597 81.97C25.0237 82.45 24.7197 82.882 24.2477 83.266C23.7357 83.698 23.1037 83.914 22.3517 83.914C21.4957 83.93 20.7717 83.642 20.1797 83.05C19.5957 82.458 19.3077 81.722 19.3157 80.842C19.3157 80.266 19.4557 79.734 19.7357 79.246C20.0157 78.766 20.3877 78.394 20.8517 78.13C21.3157 77.866 21.8277 77.734 22.3877 77.734C23.0597 77.734 23.6517 77.918 24.1637 78.286C24.6837 78.678 25.0037 79.13 25.1237 79.642L24.3317 79.906C24.2437 79.586 24.0277 79.274 23.6837 78.97C23.3477 78.666 22.9077 78.514 22.3637 78.514C21.7397 78.514 21.2237 78.734 20.8157 79.174C20.4077 79.622 20.2037 80.162 20.2037 80.794ZM31.8829 81.094L27.0589 81.094C27.0909 81.678 27.3109 82.162 27.7189 82.546C28.1189 82.938 28.6109 83.134 29.1949 83.134C29.6509 83.134 30.0389 83.026 30.3589 82.81C30.6789 82.586 30.9069 82.27 31.0429 81.862L31.8109 82.102C31.6429 82.662 31.3189 83.106 30.8389 83.434C30.3429 83.754 29.7989 83.914 29.2069 83.914C28.6469 83.914 28.1309 83.774 27.6589 83.494C27.1869 83.214 26.8269 82.838 26.5789 82.366C26.3149 81.902 26.1829 81.386 26.1829 80.818C26.1829 80.274 26.3069 79.77 26.5549 79.306C26.7869 78.834 27.1349 78.454 27.5989 78.166C28.0469 77.878 28.5429 77.734 29.0869 77.734C29.6869 77.734 30.1989 77.87 30.6229 78.142C31.0549 78.406 31.3749 78.77 31.5829 79.234C31.7909 79.674 31.8949 80.198 31.8949 80.806C31.8949 80.91 31.8909 81.006 31.8829 81.094ZM27.0709 80.35L31.0189 80.35C30.9629 79.806 30.7629 79.358 30.4189 79.006C30.0829 78.67 29.6389 78.502 29.0869 78.502C28.5829 78.502 28.1389 78.682 27.7549 79.042C27.3709 79.418 27.1429 79.854 27.0709 80.35ZM39.376 80.818C39.376 81.362 39.26 81.866 39.028 82.33C38.796 82.794 38.468 83.17 38.044 83.458C37.612 83.746 37.12 83.89 36.568 83.89C35.584 83.89 34.812 83.442 34.252 82.546L34.252 83.806L33.4 83.806L33.4 74.71L34.276 74.71L34.276 79.126C34.876 78.198 35.64 77.734 36.568 77.734C37.416 77.734 38.1 78.054 38.62 78.694C39.124 79.318 39.376 80.026 39.376 80.818ZM36.4 83.134C37.024 83.134 37.532 82.914 37.924 82.474C38.3 82.026 38.488 81.482 38.488 80.842C38.488 79.938 38.164 79.27 37.516 78.838C37.204 78.622 36.832 78.514 36.4 78.514C35.808 78.506 35.3 78.734 34.876 79.198C34.452 79.662 34.248 80.198 34.264 80.806C34.264 81.446 34.464 81.99 34.864 82.438C35.272 82.902 35.784 83.134 36.4 83.134ZM43.5397 83.914C42.9877 83.914 42.4717 83.778 41.9917 83.506C41.5197 83.226 41.1517 82.854 40.8877 82.39C40.6157 81.926 40.4797 81.41 40.4797 80.842C40.4797 79.954 40.7757 79.218 41.3677 78.634C41.9597 78.034 42.6917 77.734 43.5637 77.734C44.4117 77.718 45.1397 78.018 45.7477 78.634C46.3637 79.242 46.6637 79.966 46.6477 80.806C46.6637 81.67 46.3637 82.41 45.7477 83.026C45.1317 83.634 44.3957 83.93 43.5397 83.914ZM43.5637 83.134C44.1877 83.134 44.7117 82.91 45.1357 82.462C45.5437 82.014 45.7477 81.474 45.7477 80.842C45.7477 80.202 45.5397 79.65 45.1237 79.186C44.6997 78.73 44.1717 78.502 43.5397 78.502C42.9077 78.502 42.3877 78.726 41.9797 79.174C41.5717 79.622 41.3677 80.166 41.3677 80.806C41.3517 81.438 41.5557 81.986 41.9797 82.45C42.4117 82.914 42.9397 83.142 43.5637 83.134ZM50.8054 83.914C50.2534 83.914 49.7374 83.778 49.2574 83.506C48.7854 83.226 48.4174 82.854 48.1534 82.39C47.8814 81.926 47.7454 81.41 47.7454 80.842C47.7454 79.954 48.0414 79.218 48.6334 78.634C49.2254 78.034 49.9574 77.734 50.8294 77.734C51.6774 77.718 52.4054 78.018 53.0134 78.634C53.6294 79.242 53.9294 79.966 53.9134 80.806C53.9294 81.67 53.6294 82.41 53.0134 83.026C52.3974 83.634 51.6614 83.93 50.8054 83.914ZM50.8294 83.134C51.4534 83.134 51.9774 82.91 52.4014 82.462C52.8094 82.014 53.0134 81.474 53.0134 80.842C53.0134 80.202 52.8054 79.65 52.3894 79.186C51.9654 78.73 51.4374 78.502 50.8054 78.502C50.1734 78.502 49.6534 78.726 49.2454 79.174C48.8374 79.622 48.6334 80.166 48.6334 80.806C48.6174 81.438 48.8214 81.986 49.2454 82.45C49.6774 82.914 50.2054 83.142 50.8294 83.134ZM56.355 80.818L56.319 80.818L56.319 83.806L55.443 83.806L55.443 74.698L56.319 74.698L56.319 80.266L59.151 77.842L60.387 77.842L57.243 80.518L60.531 83.806L59.319 83.806L56.355 80.818ZM64.8702 83.806L64.8702 75.058L65.7942 75.058L65.7942 83.806L64.8702 83.806ZM73.1658 83.806L72.2898 83.806L72.2898 80.338C72.2898 79.786 72.1498 79.346 71.8698 79.018C71.5898 78.69 71.1818 78.526 70.6458 78.526C70.1258 78.526 69.6978 78.706 69.3618 79.066C69.0338 79.434 68.8698 79.882 68.8698 80.41L68.8698 83.806L67.9938 83.806L67.9938 77.842L68.8458 77.842L68.8458 78.934C69.3258 78.134 70.0138 77.734 70.9098 77.734C71.6138 77.734 72.1698 77.95 72.5778 78.382C72.9698 78.838 73.1658 79.418 73.1658 80.122L73.1658 83.806ZM75.5162 80.794C75.5162 81.69 75.8522 82.358 76.5242 82.798C76.8522 83.022 77.2362 83.134 77.6762 83.134C78.1562 83.134 78.5642 83.01 78.9002 82.762C79.0202 82.674 79.1442 82.554 79.2722 82.402C79.4482 82.17 79.5802 81.938 79.6682 81.706L80.4722 81.97C80.3362 82.45 80.0322 82.882 79.5602 83.266C79.0482 83.698 78.4162 83.914 77.6642 83.914C76.8082 83.93 76.0842 83.642 75.4922 83.05C74.9082 82.458 74.6202 81.722 74.6282 80.842C74.6282 80.266 74.7682 79.734 75.0482 79.246C75.3282 78.766 75.7002 78.394 76.1642 78.13C76.6282 77.866 77.1402 77.734 77.7002 77.734C78.3722 77.734 78.9642 77.918 79.4762 78.286C79.9962 78.678 80.3162 79.13 80.4362 79.642L79.6442 79.906C79.5562 79.586 79.3402 79.274 78.9962 78.97C78.6602 78.666 78.2202 78.514 77.6762 78.514C77.0522 78.514 76.5362 78.734 76.1282 79.174C75.7202 79.622 75.5162 80.162 75.5162 80.794ZM81.9394 83.674C81.7794 83.498 81.6994 83.306 81.6994 83.098C81.6994 82.882 81.7794 82.694 81.9394 82.534C82.0914 82.382 82.2794 82.306 82.5034 82.306C82.7274 82.306 82.9154 82.382 83.0674 82.534C83.2274 82.694 83.3074 82.882 83.3074 83.098C83.3074 83.306 83.2274 83.498 83.0674 83.674C82.9154 83.826 82.7274 83.902 82.5034 83.902C82.2794 83.902 82.0914 83.826 81.9394 83.674Z" fill="#FFFFFF" fill-opacity="1.000000" fill-rule="evenodd"/>
	</g>
	<rect id="twitter" rx="47" ry="47" width="45.934223" height="45.934223" transform="translate(143.580078 24.127930)" fill="#000000" fill-opacity="1.000000"/>
	<g clip-path="url(#clip108_5877)">
		<path id="Vector" d="M162.413 34.5792L154.031 34.5792L163.969 47.7048L154.667 58.7156L158.965 58.7156L166 50.3877L172.246 58.6389L180.627 58.6389L170.402 45.1318L170.42 45.1552L179.224 34.7325L174.927 34.7325L168.388 42.4725L162.413 34.5792ZM158.658 36.8779L161.267 36.8779L176.001 56.3402L173.392 56.3402L158.658 36.8779Z" fill="#FFFFFF" fill-opacity="1.000000" fill-rule="evenodd"/>
	</g>
	<rect id="twitter" rx="47" ry="47" width="45.934223" height="45.934223" transform="translate(143.580078 24.127930)" stroke="#CDCCCC" stroke-opacity="1.000000" stroke-width="1.000000"/>
	<rect id="shield-antivirus-svgrepo-com 1" width="35.825710" height="35.825710" transform="translate(177.151855 19.739014) rotate(-13.416809)" fill="#FFFFFF" fill-opacity="0"/>
	<g clip-path="url(#clip108_5879)">
		<g filter="url(#filter_108_5880_dd)">
			<path id="Vector" d="M188.918 55.402L188.304 54.6173C184.939 50.2982 180.752 44.9249 182.47 37.7247L184.107 30.8643L185.317 31.153C189.688 32.1958 193.44 31.0736 194.044 28.543L196.465 29.1205C195.862 31.6512 198.703 34.3459 203.074 35.3887L204.284 35.6775L202.648 42.538C200.93 49.7383 194.769 52.6432 189.819 54.9774L188.918 55.402Z" fill="#7AB9E8" fill-opacity="1.000000" fill-rule="nonzero"/>
		</g>
		<g filter="url(#filter_108_5881_dd)">
			<path id="Vector" d="M203.074 35.3887C198.702 34.3459 195.861 31.6512 196.465 29.1205L195.254 28.8317L188.917 55.4004L188.918 55.402L189.818 54.9773C194.769 52.6432 200.93 49.7383 202.648 42.538L204.284 35.6775L203.074 35.3887Z" fill="#579ADF" fill-opacity="1.000000" fill-rule="nonzero"/>
		</g>
	</g>
	<rect id="helmet_red" width="30.687067" height="31.986153" transform="matrix(-1 0 0 1 179.748 0)" fill="#FFFFFF" fill-opacity="0"/>
	<g clip-path="url(#clip108_5882)">
		<g filter="url(#filter_108_5884_dd)">
			<path id="Vector" d="M157.148 22.6743C156.838 23.9347 156.529 25.194 156.221 26.4523C159.056 28.0747 162.635 28.9807 167.132 28.9822L167.132 23.7791L157.148 22.6743Z" fill="#535353" fill-opacity="1.000000" fill-rule="evenodd"/>
			<path id="Vector" d="M177.107 22.6743C177.422 23.9347 177.733 25.194 178.042 26.4523C175.201 28.0747 171.63 28.9807 167.132 28.9822L167.132 23.7791L177.107 22.6743Z" fill="#676767" fill-opacity="1.000000" fill-rule="evenodd"/>
			<path id="Vector" d="M169.363 9.11047C175.84 3.38232 163.593 3.92517 160.141 1.02295C159.897 1.26526 159.753 1.55664 159.726 1.86084C159.698 2.16504 159.79 2.46851 159.988 2.73376C158.455 3.68555 155.762 2.38696 154.301 4.2113C155.956 4.13977 156.964 4.63586 157.579 5.30005C153.039 4.77429 154.815 7.97351 150.936 8.15393C153.826 9.37793 160.615 7.02795 164.812 9.88806C166.706 9.83521 167.469 9.16797 169.363 9.11047Z" fill="#1B2241" fill-opacity="1.000000" fill-rule="evenodd"/>
			<path id="Vector" d="M150.938 8.10095C153.799 9.36511 160.538 6.9563 164.704 9.88806C165.479 9.8551 166.242 9.72095 166.961 9.49109C161.511 4.67834 156.676 8.95068 150.936 8.10095L150.938 8.10095Z" fill="#1A1A1A" fill-opacity="1.000000" fill-rule="evenodd"/>
			<path id="Vector" d="M168.985 8.62378C168.237 8.68201 167.504 8.81641 166.805 9.02332L166.755 9.03552C167 8.76306 167.24 8.49048 167.475 8.21802C169.619 6.39465 165.108 4.23755 162.372 3.79504C161.387 4.43201 159.869 4.13037 159.091 4.57739C159.761 5.11938 160.177 6.05627 160.85 6.59827C153.169 5.82056 156.668 7.66992 152.982 8.0282C153.23 7.90271 153.455 7.75403 153.652 7.58569C154.886 6.53699 154.703 5.39185 157.394 5.69812L158.891 5.86804C158.627 5.59448 158.36 5.32141 158.091 5.04895C157.485 4.41602 156.572 3.98291 155.545 3.84094C155.785 3.73621 156.051 3.66602 156.326 3.63428C156.589 3.60474 156.854 3.58887 157.12 3.58691C158.318 3.56543 159.459 3.63586 160.412 3.06323L160.765 2.84741C160.696 2.75244 160.624 2.65906 160.56 2.56567C160.4 2.35608 160.333 2.11462 160.368 1.87524C161.603 2.57178 163.31 3.04028 164.772 3.4292C165.931 3.73535 167.146 4.0415 168.245 4.42273C169.02 4.69531 169.89 5.07349 170.302 5.59094C171.048 6.55542 169.895 7.8092 168.985 8.62378Z" fill="#4386BB" fill-opacity="1.000000" fill-rule="evenodd"/>
			<path id="Vector" d="M167.906 8.75061C167.517 8.82678 167.133 8.91785 166.756 9.02332L166.707 9.03564C166.95 8.76147 167.189 8.48718 167.425 8.21289C169.561 6.37781 165.065 4.20691 162.339 3.7616C161.357 4.40259 159.844 4.09912 159.07 4.54895C159.738 5.09436 160.152 6.03735 160.822 6.58276C153.168 5.80005 156.655 7.66138 152.982 8.02185C154.894 7.64746 154.859 6.29468 155.946 5.9696C157.032 5.64441 158.467 6.39331 159.562 6.06812C159.447 5.44104 158.928 4.93103 158.174 4.15295C159.221 3.67688 161.864 4.10217 161.314 2.72778C163.665 4.67688 171.239 3.86951 168.365 8.58264L167.906 8.75061Z" fill="#283A84" fill-opacity="1.000000" fill-rule="evenodd"/>
			<path id="Vector" d="M163.722 10.4847C163.722 11.7559 165.287 12.7863 167.217 12.7863C169.147 12.7863 170.712 11.7559 170.712 10.4847C170.712 9.21362 169.147 8.18323 167.217 8.18323C165.287 8.18323 163.722 9.21362 163.722 10.4847Z" fill="#CDCCCC" fill-opacity="1.000000" fill-rule="evenodd"/>
			<path id="Vector" d="M167.201 10.5701C162.82 10.5701 159.076 12.3073 157.578 14.7577C156.774 15.016 156.221 15.548 156.221 16.1567C156.225 16.3591 156.286 16.5586 156.4 16.7422C156.514 16.9258 156.679 17.0892 156.883 17.222C156.957 20.8055 161.549 23.6973 167.201 23.6973C172.854 23.6973 177.429 20.8118 177.516 17.2374C177.729 17.1041 177.902 16.9381 178.022 16.7506C178.143 16.5631 178.208 16.3585 178.213 16.1505C178.213 15.5356 177.641 14.9929 176.818 14.7393C175.315 12.2949 171.577 10.5701 167.201 10.5701Z" fill="#8B8A8A" fill-opacity="1.000000" fill-rule="evenodd"/>
			<path id="Vector" d="M168.837 20.2875C164.984 20.2875 161.847 18.3005 161.847 15.855C161.847 13.4094 164.99 11.4224 168.837 11.4224C172.683 11.4224 175.826 13.4094 175.826 15.855C175.826 18.3005 172.691 20.2875 168.837 20.2875Z" fill="#989898" fill-opacity="1.000000" fill-rule="evenodd"/>
			<path id="Vector" d="M170.968 15.3435C169.511 15.3435 168.325 14.5771 168.325 13.6387C168.325 12.7002 169.511 11.9338 170.968 11.9338C172.424 11.9338 173.61 12.6986 173.61 13.6387C173.61 14.5787 172.412 15.3435 170.968 15.3435Z" fill="#ACACAC" fill-opacity="1.000000" fill-rule="evenodd"/>
			<path id="Vector" d="M167.132 14.3207L167.232 14.3207C168.625 14.3153 170.009 14.5037 171.314 14.8763L178.895 17.0291L178.895 23.4435C175.578 26.3792 171.71 28.6781 167.132 30.1755L167.132 14.3207Z" fill="#CDCCCC" fill-opacity="1.000000" fill-rule="evenodd"/>
			<path id="Vector" d="M168.836 15.3435C169.44 15.4199 170.033 15.5428 170.606 15.7104L172.059 16.1289L172.059 26.864C171.033 27.4553 169.958 27.9921 168.838 28.4707L168.838 15.3435L168.836 15.3435ZM172.742 16.3257L175.002 16.9768L175.002 24.9403C174.288 25.4664 173.535 25.9756 172.742 26.4596L172.742 16.3257ZM175.682 17.172L177.19 17.6061L177.19 23.1743C176.707 23.599 176.205 24.0154 175.682 24.4235L175.682 17.172Z" fill="#333333" fill-opacity="1.000000" fill-rule="evenodd"/>
			<path id="Vector" d="M167.132 14.3207L167.032 14.3207C165.642 14.3162 164.262 14.5045 162.96 14.8763L155.368 17.0275L155.368 23.4419C158.688 26.3792 162.555 28.6781 167.132 30.1755L167.132 14.3207Z" fill="#B4B4B4" fill-opacity="1.000000" fill-rule="evenodd"/>
			<path id="Vector" d="M165.427 15.3435C164.81 15.4202 164.205 15.5431 163.621 15.7104L162.137 16.1289L162.137 26.864C163.185 27.455 164.283 27.9917 165.425 28.4707L165.425 15.3435L165.427 15.3435ZM161.441 16.3257L159.136 16.9768L159.136 24.9403C159.863 25.4664 160.632 25.9756 161.441 26.4596L161.441 16.3257ZM158.439 17.172L156.903 17.6061L156.903 23.1743C157.394 23.599 157.906 24.0154 158.439 24.4235L158.439 17.172Z" fill="#1A1A1A" fill-opacity="1.000000" fill-rule="evenodd"/>
			<path id="Vector" d="M168.099 8.6947C167.444 8.6947 167.131 9.00073 167.397 9.37659C167.565 9.57739 167.807 9.74548 168.099 9.86487C168.391 9.98425 168.724 10.051 169.065 10.0586C169.717 10.0586 170.031 9.75391 169.765 9.37659C169.596 9.17627 169.354 9.00842 169.062 8.88904C168.771 8.76965 168.439 8.70276 168.099 8.6947Z" fill="#E3E3E3" fill-opacity="1.000000" fill-rule="evenodd"/>
		</g>
	</g>
	<rect id="sword_red" width="28.994165" height="52.065723" transform="matrix(-1 0 0 1 151.971 0)" fill="#FFFFFF" fill-opacity="0"/>
	<g clip-path="url(#clip108_5900)">
		<g filter="url(#filter_108_5902_dd)">
			<path id="Vector" d="M151.573 47.4634L151.437 47.5341C151.282 47.6171 151.11 47.6624 150.934 47.6663C150.758 47.67 150.584 47.6323 150.426 47.556C150.266 47.4845 150.124 47.3762 150.014 47.2399C149.903 47.1035 149.826 46.9431 149.789 46.7715C149.475 45.4 148.847 43.7242 147.955 41.9935C147.062 40.2627 146.059 38.7815 145.13 37.7318C145.013 37.601 144.929 37.4453 144.882 37.2766C144.834 37.108 144.827 36.9308 144.859 36.7587C144.891 36.5865 144.961 36.424 145.066 36.2834C145.17 36.1428 145.305 36.028 145.461 35.9476L145.599 35.8771L145.031 34.7787L142.364 36.1532L139.696 37.5262L140.264 38.6246L140.4 38.554C140.557 38.4722 140.73 38.4275 140.906 38.4233C141.082 38.4192 141.257 38.4558 141.417 38.5302C141.577 38.6045 141.718 38.7146 141.828 38.8522C141.939 38.9896 142.016 39.1506 142.054 39.3229C142.368 40.6927 142.996 42.3701 143.889 44.0992C144.781 45.8284 145.784 47.3113 146.713 48.361C146.83 48.4919 146.915 48.6477 146.962 48.8165C147.009 48.9852 147.016 49.1625 146.985 49.3347C146.953 49.5071 146.882 49.6697 146.777 49.8104C146.673 49.9512 146.538 50.0662 146.382 50.1466L146.244 50.2173L146.812 51.3156L149.48 49.9426L152.141 48.5634L151.573 47.4634Z" fill="#4592CF" fill-opacity="1.000000" fill-rule="evenodd"/>
			<path id="Vector" d="M144.782 38.3795C144.342 38.6091 144.953 40.6956 146.149 43.0369C147.345 45.3782 148.671 47.092 149.103 46.8624C149.535 46.6329 148.932 44.5464 147.736 42.2051C146.541 39.8638 145.222 38.1499 144.782 38.3795Z" fill="#283A84" fill-opacity="1.000000" fill-rule="evenodd"/>
			<path id="Vector" d="M125.375 3.40967L126.805 11.4889L140.142 37.3359L144.469 35.1028L131.132 9.25574L125.375 3.40967Z" fill="#D1D2D2" fill-opacity="1.000000" fill-rule="evenodd"/>
			<path id="Vector" d="M129.691 7.7738L127.42 6.29504L128.219 11.1149L140.207 37.3359L126.811 11.4889L125.375 3.40967L129.691 7.7738Z" fill="#E6E6E5" fill-opacity="1.000000" fill-rule="evenodd"/>
			<path id="Vector" d="M129.126 10.7405L135.427 23.6112L141.731 36.4835L142.419 36.1334L143.105 35.7833L136.116 23.2627L129.126 10.7405Z" fill="#818181" fill-opacity="1.000000" fill-rule="evenodd"/>
			<path id="Vector" d="M145.787 33.5505L138.159 37.509C137.767 37.2252 137.291 37.0824 136.808 37.1038C136.325 37.1251 135.864 37.3093 135.498 37.6268C135.132 37.9443 134.883 38.3765 134.791 38.8536C134.699 39.3308 134.77 39.8252 134.991 40.257C135.213 40.6888 135.573 41.033 136.013 41.234C136.453 41.4349 136.948 41.4811 137.417 41.3647C137.886 41.2485 138.303 40.9768 138.6 40.5933C138.896 40.2097 139.056 39.7368 139.053 39.2509L146.682 35.2922C147.074 35.577 147.551 35.7203 148.035 35.6992C148.518 35.6781 148.981 35.4937 149.348 35.1758C149.714 34.8579 149.964 34.425 150.056 33.9471C150.148 33.4691 150.077 32.9739 149.855 32.5413C149.633 32.1088 149.272 31.764 148.832 31.5627C148.391 31.3615 147.896 31.3154 147.425 31.4321C146.955 31.5487 146.538 31.8212 146.241 32.2056C145.944 32.5898 145.784 33.0637 145.787 33.5505Z" fill="#333333" fill-opacity="1.000000" fill-rule="evenodd"/>
		</g>
	</g>
	<g filter="url(#filter_108_5909_dd)">
		<path id="Twitter Inc." d="M142.726 75.922L142.726 83.806L141.814 83.806L141.814 75.922L138.886 75.922L138.886 75.058L145.654 75.058L145.654 75.922L142.726 75.922ZM148.638 78.958L147.054 83.806L146.094 83.806L144.102 77.842L145.014 77.842L146.586 82.786L148.206 77.842L149.094 77.842L150.714 82.798L150.726 82.798L152.31 77.842L153.21 77.842L151.194 83.806L150.234 83.806L148.65 78.958L148.638 78.958ZM154.442 76.174C154.314 76.03 154.25 75.874 154.25 75.706C154.25 75.538 154.314 75.382 154.442 75.238C154.57 75.11 154.726 75.046 154.91 75.046C155.086 75.046 155.238 75.11 155.366 75.238C155.494 75.366 155.558 75.522 155.558 75.706C155.558 75.89 155.494 76.046 155.366 76.174C155.238 76.302 155.086 76.366 154.91 76.366C154.726 76.366 154.57 76.302 154.442 76.174ZM154.466 83.806L154.466 77.842L155.342 77.842L155.342 83.806L154.466 83.806ZM159.402 83.854C158.274 83.854 157.71 83.322 157.71 82.258L157.71 78.61L156.606 78.61L156.606 77.842L157.71 77.842L157.71 76.126L158.574 76.126L158.574 77.842L160.086 77.842L160.086 78.61L158.574 78.61L158.574 82.246C158.574 82.806 158.898 83.086 159.546 83.086C159.698 83.086 159.878 83.07 160.086 83.038L160.086 83.758C159.878 83.822 159.65 83.854 159.402 83.854ZM163.644 83.854C162.516 83.854 161.952 83.322 161.952 82.258L161.952 78.61L160.848 78.61L160.848 77.842L161.952 77.842L161.952 76.126L162.816 76.126L162.816 77.842L164.328 77.842L164.328 78.61L162.816 78.61L162.816 82.246C162.816 82.806 163.14 83.086 163.788 83.086C163.94 83.086 164.12 83.07 164.328 83.038L164.328 83.758C164.12 83.822 163.892 83.854 163.644 83.854ZM170.797 81.094L165.973 81.094C166.005 81.678 166.225 82.162 166.633 82.546C167.033 82.938 167.525 83.134 168.109 83.134C168.565 83.134 168.953 83.026 169.273 82.81C169.593 82.586 169.821 82.27 169.957 81.862L170.725 82.102C170.557 82.662 170.233 83.106 169.753 83.434C169.257 83.754 168.713 83.914 168.121 83.914C167.561 83.914 167.045 83.774 166.573 83.494C166.101 83.214 165.741 82.838 165.493 82.366C165.229 81.902 165.097 81.386 165.097 80.818C165.097 80.274 165.221 79.77 165.469 79.306C165.701 78.834 166.049 78.454 166.513 78.166C166.961 77.878 167.457 77.734 168.001 77.734C168.601 77.734 169.113 77.87 169.537 78.142C169.969 78.406 170.289 78.77 170.497 79.234C170.705 79.674 170.809 80.198 170.809 80.806C170.809 80.91 170.805 81.006 170.797 81.094ZM165.985 80.35L169.933 80.35C169.877 79.806 169.677 79.358 169.333 79.006C168.997 78.67 168.553 78.502 168.001 78.502C167.497 78.502 167.053 78.682 166.669 79.042C166.285 79.418 166.057 79.854 165.985 80.35ZM172.314 77.842L173.166 77.842L173.166 79.018C173.446 78.45 173.854 78.066 174.39 77.866C174.606 77.786 174.842 77.746 175.098 77.746C175.25 77.746 175.346 77.754 175.386 77.77L175.386 78.694C175.322 78.678 175.21 78.67 175.05 78.67C174.402 78.67 173.93 78.886 173.634 79.318C173.338 79.75 173.19 80.274 173.19 80.89L173.19 83.806L172.314 83.806L172.314 77.842ZM179.163 83.806L179.163 75.058L180.087 75.058L180.087 83.806L179.163 83.806ZM187.459 83.806L186.583 83.806L186.583 80.338C186.583 79.786 186.443 79.346 186.163 79.018C185.883 78.69 185.475 78.526 184.939 78.526C184.419 78.526 183.991 78.706 183.655 79.066C183.327 79.434 183.163 79.882 183.163 80.41L183.163 83.806L182.287 83.806L182.287 77.842L183.139 77.842L183.139 78.934C183.619 78.134 184.307 77.734 185.203 77.734C185.907 77.734 186.463 77.95 186.871 78.382C187.263 78.838 187.459 79.418 187.459 80.122L187.459 83.806ZM189.809 80.794C189.809 81.69 190.145 82.358 190.817 82.798C191.145 83.022 191.529 83.134 191.969 83.134C192.449 83.134 192.857 83.01 193.193 82.762C193.313 82.674 193.437 82.554 193.565 82.402C193.741 82.17 193.873 81.938 193.961 81.706L194.765 81.97C194.629 82.45 194.325 82.882 193.853 83.266C193.341 83.698 192.709 83.914 191.957 83.914C191.101 83.93 190.377 83.642 189.785 83.05C189.201 82.458 188.913 81.722 188.921 80.842C188.921 80.266 189.061 79.734 189.341 79.246C189.621 78.766 189.993 78.394 190.457 78.13C190.921 77.866 191.433 77.734 191.993 77.734C192.665 77.734 193.257 77.918 193.769 78.286C194.289 78.678 194.609 79.13 194.729 79.642L193.937 79.906C193.849 79.586 193.633 79.274 193.289 78.97C192.953 78.666 192.513 78.514 191.969 78.514C191.345 78.514 190.829 78.734 190.421 79.174C190.013 79.622 189.809 80.162 189.809 80.794ZM196.232 83.674C196.072 83.498 195.992 83.306 195.992 83.098C195.992 82.882 196.072 82.694 196.232 82.534C196.384 82.382 196.572 82.306 196.796 82.306C197.02 82.306 197.208 82.382 197.36 82.534C197.52 82.694 197.6 82.882 197.6 83.098C197.6 83.306 197.52 83.498 197.36 83.674C197.208 83.826 197.02 83.902 196.796 83.902C196.572 83.902 196.384 83.826 196.232 83.674Z" fill="#FFFFFF" fill-opacity="1.000000" fill-rule="evenodd"/>
	</g>
	<g filter="url(#filter_108_5911_dd)">
		<path id="Vector 1" d="M90.4902 53.5695L85.9795 31.344L125.575 31.344L121.398 53.5695L105.276 60.7822L90.4902 53.5695Z" fill="url(#paint_radial_108_5911_0)" fill-opacity="1.000000" fill-rule="nonzero"/>
	</g>
	<path id="Vector 1" d="M83.5327 29.344L88.7266 54.9343L89.6135 55.3669L105.239 62.9896L123.17 54.9677L127.986 29.344L83.5327 29.344ZM90.4902 53.5695L85.9795 31.344L125.575 31.344L125.199 33.344L121.398 53.5695L105.276 60.7822L90.4902 53.5695Z" fill="url(#paint_linear_108_5911_1)" fill-opacity="1.000000" fill-rule="evenodd"/>
	<path id="Vector 2" d="M93.0356 52.3403L89.2505 33.7542L122.476 33.7542L118.971 52.3403L105.443 58.3721L93.0356 52.3403Z" fill="url(#paint_radial_108_5912_0)" fill-opacity="1.000000" fill-rule="nonzero"/>
	<path id="Vector 2" d="M86.802 31.7542L91.2729 53.7073L92.1611 54.139L105.406 60.5781L120.743 53.7405L124.888 31.7542L86.802 31.7542ZM93.0356 52.3403L89.6577 35.7542L89.2505 33.7542L122.476 33.7542L122.099 35.7542L118.971 52.3403L105.443 58.3721L93.0356 52.3403Z" fill="url(#paint_linear_108_5912_1)" fill-opacity="1.000000" fill-rule="evenodd"/>
	<g filter="url(#filter_108_5913_dd)">
		<path id="Vector" d="M112.487 41.6871C112.924 41.8347 113.37 41.9821 113.824 42.1296C114.279 42.2773 114.683 42.4191 115.037 42.5549C115.893 42.8854 116.544 43.3416 116.99 43.9229C117.435 44.504 117.658 45.2256 117.658 46.0875C117.658 46.6304 117.531 47.1559 117.277 47.6636C117.023 48.171 116.681 48.593 116.25 48.9294C115.778 49.3014 115.232 49.5876 114.612 49.7882C113.992 49.9888 113.27 50.0895 112.443 50.0895C111.676 50.0895 110.96 49.9937 110.296 49.8021C109.632 49.6106 109.07 49.385 108.609 49.1255L107.999 49.7448L107.246 49.7448L107.131 45.2085L107.892 45.2085C108.063 45.64 108.281 46.0947 108.547 46.5732C108.813 47.0518 109.12 47.4801 109.468 47.8583C109.828 48.2543 110.231 48.576 110.677 48.8243C111.122 49.0723 111.643 49.1962 112.239 49.1962C113.042 49.1962 113.657 49.0005 114.085 48.608C114.513 48.2156 114.727 47.7214 114.727 47.1256C114.727 46.636 114.546 46.2244 114.183 45.8911C113.82 45.5577 113.258 45.2698 112.496 45.0271C112 44.8672 111.544 44.7192 111.128 44.583C110.712 44.4469 110.321 44.3076 109.955 44.1655C109.111 43.8291 108.484 43.3481 108.074 42.7224C107.663 42.0969 107.458 41.3977 107.458 40.6243C107.458 40.1343 107.565 39.6638 107.777 39.2122C107.989 38.7607 108.299 38.3547 108.707 37.995C109.096 37.6586 109.595 37.3842 110.203 37.1714C110.811 36.959 111.472 36.8528 112.186 36.8528C112.883 36.8528 113.535 36.95 114.143 37.1447C114.751 37.3392 115.229 37.5336 115.577 37.7283L116.117 37.1975L116.888 37.1975L116.958 41.4771L116.197 41.4771C116.02 41.0164 115.812 40.5452 115.573 40.0636C115.334 39.5819 115.081 39.1819 114.816 38.8625C114.527 38.5198 114.193 38.2468 113.815 38.0427C113.438 37.839 112.995 37.7369 112.487 37.7369C111.85 37.7369 111.329 37.9174 110.924 38.2775C110.52 38.6376 110.318 39.0833 110.318 39.6147C110.318 40.1165 110.494 40.5267 110.845 40.8457C111.196 41.1647 111.743 41.4451 112.487 41.6871ZM105.821 38.2587C105.567 38.4062 105.37 38.5637 105.231 38.7319C105.093 38.8998 104.956 39.1313 104.82 39.4259C104.637 39.8326 104.38 40.4264 104.05 41.2075C103.719 41.9886 103.341 42.8773 102.917 43.8733C102.539 44.7694 102.13 45.7511 101.69 46.8177C101.25 47.8848 100.83 48.9076 100.428 49.8861L98.6487 49.8861C97.8223 47.8643 96.9812 45.8099 96.1255 43.7233C95.2693 41.6362 94.6675 40.1862 94.3191 39.3727C94.1836 39.078 94.052 38.8555 93.925 38.7051C93.7983 38.5549 93.5964 38.4004 93.3188 38.2408C93.1179 38.1292 92.9412 38.051 92.7876 38.0068C92.6343 37.9626 92.4307 37.9226 92.1768 37.8875L92.1768 37.1975L98.9851 37.1975L98.9851 37.8696C98.3481 37.9463 97.916 38.0273 97.689 38.1127C97.4617 38.1984 97.3484 38.306 97.3484 38.4355C97.3484 38.5006 97.3584 38.5696 97.3794 38.6434C97.3999 38.7173 97.4309 38.8158 97.4724 38.9395C97.6611 39.4576 98.0032 40.3042 98.499 41.4791C98.9946 42.6538 99.7292 44.4456 100.703 46.854C101.299 45.3878 101.795 44.1484 102.19 43.1357C102.585 42.123 102.933 41.2281 103.234 40.4508C103.382 40.074 103.504 39.7219 103.602 39.3949C103.699 39.068 103.748 38.8218 103.748 38.6567C103.748 38.4679 103.612 38.3105 103.341 38.1835C103.069 38.057 102.568 37.964 101.836 37.9052L101.836 37.1975L106.927 37.1975L106.927 37.9052C106.732 37.9226 106.546 37.9581 106.369 38.011C106.192 38.0643 106.009 38.1469 105.821 38.2587Z" fill="url(#paint_linear_108_5913_0)" fill-opacity="1.000000" fill-rule="nonzero"/>
	</g>
	<path id="Vector" d="M108.609 49.1255C109.07 49.385 109.632 49.6106 110.296 49.8021C110.373 49.8245 110.451 49.8455 110.53 49.8651C111.127 50.0146 111.765 50.0895 112.443 50.0895C112.833 50.0895 113.2 50.067 113.544 50.0222C113.929 49.9722 114.285 49.8942 114.612 49.7882C115.232 49.5876 115.778 49.3014 116.25 48.9294C116.681 48.593 117.023 48.171 117.277 47.6636C117.531 47.1559 117.658 46.6304 117.658 46.0875Q117.658 44.96 117.149 44.1526Q117.075 44.0343 116.99 43.9229C116.544 43.3416 115.893 42.8854 115.037 42.5549C114.683 42.4191 114.279 42.2773 113.824 42.1296C113.37 41.9821 112.924 41.8347 112.487 41.6871C111.743 41.4451 111.196 41.1647 110.845 40.8457C110.494 40.5267 110.318 40.1165 110.318 39.6147C110.318 39.0833 110.52 38.6376 110.924 38.2775C111.118 38.1049 111.339 37.9735 111.586 37.8835C111.855 37.7859 112.156 37.7369 112.487 37.7369C112.995 37.7369 113.438 37.839 113.815 38.0427C113.878 38.0764 113.939 38.1121 113.999 38.1495C114.302 38.339 114.574 38.5764 114.816 38.8625C115.081 39.1819 115.334 39.5819 115.573 40.0636Q115.775 40.4716 115.948 40.8695Q116.082 41.1763 116.197 41.4771L116.958 41.4771L116.954 41.1863L116.945 40.6569L116.942 40.4771L116.888 37.1975L116.117 37.1975L116.104 37.2104L115.891 37.4198L115.577 37.7283C115.284 37.5646 114.899 37.401 114.423 37.2374C114.333 37.2064 114.24 37.1755 114.143 37.1447C113.535 36.95 112.883 36.8528 112.186 36.8528Q111.759 36.8528 111.356 36.9036Q110.75 36.98 110.203 37.1714C109.595 37.3842 109.096 37.6586 108.707 37.995C108.299 38.3547 107.989 38.7607 107.777 39.2122C107.565 39.6638 107.458 40.1343 107.458 40.6243C107.458 41.3977 107.663 42.0969 108.074 42.7224C108.484 43.3481 109.111 43.8291 109.955 44.1655C110.321 44.3076 110.712 44.4469 111.128 44.583C111.544 44.7192 112 44.8672 112.496 45.0271C113.258 45.2698 113.82 45.5577 114.183 45.8911C114.546 46.2244 114.727 46.636 114.727 47.1256C114.727 47.7214 114.513 48.2156 114.085 48.608C113.877 48.7992 113.624 48.9437 113.326 49.0416C113.013 49.1448 112.651 49.1962 112.239 49.1962Q111.461 49.1962 110.854 48.9149Q110.764 48.8728 110.677 48.8243C110.231 48.576 109.828 48.2543 109.468 47.8583C109.12 47.4801 108.813 47.0518 108.547 46.5732C108.399 46.3058 108.265 46.0457 108.146 45.7928C108.052 45.5935 107.968 45.3987 107.892 45.2085L107.131 45.2085L107.138 45.5076L107.152 46.0237L107.156 46.2085L107.246 49.7448L107.999 49.7448L108.018 49.7251L108.24 49.4999L108.609 49.1255ZM108.205 48.1117L108.298 48.0172Q108.248 47.9517 108.199 47.8845L108.205 48.1117ZM115.534 48.2177Q115.585 48.1803 115.635 48.1414Q115.748 48.0531 115.85 47.9535Q116.17 47.6406 116.383 47.2164Q116.6 46.7825 116.646 46.3311Q116.658 46.2098 116.658 46.0875Q116.658 45.1394 116.201 44.5383Q116.198 44.5348 116.196 44.5312Q115.698 43.882 114.679 43.4885Q114.174 43.2949 113.515 43.0807L113.51 43.079L112.178 42.6381Q110.858 42.2085 110.173 41.5859Q109.873 41.3135 109.676 40.9801Q109.594 40.8416 109.531 40.6924Q109.519 40.6646 109.507 40.6365Q109.318 40.1635 109.318 39.6147Q109.318 39.1296 109.468 38.6967Q109.476 38.6736 109.484 38.6508Q109.424 38.6967 109.369 38.7445Q108.913 39.1472 108.682 39.6376Q108.537 39.9468 108.486 40.2708Q108.458 40.4453 108.458 40.6243Q108.458 41.1722 108.641 41.6503Q108.746 41.9237 108.91 42.1743Q109.352 42.8489 110.317 43.2334Q110.842 43.437 111.437 43.632L112.8 44.0743Q114.152 44.5052 114.859 45.1544Q115.215 45.4814 115.428 45.8842Q115.47 45.9636 115.506 46.046Q115.549 46.1434 115.584 46.2438Q115.727 46.6598 115.727 47.1256Q115.727 47.7086 115.534 48.2177ZM97.4724 38.9395C97.4309 38.8158 97.3999 38.7173 97.3794 38.6434C97.3584 38.5696 97.3484 38.5006 97.3484 38.4355C97.3484 38.3457 97.4028 38.2664 97.5122 38.1975C97.5605 38.1672 97.6194 38.1389 97.689 38.1127C97.916 38.0273 98.3481 37.9463 98.9851 37.8696L98.9851 37.1975L97.9851 37.1975L97.2837 37.1975L93.1768 37.1975L92.2725 37.1975L92.1768 37.1975L92.1768 37.8875C92.4307 37.9226 92.6343 37.9626 92.7876 38.0068C92.9204 38.0452 93.0708 38.1086 93.239 38.1975C93.2651 38.2114 93.2917 38.2258 93.3188 38.2408C93.5964 38.4004 93.7983 38.5549 93.925 38.7051C94.052 38.8555 94.1836 39.078 94.3191 39.3727C94.6675 40.1862 95.2693 41.6362 96.1255 43.7233Q97.4089 46.8533 98.6487 49.8861L100.428 49.8861C100.501 49.71 100.573 49.5325 100.647 49.3535C100.982 48.538 101.33 47.6927 101.69 46.8177C102.13 45.7511 102.539 44.7694 102.917 43.8733C103.162 43.2966 103.393 42.7559 103.607 42.2512C103.763 41.8843 103.91 41.5364 104.05 41.2075C104.38 40.4264 104.637 39.8326 104.82 39.4259C104.956 39.1313 105.093 38.8998 105.231 38.7319C105.37 38.5637 105.567 38.4062 105.821 38.2587C105.857 38.2372 105.893 38.2168 105.928 38.1975C106.079 38.1162 106.226 38.0541 106.369 38.011C106.546 37.9581 106.732 37.9226 106.927 37.9052L106.927 37.1975L105.927 37.1975L105.697 37.1975L102.836 37.1975L101.893 37.1975L101.836 37.1975L101.836 37.9052C102.568 37.964 103.069 38.057 103.341 38.1835C103.351 38.1881 103.361 38.1927 103.37 38.1975C103.622 38.3221 103.748 38.4749 103.748 38.6567C103.748 38.8218 103.699 39.068 103.602 39.3949C103.504 39.7219 103.382 40.074 103.234 40.4508C103.071 40.8732 102.893 41.3303 102.702 41.8223C102.541 42.2356 102.37 42.6733 102.19 43.1357C101.92 43.8273 101.603 44.6244 101.24 45.5273C101.071 45.9468 100.892 46.3889 100.703 46.854C100.685 46.8092 100.667 46.7646 100.649 46.7203C100.479 46.2998 100.316 45.8983 100.161 45.5161C99.4519 43.7706 98.8979 42.4249 98.499 41.4791C98.0032 40.3042 97.6611 39.4576 97.4724 38.9395ZM100.107 48.0374L97.5779 41.868Q96.8254 40.0854 96.533 39.2815L96.5286 39.2697L96.5244 39.2577Q96.4536 39.0466 96.4172 38.9161Q96.3484 38.6729 96.3484 38.4355Q96.3484 38.314 96.3716 38.1975L94.7971 38.1975Q95.0183 38.4999 95.2275 38.9545L95.2354 38.9717L97.051 43.3444L99.3198 48.8861L99.7583 48.8861L100.107 48.0374Z" fill="url(#paint_linear_108_5913_1)" fill-opacity="1.000000" fill-rule="evenodd"/>
</svg>
