<svg width="291.000000" height="55.000000" viewBox="0 0 291 55" fill="none" xmlns="http://www.w3.org/2000/svg" xmlns:xlink="http://www.w3.org/1999/xlink">
	<desc>
			Created with Pixso.
	</desc>
	<defs>
		<clipPath id="clip102_199">
			<rect id="Frame 67" rx="5.000000" width="290.000000" height="54.000000" transform="translate(0.500000 0.500000)" fill="white" fill-opacity="0"/>
		</clipPath>
	</defs>
	<rect id="Frame 67" rx="5.000000" width="290.000000" height="54.000000" transform="translate(0.500000 0.500000)" fill="#260423" fill-opacity="1.000000"/>
	<g clip-path="url(#clip102_199)">
		<path id="Bank + Bank" d="M31.1171 30.618L29.8811 30.618L29.8811 28.326L27.5411 28.326L27.5411 27.114L29.8811 27.114L29.8811 24.858L31.1171 24.858L31.1171 27.114L33.4571 27.114L33.4571 28.326L31.1171 28.326L31.1171 30.618Z" fill="#40FD3F" fill-opacity="1.000000" fill-rule="evenodd"/>
		<path id="Bank + Bank" d="M17.5301 10.058L20.8781 10.058C21.7261 10.058 22.4061 10.262 22.9181 10.67C23.4301 11.086 23.6861 11.65 23.6861 12.362C23.6861 12.658 23.6061 12.97 23.4461 13.298C23.2621 13.706 22.9221 14.022 22.4261 14.246C23.0501 14.446 23.4941 14.766 23.7581 15.206C23.9741 15.59 24.0821 15.974 24.0821 16.358C24.0821 17.086 23.8181 17.678 23.2901 18.134C22.7541 18.582 21.9821 18.806 20.9741 18.806L17.5301 18.806L17.5301 10.058ZM18.8861 13.766L20.6141 13.766C21.1901 13.766 21.6141 13.646 21.8861 13.406C22.1741 13.166 22.3181 12.866 22.3181 12.506C22.3181 12.13 22.1821 11.834 21.9101 11.618C21.6381 11.402 21.2301 11.294 20.6861 11.294L18.8861 11.294L18.8861 13.766ZM18.8981 17.57L20.9981 17.57C21.5421 17.57 21.9621 17.454 22.2581 17.222C22.5621 16.982 22.7141 16.658 22.7141 16.25C22.7141 15.858 22.5581 15.546 22.2461 15.314C21.9421 15.082 21.4981 14.966 20.9141 14.966L18.8981 14.966L18.8981 17.57ZM30.2572 18.806L28.9612 18.806C28.9212 18.622 28.9012 18.35 28.9012 17.99C28.7012 18.318 28.4452 18.554 28.1332 18.698C27.8132 18.842 27.4852 18.914 27.1492 18.914C26.5652 18.914 26.0852 18.746 25.7092 18.41C25.3332 18.082 25.1452 17.662 25.1452 17.15L25.1452 17.09C25.1532 16.33 25.5372 15.802 26.2972 15.506C26.7052 15.346 27.1452 15.266 27.6172 15.266L28.3612 15.266C28.7292 15.266 28.9132 15.098 28.9132 14.762C28.9132 14.506 28.8132 14.29 28.6132 14.114C28.3972 13.938 28.1052 13.85 27.7372 13.85C27.3852 13.85 27.0932 13.942 26.8612 14.126C26.6292 14.302 26.4892 14.542 26.4412 14.846L25.2292 14.57C25.2692 14.29 25.4052 13.99 25.6372 13.67C25.8852 13.35 26.1972 13.11 26.5732 12.95C26.9012 12.798 27.3052 12.722 27.7852 12.722C28.9052 12.722 29.6492 13.13 30.0172 13.946C30.1532 14.242 30.2212 14.594 30.2212 15.002L30.2212 17.846C30.2212 18.246 30.2332 18.566 30.2572 18.806ZM28.9012 16.394L28.9012 16.202L27.6172 16.202C27.3372 16.202 27.0772 16.274 26.8372 16.418C26.5972 16.57 26.4772 16.774 26.4772 17.03C26.4772 17.278 26.5652 17.478 26.7412 17.63C26.9172 17.774 27.1452 17.846 27.4252 17.846C27.8812 17.846 28.2412 17.714 28.5052 17.45C28.7692 17.186 28.9012 16.834 28.9012 16.394ZM35.9591 18.806L35.9591 15.47C35.9591 15.006 35.8471 14.642 35.6231 14.378C35.3991 14.114 35.0711 13.982 34.6391 13.982C34.2151 13.982 33.8791 14.118 33.6311 14.39C33.3831 14.662 33.2591 15.026 33.2591 15.482L33.2591 18.806L31.9271 18.806L31.9271 12.842L33.2231 12.842L33.2231 13.646C33.3991 13.414 33.6111 13.222 33.8591 13.07C34.1071 12.926 34.3191 12.83 34.4951 12.782C34.6951 12.742 34.8791 12.722 35.0471 12.722C35.7831 12.722 36.3391 12.946 36.7151 13.394C37.0911 13.826 37.2791 14.406 37.2791 15.134L37.2791 18.806L35.9591 18.806ZM40.3255 15.89L40.3255 18.806L38.9935 18.806L38.9935 9.71L40.3255 9.71L40.3255 15.194L40.3375 15.194L42.6535 12.842L44.4655 12.842L41.7655 15.542L44.6095 18.806L42.8455 18.806L40.3615 15.89L40.3255 15.89ZM17.5301 36.058L20.8781 36.058C21.7261 36.058 22.4061 36.262 22.9181 36.67C23.4301 37.086 23.6861 37.65 23.6861 38.362C23.6861 38.658 23.6061 38.97 23.4461 39.298C23.2621 39.706 22.9221 40.022 22.4261 40.246C23.0501 40.446 23.4941 40.766 23.7581 41.206C23.9741 41.59 24.0821 41.974 24.0821 42.358C24.0821 43.086 23.8181 43.678 23.2901 44.134C22.7541 44.582 21.9821 44.806 20.9741 44.806L17.5301 44.806L17.5301 36.058ZM18.8861 39.766L20.6141 39.766C21.1901 39.766 21.6141 39.646 21.8861 39.406C22.1741 39.166 22.3181 38.866 22.3181 38.506C22.3181 38.13 22.1821 37.834 21.9101 37.618C21.6381 37.402 21.2301 37.294 20.6861 37.294L18.8861 37.294L18.8861 39.766ZM18.8981 43.57L20.9981 43.57C21.5421 43.57 21.9621 43.454 22.2581 43.222C22.5621 42.982 22.7141 42.658 22.7141 42.25C22.7141 41.858 22.5581 41.546 22.2461 41.314C21.9421 41.082 21.4981 40.966 20.9141 40.966L18.8981 40.966L18.8981 43.57ZM30.2572 44.806L28.9612 44.806C28.9212 44.622 28.9012 44.35 28.9012 43.99C28.7012 44.318 28.4452 44.554 28.1332 44.698C27.8132 44.842 27.4852 44.914 27.1492 44.914C26.5652 44.914 26.0852 44.746 25.7092 44.41C25.3332 44.082 25.1452 43.662 25.1452 43.15L25.1452 43.09C25.1532 42.33 25.5372 41.802 26.2972 41.506C26.7052 41.346 27.1452 41.266 27.6172 41.266L28.3612 41.266C28.7292 41.266 28.9132 41.098 28.9132 40.762C28.9132 40.506 28.8132 40.29 28.6132 40.114C28.3972 39.938 28.1052 39.85 27.7372 39.85C27.3852 39.85 27.0932 39.942 26.8612 40.126C26.6292 40.302 26.4892 40.542 26.4412 40.846L25.2292 40.57C25.2692 40.29 25.4052 39.99 25.6372 39.67C25.8852 39.35 26.1972 39.11 26.5732 38.95C26.9012 38.798 27.3052 38.722 27.7852 38.722C28.9052 38.722 29.6492 39.13 30.0172 39.946C30.1532 40.242 30.2212 40.594 30.2212 41.002L30.2212 43.846C30.2212 44.246 30.2332 44.566 30.2572 44.806ZM28.9012 42.394L28.9012 42.202L27.6172 42.202C27.3372 42.202 27.0772 42.274 26.8372 42.418C26.5972 42.57 26.4772 42.774 26.4772 43.03C26.4772 43.278 26.5652 43.478 26.7412 43.63C26.9172 43.774 27.1452 43.846 27.4252 43.846C27.8812 43.846 28.2412 43.714 28.5052 43.45C28.7692 43.186 28.9012 42.834 28.9012 42.394ZM35.9591 44.806L35.9591 41.47C35.9591 41.006 35.8471 40.642 35.6231 40.378C35.3991 40.114 35.0711 39.982 34.6391 39.982C34.2151 39.982 33.8791 40.118 33.6311 40.39C33.3831 40.662 33.2591 41.026 33.2591 41.482L33.2591 44.806L31.9271 44.806L31.9271 38.842L33.2231 38.842L33.2231 39.646C33.3991 39.414 33.6111 39.222 33.8591 39.07C34.1071 38.926 34.3191 38.83 34.4951 38.782C34.6951 38.742 34.8791 38.722 35.0471 38.722C35.7831 38.722 36.3391 38.946 36.7151 39.394C37.0911 39.826 37.2791 40.406 37.2791 41.134L37.2791 44.806L35.9591 44.806ZM40.3255 41.89L40.3255 44.806L38.9935 44.806L38.9935 35.71L40.3255 35.71L40.3255 41.194L40.3375 41.194L42.6535 38.842L44.4655 38.842L41.7655 41.542L44.6095 44.806L42.8455 44.806L40.3615 41.89L40.3255 41.89Z" fill="#FEFFAB" fill-opacity="1.000000" fill-rule="evenodd"/>
		<path id="All Bets" d="M93.6447 24.963L92.6927 27.357L91.0547 27.357L95.2127 17.151L97.1027 17.151L101.233 27.357L99.5667 27.357L98.6287 24.963L93.6447 24.963ZM94.2047 23.535L98.0827 23.535L96.1367 18.691L94.2047 23.535ZM103.844 16.745L103.844 27.357L102.29 27.357L102.29 16.745L103.844 16.745ZM107.467 16.745L107.467 27.357L105.913 27.357L105.913 16.745L107.467 16.745ZM88.1663 32.151L92.0723 32.151C93.0616 32.151 93.8549 32.389 94.4523 32.865C95.0496 33.3503 95.3483 34.0083 95.3483 34.839C95.3483 35.1843 95.2549 35.5483 95.0683 35.931C94.8536 36.407 94.4569 36.7757 93.8783 37.037C94.6063 37.2703 95.1243 37.6437 95.4323 38.157C95.6843 38.605 95.8103 39.053 95.8103 39.501C95.8103 40.3503 95.5023 41.041 94.8863 41.573C94.2609 42.0957 93.3603 42.357 92.1843 42.357L88.1663 42.357L88.1663 32.151ZM89.7483 36.477L91.7643 36.477C92.4363 36.477 92.9309 36.337 93.2483 36.057C93.5843 35.777 93.7523 35.427 93.7523 35.007C93.7523 34.5683 93.5936 34.223 93.2763 33.971C92.9589 33.719 92.4829 33.593 91.8483 33.593L89.7483 33.593L89.7483 36.477ZM89.7623 40.915L92.2123 40.915C92.8469 40.915 93.3369 40.7797 93.6823 40.509C94.0369 40.229 94.2143 39.851 94.2143 39.375C94.2143 38.9177 94.0323 38.5537 93.6683 38.283C93.3136 38.0123 92.7956 37.877 92.1143 37.877L89.7623 37.877L89.7623 40.915ZM103.883 39.333L98.5906 39.333C98.5999 39.837 98.8146 40.271 99.2346 40.635C99.6546 40.9897 100.121 41.1623 100.635 41.153C101.605 41.153 102.221 40.761 102.483 39.977L103.785 40.383C103.663 40.803 103.439 41.1763 103.113 41.503C102.795 41.8297 102.422 42.077 101.993 42.245C101.545 42.4037 101.097 42.483 100.649 42.483C99.6406 42.5017 98.7772 42.1563 98.0586 41.447C97.3399 40.7377 96.9899 39.879 97.0086 38.871C97.0086 38.2177 97.1579 37.6157 97.4566 37.065C97.7646 36.4957 98.1846 36.057 98.7166 35.749C99.2579 35.4223 99.8552 35.259 100.509 35.259C101.573 35.259 102.403 35.5903 103.001 36.253C103.607 36.9157 103.911 37.7837 103.911 38.857C103.911 38.9877 103.901 39.1463 103.883 39.333ZM100.523 36.589C100.028 36.589 99.6172 36.7337 99.2906 37.023C98.9452 37.303 98.7399 37.681 98.6746 38.157L102.329 38.157C102.301 37.6903 102.119 37.3077 101.783 37.009C101.428 36.729 101.008 36.589 100.523 36.589ZM109.102 35.399L109.102 36.799L107.338 36.799L107.338 40.117C107.338 40.425 107.422 40.6537 107.59 40.803C107.758 40.943 108.029 41.013 108.402 41.013C108.589 41.013 108.799 40.9943 109.032 40.957L109.032 42.287C108.687 42.3803 108.318 42.427 107.926 42.427C107.207 42.427 106.671 42.259 106.316 41.923C105.961 41.587 105.784 41.013 105.784 40.201L105.784 36.799L104.44 36.799L104.44 35.399L105.784 35.399L105.784 33.243L107.338 33.243L107.338 35.399L109.102 35.399ZM112.987 42.483C111.951 42.4737 111.19 42.147 110.705 41.503C110.425 41.139 110.271 40.789 110.243 40.453L111.573 40.103C111.647 40.439 111.806 40.7097 112.049 40.915C112.291 41.111 112.599 41.209 112.973 41.209C113.281 41.209 113.519 41.139 113.687 40.999C113.864 40.8497 113.953 40.649 113.953 40.397C113.953 40.0143 113.677 39.7577 113.127 39.627L112.245 39.417C111.647 39.277 111.19 39.0343 110.873 38.689C110.555 38.3343 110.397 37.9143 110.397 37.429C110.397 36.8317 110.635 36.3183 111.111 35.889C111.587 35.4597 112.17 35.245 112.861 35.245C113.841 35.2543 114.555 35.5623 115.003 36.169C115.236 36.477 115.376 36.7897 115.423 37.107L114.121 37.471C114.055 37.1817 113.915 36.9483 113.701 36.771C113.495 36.5937 113.215 36.505 112.861 36.505C112.599 36.505 112.375 36.5797 112.189 36.729C112.002 36.8597 111.909 37.0463 111.909 37.289C111.909 37.681 112.142 37.9237 112.609 38.017L113.561 38.213C114.186 38.353 114.671 38.6097 115.017 38.983C115.362 39.375 115.535 39.8183 115.535 40.313C115.535 40.901 115.311 41.4097 114.863 41.839C114.424 42.2683 113.799 42.483 112.987 42.483Z" fill="#FEFFAB" fill-opacity="1.000000" fill-rule="evenodd"/>
		<path id="Your Bets" d="M172.889 26.357L172.889 22.283L169.053 16.151L170.901 16.151L173.701 20.729L176.515 16.151L178.349 16.151L174.499 22.241L174.499 26.357L172.889 26.357ZM175.705 22.871C175.705 22.199 175.873 21.583 176.209 21.023C176.563 20.4443 177.011 20.0103 177.553 19.721C178.113 19.413 178.729 19.259 179.401 19.259C180.054 19.259 180.661 19.413 181.221 19.721C181.781 20.029 182.229 20.4583 182.565 21.009C182.891 21.5783 183.055 22.1897 183.055 22.843C183.073 23.8417 182.714 24.705 181.977 25.433C181.249 26.1517 180.385 26.5017 179.387 26.483C178.743 26.483 178.131 26.3243 177.553 26.007C177.011 25.7177 176.563 25.2837 176.209 24.705C175.873 24.145 175.705 23.5337 175.705 22.871ZM177.301 22.843C177.301 23.4497 177.497 23.9723 177.889 24.411C178.281 24.8497 178.785 25.069 179.401 25.069C180.007 25.069 180.507 24.8543 180.899 24.425C181.281 23.9957 181.473 23.4777 181.473 22.871C181.473 22.2457 181.277 21.723 180.885 21.303C180.511 20.8737 180.012 20.659 179.387 20.659C178.771 20.659 178.267 20.869 177.875 21.289C177.492 21.6997 177.301 22.2177 177.301 22.843ZM186.141 19.399L186.141 23.291C186.141 23.8323 186.272 24.257 186.533 24.565C186.794 24.873 187.172 25.027 187.667 25.027C188.162 25.027 188.554 24.8683 188.843 24.551C189.132 24.2337 189.277 23.809 189.277 23.277L189.277 19.399L190.831 19.399L190.831 26.357L189.319 26.357L189.319 25.419C189.104 25.7083 188.862 25.9323 188.591 26.091C188.348 26.2497 188.096 26.3617 187.835 26.427C187.658 26.4737 187.443 26.497 187.191 26.497C186.64 26.497 186.164 26.3757 185.763 26.133C185.362 25.881 185.063 25.5403 184.867 25.111C184.68 24.7097 184.587 24.2337 184.587 23.683L184.587 19.399L186.141 19.399ZM196.709 19.371L196.709 20.967C196.588 20.939 196.443 20.925 196.275 20.925C195.687 20.925 195.235 21.0883 194.917 21.415C194.609 21.7417 194.455 22.2083 194.455 22.815L194.455 26.357L192.901 26.357L192.901 19.399L194.427 19.399L194.427 20.477C194.623 20.113 194.889 19.833 195.225 19.637C195.571 19.441 195.939 19.343 196.331 19.343C196.434 19.343 196.56 19.3523 196.709 19.371ZM169.166 31.151L173.072 31.151C174.062 31.151 174.855 31.389 175.452 31.865C176.05 32.3503 176.348 33.0083 176.348 33.839C176.348 34.1843 176.255 34.5483 176.068 34.931C175.854 35.407 175.457 35.7757 174.878 36.037C175.606 36.2703 176.124 36.6437 176.432 37.157C176.684 37.605 176.81 38.053 176.81 38.501C176.81 39.3503 176.502 40.041 175.886 40.573C175.261 41.0957 174.36 41.357 173.184 41.357L169.166 41.357L169.166 31.151ZM170.748 35.477L172.764 35.477C173.436 35.477 173.931 35.337 174.248 35.057C174.584 34.777 174.752 34.427 174.752 34.007C174.752 33.5683 174.594 33.223 174.276 32.971C173.959 32.719 173.483 32.593 172.848 32.593L170.748 32.593L170.748 35.477ZM170.762 39.915L173.212 39.915C173.847 39.915 174.337 39.7797 174.682 39.509C175.037 39.229 175.214 38.851 175.214 38.375C175.214 37.9177 175.032 37.5537 174.668 37.283C174.314 37.0123 173.796 36.877 173.114 36.877L170.762 36.877L170.762 39.915ZM184.883 38.333L179.591 38.333C179.6 38.837 179.815 39.271 180.235 39.635C180.655 39.9897 181.121 40.1623 181.635 40.153C182.605 40.153 183.221 39.761 183.483 38.977L184.785 39.383C184.663 39.803 184.439 40.1763 184.113 40.503C183.795 40.8297 183.422 41.077 182.993 41.245C182.545 41.4037 182.097 41.483 181.649 41.483C180.641 41.5017 179.777 41.1563 179.059 40.447C178.34 39.7377 177.99 38.879 178.009 37.871C178.009 37.2177 178.158 36.6157 178.457 36.065C178.765 35.4957 179.185 35.057 179.717 34.749C180.258 34.4223 180.855 34.259 181.509 34.259C182.573 34.259 183.403 34.5903 184.001 35.253C184.607 35.9157 184.911 36.7837 184.911 37.857C184.911 37.9877 184.901 38.1463 184.883 38.333ZM181.523 35.589C181.028 35.589 180.617 35.7337 180.291 36.023C179.945 36.303 179.74 36.681 179.675 37.157L183.329 37.157C183.301 36.6903 183.119 36.3077 182.783 36.009C182.428 35.729 182.008 35.589 181.523 35.589ZM190.102 34.399L190.102 35.799L188.338 35.799L188.338 39.117C188.338 39.425 188.422 39.6537 188.59 39.803C188.758 39.943 189.029 40.013 189.402 40.013C189.589 40.013 189.799 39.9943 190.032 39.957L190.032 41.287C189.687 41.3803 189.318 41.427 188.926 41.427C188.207 41.427 187.671 41.259 187.316 40.923C186.961 40.587 186.784 40.013 186.784 39.201L186.784 35.799L185.44 35.799L185.44 34.399L186.784 34.399L186.784 32.243L188.338 32.243L188.338 34.399L190.102 34.399ZM193.987 41.483C192.951 41.4737 192.19 41.147 191.705 40.503C191.425 40.139 191.271 39.789 191.243 39.453L192.573 39.103C192.647 39.439 192.806 39.7097 193.049 39.915C193.291 40.111 193.599 40.209 193.973 40.209C194.281 40.209 194.519 40.139 194.687 39.999C194.864 39.8497 194.953 39.649 194.953 39.397C194.953 39.0143 194.677 38.7577 194.127 38.627L193.245 38.417C192.647 38.277 192.19 38.0343 191.873 37.689C191.555 37.3343 191.397 36.9143 191.397 36.429C191.397 35.8317 191.635 35.3183 192.111 34.889C192.587 34.4597 193.17 34.245 193.861 34.245C194.841 34.2543 195.555 34.5623 196.003 35.169C196.236 35.477 196.376 35.7897 196.423 36.107L195.121 36.471C195.055 36.1817 194.915 35.9483 194.701 35.771C194.495 35.5937 194.215 35.505 193.861 35.505C193.599 35.505 193.375 35.5797 193.189 35.729C193.002 35.8597 192.909 36.0463 192.909 36.289C192.909 36.681 193.142 36.9237 193.609 37.017L194.561 37.213C195.186 37.353 195.671 37.6097 196.017 37.983C196.362 38.375 196.535 38.8183 196.535 39.313C196.535 39.901 196.311 40.4097 195.863 40.839C195.424 41.2683 194.799 41.483 193.987 41.483Z" fill="#FEFFAB" fill-opacity="1.000000" fill-rule="evenodd"/>
		<path id="/" d="M69.6886 18.396L72.3526 18.396L64.3606 36.732L61.6966 36.732L69.6886 18.396Z" fill="#40FD3F" fill-opacity="1.000000" fill-rule="evenodd"/>
		<path id="×" d="M140.477 32.196L138.773 30.444L143.285 25.932L138.773 21.396L140.477 19.644L145.013 24.228L149.525 19.644L151.253 21.396L146.717 25.932L151.253 30.444L149.525 32.196L145.013 27.636L140.477 32.196Z" fill="#40FD3F" fill-opacity="1.000000" fill-rule="evenodd"/>
		<path id="=" d="M223.4 22.084L223.4 24.556L212.6 24.556L212.6 22.084L223.4 22.084ZM223.4 28.324L223.4 30.796L212.6 30.796L212.6 28.324L223.4 28.324Z" fill="#40FD3F" fill-opacity="1.000000" fill-rule="evenodd"/>
		<path id="Profit" d="M247.3 25.329C247.3 26.2343 246.983 26.995 246.348 27.611C245.686 28.255 244.748 28.577 243.534 28.577L241.714 28.577L241.714 32.357L240.118 32.357L240.118 22.151L243.73 22.151C245.168 22.151 246.185 22.6083 246.782 23.523C247.128 24.055 247.3 24.657 247.3 25.329ZM245.676 25.357C245.676 24.8903 245.518 24.489 245.2 24.153C244.883 23.8077 244.346 23.635 243.59 23.635L241.714 23.635L241.714 27.107L243.59 27.107C244.337 27.107 244.878 26.9157 245.214 26.533C245.522 26.1783 245.676 25.7863 245.676 25.357ZM252.547 25.371L252.547 26.967C252.426 26.939 252.281 26.925 252.113 26.925C251.525 26.925 251.072 27.0883 250.755 27.415C250.447 27.7417 250.293 28.2083 250.293 28.815L250.293 32.357L248.739 32.357L248.739 25.399L250.265 25.399L250.265 26.477C250.461 26.113 250.727 25.833 251.063 25.637C251.408 25.441 251.777 25.343 252.169 25.343C252.272 25.343 252.398 25.3523 252.547 25.371ZM253.048 28.871C253.048 28.199 253.216 27.583 253.552 27.023C253.907 26.4443 254.355 26.0103 254.896 25.721C255.456 25.413 256.072 25.259 256.744 25.259C257.398 25.259 258.004 25.413 258.564 25.721C259.124 26.029 259.572 26.4583 259.908 27.009C260.235 27.5783 260.398 28.1897 260.398 28.843C260.417 29.8417 260.058 30.705 259.32 31.433C258.592 32.1517 257.729 32.5017 256.73 32.483C256.086 32.483 255.475 32.3243 254.896 32.007C254.355 31.7177 253.907 31.2837 253.552 30.705C253.216 30.145 253.048 29.5337 253.048 28.871ZM254.644 28.843C254.644 29.4497 254.84 29.9723 255.232 30.411C255.624 30.8497 256.128 31.069 256.744 31.069C257.351 31.069 257.85 30.8543 258.242 30.425C258.625 29.9957 258.816 29.4777 258.816 28.871C258.816 28.2457 258.62 27.723 258.228 27.303C257.855 26.8737 257.356 26.659 256.73 26.659C256.114 26.659 255.61 26.869 255.218 27.289C254.836 27.6997 254.644 28.2177 254.644 28.843ZM267.047 26.771L263.939 26.771L263.939 32.357L262.385 32.357L262.385 26.771L261.055 26.771L261.055 25.399L262.385 25.399L262.385 24.587C262.385 23.5697 262.642 22.8277 263.155 22.361C263.64 21.9317 264.242 21.717 264.961 21.717C265.353 21.717 265.642 21.7543 265.829 21.829L265.829 23.145C265.68 23.1077 265.493 23.089 265.269 23.089C264.998 23.089 264.728 23.1683 264.457 23.327C264.112 23.551 263.939 23.9663 263.939 24.573L263.939 25.399L268.601 25.399L268.601 32.357L267.047 32.357L267.047 26.771ZM266.795 23.145C266.795 22.865 266.898 22.6223 267.103 22.417C267.299 22.2117 267.537 22.109 267.817 22.109C268.097 22.109 268.34 22.2117 268.545 22.417C268.741 22.613 268.839 22.8557 268.839 23.145C268.839 23.425 268.741 23.663 268.545 23.859C268.34 24.0643 268.097 24.167 267.817 24.167C267.546 24.167 267.308 24.0643 267.103 23.859C266.898 23.6537 266.795 23.4157 266.795 23.145ZM274.603 25.399L274.603 26.799L272.839 26.799L272.839 30.117C272.839 30.425 272.923 30.6537 273.091 30.803C273.259 30.943 273.529 31.013 273.903 31.013C274.089 31.013 274.299 30.9943 274.533 30.957L274.533 32.287C274.187 32.3803 273.819 32.427 273.427 32.427C272.708 32.427 272.171 32.259 271.817 31.923C271.462 31.587 271.285 31.013 271.285 30.201L271.285 26.799L269.941 26.799L269.941 25.399L271.285 25.399L271.285 23.243L272.839 23.243L272.839 25.399L274.603 25.399Z" fill="#FEFFAB" fill-opacity="1.000000" fill-rule="evenodd"/>
	</g>
	<rect id="Frame 67" rx="5.000000" width="290.000000" height="54.000000" transform="translate(0.500000 0.500000)" stroke="#F8D05F" stroke-opacity="1.000000" stroke-width="1.000000"/>
</svg>
