<svg width="175.294922" height="166.001343" viewBox="0 0 175.295 166.001" fill="none" xmlns="http://www.w3.org/2000/svg" xmlns:xlink="http://www.w3.org/1999/xlink">
	<desc>
			Created with Pixso.
	</desc>
	<defs>
		<clipPath id="clip143_47">
			<rect id="gucci"  rx="50" ry="50" width="91.422226" height="91.422226" transform="translate(40.388672 47.197388)" fill="white" fill-opacity="0"/>
		</clipPath>
		<filter id="filter_143_50_dd" x="108.363281" y="56.202881" width="51.738770" height="60.887451" filterUnits="userSpaceOnUse" color-interpolation-filters="sRGB">
			<feFlood flood-opacity="0" result="BackgroundImageFix"/>
			<feColorMatrix in="SourceAlpha" type="matrix" values="0 0 0 0 0 0 0 0 0 0 0 0 0 0 0 0 0 0 127 0" result="hardAlpha"/>
			<feOffset dx="-4" dy="4"/>
			<feGaussianBlur stdDeviation="1.33333"/>
			<feComposite in2="hardAlpha" operator="out" k2="-1" k3="1"/>
			<feColorMatrix type="matrix" values="0 0 0 0 0 0 0 0 0 0 0 0 0 0 0 0 0 0 0.25 0"/>
			<feBlend mode="normal" in2="BackgroundImageFix" result="effect_dropShadow_1"/>
			<feBlend mode="normal" in="SourceGraphic" in2="effect_dropShadow_1" result="shape"/>
		</filter>
		<filter id="filter_143_51_dd" x="121.842285" y="56.771606" width="38.260254" height="60.318726" filterUnits="userSpaceOnUse" color-interpolation-filters="sRGB">
			<feFlood flood-opacity="0" result="BackgroundImageFix"/>
			<feColorMatrix in="SourceAlpha" type="matrix" values="0 0 0 0 0 0 0 0 0 0 0 0 0 0 0 0 0 0 127 0" result="hardAlpha"/>
			<feOffset dx="-4" dy="4"/>
			<feGaussianBlur stdDeviation="1.33333"/>
			<feComposite in2="hardAlpha" operator="out" k2="-1" k3="1"/>
			<feColorMatrix type="matrix" values="0 0 0 0 0 0 0 0 0 0 0 0 0 0 0 0 0 0 0.25 0"/>
			<feBlend mode="normal" in2="BackgroundImageFix" result="effect_dropShadow_1"/>
			<feBlend mode="normal" in="SourceGraphic" in2="effect_dropShadow_1" result="shape"/>
		</filter>
		<clipPath id="clip143_49">
			<rect id="shield-antivirus-svgrepo-com 1" width="70.543427" height="70.543427" transform="translate(106.676758 38.867554) rotate(13.416811)" fill="white" fill-opacity="0"/>
		</clipPath>
		<filter id="filter_143_54_dd" x="45.055664" y="-3.985840" width="75.053711" height="77.403931" filterUnits="userSpaceOnUse" color-interpolation-filters="sRGB">
			<feFlood flood-opacity="0" result="BackgroundImageFix"/>
			<feColorMatrix in="SourceAlpha" type="matrix" values="0 0 0 0 0 0 0 0 0 0 0 0 0 0 0 0 0 0 127 0" result="hardAlpha"/>
			<feOffset dx="0" dy="4"/>
			<feGaussianBlur stdDeviation="3.33333"/>
			<feComposite in2="hardAlpha" operator="out" k2="-1" k3="1"/>
			<feColorMatrix type="matrix" values="0 0 0 0 0 0 0 0 0 0 0 0 0 0 0 0 0 0 0.5 0"/>
			<feBlend mode="normal" in2="BackgroundImageFix" result="effect_dropShadow_1"/>
			<feBlend mode="normal" in="SourceGraphic" in2="effect_dropShadow_1" result="shape"/>
		</filter>
		<clipPath id="clip143_52">
			<rect id="helmet_red" width="60.425068" height="62.983063" transform="matrix(-1 0 0 1 111.788 0)" fill="white" fill-opacity="0"/>
		</clipPath>
		<filter id="filter_143_72_dd" x="-5.276367" y="0.713867" width="72.704102" height="114.330322" filterUnits="userSpaceOnUse" color-interpolation-filters="sRGB">
			<feFlood flood-opacity="0" result="BackgroundImageFix"/>
			<feColorMatrix in="SourceAlpha" type="matrix" values="0 0 0 0 0 0 0 0 0 0 0 0 0 0 0 0 0 0 127 0" result="hardAlpha"/>
			<feOffset dx="0" dy="4"/>
			<feGaussianBlur stdDeviation="3.33333"/>
			<feComposite in2="hardAlpha" operator="out" k2="-1" k3="1"/>
			<feColorMatrix type="matrix" values="0 0 0 0 0 0 0 0 0 0 0 0 0 0 0 0 0 0 0.5 0"/>
			<feBlend mode="normal" in2="BackgroundImageFix" result="effect_dropShadow_1"/>
			<feBlend mode="normal" in="SourceGraphic" in2="effect_dropShadow_1" result="shape"/>
		</filter>
		<clipPath id="clip143_70">
			<rect id="sword_red" width="57.091618" height="102.521194" transform="matrix(-1 0 0 1 57.0918 0)" fill="white" fill-opacity="0"/>
		</clipPath>
		<filter id="filter_143_79_dd" x="32.922852" y="146.673340" width="115.251953" height="15.783936" filterUnits="userSpaceOnUse" color-interpolation-filters="sRGB">
			<feFlood flood-opacity="0" result="BackgroundImageFix"/>
			<feColorMatrix in="SourceAlpha" type="matrix" values="0 0 0 0 0 0 0 0 0 0 0 0 0 0 0 0 0 0 127 0" result="hardAlpha"/>
			<feOffset dx="0" dy="2"/>
			<feGaussianBlur stdDeviation="0.666667"/>
			<feComposite in2="hardAlpha" operator="out" k2="-1" k3="1"/>
			<feColorMatrix type="matrix" values="0 0 0 0 0 0 0 0 0 0 0 0 0 0 0 0 0 0 0.5 0"/>
			<feBlend mode="normal" in2="BackgroundImageFix" result="effect_dropShadow_1"/>
			<feBlend mode="normal" in="SourceGraphic" in2="effect_dropShadow_1" result="shape"/>
		</filter>
	</defs>
	<rect id="gucci"  rx="50" ry="50" width="91.422226" height="91.422226" transform="translate(40.388672 47.197388)" fill="#C8B388" fill-opacity="1.000000"/>
	<g clip-path="url(#clip143_47)">
		<path id="Vector" d="M119.988 91.3683C119.988 104.125 109.472 114.474 96.5088 114.474C92.7739 114.474 89.2544 113.63 86.0786 112.066C82.9443 113.587 79.3818 114.474 75.6909 114.474C62.7275 114.474 52.2114 104.125 52.2114 91.3683C52.2114 78.6116 62.7275 68.2627 75.6904 68.2627C79.4248 68.2627 82.9443 69.1075 86.0776 70.6282C89.2114 69.1075 92.7739 68.2627 96.5088 68.2627C109.472 68.2627 119.988 78.6116 119.988 91.3683ZM115.353 91.3683C115.353 81.1462 106.896 72.825 96.5088 72.825C94.5342 72.825 92.603 73.1205 90.8428 73.6698C94.4482 76.6263 97.0669 80.5969 98.354 85.1592L93.5039 85.1592C92.1411 81.3506 89.5483 78.0864 86.1216 75.8661C82.73 78.0623 80.1548 81.3154 78.7812 85.1592L73.9312 85.1592C75.2012 80.6602 77.8188 76.6418 81.4424 73.6276C79.5933 73.0665 77.6685 72.7817 75.7334 72.7826C65.3462 72.7826 56.8906 81.104 56.8906 91.3259C56.8906 101.548 65.3462 109.87 75.7334 109.87C77.708 109.87 79.5962 109.574 81.3564 109.025C76.6782 105.181 73.6309 99.521 73.1587 93.1849L84.3184 93.1849L84.3184 97.7042L78.8667 97.7889C80.2837 101.506 82.8164 104.633 86.1216 106.786C89.4258 104.632 91.9585 101.506 93.3755 97.7889L87.9238 97.7042L87.9238 93.1849L99.0845 93.1849C98.5688 99.521 95.479 105.139 90.7998 108.983C92.603 109.532 94.5342 109.87 96.5088 109.87C106.939 109.912 115.353 101.633 115.353 91.3683Z" fill="#000000" fill-opacity="1.000000" fill-rule="evenodd"/>
	</g>
	<rect id="gucci"  rx="50" ry="50" width="91.422226" height="91.422226" transform="translate(40.388672 47.197388)" stroke="#CDCCCC" stroke-opacity="1.000000" stroke-width="1.000000"/>
	<rect id="shield-antivirus-svgrepo-com 1" width="70.543427" height="70.543427" transform="translate(106.676758 38.867554) rotate(13.416811)" fill="#FFFFFF" fill-opacity="0"/>
	<g clip-path="url(#clip143_49)">
		<g filter="url(#filter_143_50_dd)">
			<path id="Vector" d="M129.844 109.09L128.636 107.545C122.009 99.0408 113.766 88.4604 117.148 74.2825L120.371 60.7737L122.754 61.3424C131.362 63.3956 138.749 61.1862 139.938 56.2029L144.706 57.3402C143.517 62.3235 149.111 67.6296 157.718 69.6829L160.102 70.2515L156.88 83.7603C153.498 97.9382 141.366 103.658 131.618 108.254L129.844 109.09Z" fill="#7AB9E8" fill-opacity="1.000000" fill-rule="nonzero"/>
		</g>
		<g filter="url(#filter_143_51_dd)">
			<path id="Vector" d="M157.719 69.6829C149.111 67.6296 143.517 62.3235 144.706 57.3403L142.322 56.7716L129.842 109.087L129.845 109.09L131.618 108.254C141.366 103.658 153.498 97.9384 156.88 83.7603L160.103 70.2515L157.719 69.6829Z" fill="#579ADF" fill-opacity="1.000000" fill-rule="nonzero"/>
		</g>
	</g>
	<rect id="helmet_red" width="60.425068" height="62.983063" transform="matrix(-1 0 0 1 111.788 0)" fill="#FFFFFF" fill-opacity="0"/>
	<g clip-path="url(#clip143_52)">
		<g filter="url(#filter_143_54_dd)">
			<path id="Vector" d="M67.2881 44.6475C66.6768 47.1292 66.0684 49.6089 65.4624 52.0865C71.0444 55.2812 78.0928 57.0652 86.9468 57.0681L86.9468 46.8228L67.2881 44.6475Z" fill="#535353" fill-opacity="1.000000" fill-rule="evenodd"/>
			<path id="Vector" d="M106.589 44.6475C107.208 47.1292 107.823 49.6089 108.431 52.0865C102.837 55.2812 95.8047 57.0652 86.9468 57.0681L86.9468 46.8228L106.589 44.6475Z" fill="#676767" fill-opacity="1.000000" fill-rule="evenodd"/>
			<path id="Vector" d="M91.3413 17.9391C104.095 6.65991 79.9785 7.72876 73.1821 2.01416C72.7026 2.49133 72.418 3.06506 72.3643 3.66406C72.3105 4.26294 72.4897 4.86072 72.8799 5.38293C69.8628 7.25708 64.5586 4.69995 61.6826 8.29224C64.9419 8.15137 66.9263 9.1283 68.1362 10.436C59.1982 9.40088 62.6953 15.7004 55.0557 16.0557C60.7471 18.4658 74.1143 13.8384 82.3789 19.4703C86.1099 19.3662 87.6104 18.0524 91.3413 17.9391Z" fill="#1B2241" fill-opacity="1.000000" fill-rule="evenodd"/>
			<path id="Vector" d="M55.0596 15.9515C60.6934 18.4408 73.9624 13.6978 82.1665 19.4703C83.6929 19.4055 85.1953 19.1412 86.6108 18.6887C75.8804 9.21204 66.3589 17.6246 55.0557 15.9515L55.0596 15.9515Z" fill="#1A1A1A" fill-opacity="1.000000" fill-rule="evenodd"/>
			<path id="Vector" d="M90.5962 16.9808C89.1235 17.0956 87.6787 17.3604 86.3027 17.7677L86.2056 17.7919C86.686 17.2552 87.1587 16.7186 87.623 16.182C91.8438 12.5917 82.9614 8.34412 77.5742 7.4729C75.6338 8.72693 72.645 8.13306 71.1138 9.01331C72.4341 10.0806 73.2524 11.9254 74.5767 12.9926C59.4526 11.4612 66.3423 15.1028 59.084 15.8082C59.5728 15.5612 60.0166 15.2683 60.4043 14.937C62.835 12.8721 62.4741 10.6171 67.772 11.22L70.7207 11.5547C70.1997 11.016 69.6743 10.4784 69.1455 9.94189C67.9512 8.69543 66.1533 7.84277 64.1309 7.56335C64.605 7.35693 65.127 7.21887 65.6699 7.15637C66.1875 7.09802 66.71 7.06689 67.2334 7.06287C69.5908 7.02075 71.8389 7.15942 73.7144 6.03198L74.4106 5.60693C74.2729 5.41992 74.1313 5.23608 74.0059 5.05225C73.6924 4.63953 73.5605 4.16394 73.6289 3.69263C76.0591 5.06421 79.4214 5.98669 82.3008 6.75244C84.5815 7.35535 86.9751 7.95825 89.1382 8.70886C90.665 9.24548 92.3784 9.99011 93.1885 11.009C94.6587 12.9082 92.3867 15.3771 90.5962 16.9808Z" fill="#4386BB" fill-opacity="1.000000" fill-rule="evenodd"/>
			<path id="Vector" d="M88.4717 17.2307C87.7051 17.3807 86.9492 17.5599 86.207 17.7677L86.1104 17.7919C86.5894 17.252 87.0601 16.7119 87.5229 16.1719C91.729 12.5585 82.8774 8.28369 77.5093 7.40698C75.5757 8.66907 72.5972 8.07141 71.0713 8.95728C72.3872 10.0312 73.2026 11.8879 74.5225 12.962C59.4512 11.4208 66.3169 15.0857 59.084 15.7957C62.8496 15.0583 62.7812 12.3947 64.9204 11.7545C67.0596 11.1144 69.8848 12.5889 72.04 11.9487C71.814 10.7139 70.793 9.70972 69.3076 8.17761C71.3701 7.24011 76.5728 8.07739 75.4912 5.37122C80.1206 9.20911 95.0347 7.61926 89.3755 16.8999L88.4717 17.2307Z" fill="#283A84" fill-opacity="1.000000" fill-rule="evenodd"/>
			<path id="Vector" d="M80.2324 20.6453C80.2324 23.1482 83.3135 25.1771 87.1143 25.1771C90.915 25.1771 93.9961 23.1482 93.9961 20.6453C93.9961 18.1423 90.915 16.1134 87.1143 16.1134C83.3135 16.1134 80.2324 18.1423 80.2324 20.6453Z" fill="#CDCCCC" fill-opacity="1.000000" fill-rule="evenodd"/>
			<path id="Vector" d="M87.084 20.8131C78.4561 20.8131 71.084 24.2338 68.1353 29.059C66.5518 29.5675 65.4619 30.6149 65.4619 31.8136C65.4697 32.2122 65.5903 32.605 65.8149 32.9664C66.0396 33.3279 66.3638 33.6499 66.7661 33.9114C66.9121 40.9677 75.9531 46.6616 87.084 46.6616C98.2148 46.6616 107.223 40.9797 107.394 33.9417C107.814 33.6792 108.154 33.3523 108.391 32.983C108.628 32.6139 108.756 32.2109 108.767 31.8015C108.767 30.5907 107.641 29.5221 106.021 29.0226C103.06 24.2095 95.6997 20.8131 87.084 20.8131Z" fill="#8B8A8A" fill-opacity="1.000000" fill-rule="evenodd"/>
			<path id="Vector" d="M90.3032 39.9478C82.7173 39.9478 76.54 36.0352 76.54 31.2196C76.54 26.4042 82.7295 22.4916 90.3032 22.4916C97.8774 22.4916 104.067 26.4042 104.067 31.2196C104.067 36.0352 97.8936 39.9478 90.3032 39.9478Z" fill="#989898" fill-opacity="1.000000" fill-rule="evenodd"/>
			<path id="Vector" d="M94.4995 30.2126C91.6318 30.2126 89.2959 28.7036 89.2959 26.8557C89.2959 25.0078 91.6318 23.4988 94.4995 23.4988C97.3672 23.4988 99.7026 25.0048 99.7026 26.8557C99.7026 28.7067 97.3428 30.2126 94.4995 30.2126Z" fill="#ACACAC" fill-opacity="1.000000" fill-rule="evenodd"/>
			<path id="Vector" d="M86.9463 28.1987L87.1436 28.1987C89.8877 28.1881 92.6118 28.559 95.1816 29.2928L110.109 33.5317L110.109 46.1622C103.578 51.9427 95.9614 56.4696 86.9463 59.4181L86.9463 28.1987Z" fill="#CDCCCC" fill-opacity="1.000000" fill-rule="evenodd"/>
			<path id="Vector" d="M90.3032 30.2126C91.4927 30.3632 92.6597 30.6052 93.7876 30.9352L96.6489 31.7592L96.6489 52.8973C94.6294 54.0616 92.5107 55.1187 90.3071 56.0612L90.3071 30.2126L90.3032 30.2126ZM97.9927 32.1466L102.444 33.4287L102.444 49.1094C101.037 50.1455 99.5547 51.1478 97.9927 52.101L97.9927 32.1466ZM103.784 33.8131L106.752 34.6678L106.752 45.632C105.801 46.4683 104.812 47.2882 103.784 48.0917L103.784 33.8131Z" fill="#333333" fill-opacity="1.000000" fill-rule="evenodd"/>
			<path id="Vector" d="M86.9468 28.1986L86.75 28.1986C84.0122 28.1899 81.2954 28.5607 78.7314 29.2928L63.7837 33.5286L63.7837 46.1592C70.3193 51.9427 77.9355 56.4696 86.9468 59.4181L86.9468 28.1986Z" fill="#B4B4B4" fill-opacity="1.000000" fill-rule="evenodd"/>
			<path id="Vector" d="M83.5894 30.2126C82.3755 30.3636 81.1846 30.6056 80.0332 30.9352L77.1123 31.7592L77.1123 52.8973C79.1743 54.061 81.3369 55.1179 83.5854 56.0612L83.5854 30.2126L83.5894 30.2126ZM75.7412 32.1466L71.2021 33.4287L71.2021 49.1094C72.6343 50.1455 74.147 51.1478 75.7412 52.101L75.7412 32.1466ZM69.8306 33.8131L66.8047 34.6678L66.8047 45.632C67.7729 46.4683 68.7817 47.2882 69.8306 48.0917L69.8306 33.8131Z" fill="#1A1A1A" fill-opacity="1.000000" fill-rule="evenodd"/>
			<path id="Vector" d="M88.8511 17.1205C87.5625 17.1205 86.9448 17.723 87.4692 18.4633C87.8013 18.8585 88.2773 19.1896 88.8525 19.4247C89.4272 19.6598 90.082 19.7911 90.7534 19.806C92.0376 19.806 92.6553 19.2062 92.1313 18.4633C91.7988 18.0687 91.3232 17.7382 90.749 17.5032C90.1748 17.2682 89.5215 17.1364 88.8511 17.1205Z" fill="#E3E3E3" fill-opacity="1.000000" fill-rule="evenodd"/>
		</g>
	</g>
	<rect id="sword_red" width="57.091618" height="102.521194" transform="matrix(-1 0 0 1 57.0918 0)" fill="#FFFFFF" fill-opacity="0"/>
	<g clip-path="url(#clip143_70)">
		<g filter="url(#filter_143_72_dd)">
			<path id="Vector" d="M56.3091 93.459L56.0405 93.598C55.7358 93.7616 55.3965 93.8508 55.0508 93.8583C54.7046 93.8658 54.3623 93.7915 54.0503 93.6412C53.7349 93.5005 53.4565 93.2872 53.2388 93.0188C53.0205 92.7504 52.8691 92.4344 52.7959 92.0964C52.1782 89.396 50.9419 86.0962 49.1841 82.6882C47.4258 79.2803 45.4512 76.3636 43.6221 74.2966C43.3931 74.0391 43.2256 73.7325 43.1333 73.4005C43.0405 73.0684 43.0254 72.7195 43.0879 72.3805C43.1509 72.0416 43.2905 71.7214 43.4961 71.4447C43.7017 71.168 43.9678 70.9418 44.2744 70.7837L44.5459 70.6447L43.4277 68.4818L38.1748 71.1884L32.9219 73.8918L34.0405 76.0547L34.3096 75.9156C34.6172 75.7546 34.9575 75.6666 35.3052 75.6584C35.6523 75.6504 35.9966 75.7223 36.3115 75.8687C36.6265 76.015 36.9033 76.2321 37.1211 76.5027C37.3384 76.7734 37.4907 77.0906 37.5659 77.4296C38.1841 80.127 39.4199 83.4298 41.1782 86.8347C42.936 90.2395 44.9106 93.1593 46.7397 95.2263C46.9692 95.4841 47.1362 95.7909 47.229 96.1232C47.3213 96.4556 47.3369 96.8046 47.2739 97.1438C47.2109 97.483 47.0718 97.8033 46.8662 98.0804C46.6606 98.3574 46.3945 98.5839 46.0879 98.7424L45.8159 98.8815L46.9346 101.044L52.1875 98.3407L57.4277 95.6249L56.3091 93.459Z" fill="#4592CF" fill-opacity="1.000000" fill-rule="evenodd"/>
			<path id="Vector" d="M42.938 75.572C42.0718 76.024 43.2749 80.1326 45.6289 84.7427C47.9834 89.3528 50.5947 92.7275 51.4458 92.2755C52.2969 91.8235 51.1089 87.715 48.7549 83.1049C46.4004 78.4948 43.8042 75.12 42.938 75.572Z" fill="#283A84" fill-opacity="1.000000" fill-rule="evenodd"/>
			<path id="Vector" d="M4.72363 6.71387L7.53857 22.6226L33.8013 73.5171L42.3213 69.1199L16.0586 18.2252L4.72363 6.71387Z" fill="#D1D2D2" fill-opacity="1.000000" fill-rule="evenodd"/>
			<path id="Vector" d="M13.2222 15.3073L8.75098 12.3953L10.3232 21.886L33.9292 73.5171L7.55127 22.6226L4.72363 6.71387L13.2222 15.3073Z" fill="#E6E6E5" fill-opacity="1.000000" fill-rule="evenodd"/>
			<path id="Vector" d="M12.1089 21.1488L24.5176 46.4922L36.9292 71.8387L38.2842 71.1493L39.6357 70.46L25.8721 45.8059L12.1089 21.1488Z" fill="#818181" fill-opacity="1.000000" fill-rule="evenodd"/>
			<path id="Vector" d="M44.917 66.0634L29.896 73.858C29.1235 73.299 28.1865 73.0178 27.2358 73.0599C26.2852 73.1019 25.376 73.4648 24.6558 74.09C23.9351 74.7151 23.4448 75.566 23.2642 76.5055C23.083 77.4451 23.2222 78.4186 23.6592 79.2689C24.0957 80.1191 24.8042 80.7969 25.6709 81.1926C26.5371 81.5884 27.5107 81.6791 28.4351 81.4502C29.3589 81.2213 30.1792 80.6862 30.7637 79.931C31.3481 79.1758 31.6631 78.2446 31.6567 77.2877L46.6782 69.493C47.4512 70.0536 48.3896 70.3359 49.3423 70.2943C50.2944 70.2527 51.2051 69.8896 51.9272 69.2637C52.6494 68.6378 53.1406 67.7855 53.3218 66.8442C53.5034 65.9031 53.3643 64.928 52.9268 64.0762C52.4893 63.2244 51.7793 62.5455 50.9111 62.1493C50.0435 61.7531 49.0679 61.6624 48.1421 61.892C47.2168 62.1216 46.395 62.6581 45.8101 63.4149C45.2246 64.1718 44.9102 65.1047 44.917 66.0634Z" fill="#333333" fill-opacity="1.000000" fill-rule="evenodd"/>
		</g>
	</g>
	<g filter="url(#filter_143_79_dd)">
		<path id="Guccio Gucci S.p.A." d="M43.1906 149.277L42.3146 149.589C42.1786 149.205 41.9786 148.861 41.7146 148.557C41.5146 148.349 41.3226 148.181 41.1386 148.053C40.6426 147.709 40.0306 147.537 39.3026 147.537C38.6306 147.537 38.0386 147.701 37.5266 148.029C36.9906 148.365 36.5826 148.805 36.3026 149.349C36.0146 149.893 35.8706 150.485 35.8706 151.125C35.8706 152.133 36.1746 152.985 36.7826 153.681C37.4146 154.393 38.2586 154.749 39.3146 154.749C40.1146 154.749 40.8106 154.521 41.4026 154.065C42.0186 153.593 42.3506 152.949 42.3986 152.133L38.7506 152.133L38.7506 151.281L43.3826 151.281L43.3826 151.617C43.3826 152.737 43.0226 153.677 42.3026 154.437C41.5506 155.213 40.5506 155.601 39.3026 155.601C37.9746 155.601 36.9106 155.177 36.1106 154.329C35.3186 153.489 34.9226 152.437 34.9226 151.173C34.9226 150.341 35.1146 149.581 35.4986 148.893C35.8826 148.205 36.4106 147.665 37.0826 147.273C37.7466 146.881 38.4946 146.685 39.3266 146.685C40.3826 146.685 41.2386 146.949 41.8946 147.477C42.5106 147.957 42.9426 148.557 43.1906 149.277ZM44.8089 149.553L45.6729 149.553L45.6729 153.021C45.6729 153.581 45.8169 154.021 46.1049 154.341C46.3769 154.669 46.7849 154.833 47.3289 154.833C47.8409 154.833 48.2649 154.653 48.6009 154.293C48.9369 153.933 49.1049 153.485 49.1049 152.949L49.1049 149.553L49.9689 149.553L49.9689 155.517L49.1169 155.517L49.1169 154.425C48.6369 155.233 47.9529 155.637 47.0649 155.637C46.3689 155.637 45.8129 155.417 45.3969 154.977C45.0049 154.537 44.8089 153.957 44.8089 153.237L44.8089 149.553ZM52.3915 152.505C52.3915 153.401 52.7275 154.069 53.3995 154.509C53.7275 154.733 54.1115 154.845 54.5515 154.845C55.0315 154.845 55.4395 154.721 55.7755 154.473C55.8955 154.385 56.0195 154.265 56.1475 154.113C56.3235 153.881 56.4555 153.649 56.5435 153.417L57.3475 153.681C57.2115 154.161 56.9075 154.593 56.4355 154.977C55.9235 155.409 55.2915 155.625 54.5395 155.625C53.6835 155.641 52.9595 155.353 52.3675 154.761C51.7835 154.169 51.4955 153.433 51.5035 152.553C51.5035 151.977 51.6435 151.445 51.9235 150.957C52.2035 150.477 52.5755 150.105 53.0395 149.841C53.5035 149.577 54.0155 149.445 54.5755 149.445C55.2475 149.445 55.8395 149.629 56.3515 149.997C56.8715 150.389 57.1915 150.841 57.3115 151.353L56.5195 151.617C56.4315 151.297 56.2155 150.985 55.8715 150.681C55.5355 150.377 55.0955 150.225 54.5515 150.225C53.9275 150.225 53.4115 150.445 53.0035 150.885C52.5955 151.333 52.3915 151.873 52.3915 152.505ZM59.2587 152.505C59.2587 153.401 59.5947 154.069 60.2667 154.509C60.5947 154.733 60.9787 154.845 61.4187 154.845C61.8987 154.845 62.3067 154.721 62.6427 154.473C62.7627 154.385 62.8867 154.265 63.0147 154.113C63.1907 153.881 63.3227 153.649 63.4107 153.417L64.2147 153.681C64.0787 154.161 63.7747 154.593 63.3027 154.977C62.7907 155.409 62.1587 155.625 61.4067 155.625C60.5507 155.641 59.8267 155.353 59.2347 154.761C58.6507 154.169 58.3627 153.433 58.3707 152.553C58.3707 151.977 58.5107 151.445 58.7907 150.957C59.0707 150.477 59.4427 150.105 59.9067 149.841C60.3707 149.577 60.8827 149.445 61.4427 149.445C62.1147 149.445 62.7067 149.629 63.2187 149.997C63.7387 150.389 64.0587 150.841 64.1787 151.353L63.3867 151.617C63.2987 151.297 63.0827 150.985 62.7387 150.681C62.4027 150.377 61.9627 150.225 61.4187 150.225C60.7947 150.225 60.2787 150.445 59.8707 150.885C59.4627 151.333 59.2587 151.873 59.2587 152.505ZM65.6459 147.885C65.5179 147.741 65.4539 147.585 65.4539 147.417C65.4539 147.249 65.5179 147.093 65.6459 146.949C65.7739 146.821 65.9299 146.757 66.1139 146.757C66.2899 146.757 66.4419 146.821 66.5699 146.949C66.6979 147.077 66.7619 147.233 66.7619 147.417C66.7619 147.601 66.6979 147.757 66.5699 147.885C66.4419 148.013 66.2899 148.077 66.1139 148.077C65.9299 148.077 65.7739 148.013 65.6459 147.885ZM65.6699 155.517L65.6699 149.553L66.5459 149.553L66.5459 155.517L65.6699 155.517ZM71.1456 155.625C70.5936 155.625 70.0776 155.489 69.5976 155.217C69.1256 154.937 68.7576 154.565 68.4936 154.101C68.2216 153.637 68.0856 153.121 68.0856 152.553C68.0856 151.665 68.3816 150.929 68.9736 150.345C69.5656 149.745 70.2976 149.445 71.1696 149.445C72.0176 149.429 72.7456 149.729 73.3536 150.345C73.9696 150.953 74.2696 151.677 74.2536 152.517C74.2696 153.381 73.9696 154.121 73.3536 154.737C72.7376 155.345 72.0016 155.641 71.1456 155.625ZM71.1696 154.845C71.7936 154.845 72.3176 154.621 72.7416 154.173C73.1496 153.725 73.3536 153.185 73.3536 152.553C73.3536 151.913 73.1456 151.361 72.7296 150.897C72.3056 150.441 71.7776 150.213 71.1456 150.213C70.5136 150.213 69.9936 150.437 69.5856 150.885C69.1776 151.333 68.9736 151.877 68.9736 152.517C68.9576 153.149 69.1616 153.697 69.5856 154.161C70.0176 154.625 70.5456 154.853 71.1696 154.845ZM86.7844 149.277L85.9084 149.589C85.7724 149.205 85.5724 148.861 85.3084 148.557C85.1084 148.349 84.9164 148.181 84.7324 148.053C84.2364 147.709 83.6244 147.537 82.8964 147.537C82.2244 147.537 81.6324 147.701 81.1204 148.029C80.5844 148.365 80.1764 148.805 79.8964 149.349C79.6084 149.893 79.4644 150.485 79.4644 151.125C79.4644 152.133 79.7684 152.985 80.3764 153.681C81.0084 154.393 81.8524 154.749 82.9084 154.749C83.7084 154.749 84.4044 154.521 84.9964 154.065C85.6124 153.593 85.9444 152.949 85.9924 152.133L82.3444 152.133L82.3444 151.281L86.9764 151.281L86.9764 151.617C86.9764 152.737 86.6164 153.677 85.8964 154.437C85.1444 155.213 84.1444 155.601 82.8964 155.601C81.5684 155.601 80.5044 155.177 79.7044 154.329C78.9124 153.489 78.5164 152.437 78.5164 151.173C78.5164 150.341 78.7084 149.581 79.0924 148.893C79.4764 148.205 80.0044 147.665 80.6764 147.273C81.3404 146.881 82.0884 146.685 82.9204 146.685C83.9764 146.685 84.8324 146.949 85.4884 147.477C86.1044 147.957 86.5364 148.557 86.7844 149.277ZM88.4026 149.553L89.2666 149.553L89.2666 153.021C89.2666 153.581 89.4106 154.021 89.6986 154.341C89.9706 154.669 90.3786 154.833 90.9226 154.833C91.4346 154.833 91.8586 154.653 92.1946 154.293C92.5306 153.933 92.6986 153.485 92.6986 152.949L92.6986 149.553L93.5626 149.553L93.5626 155.517L92.7106 155.517L92.7106 154.425C92.2306 155.233 91.5466 155.637 90.6586 155.637C89.9626 155.637 89.4066 155.417 88.9906 154.977C88.5986 154.537 88.4026 153.957 88.4026 153.237L88.4026 149.553ZM95.9853 152.505C95.9853 153.401 96.3213 154.069 96.9933 154.509C97.3213 154.733 97.7053 154.845 98.1453 154.845C98.6253 154.845 99.0333 154.721 99.3693 154.473C99.4893 154.385 99.6133 154.265 99.7413 154.113C99.9173 153.881 100.049 153.649 100.137 153.417L100.941 153.681C100.805 154.161 100.501 154.593 100.029 154.977C99.5173 155.409 98.8853 155.625 98.1333 155.625C97.2773 155.641 96.5533 155.353 95.9613 154.761C95.3773 154.169 95.0893 153.433 95.0973 152.553C95.0973 151.977 95.2373 151.445 95.5173 150.957C95.7973 150.477 96.1693 150.105 96.6333 149.841C97.0973 149.577 97.6093 149.445 98.1693 149.445C98.8413 149.445 99.4333 149.629 99.9453 149.997C100.465 150.389 100.785 150.841 100.905 151.353L100.113 151.617C100.025 151.297 99.8093 150.985 99.4653 150.681C99.1293 150.377 98.6893 150.225 98.1453 150.225C97.5213 150.225 97.0053 150.445 96.5973 150.885C96.1893 151.333 95.9853 151.873 95.9853 152.505ZM102.852 152.505C102.852 153.401 103.188 154.069 103.86 154.509C104.188 154.733 104.572 154.845 105.012 154.845C105.492 154.845 105.9 154.721 106.236 154.473C106.356 154.385 106.48 154.265 106.608 154.113C106.784 153.881 106.916 153.649 107.004 153.417L107.808 153.681C107.672 154.161 107.368 154.593 106.896 154.977C106.384 155.409 105.752 155.625 105 155.625C104.144 155.641 103.42 155.353 102.828 154.761C102.244 154.169 101.956 153.433 101.964 152.553C101.964 151.977 102.104 151.445 102.384 150.957C102.664 150.477 103.036 150.105 103.5 149.841C103.964 149.577 104.476 149.445 105.036 149.445C105.708 149.445 106.3 149.629 106.812 149.997C107.332 150.389 107.652 150.841 107.772 151.353L106.98 151.617C106.892 151.297 106.676 150.985 106.332 150.681C105.996 150.377 105.556 150.225 105.012 150.225C104.388 150.225 103.872 150.445 103.464 150.885C103.056 151.333 102.852 151.873 102.852 152.505ZM109.24 147.885C109.112 147.741 109.048 147.585 109.048 147.417C109.048 147.249 109.112 147.093 109.24 146.949C109.368 146.821 109.524 146.757 109.708 146.757C109.884 146.757 110.036 146.821 110.164 146.949C110.292 147.077 110.356 147.233 110.356 147.417C110.356 147.601 110.292 147.757 110.164 147.885C110.036 148.013 109.884 148.077 109.708 148.077C109.524 148.077 109.368 148.013 109.24 147.885ZM109.264 155.517L109.264 149.553L110.14 149.553L110.14 155.517L109.264 155.517ZM117.881 155.601C117.033 155.601 116.321 155.345 115.745 154.833C115.185 154.345 114.865 153.777 114.785 153.129L115.649 152.889C115.745 153.401 116.009 153.837 116.441 154.197C116.865 154.557 117.345 154.737 117.881 154.737C118.417 154.737 118.865 154.609 119.225 154.353C119.633 154.073 119.837 153.669 119.837 153.141C119.837 152.597 119.593 152.181 119.105 151.893C118.881 151.757 118.605 151.657 118.277 151.593L117.125 151.365C116.893 151.317 116.637 151.233 116.357 151.113C116.069 150.977 115.829 150.813 115.637 150.621C115.229 150.221 115.025 149.717 115.025 149.109C115.025 148.629 115.157 148.201 115.421 147.825C115.677 147.457 116.017 147.169 116.441 146.961C116.857 146.769 117.309 146.673 117.797 146.673C118.653 146.673 119.321 146.885 119.801 147.309C120.289 147.733 120.585 148.221 120.689 148.773L119.849 149.037C119.761 148.645 119.545 148.297 119.201 147.993C118.865 147.681 118.393 147.525 117.785 147.525C117.305 147.509 116.877 147.653 116.501 147.957C116.125 148.261 115.941 148.633 115.949 149.073C115.949 149.417 116.057 149.713 116.273 149.961C116.489 150.209 116.805 150.373 117.221 150.453L118.325 150.669C119.085 150.813 119.653 151.069 120.029 151.437C120.285 151.669 120.477 151.937 120.605 152.241C120.725 152.537 120.785 152.805 120.785 153.045C120.793 153.805 120.517 154.425 119.957 154.905C119.397 155.385 118.705 155.617 117.881 155.601ZM122.401 155.385C122.241 155.209 122.161 155.017 122.161 154.809C122.161 154.593 122.241 154.405 122.401 154.245C122.553 154.093 122.741 154.017 122.965 154.017C123.189 154.017 123.377 154.093 123.529 154.245C123.689 154.405 123.769 154.593 123.769 154.809C123.769 155.017 123.689 155.209 123.529 155.385C123.377 155.537 123.189 155.613 122.965 155.613C122.741 155.613 122.553 155.537 122.401 155.385ZM131.482 152.529C131.482 153.073 131.366 153.577 131.134 154.041C130.902 154.505 130.574 154.881 130.15 155.169C129.718 155.457 129.226 155.601 128.674 155.601C127.698 155.601 126.934 155.165 126.382 154.293L126.382 158.457L125.506 158.457L125.506 149.553L126.358 149.553L126.358 150.849C126.974 149.913 127.746 149.445 128.674 149.445C129.522 149.445 130.206 149.765 130.726 150.405C131.23 151.029 131.482 151.737 131.482 152.529ZM128.506 154.845C129.13 154.845 129.638 154.625 130.03 154.185C130.406 153.737 130.594 153.193 130.594 152.553C130.594 151.649 130.27 150.981 129.622 150.549C129.31 150.333 128.938 150.225 128.506 150.225C127.914 150.217 127.406 150.445 126.982 150.909C126.558 151.373 126.354 151.909 126.37 152.517C126.37 153.157 126.57 153.701 126.97 154.149C127.378 154.613 127.89 154.845 128.506 154.845ZM133.03 155.385C132.87 155.209 132.79 155.017 132.79 154.809C132.79 154.593 132.87 154.405 133.03 154.245C133.182 154.093 133.37 154.017 133.594 154.017C133.818 154.017 134.006 154.093 134.158 154.245C134.318 154.405 134.398 154.593 134.398 154.809C134.398 155.017 134.318 155.209 134.158 155.385C134.006 155.537 133.818 155.613 133.594 155.613C133.37 155.613 133.182 155.537 133.03 155.385ZM142.807 155.517L141.847 153.285L137.083 153.285L136.123 155.517L135.187 155.517L138.955 146.769L139.999 146.769L143.779 155.517L142.807 155.517ZM141.499 152.445L139.459 147.717L137.431 152.445L141.499 152.445ZM144.807 155.385C144.647 155.209 144.567 155.017 144.567 154.809C144.567 154.593 144.647 154.405 144.807 154.245C144.959 154.093 145.147 154.017 145.371 154.017C145.595 154.017 145.783 154.093 145.935 154.245C146.095 154.405 146.175 154.593 146.175 154.809C146.175 155.017 146.095 155.209 145.935 155.385C145.783 155.537 145.595 155.613 145.371 155.613C145.147 155.613 144.959 155.537 144.807 155.385Z" fill="#FFFFFF" fill-opacity="1.000000" fill-rule="evenodd"/>
	</g>
</svg>
