<svg width="25.000000" height="25.000000" viewBox="0 0 25 25" fill="none" xmlns="http://www.w3.org/2000/svg" xmlns:xlink="http://www.w3.org/1999/xlink">
	<desc>
			Created with Pixso.
	</desc>
	<defs>
		<clipPath id="clip129_2222">
			<rect id="gucci" rx="47" ry="47" width="24.000000" height="24.000000" transform="translate(0.500000 0.500000) rotate(-0.000000)" fill="white" fill-opacity="0"/>
		</clipPath>
	</defs>
	<rect id="gucci" rx="47" ry="47" width="24.000000" height="24.000000" transform="translate(0.500000 0.500000) rotate(-0.000000)" fill="#C8B388" fill-opacity="1.000000"/>
	<g clip-path="url(#clip129_2222)">
		<path id="Vector" d="M21.6665 12.0834C21.6665 15.5341 18.822 18.3334 15.3154 18.3334C14.3054 18.3334 13.3533 18.105 12.4941 17.6821C11.6465 18.0935 10.6829 18.3334 9.68457 18.3334C6.17798 18.3334 3.33325 15.5341 3.33325 12.0834C3.33325 8.63269 6.17798 5.83337 9.68433 5.83337C10.6946 5.83337 11.6465 6.06189 12.4939 6.47327C13.3418 6.06189 14.3054 5.83337 15.3154 5.83337C18.822 5.83337 21.6665 8.63269 21.6665 12.0834ZM20.4128 12.0834C20.4128 9.31836 18.1252 7.0675 15.3154 7.0675C14.7815 7.0675 14.259 7.14734 13.783 7.29602C14.7583 8.0957 15.4666 9.1698 15.8147 10.4038L14.5027 10.4038C14.1343 9.37366 13.4329 8.4906 12.5059 7.89001C11.5886 8.48413 10.8918 9.36414 10.5203 10.4038L9.20825 10.4038C9.552 9.18689 10.26 8.09998 11.2402 7.28455C10.74 7.13281 10.2195 7.05579 9.6958 7.05603C6.88623 7.05603 4.59888 9.30688 4.59888 12.0719C4.59888 14.8369 6.88623 17.088 9.6958 17.088C10.23 17.088 10.7407 17.0081 11.2168 16.8595C9.95142 15.8198 9.1272 14.2887 8.99951 12.5748L12.0181 12.5748L12.0181 13.7972L10.5435 13.8202C10.9268 14.8257 11.6118 15.6714 12.5059 16.2539C13.3997 15.6711 14.0847 14.8257 14.468 13.8202L12.9934 13.7972L12.9934 12.5748L16.0122 12.5748C15.8728 14.2887 15.0369 15.8083 13.7712 16.848C14.259 16.9966 14.7815 17.088 15.3154 17.088C18.137 17.0995 20.4128 14.8599 20.4128 12.0834Z" fill="#000000" fill-opacity="1.000000" fill-rule="evenodd"/>
	</g>
	<rect id="gucci" rx="47" ry="47" width="24.000000" height="24.000000" transform="translate(0.500000 0.500000) rotate(-0.000000)" stroke="#CDCCCC" stroke-opacity="1.000000" stroke-width="1.000000"/>
</svg>
