<svg width="199.000000" height="183.315186" viewBox="0 0 199 183.315" fill="none" xmlns="http://www.w3.org/2000/svg" xmlns:xlink="http://www.w3.org/1999/xlink">
	<desc>
			Created with Pixso.
	</desc>
	<defs>
		<clipPath id="clip138_5096">
			<rect id="lvmh"  rx="50" ry="50" width="104.545044" height="104.545044" transform="translate(47.162109 53.828003) rotate(-0.000000)" fill="white" fill-opacity="0"/>
		</clipPath>
		<filter id="filter_138_5099_dd" x="13.283691" y="64.022827" width="57.760254" height="68.167847" filterUnits="userSpaceOnUse" color-interpolation-filters="sRGB">
			<feFlood flood-opacity="0" result="BackgroundImageFix"/>
			<feColorMatrix in="SourceAlpha" type="matrix" values="0 0 0 0 0 0 0 0 0 0 0 0 0 0 0 0 0 0 127 0" result="hardAlpha"/>
			<feOffset dx="0" dy="4"/>
			<feGaussianBlur stdDeviation="1.33333"/>
			<feComposite in2="hardAlpha" operator="out" k2="-1" k3="1"/>
			<feColorMatrix type="matrix" values="0 0 0 0 0 0 0 0 0 0 0 0 0 0 0 0 0 0 0.25 0"/>
			<feBlend mode="normal" in2="BackgroundImageFix" result="effect_dropShadow_1"/>
			<feBlend mode="normal" in="SourceGraphic" in2="effect_dropShadow_1" result="shape"/>
		</filter>
		<filter id="filter_138_5100_dd" x="13.283691" y="64.669922" width="42.426270" height="67.520996" filterUnits="userSpaceOnUse" color-interpolation-filters="sRGB">
			<feFlood flood-opacity="0" result="BackgroundImageFix"/>
			<feColorMatrix in="SourceAlpha" type="matrix" values="0 0 0 0 0 0 0 0 0 0 0 0 0 0 0 0 0 0 127 0" result="hardAlpha"/>
			<feOffset dx="0" dy="4"/>
			<feGaussianBlur stdDeviation="1.33333"/>
			<feComposite in2="hardAlpha" operator="out" k2="-1" k3="1"/>
			<feColorMatrix type="matrix" values="0 0 0 0 0 0 0 0 0 0 0 0 0 0 0 0 0 0 0.25 0"/>
			<feBlend mode="normal" in2="BackgroundImageFix" result="effect_dropShadow_1"/>
			<feBlend mode="normal" in="SourceGraphic" in2="effect_dropShadow_1" result="shape"/>
		</filter>
		<clipPath id="clip138_5098">
			<rect id="shield-antivirus-svgrepo-com 1" width="80.254379" height="80.254379" transform="matrix(-0.972708 0.232033 0.232033 0.972708 78.064 44.3011)" fill="white" fill-opacity="0"/>
		</clipPath>
		<filter id="filter_138_5103_dd" x="63.708008" y="-3.708496" width="82.632812" height="85.306030" filterUnits="userSpaceOnUse" color-interpolation-filters="sRGB">
			<feFlood flood-opacity="0" result="BackgroundImageFix"/>
			<feColorMatrix in="SourceAlpha" type="matrix" values="0 0 0 0 0 0 0 0 0 0 0 0 0 0 0 0 0 0 127 0" result="hardAlpha"/>
			<feOffset dx="0" dy="4"/>
			<feGaussianBlur stdDeviation="3.33333"/>
			<feComposite in2="hardAlpha" operator="out" k2="-1" k3="1"/>
			<feColorMatrix type="matrix" values="0 0 0 0 0 0 0 0 0 0 0 0 0 0 0 0 0 0 0.5 0"/>
			<feBlend mode="normal" in2="BackgroundImageFix" result="effect_dropShadow_1"/>
			<feBlend mode="normal" in="SourceGraphic" in2="effect_dropShadow_1" result="shape"/>
		</filter>
		<clipPath id="clip138_5101">
			<rect id="helmet_red" width="68.743134" height="71.653259" transform="translate(71.798340 0.000000)" fill="white" fill-opacity="0"/>
		</clipPath>
		<filter id="filter_138_5121_dd" x="123.666992" y="1.638184" width="79.959473" height="127.315674" filterUnits="userSpaceOnUse" color-interpolation-filters="sRGB">
			<feFlood flood-opacity="0" result="BackgroundImageFix"/>
			<feColorMatrix in="SourceAlpha" type="matrix" values="0 0 0 0 0 0 0 0 0 0 0 0 0 0 0 0 0 0 127 0" result="hardAlpha"/>
			<feOffset dx="0" dy="4"/>
			<feGaussianBlur stdDeviation="3.33333"/>
			<feComposite in2="hardAlpha" operator="out" k2="-1" k3="1"/>
			<feColorMatrix type="matrix" values="0 0 0 0 0 0 0 0 0 0 0 0 0 0 0 0 0 0 0.5 0"/>
			<feBlend mode="normal" in2="BackgroundImageFix" result="effect_dropShadow_1"/>
			<feBlend mode="normal" in="SourceGraphic" in2="effect_dropShadow_1" result="shape"/>
		</filter>
		<clipPath id="clip138_5119">
			<rect id="sword_red" width="64.950798" height="116.634178" transform="translate(134.049316 0.000000)" fill="white" fill-opacity="0"/>
		</clipPath>
		<filter id="filter_138_5128_dd" x="63.461426" y="166.585205" width="72.248535" height="12.880005" filterUnits="userSpaceOnUse" color-interpolation-filters="sRGB">
			<feFlood flood-opacity="0" result="BackgroundImageFix"/>
			<feColorMatrix in="SourceAlpha" type="matrix" values="0 0 0 0 0 0 0 0 0 0 0 0 0 0 0 0 0 0 127 0" result="hardAlpha"/>
			<feOffset dx="0" dy="2"/>
			<feGaussianBlur stdDeviation="0.666667"/>
			<feComposite in2="hardAlpha" operator="out" k2="-1" k3="1"/>
			<feColorMatrix type="matrix" values="0 0 0 0 0 0 0 0 0 0 0 0 0 0 0 0 0 0 0.5 0"/>
			<feBlend mode="normal" in2="BackgroundImageFix" result="effect_dropShadow_1"/>
			<feBlend mode="normal" in="SourceGraphic" in2="effect_dropShadow_1" result="shape"/>
		</filter>
	</defs>
	<rect id="lvmh"  rx="50" ry="50" width="104.545044" height="104.545044" transform="translate(47.162109 53.828003) rotate(-0.000000)" fill="#3E302D" fill-opacity="1.000000"/>
	<g clip-path="url(#clip138_5096)">
		<path id="Vector" d="M117.209 85.1361L102.431 119.966L98.3545 111.032L105.885 90.5643C106.451 88.9814 108.433 88.2461 111.773 88.2461L112.962 85.1361L95.4102 85.1361L94.2773 88.2461C96.769 88.2461 97.7881 88.981 97.3916 90.5643L93.6548 100.968L86.2944 85.1361C84.9355 83.4401 85.6147 82.5917 88.2764 82.5917L88.2764 78.9169L71.2896 78.9169L71.2896 82.592C74.4604 82.592 76.4419 83.4404 77.2915 85.1365L89.7485 111.598L83.916 127.147C83.8027 129.239 80.519 130.257 74.1772 130.257L72.9883 133.367L121.456 133.367L128.193 119.062L124.683 119.062C121.399 126.469 117.606 130.257 113.359 130.257L91.1069 130.257L94.3906 121.493L97.2217 127.147L103.563 127.147L121.455 85.1368C122.305 82.5924 124.513 81.2358 127.967 81.2358L127.967 77.9553L113.359 77.9553L113.359 81.2351C117.775 81.2351 119.021 82.592 117.209 85.1361Z" fill="#FFFFFF" fill-opacity="1.000000" fill-rule="evenodd"/>
	</g>
	<rect id="lvmh"  rx="50" ry="50" width="104.545044" height="104.545044" transform="translate(47.162109 53.828003) rotate(-0.000000)" stroke="#CDCCCC" stroke-opacity="1.000000" stroke-width="1.000000"/>
	<rect id="shield-antivirus-svgrepo-com 1" width="80.254379" height="80.254379" transform="matrix(-0.972708 0.232033 0.232033 0.972708 78.064 44.3011)" fill="#FFFFFF" fill-opacity="0"/>
	<g clip-path="url(#clip138_5098)">
		<g filter="url(#filter_138_5099_dd)">
			<path id="Vector" d="M51.707 124.191L53.082 122.433C60.6201 112.758 69.9985 100.721 66.1509 84.5913L62.4849 69.2229L59.7729 69.8699C49.9805 72.2057 41.5767 69.692 40.2241 64.0228L34.8003 65.3168C36.1523 70.986 29.7881 77.0225 19.9956 79.3584L17.2837 80.0054L20.9497 95.3738C24.7974 111.503 38.5996 118.011 49.6895 123.24L51.707 124.191Z" fill="#D84025" fill-opacity="1.000000" fill-rule="nonzero"/>
		</g>
		<g filter="url(#filter_138_5100_dd)">
			<path id="Vector" d="M19.9956 79.3585C29.7881 77.0226 36.1523 70.9861 34.8003 65.3169L37.5122 64.6699L51.71 124.188L51.707 124.191L49.6895 123.24C38.5996 118.011 24.7974 111.504 20.9497 95.3739L17.2837 80.0055L19.9956 79.3585Z" fill="#A13023" fill-opacity="1.000000" fill-rule="nonzero"/>
		</g>
	</g>
	<rect id="helmet_red" width="68.743134" height="71.653259" transform="translate(71.798340 0.000000)" fill="#FFFFFF" fill-opacity="0"/>
	<g clip-path="url(#clip138_5101)">
		<g filter="url(#filter_138_5103_dd)">
			<path id="Vector" d="M122.424 50.7936C123.12 53.6169 123.812 56.438 124.501 59.2567C118.151 62.8911 110.132 64.9207 100.06 64.9241L100.06 53.2683L122.424 50.7936Z" fill="#535353" fill-opacity="1.000000" fill-rule="evenodd"/>
			<path id="Vector" d="M77.7124 50.7936C77.0078 53.6169 76.3096 56.438 75.6172 59.2567C81.9814 62.8911 89.9819 64.9207 100.059 64.9241L100.059 53.2683L77.7124 50.7936Z" fill="#676767" fill-opacity="1.000000" fill-rule="evenodd"/>
			<path id="Vector" d="M95.0601 20.4086C80.5503 7.57678 107.986 8.79272 115.719 2.2915C116.264 2.83435 116.588 3.48706 116.649 4.16846C116.71 4.84985 116.506 5.52991 116.062 6.12402C119.495 8.25623 125.529 5.34705 128.801 9.43384C125.093 9.27356 122.836 10.385 121.459 11.8727C131.628 10.6951 127.649 17.8618 136.34 18.2659C129.866 21.0078 114.659 15.7434 105.256 22.1506C101.012 22.0322 99.3047 20.5375 95.0601 20.4086Z" fill="#A23023" fill-opacity="1.000000" fill-rule="evenodd"/>
			<path id="Vector" d="M136.336 18.1473C129.927 20.9792 114.831 15.5833 105.498 22.1505C103.761 22.0767 102.052 21.7761 100.441 21.2614C112.649 10.4801 123.481 20.0507 136.341 18.1473L136.336 18.1473Z" fill="#1A1A1A" fill-opacity="1.000000" fill-rule="evenodd"/>
			<path id="Vector" d="M95.9077 19.3185C97.583 19.449 99.2266 19.7501 100.792 20.2136L100.903 20.241C100.356 19.6305 99.8184 19.02 99.29 18.4097C94.4883 14.325 104.594 9.4928 110.722 8.50159C112.93 9.92834 116.33 9.25269 118.072 10.2542C116.57 11.4681 115.639 13.567 114.132 14.7811C131.338 13.0389 123.5 17.1819 131.758 17.9844C131.202 17.7032 130.697 17.3701 130.255 16.9932C127.491 14.6439 127.901 12.0786 121.874 12.7645L118.519 13.1453C119.112 12.5325 119.709 11.9209 120.312 11.3104C121.67 9.89246 123.715 8.92236 126.016 8.60449C125.477 8.36963 124.883 8.21252 124.265 8.14148C123.676 8.0752 123.082 8.03967 122.486 8.03516C119.805 7.98718 117.247 8.1449 115.114 6.8623L114.321 6.37866C114.478 6.16602 114.639 5.95691 114.782 5.74768C115.139 5.27808 115.289 4.73718 115.21 4.20093C112.446 5.76135 108.621 6.81079 105.345 7.68188C102.75 8.3678 100.027 9.05371 97.5664 9.90771C95.8291 10.5182 93.8804 11.3652 92.9585 12.5245C91.2856 14.6851 93.8711 17.4939 95.9077 19.3185Z" fill="#EF4123" fill-opacity="1.000000" fill-rule="evenodd"/>
			<path id="Vector" d="M98.3242 19.6025C99.1963 19.7732 100.056 19.9771 100.9 20.2134L101.011 20.241C100.466 19.6266 99.9302 19.0122 99.4033 18.3979C94.6187 14.2871 104.688 9.42395 110.796 8.42639C112.995 9.8623 116.384 9.18237 118.12 10.1902C116.623 11.412 115.695 13.5243 114.194 14.7462C131.34 12.9928 123.529 17.1622 131.758 17.9698C127.474 17.1312 127.551 14.1007 125.118 13.3724C122.684 12.6442 119.47 14.3217 117.018 13.5934C117.275 12.1886 118.437 11.0461 120.126 9.3031C117.78 8.23657 111.861 9.18921 113.092 6.11047C107.825 10.4767 90.8579 8.66809 97.2959 19.2263L98.3242 19.6025Z" fill="#D03927" fill-opacity="1.000000" fill-rule="evenodd"/>
			<path id="Vector" d="M107.698 23.4873C107.698 26.3347 104.192 28.6431 99.8687 28.6431C95.5449 28.6431 92.0396 26.3347 92.0396 23.4873C92.0396 20.6399 95.5449 18.3315 99.8687 18.3315C104.192 18.3315 107.698 20.6399 107.698 23.4873Z" fill="#CDCCCC" fill-opacity="1.000000" fill-rule="evenodd"/>
			<path id="Vector" d="M99.9028 23.6782C109.718 23.6782 118.105 27.5697 121.46 33.0592C123.262 33.6377 124.501 34.8293 124.501 36.1931C124.492 36.6465 124.355 37.0933 124.1 37.5045C123.844 37.9158 123.475 38.2821 123.018 38.5796C122.852 46.6072 112.566 53.085 99.9028 53.085C87.2397 53.085 76.9912 46.621 76.7974 38.6141C76.3193 38.3154 75.9321 37.9435 75.6626 37.5234C75.3931 37.1034 75.2476 36.645 75.2354 36.1793C75.2354 34.8018 76.5166 33.5861 78.3599 33.0178C81.728 27.5422 90.1011 23.6782 99.9028 23.6782Z" fill="#8B8A8A" fill-opacity="1.000000" fill-rule="evenodd"/>
			<path id="Vector" d="M96.2402 45.4469C104.871 45.4469 111.898 40.9957 111.898 35.5173C111.898 30.0389 104.857 25.5878 96.2402 25.5878C87.6235 25.5878 80.582 30.0389 80.582 35.5173C80.582 40.9957 87.605 45.4469 96.2402 45.4469Z" fill="#989898" fill-opacity="1.000000" fill-rule="evenodd"/>
			<path id="Vector" d="M91.4663 34.3716C94.729 34.3716 97.3857 32.6547 97.3857 30.5525C97.3857 28.4502 94.729 26.7334 91.4663 26.7334C88.2041 26.7334 85.5469 28.4468 85.5469 30.5525C85.5469 32.6582 88.2319 34.3716 91.4663 34.3716Z" fill="#ACACAC" fill-opacity="1.000000" fill-rule="evenodd"/>
			<path id="Vector" d="M100.06 32.0803L99.8354 32.0803C96.7134 32.0684 93.6143 32.4901 90.6904 33.3251L73.708 38.1475L73.708 52.5167C81.1382 59.0929 89.8032 64.243 100.06 67.5974L100.06 32.0803Z" fill="#CDCCCC" fill-opacity="1.000000" fill-rule="evenodd"/>
			<path id="Vector" d="M96.2402 34.3716C94.8872 34.5428 93.5596 34.8182 92.2769 35.1936L89.021 36.131L89.021 60.1791C91.3184 61.5037 93.729 62.7062 96.2358 63.7783L96.2358 34.3716L96.2402 34.3716ZM87.4922 36.5718L82.4282 38.0304L82.4282 55.8696C84.0293 57.0485 85.7158 58.1887 87.4922 59.2731L87.4922 36.5718ZM80.9043 38.4677L77.5269 39.4401L77.5269 51.9136C78.6089 52.865 79.7349 53.7977 80.9043 54.7118L80.9043 38.4677Z" fill="#333333" fill-opacity="1.000000" fill-rule="evenodd"/>
			<path id="Vector" d="M100.06 32.0802L100.284 32.0802C103.398 32.0703 106.489 32.4922 109.406 33.3251L126.411 38.1439L126.411 52.5132C118.976 59.0929 110.311 64.243 100.06 67.5974L100.06 32.0802Z" fill="#B4B4B4" fill-opacity="1.000000" fill-rule="evenodd"/>
			<path id="Vector" d="M103.878 34.3716C105.259 34.5433 106.614 34.8186 107.924 35.1936L111.247 36.131L111.247 60.1791C108.901 61.5028 106.441 62.7053 103.883 63.7783L103.883 34.3716L103.878 34.3716ZM112.807 36.5718L117.971 38.0304L117.971 55.8696C116.342 57.0485 114.621 58.1887 112.807 59.2731L112.807 36.5718ZM119.531 38.4677L122.974 39.4401L122.974 51.9136C121.872 52.865 120.725 53.7977 119.531 54.7118L119.531 38.4677Z" fill="#1A1A1A" fill-opacity="1.000000" fill-rule="evenodd"/>
			<path id="Vector" d="M97.8931 19.4773C99.3589 19.4773 100.062 20.1628 99.4653 21.0049C99.0879 21.4546 98.5459 21.8313 97.8916 22.0988C97.2378 22.3662 96.4932 22.5155 95.729 22.5326C94.2681 22.5326 93.5649 21.8501 94.1616 21.0049C94.5396 20.556 95.0811 20.1801 95.7339 19.9127C96.3872 19.6453 97.1304 19.4954 97.8931 19.4773Z" fill="#E3E3E3" fill-opacity="1.000000" fill-rule="evenodd"/>
		</g>
	</g>
	<rect id="sword_red" width="64.950798" height="116.634178" transform="translate(134.049316 0.000000)" fill="#FFFFFF" fill-opacity="0"/>
	<g clip-path="url(#clip138_5119)">
		<g filter="url(#filter_138_5121_dd)">
			<path id="Vector" d="M134.939 106.324L135.245 106.483C135.592 106.669 135.978 106.77 136.371 106.779C136.765 106.787 137.155 106.703 137.509 106.532C137.868 106.372 138.185 106.129 138.433 105.824C138.681 105.518 138.853 105.159 138.937 104.774C139.639 101.702 141.045 97.9481 143.045 94.071C145.046 90.194 147.292 86.8757 149.373 84.5242C149.634 84.2312 149.824 83.8824 149.929 83.5046C150.035 83.1268 150.052 82.73 149.98 82.3444C149.909 81.9587 149.75 81.5946 149.517 81.2797C149.283 80.9648 148.98 80.7076 148.631 80.5276L148.322 80.3695L149.594 77.9089L155.57 80.9882L161.546 84.0637L160.273 86.5243L159.968 86.3661C159.618 86.183 159.23 86.0828 158.835 86.0736C158.44 86.0643 158.048 86.1461 157.69 86.3126C157.332 86.4792 157.017 86.7261 156.769 87.0339C156.521 87.3419 156.348 87.7028 156.263 88.0885C155.56 91.1571 154.154 94.9147 152.153 98.7882C150.153 102.662 147.907 105.984 145.826 108.335C145.565 108.628 145.375 108.977 145.27 109.355C145.165 109.734 145.147 110.131 145.218 110.516C145.29 110.902 145.449 111.267 145.683 111.582C145.917 111.897 146.219 112.155 146.568 112.335L146.877 112.493L145.604 114.954L139.629 111.878L133.667 108.788L134.939 106.324Z" fill="#CA3927" fill-opacity="1.000000" fill-rule="evenodd"/>
			<path id="Vector" d="M150.151 85.9751C151.137 86.4894 149.768 91.1636 147.09 96.4083C144.412 101.653 141.441 105.492 140.473 104.978C139.504 104.464 140.855 99.7897 143.534 94.5449C146.212 89.3002 149.166 85.4609 150.151 85.9751Z" fill="#F04B23" fill-opacity="1.000000" fill-rule="evenodd"/>
			<path id="Vector" d="M193.626 7.63818L190.424 25.7368L160.546 83.6376L150.853 78.635L180.731 20.7343L193.626 7.63818Z" fill="#D1D2D2" fill-opacity="1.000000" fill-rule="evenodd"/>
			<path id="Vector" d="M183.958 17.4144L189.045 14.1017L187.256 24.8989L160.4 83.6376L190.409 25.7368L193.626 7.63818L183.958 17.4144Z" fill="#E6E6E5" fill-opacity="1.000000" fill-rule="evenodd"/>
			<path id="Vector" d="M185.225 24.0601L171.108 52.8922L156.987 81.7279L155.446 80.9436L153.908 80.1594L169.566 52.1115L185.225 24.0601Z" fill="#818181" fill-opacity="1.000000" fill-rule="evenodd"/>
			<path id="Vector" d="M147.9 75.1576L164.989 84.0253C165.868 83.3893 166.934 83.0695 168.015 83.1173C169.097 83.1652 170.131 83.578 170.951 84.2891C171.771 85.0002 172.328 85.9684 172.534 87.0372C172.739 88.1062 172.581 89.2136 172.084 90.181C171.588 91.1483 170.782 91.9193 169.796 92.3695C168.81 92.8197 167.703 92.923 166.651 92.6626C165.6 92.4022 164.667 91.7933 164.001 90.9342C163.336 90.0752 162.979 89.0159 162.985 87.9271L145.896 79.0594C145.017 79.6971 143.949 80.0183 142.866 79.9709C141.782 79.9236 140.746 79.5106 139.925 78.7985C139.104 78.0864 138.544 77.1168 138.338 76.046C138.132 74.9753 138.29 73.866 138.788 72.8969C139.286 71.9277 140.093 71.1555 141.081 70.7047C142.068 70.2539 143.178 70.1508 144.231 70.412C145.284 70.6732 146.219 71.2836 146.884 72.1447C147.55 73.0056 147.908 74.067 147.9 75.1576Z" fill="#333333" fill-opacity="1.000000" fill-rule="evenodd"/>
		</g>
	</g>
	<g filter="url(#filter_138_5128_dd)">
		<path id="Louis Vuitton" d="M65.4614 175.345L65.4614 166.597L66.3854 166.597L66.3854 174.481L70.5374 174.481L70.5374 175.345L65.4614 175.345ZM74.0723 175.453C73.5203 175.453 73.0043 175.317 72.5243 175.045C72.0523 174.765 71.6843 174.393 71.4203 173.929C71.1483 173.465 71.0123 172.949 71.0123 172.381C71.0123 171.493 71.3083 170.757 71.9003 170.173C72.4923 169.573 73.2243 169.273 74.0963 169.273C74.9443 169.257 75.6723 169.557 76.2803 170.173C76.8963 170.781 77.1963 171.505 77.1803 172.345C77.1963 173.209 76.8963 173.949 76.2803 174.565C75.6643 175.173 74.9283 175.469 74.0723 175.453ZM74.0963 174.673C74.7203 174.673 75.2443 174.449 75.6683 174.001C76.0763 173.553 76.2803 173.013 76.2803 172.381C76.2803 171.741 76.0723 171.189 75.6563 170.725C75.2323 170.269 74.7043 170.041 74.0723 170.041C73.4403 170.041 72.9203 170.265 72.5123 170.713C72.1043 171.161 71.9003 171.705 71.9003 172.345C71.8843 172.977 72.0883 173.525 72.5123 173.989C72.9443 174.453 73.4723 174.681 74.0963 174.673ZM78.638 169.381L79.502 169.381L79.502 172.849C79.502 173.409 79.646 173.849 79.934 174.169C80.206 174.497 80.614 174.661 81.158 174.661C81.67 174.661 82.094 174.481 82.43 174.121C82.766 173.761 82.934 173.313 82.934 172.777L82.934 169.381L83.798 169.381L83.798 175.345L82.946 175.345L82.946 174.253C82.466 175.061 81.782 175.465 80.894 175.465C80.198 175.465 79.642 175.245 79.226 174.805C78.834 174.365 78.638 173.785 78.638 173.065L78.638 169.381ZM85.7406 167.713C85.6126 167.569 85.5486 167.413 85.5486 167.245C85.5486 167.077 85.6126 166.921 85.7406 166.777C85.8687 166.649 86.0246 166.585 86.2086 166.585C86.3846 166.585 86.5367 166.649 86.6646 166.777C86.7926 166.905 86.8566 167.061 86.8566 167.245C86.8566 167.429 86.7926 167.585 86.6646 167.713C86.5367 167.841 86.3846 167.905 86.2086 167.905C86.0246 167.905 85.8687 167.841 85.7406 167.713ZM85.7646 175.345L85.7646 169.381L86.6406 169.381L86.6406 175.345L85.7646 175.345ZM92.5483 173.653C92.5483 174.189 92.3443 174.617 91.9363 174.937C91.5283 175.273 91.0283 175.441 90.4363 175.441C89.5643 175.441 88.9283 175.153 88.5283 174.577C88.3283 174.305 88.2083 174.001 88.1683 173.665L88.9603 173.461C89.0163 173.789 89.1643 174.077 89.4043 174.325C89.6523 174.565 89.9923 174.685 90.4243 174.685C90.7523 174.685 91.0443 174.593 91.3003 174.409C91.5403 174.241 91.6603 174.005 91.6603 173.701C91.6603 173.461 91.5643 173.269 91.3723 173.125C91.1963 172.981 90.9683 172.877 90.6883 172.813L89.7763 172.609C88.7843 172.393 88.2883 171.873 88.2883 171.049C88.2883 170.433 88.5363 169.973 89.0323 169.669C89.4563 169.405 89.8843 169.273 90.3163 169.273C91.1323 169.281 91.7283 169.545 92.1043 170.065C92.2883 170.329 92.4083 170.597 92.4643 170.869L91.6723 171.097C91.6163 170.865 91.5003 170.641 91.3243 170.425C91.1083 170.169 90.7723 170.041 90.3163 170.041C89.9883 170.041 89.7163 170.133 89.5003 170.317C89.2763 170.493 89.1643 170.717 89.1643 170.989C89.1643 171.389 89.4523 171.661 90.0283 171.805L90.9883 172.021C91.4283 172.125 91.7963 172.313 92.0923 172.585C92.3963 172.857 92.5483 173.213 92.5483 173.653ZM102.999 166.597L99.483 175.345L98.463 175.345L94.947 166.597L95.955 166.597L98.979 174.313L102.015 166.597L102.999 166.597ZM103.083 169.381L103.947 169.381L103.947 172.849C103.947 173.409 104.091 173.849 104.379 174.169C104.651 174.497 105.059 174.661 105.603 174.661C106.115 174.661 106.539 174.481 106.875 174.121C107.211 173.761 107.379 173.313 107.379 172.777L107.379 169.381L108.243 169.381L108.243 175.345L107.391 175.345L107.391 174.253C106.911 175.061 106.227 175.465 105.339 175.465C104.643 175.465 104.087 175.245 103.671 174.805C103.279 174.365 103.083 173.785 103.083 173.065L103.083 169.381ZM110.186 167.713C110.058 167.569 109.994 167.413 109.994 167.245C109.994 167.077 110.058 166.921 110.186 166.777C110.314 166.649 110.47 166.585 110.654 166.585C110.83 166.585 110.982 166.649 111.11 166.777C111.238 166.905 111.302 167.061 111.302 167.245C111.302 167.429 111.238 167.585 111.11 167.713C110.982 167.841 110.83 167.905 110.654 167.905C110.47 167.905 110.314 167.841 110.186 167.713ZM110.21 175.345L110.21 169.381L111.086 169.381L111.086 175.345L110.21 175.345ZM115.146 175.393C114.018 175.393 113.454 174.861 113.454 173.797L113.454 170.149L112.35 170.149L112.35 169.381L113.454 169.381L113.454 167.665L114.318 167.665L114.318 169.381L115.83 169.381L115.83 170.149L114.318 170.149L114.318 173.785C114.318 174.345 114.642 174.625 115.29 174.625C115.442 174.625 115.622 174.609 115.83 174.577L115.83 175.297C115.622 175.361 115.394 175.393 115.146 175.393ZM119.388 175.393C118.26 175.393 117.696 174.861 117.696 173.797L117.696 170.149L116.592 170.149L116.592 169.381L117.696 169.381L117.696 167.665L118.56 167.665L118.56 169.381L120.072 169.381L120.072 170.149L118.56 170.149L118.56 173.785C118.56 174.345 118.884 174.625 119.532 174.625C119.684 174.625 119.864 174.609 120.072 174.577L120.072 175.297C119.864 175.361 119.636 175.393 119.388 175.393ZM123.9 175.453C123.348 175.453 122.832 175.317 122.352 175.045C121.88 174.765 121.512 174.393 121.248 173.929C120.976 173.465 120.84 172.949 120.84 172.381C120.84 171.493 121.136 170.757 121.728 170.173C122.32 169.573 123.052 169.273 123.924 169.273C124.772 169.257 125.5 169.557 126.108 170.173C126.724 170.781 127.024 171.505 127.008 172.345C127.024 173.209 126.724 173.949 126.108 174.565C125.492 175.173 124.756 175.469 123.9 175.453ZM123.924 174.673C124.548 174.673 125.072 174.449 125.496 174.001C125.904 173.553 126.108 173.013 126.108 172.381C126.108 171.741 125.9 171.189 125.484 170.725C125.06 170.269 124.532 170.041 123.9 170.041C123.268 170.041 122.748 170.265 122.34 170.713C121.932 171.161 121.728 171.705 121.728 172.345C121.712 172.977 121.916 173.525 122.34 173.989C122.772 174.453 123.3 174.681 123.924 174.673ZM133.71 175.345L132.834 175.345L132.834 171.877C132.834 171.325 132.694 170.885 132.414 170.557C132.134 170.229 131.726 170.065 131.19 170.065C130.67 170.065 130.242 170.245 129.906 170.605C129.578 170.973 129.414 171.421 129.414 171.949L129.414 175.345L128.538 175.345L128.538 169.381L129.39 169.381L129.39 170.473C129.87 169.673 130.558 169.273 131.454 169.273C132.158 169.273 132.714 169.489 133.122 169.921C133.514 170.377 133.71 170.957 133.71 171.661L133.71 175.345Z" fill="#FFFFFF" fill-opacity="1.000000" fill-rule="evenodd"/>
	</g>
</svg>
