<svg width="212.000000" height="103.745972" viewBox="0 0 212 103.746" fill="none" xmlns="http://www.w3.org/2000/svg" xmlns:xlink="http://www.w3.org/1999/xlink">
	<desc>
			Created with Pixso.
	</desc>
	<defs>
		<clipPath id="clip108_4743">
			<rect id="lvmh" rx="47" ry="47" width="45.936932" height="45.936932" transform="translate(21.250977 24.215454) rotate(-0.000000)" fill="white" fill-opacity="0"/>
		</clipPath>
		<filter id="filter_108_4746_dd" x="3.686523" y="28.471680" width="30.128418" height="34.757202" filterUnits="userSpaceOnUse" color-interpolation-filters="sRGB">
			<feFlood flood-opacity="0" result="BackgroundImageFix"/>
			<feColorMatrix in="SourceAlpha" type="matrix" values="0 0 0 0 0 0 0 0 0 0 0 0 0 0 0 0 0 0 127 0" result="hardAlpha"/>
			<feOffset dx="0" dy="4"/>
			<feGaussianBlur stdDeviation="1.33333"/>
			<feComposite in2="hardAlpha" operator="out" k2="-1" k3="1"/>
			<feColorMatrix type="matrix" values="0 0 0 0 0 0 0 0 0 0 0 0 0 0 0 0 0 0 0.25 0"/>
			<feBlend mode="normal" in2="BackgroundImageFix" result="effect_dropShadow_1"/>
			<feBlend mode="normal" in="SourceGraphic" in2="effect_dropShadow_1" result="shape"/>
		</filter>
		<filter id="filter_108_4747_dd" x="3.686523" y="28.759277" width="23.309570" height="34.469604" filterUnits="userSpaceOnUse" color-interpolation-filters="sRGB">
			<feFlood flood-opacity="0" result="BackgroundImageFix"/>
			<feColorMatrix in="SourceAlpha" type="matrix" values="0 0 0 0 0 0 0 0 0 0 0 0 0 0 0 0 0 0 127 0" result="hardAlpha"/>
			<feOffset dx="0" dy="4"/>
			<feGaussianBlur stdDeviation="1.33333"/>
			<feComposite in2="hardAlpha" operator="out" k2="-1" k3="1"/>
			<feColorMatrix type="matrix" values="0 0 0 0 0 0 0 0 0 0 0 0 0 0 0 0 0 0 0.25 0"/>
			<feBlend mode="normal" in2="BackgroundImageFix" result="effect_dropShadow_1"/>
			<feBlend mode="normal" in="SourceGraphic" in2="effect_dropShadow_1" result="shape"/>
		</filter>
		<clipPath id="clip108_4745">
			<rect id="shield-antivirus-svgrepo-com 1" width="35.689922" height="35.689922" transform="matrix(-0.972708 0.232033 0.232033 0.972708 34.7158 19.7012)" fill="white" fill-opacity="0"/>
		</clipPath>
		<filter id="filter_108_4750_dd" x="22.778809" y="-4.980957" width="47.853516" height="49.042236" filterUnits="userSpaceOnUse" color-interpolation-filters="sRGB">
			<feFlood flood-opacity="0" result="BackgroundImageFix"/>
			<feColorMatrix in="SourceAlpha" type="matrix" values="0 0 0 0 0 0 0 0 0 0 0 0 0 0 0 0 0 0 127 0" result="hardAlpha"/>
			<feOffset dx="0" dy="4"/>
			<feGaussianBlur stdDeviation="3.33333"/>
			<feComposite in2="hardAlpha" operator="out" k2="-1" k3="1"/>
			<feColorMatrix type="matrix" values="0 0 0 0 0 0 0 0 0 0 0 0 0 0 0 0 0 0 0.5 0"/>
			<feBlend mode="normal" in2="BackgroundImageFix" result="effect_dropShadow_1"/>
			<feBlend mode="normal" in="SourceGraphic" in2="effect_dropShadow_1" result="shape"/>
		</filter>
		<clipPath id="clip108_4748">
			<rect id="helmet_red" width="30.570757" height="31.864918" transform="translate(31.929688 0.000000)" fill="white" fill-opacity="0"/>
		</clipPath>
		<filter id="filter_108_4768_dd" x="49.443359" y="-2.603271" width="46.664551" height="67.724365" filterUnits="userSpaceOnUse" color-interpolation-filters="sRGB">
			<feFlood flood-opacity="0" result="BackgroundImageFix"/>
			<feColorMatrix in="SourceAlpha" type="matrix" values="0 0 0 0 0 0 0 0 0 0 0 0 0 0 0 0 0 0 127 0" result="hardAlpha"/>
			<feOffset dx="0" dy="4"/>
			<feGaussianBlur stdDeviation="3.33333"/>
			<feComposite in2="hardAlpha" operator="out" k2="-1" k3="1"/>
			<feColorMatrix type="matrix" values="0 0 0 0 0 0 0 0 0 0 0 0 0 0 0 0 0 0 0.5 0"/>
			<feBlend mode="normal" in2="BackgroundImageFix" result="effect_dropShadow_1"/>
			<feBlend mode="normal" in="SourceGraphic" in2="effect_dropShadow_1" result="shape"/>
		</filter>
		<clipPath id="clip108_4766">
			<rect id="sword_red" width="28.884270" height="51.868382" transform="translate(59.612793 0.000000)" fill="white" fill-opacity="0"/>
		</clipPath>
		<filter id="filter_108_4775_dd" x="22.295410" y="75.046021" width="42.762695" height="25.880005" filterUnits="userSpaceOnUse" color-interpolation-filters="sRGB">
			<feFlood flood-opacity="0" result="BackgroundImageFix"/>
			<feColorMatrix in="SourceAlpha" type="matrix" values="0 0 0 0 0 0 0 0 0 0 0 0 0 0 0 0 0 0 127 0" result="hardAlpha"/>
			<feOffset dx="0" dy="2"/>
			<feGaussianBlur stdDeviation="0.666667"/>
			<feComposite in2="hardAlpha" operator="out" k2="-1" k3="1"/>
			<feColorMatrix type="matrix" values="0 0 0 0 0 0 0 0 0 0 0 0 0 0 0 0 0 0 0.5 0"/>
			<feBlend mode="normal" in2="BackgroundImageFix" result="effect_dropShadow_1"/>
			<feBlend mode="normal" in="SourceGraphic" in2="effect_dropShadow_1" result="shape"/>
		</filter>
		<clipPath id="clip108_4777">
			<rect id="gucci" rx="47" ry="47" width="45.936932" height="45.936932" transform="translate(143.733398 24.215454)" fill="white" fill-opacity="0"/>
		</clipPath>
		<filter id="filter_108_4780_dd" x="174.071777" y="28.542969" width="30.212891" height="34.859009" filterUnits="userSpaceOnUse" color-interpolation-filters="sRGB">
			<feFlood flood-opacity="0" result="BackgroundImageFix"/>
			<feColorMatrix in="SourceAlpha" type="matrix" values="0 0 0 0 0 0 0 0 0 0 0 0 0 0 0 0 0 0 127 0" result="hardAlpha"/>
			<feOffset dx="-4" dy="4"/>
			<feGaussianBlur stdDeviation="1.33333"/>
			<feComposite in2="hardAlpha" operator="out" k2="-1" k3="1"/>
			<feColorMatrix type="matrix" values="0 0 0 0 0 0 0 0 0 0 0 0 0 0 0 0 0 0 0.25 0"/>
			<feBlend mode="normal" in2="BackgroundImageFix" result="effect_dropShadow_1"/>
			<feBlend mode="normal" in="SourceGraphic" in2="effect_dropShadow_1" result="shape"/>
		</filter>
		<filter id="filter_108_4781_dd" x="180.916504" y="28.831665" width="23.368164" height="34.570312" filterUnits="userSpaceOnUse" color-interpolation-filters="sRGB">
			<feFlood flood-opacity="0" result="BackgroundImageFix"/>
			<feColorMatrix in="SourceAlpha" type="matrix" values="0 0 0 0 0 0 0 0 0 0 0 0 0 0 0 0 0 0 127 0" result="hardAlpha"/>
			<feOffset dx="-4" dy="4"/>
			<feGaussianBlur stdDeviation="1.33333"/>
			<feComposite in2="hardAlpha" operator="out" k2="-1" k3="1"/>
			<feColorMatrix type="matrix" values="0 0 0 0 0 0 0 0 0 0 0 0 0 0 0 0 0 0 0.25 0"/>
			<feBlend mode="normal" in2="BackgroundImageFix" result="effect_dropShadow_1"/>
			<feBlend mode="normal" in="SourceGraphic" in2="effect_dropShadow_1" result="shape"/>
		</filter>
		<clipPath id="clip108_4779">
			<rect id="shield-antivirus-svgrepo-com 1" width="35.825710" height="35.825710" transform="translate(177.151855 19.739014) rotate(-13.416809)" fill="white" fill-opacity="0"/>
		</clipPath>
		<filter id="filter_108_4784_dd" x="140.935547" y="-4.977051" width="47.959473" height="49.152710" filterUnits="userSpaceOnUse" color-interpolation-filters="sRGB">
			<feFlood flood-opacity="0" result="BackgroundImageFix"/>
			<feColorMatrix in="SourceAlpha" type="matrix" values="0 0 0 0 0 0 0 0 0 0 0 0 0 0 0 0 0 0 127 0" result="hardAlpha"/>
			<feOffset dx="0" dy="4"/>
			<feGaussianBlur stdDeviation="3.33333"/>
			<feComposite in2="hardAlpha" operator="out" k2="-1" k3="1"/>
			<feColorMatrix type="matrix" values="0 0 0 0 0 0 0 0 0 0 0 0 0 0 0 0 0 0 0.5 0"/>
			<feBlend mode="normal" in2="BackgroundImageFix" result="effect_dropShadow_1"/>
			<feBlend mode="normal" in="SourceGraphic" in2="effect_dropShadow_1" result="shape"/>
		</filter>
		<clipPath id="clip108_4782">
			<rect id="helmet_red" width="30.687067" height="31.986153" transform="matrix(-1 0 0 1 179.748 0)" fill="white" fill-opacity="0"/>
		</clipPath>
		<filter id="filter_108_4802_dd" x="115.374512" y="-2.590332" width="46.766113" height="67.905884" filterUnits="userSpaceOnUse" color-interpolation-filters="sRGB">
			<feFlood flood-opacity="0" result="BackgroundImageFix"/>
			<feColorMatrix in="SourceAlpha" type="matrix" values="0 0 0 0 0 0 0 0 0 0 0 0 0 0 0 0 0 0 127 0" result="hardAlpha"/>
			<feOffset dx="0" dy="4"/>
			<feGaussianBlur stdDeviation="3.33333"/>
			<feComposite in2="hardAlpha" operator="out" k2="-1" k3="1"/>
			<feColorMatrix type="matrix" values="0 0 0 0 0 0 0 0 0 0 0 0 0 0 0 0 0 0 0.5 0"/>
			<feBlend mode="normal" in2="BackgroundImageFix" result="effect_dropShadow_1"/>
			<feBlend mode="normal" in="SourceGraphic" in2="effect_dropShadow_1" result="shape"/>
		</filter>
		<clipPath id="clip108_4800">
			<rect id="sword_red" width="28.994165" height="52.065723" transform="matrix(-1 0 0 1 151.97 0)" fill="white" fill-opacity="0"/>
		</clipPath>
		<filter id="filter_108_4809_dd" x="129.197754" y="74.973999" width="79.433105" height="28.771973" filterUnits="userSpaceOnUse" color-interpolation-filters="sRGB">
			<feFlood flood-opacity="0" result="BackgroundImageFix"/>
			<feColorMatrix in="SourceAlpha" type="matrix" values="0 0 0 0 0 0 0 0 0 0 0 0 0 0 0 0 0 0 127 0" result="hardAlpha"/>
			<feOffset dx="0" dy="2"/>
			<feGaussianBlur stdDeviation="0.666667"/>
			<feComposite in2="hardAlpha" operator="out" k2="-1" k3="1"/>
			<feColorMatrix type="matrix" values="0 0 0 0 0 0 0 0 0 0 0 0 0 0 0 0 0 0 0.5 0"/>
			<feBlend mode="normal" in2="BackgroundImageFix" result="effect_dropShadow_1"/>
			<feBlend mode="normal" in="SourceGraphic" in2="effect_dropShadow_1" result="shape"/>
		</filter>
		<filter id="filter_108_4811_dd" x="58.532715" y="4.343994" width="94.453125" height="83.645630" filterUnits="userSpaceOnUse" color-interpolation-filters="sRGB">
			<feFlood flood-opacity="0" result="BackgroundImageFix"/>
			<feColorMatrix in="SourceAlpha" type="matrix" values="0 0 0 0 0 0 0 0 0 0 0 0 0 0 0 0 0 0 127 0" result="hardAlpha"/>
			<feOffset dx="0" dy="0"/>
			<feGaussianBlur stdDeviation="8.33333"/>
			<feComposite in2="hardAlpha" operator="out" k2="-1" k3="1"/>
			<feColorMatrix type="matrix" values="0 0 0 0 0.98039 0 0 0 0 0.79216 0 0 0 0 0.34902 0 0 0 1 0"/>
			<feBlend mode="normal" in2="BackgroundImageFix" result="effect_dropShadow_1"/>
			<feBlend mode="normal" in="SourceGraphic" in2="effect_dropShadow_1" result="shape"/>
		</filter>
		<filter id="filter_108_4813_dd" x="90.176758" y="36.852783" width="29.480957" height="19.236694" filterUnits="userSpaceOnUse" color-interpolation-filters="sRGB">
			<feFlood flood-opacity="0" result="BackgroundImageFix"/>
			<feColorMatrix in="SourceAlpha" type="matrix" values="0 0 0 0 0 0 0 0 0 0 0 0 0 0 0 0 0 0 127 0" result="hardAlpha"/>
			<feOffset dx="0" dy="4"/>
			<feGaussianBlur stdDeviation="0.666667"/>
			<feComposite in2="hardAlpha" operator="out" k2="-1" k3="1"/>
			<feColorMatrix type="matrix" values="0 0 0 0 0 0 0 0 0 0 0 0 0 0 0 0 0 0 0.5 0"/>
			<feBlend mode="normal" in2="BackgroundImageFix" result="effect_dropShadow_1"/>
			<feBlend mode="normal" in="SourceGraphic" in2="effect_dropShadow_1" result="shape"/>
		</filter>
		<radialGradient id="paint_radial_108_4811_0" cx="0.000000" cy="0.000000" r="1.000000" gradientUnits="userSpaceOnUse" gradientTransform="translate(88.2175 39.4352) rotate(9.60304) scale(34.5708 46.5041)">
			<stop offset="0.102161" stop-color="#B37D16"/>
			<stop offset="0.806940" stop-color="#F8F497"/>
			<stop offset="1.000000" stop-color="#C4963D"/>
		</radialGradient>
		<linearGradient id="paint_linear_108_4811_1" x1="85.979492" y1="31.343988" x2="116.794991" y2="55.273346" gradientUnits="userSpaceOnUse">
			<stop stop-color="#F8F497"/>
			<stop offset="1.000000" stop-color="#B7851F"/>
		</linearGradient>
		<radialGradient id="paint_radial_108_4812_0" cx="0.000000" cy="0.000000" r="1.000000" gradientUnits="userSpaceOnUse" gradientTransform="translate(107.67 33.7542) rotate(95.6824) scale(17.3869 23.4689)">
			<stop stop-color="#AF4190"/>
			<stop offset="0.472281" stop-color="#610547"/>
			<stop offset="1.000000" stop-color="#220119"/>
		</radialGradient>
		<linearGradient id="paint_linear_108_4812_1" x1="92.434837" y1="33.754150" x2="118.085724" y2="52.604973" gradientUnits="userSpaceOnUse">
			<stop stop-color="#F2E586"/>
			<stop offset="0.546840" stop-color="#B37D16"/>
			<stop offset="0.990875" stop-color="#F7F395"/>
		</linearGradient>
		<linearGradient id="paint_linear_108_4813_0" x1="92.176750" y1="51.744072" x2="92.176750" y2="36.852783" gradientUnits="userSpaceOnUse">
			<stop offset="0.276042" stop-color="#B37D16"/>
			<stop offset="0.670000" stop-color="#F8F497"/>
			<stop offset="1.000000" stop-color="#DDB149"/>
		</linearGradient>
		<linearGradient id="paint_linear_108_4813_1" x1="104.917305" y1="36.852783" x2="104.917305" y2="51.313683" gradientUnits="userSpaceOnUse">
			<stop stop-color="#DDB149"/>
			<stop offset="1.000000" stop-color="#F8F497"/>
		</linearGradient>
	</defs>
	<rect id="lvmh" rx="47" ry="47" width="45.936932" height="45.936932" transform="translate(21.250977 24.215454) rotate(-0.000000)" fill="#3E302D" fill-opacity="1.000000"/>
	<g clip-path="url(#clip108_4743)">
		<path id="Vector" d="M52.124 37.8608L45.5522 53.35L43.7393 49.3772L47.0879 40.2748C47.3398 39.5709 48.2212 39.2439 49.707 39.2439L50.2354 37.8608L42.4297 37.8608L41.9263 39.2439C43.0342 39.2439 43.4873 39.5707 43.311 40.2748L41.6494 44.9014L38.376 37.8608C37.7715 37.1066 38.0737 36.7292 39.2573 36.7292L39.2573 35.0951L31.7031 35.0951L31.7031 36.7295C33.1133 36.7295 33.9946 37.1068 34.3721 37.8611L39.9121 49.6288L37.3184 56.5436C37.2676 57.4739 35.8076 57.9268 32.9873 57.9268L32.4585 59.3097L54.0127 59.3097L57.0088 52.948L55.4478 52.948C53.9873 56.2419 52.3003 57.9268 50.4121 57.9268L40.5161 57.9268L41.9766 54.0293L43.2354 56.5436L46.0557 56.5436L54.0122 37.8612C54.3901 36.7296 55.3721 36.1263 56.9082 36.1263L56.9082 34.6675L50.4116 34.6675L50.4116 36.126C52.376 36.126 52.9297 36.7295 52.124 37.8608Z" fill="#FFFFFF" fill-opacity="1.000000" fill-rule="evenodd"/>
	</g>
	<rect id="lvmh" rx="47" ry="47" width="45.936932" height="45.936932" transform="translate(21.250977 24.215454) rotate(-0.000000)" stroke="#CDCCCC" stroke-opacity="1.000000" stroke-width="1.000000"/>
	<rect id="shield-antivirus-svgrepo-com 1" width="35.689922" height="35.689922" transform="matrix(-0.972708 0.232033 0.232033 0.972708 34.7158 19.7012)" fill="#FFFFFF" fill-opacity="0"/>
	<g clip-path="url(#clip108_4745)">
		<g filter="url(#filter_108_4746_dd)">
			<path id="Vector" d="M22.9951 55.2289L23.6064 54.4473C26.9585 50.1445 31.1294 44.7916 29.418 37.6187L27.7876 30.7842L26.5815 31.0719C22.2271 32.1106 18.4897 30.9928 17.8882 28.4717L15.4761 29.0471C16.0776 31.5682 13.2471 34.2527 8.89258 35.2915L7.68652 35.5792L9.31689 42.4137C11.0278 49.5867 17.1655 52.4806 22.0977 54.8059L22.9951 55.2289Z" fill="#D84025" fill-opacity="1.000000" fill-rule="nonzero"/>
		</g>
		<g filter="url(#filter_108_4747_dd)">
			<path id="Vector" d="M8.89258 35.2914C13.2471 34.2527 16.0776 31.5681 15.4761 29.047L16.6821 28.7593L22.9961 55.2274L22.9946 55.2289L22.0977 54.8058C17.1655 52.4805 11.0278 49.5867 9.31641 42.4136L7.68652 35.5791L8.89258 35.2914Z" fill="#A13023" fill-opacity="1.000000" fill-rule="nonzero"/>
		</g>
	</g>
	<rect id="helmet_red" width="30.570757" height="31.864918" transform="translate(31.929688 0.000000)" fill="#FFFFFF" fill-opacity="0"/>
	<g clip-path="url(#clip108_4748)">
		<g filter="url(#filter_108_4750_dd)">
			<path id="Vector" d="M54.4434 22.5884C54.7529 23.844 55.0605 25.0985 55.3672 26.3521C52.543 27.9683 48.9771 28.8708 44.4976 28.8723L44.4976 23.689L54.4434 22.5884Z" fill="#535353" fill-opacity="1.000000" fill-rule="evenodd"/>
			<path id="Vector" d="M34.5596 22.5884C34.2466 23.844 33.936 25.0985 33.6279 26.3521C36.458 27.9683 40.0161 28.8708 44.4976 28.8723L44.4976 23.689L34.5596 22.5884Z" fill="#676767" fill-opacity="1.000000" fill-rule="evenodd"/>
			<path id="Vector" d="M42.2744 9.07593C35.8218 3.36951 48.0229 3.91016 51.4614 1.01904C51.7041 1.2605 51.8481 1.55078 51.875 1.85376C51.9023 2.15674 51.8115 2.45923 51.6143 2.72339C53.1406 3.67163 55.8242 2.37781 57.2793 4.19531C55.6304 4.12402 54.6265 4.61829 54.0142 5.27991C58.5361 4.75623 56.7671 7.94324 60.6318 8.12305C57.7524 9.34241 50.9897 7.00122 46.8086 9.85059C44.9209 9.79797 44.1621 9.13318 42.2744 9.07593Z" fill="#A23023" fill-opacity="1.000000" fill-rule="evenodd"/>
			<path id="Vector" d="M60.6304 8.07031C57.7798 9.32971 51.0669 6.93005 46.916 9.85059C46.1436 9.81775 45.3838 9.68408 44.6675 9.45508C50.0962 4.66064 54.9136 8.91675 60.6323 8.07031L60.6304 8.07031Z" fill="#1A1A1A" fill-opacity="1.000000" fill-rule="evenodd"/>
			<path id="Vector" d="M42.6509 8.59106C43.396 8.64917 44.127 8.78308 44.8232 8.98914L44.8726 9.00134C44.6289 8.72986 44.3901 8.45837 44.1553 8.18689C42.02 6.37048 46.5137 4.22144 49.2393 3.78076C50.2207 4.41516 51.7329 4.11475 52.5078 4.56006C51.8398 5.09998 51.4258 6.03333 50.7554 6.57324C58.4072 5.79846 54.9219 7.64087 58.5938 7.9978C58.3467 7.8728 58.1221 7.72461 57.9258 7.55701C56.6963 6.51233 56.8789 5.37146 54.1982 5.67651L52.7065 5.84583C52.9702 5.57324 53.2358 5.30127 53.5034 5.02979C54.1079 4.39929 55.0176 3.9679 56.0405 3.82642C55.8008 3.72205 55.5366 3.65222 55.2617 3.62061C55 3.59106 54.7358 3.57532 54.4707 3.57324C53.2783 3.552 52.1411 3.62207 51.1919 3.05164L50.8398 2.83667C50.9092 2.74207 50.981 2.64905 51.0444 2.55603C51.2031 2.34717 51.27 2.10669 51.2354 1.86816C50.0054 2.56213 48.3047 3.02881 46.8477 3.41626C45.6938 3.72119 44.4829 4.02625 43.3887 4.40601C42.6162 4.67749 41.7495 5.0542 41.3394 5.5697C40.5957 6.53064 41.7451 7.77966 42.6509 8.59106Z" fill="#EF4123" fill-opacity="1.000000" fill-rule="evenodd"/>
			<path id="Vector" d="M43.7261 8.71741C44.1138 8.79333 44.4961 8.88403 44.8716 8.98914L44.9204 9.00134C44.6782 8.72815 44.4399 8.45496 44.2061 8.18176C42.0781 6.35364 46.5562 4.19092 49.2725 3.74731C50.2505 4.38586 51.7573 4.0835 52.5293 4.53174C51.8638 5.07507 51.4512 6.0144 50.7832 6.55774C58.4082 5.77808 54.9346 7.6322 58.5942 7.99146C56.689 7.61841 56.7236 6.27075 55.6411 5.9469C54.5591 5.62305 53.1294 6.36902 52.0391 6.04517C52.1533 5.42041 52.6704 4.91235 53.4219 4.13721C52.3779 3.66296 49.7461 4.08655 50.2935 2.71741C47.9512 4.65906 40.4058 3.85474 43.2686 8.55017L43.7261 8.71741Z" fill="#D03927" fill-opacity="1.000000" fill-rule="evenodd"/>
			<path id="Vector" d="M47.894 10.4451C47.894 11.7113 46.3354 12.7378 44.4121 12.7378C42.4893 12.7378 40.9307 11.7113 40.9307 10.4451C40.9307 9.17871 42.4893 8.15222 44.4121 8.15222C46.3354 8.15222 47.894 9.17871 47.894 10.4451Z" fill="#CDCCCC" fill-opacity="1.000000" fill-rule="evenodd"/>
			<path id="Vector" d="M44.4277 10.5299C48.793 10.5299 52.5225 12.2605 54.0146 14.7017C54.8159 14.959 55.3672 15.4889 55.3672 16.0953C55.3628 16.297 55.3022 16.4957 55.1885 16.6786C55.0747 16.8615 54.9106 17.0244 54.707 17.1567C54.6333 20.7267 50.0596 23.6074 44.4277 23.6074C38.7964 23.6074 34.2388 20.7328 34.1528 17.172C33.9399 17.0392 33.7681 16.8738 33.6479 16.687C33.5283 16.5002 33.4634 16.2964 33.458 16.0892C33.458 15.4767 34.0278 14.936 34.8477 14.6833C36.3457 12.2483 40.0688 10.5299 44.4277 10.5299Z" fill="#8B8A8A" fill-opacity="1.000000" fill-rule="evenodd"/>
			<path id="Vector" d="M42.7993 20.2107C46.6372 20.2107 49.7627 18.2312 49.7627 15.7949C49.7627 13.3586 46.6313 11.3792 42.7993 11.3792C38.9673 11.3792 35.8359 13.3586 35.8359 15.7949C35.8359 18.2312 38.959 20.2107 42.7993 20.2107Z" fill="#989898" fill-opacity="1.000000" fill-rule="evenodd"/>
			<path id="Vector" d="M40.6758 15.2854C42.127 15.2854 43.3086 14.522 43.3086 13.587C43.3086 12.6522 42.127 11.8887 40.6758 11.8887C39.2251 11.8887 38.0435 12.6506 38.0435 13.587C38.0435 14.5234 39.2373 15.2854 40.6758 15.2854Z" fill="#ACACAC" fill-opacity="1.000000" fill-rule="evenodd"/>
			<path id="Vector" d="M44.4976 14.2665L44.3979 14.2665C43.0093 14.2611 41.6313 14.4487 40.3311 14.8201L32.7788 16.9646L32.7788 23.3547C36.083 26.2793 39.9365 28.5696 44.4976 30.0613L44.4976 14.2665Z" fill="#CDCCCC" fill-opacity="1.000000" fill-rule="evenodd"/>
			<path id="Vector" d="M42.7993 15.2854C42.1973 15.3616 41.6069 15.484 41.0366 15.651L39.5884 16.0679L39.5884 26.7622C40.6104 27.3513 41.6821 27.8861 42.7969 28.3629L42.7969 15.2854L42.7993 15.2854ZM38.9087 16.2638L36.6567 16.9125L36.6567 24.8458C37.3687 25.37 38.1187 25.8771 38.9087 26.3594L38.9087 16.2638ZM35.979 17.1069L34.4771 17.5394L34.4771 23.0864C34.9585 23.5096 35.459 23.9244 35.979 24.3309L35.979 17.1069Z" fill="#333333" fill-opacity="1.000000" fill-rule="evenodd"/>
			<path id="Vector" d="M44.4976 14.2665L44.5972 14.2665C45.9824 14.2621 47.3569 14.4496 48.6538 14.8201L56.2163 16.963L56.2163 23.3531C52.9102 26.2793 49.0566 28.5696 44.4976 30.0613L44.4976 14.2665Z" fill="#B4B4B4" fill-opacity="1.000000" fill-rule="evenodd"/>
			<path id="Vector" d="M46.1958 15.2854C46.8101 15.3618 47.4126 15.4843 47.9951 15.651L49.4727 16.0679L49.4727 26.7622C48.4297 27.351 47.3354 27.8857 46.1978 28.3629L46.1978 15.2854L46.1958 15.2854ZM50.1665 16.2638L52.4629 16.9125L52.4629 24.8458C51.7383 25.37 50.9727 25.8771 50.1665 26.3594L50.1665 16.2638ZM53.1567 17.1069L54.6875 17.5394L54.6875 23.0864C54.1978 23.5096 53.6875 23.9244 53.1567 24.3309L53.1567 17.1069Z" fill="#1A1A1A" fill-opacity="1.000000" fill-rule="evenodd"/>
			<path id="Vector" d="M43.5342 8.66174C44.186 8.66174 44.4985 8.96667 44.2334 9.34106C44.0654 9.54114 43.8242 9.70862 43.5337 9.82751C43.2427 9.94641 42.9116 10.0129 42.5718 10.0204C41.9219 10.0204 41.6094 9.71692 41.8745 9.34106C42.043 9.14148 42.2837 8.97424 42.5742 8.85535C42.8643 8.73645 43.1948 8.6698 43.5342 8.66174Z" fill="#E3E3E3" fill-opacity="1.000000" fill-rule="evenodd"/>
		</g>
	</g>
	<rect id="sword_red" width="28.884270" height="51.868382" transform="translate(59.612793 0.000000)" fill="#FFFFFF" fill-opacity="0"/>
	<g clip-path="url(#clip108_4766)">
		<g filter="url(#filter_108_4768_dd)">
			<path id="Vector" d="M60.0093 47.2836L60.145 47.3539C60.2993 47.4366 60.4712 47.4817 60.646 47.4855C60.8208 47.4894 60.9941 47.4517 61.1519 47.3757C61.3115 47.3046 61.4526 47.1967 61.563 47.0608C61.6729 46.925 61.7495 46.7651 61.7866 46.5941C62.0991 45.2279 62.7246 43.5585 63.6143 41.8344C64.5034 40.1101 65.5024 38.6345 66.4277 37.5887C66.5439 37.4584 66.6284 37.3033 66.6753 37.1354C66.7222 36.9673 66.73 36.7908 66.6982 36.6194C66.6665 36.4479 66.5957 36.2859 66.4917 36.1459C66.3877 36.0059 66.2529 35.8915 66.0981 35.8114L65.9604 35.7411L66.5264 34.6469L69.1841 36.0162L71.8413 37.3839L71.2754 38.4781L71.1396 38.4078C70.9839 38.3264 70.8115 38.2819 70.6357 38.2777C70.4604 38.2736 70.2861 38.3101 70.1265 38.384C69.9673 38.4581 69.8271 38.5679 69.7173 38.7048C69.6069 38.8418 69.5298 39.0023 69.4917 39.1738C69.1792 40.5385 68.5542 42.2095 67.6646 43.9321C66.7749 45.6547 65.7759 47.1318 64.8506 48.1776C64.7349 48.3081 64.6499 48.4633 64.603 48.6315C64.5562 48.7996 64.5488 48.9762 64.5806 49.1478C64.6123 49.3193 64.6826 49.4814 64.7866 49.6216C64.8906 49.7617 65.0254 49.8763 65.1807 49.9565L65.3179 50.0269L64.752 51.1211L62.0947 49.7533L59.4434 48.3793L60.0093 47.2836Z" fill="#CA3927" fill-opacity="1.000000" fill-rule="evenodd"/>
			<path id="Vector" d="M66.7739 38.2339C67.2124 38.4626 66.6035 40.5413 65.4126 42.8737C64.2217 45.2061 62.9004 46.9135 62.4697 46.6847C62.0391 46.4561 62.6401 44.3774 63.8311 42.045C65.022 39.7126 66.3354 38.0052 66.7739 38.2339Z" fill="#F04B23" fill-opacity="1.000000" fill-rule="evenodd"/>
			<path id="Vector" d="M86.1079 3.39673L84.6836 11.4453L71.3965 37.1945L67.0859 34.9697L80.373 9.2207L86.1079 3.39673Z" fill="#D1D2D2" fill-opacity="1.000000" fill-rule="evenodd"/>
			<path id="Vector" d="M81.8081 7.74438L84.0703 6.27112L83.2749 11.0728L71.332 37.1945L84.6772 11.4453L86.1079 3.39673L81.8081 7.74438Z" fill="#E6E6E5" fill-opacity="1.000000" fill-rule="evenodd"/>
			<path id="Vector" d="M82.3711 10.6997L76.0933 23.5216L69.8135 36.3452L69.1284 35.9965L68.4443 35.6476L75.4077 23.1744L82.3711 10.6997Z" fill="#818181" fill-opacity="1.000000" fill-rule="evenodd"/>
			<path id="Vector" d="M65.7729 33.4233L73.3726 37.3669C73.7632 37.0841 74.2373 36.9418 74.7183 36.9631C75.1992 36.9844 75.6592 37.168 76.0239 37.4843C76.3882 37.8005 76.6362 38.231 76.728 38.7063C76.8193 39.1818 76.749 39.6742 76.5278 40.1044C76.3071 40.5345 75.9487 40.8774 75.5103 41.0776C75.0718 41.2778 74.5791 41.3239 74.1118 41.208C73.644 41.0922 73.229 40.8214 72.9336 40.4393C72.6377 40.0574 72.4785 39.5862 72.4814 39.1021L64.8818 35.1586C64.4907 35.4421 64.0161 35.585 63.5342 35.564C63.0522 35.5428 62.5913 35.3591 62.2261 35.0425C61.8608 34.7258 61.6123 34.2947 61.5205 33.8185C61.4287 33.3423 61.4995 32.8489 61.7207 32.418C61.9419 31.9871 62.3013 31.6436 62.7402 31.4431C63.1792 31.2427 63.6729 31.1968 64.1411 31.313C64.6094 31.4291 65.0249 31.7006 65.3213 32.0835C65.6172 32.4663 65.7764 32.9384 65.7729 33.4233Z" fill="#333333" fill-opacity="1.000000" fill-rule="evenodd"/>
		</g>
	</g>
	<g filter="url(#filter_108_4775_dd)">
		<path id="Louis Vuitton" d="M30.7804 83.806L30.7804 75.058L31.7044 75.058L31.7044 82.942L35.8564 82.942L35.8564 83.806L30.7804 83.806ZM39.3913 83.914C38.8393 83.914 38.3233 83.778 37.8433 83.506C37.3713 83.226 37.0033 82.854 36.7393 82.39C36.4673 81.926 36.3313 81.41 36.3313 80.842C36.3313 79.954 36.6273 79.218 37.2193 78.634C37.8113 78.034 38.5433 77.734 39.4153 77.734C40.2633 77.718 40.9913 78.018 41.5993 78.634C42.2153 79.242 42.5153 79.966 42.4993 80.806C42.5153 81.67 42.2153 82.41 41.5993 83.026C40.9833 83.634 40.2473 83.93 39.3913 83.914ZM39.4153 83.134C40.0393 83.134 40.5633 82.91 40.9873 82.462C41.3953 82.014 41.5993 81.474 41.5993 80.842C41.5993 80.202 41.3913 79.65 40.9753 79.186C40.5513 78.73 40.0233 78.502 39.3913 78.502C38.7593 78.502 38.2393 78.726 37.8313 79.174C37.4233 79.622 37.2193 80.166 37.2193 80.806C37.2033 81.438 37.4073 81.986 37.8313 82.45C38.2633 82.914 38.7913 83.142 39.4153 83.134ZM43.9569 77.842L44.8209 77.842L44.8209 81.31C44.8209 81.87 44.9649 82.31 45.2529 82.63C45.5249 82.958 45.9329 83.122 46.4769 83.122C46.9889 83.122 47.4129 82.942 47.7489 82.582C48.0849 82.222 48.2529 81.774 48.2529 81.238L48.2529 77.842L49.1169 77.842L49.1169 83.806L48.2649 83.806L48.2649 82.714C47.7849 83.522 47.1009 83.926 46.2129 83.926C45.5169 83.926 44.9609 83.706 44.5449 83.266C44.1529 82.826 43.9569 82.246 43.9569 81.526L43.9569 77.842ZM51.0596 76.174C50.9316 76.03 50.8676 75.874 50.8676 75.706C50.8676 75.538 50.9316 75.382 51.0596 75.238C51.1876 75.11 51.3436 75.046 51.5276 75.046C51.7036 75.046 51.8556 75.11 51.9836 75.238C52.1116 75.366 52.1756 75.522 52.1756 75.706C52.1756 75.89 52.1116 76.046 51.9836 76.174C51.8556 76.302 51.7036 76.366 51.5276 76.366C51.3436 76.366 51.1876 76.302 51.0596 76.174ZM51.0836 83.806L51.0836 77.842L51.9596 77.842L51.9596 83.806L51.0836 83.806ZM57.8673 82.114C57.8673 82.65 57.6633 83.078 57.2553 83.398C56.8473 83.734 56.3473 83.902 55.7553 83.902C54.8833 83.902 54.2473 83.614 53.8473 83.038C53.6473 82.766 53.5273 82.462 53.4873 82.126L54.2793 81.922C54.3353 82.25 54.4833 82.538 54.7233 82.786C54.9713 83.026 55.3113 83.146 55.7433 83.146C56.0713 83.146 56.3633 83.054 56.6193 82.87C56.8593 82.702 56.9793 82.466 56.9793 82.162C56.9793 81.922 56.8833 81.73 56.6913 81.586C56.5153 81.442 56.2873 81.338 56.0073 81.274L55.0953 81.07C54.1033 80.854 53.6073 80.334 53.6073 79.51C53.6073 78.894 53.8553 78.434 54.3513 78.13C54.7753 77.866 55.2033 77.734 55.6353 77.734C56.4513 77.742 57.0473 78.006 57.4233 78.526C57.6073 78.79 57.7273 79.058 57.7833 79.33L56.9913 79.558C56.9353 79.326 56.8193 79.102 56.6433 78.886C56.4273 78.63 56.0913 78.502 55.6353 78.502C55.3073 78.502 55.0353 78.594 54.8193 78.778C54.5953 78.954 54.4833 79.178 54.4833 79.45C54.4833 79.85 54.7713 80.122 55.3473 80.266L56.3073 80.482C56.7473 80.586 57.1153 80.774 57.4113 81.046C57.7153 81.318 57.8673 81.674 57.8673 82.114ZM32.3473 88.058L28.8312 96.806L27.8113 96.806L24.2952 88.058L25.3032 88.058L28.3272 95.774L31.3633 88.058L32.3473 88.058ZM32.4315 90.842L33.2955 90.842L33.2955 94.31C33.2955 94.87 33.4395 95.31 33.7275 95.63C33.9995 95.958 34.4075 96.122 34.9515 96.122C35.4635 96.122 35.8875 95.942 36.2235 95.582C36.5595 95.222 36.7275 94.774 36.7275 94.238L36.7275 90.842L37.5915 90.842L37.5915 96.806L36.7395 96.806L36.7395 95.714C36.2595 96.522 35.5755 96.926 34.6875 96.926C33.9915 96.926 33.4355 96.706 33.0195 96.266C32.6275 95.826 32.4315 95.246 32.4315 94.526L32.4315 90.842ZM39.5342 89.174C39.4062 89.03 39.3422 88.874 39.3422 88.706C39.3422 88.538 39.4062 88.382 39.5342 88.238C39.6622 88.11 39.8182 88.046 40.0022 88.046C40.1782 88.046 40.3302 88.11 40.4582 88.238C40.5862 88.366 40.6502 88.522 40.6502 88.706C40.6502 88.89 40.5862 89.046 40.4582 89.174C40.3302 89.302 40.1782 89.366 40.0022 89.366C39.8182 89.366 39.6622 89.302 39.5342 89.174ZM39.5582 96.806L39.5582 90.842L40.4342 90.842L40.4342 96.806L39.5582 96.806ZM44.4939 96.854C43.3659 96.854 42.8019 96.322 42.8019 95.258L42.8019 91.61L41.6979 91.61L41.6979 90.842L42.8019 90.842L42.8019 89.126L43.6659 89.126L43.6659 90.842L45.1779 90.842L45.1779 91.61L43.6659 91.61L43.6659 95.246C43.6659 95.806 43.9899 96.086 44.6379 96.086C44.7899 96.086 44.9699 96.07 45.1779 96.038L45.1779 96.758C44.9699 96.822 44.7419 96.854 44.4939 96.854ZM48.7361 96.854C47.6081 96.854 47.0441 96.322 47.0441 95.258L47.0441 91.61L45.9401 91.61L45.9401 90.842L47.0441 90.842L47.0441 89.126L47.9081 89.126L47.9081 90.842L49.4201 90.842L49.4201 91.61L47.9081 91.61L47.9081 95.246C47.9081 95.806 48.2321 96.086 48.8801 96.086C49.0321 96.086 49.2121 96.07 49.4201 96.038L49.4201 96.758C49.2121 96.822 48.9841 96.854 48.7361 96.854ZM53.2487 96.914C52.6967 96.914 52.1807 96.778 51.7007 96.506C51.2287 96.226 50.8607 95.854 50.5967 95.39C50.3247 94.926 50.1887 94.41 50.1887 93.842C50.1887 92.954 50.4847 92.218 51.0767 91.634C51.6687 91.034 52.4007 90.734 53.2727 90.734C54.1207 90.718 54.8487 91.018 55.4567 91.634C56.0727 92.242 56.3727 92.966 56.3567 93.806C56.3727 94.67 56.0727 95.41 55.4567 96.026C54.8407 96.634 54.1047 96.93 53.2487 96.914ZM53.2727 96.134C53.8967 96.134 54.4207 95.91 54.8447 95.462C55.2527 95.014 55.4567 94.474 55.4567 93.842C55.4567 93.202 55.2487 92.65 54.8327 92.186C54.4087 91.73 53.8807 91.502 53.2487 91.502C52.6167 91.502 52.0967 91.726 51.6887 92.174C51.2807 92.622 51.0767 93.166 51.0767 93.806C51.0607 94.438 51.2647 94.986 51.6887 95.45C52.1207 95.914 52.6487 96.142 53.2727 96.134ZM63.0583 96.806L62.1823 96.806L62.1823 93.338C62.1823 92.786 62.0423 92.346 61.7623 92.018C61.4823 91.69 61.0743 91.526 60.5383 91.526C60.0183 91.526 59.5903 91.706 59.2543 92.066C58.9263 92.434 58.7623 92.882 58.7623 93.41L58.7623 96.806L57.8863 96.806L57.8863 90.842L58.7383 90.842L58.7383 91.934C59.2183 91.134 59.9063 90.734 60.8023 90.734C61.5063 90.734 62.0623 90.95 62.4703 91.382C62.8623 91.838 63.0583 92.418 63.0583 93.122L63.0583 96.806Z" fill="#FFFFFF" fill-opacity="1.000000" fill-rule="evenodd"/>
	</g>
	<rect id="gucci" rx="47" ry="47" width="45.936932" height="45.936932" transform="translate(143.733398 24.215454)" fill="#C8B388" fill-opacity="1.000000"/>
	<g clip-path="url(#clip108_4777)">
		<path id="Vector" d="M183.912 46.4017C183.912 52.8802 178.571 58.136 171.988 58.136C170.092 58.136 168.304 57.7072 166.691 56.9132C165.1 57.6857 163.291 58.136 161.416 58.136C154.833 58.136 149.492 52.8802 149.492 46.4017C149.492 39.9232 154.833 34.6675 161.416 34.6675C163.312 34.6675 165.1 35.0966 166.691 35.8688C168.282 35.0966 170.092 34.6675 171.988 34.6675C178.571 34.6675 183.912 39.9232 183.912 46.4017ZM181.558 46.4017C181.558 41.2104 177.263 36.9845 171.988 36.9845C170.985 36.9845 170.004 37.1345 169.111 37.4136C170.942 38.9149 172.271 40.9314 172.925 43.2484L170.462 43.2484C169.77 41.3142 168.453 39.6565 166.713 38.5288C164.991 39.6442 163.683 41.2964 162.985 43.2484L160.522 43.2484C161.167 40.9636 162.497 38.9229 164.337 37.3921C163.397 37.1072 162.42 36.9625 161.438 36.963C156.162 36.963 151.868 41.189 151.868 46.3802C151.868 51.5715 156.162 55.7979 161.438 55.7979C162.44 55.7979 163.399 55.6477 164.293 55.3688C161.917 53.4167 160.37 50.5421 160.13 47.3243L165.797 47.3243L165.797 49.6195L163.029 49.6625C163.748 51.5503 165.035 53.1381 166.713 54.2319C168.391 53.1377 169.677 51.5503 170.397 49.6625L167.628 49.6195L167.628 47.3243L173.296 47.3243C173.035 50.5421 171.465 53.3953 169.089 55.3473C170.004 55.6262 170.985 55.7979 171.988 55.7979C177.285 55.8193 181.558 51.6145 181.558 46.4017Z" fill="#000000" fill-opacity="1.000000" fill-rule="evenodd"/>
	</g>
	<rect id="gucci" rx="47" ry="47" width="45.936932" height="45.936932" transform="translate(143.733398 24.215454)" stroke="#CDCCCC" stroke-opacity="1.000000" stroke-width="1.000000"/>
	<rect id="shield-antivirus-svgrepo-com 1" width="35.825710" height="35.825710" transform="translate(177.151855 19.739014) rotate(-13.416809)" fill="#FFFFFF" fill-opacity="0"/>
	<g clip-path="url(#clip108_4779)">
		<g filter="url(#filter_108_4780_dd)">
			<path id="Vector" d="M188.918 55.402L188.304 54.6173C184.939 50.2982 180.752 44.9249 182.47 37.7247L184.106 30.8643L185.317 31.153C189.688 32.1958 193.44 31.0736 194.044 28.543L196.465 29.1205C195.861 31.6512 198.703 34.3459 203.074 35.3887L204.285 35.6775L202.648 42.538C200.931 49.7383 194.769 52.6432 189.818 54.9774L188.918 55.402Z" fill="#7AB9E8" fill-opacity="1.000000" fill-rule="nonzero"/>
		</g>
		<g filter="url(#filter_108_4781_dd)">
			<path id="Vector" d="M203.074 35.3887C198.703 34.3459 195.861 31.6512 196.465 29.1205L195.254 28.8317L188.917 55.4004L188.918 55.402L189.818 54.9773C194.769 52.6432 200.93 49.7383 202.648 42.538L204.285 35.6775L203.074 35.3887Z" fill="#579ADF" fill-opacity="1.000000" fill-rule="nonzero"/>
		</g>
	</g>
	<rect id="helmet_red" width="30.687067" height="31.986153" transform="matrix(-1 0 0 1 179.748 0)" fill="#FFFFFF" fill-opacity="0"/>
	<g clip-path="url(#clip108_4782)">
		<g filter="url(#filter_108_4784_dd)">
			<path id="Vector" d="M157.148 22.6743C156.837 23.9347 156.529 25.194 156.221 26.4523C159.056 28.0747 162.635 28.9807 167.132 28.9822L167.132 23.7791L157.148 22.6743Z" fill="#535353" fill-opacity="1.000000" fill-rule="evenodd"/>
			<path id="Vector" d="M177.107 22.6743C177.421 23.9347 177.733 25.194 178.042 26.4523C175.201 28.0747 171.63 28.9807 167.131 28.9822L167.131 23.7791L177.107 22.6743Z" fill="#676767" fill-opacity="1.000000" fill-rule="evenodd"/>
			<path id="Vector" d="M169.363 9.11047C175.84 3.38232 163.593 3.92517 160.141 1.02295C159.897 1.26526 159.753 1.55664 159.726 1.86084C159.698 2.16504 159.79 2.46851 159.988 2.73376C158.456 3.68555 155.762 2.38696 154.301 4.2113C155.956 4.13977 156.964 4.63586 157.579 5.30005C153.04 4.77429 154.815 7.97351 150.936 8.15393C153.826 9.37793 160.614 7.02795 164.812 9.88806C166.707 9.83521 167.468 9.16797 169.363 9.11047Z" fill="#1B2241" fill-opacity="1.000000" fill-rule="evenodd"/>
			<path id="Vector" d="M150.938 8.10095C153.798 9.36511 160.537 6.9563 164.704 9.88806C165.479 9.8551 166.242 9.72095 166.961 9.49109C161.511 4.67834 156.676 8.95068 150.936 8.10095L150.938 8.10095Z" fill="#1A1A1A" fill-opacity="1.000000" fill-rule="evenodd"/>
			<path id="Vector" d="M168.985 8.62378C168.237 8.68201 167.503 8.81641 166.805 9.02332L166.755 9.03552C167 8.76306 167.24 8.49048 167.476 8.21802C169.619 6.39465 165.108 4.23755 162.372 3.79504C161.387 4.43201 159.869 4.13037 159.091 4.57739C159.762 5.11938 160.177 6.05627 160.85 6.59827C153.169 5.82056 156.668 7.66992 152.981 8.0282C153.23 7.90271 153.455 7.75403 153.652 7.58569C154.886 6.53699 154.704 5.39185 157.394 5.69812L158.892 5.86804C158.627 5.59448 158.36 5.32141 158.091 5.04895C157.485 4.41602 156.572 3.98291 155.545 3.84094C155.786 3.73621 156.051 3.66602 156.326 3.63428C156.589 3.60474 156.854 3.58887 157.121 3.58691C158.317 3.56543 159.459 3.63586 160.412 3.06323L160.766 2.84741C160.695 2.75244 160.624 2.65906 160.56 2.56567C160.4 2.35608 160.333 2.11462 160.368 1.87524C161.603 2.57178 163.31 3.04028 164.772 3.4292C165.931 3.73535 167.146 4.0415 168.245 4.42273C169.02 4.69531 169.89 5.07349 170.302 5.59094C171.048 6.55542 169.895 7.8092 168.985 8.62378Z" fill="#4386BB" fill-opacity="1.000000" fill-rule="evenodd"/>
			<path id="Vector" d="M167.906 8.75061C167.517 8.82678 167.133 8.91785 166.756 9.02332L166.707 9.03564C166.95 8.76147 167.189 8.48718 167.424 8.21289C169.56 6.37781 165.065 4.20691 162.339 3.7616C161.357 4.40259 159.844 4.09912 159.069 4.54895C159.737 5.09436 160.151 6.03735 160.822 6.58276C153.168 5.80005 156.655 7.66138 152.981 8.02185C154.894 7.64746 154.859 6.29468 155.945 5.9696C157.032 5.64441 158.467 6.39331 159.561 6.06812C159.446 5.44104 158.928 4.93103 158.173 4.15295C159.221 3.67688 161.863 4.10217 161.314 2.72778C163.665 4.67688 171.239 3.86951 168.365 8.58264L167.906 8.75061Z" fill="#283A84" fill-opacity="1.000000" fill-rule="evenodd"/>
			<path id="Vector" d="M163.722 10.4847C163.722 11.7559 165.287 12.7863 167.217 12.7863C169.147 12.7863 170.712 11.7559 170.712 10.4847C170.712 9.21362 169.147 8.18323 167.217 8.18323C165.287 8.18323 163.722 9.21362 163.722 10.4847Z" fill="#CDCCCC" fill-opacity="1.000000" fill-rule="evenodd"/>
			<path id="Vector" d="M167.201 10.5701C162.82 10.5701 159.076 12.3073 157.578 14.7577C156.774 15.016 156.221 15.548 156.221 16.1567C156.225 16.3591 156.286 16.5586 156.4 16.7422C156.514 16.9258 156.679 17.0892 156.883 17.222C156.957 20.8055 161.548 23.6973 167.201 23.6973C172.854 23.6973 177.429 20.8118 177.516 17.2374C177.729 17.1041 177.902 16.9381 178.022 16.7506C178.143 16.5631 178.208 16.3585 178.213 16.1505C178.213 15.5356 177.641 14.9929 176.818 14.7393C175.314 12.2949 171.577 10.5701 167.201 10.5701Z" fill="#8B8A8A" fill-opacity="1.000000" fill-rule="evenodd"/>
			<path id="Vector" d="M168.836 20.2875C164.984 20.2875 161.847 18.3005 161.847 15.855C161.847 13.4094 164.99 11.4224 168.836 11.4224C172.683 11.4224 175.826 13.4094 175.826 15.855C175.826 18.3005 172.691 20.2875 168.836 20.2875Z" fill="#989898" fill-opacity="1.000000" fill-rule="evenodd"/>
			<path id="Vector" d="M170.968 15.3435C169.512 15.3435 168.325 14.5771 168.325 13.6387C168.325 12.7002 169.512 11.9338 170.968 11.9338C172.424 11.9338 173.61 12.6986 173.61 13.6387C173.61 14.5787 172.412 15.3435 170.968 15.3435Z" fill="#ACACAC" fill-opacity="1.000000" fill-rule="evenodd"/>
			<path id="Vector" d="M167.132 14.3207L167.231 14.3207C168.625 14.3153 170.009 14.5037 171.314 14.8763L178.895 17.0291L178.895 23.4435C175.578 26.3792 171.71 28.6781 167.132 30.1755L167.132 14.3207Z" fill="#CDCCCC" fill-opacity="1.000000" fill-rule="evenodd"/>
			<path id="Vector" d="M168.837 15.3435C169.441 15.4199 170.034 15.5428 170.606 15.7104L172.06 16.1289L172.06 26.864C171.034 27.4553 169.958 27.9921 168.839 28.4707L168.839 15.3435L168.837 15.3435ZM172.742 16.3257L175.002 16.9768L175.002 24.9403C174.288 25.4664 173.535 25.9756 172.742 26.4596L172.742 16.3257ZM175.683 17.172L177.19 17.6061L177.19 23.1743C176.708 23.599 176.205 24.0154 175.683 24.4235L175.683 17.172Z" fill="#333333" fill-opacity="1.000000" fill-rule="evenodd"/>
			<path id="Vector" d="M167.132 14.3207L167.032 14.3207C165.642 14.3162 164.262 14.5045 162.959 14.8763L155.369 17.0275L155.369 23.4419C158.688 26.3792 162.556 28.6781 167.132 30.1755L167.132 14.3207Z" fill="#B4B4B4" fill-opacity="1.000000" fill-rule="evenodd"/>
			<path id="Vector" d="M165.427 15.3435C164.811 15.4202 164.206 15.5431 163.621 15.7104L162.138 16.1289L162.138 26.864C163.185 27.455 164.283 27.9917 165.425 28.4707L165.425 15.3435L165.427 15.3435ZM161.441 16.3257L159.136 16.9768L159.136 24.9403C159.863 25.4664 160.631 25.9756 161.441 26.4596L161.441 16.3257ZM158.439 17.172L156.902 17.6061L156.902 23.1743C157.395 23.599 157.907 24.0154 158.439 24.4235L158.439 17.172Z" fill="#1A1A1A" fill-opacity="1.000000" fill-rule="evenodd"/>
			<path id="Vector" d="M168.099 8.6947C167.444 8.6947 167.131 9.00073 167.397 9.37659C167.565 9.57739 167.808 9.74548 168.1 9.86487C168.392 9.98425 168.724 10.051 169.065 10.0586C169.717 10.0586 170.031 9.75391 169.765 9.37659C169.596 9.17627 169.354 9.00842 169.062 8.88904C168.771 8.76965 168.439 8.70276 168.099 8.6947Z" fill="#E3E3E3" fill-opacity="1.000000" fill-rule="evenodd"/>
		</g>
	</g>
	<rect id="sword_red" width="28.994165" height="52.065723" transform="matrix(-1 0 0 1 151.97 0)" fill="#FFFFFF" fill-opacity="0"/>
	<g clip-path="url(#clip108_4800)">
		<g filter="url(#filter_108_4802_dd)">
			<path id="Vector" d="M151.573 47.4634L151.436 47.5341C151.281 47.6171 151.109 47.6624 150.934 47.6663C150.758 47.67 150.584 47.6323 150.425 47.556C150.265 47.4845 150.124 47.3762 150.013 47.2399C149.902 47.1035 149.826 46.9431 149.789 46.7715C149.475 45.4 148.847 43.7242 147.954 41.9935C147.061 40.2627 146.059 38.7815 145.129 37.7318C145.013 37.601 144.928 37.4453 144.881 37.2766C144.834 37.108 144.826 36.9308 144.858 36.7587C144.89 36.5865 144.961 36.424 145.065 36.2834C145.17 36.1428 145.305 36.028 145.46 35.9476L145.599 35.8771L145.031 34.7787L142.363 36.1532L139.695 37.5262L140.263 38.6246L140.4 38.554C140.556 38.4722 140.729 38.4275 140.905 38.4233C141.082 38.4192 141.257 38.4558 141.417 38.5302C141.577 38.6045 141.717 38.7146 141.828 38.8522C141.938 38.9896 142.016 39.1506 142.054 39.3229C142.368 40.6927 142.995 42.3701 143.888 44.0992C144.781 45.8284 145.784 47.3113 146.713 48.361C146.829 48.4919 146.914 48.6477 146.961 48.8165C147.008 48.9852 147.016 49.1625 146.984 49.3347C146.952 49.5071 146.881 49.6697 146.777 49.8104C146.672 49.9512 146.537 50.0662 146.382 50.1466L146.244 50.2173L146.812 51.3156L149.479 49.9426L152.141 48.5634L151.573 47.4634Z" fill="#4592CF" fill-opacity="1.000000" fill-rule="evenodd"/>
			<path id="Vector" d="M144.782 38.3795C144.342 38.6091 144.954 40.6956 146.149 43.0369C147.345 45.3782 148.671 47.092 149.103 46.8624C149.535 46.6329 148.932 44.5464 147.736 42.2051C146.541 39.8638 145.222 38.1499 144.782 38.3795Z" fill="#283A84" fill-opacity="1.000000" fill-rule="evenodd"/>
			<path id="Vector" d="M125.375 3.40967L126.805 11.4889L140.142 37.3359L144.469 35.1028L131.132 9.25574L125.375 3.40967Z" fill="#D1D2D2" fill-opacity="1.000000" fill-rule="evenodd"/>
			<path id="Vector" d="M129.691 7.7738L127.42 6.29504L128.219 11.1149L140.207 37.3359L126.811 11.4889L125.375 3.40967L129.691 7.7738Z" fill="#E6E6E5" fill-opacity="1.000000" fill-rule="evenodd"/>
			<path id="Vector" d="M129.126 10.7405L135.428 23.6112L141.731 36.4835L142.419 36.1334L143.105 35.7833L136.116 23.2627L129.126 10.7405Z" fill="#818181" fill-opacity="1.000000" fill-rule="evenodd"/>
			<path id="Vector" d="M145.788 33.5505L138.159 37.509C137.767 37.2252 137.291 37.0824 136.808 37.1038C136.325 37.1251 135.863 37.3093 135.498 37.6268C135.132 37.9443 134.883 38.3765 134.791 38.8536C134.699 39.3308 134.77 39.8252 134.991 40.257C135.213 40.6888 135.573 41.033 136.013 41.234C136.453 41.4349 136.948 41.4811 137.417 41.3647C137.886 41.2485 138.303 40.9768 138.6 40.5933C138.896 40.2097 139.056 39.7368 139.053 39.2509L146.682 35.2922C147.074 35.577 147.551 35.7203 148.035 35.6992C148.519 35.6781 148.981 35.4937 149.348 35.1758C149.714 34.8579 149.964 34.425 150.056 33.9471C150.148 33.4691 150.077 32.9739 149.855 32.5413C149.633 32.1088 149.272 31.764 148.832 31.5627C148.391 31.3615 147.896 31.3154 147.425 31.4321C146.955 31.5487 146.538 31.8212 146.241 32.2056C145.944 32.5898 145.784 33.0637 145.788 33.5505Z" fill="#333333" fill-opacity="1.000000" fill-rule="evenodd"/>
		</g>
	</g>
	<g filter="url(#filter_108_4809_dd)">
		<path id="Guccio Gucci S.p.A." d="M139.466 77.566L138.59 77.878C138.454 77.494 138.254 77.15 137.99 76.846C137.79 76.638 137.598 76.47 137.414 76.342C136.918 75.998 136.306 75.826 135.578 75.826C134.906 75.826 134.314 75.99 133.802 76.318C133.266 76.654 132.858 77.094 132.578 77.638C132.29 78.182 132.146 78.774 132.146 79.414C132.146 80.422 132.45 81.274 133.058 81.97C133.69 82.682 134.534 83.038 135.59 83.038C136.39 83.038 137.086 82.81 137.678 82.354C138.294 81.882 138.626 81.238 138.674 80.422L135.026 80.422L135.026 79.57L139.658 79.57L139.658 79.906C139.658 81.026 139.298 81.966 138.578 82.726C137.826 83.502 136.826 83.89 135.578 83.89C134.25 83.89 133.186 83.466 132.386 82.618C131.594 81.778 131.198 80.726 131.198 79.462C131.198 78.63 131.39 77.87 131.774 77.182C132.158 76.494 132.686 75.954 133.358 75.562C134.022 75.17 134.77 74.974 135.602 74.974C136.658 74.974 137.514 75.238 138.17 75.766C138.786 76.246 139.218 76.846 139.466 77.566ZM141.084 77.842L141.948 77.842L141.948 81.31C141.948 81.87 142.092 82.31 142.38 82.63C142.652 82.958 143.06 83.122 143.604 83.122C144.116 83.122 144.54 82.942 144.876 82.582C145.212 82.222 145.38 81.774 145.38 81.238L145.38 77.842L146.244 77.842L146.244 83.806L145.392 83.806L145.392 82.714C144.912 83.522 144.228 83.926 143.34 83.926C142.644 83.926 142.088 83.706 141.672 83.266C141.28 82.826 141.084 82.246 141.084 81.526L141.084 77.842ZM148.667 80.794C148.667 81.69 149.003 82.358 149.675 82.798C150.003 83.022 150.387 83.134 150.827 83.134C151.307 83.134 151.715 83.01 152.051 82.762C152.171 82.674 152.295 82.554 152.423 82.402C152.599 82.17 152.731 81.938 152.819 81.706L153.623 81.97C153.487 82.45 153.183 82.882 152.711 83.266C152.199 83.698 151.567 83.914 150.815 83.914C149.959 83.93 149.235 83.642 148.643 83.05C148.059 82.458 147.771 81.722 147.779 80.842C147.779 80.266 147.919 79.734 148.199 79.246C148.479 78.766 148.851 78.394 149.315 78.13C149.779 77.866 150.291 77.734 150.851 77.734C151.523 77.734 152.115 77.918 152.627 78.286C153.147 78.678 153.467 79.13 153.587 79.642L152.795 79.906C152.707 79.586 152.491 79.274 152.147 78.97C151.811 78.666 151.371 78.514 150.827 78.514C150.203 78.514 149.687 78.734 149.279 79.174C148.871 79.622 148.667 80.162 148.667 80.794ZM155.534 80.794C155.534 81.69 155.87 82.358 156.542 82.798C156.87 83.022 157.254 83.134 157.694 83.134C158.174 83.134 158.582 83.01 158.918 82.762C159.038 82.674 159.162 82.554 159.29 82.402C159.466 82.17 159.598 81.938 159.686 81.706L160.49 81.97C160.354 82.45 160.05 82.882 159.578 83.266C159.066 83.698 158.434 83.914 157.682 83.914C156.826 83.93 156.102 83.642 155.51 83.05C154.926 82.458 154.638 81.722 154.646 80.842C154.646 80.266 154.786 79.734 155.066 79.246C155.346 78.766 155.718 78.394 156.182 78.13C156.646 77.866 157.158 77.734 157.718 77.734C158.39 77.734 158.982 77.918 159.494 78.286C160.014 78.678 160.334 79.13 160.454 79.642L159.662 79.906C159.574 79.586 159.358 79.274 159.014 78.97C158.678 78.666 158.238 78.514 157.694 78.514C157.07 78.514 156.554 78.734 156.146 79.174C155.738 79.622 155.534 80.162 155.534 80.794ZM161.921 76.174C161.793 76.03 161.729 75.874 161.729 75.706C161.729 75.538 161.793 75.382 161.921 75.238C162.049 75.11 162.205 75.046 162.389 75.046C162.565 75.046 162.717 75.11 162.845 75.238C162.973 75.366 163.037 75.522 163.037 75.706C163.037 75.89 162.973 76.046 162.845 76.174C162.717 76.302 162.565 76.366 162.389 76.366C162.205 76.366 162.049 76.302 161.921 76.174ZM161.945 83.806L161.945 77.842L162.821 77.842L162.821 83.806L161.945 83.806ZM167.421 83.914C166.869 83.914 166.353 83.778 165.873 83.506C165.401 83.226 165.033 82.854 164.769 82.39C164.497 81.926 164.361 81.41 164.361 80.842C164.361 79.954 164.657 79.218 165.249 78.634C165.841 78.034 166.573 77.734 167.445 77.734C168.293 77.718 169.021 78.018 169.629 78.634C170.245 79.242 170.545 79.966 170.529 80.806C170.545 81.67 170.245 82.41 169.629 83.026C169.013 83.634 168.277 83.93 167.421 83.914ZM167.445 83.134C168.069 83.134 168.593 82.91 169.017 82.462C169.425 82.014 169.629 81.474 169.629 80.842C169.629 80.202 169.421 79.65 169.005 79.186C168.581 78.73 168.053 78.502 167.421 78.502C166.789 78.502 166.269 78.726 165.861 79.174C165.453 79.622 165.249 80.166 165.249 80.806C165.233 81.438 165.437 81.986 165.861 82.45C166.293 82.914 166.821 83.142 167.445 83.134ZM183.059 77.566L182.183 77.878C182.047 77.494 181.847 77.15 181.583 76.846C181.383 76.638 181.191 76.47 181.007 76.342C180.511 75.998 179.899 75.826 179.171 75.826C178.499 75.826 177.907 75.99 177.395 76.318C176.859 76.654 176.451 77.094 176.171 77.638C175.883 78.182 175.739 78.774 175.739 79.414C175.739 80.422 176.043 81.274 176.651 81.97C177.283 82.682 178.127 83.038 179.183 83.038C179.983 83.038 180.679 82.81 181.271 82.354C181.887 81.882 182.219 81.238 182.267 80.422L178.619 80.422L178.619 79.57L183.251 79.57L183.251 79.906C183.251 81.026 182.891 81.966 182.171 82.726C181.419 83.502 180.419 83.89 179.171 83.89C177.843 83.89 176.779 83.466 175.979 82.618C175.187 81.778 174.791 80.726 174.791 79.462C174.791 78.63 174.983 77.87 175.367 77.182C175.751 76.494 176.279 75.954 176.951 75.562C177.615 75.17 178.363 74.974 179.195 74.974C180.251 74.974 181.107 75.238 181.763 75.766C182.379 76.246 182.811 76.846 183.059 77.566ZM184.678 77.842L185.542 77.842L185.542 81.31C185.542 81.87 185.686 82.31 185.974 82.63C186.246 82.958 186.654 83.122 187.198 83.122C187.71 83.122 188.134 82.942 188.47 82.582C188.806 82.222 188.974 81.774 188.974 81.238L188.974 77.842L189.838 77.842L189.838 83.806L188.986 83.806L188.986 82.714C188.506 83.522 187.822 83.926 186.934 83.926C186.238 83.926 185.682 83.706 185.266 83.266C184.874 82.826 184.678 82.246 184.678 81.526L184.678 77.842ZM192.26 80.794C192.26 81.69 192.596 82.358 193.268 82.798C193.596 83.022 193.98 83.134 194.42 83.134C194.9 83.134 195.308 83.01 195.644 82.762C195.764 82.674 195.888 82.554 196.016 82.402C196.192 82.17 196.324 81.938 196.412 81.706L197.216 81.97C197.08 82.45 196.776 82.882 196.304 83.266C195.792 83.698 195.16 83.914 194.408 83.914C193.552 83.93 192.828 83.642 192.236 83.05C191.652 82.458 191.364 81.722 191.372 80.842C191.372 80.266 191.512 79.734 191.792 79.246C192.072 78.766 192.444 78.394 192.908 78.13C193.372 77.866 193.884 77.734 194.444 77.734C195.116 77.734 195.708 77.918 196.22 78.286C196.74 78.678 197.06 79.13 197.18 79.642L196.388 79.906C196.3 79.586 196.084 79.274 195.74 78.97C195.404 78.666 194.964 78.514 194.42 78.514C193.796 78.514 193.28 78.734 192.872 79.174C192.464 79.622 192.26 80.162 192.26 80.794ZM199.128 80.794C199.128 81.69 199.464 82.358 200.135 82.798C200.464 83.022 200.848 83.134 201.288 83.134C201.768 83.134 202.176 83.01 202.512 82.762C202.632 82.674 202.755 82.554 202.883 82.402C203.06 82.17 203.191 81.938 203.28 81.706L204.083 81.97C203.948 82.45 203.643 82.882 203.172 83.266C202.66 83.698 202.027 83.914 201.275 83.914C200.419 83.93 199.695 83.642 199.104 83.05C198.52 82.458 198.232 81.722 198.24 80.842C198.24 80.266 198.38 79.734 198.66 79.246C198.939 78.766 199.311 78.394 199.775 78.13C200.24 77.866 200.751 77.734 201.311 77.734C201.983 77.734 202.576 77.918 203.087 78.286C203.607 78.678 203.927 79.13 204.048 79.642L203.255 79.906C203.168 79.586 202.952 79.274 202.607 78.97C202.271 78.666 201.831 78.514 201.288 78.514C200.663 78.514 200.147 78.734 199.74 79.174C199.331 79.622 199.128 80.162 199.128 80.794ZM205.515 76.174C205.387 76.03 205.323 75.874 205.323 75.706C205.323 75.538 205.387 75.382 205.515 75.238C205.643 75.11 205.799 75.046 205.983 75.046C206.159 75.046 206.311 75.11 206.439 75.238C206.567 75.366 206.631 75.522 206.631 75.706C206.631 75.89 206.567 76.046 206.439 76.174C206.311 76.302 206.159 76.366 205.983 76.366C205.799 76.366 205.643 76.302 205.515 76.174ZM205.539 83.806L205.539 77.842L206.415 77.842L206.415 83.806L205.539 83.806ZM156.294 96.89C155.446 96.89 154.734 96.634 154.158 96.122C153.598 95.634 153.278 95.066 153.198 94.418L154.062 94.178C154.158 94.69 154.422 95.126 154.854 95.486C155.278 95.846 155.758 96.026 156.294 96.026C156.83 96.026 157.278 95.898 157.638 95.642C158.046 95.362 158.25 94.958 158.25 94.43C158.25 93.886 158.006 93.47 157.518 93.182C157.294 93.046 157.018 92.946 156.69 92.882L155.538 92.654C155.306 92.606 155.05 92.522 154.77 92.402C154.482 92.266 154.242 92.102 154.05 91.91C153.642 91.51 153.438 91.006 153.438 90.398C153.438 89.918 153.57 89.49 153.834 89.114C154.09 88.746 154.43 88.458 154.854 88.25C155.27 88.058 155.722 87.962 156.21 87.962C157.066 87.962 157.734 88.174 158.214 88.598C158.702 89.022 158.998 89.51 159.102 90.062L158.262 90.326C158.174 89.934 157.958 89.586 157.614 89.282C157.278 88.97 156.806 88.814 156.198 88.814C155.718 88.798 155.29 88.942 154.914 89.246C154.538 89.55 154.354 89.922 154.362 90.362C154.362 90.706 154.47 91.002 154.686 91.25C154.902 91.498 155.218 91.662 155.634 91.742L156.738 91.958C157.498 92.102 158.066 92.358 158.442 92.726C158.698 92.958 158.89 93.226 159.018 93.53C159.138 93.826 159.198 94.094 159.198 94.334C159.206 95.094 158.93 95.714 158.37 96.194C157.81 96.674 157.118 96.906 156.294 96.89ZM160.814 96.674C160.654 96.498 160.574 96.306 160.574 96.098C160.574 95.882 160.654 95.694 160.814 95.534C160.966 95.382 161.154 95.306 161.378 95.306C161.602 95.306 161.79 95.382 161.942 95.534C162.102 95.694 162.182 95.882 162.182 96.098C162.182 96.306 162.102 96.498 161.942 96.674C161.79 96.826 161.602 96.902 161.378 96.902C161.154 96.902 160.966 96.826 160.814 96.674ZM169.896 93.818C169.896 94.362 169.78 94.866 169.548 95.33C169.316 95.794 168.988 96.17 168.564 96.458C168.132 96.746 167.64 96.89 167.088 96.89C166.112 96.89 165.348 96.454 164.796 95.582L164.796 99.746L163.92 99.746L163.92 90.842L164.772 90.842L164.772 92.138C165.388 91.202 166.16 90.734 167.088 90.734C167.936 90.734 168.62 91.054 169.14 91.694C169.644 92.318 169.896 93.026 169.896 93.818ZM166.92 96.134C167.544 96.134 168.052 95.914 168.444 95.474C168.82 95.026 169.008 94.482 169.008 93.842C169.008 92.938 168.684 92.27 168.036 91.838C167.724 91.622 167.352 91.514 166.92 91.514C166.328 91.506 165.82 91.734 165.396 92.198C164.972 92.662 164.768 93.198 164.784 93.806C164.784 94.446 164.984 94.99 165.384 95.438C165.792 95.902 166.304 96.134 166.92 96.134ZM171.443 96.674C171.283 96.498 171.203 96.306 171.203 96.098C171.203 95.882 171.283 95.694 171.443 95.534C171.595 95.382 171.783 95.306 172.007 95.306C172.231 95.306 172.419 95.382 172.571 95.534C172.731 95.694 172.811 95.882 172.811 96.098C172.811 96.306 172.731 96.498 172.571 96.674C172.419 96.826 172.231 96.902 172.007 96.902C171.783 96.902 171.595 96.826 171.443 96.674ZM181.22 96.806L180.26 94.574L175.496 94.574L174.536 96.806L173.6 96.806L177.368 88.058L178.412 88.058L182.192 96.806L181.22 96.806ZM179.912 93.734L177.872 89.006L175.844 93.734L179.912 93.734ZM183.221 96.674C183.061 96.498 182.981 96.306 182.981 96.098C182.981 95.882 183.061 95.694 183.221 95.534C183.373 95.382 183.561 95.306 183.785 95.306C184.009 95.306 184.197 95.382 184.349 95.534C184.509 95.694 184.589 95.882 184.589 96.098C184.589 96.306 184.509 96.498 184.349 96.674C184.197 96.826 184.009 96.902 183.785 96.902C183.561 96.902 183.373 96.826 183.221 96.674Z" fill="#FFFFFF" fill-opacity="1.000000" fill-rule="evenodd"/>
	</g>
	<g filter="url(#filter_108_4811_dd)">
		<path id="Vector 1" d="M90.4902 53.5695L85.9795 31.344L125.575 31.344L121.398 53.5695L105.276 60.7822L90.4902 53.5695Z" fill="url(#paint_radial_108_4811_0)" fill-opacity="1.000000" fill-rule="nonzero"/>
	</g>
	<path id="Vector 1" d="M83.5327 29.344L88.7266 54.9343L89.6133 55.3669L105.239 62.9896L123.17 54.9677L127.986 29.344L83.5327 29.344ZM90.4902 53.5695L85.9795 31.344L125.575 31.344L125.199 33.344L121.398 53.5695L105.276 60.7822L90.4902 53.5695Z" fill="url(#paint_linear_108_4811_1)" fill-opacity="1.000000" fill-rule="evenodd"/>
	<path id="Vector 2" d="M93.0352 52.3403L89.25 33.7542L122.476 33.7542L118.971 52.3403L105.442 58.3721L93.0352 52.3403Z" fill="url(#paint_radial_108_4812_0)" fill-opacity="1.000000" fill-rule="nonzero"/>
	<path id="Vector 2" d="M86.8018 31.7542L91.2725 53.7073L92.1606 54.139L105.406 60.5781L120.742 53.7405L124.888 31.7542L86.8018 31.7542ZM93.0352 52.3403L89.6572 35.7542L89.25 33.7542L122.476 33.7542L122.099 35.7542L118.971 52.3403L105.442 58.3721L93.0352 52.3403Z" fill="url(#paint_linear_108_4812_1)" fill-opacity="1.000000" fill-rule="evenodd"/>
	<g filter="url(#filter_108_4813_dd)">
		<path id="Vector" d="M112.487 41.6871C112.924 41.8347 113.37 41.9821 113.824 42.1296C114.279 42.2773 114.683 42.4191 115.037 42.5549C115.893 42.8854 116.544 43.3416 116.989 43.9229C117.435 44.504 117.658 45.2256 117.658 46.0875C117.658 46.6304 117.531 47.1559 117.277 47.6636C117.023 48.171 116.681 48.593 116.25 48.9294C115.778 49.3014 115.232 49.5876 114.612 49.7882C113.992 49.9888 113.27 50.0895 112.443 50.0895C111.675 50.0895 110.96 49.9937 110.296 49.8021C109.632 49.6106 109.07 49.385 108.609 49.1255L107.999 49.7448L107.246 49.7448L107.131 45.2085L107.892 45.2085C108.063 45.64 108.282 46.0947 108.547 46.5732C108.813 47.0518 109.12 47.4801 109.468 47.8583C109.828 48.2543 110.231 48.576 110.676 48.8243C111.122 49.0723 111.643 49.1962 112.239 49.1962C113.042 49.1962 113.657 49.0005 114.085 48.608C114.513 48.2156 114.728 47.7214 114.728 47.1256C114.728 46.636 114.546 46.2244 114.183 45.8911C113.82 45.5577 113.258 45.2698 112.496 45.0271C112 44.8672 111.544 44.7192 111.128 44.583C110.712 44.4469 110.321 44.3076 109.955 44.1655C109.111 43.8291 108.484 43.3481 108.074 42.7224C107.664 42.0969 107.458 41.3977 107.458 40.6243C107.458 40.1343 107.564 39.6638 107.777 39.2122C107.989 38.7607 108.299 38.3547 108.707 37.995C109.096 37.6586 109.595 37.3842 110.203 37.1714C110.811 36.959 111.472 36.8528 112.187 36.8528C112.883 36.8528 113.535 36.95 114.143 37.1447C114.75 37.3392 115.229 37.5336 115.577 37.7283L116.117 37.1975L116.888 37.1975L116.958 41.4771L116.197 41.4771C116.02 41.0164 115.812 40.5452 115.573 40.0636C115.334 39.5819 115.081 39.1819 114.816 38.8625C114.526 38.5198 114.193 38.2468 113.815 38.0427C113.438 37.839 112.995 37.7369 112.487 37.7369C111.85 37.7369 111.329 37.9174 110.924 38.2775C110.52 38.6376 110.318 39.0833 110.318 39.6147C110.318 40.1165 110.494 40.5267 110.845 40.8457C111.196 41.1647 111.744 41.4451 112.487 41.6871ZM105.82 38.2587C105.566 38.4062 105.37 38.5637 105.231 38.7319C105.093 38.8998 104.956 39.1313 104.82 39.4259C104.637 39.8326 104.38 40.4264 104.05 41.2075C103.719 41.9886 103.341 42.8773 102.917 43.8733C102.539 44.7694 102.13 45.7511 101.69 46.8177C101.25 47.8848 100.83 48.9076 100.428 49.8861L98.6484 49.8861C97.8223 47.8643 96.981 45.8099 96.1255 43.7233C95.2695 41.6362 94.6675 40.1862 94.3193 39.3727C94.1836 39.078 94.0522 38.8555 93.9253 38.7051C93.7983 38.5549 93.5962 38.4004 93.3188 38.2408C93.1177 38.1292 92.9409 38.051 92.7876 38.0068C92.6343 37.9626 92.4307 37.9226 92.1768 37.8875L92.1768 37.1975L98.9854 37.1975L98.9854 37.8696C98.3481 37.9463 97.916 38.0273 97.689 38.1127C97.4619 38.1984 97.3481 38.306 97.3481 38.4355C97.3481 38.5006 97.3584 38.5696 97.3794 38.6434C97.3999 38.7173 97.4312 38.8158 97.4727 38.9395C97.6611 39.4576 98.0034 40.3042 98.499 41.4791C98.9946 42.6538 99.7295 44.4456 100.703 46.854C101.299 45.3878 101.794 44.1484 102.19 43.1357C102.585 42.123 102.933 41.2281 103.234 40.4508C103.382 40.074 103.504 39.7219 103.602 39.3949C103.699 39.068 103.748 38.8218 103.748 38.6567C103.748 38.4679 103.612 38.3105 103.341 38.1835C103.069 38.057 102.568 37.964 101.836 37.9052L101.836 37.1975L106.927 37.1975L106.927 37.9052C106.732 37.9226 106.546 37.9581 106.369 38.011C106.192 38.0643 106.009 38.1469 105.82 38.2587Z" fill="url(#paint_linear_108_4813_0)" fill-opacity="1.000000" fill-rule="nonzero"/>
	</g>
	<path id="Vector" d="M108.609 49.1255C109.07 49.385 109.632 49.6106 110.296 49.8021C110.373 49.8245 110.451 49.8455 110.53 49.8651C111.127 50.0146 111.765 50.0895 112.443 50.0895C112.833 50.0895 113.2 50.067 113.544 50.0222C113.929 49.9722 114.285 49.8942 114.612 49.7882C115.232 49.5876 115.778 49.3014 116.25 48.9294C116.681 48.593 117.023 48.171 117.277 47.6636C117.531 47.1559 117.658 46.6304 117.658 46.0875Q117.658 44.96 117.149 44.1526Q117.075 44.0343 116.989 43.9229C116.544 43.3416 115.893 42.8854 115.037 42.5549C114.683 42.4191 114.279 42.2773 113.824 42.1296C113.37 41.9821 112.924 41.8347 112.487 41.6871C111.744 41.4451 111.196 41.1647 110.845 40.8457C110.494 40.5267 110.318 40.1165 110.318 39.6147C110.318 39.0833 110.52 38.6376 110.924 38.2775C111.118 38.1049 111.339 37.9735 111.586 37.8835C111.855 37.7859 112.155 37.7369 112.487 37.7369C112.995 37.7369 113.438 37.839 113.815 38.0427C113.877 38.0764 113.939 38.1121 113.999 38.1495C114.302 38.339 114.574 38.5764 114.816 38.8625C115.081 39.1819 115.334 39.5819 115.573 40.0636Q115.775 40.4716 115.948 40.8695Q116.082 41.1763 116.197 41.4771L116.958 41.4771L116.954 41.1863L116.945 40.6569L116.942 40.4771L116.888 37.1975L116.117 37.1975L116.104 37.2104L115.891 37.4198L115.577 37.7283C115.284 37.5646 114.899 37.401 114.423 37.2374C114.333 37.2064 114.239 37.1755 114.143 37.1447C113.535 36.95 112.883 36.8528 112.187 36.8528Q111.758 36.8528 111.356 36.9036Q110.75 36.98 110.203 37.1714C109.595 37.3842 109.096 37.6586 108.707 37.995C108.299 38.3547 107.989 38.7607 107.777 39.2122C107.564 39.6638 107.458 40.1343 107.458 40.6243C107.458 41.3977 107.664 42.0969 108.074 42.7224C108.484 43.3481 109.111 43.8291 109.955 44.1655C110.321 44.3076 110.712 44.4469 111.128 44.583C111.544 44.7192 112 44.8672 112.496 45.0271C113.258 45.2698 113.82 45.5577 114.183 45.8911C114.546 46.2244 114.728 46.636 114.728 47.1256C114.728 47.7214 114.513 48.2156 114.085 48.608C113.877 48.7992 113.624 48.9437 113.327 49.0416C113.013 49.1448 112.651 49.1962 112.239 49.1962Q111.461 49.1962 110.854 48.9149Q110.764 48.8728 110.676 48.8243C110.231 48.576 109.828 48.2543 109.468 47.8583C109.12 47.4801 108.813 47.0518 108.547 46.5732C108.399 46.3058 108.265 46.0457 108.146 45.7928C108.052 45.5935 107.968 45.3987 107.892 45.2085L107.131 45.2085L107.139 45.5076L107.151 46.0237L107.156 46.2085L107.246 49.7448L107.999 49.7448L108.018 49.7251L108.24 49.4999L108.609 49.1255ZM108.205 48.1117L108.298 48.0172Q108.248 47.9517 108.199 47.8845L108.205 48.1117ZM115.534 48.2177Q115.585 48.1803 115.635 48.1414Q115.748 48.0531 115.85 47.9535Q116.17 47.6406 116.383 47.2164Q116.6 46.7825 116.646 46.3311Q116.658 46.2098 116.658 46.0875Q116.658 45.1394 116.201 44.5383Q116.199 44.5348 116.196 44.5312Q115.698 43.882 114.679 43.4885Q114.174 43.2949 113.515 43.0807L113.51 43.079L112.178 42.6381Q110.858 42.2085 110.172 41.5859Q109.873 41.3135 109.676 40.9801Q109.594 40.8416 109.53 40.6924Q109.519 40.6646 109.507 40.6365Q109.318 40.1635 109.318 39.6147Q109.318 39.1296 109.468 38.6967Q109.476 38.6736 109.484 38.6508Q109.424 38.6967 109.369 38.7445Q108.913 39.1472 108.682 39.6376Q108.537 39.9468 108.486 40.2708Q108.458 40.4453 108.458 40.6243Q108.458 41.1722 108.641 41.6503Q108.746 41.9237 108.91 42.1743Q109.352 42.8489 110.317 43.2334Q110.841 43.437 111.437 43.632L112.8 44.0743Q114.152 44.5052 114.859 45.1544Q115.215 45.4814 115.428 45.8842Q115.47 45.9636 115.506 46.046Q115.549 46.1434 115.583 46.2438Q115.728 46.6598 115.728 47.1256Q115.728 47.7086 115.534 48.2177ZM97.4727 38.9395C97.4312 38.8158 97.3999 38.7173 97.3794 38.6434C97.3584 38.5696 97.3481 38.5006 97.3481 38.4355C97.3481 38.3457 97.4028 38.2664 97.5122 38.1975C97.5605 38.1672 97.6196 38.1389 97.689 38.1127C97.916 38.0273 98.3481 37.9463 98.9854 37.8696L98.9854 37.1975L97.9854 37.1975L97.2837 37.1975L93.1768 37.1975L92.2725 37.1975L92.1768 37.1975L92.1768 37.8875C92.4307 37.9226 92.6343 37.9626 92.7876 38.0068C92.9204 38.0452 93.0708 38.1086 93.2388 38.1975C93.2651 38.2114 93.2915 38.2258 93.3188 38.2408C93.5962 38.4004 93.7983 38.5549 93.9253 38.7051C94.0522 38.8555 94.1836 39.078 94.3193 39.3727C94.6675 40.1862 95.2695 41.6362 96.1255 43.7233Q97.4092 46.8533 98.6484 49.8861L100.428 49.8861C100.5 49.71 100.574 49.5325 100.647 49.3535C100.982 48.538 101.33 47.6927 101.69 46.8177C102.13 45.7511 102.539 44.7694 102.917 43.8733C103.163 43.2966 103.393 42.7559 103.607 42.2512C103.763 41.8843 103.911 41.5364 104.05 41.2075C104.38 40.4264 104.637 39.8326 104.82 39.4259C104.956 39.1313 105.093 38.8998 105.231 38.7319C105.37 38.5637 105.566 38.4062 105.82 38.2587C105.856 38.2372 105.893 38.2168 105.928 38.1975C106.079 38.1162 106.226 38.0541 106.369 38.011C106.546 37.9581 106.732 37.9226 106.927 37.9052L106.927 37.1975L105.927 37.1975L105.697 37.1975L102.836 37.1975L101.893 37.1975L101.836 37.1975L101.836 37.9052C102.568 37.964 103.069 38.057 103.341 38.1835C103.351 38.1881 103.36 38.1927 103.37 38.1975C103.622 38.3221 103.748 38.4749 103.748 38.6567C103.748 38.8218 103.699 39.068 103.602 39.3949C103.504 39.7219 103.382 40.074 103.234 40.4508C103.071 40.8732 102.893 41.3303 102.702 41.8223C102.541 42.2356 102.37 42.6733 102.19 43.1357C101.92 43.8273 101.603 44.6244 101.24 45.5273C101.071 45.9468 100.892 46.3889 100.703 46.854C100.685 46.8092 100.667 46.7646 100.649 46.7203C100.479 46.2998 100.316 45.8983 100.161 45.5161C99.4521 43.7706 98.8979 42.4249 98.499 41.4791C98.0034 40.3042 97.6611 39.4576 97.4727 38.9395ZM100.107 48.0374L97.5776 41.868Q96.8257 40.0854 96.5327 39.2815L96.5283 39.2697L96.5244 39.2577Q96.4536 39.0466 96.4175 38.9161Q96.3481 38.6729 96.3481 38.4355Q96.3481 38.314 96.3716 38.1975L94.7969 38.1975Q95.0181 38.4999 95.2275 38.9545L95.2354 38.9717L97.0508 43.3444L99.3198 48.8861L99.7583 48.8861L100.107 48.0374Z" fill="url(#paint_linear_108_4813_1)" fill-opacity="1.000000" fill-rule="evenodd"/>
</svg>
