<svg width="25.000000" height="25.000000" viewBox="0 0 25 25" fill="none" xmlns="http://www.w3.org/2000/svg" xmlns:xlink="http://www.w3.org/1999/xlink">
	<desc>
			Created with Pixso.
	</desc>
	<defs>
		<clipPath id="clip129_2224">
			<rect id="lvmh" rx="47" ry="47" width="24.000000" height="24.000000" transform="translate(0.500000 0.500000) rotate(-0.000000)" fill="white" fill-opacity="0"/>
		</clipPath>
	</defs>
	<rect id="lvmh" rx="47" ry="47" width="24.000000" height="24.000000" transform="translate(0.500000 0.500000) rotate(-0.000000)" fill="#3E302D" fill-opacity="1.000000"/>
	<g clip-path="url(#clip129_2224)">
		<path id="Vector" d="M16.7102 7.53424L13.21 15.7842L12.2441 13.6682L14.0278 8.82001C14.1621 8.44507 14.6313 8.27094 15.4229 8.27094L15.7043 7.53424L11.5469 7.53424L11.2786 8.27094C11.8687 8.27094 12.1101 8.44501 12.0161 8.82001L11.1311 11.2843L9.3877 7.53424C9.06567 7.13251 9.22656 6.93158 9.85693 6.93158L9.85693 6.06116L5.8335 6.06116L5.8335 6.93164C6.58472 6.93164 7.05396 7.13263 7.25513 7.53436L10.2058 13.8022L8.82422 17.4852C8.79736 17.9807 8.01953 18.222 6.51758 18.222L6.23584 18.9585L17.7161 18.9585L19.312 15.5701L18.4805 15.5701C17.7029 17.3246 16.8042 18.222 15.7983 18.222L10.5276 18.222L11.3054 16.1461L11.9761 17.4852L13.478 17.4852L17.7161 7.53442C17.9172 6.93176 18.4404 6.61041 19.2585 6.61041L19.2585 5.83337L15.7983 5.83337L15.7983 6.61023C16.8445 6.61023 17.1394 6.93164 16.7102 7.53424Z" fill="#FFFFFF" fill-opacity="1.000000" fill-rule="evenodd"/>
	</g>
	<rect id="lvmh" rx="47" ry="47" width="24.000000" height="24.000000" transform="translate(0.500000 0.500000) rotate(-0.000000)" stroke="#CDCCCC" stroke-opacity="1.000000" stroke-width="1.000000"/>
</svg>
