<svg width="464.183350" height="165.745972" viewBox="0 0 464.183 165.746" fill="none" xmlns="http://www.w3.org/2000/svg" xmlns:xlink="http://www.w3.org/1999/xlink">
	<desc>
			Created with Pixso.
	</desc>
	<defs>
		<clipPath id="clip92_582">
			<rect id="lvmh" rx="47" ry="47" width="94.000000" height="94.000000" transform="translate(42.500000 48.500000) rotate(-0.000000)" fill="white" fill-opacity="0"/>
		</clipPath>
		<filter id="filter_92_585_dd" x="11.556885" y="57.626221" width="52.788574" height="62.156494" filterUnits="userSpaceOnUse" color-interpolation-filters="sRGB">
			<feFlood flood-opacity="0" result="BackgroundImageFix"/>
			<feColorMatrix in="SourceAlpha" type="matrix" values="0 0 0 0 0 0 0 0 0 0 0 0 0 0 0 0 0 0 127 0" result="hardAlpha"/>
			<feOffset dx="0" dy="4"/>
			<feGaussianBlur stdDeviation="1.33333"/>
			<feComposite in2="hardAlpha" operator="out" k2="-1" k3="1"/>
			<feColorMatrix type="matrix" values="0 0 0 0 0 0 0 0 0 0 0 0 0 0 0 0 0 0 0.25 0"/>
			<feBlend mode="normal" in2="BackgroundImageFix" result="effect_dropShadow_1"/>
			<feBlend mode="normal" in="SourceGraphic" in2="effect_dropShadow_1" result="shape"/>
		</filter>
		<filter id="filter_92_586_dd" x="11.556763" y="58.208618" width="38.986572" height="61.574219" filterUnits="userSpaceOnUse" color-interpolation-filters="sRGB">
			<feFlood flood-opacity="0" result="BackgroundImageFix"/>
			<feColorMatrix in="SourceAlpha" type="matrix" values="0 0 0 0 0 0 0 0 0 0 0 0 0 0 0 0 0 0 127 0" result="hardAlpha"/>
			<feOffset dx="0" dy="4"/>
			<feGaussianBlur stdDeviation="1.33333"/>
			<feComposite in2="hardAlpha" operator="out" k2="-1" k3="1"/>
			<feColorMatrix type="matrix" values="0 0 0 0 0 0 0 0 0 0 0 0 0 0 0 0 0 0 0.25 0"/>
			<feBlend mode="normal" in2="BackgroundImageFix" result="effect_dropShadow_1"/>
			<feBlend mode="normal" in="SourceGraphic" in2="effect_dropShadow_1" result="shape"/>
		</filter>
		<clipPath id="clip92_584">
			<rect id="shield-antivirus-svgrepo-com 1" width="72.236145" height="72.236145" transform="matrix(-0.972708 0.232033 0.232033 0.972708 70.2646 39.875)" fill="white" fill-opacity="0"/>
		</clipPath>
		<filter id="filter_92_589_dd" x="56.343628" y="-3.937500" width="76.375000" height="78.781250" filterUnits="userSpaceOnUse" color-interpolation-filters="sRGB">
			<feFlood flood-opacity="0" result="BackgroundImageFix"/>
			<feColorMatrix in="SourceAlpha" type="matrix" values="0 0 0 0 0 0 0 0 0 0 0 0 0 0 0 0 0 0 127 0" result="hardAlpha"/>
			<feOffset dx="0" dy="4"/>
			<feGaussianBlur stdDeviation="3.33333"/>
			<feComposite in2="hardAlpha" operator="out" k2="-1" k3="1"/>
			<feColorMatrix type="matrix" values="0 0 0 0 0 0 0 0 0 0 0 0 0 0 0 0 0 0 0.5 0"/>
			<feBlend mode="normal" in2="BackgroundImageFix" result="effect_dropShadow_1"/>
			<feBlend mode="normal" in="SourceGraphic" in2="effect_dropShadow_1" result="shape"/>
		</filter>
		<clipPath id="clip92_587">
			<rect id="helmet_red" width="61.874989" height="64.494362" transform="translate(64.624878 0.000000)" fill="white" fill-opacity="0"/>
		</clipPath>
		<filter id="filter_92_607_dd" x="110.312622" y="0.875000" width="73.968750" height="116.593750" filterUnits="userSpaceOnUse" color-interpolation-filters="sRGB">
			<feFlood flood-opacity="0" result="BackgroundImageFix"/>
			<feColorMatrix in="SourceAlpha" type="matrix" values="0 0 0 0 0 0 0 0 0 0 0 0 0 0 0 0 0 0 127 0" result="hardAlpha"/>
			<feOffset dx="0" dy="4"/>
			<feGaussianBlur stdDeviation="3.33333"/>
			<feComposite in2="hardAlpha" operator="out" k2="-1" k3="1"/>
			<feColorMatrix type="matrix" values="0 0 0 0 0 0 0 0 0 0 0 0 0 0 0 0 0 0 0.5 0"/>
			<feBlend mode="normal" in2="BackgroundImageFix" result="effect_dropShadow_1"/>
			<feBlend mode="normal" in="SourceGraphic" in2="effect_dropShadow_1" result="shape"/>
		</filter>
		<clipPath id="clip92_605">
			<rect id="sword_red" width="58.461548" height="104.981216" transform="translate(120.656372 0.000000)" fill="white" fill-opacity="0"/>
		</clipPath>
		<filter id="filter_92_614_dd" x="53.526489" y="150.046021" width="72.248657" height="12.880005" filterUnits="userSpaceOnUse" color-interpolation-filters="sRGB">
			<feFlood flood-opacity="0" result="BackgroundImageFix"/>
			<feColorMatrix in="SourceAlpha" type="matrix" values="0 0 0 0 0 0 0 0 0 0 0 0 0 0 0 0 0 0 127 0" result="hardAlpha"/>
			<feOffset dx="0" dy="2"/>
			<feGaussianBlur stdDeviation="0.666667"/>
			<feComposite in2="hardAlpha" operator="out" k2="-1" k3="1"/>
			<feColorMatrix type="matrix" values="0 0 0 0 0 0 0 0 0 0 0 0 0 0 0 0 0 0 0.5 0"/>
			<feBlend mode="normal" in2="BackgroundImageFix" result="effect_dropShadow_1"/>
			<feBlend mode="normal" in="SourceGraphic" in2="effect_dropShadow_1" result="shape"/>
		</filter>
		<filter id="filter_92_616_dd" x="158.553345" y="31.000000" width="147.664551" height="123.207397" filterUnits="userSpaceOnUse" color-interpolation-filters="sRGB">
			<feFlood flood-opacity="0" result="BackgroundImageFix"/>
			<feColorMatrix in="SourceAlpha" type="matrix" values="0 0 0 0 0 0 0 0 0 0 0 0 0 0 0 0 0 0 127 0" result="hardAlpha"/>
			<feOffset dx="0" dy="0"/>
			<feGaussianBlur stdDeviation="8.33333"/>
			<feComposite in2="hardAlpha" operator="out" k2="-1" k3="1"/>
			<feColorMatrix type="matrix" values="0 0 0 0 0.98039 0 0 0 0 0.79216 0 0 0 0 0.34902 0 0 0 1 0"/>
			<feBlend mode="normal" in2="BackgroundImageFix" result="effect_dropShadow_1"/>
			<feBlend mode="normal" in="SourceGraphic" in2="effect_dropShadow_1" result="shape"/>
		</filter>
		<filter id="filter_92_618_dd" x="198.526123" y="70.912231" width="63.724854" height="37.025330" filterUnits="userSpaceOnUse" color-interpolation-filters="sRGB">
			<feFlood flood-opacity="0" result="BackgroundImageFix"/>
			<feColorMatrix in="SourceAlpha" type="matrix" values="0 0 0 0 0 0 0 0 0 0 0 0 0 0 0 0 0 0 127 0" result="hardAlpha"/>
			<feOffset dx="0" dy="4"/>
			<feGaussianBlur stdDeviation="0.666667"/>
			<feComposite in2="hardAlpha" operator="out" k2="-1" k3="1"/>
			<feColorMatrix type="matrix" values="0 0 0 0 0 0 0 0 0 0 0 0 0 0 0 0 0 0 0.5 0"/>
			<feBlend mode="normal" in2="BackgroundImageFix" result="effect_dropShadow_1"/>
			<feBlend mode="normal" in="SourceGraphic" in2="effect_dropShadow_1" result="shape"/>
		</filter>
		<clipPath id="clip92_620">
			<rect id="gucci" rx="47" ry="47" width="94.000000" height="94.000000" transform="translate(325.500000 48.500000)" fill="white" fill-opacity="0"/>
		</clipPath>
		<filter id="filter_92_623_dd" x="395.608276" y="57.770386" width="52.958984" height="62.362549" filterUnits="userSpaceOnUse" color-interpolation-filters="sRGB">
			<feFlood flood-opacity="0" result="BackgroundImageFix"/>
			<feColorMatrix in="SourceAlpha" type="matrix" values="0 0 0 0 0 0 0 0 0 0 0 0 0 0 0 0 0 0 127 0" result="hardAlpha"/>
			<feOffset dx="-4" dy="4"/>
			<feGaussianBlur stdDeviation="1.33333"/>
			<feComposite in2="hardAlpha" operator="out" k2="-1" k3="1"/>
			<feColorMatrix type="matrix" values="0 0 0 0 0 0 0 0 0 0 0 0 0 0 0 0 0 0 0.25 0"/>
			<feBlend mode="normal" in2="BackgroundImageFix" result="effect_dropShadow_1"/>
			<feBlend mode="normal" in="SourceGraphic" in2="effect_dropShadow_1" result="shape"/>
		</filter>
		<filter id="filter_92_624_dd" x="409.462891" y="58.354980" width="39.104370" height="61.778015" filterUnits="userSpaceOnUse" color-interpolation-filters="sRGB">
			<feFlood flood-opacity="0" result="BackgroundImageFix"/>
			<feColorMatrix in="SourceAlpha" type="matrix" values="0 0 0 0 0 0 0 0 0 0 0 0 0 0 0 0 0 0 127 0" result="hardAlpha"/>
			<feOffset dx="-4" dy="4"/>
			<feGaussianBlur stdDeviation="1.33333"/>
			<feComposite in2="hardAlpha" operator="out" k2="-1" k3="1"/>
			<feColorMatrix type="matrix" values="0 0 0 0 0 0 0 0 0 0 0 0 0 0 0 0 0 0 0.25 0"/>
			<feBlend mode="normal" in2="BackgroundImageFix" result="effect_dropShadow_1"/>
			<feBlend mode="normal" in="SourceGraphic" in2="effect_dropShadow_1" result="shape"/>
		</filter>
		<clipPath id="clip92_622">
			<rect id="shield-antivirus-svgrepo-com 1" width="72.510971" height="72.510971" transform="translate(393.651367 39.951660) rotate(-13.416809)" fill="white" fill-opacity="0"/>
		</clipPath>
		<filter id="filter_92_627_dd" x="330.589478" y="-3.929688" width="76.589478" height="79.004883" filterUnits="userSpaceOnUse" color-interpolation-filters="sRGB">
			<feFlood flood-opacity="0" result="BackgroundImageFix"/>
			<feColorMatrix in="SourceAlpha" type="matrix" values="0 0 0 0 0 0 0 0 0 0 0 0 0 0 0 0 0 0 127 0" result="hardAlpha"/>
			<feOffset dx="0" dy="4"/>
			<feGaussianBlur stdDeviation="3.33333"/>
			<feComposite in2="hardAlpha" operator="out" k2="-1" k3="1"/>
			<feColorMatrix type="matrix" values="0 0 0 0 0 0 0 0 0 0 0 0 0 0 0 0 0 0 0.5 0"/>
			<feBlend mode="normal" in2="BackgroundImageFix" result="effect_dropShadow_1"/>
			<feBlend mode="normal" in="SourceGraphic" in2="effect_dropShadow_1" result="shape"/>
		</filter>
		<clipPath id="clip92_625">
			<rect id="helmet_red" width="62.110397" height="64.739738" transform="matrix(-1 0 0 1 398.904 0)" fill="white" fill-opacity="0"/>
		</clipPath>
		<filter id="filter_92_645_dd" x="278.854980" y="0.901123" width="74.174072" height="116.961304" filterUnits="userSpaceOnUse" color-interpolation-filters="sRGB">
			<feFlood flood-opacity="0" result="BackgroundImageFix"/>
			<feColorMatrix in="SourceAlpha" type="matrix" values="0 0 0 0 0 0 0 0 0 0 0 0 0 0 0 0 0 0 127 0" result="hardAlpha"/>
			<feOffset dx="0" dy="4"/>
			<feGaussianBlur stdDeviation="3.33333"/>
			<feComposite in2="hardAlpha" operator="out" k2="-1" k3="1"/>
			<feColorMatrix type="matrix" values="0 0 0 0 0 0 0 0 0 0 0 0 0 0 0 0 0 0 0.5 0"/>
			<feBlend mode="normal" in2="BackgroundImageFix" result="effect_dropShadow_1"/>
			<feBlend mode="normal" in="SourceGraphic" in2="effect_dropShadow_1" result="shape"/>
		</filter>
		<clipPath id="clip92_643">
			<rect id="sword_red" width="58.683975" height="105.380638" transform="matrix(-1 0 0 1 342.684 0)" fill="white" fill-opacity="0"/>
		</clipPath>
		<filter id="filter_92_652_dd" x="320.297241" y="149.961975" width="115.252319" height="15.783997" filterUnits="userSpaceOnUse" color-interpolation-filters="sRGB">
			<feFlood flood-opacity="0" result="BackgroundImageFix"/>
			<feColorMatrix in="SourceAlpha" type="matrix" values="0 0 0 0 0 0 0 0 0 0 0 0 0 0 0 0 0 0 127 0" result="hardAlpha"/>
			<feOffset dx="0" dy="2"/>
			<feGaussianBlur stdDeviation="0.666667"/>
			<feComposite in2="hardAlpha" operator="out" k2="-1" k3="1"/>
			<feColorMatrix type="matrix" values="0 0 0 0 0 0 0 0 0 0 0 0 0 0 0 0 0 0 0.5 0"/>
			<feBlend mode="normal" in2="BackgroundImageFix" result="effect_dropShadow_1"/>
			<feBlend mode="normal" in="SourceGraphic" in2="effect_dropShadow_1" result="shape"/>
		</filter>
		<radialGradient id="paint_radial_92_616_0" cx="0.000000" cy="0.000000" r="1.000000" gradientUnits="userSpaceOnUse" gradientTransform="translate(191.246 76.9649) rotate(9.60304) scale(81.0302 109)">
			<stop offset="0.102161" stop-color="#B37D16"/>
			<stop offset="0.806940" stop-color="#F8F497"/>
			<stop offset="1.000000" stop-color="#C4963D"/>
		</radialGradient>
		<linearGradient id="paint_linear_92_616_1" x1="185.999985" y1="57.999985" x2="258.228027" y2="114.087708" gradientUnits="userSpaceOnUse">
			<stop stop-color="#F8F497"/>
			<stop offset="1.000000" stop-color="#B7851F"/>
		</linearGradient>
		<radialGradient id="paint_radial_92_617_0" cx="0.000000" cy="0.000000" r="1.000000" gradientUnits="userSpaceOnUse" gradientTransform="translate(236.842 63.6492) rotate(95.6824) scale(40.7529 55.0084)">
			<stop stop-color="#AF4190"/>
			<stop offset="0.472281" stop-color="#610547"/>
			<stop offset="1.000000" stop-color="#220119"/>
		</radialGradient>
		<linearGradient id="paint_linear_92_617_1" x1="201.131546" y1="63.649162" x2="261.254364" y2="107.833389" gradientUnits="userSpaceOnUse">
			<stop stop-color="#F2E586"/>
			<stop offset="0.546840" stop-color="#B37D16"/>
			<stop offset="0.990875" stop-color="#F7F395"/>
		</linearGradient>
		<linearGradient id="paint_linear_92_618_0" x1="200.526123" y1="105.815735" x2="200.526123" y2="70.912231" gradientUnits="userSpaceOnUse">
			<stop offset="0.276042" stop-color="#B37D16"/>
			<stop offset="0.670000" stop-color="#F8F497"/>
			<stop offset="1.000000" stop-color="#DDB149"/>
		</linearGradient>
		<linearGradient id="paint_linear_92_618_1" x1="230.388550" y1="70.912231" x2="230.388550" y2="104.806961" gradientUnits="userSpaceOnUse">
			<stop stop-color="#DDB149"/>
			<stop offset="1.000000" stop-color="#F8F497"/>
		</linearGradient>
	</defs>
	<rect id="lvmh" rx="47" ry="47" width="94.000000" height="94.000000" transform="translate(42.500000 48.500000) rotate(-0.000000)" fill="#3E302D" fill-opacity="1.000000"/>
	<g clip-path="url(#clip92_582)">
		<path id="Vector" d="M105.499 76.6301L92.1973 107.98L88.5276 99.9391L95.3058 81.516C95.8156 80.0912 97.599 79.4294 100.606 79.4294L101.676 76.6301L85.8774 76.6301L84.858 79.4294C87.1006 79.4294 88.0179 80.0908 87.6609 81.516L84.2977 90.8801L77.6725 76.6301C76.4495 75.1035 77.0608 74.3398 79.4563 74.3398L79.4563 71.0322L64.1669 71.0322L64.1669 74.3402C67.0211 74.3402 68.8046 75.1039 69.5692 76.6305L80.7814 100.448L75.532 114.444C75.4297 116.327 72.4741 117.243 66.7661 117.243L65.6959 120.042L109.321 120.042L115.386 107.166L112.226 107.166C109.27 113.833 105.856 117.243 102.033 117.243L82.0042 117.243L84.9601 109.355L87.5083 114.444L93.2163 114.444L109.321 76.6309C110.085 74.3406 112.073 73.1195 115.182 73.1195L115.182 70.1667L102.033 70.1667L102.033 73.1188C106.008 73.1188 107.13 74.3402 105.499 76.6301Z" fill="#FFFFFF" fill-opacity="1.000000" fill-rule="evenodd"/>
	</g>
	<rect id="lvmh" rx="47" ry="47" width="94.000000" height="94.000000" transform="translate(42.500000 48.500000) rotate(-0.000000)" stroke="#CDCCCC" stroke-opacity="1.000000" stroke-width="1.000000"/>
	<rect id="shield-antivirus-svgrepo-com 1" width="72.236145" height="72.236145" transform="matrix(-0.972708 0.232033 0.232033 0.972708 70.2646 39.875)" fill="#FFFFFF" fill-opacity="0"/>
	<g clip-path="url(#clip92_584)">
		<g filter="url(#filter_92_585_dd)">
			<path id="Vector" d="M46.5411 111.783L47.7786 110.201C54.5637 101.492 63.005 90.6577 59.5419 76.1396L56.2421 62.3068L53.8009 62.889C44.9871 64.9916 37.4226 62.729 36.2054 57.6262L31.3232 58.7909C32.5404 63.8937 26.8119 69.3271 17.998 71.4296L15.5569 72.012L18.8567 85.8448C22.3198 100.363 34.743 106.22 44.725 110.927L46.5411 111.783Z" fill="#D84025" fill-opacity="1.000000" fill-rule="nonzero"/>
		</g>
		<g filter="url(#filter_92_586_dd)">
			<path id="Vector" d="M17.9979 71.4297C26.8118 69.3271 32.5404 63.8937 31.3231 58.7909L33.7643 58.2086L46.5433 111.78L46.541 111.783L44.7249 110.927C34.7429 106.22 22.3197 100.363 18.8566 85.845L15.5568 72.012L17.9979 71.4297Z" fill="#A13023" fill-opacity="1.000000" fill-rule="nonzero"/>
		</g>
	</g>
	<rect id="helmet_red" width="61.874989" height="64.494362" transform="translate(64.624878 0.000000)" fill="#FFFFFF" fill-opacity="0"/>
	<g clip-path="url(#clip92_587)">
		<g filter="url(#filter_92_589_dd)">
			<path id="Vector" d="M110.193 45.7188C110.819 48.26 111.442 50.7992 112.062 53.3363C106.346 56.6077 99.1288 58.4344 90.0624 58.4375L90.0624 47.9463L110.193 45.7188Z" fill="#535353" fill-opacity="1.000000" fill-rule="evenodd"/>
			<path id="Vector" d="M69.9485 45.7188C69.3142 48.26 68.6855 50.7992 68.0624 53.3363C73.7909 56.6077 80.9918 58.4344 90.0624 58.4375L90.0624 47.9463L69.9485 45.7188Z" fill="#676767" fill-opacity="1.000000" fill-rule="evenodd"/>
			<path id="Vector" d="M85.5626 18.3695C72.5026 6.8197 97.1976 7.91418 104.157 2.0625C104.648 2.55115 104.94 3.13867 104.995 3.75195C105.05 4.36523 104.866 4.97729 104.467 5.51208C107.556 7.43127 112.988 4.81274 115.933 8.49121C112.595 8.34692 110.563 9.34729 109.324 10.6864C118.477 9.62646 114.896 16.0771 122.719 16.4409C116.891 18.9089 103.203 14.1704 94.7401 19.9375C90.9196 19.8309 89.3831 18.4856 85.5626 18.3695Z" fill="#A23023" fill-opacity="1.000000" fill-rule="evenodd"/>
			<path id="Vector" d="M122.714 16.3342C116.946 18.8832 103.358 14.0264 94.9572 19.9375C93.3939 19.8711 91.8558 19.6006 90.4061 19.1371C101.394 9.43298 111.144 18.0475 122.719 16.3342L122.714 16.3342Z" fill="#1A1A1A" fill-opacity="1.000000" fill-rule="evenodd"/>
			<path id="Vector" d="M86.3253 17.3884C87.8335 17.5059 89.3127 17.777 90.7218 18.1941L90.8213 18.2188C90.3291 17.6693 89.8452 17.1198 89.3696 16.5703C85.0479 12.8938 94.1436 8.54431 99.6599 7.65222C101.647 8.9364 104.708 8.32825 106.275 9.22961C104.923 10.3224 104.085 12.2117 102.729 13.3044C118.216 11.7362 111.161 15.4652 118.594 16.1876C118.093 15.9346 117.639 15.6348 117.241 15.2954C114.753 13.1809 115.122 10.8719 109.697 11.4893L106.678 11.8319C107.211 11.2804 107.749 10.7299 108.291 10.1804C109.514 8.90417 111.355 8.03101 113.426 7.74487C112.94 7.53345 112.406 7.39209 111.85 7.32812C111.32 7.26843 110.785 7.23645 110.249 7.23242C107.835 7.18921 105.533 7.33118 103.613 6.17664L102.899 5.74146C103.04 5.55005 103.185 5.36169 103.314 5.17346C103.635 4.75085 103.77 4.26392 103.7 3.78125C101.211 5.18579 97.7686 6.13037 94.8196 6.91443C92.4845 7.53186 90.0333 8.14929 87.8185 8.91785C86.2549 9.46741 84.5004 10.2299 83.6709 11.2732C82.1653 13.2179 84.4921 15.7461 86.3253 17.3884Z" fill="#EF4123" fill-opacity="1.000000" fill-rule="evenodd"/>
			<path id="Vector" d="M88.5007 17.644C89.2855 17.7976 90.0594 17.9812 90.8195 18.1938L90.9186 18.2188C90.4281 17.6658 89.9459 17.1128 89.472 16.5598C85.1654 12.8597 94.2291 8.48242 99.7262 7.58459C101.706 8.87695 104.756 8.26489 106.318 9.17212C104.971 10.2719 104.136 12.1731 102.785 13.2729C118.218 11.6947 111.187 15.4476 118.594 16.1746C114.737 15.4197 114.808 12.692 112.617 12.0365C110.427 11.381 107.534 12.8907 105.326 12.2352C105.558 10.9708 106.604 9.9425 108.125 8.37366C106.013 7.4137 100.685 8.27112 101.793 5.5C97.0521 9.42993 81.7804 7.802 87.575 17.3054L88.5007 17.644Z" fill="#D03927" fill-opacity="1.000000" fill-rule="evenodd"/>
			<path id="Vector" d="M96.9374 21.1406C96.9374 23.7036 93.7823 25.7812 89.8905 25.7812C85.9987 25.7812 82.8436 23.7036 82.8436 21.1406C82.8436 18.5776 85.9987 16.5 89.8905 16.5C93.7823 16.5 96.9374 18.5776 96.9374 21.1406Z" fill="#CDCCCC" fill-opacity="1.000000" fill-rule="evenodd"/>
			<path id="Vector" d="M89.9216 21.3125C98.7563 21.3125 106.305 24.8152 109.325 29.7562C110.947 30.277 112.062 31.3495 112.062 32.577C112.054 32.9851 111.931 33.3873 111.701 33.7574C111.471 34.1276 111.139 34.4573 110.727 34.7251C110.578 41.9507 101.32 47.7812 89.9216 47.7812C78.5236 47.7812 69.299 41.963 69.1248 34.7561C68.6941 34.4873 68.3458 34.1526 68.1031 33.7744C67.8606 33.3964 67.7295 32.9838 67.7186 32.5646C67.7186 31.3247 68.8717 30.2305 70.5308 29.719C73.5629 24.7904 81.0994 21.3125 89.9216 21.3125Z" fill="#8B8A8A" fill-opacity="1.000000" fill-rule="evenodd"/>
			<path id="Vector" d="M86.6249 40.9062C94.3931 40.9062 100.719 36.8998 100.719 31.9688C100.719 27.0377 94.3806 23.0312 86.6249 23.0312C78.8691 23.0312 72.5311 27.0377 72.5311 31.9688C72.5311 36.8998 78.8525 40.9062 86.6249 40.9062Z" fill="#989898" fill-opacity="1.000000" fill-rule="evenodd"/>
			<path id="Vector" d="M82.328 30.9375C85.2645 30.9375 87.6561 29.3922 87.6561 27.5C87.6561 25.6078 85.2645 24.0625 82.328 24.0625C79.3915 24.0625 76.9999 25.6046 76.9999 27.5C76.9999 29.3954 79.4165 30.9375 82.328 30.9375Z" fill="#ACACAC" fill-opacity="1.000000" fill-rule="evenodd"/>
			<path id="Vector" d="M90.0624 28.8752L89.8607 28.8752C87.0504 28.8644 84.2611 29.2441 81.6293 29.9956L66.3436 34.3362L66.3436 47.2698C73.0316 53.189 80.8309 57.8246 90.0624 60.8438L90.0624 28.8752Z" fill="#CDCCCC" fill-opacity="1.000000" fill-rule="evenodd"/>
			<path id="Vector" d="M86.6249 30.9375C85.407 31.0917 84.2118 31.3395 83.0573 31.6774L80.1268 32.5211L80.1268 54.1665C82.1948 55.3588 84.3645 56.4412 86.6208 57.4062L86.6208 30.9375L86.6249 30.9375ZM78.751 32.9178L74.193 34.2307L74.193 50.2877C75.6338 51.3488 77.1517 52.3751 78.751 53.3511L78.751 32.9178ZM72.8212 34.6243L69.7811 35.4995L69.7811 46.7268C70.7552 47.5831 71.7686 48.4227 72.8212 49.2456L72.8212 34.6243Z" fill="#333333" fill-opacity="1.000000" fill-rule="evenodd"/>
			<path id="Vector" d="M90.0624 28.8751L90.264 28.8751C93.0674 28.8662 95.8495 29.2458 98.4749 29.9956L113.781 34.333L113.781 47.2667C107.089 53.189 99.2898 57.8246 90.0624 60.8438L90.0624 28.8751Z" fill="#B4B4B4" fill-opacity="1.000000" fill-rule="evenodd"/>
			<path id="Vector" d="M93.4999 30.9375C94.7428 31.092 95.9625 31.3398 97.1412 31.6774L100.132 32.5211L100.132 54.1665C98.0208 55.358 95.8064 56.4404 93.504 57.4062L93.504 30.9375L93.4999 30.9375ZM101.536 32.9178L106.184 34.2307L106.184 50.2877C104.718 51.3488 103.169 52.3751 101.536 53.3511L101.536 32.9178ZM107.589 34.6243L110.687 35.4995L110.687 46.7268C109.696 47.5831 108.663 48.4227 107.589 49.2456L107.589 34.6243Z" fill="#1A1A1A" fill-opacity="1.000000" fill-rule="evenodd"/>
			<path id="Vector" d="M88.1124 17.5312C89.4318 17.5312 90.0643 18.1483 89.5275 18.9062C89.1875 19.311 88.6997 19.65 88.111 19.8907C87.5222 20.1315 86.8521 20.266 86.1646 20.2812C84.8494 20.2812 84.2167 19.667 84.7535 18.9062C85.0939 18.5022 85.5811 18.1638 86.1689 17.9231C86.7568 17.6825 87.4258 17.5476 88.1124 17.5312Z" fill="#E3E3E3" fill-opacity="1.000000" fill-rule="evenodd"/>
		</g>
	</g>
	<rect id="sword_red" width="58.461548" height="104.981216" transform="translate(120.656372 0.000000)" fill="#FFFFFF" fill-opacity="0"/>
	<g clip-path="url(#clip92_605)">
		<g filter="url(#filter_92_607_dd)">
			<path id="Vector" d="M121.458 95.7015L121.733 95.8439C122.045 96.0114 122.393 96.1027 122.747 96.1104C123.101 96.1181 123.452 96.0419 123.771 95.8882C124.094 95.744 124.379 95.5256 124.602 95.2508C124.825 94.9759 124.981 94.6523 125.055 94.3063C125.688 91.541 126.954 88.1621 128.754 84.6724C130.555 81.1826 132.576 78.1959 134.449 76.0793C134.684 75.8157 134.855 75.5017 134.95 75.1616C135.045 74.8217 135.061 74.4644 134.996 74.1173C134.932 73.7701 134.789 73.4424 134.578 73.1589C134.368 72.8756 134.095 72.644 133.782 72.4821L133.503 72.3397L134.649 70.125L140.028 72.8965L145.406 75.6649L144.261 77.8796L143.986 77.7372C143.671 77.5724 143.322 77.4822 142.966 77.4739C142.611 77.4656 142.258 77.5392 141.936 77.6891C141.613 77.839 141.329 78.0612 141.107 78.3384C140.884 78.6156 140.728 78.9403 140.651 79.2875C140.018 82.0496 138.752 85.4316 136.952 88.9182C135.152 92.4048 133.13 95.3947 131.257 97.5112C131.022 97.7753 130.851 98.0894 130.756 98.4297C130.661 98.77 130.646 99.1274 130.71 99.4747C130.774 99.8221 130.917 100.15 131.128 100.434C131.338 100.717 131.611 100.949 131.925 101.112L132.203 101.254L131.058 103.469L125.679 100.7L120.313 97.9194L121.458 95.7015Z" fill="#CA3927" fill-opacity="1.000000" fill-rule="evenodd"/>
			<path id="Vector" d="M135.15 77.3854C136.037 77.8481 134.805 82.0553 132.394 86.7761C129.984 91.4968 127.309 94.9526 126.438 94.4897C125.566 94.0268 126.783 89.8197 129.193 85.0989C131.604 80.3782 134.263 76.9225 135.15 77.3854Z" fill="#F04B23" fill-opacity="1.000000" fill-rule="evenodd"/>
			<path id="Vector" d="M174.281 6.875L171.399 23.1654L144.506 75.2812L135.781 70.7786L162.674 18.6626L174.281 6.875Z" fill="#D1D2D2" fill-opacity="1.000000" fill-rule="evenodd"/>
			<path id="Vector" d="M165.579 15.6746L170.158 12.6927L168.548 22.4113L144.375 75.2812L171.386 23.1654L174.281 6.875L165.579 15.6746Z" fill="#E6E6E5" fill-opacity="1.000000" fill-rule="evenodd"/>
			<path id="Vector" d="M166.719 21.6562L154.012 47.6078L141.303 73.5625L139.916 72.8566L138.531 72.1506L152.625 46.905L166.719 21.6562Z" fill="#818181" fill-opacity="1.000000" fill-rule="evenodd"/>
			<path id="Vector" d="M133.124 67.6487L148.505 75.6304C149.296 75.0579 150.256 74.77 151.229 74.813C152.203 74.8561 153.133 75.2277 153.871 75.8678C154.609 76.5079 155.111 77.3793 155.296 78.3413C155.481 79.3035 155.339 80.3003 154.892 81.171C154.445 82.0417 153.719 82.7357 152.832 83.1409C151.944 83.5461 150.947 83.639 150.001 83.4047C149.055 83.1703 148.215 82.6223 147.616 81.849C147.018 81.0757 146.696 80.1222 146.702 79.1423L131.32 71.1605C130.528 71.7346 129.567 72.0237 128.592 71.9811C127.617 71.9385 126.684 71.5667 125.945 70.9258C125.206 70.2848 124.703 69.412 124.517 68.4482C124.331 67.4845 124.474 66.486 124.922 65.6138C125.37 64.7415 126.097 64.0464 126.985 63.6406C127.874 63.2349 128.873 63.142 129.821 63.3772C130.769 63.6123 131.61 64.1616 132.209 64.9366C132.808 65.7115 133.13 66.667 133.124 67.6487Z" fill="#333333" fill-opacity="1.000000" fill-rule="evenodd"/>
		</g>
	</g>
	<g filter="url(#filter_92_614_dd)">
		<path id="Louis Vuitton" d="M55.5265 158.806L55.5265 150.058L56.4505 150.058L56.4505 157.942L60.6025 157.942L60.6025 158.806L55.5265 158.806ZM64.1374 158.914C63.5854 158.914 63.0694 158.778 62.5894 158.506C62.1174 158.226 61.7494 157.854 61.4854 157.39C61.2134 156.926 61.0774 156.41 61.0774 155.842C61.0774 154.954 61.3734 154.218 61.9654 153.634C62.5574 153.034 63.2894 152.734 64.1614 152.734C65.0094 152.718 65.7374 153.018 66.3454 153.634C66.9614 154.242 67.2614 154.966 67.2454 155.806C67.2614 156.67 66.9614 157.41 66.3454 158.026C65.7294 158.634 64.9934 158.93 64.1374 158.914ZM64.1614 158.134C64.7854 158.134 65.3094 157.91 65.7334 157.462C66.1414 157.014 66.3454 156.474 66.3454 155.842C66.3454 155.202 66.1374 154.65 65.7214 154.186C65.2974 153.73 64.7694 153.502 64.1374 153.502C63.5054 153.502 62.9854 153.726 62.5774 154.174C62.1694 154.622 61.9654 155.166 61.9654 155.806C61.9494 156.438 62.1534 156.986 62.5774 157.45C63.0094 157.914 63.5374 158.142 64.1614 158.134ZM68.703 152.842L69.567 152.842L69.567 156.31C69.567 156.87 69.711 157.31 69.999 157.63C70.271 157.958 70.679 158.122 71.223 158.122C71.735 158.122 72.159 157.942 72.495 157.582C72.831 157.222 72.999 156.774 72.999 156.238L72.999 152.842L73.863 152.842L73.863 158.806L73.011 158.806L73.011 157.714C72.531 158.522 71.847 158.926 70.959 158.926C70.263 158.926 69.707 158.706 69.291 158.266C68.899 157.826 68.703 157.246 68.703 156.526L68.703 152.842ZM75.8057 151.174C75.6777 151.03 75.6137 150.874 75.6137 150.706C75.6137 150.538 75.6777 150.382 75.8057 150.238C75.9337 150.11 76.0897 150.046 76.2737 150.046C76.4497 150.046 76.6017 150.11 76.7297 150.238C76.8577 150.366 76.9217 150.522 76.9217 150.706C76.9217 150.89 76.8577 151.046 76.7297 151.174C76.6017 151.302 76.4497 151.366 76.2737 151.366C76.0897 151.366 75.9337 151.302 75.8057 151.174ZM75.8297 158.806L75.8297 152.842L76.7057 152.842L76.7057 158.806L75.8297 158.806ZM82.6134 157.114C82.6134 157.65 82.4094 158.078 82.0014 158.398C81.5934 158.734 81.0934 158.902 80.5014 158.902C79.6294 158.902 78.9934 158.614 78.5934 158.038C78.3934 157.766 78.2734 157.462 78.2334 157.126L79.0254 156.922C79.0814 157.25 79.2294 157.538 79.4694 157.786C79.7174 158.026 80.0574 158.146 80.4894 158.146C80.8174 158.146 81.1094 158.054 81.3654 157.87C81.6054 157.702 81.7254 157.466 81.7254 157.162C81.7254 156.922 81.6294 156.73 81.4374 156.586C81.2614 156.442 81.0334 156.338 80.7534 156.274L79.8414 156.07C78.8494 155.854 78.3534 155.334 78.3534 154.51C78.3534 153.894 78.6014 153.434 79.0974 153.13C79.5214 152.866 79.9494 152.734 80.3814 152.734C81.1974 152.742 81.7934 153.006 82.1694 153.526C82.3534 153.79 82.4734 154.058 82.5294 154.33L81.7374 154.558C81.6814 154.326 81.5654 154.102 81.3894 153.886C81.1734 153.63 80.8374 153.502 80.3814 153.502C80.0534 153.502 79.7814 153.594 79.5654 153.778C79.3414 153.954 79.2294 154.178 79.2294 154.45C79.2294 154.85 79.5174 155.122 80.0934 155.266L81.0534 155.482C81.4934 155.586 81.8614 155.774 82.1574 156.046C82.4614 156.318 82.6134 156.674 82.6134 157.114ZM93.064 150.058L89.548 158.806L88.528 158.806L85.012 150.058L86.0201 150.058L89.0441 157.774L92.08 150.058L93.064 150.058ZM93.1483 152.842L94.0123 152.842L94.0123 156.31C94.0123 156.87 94.1563 157.31 94.4443 157.63C94.7163 157.958 95.1243 158.122 95.6683 158.122C96.1803 158.122 96.6043 157.942 96.9403 157.582C97.2763 157.222 97.4443 156.774 97.4443 156.238L97.4443 152.842L98.3083 152.842L98.3083 158.806L97.4563 158.806L97.4563 157.714C96.9763 158.522 96.2923 158.926 95.4043 158.926C94.7083 158.926 94.1523 158.706 93.7363 158.266C93.3443 157.826 93.1483 157.246 93.1483 156.526L93.1483 152.842ZM100.251 151.174C100.123 151.03 100.059 150.874 100.059 150.706C100.059 150.538 100.123 150.382 100.251 150.238C100.379 150.11 100.535 150.046 100.719 150.046C100.895 150.046 101.047 150.11 101.175 150.238C101.303 150.366 101.367 150.522 101.367 150.706C101.367 150.89 101.303 151.046 101.175 151.174C101.047 151.302 100.895 151.366 100.719 151.366C100.535 151.366 100.379 151.302 100.251 151.174ZM100.275 158.806L100.275 152.842L101.151 152.842L101.151 158.806L100.275 158.806ZM105.211 158.854C104.083 158.854 103.519 158.322 103.519 157.258L103.519 153.61L102.415 153.61L102.415 152.842L103.519 152.842L103.519 151.126L104.383 151.126L104.383 152.842L105.895 152.842L105.895 153.61L104.383 153.61L104.383 157.246C104.383 157.806 104.707 158.086 105.355 158.086C105.507 158.086 105.687 158.07 105.895 158.038L105.895 158.758C105.687 158.822 105.459 158.854 105.211 158.854ZM109.453 158.854C108.325 158.854 107.761 158.322 107.761 157.258L107.761 153.61L106.657 153.61L106.657 152.842L107.761 152.842L107.761 151.126L108.625 151.126L108.625 152.842L110.137 152.842L110.137 153.61L108.625 153.61L108.625 157.246C108.625 157.806 108.949 158.086 109.597 158.086C109.749 158.086 109.929 158.07 110.137 158.038L110.137 158.758C109.929 158.822 109.701 158.854 109.453 158.854ZM113.966 158.914C113.414 158.914 112.898 158.778 112.418 158.506C111.946 158.226 111.578 157.854 111.314 157.39C111.042 156.926 110.906 156.41 110.906 155.842C110.906 154.954 111.202 154.218 111.794 153.634C112.386 153.034 113.118 152.734 113.99 152.734C114.838 152.718 115.566 153.018 116.174 153.634C116.79 154.242 117.09 154.966 117.074 155.806C117.09 156.67 116.79 157.41 116.174 158.026C115.558 158.634 114.822 158.93 113.966 158.914ZM113.99 158.134C114.614 158.134 115.138 157.91 115.562 157.462C115.97 157.014 116.174 156.474 116.174 155.842C116.174 155.202 115.966 154.65 115.55 154.186C115.126 153.73 114.598 153.502 113.966 153.502C113.334 153.502 112.814 153.726 112.406 154.174C111.998 154.622 111.794 155.166 111.794 155.806C111.778 156.438 111.982 156.986 112.406 157.45C112.838 157.914 113.366 158.142 113.99 158.134ZM123.775 158.806L122.899 158.806L122.899 155.338C122.899 154.786 122.759 154.346 122.479 154.018C122.199 153.69 121.791 153.526 121.255 153.526C120.735 153.526 120.307 153.706 119.971 154.066C119.643 154.434 119.479 154.882 119.479 155.41L119.479 158.806L118.603 158.806L118.603 152.842L119.455 152.842L119.455 153.934C119.935 153.134 120.623 152.734 121.519 152.734C122.223 152.734 122.779 152.95 123.187 153.382C123.579 153.838 123.775 154.418 123.775 155.122L123.775 158.806Z" fill="#FFFFFF" fill-opacity="1.000000" fill-rule="evenodd"/>
	</g>
	<g filter="url(#filter_92_616_dd)">
		<path id="Vector 1" d="M196.573 110.094L186 58L278.807 58L269.017 110.094L231.229 127L196.573 110.094Z" fill="url(#paint_radial_92_616_0)" fill-opacity="1.000000" fill-rule="nonzero"/>
	</g>
	<path id="Vector 1" d="M183.553 56L194.809 111.459L195.696 111.892L231.192 129.207L270.79 111.492L281.218 56L183.553 56ZM196.573 110.094L186 58L278.807 58L278.431 60L269.017 110.094L231.229 127L196.573 110.094Z" fill="url(#paint_linear_92_616_1)" fill-opacity="1.000000" fill-rule="evenodd"/>
	<path id="Vector 2" d="M202.539 107.213L193.667 63.6492L271.544 63.6492L263.329 107.213L231.619 121.351L202.539 107.213Z" fill="url(#paint_radial_92_617_0)" fill-opacity="1.000000" fill-rule="nonzero"/>
	<path id="Vector 2" d="M191.218 61.6492L200.776 108.58L201.664 109.012L231.583 123.557L265.1 108.613L273.956 61.6492L191.218 61.6492ZM202.539 107.213L193.667 63.6492L271.544 63.6492L271.167 65.6492L263.329 107.213L231.619 121.351L202.539 107.213Z" fill="url(#paint_linear_92_617_1)" fill-opacity="1.000000" fill-rule="evenodd"/>
	<g filter="url(#filter_92_618_dd)">
		<path id="Vector" d="M248.132 82.2433C249.155 82.5894 250.2 82.9347 251.265 83.2808C252.33 83.6268 253.278 83.959 254.108 84.2773C256.115 85.052 257.64 86.1212 258.684 87.4835C259.729 88.8458 260.251 90.5371 260.251 92.5573C260.251 93.8298 259.953 95.0615 259.358 96.2516C258.763 97.4409 257.961 98.4302 256.951 99.2186C255.844 100.09 254.565 100.761 253.113 101.232C251.659 101.702 249.965 101.938 248.028 101.938C246.229 101.938 244.552 101.713 242.996 101.264C241.439 100.815 240.121 100.286 239.042 99.6782L237.61 101.129L235.847 101.129L235.577 90.4971L237.361 90.4971C237.762 91.5084 238.274 92.5745 238.897 93.6959C239.52 94.8174 240.239 95.8215 241.055 96.7079C241.899 97.6359 242.843 98.3901 243.887 98.9721C244.932 99.5533 246.153 99.8439 247.551 99.8439C249.432 99.8439 250.874 99.3851 251.878 98.4653C252.88 97.5453 253.382 96.3871 253.382 94.9905C253.382 93.8429 252.956 92.8781 252.106 92.0969C251.255 91.3158 249.937 90.6407 248.152 90.0719C246.99 89.6971 245.922 89.3503 244.946 89.0311C243.971 88.712 243.054 88.3855 242.196 88.0525C240.218 87.2639 238.748 86.1367 237.787 84.6699C236.825 83.204 236.344 81.5649 236.344 79.7521C236.344 78.6036 236.594 77.501 237.091 76.4423C237.589 75.3844 238.316 74.4326 239.27 73.5895C240.183 72.801 241.352 72.1578 242.777 71.6591C244.202 71.1611 245.752 70.9122 247.426 70.9122C249.059 70.9122 250.587 71.14 252.012 71.5962C253.437 72.0525 254.557 72.5079 255.374 72.9642L256.64 71.7203L258.446 71.7203L258.611 81.7511L256.827 81.7511C256.412 80.6711 255.924 79.5668 255.363 78.438C254.803 77.3091 254.212 76.3712 253.59 75.6228C252.911 74.8196 252.13 74.1797 251.244 73.7013C250.359 73.2239 249.321 72.9846 248.132 72.9846C246.638 72.9846 245.417 73.4075 244.469 74.2515C243.521 75.0955 243.047 76.1403 243.047 77.3859C243.047 78.562 243.459 79.5236 244.282 80.2712C245.105 81.0189 246.388 81.676 248.132 82.2433ZM232.505 74.2074C231.91 74.5535 231.45 74.9224 231.125 75.3167C230.8 75.7101 230.478 76.2529 230.161 76.9435C229.731 77.8969 229.129 79.2885 228.355 81.1193C227.579 82.9502 226.694 85.0332 225.699 87.3677C224.813 89.4678 223.855 91.7688 222.824 94.269C221.794 96.7699 220.808 99.1672 219.867 101.461L215.696 101.461C213.759 96.7217 211.787 91.9067 209.781 87.0159C207.775 82.1241 206.364 78.7253 205.548 76.8186C205.23 76.1281 204.922 75.6064 204.624 75.2538C204.327 74.902 203.853 74.5396 203.203 74.1658C202.732 73.9038 202.318 73.7209 201.958 73.6173C201.598 73.5135 201.121 73.4197 200.526 73.3373L200.526 71.7203L216.484 71.7203L216.484 73.2957C214.991 73.4752 213.978 73.6654 213.446 73.8654C212.913 74.0662 212.648 74.3184 212.648 74.6221C212.648 74.7747 212.672 74.9363 212.721 75.1094C212.769 75.2823 212.842 75.5134 212.939 75.8031C213.381 77.0177 214.183 79.002 215.345 81.756C216.506 84.5092 218.229 88.7087 220.51 94.3538C221.907 90.9175 223.069 88.0125 223.995 85.6388C224.922 83.2653 225.738 81.1675 226.444 79.3456C226.79 78.4624 227.077 77.6372 227.305 76.8707C227.534 76.1044 227.647 75.5272 227.647 75.1404C227.647 74.698 227.329 74.329 226.693 74.0311C226.057 73.7347 224.881 73.5168 223.167 73.3789L223.167 71.7203L235.1 71.7203L235.1 73.3789C234.643 73.4197 234.207 73.5029 233.792 73.6271C233.377 73.752 232.948 73.9454 232.505 74.2074Z" fill="url(#paint_linear_92_618_0)" fill-opacity="1.000000" fill-rule="nonzero"/>
	</g>
	<path id="Vector" d="M239.042 99.6782C240.121 100.286 241.439 100.815 242.996 101.264C244.552 101.713 246.229 101.938 248.028 101.938C249.965 101.938 251.659 101.702 253.113 101.232C254.565 100.761 255.844 100.09 256.951 99.2186C257.961 98.4302 258.763 97.4409 259.358 96.2516C259.953 95.0615 260.251 93.8298 260.251 92.5573C260.251 90.5371 259.729 88.8458 258.684 87.4835C257.64 86.1212 256.115 85.052 254.108 84.2773C253.278 83.959 252.33 83.6268 251.265 83.2808C250.2 82.9347 249.155 82.5894 248.132 82.2433C246.388 81.676 245.105 81.0189 244.282 80.2712C243.459 79.5236 243.047 78.562 243.047 77.3859C243.047 76.1403 243.521 75.0955 244.469 74.2515C245.417 73.4075 246.638 72.9846 248.132 72.9846C249.321 72.9846 250.359 73.2239 251.244 73.7013C252.13 74.1797 252.911 74.8196 253.59 75.6228C254.212 76.3712 254.803 77.3091 255.363 78.438C255.924 79.5668 256.412 80.6711 256.827 81.7511L258.611 81.7511L258.595 80.7511L258.446 71.7206L258.446 71.7203L256.64 71.7203L255.374 72.9642C254.557 72.5079 253.437 72.0525 252.012 71.5962C250.587 71.14 249.059 70.9122 247.426 70.9122C245.752 70.9122 244.202 71.1611 242.777 71.6591C241.352 72.1578 240.183 72.801 239.27 73.5895C238.316 74.4326 237.589 75.3844 237.091 76.4423C236.594 77.501 236.344 78.6036 236.344 79.7521C236.344 81.5649 236.825 83.204 237.787 84.6699C238.748 86.1367 240.218 87.2639 242.196 88.0525C243.054 88.3855 243.971 88.712 244.946 89.0311C245.922 89.3503 246.99 89.6971 248.152 90.0719C249.937 90.6407 251.255 91.3158 252.106 92.0969C252.956 92.8781 253.382 93.8429 253.382 94.9905C253.382 96.3871 252.88 97.5453 251.878 98.4653C250.874 99.3851 249.432 99.8439 247.551 99.8439Q245.454 99.8439 243.887 98.9721C242.843 98.3901 241.899 97.6359 241.055 96.7079C240.239 95.8215 239.52 94.8174 238.897 93.6959C238.274 92.5745 237.762 91.5084 237.361 90.4971L235.577 90.4971L235.602 91.4971L235.847 101.129L237.61 101.129L239.042 99.6782ZM237.192 100.129L238.867 98.4316L239.533 98.807Q241.052 99.6629 243.273 100.303Q245.471 100.938 248.028 100.938Q250.772 100.938 252.805 100.28Q254.812 99.6304 256.336 98.4306Q256.716 98.1334 257.053 97.7925Q257.898 96.9361 258.464 95.8044Q259.043 94.6454 259.196 93.4327Q259.251 92.9984 259.251 92.5573Q259.251 90.0902 258.108 88.3937Q258.004 88.2397 257.891 88.092Q256.494 86.2704 253.75 85.2109Q252.534 84.7446 250.956 84.2318L250.951 84.2301L247.822 83.1942Q245.002 82.2766 243.61 81.0115Q242.933 80.3969 242.55 79.6349Q242.047 78.6368 242.047 77.3859Q242.047 76.281 242.447 75.3472Q242.885 74.3231 243.804 73.5045Q244.211 73.1418 244.671 72.8656Q246.136 71.9846 248.132 71.9846Q250.168 71.9846 251.719 72.8214Q252.012 72.9795 252.292 73.1586Q253.439 73.894 254.359 74.9836Q255.37 76.2001 256.259 77.9932Q256.956 79.3955 257.507 80.7511L257.595 80.7511L257.462 72.7203L257.049 72.7203L255.54 74.2028L254.886 73.8372Q253.752 73.2036 251.708 72.5486Q249.719 71.9122 247.426 71.9122Q245.084 71.9122 243.108 72.603Q241.149 73.2883 239.932 74.339Q238.656 75.4667 237.996 76.8678Q237.592 77.7279 237.438 78.6309Q237.344 79.1835 237.344 79.7521Q237.344 81.2394 237.827 82.5486Q238.13 83.3704 238.623 84.1218Q239.892 86.0577 242.558 87.1204Q243.822 87.611 245.255 88.08L248.456 89.119Q251.343 90.0392 252.782 91.3604Q253.595 92.1071 253.995 93.0327Q254.382 93.928 254.382 94.9905Q254.382 96.3391 253.864 97.445Q253.409 98.4175 252.553 99.2025Q252.496 99.2546 252.438 99.3052Q250.66 100.844 247.551 100.844Q245.195 100.844 243.401 99.8457Q243.167 99.7153 242.939 99.5746Q241.502 98.6862 240.32 97.3854Q239.015 95.9691 238.023 94.1815Q237.249 92.7881 236.693 91.4971L236.603 91.4971L236.822 100.129L237.192 100.129ZM205.548 76.8186C205.23 76.1281 204.922 75.6064 204.624 75.2538C204.327 74.902 203.853 74.5396 203.203 74.1658C202.732 73.9038 202.318 73.7209 201.958 73.6173C201.598 73.5135 201.121 73.4197 200.526 73.3373L200.526 71.7203L216.484 71.7203L216.484 73.2957C214.991 73.4752 213.978 73.6654 213.446 73.8654C212.913 74.0662 212.648 74.3184 212.648 74.6221C212.648 74.7747 212.672 74.9363 212.721 75.1094C212.769 75.2823 212.842 75.5134 212.939 75.8031C213.381 77.0177 214.183 79.002 215.345 81.756C216.413 84.287 217.954 88.0402 219.969 93.0151C220.146 93.452 220.326 93.8982 220.51 94.3538C220.694 93.9031 220.873 93.4614 221.048 93.029C222.208 90.1644 223.191 87.701 223.995 85.6388C224.922 83.2653 225.738 81.1675 226.444 79.3456C226.79 78.4624 227.077 77.6372 227.305 76.8707C227.534 76.1044 227.647 75.5272 227.647 75.1404C227.647 74.698 227.329 74.329 226.693 74.0311C226.057 73.7347 224.881 73.5168 223.167 73.3789L223.167 71.7203L235.1 71.7203L235.1 72.7203L235.1 73.3789C234.643 73.4197 234.207 73.5029 233.792 73.6271C233.377 73.752 232.948 73.9454 232.505 74.2074C231.91 74.5535 231.45 74.9224 231.125 75.3167C230.8 75.7101 230.478 76.2529 230.161 76.9435C229.731 77.8969 229.129 79.2885 228.355 81.1193C227.579 82.9502 226.694 85.0332 225.699 87.3677C224.813 89.4678 223.855 91.7688 222.824 94.269C221.794 96.7699 220.808 99.1672 219.867 101.461L215.696 101.461Q212.79 94.3522 209.781 87.0159C207.775 82.1241 206.364 78.7253 205.548 76.8186ZM216.367 100.461L210.707 86.637L206.464 76.4176L206.456 76.4003Q205.923 75.2426 205.388 74.609Q204.828 73.9463 203.701 73.2987Q203.009 72.9132 202.439 72.7203L213.808 72.7203Q213.38 72.8219 213.094 72.9293Q212.055 73.3209 211.762 74.0237Q211.648 74.299 211.648 74.6221Q211.648 74.9916 211.758 75.382Q211.836 75.66 211.991 76.1213L211.995 76.1333L211.999 76.1453Q212.673 77.9977 214.424 82.1448L220.522 97.0181L224.924 86.0101L227.376 79.7083Q227.909 78.3475 228.263 77.156Q228.647 75.87 228.647 75.1404Q228.647 74.7744 228.526 74.4546Q228.216 73.6401 227.118 73.1256Q226.618 72.8931 225.797 72.7203L233.344 72.7203Q232.68 72.9418 231.996 73.347Q230.954 73.9529 230.354 74.6794L230.354 74.6802Q229.785 75.3687 229.252 76.5253Q228.584 78.0096 227.434 80.73L224.778 86.9764L221.901 93.8845L219.197 100.461L216.367 100.461Z" fill="url(#paint_linear_92_618_1)" fill-opacity="1.000000" fill-rule="evenodd"/>
	<rect id="gucci" rx="47" ry="47" width="94.000000" height="94.000000" transform="translate(325.500000 48.500000)" fill="#C8B388" fill-opacity="1.000000"/>
	<g clip-path="url(#clip92_620)">
		<path id="Vector" d="M407.333 93.9167C407.333 107.029 396.524 117.667 383.199 117.667C379.361 117.667 375.743 116.799 372.478 115.192C369.257 116.755 365.595 117.667 361.801 117.667C348.476 117.667 337.667 107.029 337.667 93.9167C337.667 80.8043 348.476 70.1667 361.801 70.1667C365.639 70.1667 369.257 71.0352 372.478 72.5981C375.699 71.0352 379.361 70.1667 383.199 70.1667C396.524 70.1667 407.333 80.8043 407.333 93.9167ZM402.569 93.9167C402.569 83.4097 393.876 74.8562 383.199 74.8562C381.17 74.8562 379.185 75.16 377.375 75.7247C381.082 78.7637 383.773 82.845 385.096 87.5344L380.111 87.5344C378.71 83.6198 376.045 80.2644 372.522 77.9822C369.037 80.2396 366.389 83.5836 364.978 87.5344L359.992 87.5344C361.298 82.91 363.988 78.7797 367.713 75.6813C365.812 75.1046 363.834 74.8119 361.845 74.8127C351.168 74.8127 342.476 83.3662 342.476 93.8733C342.476 104.38 351.168 112.934 361.845 112.934C363.874 112.934 365.815 112.631 367.625 112.066C362.816 108.115 359.683 102.297 359.198 95.7841L370.669 95.7841L370.669 100.43L365.066 100.516C366.522 104.338 369.125 107.551 372.522 109.765C375.919 107.55 378.522 104.338 379.979 100.516L374.375 100.43L374.375 95.7841L385.847 95.7841C385.317 102.297 382.141 108.072 377.331 112.022C379.185 112.587 381.17 112.934 383.199 112.934C393.921 112.978 402.569 104.467 402.569 93.9167Z" fill="#000000" fill-opacity="1.000000" fill-rule="evenodd"/>
	</g>
	<rect id="gucci" rx="47" ry="47" width="94.000000" height="94.000000" transform="translate(325.500000 48.500000)" stroke="#CDCCCC" stroke-opacity="1.000000" stroke-width="1.000000"/>
	<rect id="shield-antivirus-svgrepo-com 1" width="72.510971" height="72.510971" transform="translate(393.651367 39.951660) rotate(-13.416809)" fill="#FFFFFF" fill-opacity="0"/>
	<g clip-path="url(#clip92_622)">
		<g filter="url(#filter_92_623_dd)">
			<path id="Vector" d="M417.465 112.133L416.223 110.545C409.412 101.803 400.938 90.9276 404.415 76.3542L407.727 62.4688L410.178 63.0532C419.025 65.1637 426.618 62.8926 427.84 57.7704L432.741 58.9395C431.519 64.0616 437.269 69.5157 446.117 71.6262L448.567 72.2108L445.255 86.0964C441.779 100.67 429.308 106.549 419.288 111.274L417.465 112.133Z" fill="#7AB9E8" fill-opacity="1.000000" fill-rule="nonzero"/>
		</g>
		<g filter="url(#filter_92_624_dd)">
			<path id="Vector" d="M446.117 71.6263C437.269 69.5159 431.519 64.0616 432.741 58.9396L430.291 58.355L417.463 112.13L417.465 112.133L419.288 111.273C429.308 106.549 441.779 100.67 445.255 86.0964L448.567 72.2108L446.117 71.6263Z" fill="#579ADF" fill-opacity="1.000000" fill-rule="nonzero"/>
		</g>
	</g>
	<rect id="helmet_red" width="62.110397" height="64.739738" transform="matrix(-1 0 0 1 398.904 0)" fill="#FFFFFF" fill-opacity="0"/>
	<g clip-path="url(#clip92_625)">
		<g filter="url(#filter_92_627_dd)">
			<path id="Vector" d="M353.163 45.8927C352.535 48.4436 351.909 50.9924 351.286 53.5393C357.024 56.823 364.269 58.6567 373.37 58.6598L373.37 48.1287L353.163 45.8927Z" fill="#535353" fill-opacity="1.000000" fill-rule="evenodd"/>
			<path id="Vector" d="M393.561 45.8927C394.197 48.4436 394.828 50.9924 395.454 53.5393C389.703 56.823 382.475 58.6567 373.37 58.6598L373.37 48.1287L393.561 45.8927Z" fill="#676767" fill-opacity="1.000000" fill-rule="evenodd"/>
			<path id="Vector" d="M377.887 18.4393C390.997 6.8457 366.208 7.94434 359.222 2.07031C358.729 2.56079 358.436 3.15051 358.381 3.76624C358.326 4.38184 358.51 4.99622 358.911 5.53296C355.809 7.45947 350.357 4.83105 347.401 8.52344C350.751 8.37866 352.791 9.38281 354.035 10.7271C344.847 9.66309 348.442 16.1383 340.589 16.5034C346.439 18.9808 360.179 14.2244 368.674 20.0133C372.51 19.9062 374.052 18.5558 377.887 18.4393Z" fill="#1B2241" fill-opacity="1.000000" fill-rule="evenodd"/>
			<path id="Vector" d="M340.594 16.3964C346.384 18.9551 360.024 14.0797 368.457 20.0133C370.026 19.9467 371.57 19.6752 373.025 19.21C361.995 9.46887 352.208 18.1161 340.589 16.3964L340.594 16.3964Z" fill="#1A1A1A" fill-opacity="1.000000" fill-rule="evenodd"/>
			<path id="Vector" d="M377.121 17.4546C375.607 17.5725 374.123 17.8446 372.708 18.2633L372.608 18.2881C373.102 17.7366 373.588 17.1849 374.065 16.6334C378.404 12.9429 369.273 8.5769 363.736 7.6814C361.742 8.97046 358.669 8.35999 357.095 9.26477C358.453 10.3617 359.294 12.2581 360.655 13.355C345.109 11.7809 352.191 15.524 344.73 16.2491C345.232 15.9952 345.689 15.6942 346.088 15.3536C348.586 13.2311 348.215 10.9133 353.661 11.533L356.692 11.877C356.156 11.3234 355.616 10.7708 355.072 10.2191C353.844 8.93799 351.997 8.06152 349.918 7.77429C350.405 7.56213 350.942 7.42017 351.5 7.35596C352.032 7.29602 352.569 7.26404 353.107 7.26001C355.53 7.21655 357.841 7.35913 359.768 6.2002L360.484 5.76331C360.343 5.57117 360.197 5.3822 360.068 5.19312C359.746 4.76892 359.61 4.28015 359.681 3.79565C362.179 5.20557 365.635 6.15369 368.595 6.9408C370.939 7.56055 373.399 8.1803 375.623 8.95178C377.192 9.50342 378.953 10.2688 379.786 11.316C381.297 13.2683 378.962 15.806 377.121 17.4546Z" fill="#4386BB" fill-opacity="1.000000" fill-rule="evenodd"/>
			<path id="Vector" d="M374.938 17.7112C374.15 17.8655 373.373 18.0497 372.61 18.2632L372.51 18.2881C373.003 17.733 373.487 17.178 373.963 16.6228C378.286 12.9087 369.187 8.51477 363.669 7.61353C361.682 8.91077 358.62 8.29651 357.052 9.20703C358.405 10.311 359.243 12.2195 360.599 13.3235C345.108 11.7393 352.165 15.5065 344.73 16.2362C348.601 15.4784 348.531 12.7404 350.729 12.0823C352.928 11.4243 355.832 12.9399 358.048 12.2819C357.816 11.0127 356.766 9.98047 355.239 8.40564C357.359 7.44202 362.707 8.30273 361.595 5.521C366.354 9.46594 381.683 7.83179 375.867 17.3713L374.938 17.7112Z" fill="#283A84" fill-opacity="1.000000" fill-rule="evenodd"/>
			<path id="Vector" d="M366.469 21.2211C366.469 23.7937 369.636 25.8793 373.542 25.8793C377.449 25.8793 380.616 23.7937 380.616 21.2211C380.616 18.6483 377.449 16.5627 373.542 16.5627C369.636 16.5627 366.469 18.6483 366.469 21.2211Z" fill="#CDCCCC" fill-opacity="1.000000" fill-rule="evenodd"/>
			<path id="Vector" d="M373.511 21.3936C364.643 21.3936 357.065 24.9095 354.034 29.8694C352.406 30.3921 351.286 31.4688 351.286 32.7009C351.295 33.1105 351.418 33.5143 351.649 33.8859C351.88 34.2573 352.213 34.5884 352.627 34.8572C352.777 42.1102 362.07 47.963 373.511 47.963C384.953 47.963 394.213 42.1227 394.387 34.8883C394.82 34.6185 395.169 34.2825 395.413 33.903C395.656 33.5234 395.788 33.1093 395.799 32.6885C395.799 31.4438 394.641 30.3455 392.976 29.832C389.932 24.8848 382.367 21.3936 373.511 21.3936Z" fill="#8B8A8A" fill-opacity="1.000000" fill-rule="evenodd"/>
			<path id="Vector" d="M376.821 41.0619C369.023 41.0619 362.673 37.0402 362.673 32.0905C362.673 27.1406 369.035 23.1189 376.821 23.1189C384.606 23.1189 390.968 27.1406 390.968 32.0905C390.968 37.0402 384.623 41.0619 376.821 41.0619Z" fill="#989898" fill-opacity="1.000000" fill-rule="evenodd"/>
			<path id="Vector" d="M381.134 31.0552C378.186 31.0552 375.785 29.504 375.785 27.6046C375.785 25.7052 378.186 24.1541 381.134 24.1541C384.081 24.1541 386.482 25.702 386.482 27.6046C386.482 29.5072 384.056 31.0552 381.134 31.0552Z" fill="#ACACAC" fill-opacity="1.000000" fill-rule="evenodd"/>
			<path id="Vector" d="M373.37 28.9851L373.572 28.9851C376.393 28.9742 379.193 29.3553 381.835 30.1097L397.179 34.4668L397.179 47.4497C390.465 53.3914 382.637 58.0446 373.37 61.0752L373.37 28.9851Z" fill="#CDCCCC" fill-opacity="1.000000" fill-rule="evenodd"/>
			<path id="Vector" d="M376.821 31.0552C378.043 31.2098 379.243 31.4587 380.402 31.7979L383.343 32.6449L383.343 54.3726C381.267 55.5693 379.09 56.6559 376.825 57.6246L376.825 31.0552L376.821 31.0552ZM384.724 33.0431L389.3 34.361L389.3 50.479C387.853 51.5441 386.33 52.5743 384.724 53.5541L384.724 33.0431ZM390.677 34.756L393.728 35.6346L393.728 46.9045C392.751 47.7642 391.733 48.6069 390.677 49.4329L390.677 34.756Z" fill="#333333" fill-opacity="1.000000" fill-rule="evenodd"/>
			<path id="Vector" d="M373.37 28.985L373.168 28.985C370.354 28.9761 367.561 29.3572 364.926 30.1097L349.561 34.4636L349.561 47.4465C356.279 53.3914 364.108 58.0446 373.37 61.0752L373.37 28.985Z" fill="#B4B4B4" fill-opacity="1.000000" fill-rule="evenodd"/>
			<path id="Vector" d="M369.919 31.0552C368.672 31.2103 367.447 31.4591 366.264 31.7979L363.262 32.6449L363.262 54.3726C365.381 55.5687 367.604 56.6552 369.915 57.6246L369.915 31.0552L369.919 31.0552ZM361.852 33.0431L357.187 34.361L357.187 50.479C358.659 51.5441 360.214 52.5743 361.852 53.5541L361.852 33.0431ZM355.777 34.756L352.667 35.6346L352.667 46.9045C353.662 47.7642 354.699 48.6069 355.777 49.4329L355.777 34.756Z" fill="#1A1A1A" fill-opacity="1.000000" fill-rule="evenodd"/>
			<path id="Vector" d="M375.327 17.5979C374.003 17.5979 373.368 18.2173 373.907 18.9781C374.248 19.3845 374.738 19.7247 375.329 19.9664C375.92 20.208 376.593 20.343 377.283 20.3584C378.603 20.3584 379.238 19.7418 378.699 18.9781C378.357 18.5725 377.868 18.2328 377.278 17.9912C376.688 17.7496 376.017 17.6143 375.327 17.5979Z" fill="#E3E3E3" fill-opacity="1.000000" fill-rule="evenodd"/>
		</g>
	</g>
	<rect id="sword_red" width="58.683975" height="105.380638" transform="matrix(-1 0 0 1 342.684 0)" fill="#FFFFFF" fill-opacity="0"/>
	<g clip-path="url(#clip92_643)">
		<g filter="url(#filter_92_645_dd)">
			<path id="Vector" d="M341.879 96.0657L341.603 96.2086C341.29 96.3767 340.941 96.4684 340.586 96.4761C340.23 96.4838 339.878 96.4074 339.558 96.2531C339.233 96.1083 338.947 95.8891 338.723 95.6132C338.499 95.3373 338.343 95.0125 338.268 94.6651C337.633 91.8894 336.363 88.4976 334.555 84.9945C332.748 81.4916 330.719 78.4935 328.839 76.3689C328.603 76.1041 328.431 75.7891 328.336 75.4476C328.241 75.1063 328.225 74.7477 328.289 74.3993C328.354 74.0509 328.498 73.7219 328.709 73.4374C328.92 73.1528 329.194 72.9204 329.509 72.7579L329.788 72.615L328.638 70.3918L323.239 73.174L317.84 75.9528L318.99 78.1759L319.266 78.033C319.582 77.8676 319.932 77.7771 320.289 77.7687C320.646 77.7604 321 77.8342 321.324 77.9847C321.648 78.1353 321.932 78.3583 322.156 78.6365C322.38 78.9147 322.536 79.2407 322.613 79.5892C323.249 82.3617 324.519 85.7567 326.326 89.2566C328.133 92.7564 330.163 95.7576 332.043 97.8823C332.279 98.1473 332.451 98.4626 332.546 98.8042C332.641 99.1458 332.657 99.5046 332.592 99.8533C332.527 100.202 332.384 100.531 332.173 100.816C331.961 101.101 331.688 101.333 331.373 101.496L331.094 101.639L332.243 103.862L337.642 101.084L343.029 98.292L341.879 96.0657Z" fill="#4592CF" fill-opacity="1.000000" fill-rule="evenodd"/>
			<path id="Vector" d="M328.135 77.6797C327.245 78.1443 328.482 82.3674 330.901 87.1062C333.321 91.8448 336.006 95.3137 336.88 94.8491C337.755 94.3845 336.534 90.1614 334.114 85.4226C331.694 80.684 329.026 77.2151 328.135 77.6797Z" fill="#283A84" fill-opacity="1.000000" fill-rule="evenodd"/>
			<path id="Vector" d="M288.855 6.90112L291.749 23.2534L318.744 75.5676L327.501 71.0477L300.506 18.7336L288.855 6.90112Z" fill="#D1D2D2" fill-opacity="1.000000" fill-rule="evenodd"/>
			<path id="Vector" d="M297.59 15.7341L292.994 12.741L294.61 22.4965L318.875 75.5676L291.761 23.2534L288.855 6.90112L297.59 15.7341Z" fill="#E6E6E5" fill-opacity="1.000000" fill-rule="evenodd"/>
			<path id="Vector" d="M296.446 21.7386L309.201 47.7889L321.959 73.8424L323.352 73.1338L324.741 72.4252L310.594 47.0835L296.446 21.7386Z" fill="#818181" fill-opacity="1.000000" fill-rule="evenodd"/>
			<path id="Vector" d="M330.169 67.906L314.729 75.9181C313.935 75.3434 312.972 75.0544 311.995 75.0977C311.018 75.1409 310.084 75.5138 309.343 76.1564C308.602 76.799 308.098 77.6736 307.913 78.6394C307.727 79.6051 307.87 80.6057 308.318 81.4797C308.767 82.3538 309.496 83.0504 310.386 83.4572C311.277 83.8639 312.278 83.9573 313.228 83.7219C314.177 83.4867 315.021 82.9366 315.621 82.1604C316.222 81.3842 316.546 80.427 316.54 79.4434L331.979 71.4313C332.774 72.0076 333.739 72.2976 334.718 72.2549C335.697 72.2122 336.633 71.839 337.375 71.1956C338.117 70.5521 338.622 69.676 338.809 68.7086C338.995 67.7412 338.852 66.7389 338.402 65.8633C337.953 64.9878 337.223 64.29 336.331 63.8827C335.439 63.4753 334.436 63.3822 333.485 63.6183C332.533 63.8542 331.689 64.4058 331.087 65.1836C330.486 65.9615 330.162 66.9205 330.169 67.906Z" fill="#333333" fill-opacity="1.000000" fill-rule="evenodd"/>
		</g>
	</g>
	<g filter="url(#filter_92_652_dd)">
		<path id="Guccio Gucci S.p.A." d="M330.565 152.566L329.689 152.878C329.553 152.494 329.353 152.15 329.089 151.846C328.889 151.638 328.697 151.47 328.513 151.342C328.017 150.998 327.405 150.826 326.677 150.826C326.005 150.826 325.413 150.99 324.901 151.318C324.365 151.654 323.957 152.094 323.677 152.638C323.389 153.182 323.245 153.774 323.245 154.414C323.245 155.422 323.549 156.274 324.157 156.97C324.789 157.682 325.633 158.038 326.689 158.038C327.489 158.038 328.185 157.81 328.777 157.354C329.393 156.882 329.725 156.238 329.773 155.422L326.125 155.422L326.125 154.57L330.757 154.57L330.757 154.906C330.757 156.026 330.397 156.966 329.677 157.726C328.925 158.502 327.925 158.89 326.677 158.89C325.349 158.89 324.285 158.466 323.485 157.618C322.693 156.778 322.297 155.726 322.297 154.462C322.297 153.63 322.489 152.87 322.873 152.182C323.257 151.494 323.785 150.954 324.457 150.562C325.121 150.17 325.869 149.974 326.701 149.974C327.757 149.974 328.613 150.238 329.269 150.766C329.885 151.246 330.317 151.846 330.565 152.566ZM332.183 152.842L333.047 152.842L333.047 156.31C333.047 156.87 333.191 157.31 333.479 157.63C333.751 157.958 334.159 158.122 334.703 158.122C335.215 158.122 335.639 157.942 335.975 157.582C336.311 157.222 336.479 156.774 336.479 156.238L336.479 152.842L337.343 152.842L337.343 158.806L336.491 158.806L336.491 157.714C336.011 158.522 335.327 158.926 334.439 158.926C333.743 158.926 333.188 158.706 332.771 158.266C332.379 157.826 332.183 157.246 332.183 156.526L332.183 152.842ZM339.766 155.794C339.766 156.69 340.102 157.358 340.774 157.798C341.102 158.022 341.486 158.134 341.926 158.134C342.406 158.134 342.814 158.01 343.15 157.762C343.27 157.674 343.394 157.554 343.522 157.402C343.698 157.17 343.83 156.938 343.918 156.706L344.722 156.97C344.586 157.45 344.282 157.882 343.81 158.266C343.298 158.698 342.666 158.914 341.914 158.914C341.058 158.93 340.334 158.642 339.742 158.05C339.158 157.458 338.87 156.722 338.878 155.842C338.878 155.266 339.018 154.734 339.298 154.246C339.578 153.766 339.95 153.394 340.414 153.13C340.878 152.866 341.39 152.734 341.95 152.734C342.622 152.734 343.214 152.918 343.726 153.286C344.246 153.678 344.566 154.13 344.686 154.642L343.894 154.906C343.806 154.586 343.59 154.274 343.246 153.97C342.91 153.666 342.47 153.514 341.926 153.514C341.302 153.514 340.786 153.734 340.378 154.174C339.97 154.622 339.766 155.162 339.766 155.794ZM346.633 155.794C346.633 156.69 346.969 157.358 347.641 157.798C347.969 158.022 348.353 158.134 348.793 158.134C349.273 158.134 349.681 158.01 350.017 157.762C350.137 157.674 350.261 157.554 350.389 157.402C350.565 157.17 350.697 156.938 350.785 156.706L351.589 156.97C351.453 157.45 351.149 157.882 350.677 158.266C350.165 158.698 349.533 158.914 348.781 158.914C347.925 158.93 347.201 158.642 346.609 158.05C346.025 157.458 345.737 156.722 345.745 155.842C345.745 155.266 345.885 154.734 346.165 154.246C346.445 153.766 346.817 153.394 347.281 153.13C347.745 152.866 348.257 152.734 348.817 152.734C349.489 152.734 350.081 152.918 350.593 153.286C351.113 153.678 351.433 154.13 351.553 154.642L350.761 154.906C350.673 154.586 350.457 154.274 350.113 153.97C349.777 153.666 349.337 153.514 348.793 153.514C348.169 153.514 347.653 153.734 347.245 154.174C346.837 154.622 346.633 155.162 346.633 155.794ZM353.021 151.174C352.893 151.03 352.829 150.874 352.829 150.706C352.829 150.538 352.893 150.382 353.021 150.238C353.149 150.11 353.305 150.046 353.489 150.046C353.665 150.046 353.817 150.11 353.945 150.238C354.073 150.366 354.137 150.522 354.137 150.706C354.137 150.89 354.073 151.046 353.945 151.174C353.817 151.302 353.665 151.366 353.489 151.366C353.305 151.366 353.149 151.302 353.021 151.174ZM353.045 158.806L353.045 152.842L353.921 152.842L353.921 158.806L353.045 158.806ZM358.52 158.914C357.968 158.914 357.452 158.778 356.972 158.506C356.5 158.226 356.132 157.854 355.868 157.39C355.596 156.926 355.46 156.41 355.46 155.842C355.46 154.954 355.756 154.218 356.348 153.634C356.94 153.034 357.672 152.734 358.544 152.734C359.392 152.718 360.12 153.018 360.728 153.634C361.344 154.242 361.644 154.966 361.628 155.806C361.644 156.67 361.344 157.41 360.728 158.026C360.112 158.634 359.376 158.93 358.52 158.914ZM358.544 158.134C359.168 158.134 359.692 157.91 360.116 157.462C360.524 157.014 360.728 156.474 360.728 155.842C360.728 155.202 360.52 154.65 360.104 154.186C359.68 153.73 359.152 153.502 358.52 153.502C357.888 153.502 357.368 153.726 356.96 154.174C356.552 154.622 356.348 155.166 356.348 155.806C356.332 156.438 356.536 156.986 356.96 157.45C357.392 157.914 357.92 158.142 358.544 158.134ZM374.159 152.566L373.283 152.878C373.147 152.494 372.947 152.15 372.683 151.846C372.483 151.638 372.291 151.47 372.107 151.342C371.611 150.998 370.999 150.826 370.271 150.826C369.599 150.826 369.007 150.99 368.495 151.318C367.959 151.654 367.551 152.094 367.271 152.638C366.983 153.182 366.839 153.774 366.839 154.414C366.839 155.422 367.143 156.274 367.751 156.97C368.383 157.682 369.227 158.038 370.283 158.038C371.083 158.038 371.779 157.81 372.371 157.354C372.987 156.882 373.319 156.238 373.367 155.422L369.719 155.422L369.719 154.57L374.351 154.57L374.351 154.906C374.351 156.026 373.991 156.966 373.271 157.726C372.519 158.502 371.519 158.89 370.271 158.89C368.943 158.89 367.879 158.466 367.079 157.618C366.287 156.778 365.891 155.726 365.891 154.462C365.891 153.63 366.083 152.87 366.467 152.182C366.851 151.494 367.379 150.954 368.051 150.562C368.715 150.17 369.463 149.974 370.295 149.974C371.351 149.974 372.207 150.238 372.863 150.766C373.479 151.246 373.911 151.846 374.159 152.566ZM375.777 152.842L376.641 152.842L376.641 156.31C376.641 156.87 376.785 157.31 377.073 157.63C377.345 157.958 377.753 158.122 378.297 158.122C378.809 158.122 379.233 157.942 379.569 157.582C379.905 157.222 380.073 156.774 380.073 156.238L380.073 152.842L380.937 152.842L380.937 158.806L380.085 158.806L380.085 157.714C379.605 158.522 378.921 158.926 378.033 158.926C377.337 158.926 376.781 158.706 376.365 158.266C375.973 157.826 375.777 157.246 375.777 156.526L375.777 152.842ZM383.36 155.794C383.36 156.69 383.696 157.358 384.368 157.798C384.696 158.022 385.08 158.134 385.52 158.134C386 158.134 386.408 158.01 386.744 157.762C386.864 157.674 386.988 157.554 387.116 157.402C387.292 157.17 387.424 156.938 387.512 156.706L388.316 156.97C388.18 157.45 387.876 157.882 387.404 158.266C386.892 158.698 386.26 158.914 385.508 158.914C384.652 158.93 383.928 158.642 383.336 158.05C382.752 157.458 382.464 156.722 382.472 155.842C382.472 155.266 382.612 154.734 382.892 154.246C383.172 153.766 383.544 153.394 384.008 153.13C384.472 152.866 384.984 152.734 385.544 152.734C386.216 152.734 386.808 152.918 387.32 153.286C387.84 153.678 388.16 154.13 388.28 154.642L387.488 154.906C387.4 154.586 387.184 154.274 386.84 153.97C386.504 153.666 386.064 153.514 385.52 153.514C384.896 153.514 384.38 153.734 383.972 154.174C383.564 154.622 383.36 155.162 383.36 155.794ZM390.227 155.794C390.227 156.69 390.563 157.358 391.235 157.798C391.563 158.022 391.947 158.134 392.387 158.134C392.867 158.134 393.275 158.01 393.611 157.762C393.731 157.674 393.855 157.554 393.983 157.402C394.159 157.17 394.291 156.938 394.379 156.706L395.183 156.97C395.047 157.45 394.743 157.882 394.271 158.266C393.759 158.698 393.127 158.914 392.375 158.914C391.519 158.93 390.795 158.642 390.203 158.05C389.619 157.458 389.331 156.722 389.339 155.842C389.339 155.266 389.479 154.734 389.759 154.246C390.039 153.766 390.411 153.394 390.875 153.13C391.339 152.866 391.851 152.734 392.411 152.734C393.083 152.734 393.675 152.918 394.187 153.286C394.707 153.678 395.027 154.13 395.147 154.642L394.355 154.906C394.267 154.586 394.051 154.274 393.707 153.97C393.371 153.666 392.931 153.514 392.387 153.514C391.763 153.514 391.247 153.734 390.839 154.174C390.431 154.622 390.227 155.162 390.227 155.794ZM396.614 151.174C396.486 151.03 396.422 150.874 396.422 150.706C396.422 150.538 396.486 150.382 396.614 150.238C396.742 150.11 396.898 150.046 397.082 150.046C397.258 150.046 397.41 150.11 397.538 150.238C397.666 150.366 397.73 150.522 397.73 150.706C397.73 150.89 397.666 151.046 397.538 151.174C397.41 151.302 397.258 151.366 397.082 151.366C396.898 151.366 396.742 151.302 396.614 151.174ZM396.638 158.806L396.638 152.842L397.514 152.842L397.514 158.806L396.638 158.806ZM405.255 158.89C404.407 158.89 403.695 158.634 403.119 158.122C402.559 157.634 402.239 157.066 402.159 156.418L403.023 156.178C403.119 156.69 403.383 157.126 403.815 157.486C404.239 157.846 404.719 158.026 405.255 158.026C405.791 158.026 406.239 157.898 406.599 157.642C407.007 157.362 407.211 156.958 407.211 156.43C407.211 155.886 406.967 155.47 406.479 155.182C406.255 155.046 405.979 154.946 405.651 154.882L404.499 154.654C404.267 154.606 404.011 154.522 403.731 154.402C403.443 154.266 403.203 154.102 403.011 153.91C402.603 153.51 402.399 153.006 402.399 152.398C402.399 151.918 402.531 151.49 402.795 151.114C403.051 150.746 403.391 150.458 403.815 150.25C404.231 150.058 404.683 149.962 405.171 149.962C406.027 149.962 406.695 150.174 407.175 150.598C407.663 151.022 407.959 151.51 408.063 152.062L407.223 152.326C407.135 151.934 406.919 151.586 406.575 151.282C406.239 150.97 405.767 150.814 405.159 150.814C404.679 150.798 404.251 150.942 403.875 151.246C403.499 151.55 403.315 151.922 403.323 152.362C403.323 152.706 403.431 153.002 403.647 153.25C403.863 153.498 404.179 153.662 404.595 153.742L405.699 153.958C406.459 154.102 407.027 154.358 407.403 154.726C407.659 154.958 407.851 155.226 407.979 155.53C408.099 155.826 408.159 156.094 408.159 156.334C408.167 157.094 407.891 157.714 407.331 158.194C406.771 158.674 406.079 158.906 405.255 158.89ZM409.775 158.674C409.615 158.498 409.535 158.306 409.535 158.098C409.535 157.882 409.615 157.694 409.775 157.534C409.927 157.382 410.115 157.306 410.339 157.306C410.563 157.306 410.751 157.382 410.903 157.534C411.063 157.694 411.143 157.882 411.143 158.098C411.143 158.306 411.063 158.498 410.903 158.674C410.751 158.826 410.563 158.902 410.339 158.902C410.115 158.902 409.927 158.826 409.775 158.674ZM418.856 155.818C418.856 156.362 418.74 156.866 418.508 157.33C418.276 157.794 417.948 158.17 417.524 158.458C417.092 158.746 416.6 158.89 416.048 158.89C415.072 158.89 414.308 158.454 413.756 157.582L413.756 161.746L412.88 161.746L412.88 152.842L413.732 152.842L413.732 154.138C414.348 153.202 415.12 152.734 416.048 152.734C416.896 152.734 417.58 153.054 418.1 153.694C418.604 154.318 418.856 155.026 418.856 155.818ZM415.88 158.134C416.504 158.134 417.012 157.914 417.404 157.474C417.78 157.026 417.968 156.482 417.968 155.842C417.968 154.938 417.644 154.27 416.996 153.838C416.684 153.622 416.312 153.514 415.88 153.514C415.288 153.506 414.78 153.734 414.356 154.198C413.932 154.662 413.728 155.198 413.744 155.806C413.744 156.446 413.944 156.99 414.344 157.438C414.753 157.902 415.264 158.134 415.88 158.134ZM420.404 158.674C420.244 158.498 420.164 158.306 420.164 158.098C420.164 157.882 420.244 157.694 420.404 157.534C420.556 157.382 420.744 157.306 420.968 157.306C421.192 157.306 421.38 157.382 421.532 157.534C421.692 157.694 421.772 157.882 421.772 158.098C421.772 158.306 421.692 158.498 421.532 158.674C421.38 158.826 421.192 158.902 420.968 158.902C420.744 158.902 420.556 158.826 420.404 158.674ZM430.181 158.806L429.221 156.574L424.457 156.574L423.497 158.806L422.561 158.806L426.329 150.058L427.373 150.058L431.153 158.806L430.181 158.806ZM428.873 155.734L426.833 151.006L424.805 155.734L428.873 155.734ZM432.182 158.674C432.022 158.498 431.942 158.306 431.942 158.098C431.942 157.882 432.022 157.694 432.182 157.534C432.334 157.382 432.522 157.306 432.746 157.306C432.97 157.306 433.158 157.382 433.31 157.534C433.47 157.694 433.55 157.882 433.55 158.098C433.55 158.306 433.47 158.498 433.31 158.674C433.158 158.826 432.97 158.902 432.746 158.902C432.522 158.902 432.334 158.826 432.182 158.674Z" fill="#FFFFFF" fill-opacity="1.000000" fill-rule="evenodd"/>
	</g>
</svg>
