<svg width="212.000000" height="109.000000" viewBox="0 0 212 109" fill="none" xmlns="http://www.w3.org/2000/svg" xmlns:xlink="http://www.w3.org/1999/xlink">
	<desc>
			Created with Pixso.
	</desc>
	<defs>
		<clipPath id="clip108_6078">
			<rect id="mercedes-benz-9-logo-svgrepo-com 1" width="31.289482" height="31.289482" transform="translate(28.825195 31.450317) rotate(-0.000000)" fill="white" fill-opacity="0"/>
		</clipPath>
		<clipPath id="clip108_6077">
			<rect id="mbg" rx="47" ry="47" width="45.934223" height="45.934223" transform="translate(21.502441 24.127930) rotate(-0.000000)" fill="white" fill-opacity="0"/>
		</clipPath>
		<filter id="filter_108_6105_dd" x="3.686523" y="28.471619" width="30.128418" height="34.757202" filterUnits="userSpaceOnUse" color-interpolation-filters="sRGB">
			<feFlood flood-opacity="0" result="BackgroundImageFix"/>
			<feColorMatrix in="SourceAlpha" type="matrix" values="0 0 0 0 0 0 0 0 0 0 0 0 0 0 0 0 0 0 127 0" result="hardAlpha"/>
			<feOffset dx="0" dy="4"/>
			<feGaussianBlur stdDeviation="1.33333"/>
			<feComposite in2="hardAlpha" operator="out" k2="-1" k3="1"/>
			<feColorMatrix type="matrix" values="0 0 0 0 0 0 0 0 0 0 0 0 0 0 0 0 0 0 0.25 0"/>
			<feBlend mode="normal" in2="BackgroundImageFix" result="effect_dropShadow_1"/>
			<feBlend mode="normal" in="SourceGraphic" in2="effect_dropShadow_1" result="shape"/>
		</filter>
		<filter id="filter_108_6106_dd" x="3.686523" y="28.759277" width="23.309570" height="34.469543" filterUnits="userSpaceOnUse" color-interpolation-filters="sRGB">
			<feFlood flood-opacity="0" result="BackgroundImageFix"/>
			<feColorMatrix in="SourceAlpha" type="matrix" values="0 0 0 0 0 0 0 0 0 0 0 0 0 0 0 0 0 0 127 0" result="hardAlpha"/>
			<feOffset dx="0" dy="4"/>
			<feGaussianBlur stdDeviation="1.33333"/>
			<feComposite in2="hardAlpha" operator="out" k2="-1" k3="1"/>
			<feColorMatrix type="matrix" values="0 0 0 0 0 0 0 0 0 0 0 0 0 0 0 0 0 0 0.25 0"/>
			<feBlend mode="normal" in2="BackgroundImageFix" result="effect_dropShadow_1"/>
			<feBlend mode="normal" in="SourceGraphic" in2="effect_dropShadow_1" result="shape"/>
		</filter>
		<clipPath id="clip108_6104">
			<rect id="shield-antivirus-svgrepo-com 1" width="35.689922" height="35.689926" transform="matrix(-0.972708 0.232033 0.232033 0.972708 34.7158 19.7012)" fill="white" fill-opacity="0"/>
		</clipPath>
		<filter id="filter_108_6109_dd" x="22.778809" y="-4.980957" width="47.853516" height="49.042236" filterUnits="userSpaceOnUse" color-interpolation-filters="sRGB">
			<feFlood flood-opacity="0" result="BackgroundImageFix"/>
			<feColorMatrix in="SourceAlpha" type="matrix" values="0 0 0 0 0 0 0 0 0 0 0 0 0 0 0 0 0 0 127 0" result="hardAlpha"/>
			<feOffset dx="0" dy="4"/>
			<feGaussianBlur stdDeviation="3.33333"/>
			<feComposite in2="hardAlpha" operator="out" k2="-1" k3="1"/>
			<feColorMatrix type="matrix" values="0 0 0 0 0 0 0 0 0 0 0 0 0 0 0 0 0 0 0.5 0"/>
			<feBlend mode="normal" in2="BackgroundImageFix" result="effect_dropShadow_1"/>
			<feBlend mode="normal" in="SourceGraphic" in2="effect_dropShadow_1" result="shape"/>
		</filter>
		<clipPath id="clip108_6107">
			<rect id="helmet_red" width="30.570757" height="31.864920" transform="translate(31.929688 0.000000)" fill="white" fill-opacity="0"/>
		</clipPath>
		<filter id="filter_108_6127_dd" x="49.443359" y="-2.603271" width="46.664551" height="67.724365" filterUnits="userSpaceOnUse" color-interpolation-filters="sRGB">
			<feFlood flood-opacity="0" result="BackgroundImageFix"/>
			<feColorMatrix in="SourceAlpha" type="matrix" values="0 0 0 0 0 0 0 0 0 0 0 0 0 0 0 0 0 0 127 0" result="hardAlpha"/>
			<feOffset dx="0" dy="4"/>
			<feGaussianBlur stdDeviation="3.33333"/>
			<feComposite in2="hardAlpha" operator="out" k2="-1" k3="1"/>
			<feColorMatrix type="matrix" values="0 0 0 0 0 0 0 0 0 0 0 0 0 0 0 0 0 0 0.5 0"/>
			<feBlend mode="normal" in2="BackgroundImageFix" result="effect_dropShadow_1"/>
			<feBlend mode="normal" in="SourceGraphic" in2="effect_dropShadow_1" result="shape"/>
		</filter>
		<clipPath id="clip108_6125">
			<rect id="sword_red" width="28.884270" height="51.868382" transform="translate(59.612793 0.000000)" fill="white" fill-opacity="0"/>
		</clipPath>
		<filter id="filter_108_6134_dd" x="12.989258" y="74.710022" width="62.390625" height="26.203979" filterUnits="userSpaceOnUse" color-interpolation-filters="sRGB">
			<feFlood flood-opacity="0" result="BackgroundImageFix"/>
			<feColorMatrix in="SourceAlpha" type="matrix" values="0 0 0 0 0 0 0 0 0 0 0 0 0 0 0 0 0 0 127 0" result="hardAlpha"/>
			<feOffset dx="0" dy="2"/>
			<feGaussianBlur stdDeviation="0.666667"/>
			<feComposite in2="hardAlpha" operator="out" k2="-1" k3="1"/>
			<feColorMatrix type="matrix" values="0 0 0 0 0 0 0 0 0 0 0 0 0 0 0 0 0 0 0.5 0"/>
			<feBlend mode="normal" in2="BackgroundImageFix" result="effect_dropShadow_1"/>
			<feBlend mode="normal" in="SourceGraphic" in2="effect_dropShadow_1" result="shape"/>
		</filter>
		<clipPath id="clip108_6137">
			<rect id="jaguar-cars 1" width="39.111851" height="18.773689" transform="translate(147.773438 37.708191)" fill="white" fill-opacity="0"/>
		</clipPath>
		<clipPath id="clip108_6136">
			<rect id="jaguar" rx="47" ry="47" width="45.934223" height="45.934223" transform="translate(143.580078 24.127930)" fill="white" fill-opacity="0"/>
		</clipPath>
		<filter id="filter_108_6153_dd" x="174.071777" y="28.542847" width="30.212891" height="34.859070" filterUnits="userSpaceOnUse" color-interpolation-filters="sRGB">
			<feFlood flood-opacity="0" result="BackgroundImageFix"/>
			<feColorMatrix in="SourceAlpha" type="matrix" values="0 0 0 0 0 0 0 0 0 0 0 0 0 0 0 0 0 0 127 0" result="hardAlpha"/>
			<feOffset dx="-4" dy="4"/>
			<feGaussianBlur stdDeviation="1.33333"/>
			<feComposite in2="hardAlpha" operator="out" k2="-1" k3="1"/>
			<feColorMatrix type="matrix" values="0 0 0 0 0 0 0 0 0 0 0 0 0 0 0 0 0 0 0.25 0"/>
			<feBlend mode="normal" in2="BackgroundImageFix" result="effect_dropShadow_1"/>
			<feBlend mode="normal" in="SourceGraphic" in2="effect_dropShadow_1" result="shape"/>
		</filter>
		<filter id="filter_108_6154_dd" x="180.916504" y="28.831665" width="23.368164" height="34.570251" filterUnits="userSpaceOnUse" color-interpolation-filters="sRGB">
			<feFlood flood-opacity="0" result="BackgroundImageFix"/>
			<feColorMatrix in="SourceAlpha" type="matrix" values="0 0 0 0 0 0 0 0 0 0 0 0 0 0 0 0 0 0 127 0" result="hardAlpha"/>
			<feOffset dx="-4" dy="4"/>
			<feGaussianBlur stdDeviation="1.33333"/>
			<feComposite in2="hardAlpha" operator="out" k2="-1" k3="1"/>
			<feColorMatrix type="matrix" values="0 0 0 0 0 0 0 0 0 0 0 0 0 0 0 0 0 0 0.25 0"/>
			<feBlend mode="normal" in2="BackgroundImageFix" result="effect_dropShadow_1"/>
			<feBlend mode="normal" in="SourceGraphic" in2="effect_dropShadow_1" result="shape"/>
		</filter>
		<clipPath id="clip108_6152">
			<rect id="shield-antivirus-svgrepo-com 1" width="35.825710" height="35.825710" transform="translate(177.151855 19.739014) rotate(-13.416809)" fill="white" fill-opacity="0"/>
		</clipPath>
		<filter id="filter_108_6157_dd" x="140.935547" y="-4.977112" width="47.959473" height="49.152710" filterUnits="userSpaceOnUse" color-interpolation-filters="sRGB">
			<feFlood flood-opacity="0" result="BackgroundImageFix"/>
			<feColorMatrix in="SourceAlpha" type="matrix" values="0 0 0 0 0 0 0 0 0 0 0 0 0 0 0 0 0 0 127 0" result="hardAlpha"/>
			<feOffset dx="0" dy="4"/>
			<feGaussianBlur stdDeviation="3.33333"/>
			<feComposite in2="hardAlpha" operator="out" k2="-1" k3="1"/>
			<feColorMatrix type="matrix" values="0 0 0 0 0 0 0 0 0 0 0 0 0 0 0 0 0 0 0.5 0"/>
			<feBlend mode="normal" in2="BackgroundImageFix" result="effect_dropShadow_1"/>
			<feBlend mode="normal" in="SourceGraphic" in2="effect_dropShadow_1" result="shape"/>
		</filter>
		<clipPath id="clip108_6155">
			<rect id="helmet_red" width="30.687067" height="31.986153" transform="matrix(-1 0 0 1 179.748 0)" fill="white" fill-opacity="0"/>
		</clipPath>
		<filter id="filter_108_6175_dd" x="115.374512" y="-2.590332" width="46.766113" height="67.905945" filterUnits="userSpaceOnUse" color-interpolation-filters="sRGB">
			<feFlood flood-opacity="0" result="BackgroundImageFix"/>
			<feColorMatrix in="SourceAlpha" type="matrix" values="0 0 0 0 0 0 0 0 0 0 0 0 0 0 0 0 0 0 127 0" result="hardAlpha"/>
			<feOffset dx="0" dy="4"/>
			<feGaussianBlur stdDeviation="3.33333"/>
			<feComposite in2="hardAlpha" operator="out" k2="-1" k3="1"/>
			<feColorMatrix type="matrix" values="0 0 0 0 0 0 0 0 0 0 0 0 0 0 0 0 0 0 0.5 0"/>
			<feBlend mode="normal" in2="BackgroundImageFix" result="effect_dropShadow_1"/>
			<feBlend mode="normal" in="SourceGraphic" in2="effect_dropShadow_1" result="shape"/>
		</filter>
		<clipPath id="clip108_6173">
			<rect id="sword_red" width="28.994165" height="52.065723" transform="matrix(-1 0 0 1 151.97 0)" fill="white" fill-opacity="0"/>
		</clipPath>
		<filter id="filter_108_6182_dd" x="147.701660" y="75.057983" width="41.854492" height="15.736023" filterUnits="userSpaceOnUse" color-interpolation-filters="sRGB">
			<feFlood flood-opacity="0" result="BackgroundImageFix"/>
			<feColorMatrix in="SourceAlpha" type="matrix" values="0 0 0 0 0 0 0 0 0 0 0 0 0 0 0 0 0 0 127 0" result="hardAlpha"/>
			<feOffset dx="0" dy="2"/>
			<feGaussianBlur stdDeviation="0.666667"/>
			<feComposite in2="hardAlpha" operator="out" k2="-1" k3="1"/>
			<feColorMatrix type="matrix" values="0 0 0 0 0 0 0 0 0 0 0 0 0 0 0 0 0 0 0.5 0"/>
			<feBlend mode="normal" in2="BackgroundImageFix" result="effect_dropShadow_1"/>
			<feBlend mode="normal" in="SourceGraphic" in2="effect_dropShadow_1" result="shape"/>
		</filter>
		<filter id="filter_108_6184_dd" x="58.532715" y="4.343994" width="94.453125" height="83.645691" filterUnits="userSpaceOnUse" color-interpolation-filters="sRGB">
			<feFlood flood-opacity="0" result="BackgroundImageFix"/>
			<feColorMatrix in="SourceAlpha" type="matrix" values="0 0 0 0 0 0 0 0 0 0 0 0 0 0 0 0 0 0 127 0" result="hardAlpha"/>
			<feOffset dx="0" dy="0"/>
			<feGaussianBlur stdDeviation="8.33333"/>
			<feComposite in2="hardAlpha" operator="out" k2="-1" k3="1"/>
			<feColorMatrix type="matrix" values="0 0 0 0 0.98039 0 0 0 0 0.79216 0 0 0 0 0.34902 0 0 0 1 0"/>
			<feBlend mode="normal" in2="BackgroundImageFix" result="effect_dropShadow_1"/>
			<feBlend mode="normal" in="SourceGraphic" in2="effect_dropShadow_1" result="shape"/>
		</filter>
		<filter id="filter_108_6186_dd" x="90.176758" y="36.852844" width="29.480957" height="19.236694" filterUnits="userSpaceOnUse" color-interpolation-filters="sRGB">
			<feFlood flood-opacity="0" result="BackgroundImageFix"/>
			<feColorMatrix in="SourceAlpha" type="matrix" values="0 0 0 0 0 0 0 0 0 0 0 0 0 0 0 0 0 0 127 0" result="hardAlpha"/>
			<feOffset dx="0" dy="4"/>
			<feGaussianBlur stdDeviation="0.666667"/>
			<feComposite in2="hardAlpha" operator="out" k2="-1" k3="1"/>
			<feColorMatrix type="matrix" values="0 0 0 0 0 0 0 0 0 0 0 0 0 0 0 0 0 0 0.5 0"/>
			<feBlend mode="normal" in2="BackgroundImageFix" result="effect_dropShadow_1"/>
			<feBlend mode="normal" in="SourceGraphic" in2="effect_dropShadow_1" result="shape"/>
		</filter>
		<linearGradient id="paint_linear_108_6079_0" x1="32.734970" y1="37.267151" x2="56.204033" y2="56.922813" gradientUnits="userSpaceOnUse">
			<stop stop-color="#FFFFFF"/>
			<stop offset="0.100000" stop-color="#CDD0D0"/>
			<stop offset="0.200000" stop-color="#A5ACAF"/>
			<stop offset="0.300000" stop-color="#98A0A4"/>
			<stop offset="0.400000" stop-color="#828A8F"/>
			<stop offset="0.500000" stop-color="#667075"/>
			<stop offset="0.600000" stop-color="#535C63"/>
			<stop offset="0.700000" stop-color="#475158"/>
			<stop offset="0.800000" stop-color="#434D54"/>
			<stop offset="1.000000" stop-color="#475157"/>
		</linearGradient>
		<linearGradient id="paint_linear_108_6080_0" x1="33.455406" y1="37.834820" x2="55.455826" y2="56.315166" gradientUnits="userSpaceOnUse">
			<stop stop-color="#0B1F2A"/>
			<stop offset="0.200000" stop-color="#333F47"/>
			<stop offset="0.500000" stop-color="#81898D"/>
			<stop offset="0.700000" stop-color="#B3B8B8"/>
			<stop offset="0.800000" stop-color="#DEE0DD"/>
			<stop offset="1.000000" stop-color="#FBFBFB"/>
		</linearGradient>
		<linearGradient id="paint_linear_108_6081_0" x1="49.817024" y1="61.792805" x2="39.110153" y2="32.361622" gradientUnits="userSpaceOnUse">
			<stop stop-color="#E1E3E1"/>
			<stop offset="0.100000" stop-color="#C1C5C4"/>
			<stop offset="0.300000" stop-color="#9BA1A2"/>
			<stop offset="0.500000" stop-color="#7D8487"/>
			<stop offset="0.700000" stop-color="#687074" stop-opacity="0.000000"/>
			<stop offset="0.800000" stop-color="#5B6469" stop-opacity="0.000000"/>
			<stop offset="1.000000" stop-color="#576065" stop-opacity="0.000000"/>
		</linearGradient>
		<linearGradient id="paint_linear_108_6083_0" x1="37.723358" y1="35.410851" x2="51.215965" y2="58.779202" gradientUnits="userSpaceOnUse">
			<stop stop-color="#E1E3E1"/>
			<stop offset="0.100000" stop-color="#C1C5C4"/>
			<stop offset="0.300000" stop-color="#9BA1A2"/>
			<stop offset="0.500000" stop-color="#7D8487"/>
			<stop offset="0.700000" stop-color="#687074" stop-opacity="0.000000"/>
			<stop offset="0.800000" stop-color="#5B6469" stop-opacity="0.000000"/>
			<stop offset="1.000000" stop-color="#576065" stop-opacity="0.000000"/>
		</linearGradient>
		<linearGradient id="paint_linear_108_6086_0" x1="50.574963" y1="50.709438" x2="49.743835" y2="52.078354" gradientUnits="userSpaceOnUse">
			<stop stop-color="#27343C"/>
			<stop offset="1.000000" stop-color="#00111E" stop-opacity="0.000000"/>
		</linearGradient>
		<linearGradient id="paint_linear_108_6092_0" x1="48.175323" y1="45.683094" x2="46.806408" y2="43.483055" gradientUnits="userSpaceOnUse">
			<stop offset="0.100000" stop-color="#02131F"/>
			<stop offset="0.900000" stop-color="#02131F" stop-opacity="0.000000"/>
		</linearGradient>
		<linearGradient id="paint_linear_108_6093_0" x1="44.461029" y1="49.214874" x2="42.407654" y2="49.801552" gradientUnits="userSpaceOnUse">
			<stop offset="0.200000" stop-color="#02131F"/>
			<stop offset="0.900000" stop-color="#02131F" stop-opacity="0.000000"/>
		</linearGradient>
		<linearGradient id="paint_linear_108_6094_0" x1="38.989700" y1="51.937069" x2="38.696362" y2="51.203724" gradientUnits="userSpaceOnUse">
			<stop stop-color="#02131F"/>
			<stop offset="0.100000" stop-color="#02131F"/>
			<stop offset="1.000000" stop-color="#02131F" stop-opacity="0.000000"/>
		</linearGradient>
		<linearGradient id="paint_linear_108_6095_0" x1="46.230797" y1="39.866184" x2="44.568542" y2="40.061749" gradientUnits="userSpaceOnUse">
			<stop offset="0.300000" stop-color="#02131F"/>
			<stop offset="0.800000" stop-color="#02131F" stop-opacity="0.000000"/>
		</linearGradient>
		<linearGradient id="paint_linear_108_6096_0" x1="46.282623" y1="39.838318" x2="45.157669" y2="39.984989" gradientUnits="userSpaceOnUse">
			<stop offset="0.400000" stop-color="#27343C"/>
			<stop offset="1.000000" stop-color="#3B474E" stop-opacity="0.000000"/>
		</linearGradient>
		<linearGradient id="paint_linear_108_6097_0" x1="28.648760" y1="47.501328" x2="42.289017" y2="55.372589" gradientUnits="userSpaceOnUse">
			<stop stop-color="#25323B" stop-opacity="0.000000"/>
			<stop offset="0.100000" stop-color="#27343C"/>
		</linearGradient>
		<linearGradient id="paint_linear_108_6098_0" x1="44.445103" y1="49.735065" x2="44.445103" y2="47.388355" gradientUnits="userSpaceOnUse">
			<stop offset="0.300000" stop-color="#A5ABAF"/>
			<stop offset="1.000000" stop-color="#A5ABAF" stop-opacity="0.000000"/>
		</linearGradient>
		<linearGradient id="paint_linear_108_6099_0" x1="52.120987" y1="32.574768" x2="52.120987" y2="62.397556" gradientUnits="userSpaceOnUse">
			<stop stop-color="#6B7378"/>
			<stop offset="0.200000" stop-color="#333F47"/>
			<stop offset="0.500000" stop-color="#27343C"/>
			<stop offset="0.800000" stop-color="#333F47"/>
			<stop offset="1.000000" stop-color="#434D54"/>
		</linearGradient>
		<linearGradient id="paint_linear_108_6100_0" x1="44.469727" y1="32.292480" x2="44.616394" y2="32.292480" gradientUnits="userSpaceOnUse">
			<stop stop-color="#6B7378"/>
			<stop offset="0.200000" stop-color="#333F47"/>
			<stop offset="0.500000" stop-color="#27343C"/>
			<stop offset="0.800000" stop-color="#333F47"/>
			<stop offset="1.000000" stop-color="#434D54"/>
		</linearGradient>
		<linearGradient id="paint_linear_108_6101_0" x1="56.833572" y1="35.406952" x2="50.233452" y2="45.087135" gradientUnits="userSpaceOnUse">
			<stop offset="0.700000" stop-color="#49545B"/>
			<stop offset="0.800000" stop-color="#FFFFFF" stop-opacity="0.000000"/>
		</linearGradient>
		<radialGradient id="paint_radial_108_6184_0" cx="0.000000" cy="0.000000" r="1.000000" gradientUnits="userSpaceOnUse" gradientTransform="translate(88.2175 39.4352) rotate(9.60304) scale(34.5708 46.5041)">
			<stop offset="0.102161" stop-color="#B37D16"/>
			<stop offset="0.806940" stop-color="#F8F497"/>
			<stop offset="1.000000" stop-color="#C4963D"/>
		</radialGradient>
		<linearGradient id="paint_linear_108_6184_1" x1="85.979492" y1="31.343988" x2="116.794991" y2="55.273346" gradientUnits="userSpaceOnUse">
			<stop stop-color="#F8F497"/>
			<stop offset="1.000000" stop-color="#B7851F"/>
		</linearGradient>
		<radialGradient id="paint_radial_108_6185_0" cx="0.000000" cy="0.000000" r="1.000000" gradientUnits="userSpaceOnUse" gradientTransform="translate(107.67 33.7541) rotate(95.6824) scale(17.3869 23.4689)">
			<stop stop-color="#AF4190"/>
			<stop offset="0.472281" stop-color="#610547"/>
			<stop offset="1.000000" stop-color="#220119"/>
		</radialGradient>
		<linearGradient id="paint_linear_108_6185_1" x1="92.434837" y1="33.754089" x2="118.085724" y2="52.604912" gradientUnits="userSpaceOnUse">
			<stop stop-color="#F2E586"/>
			<stop offset="0.546840" stop-color="#B37D16"/>
			<stop offset="0.990875" stop-color="#F7F395"/>
		</linearGradient>
		<linearGradient id="paint_linear_108_6186_0" x1="92.176750" y1="51.744133" x2="92.176750" y2="36.852844" gradientUnits="userSpaceOnUse">
			<stop offset="0.276042" stop-color="#B37D16"/>
			<stop offset="0.670000" stop-color="#F8F497"/>
			<stop offset="1.000000" stop-color="#DDB149"/>
		</linearGradient>
		<linearGradient id="paint_linear_108_6186_1" x1="104.917305" y1="36.852844" x2="104.917305" y2="51.313744" gradientUnits="userSpaceOnUse">
			<stop stop-color="#DDB149"/>
			<stop offset="1.000000" stop-color="#F8F497"/>
		</linearGradient>
	</defs>
	<rect id="mbg" rx="47" ry="47" width="45.934223" height="45.934223" transform="translate(21.502441 24.127930) rotate(-0.000000)" fill="#000000" fill-opacity="1.000000"/>
	<g clip-path="url(#clip108_6077)">
		<rect id="mercedes-benz-9-logo-svgrepo-com 1" width="31.289482" height="31.289482" transform="translate(28.825195 31.450317) rotate(-0.000000)" fill="#FFFFFF" fill-opacity="0"/>
		<g clip-path="url(#clip108_6078)">
			<path id="outer_24_" d="M59.772 47.095C59.772 55.5529 52.9272 62.3975 44.4697 62.3975C36.0117 62.3975 29.167 55.5529 29.167 47.095C29.167 38.6371 36.0117 31.7925 44.4697 31.7925C52.9272 31.7925 59.772 38.6371 59.772 47.095ZM44.4697 32.7214C36.5005 32.7214 30.0957 39.126 30.0957 47.095C30.0957 55.064 36.5493 61.4686 44.4697 61.4686C52.4385 61.4686 58.8433 55.0151 58.8433 47.095C58.8433 39.126 52.4385 32.7214 44.4697 32.7214Z" fill="url(#paint_linear_108_6079_0)" fill-opacity="1.000000" fill-rule="nonzero"/>
			<path id="Vector" d="M44.4697 32.7214C36.501 32.7214 30.0962 39.126 30.0962 47.095C30.0962 55.0641 36.5498 61.4686 44.4697 61.4686C52.439 61.4686 58.8433 55.0152 58.8433 47.095C58.8433 39.126 52.439 32.7214 44.4697 32.7214ZM44.4697 60.5397C37.0386 60.5397 31.0249 54.5263 31.0249 47.095C31.0249 39.6638 37.0386 33.6503 44.4697 33.6503C51.9009 33.6503 57.9146 39.6638 57.9146 47.095C57.9146 54.5263 51.9009 60.5397 44.4697 60.5397Z" fill="url(#paint_linear_108_6080_0)" fill-opacity="1.000000" fill-rule="nonzero"/>
			<g opacity="0.400000">
				<path id="Vector" d="M44.4697 62.3976C52.9277 62.3976 59.7725 55.553 59.7725 47.095C59.7725 38.6371 52.9277 31.7925 44.4697 31.7925C36.0122 31.7925 29.1675 38.6371 29.1675 47.095C29.1675 55.553 36.0122 62.3976 44.4697 62.3976ZM44.4697 31.4503C53.0747 31.4503 60.1147 38.4905 60.1147 47.095C60.1147 55.6996 53.0747 62.7398 44.4697 62.7398C35.8652 62.7398 28.8252 55.6996 28.8252 47.095C28.8252 38.4905 35.8652 31.4503 44.4697 31.4503Z" fill="url(#paint_linear_108_6081_0)" fill-opacity="1.000000" fill-rule="nonzero"/>
			</g>
			<path id="Vector" d="M29.9004 47.1439C29.9004 39.126 36.4028 32.5259 44.4697 32.5259C52.5361 32.5259 59.0386 39.0771 59.0386 47.1439C59.0386 55.1619 52.5361 61.6642 44.4697 61.6642C36.4028 61.6642 29.9004 55.1619 29.9004 47.1439ZM34.4473 37.0726C31.856 39.6638 30.2427 43.2327 30.2427 47.1439C30.2427 51.0551 31.856 54.6241 34.3984 57.1663C36.9893 59.7086 40.5586 61.322 44.4697 61.322C48.3809 61.322 51.9497 59.7575 54.4922 57.1663C57.083 54.6241 58.6475 51.0551 58.6475 47.1439C58.6475 43.2327 57.0342 39.6638 54.4922 37.0726C51.9497 34.4814 48.3809 32.8681 44.4697 32.8681C40.5586 32.8681 36.9893 34.4814 34.4473 37.0726Z" fill="#FFFFFF" fill-opacity="1.000000" fill-rule="nonzero"/>
			<g opacity="0.400000">
				<path id="Vector" d="M44.4697 60.5886C40.8521 60.5886 37.4785 59.1708 34.936 56.6285C32.394 54.0862 30.9761 50.7129 30.9761 47.095C30.9761 43.4772 32.394 40.1038 34.936 37.5615C37.4785 35.0192 40.8521 33.6014 44.4697 33.6014C48.0874 33.6014 51.4609 35.0192 54.0029 37.5615C56.5454 40.1038 57.9634 43.4772 57.9634 47.095C57.9634 50.7129 56.5454 54.0862 54.0029 56.6285C51.4609 59.1708 48.0874 60.5886 44.4697 60.5886ZM44.4697 60.1975C47.9409 60.1975 51.2651 58.8286 53.71 56.3841C56.2031 53.8907 57.5234 50.6151 57.5234 47.1439C57.5234 43.6727 56.1543 40.3482 53.71 37.9037C51.2163 35.4103 47.9409 34.0903 44.4697 34.0903C40.9985 34.0903 37.6738 35.4592 35.2295 37.9037C32.7363 40.2993 31.3672 43.6238 31.3672 47.095C31.3672 50.5662 32.7363 53.8907 35.1807 56.3352C37.6738 58.8286 40.9985 60.1975 44.4697 60.1975Z" fill="url(#paint_linear_108_6083_0)" fill-opacity="1.000000" fill-rule="nonzero"/>
			</g>
			<path id="Vector" d="M56.3501 53.4507C56.1055 53.2551 46.6699 45.775 46.6699 45.775L44.4697 33.2103C44.3232 33.2592 44.1274 33.4059 44.0298 33.6014L42.4653 45.8239L32.7363 53.304C32.7363 53.304 32.5405 53.5485 32.4429 53.6952C32.394 53.793 32.394 53.9396 32.394 54.0863L44.4209 49.1484L56.4478 54.0863C56.5454 53.8419 56.4478 53.5974 56.3501 53.4507Z" fill="#FFFFFF" fill-opacity="1.000000" fill-rule="nonzero"/>
			<path id="Vector" d="M44.5674 47.4861L44.4697 49.735L55.519 54.184C55.9102 54.3796 56.2031 54.2818 56.4966 54.0862L44.7144 47.4373C44.6655 47.3884 44.5674 47.4373 44.5674 47.4861Z" fill="#565F64" fill-opacity="1.000000" fill-rule="nonzero"/>
			<path id="Vector" d="M44.5674 47.4861C44.5674 47.4861 45.2031 48.6106 45.9365 49.3928C46.9629 50.5173 48.332 51.2996 48.332 51.2996L55.5186 54.184C55.9097 54.3796 56.2031 54.2818 56.4966 54.0862L44.7139 47.4373C44.665 47.3884 44.5674 47.4373 44.5674 47.4861Z" fill="url(#paint_linear_108_6086_0)" fill-opacity="1.000000" fill-rule="nonzero"/>
			<path id="Vector" d="M56.4478 53.6463C56.4478 53.5974 56.3989 53.5485 56.3501 53.4507L46.2788 46.0684L44.9097 46.9484C44.9097 46.9484 45.0073 46.9973 45.0562 46.9484C45.2031 46.8995 45.4966 46.8506 45.7896 46.9484C46.0342 47.0461 56.4478 53.6952 56.4478 53.6463Z" fill="#A4AAAE" fill-opacity="0.600000" fill-rule="nonzero"/>
			<path id="Vector" d="M56.1055 53.2063L46.7188 45.775L46.2788 46.0684L56.3501 53.4996C56.3013 53.4019 56.2036 53.3041 56.1055 53.2063Z" fill="#333E46" fill-opacity="1.000000" fill-rule="nonzero"/>
			<path id="Vector" d="M44.7144 46.7528L44.6655 46.8017C44.6655 46.8017 44.6655 46.8995 44.7632 46.8506C44.812 46.8017 46.23 46.0684 46.7188 45.775L45.0078 34.0414C44.9585 33.6014 44.7632 33.4059 44.4209 33.2592L44.6167 46.8506L44.7144 46.7528Z" fill="#565F64" fill-opacity="1.000000" fill-rule="nonzero"/>
			<path id="Vector" d="M43.8833 34.0414L43.8833 34.677L42.8076 45.4817C42.8076 45.6284 42.8564 45.775 43.0029 45.8728L43.6387 46.3617L44.0786 34.4326L44.1274 33.5037C43.981 33.6014 43.9321 33.797 43.8833 34.0414ZM43.2964 46.5573L42.71 46.0684L32.7852 53.2551C32.7852 53.2551 32.4917 53.4507 32.4429 53.6462L32.7852 53.4507L43.1987 46.8995C43.394 46.8017 43.4429 46.7039 43.2964 46.5573Z" fill="#A4AAAE" fill-opacity="0.600000" fill-rule="nonzero"/>
			<path id="Vector" d="M44.3232 47.4861C44.3232 47.4373 44.2744 47.3884 44.2256 47.4373L32.394 54.1351C32.6875 54.3307 32.981 54.3796 33.3721 54.2329L44.4209 49.7839L44.3232 47.4861Z" fill="#565F64" fill-opacity="1.000000" fill-rule="nonzero"/>
			<path id="Vector" d="M44.665 46.8017C44.665 46.8017 44.665 46.8506 44.7139 46.8506L44.7627 46.8506C44.8115 46.8017 46.2295 46.0684 46.7183 45.775L46.5229 44.3572L45.0073 34.0414C45.0073 33.8459 44.9585 33.6992 44.8608 33.6014C44.8608 33.6014 45.5938 43.4772 45.5938 44.5527C45.5938 45.9706 44.665 46.8017 44.665 46.8017Z" fill="url(#paint_linear_108_6092_0)" fill-opacity="1.000000" fill-rule="nonzero"/>
			<path id="Vector" d="M44.3232 47.4861C44.3232 47.4373 44.2744 47.3884 44.2256 47.4373L32.394 54.1351C32.6875 54.3307 32.981 54.3796 33.3721 54.2329L44.4209 49.7839L44.3232 47.4861Z" fill="url(#paint_linear_108_6093_0)" fill-opacity="0.800000" fill-rule="nonzero"/>
			<g opacity="0.800000">
				<path id="Vector" d="M33.3716 54.184L44.4209 49.735L44.3232 47.5839C44.1274 48.1706 43.7852 48.8062 42.8564 49.295C42.1719 49.6862 35.6206 52.9129 33.2739 54.0374C33.1274 54.1351 32.9316 54.184 32.834 54.2329C33.0298 54.3307 33.1763 54.2818 33.3716 54.184Z" fill="url(#paint_linear_108_6094_0)" fill-opacity="1.000000" fill-rule="nonzero"/>
			</g>
			<path id="Vector" d="M44.7144 46.7528L44.6655 46.8017C44.6655 46.8017 44.6655 46.8995 44.7632 46.8506C44.812 46.8017 46.23 46.0684 46.7188 45.775L45.0078 34.0414C44.9585 33.6014 44.7632 33.4059 44.4209 33.2592L44.6167 46.8506L44.7144 46.7528Z" fill="url(#paint_linear_108_6095_0)" fill-opacity="1.000000" fill-rule="nonzero"/>
			<path id="Vector" d="M44.7144 46.7528L44.6655 46.8017C44.6655 46.8017 44.6655 46.8995 44.7632 46.8506C44.812 46.8017 46.23 46.0684 46.7188 45.775L45.0078 34.0414C44.9585 33.6014 44.7632 33.4059 44.4209 33.2592L44.6167 46.8506L44.7144 46.7528Z" fill="url(#paint_linear_108_6096_0)" fill-opacity="1.000000" fill-rule="nonzero"/>
			<path id="Vector" d="M31.3184 53.1574C30.9761 52.3751 29.0205 48.5618 31.1714 41.2283L30.3403 41.2283C29.9004 42.6949 29.5581 43.575 29.3628 44.895C29.3628 44.895 29.2646 45.3839 29.2158 45.9217C29.167 46.4595 29.167 46.7528 29.167 47.095C29.167 50.0284 29.9004 51.7396 29.9004 51.7396C30.6826 54.1841 32.0513 56.3841 33.9092 58.0464C35.5225 59.4642 38.0161 60.5397 40.0693 60.9308C39.7271 60.882 33.8604 58.3886 31.3184 53.1574Z" fill="url(#paint_linear_108_6097_0)" fill-opacity="1.000000" fill-rule="nonzero"/>
			<path id="Vector" d="M44.665 47.3884L44.2251 47.3884C44.2739 47.3884 44.3228 47.3884 44.3228 47.4373L44.4209 49.6862L44.4697 49.6862L44.5674 47.4373C44.5674 47.3884 44.6162 47.3395 44.665 47.3884Z" fill="url(#paint_linear_108_6098_0)" fill-opacity="1.000000" fill-rule="nonzero"/>
			<path id="Vector" d="M49.3589 32.5748C54.4922 34.5303 59.332 39.9083 59.332 46.7039C59.332 54.9174 52.7808 61.6153 44.4697 61.6153L44.4697 62.3976C52.7808 62.3976 59.7725 55.553 59.7725 47.095C59.7725 40.3483 55.4697 34.677 49.3589 32.5748Z" fill="url(#paint_linear_108_6099_0)" fill-opacity="1.000000" fill-rule="nonzero"/>
			<path id="Vector" d="" fill="url(#paint_linear_108_6100_0)" fill-opacity="1.000000" fill-rule="nonzero"/>
			<path id="Vector" d="M57.5723 41.326C54.1499 33.4548 46.4253 33.0148 45.9854 32.9659L45.9365 32.9659C51.8521 34.0414 55.6167 37.9037 56.9365 41.9616L56.9365 42.0105C57.5234 43.575 57.8169 45.2372 57.8657 47.0461C57.9146 48.7573 57.5234 50.664 56.79 52.424C56.7412 52.6685 56.6924 52.9618 56.6436 52.9618L57.4258 52.9618C59.7725 48.5617 58.7456 44.1127 57.5723 41.326Z" fill="url(#paint_linear_108_6101_0)" fill-opacity="1.000000" fill-rule="nonzero"/>
			<path id="Vector" d="M29.9004 47.1439C29.9004 39.126 36.4028 32.5259 44.4697 32.5259C52.5361 32.5259 59.0386 39.0771 59.0386 47.1439C59.0386 55.1619 52.5361 61.6642 44.4697 61.6642C36.4028 61.6642 29.9004 55.1619 29.9004 47.1439ZM34.4473 37.0726C31.856 39.6638 30.2427 43.2327 30.2427 47.1439C30.2427 51.0551 31.856 54.6241 34.3984 57.1663C36.9893 59.7086 40.5586 61.322 44.4697 61.322C48.3809 61.322 51.9497 59.7575 54.4922 57.1663C57.083 54.6241 58.6475 51.0551 58.6475 47.1439C58.6475 43.2327 57.0342 39.6638 54.4922 37.0726C51.9497 34.4814 48.3809 32.8681 44.4697 32.8681C40.5586 32.8681 36.9893 34.4814 34.4473 37.0726Z" fill="#FBFBFB" fill-opacity="1.000000" fill-rule="nonzero"/>
			<path id="Vector" d="M32.6875 53.3529L42.6611 46.1661C43.1987 46.4595 44.0786 46.8506 44.1768 46.8506C44.2744 46.8995 44.2744 46.8017 44.2744 46.8017L43.0522 45.775C42.9053 45.6772 42.8564 45.5306 42.8564 45.3839L44.0298 33.6014C43.981 33.6503 43.981 33.7481 43.9321 33.797C43.8833 33.8948 43.8833 33.9437 43.8833 34.0414L42.1724 45.8239L32.7852 53.2062C32.7363 53.2551 32.6875 53.304 32.6875 53.3529Z" fill="#333F47" fill-opacity="1.000000" fill-rule="nonzero"/>
		</g>
	</g>
	<rect id="mbg" rx="47" ry="47" width="45.934223" height="45.934223" transform="translate(21.502441 24.127930) rotate(-0.000000)" stroke="#CDCCCC" stroke-opacity="1.000000" stroke-width="1.000000"/>
	<rect id="shield-antivirus-svgrepo-com 1" width="35.689922" height="35.689926" transform="matrix(-0.972708 0.232033 0.232033 0.972708 34.7158 19.7012)" fill="#FFFFFF" fill-opacity="0"/>
	<g clip-path="url(#clip108_6104)">
		<g filter="url(#filter_108_6105_dd)">
			<path id="Vector" d="M22.9951 55.2288L23.6064 54.4472C26.9585 50.1445 31.1294 44.7916 29.418 37.6186L27.7876 30.7841L26.5815 31.0718C22.2271 32.1106 18.4897 30.9927 17.8882 28.4716L15.4761 29.047C16.0776 31.5681 13.2471 34.2527 8.89258 35.2914L7.68652 35.5792L9.31689 42.4136C11.0278 49.5867 17.1655 52.4805 22.0977 54.8058L22.9951 55.2288Z" fill="#D84025" fill-opacity="1.000000" fill-rule="nonzero"/>
		</g>
		<g filter="url(#filter_108_6106_dd)">
			<path id="Vector" d="M8.89258 35.2914C13.2471 34.2526 16.0776 31.5681 15.4761 29.047L16.6821 28.7593L22.9961 55.2274L22.9946 55.2288L22.0977 54.8058C17.1655 52.4805 11.0278 49.5867 9.31641 42.4136L7.68652 35.5792L8.89258 35.2914Z" fill="#A13023" fill-opacity="1.000000" fill-rule="nonzero"/>
		</g>
	</g>
	<rect id="helmet_red" width="30.570757" height="31.864920" transform="translate(31.929688 0.000000)" fill="#FFFFFF" fill-opacity="0"/>
	<g clip-path="url(#clip108_6107)">
		<g filter="url(#filter_108_6109_dd)">
			<path id="Vector" d="M54.4434 22.5884C54.7529 23.8439 55.0605 25.0985 55.3672 26.3521C52.543 27.9683 48.9771 28.8708 44.4976 28.8724L44.4976 23.6889L54.4434 22.5884Z" fill="#535353" fill-opacity="1.000000" fill-rule="evenodd"/>
			<path id="Vector" d="M34.5596 22.5884C34.2466 23.8439 33.936 25.0985 33.6279 26.3521C36.458 27.9683 40.0161 28.8708 44.4976 28.8724L44.4976 23.6889L34.5596 22.5884Z" fill="#676767" fill-opacity="1.000000" fill-rule="evenodd"/>
			<path id="Vector" d="M42.2744 9.07593C35.8218 3.36945 48.0229 3.91022 51.4614 1.01904C51.7041 1.2605 51.8481 1.55072 51.875 1.85376C51.9023 2.15674 51.8115 2.45917 51.6143 2.72339C53.1406 3.67163 55.8242 2.37787 57.2793 4.19531C55.6304 4.12402 54.6265 4.61829 54.0142 5.27991C58.5361 4.75616 56.7671 7.9433 60.6318 8.12305C57.7524 9.34241 50.9897 7.00128 46.8086 9.85059C44.9209 9.79791 44.1621 9.13324 42.2744 9.07593Z" fill="#A23023" fill-opacity="1.000000" fill-rule="evenodd"/>
			<path id="Vector" d="M60.6304 8.07031C57.7798 9.32965 51.0669 6.93005 46.916 9.85059C46.1436 9.81775 45.3838 9.68408 44.6675 9.45514C50.0962 4.66058 54.9136 8.91675 60.6323 8.07031L60.6304 8.07031Z" fill="#1A1A1A" fill-opacity="1.000000" fill-rule="evenodd"/>
			<path id="Vector" d="M42.6509 8.59113C43.396 8.64917 44.127 8.78314 44.8232 8.9892L44.8726 9.0014C44.6289 8.72992 44.3901 8.45844 44.1553 8.18695C42.02 6.37048 46.5137 4.22156 49.2393 3.78076C50.2207 4.41522 51.7329 4.11481 52.5078 4.56012C51.8398 5.10004 51.4258 6.03345 50.7554 6.57336C58.4072 5.79858 54.9219 7.64093 58.5938 7.99786C58.3467 7.87286 58.1221 7.72473 57.9258 7.55707C56.6963 6.51233 56.8789 5.37152 54.1982 5.67657L52.7065 5.84583C52.9702 5.57336 53.2358 5.30139 53.5034 5.02991C54.1079 4.39929 55.0176 3.9679 56.0405 3.82654C55.8008 3.72211 55.5366 3.65222 55.2617 3.62061C55 3.59113 54.7358 3.57532 54.4707 3.57336C53.2783 3.552 52.1411 3.62213 51.1919 3.05176L50.8398 2.83673C50.9092 2.74213 50.981 2.64911 51.0444 2.55609C51.2031 2.34729 51.27 2.10669 51.2354 1.86823C50.0054 2.56219 48.3047 3.02887 46.8477 3.41626C45.6938 3.72131 44.4829 4.02631 43.3887 4.40607C42.6162 4.67755 41.7495 5.05426 41.3394 5.56976C40.5957 6.53064 41.7451 7.77972 42.6509 8.59113Z" fill="#EF4123" fill-opacity="1.000000" fill-rule="evenodd"/>
			<path id="Vector" d="M43.7261 8.71741C44.1138 8.79333 44.4961 8.88403 44.8716 8.98914L44.9204 9.0014C44.6782 8.72821 44.4399 8.45496 44.2061 8.18176C42.0781 6.35364 46.5562 4.19092 49.2725 3.74731C50.2505 4.38586 51.7573 4.0835 52.5293 4.53168C51.8638 5.07507 51.4512 6.0144 50.7832 6.5578C58.4082 5.77808 54.9346 7.63226 58.5942 7.99139C56.689 7.61841 56.7236 6.27075 55.6411 5.9469C54.5591 5.62305 53.1294 6.36902 52.0391 6.0451C52.1533 5.42041 52.6704 4.91235 53.4219 4.13721C52.3779 3.6629 49.7461 4.08655 50.2935 2.71741C47.9512 4.65912 40.4058 3.8548 43.2686 8.55011L43.7261 8.71741Z" fill="#D03927" fill-opacity="1.000000" fill-rule="evenodd"/>
			<path id="Vector" d="M47.894 10.445C47.894 11.7113 46.3354 12.7379 44.4121 12.7379C42.4893 12.7379 40.9307 11.7113 40.9307 10.445C40.9307 9.17877 42.4893 8.15222 44.4121 8.15222C46.3354 8.15222 47.894 9.17877 47.894 10.445Z" fill="#CDCCCC" fill-opacity="1.000000" fill-rule="evenodd"/>
			<path id="Vector" d="M44.4277 10.5299C48.793 10.5299 52.5225 12.2605 54.0146 14.7017C54.8159 14.959 55.3672 15.4889 55.3672 16.0954C55.3628 16.297 55.3022 16.4957 55.1885 16.6786C55.0747 16.8615 54.9106 17.0244 54.707 17.1567C54.6333 20.7266 50.0596 23.6074 44.4277 23.6074C38.7964 23.6074 34.2388 20.7328 34.1528 17.1721C33.9399 17.0392 33.7681 16.8738 33.6479 16.687C33.5283 16.5002 33.4634 16.2964 33.458 16.0892C33.458 15.4767 34.0278 14.936 34.8477 14.6833C36.3457 12.2482 40.0688 10.5299 44.4277 10.5299Z" fill="#8B8A8A" fill-opacity="1.000000" fill-rule="evenodd"/>
			<path id="Vector" d="M42.7993 20.2107C46.6372 20.2107 49.7627 18.2312 49.7627 15.7949C49.7627 13.3586 46.6313 11.3792 42.7993 11.3792C38.9673 11.3792 35.8359 13.3586 35.8359 15.7949C35.8359 18.2312 38.959 20.2107 42.7993 20.2107Z" fill="#989898" fill-opacity="1.000000" fill-rule="evenodd"/>
			<path id="Vector" d="M40.6758 15.2853C42.127 15.2853 43.3086 14.5219 43.3086 13.587C43.3086 12.6521 42.127 11.8886 40.6758 11.8886C39.2251 11.8886 38.0435 12.6505 38.0435 13.587C38.0435 14.5234 39.2373 15.2853 40.6758 15.2853Z" fill="#ACACAC" fill-opacity="1.000000" fill-rule="evenodd"/>
			<path id="Vector" d="M44.4976 14.2665L44.3979 14.2665C43.0093 14.2611 41.6313 14.4487 40.3311 14.8201L32.7788 16.9646L32.7788 23.3547C36.083 26.2792 39.9365 28.5695 44.4976 30.0613L44.4976 14.2665Z" fill="#CDCCCC" fill-opacity="1.000000" fill-rule="evenodd"/>
			<path id="Vector" d="M42.7993 15.2854C42.1973 15.3616 41.6069 15.484 41.0366 15.6509L39.5884 16.0679L39.5884 26.7622C40.6104 27.3513 41.6821 27.886 42.7969 28.3629L42.7969 15.2854L42.7993 15.2854ZM38.9087 16.2639L36.6567 16.9125L36.6567 24.8458C37.3687 25.37 38.1187 25.8771 38.9087 26.3594L38.9087 16.2639ZM35.979 17.1069L34.4771 17.5394L34.4771 23.0865C34.9585 23.5096 35.459 23.9244 35.979 24.3309L35.979 17.1069Z" fill="#333333" fill-opacity="1.000000" fill-rule="evenodd"/>
			<path id="Vector" d="M44.4976 14.2664L44.5972 14.2664C45.9824 14.262 47.3569 14.4496 48.6538 14.82L56.2163 16.963L56.2163 23.3532C52.9102 26.2792 49.0566 28.5695 44.4976 30.0613L44.4976 14.2664Z" fill="#B4B4B4" fill-opacity="1.000000" fill-rule="evenodd"/>
			<path id="Vector" d="M46.1958 15.2854C46.8101 15.3618 47.4126 15.4842 47.9951 15.6509L49.4727 16.0679L49.4727 26.7622C48.4297 27.351 47.3354 27.8857 46.1978 28.3629L46.1978 15.2854L46.1958 15.2854ZM50.1665 16.2639L52.4629 16.9125L52.4629 24.8458C51.7383 25.37 50.9727 25.8771 50.1665 26.3594L50.1665 16.2639ZM53.1567 17.1069L54.6875 17.5394L54.6875 23.0865C54.1978 23.5096 53.6875 23.9244 53.1567 24.3309L53.1567 17.1069Z" fill="#1A1A1A" fill-opacity="1.000000" fill-rule="evenodd"/>
			<path id="Vector" d="M43.5342 8.66174C44.186 8.66174 44.4985 8.96661 44.2334 9.34106C44.0654 9.54108 43.8242 9.70856 43.5337 9.82751C43.2427 9.94647 42.9116 10.0129 42.5718 10.0204C41.9219 10.0204 41.6094 9.71698 41.8745 9.34106C42.043 9.14148 42.2837 8.97424 42.5742 8.85535C42.8643 8.73645 43.1948 8.6698 43.5342 8.66174Z" fill="#E3E3E3" fill-opacity="1.000000" fill-rule="evenodd"/>
		</g>
	</g>
	<rect id="sword_red" width="28.884270" height="51.868382" transform="translate(59.612793 0.000000)" fill="#FFFFFF" fill-opacity="0"/>
	<g clip-path="url(#clip108_6125)">
		<g filter="url(#filter_108_6127_dd)">
			<path id="Vector" d="M60.0093 47.2835L60.145 47.3539C60.2993 47.4366 60.4712 47.4818 60.646 47.4855C60.8208 47.4893 60.9941 47.4517 61.1519 47.3757C61.3115 47.3045 61.4526 47.1966 61.563 47.0608C61.6729 46.925 61.7495 46.7651 61.7866 46.5942C62.0991 45.228 62.7246 43.5585 63.6143 41.8343C64.5034 40.1101 65.5024 38.6345 66.4277 37.5887C66.5439 37.4584 66.6284 37.3033 66.6753 37.1353C66.7222 36.9673 66.73 36.7908 66.6982 36.6193C66.6665 36.4478 66.5957 36.2859 66.4917 36.1459C66.3877 36.0059 66.2529 35.8914 66.0981 35.8114L65.9604 35.7411L66.5264 34.6469L69.1841 36.0162L71.8413 37.384L71.2754 38.4782L71.1396 38.4078C70.9839 38.3264 70.8115 38.2819 70.6357 38.2777C70.4604 38.2736 70.2861 38.31 70.1265 38.3841C69.9673 38.4581 69.8271 38.5679 69.7173 38.7048C69.6069 38.8418 69.5298 39.0023 69.4917 39.1738C69.1792 40.5385 68.5542 42.2095 67.6646 43.9321C66.7749 45.6547 65.7759 47.1319 64.8506 48.1777C64.7349 48.3081 64.6499 48.4633 64.603 48.6314C64.5562 48.7996 64.5488 48.9761 64.5806 49.1478C64.6123 49.3194 64.6826 49.4814 64.7866 49.6216C64.8906 49.7618 65.0254 49.8763 65.1807 49.9565L65.3179 50.0269L64.752 51.1211L62.0947 49.7533L59.4434 48.3793L60.0093 47.2835Z" fill="#CA3927" fill-opacity="1.000000" fill-rule="evenodd"/>
			<path id="Vector" d="M66.7739 38.234C67.2124 38.4626 66.6035 40.5413 65.4126 42.8737C64.2217 45.2061 62.9004 46.9135 62.4697 46.6848C62.0391 46.4561 62.6401 44.3774 63.8311 42.045C65.022 39.7126 66.3354 38.0053 66.7739 38.234Z" fill="#F04B23" fill-opacity="1.000000" fill-rule="evenodd"/>
			<path id="Vector" d="M86.1079 3.39673L84.6836 11.4454L71.3965 37.1944L67.0859 34.9697L80.373 9.2207L86.1079 3.39673Z" fill="#D1D2D2" fill-opacity="1.000000" fill-rule="evenodd"/>
			<path id="Vector" d="M81.8081 7.74432L84.0703 6.27112L83.2749 11.0728L71.332 37.1944L84.6772 11.4454L86.1079 3.39673L81.8081 7.74432Z" fill="#E6E6E5" fill-opacity="1.000000" fill-rule="evenodd"/>
			<path id="Vector" d="M82.3711 10.6998L76.0933 23.5217L69.8135 36.3452L69.1284 35.9965L68.4443 35.6477L75.4077 23.1745L82.3711 10.6998Z" fill="#818181" fill-opacity="1.000000" fill-rule="evenodd"/>
			<path id="Vector" d="M65.7729 33.4233L73.3726 37.3669C73.7632 37.084 74.2373 36.9418 74.7183 36.9631C75.1992 36.9844 75.6592 37.168 76.0239 37.4843C76.3882 37.8005 76.6362 38.231 76.728 38.7064C76.8193 39.1817 76.749 39.6742 76.5278 40.1044C76.3071 40.5346 75.9487 40.8774 75.5103 41.0777C75.0718 41.2779 74.5791 41.3238 74.1118 41.208C73.644 41.0922 73.229 40.8215 72.9336 40.4394C72.6377 40.0573 72.4785 39.5862 72.4814 39.1021L64.8818 35.1585C64.4907 35.4421 64.0161 35.585 63.5342 35.5639C63.0522 35.5428 62.5913 35.3592 62.2261 35.0425C61.8608 34.7258 61.6123 34.2946 61.5205 33.8185C61.4287 33.3423 61.4995 32.8489 61.7207 32.418C61.9419 31.987 62.3013 31.6436 62.7402 31.4431C63.1792 31.2426 63.6729 31.1968 64.1411 31.3129C64.6094 31.4291 65.0249 31.7006 65.3213 32.0834C65.6172 32.4663 65.7764 32.9384 65.7729 33.4233Z" fill="#333333" fill-opacity="1.000000" fill-rule="evenodd"/>
		</g>
	</g>
	<g filter="url(#filter_108_6134_dd)">
		<path id="Mercedes-Benz AG" d="M22.8013 75.058L24.1213 75.058L24.1213 83.806L23.2093 83.806L23.2093 76.306L19.9573 83.806L19.1293 83.806L15.9013 76.366L15.9013 83.806L14.9893 83.806L14.9893 75.058L16.2973 75.058L19.5613 82.558L22.8013 75.058ZM31.5958 81.094L26.7717 81.094C26.8037 81.678 27.0238 82.162 27.4317 82.546C27.8318 82.938 28.3237 83.134 28.9077 83.134C29.3638 83.134 29.7518 83.026 30.0718 82.81C30.3918 82.586 30.6198 82.27 30.7558 81.862L31.5238 82.102C31.3558 82.662 31.0317 83.106 30.5518 83.434C30.0557 83.754 29.5117 83.914 28.9198 83.914C28.3598 83.914 27.8438 83.774 27.3717 83.494C26.8997 83.214 26.5397 82.838 26.2917 82.366C26.0278 81.902 25.8958 81.386 25.8958 80.818C25.8958 80.274 26.0198 79.77 26.2677 79.306C26.4998 78.834 26.8477 78.454 27.3118 78.166C27.7598 77.878 28.2558 77.734 28.7998 77.734C29.3997 77.734 29.9118 77.87 30.3358 78.142C30.7677 78.406 31.0877 78.77 31.2957 79.234C31.5037 79.674 31.6077 80.198 31.6077 80.806C31.6077 80.91 31.6038 81.006 31.5958 81.094ZM26.7838 80.35L30.7318 80.35C30.6758 79.806 30.4757 79.358 30.1318 79.006C29.7957 78.67 29.3517 78.502 28.7998 78.502C28.2957 78.502 27.8517 78.682 27.4678 79.042C27.0837 79.418 26.8558 79.854 26.7838 80.35ZM33.1129 77.842L33.9649 77.842L33.9649 79.018C34.2449 78.45 34.6529 78.066 35.1889 77.866C35.4049 77.786 35.6409 77.746 35.8969 77.746C36.0489 77.746 36.1449 77.754 36.1849 77.77L36.1849 78.694C36.1209 78.678 36.0089 78.67 35.8489 78.67C35.2009 78.67 34.7289 78.886 34.4329 79.318C34.1369 79.75 33.9889 80.274 33.9889 80.89L33.9889 83.806L33.1129 83.806L33.1129 77.842ZM37.3541 80.794C37.3541 81.69 37.6901 82.358 38.3621 82.798C38.6901 83.022 39.0741 83.134 39.5141 83.134C39.9941 83.134 40.4021 83.01 40.7381 82.762C40.8581 82.674 40.9821 82.554 41.1101 82.402C41.2861 82.17 41.4181 81.938 41.5061 81.706L42.3101 81.97C42.1741 82.45 41.8701 82.882 41.3981 83.266C40.8861 83.698 40.2541 83.914 39.5021 83.914C38.6461 83.93 37.9221 83.642 37.3301 83.05C36.7461 82.458 36.4581 81.722 36.4661 80.842C36.4661 80.266 36.6061 79.734 36.8861 79.246C37.1661 78.766 37.5381 78.394 38.0021 78.13C38.4661 77.866 38.9781 77.734 39.5381 77.734C40.2101 77.734 40.8021 77.918 41.3141 78.286C41.8341 78.678 42.1541 79.13 42.2741 79.642L41.4821 79.906C41.3941 79.586 41.1781 79.274 40.8341 78.97C40.4981 78.666 40.0581 78.514 39.5141 78.514C38.8901 78.514 38.3741 78.734 37.9661 79.174C37.5581 79.622 37.3541 80.162 37.3541 80.794ZM49.0332 81.094L44.2093 81.094C44.2412 81.678 44.4613 82.162 44.8693 82.546C45.2692 82.938 45.7612 83.134 46.3452 83.134C46.8013 83.134 47.1893 83.026 47.5093 82.81C47.8293 82.586 48.0573 82.27 48.1933 81.862L48.9613 82.102C48.7933 82.662 48.4692 83.106 47.9893 83.434C47.4932 83.754 46.9492 83.914 46.3573 83.914C45.7972 83.914 45.2812 83.774 44.8092 83.494C44.3372 83.214 43.9772 82.838 43.7293 82.366C43.4652 81.902 43.3333 81.386 43.3333 80.818C43.3333 80.274 43.4572 79.77 43.7052 79.306C43.9372 78.834 44.2853 78.454 44.7492 78.166C45.1973 77.878 45.6932 77.734 46.2373 77.734C46.8372 77.734 47.3493 77.87 47.7733 78.142C48.2052 78.406 48.5252 78.77 48.7332 79.234C48.9412 79.674 49.0452 80.198 49.0452 80.806C49.0452 80.91 49.0413 81.006 49.0332 81.094ZM44.2212 80.35L48.1693 80.35C48.1133 79.806 47.9132 79.358 47.5693 79.006C47.2332 78.67 46.7892 78.502 46.2373 78.502C45.7332 78.502 45.2892 78.682 44.9053 79.042C44.5213 79.418 44.2933 79.854 44.2212 80.35ZM50.1184 80.818C50.1184 80.018 50.3744 79.31 50.8864 78.694C51.4064 78.054 52.0824 77.734 52.9144 77.734C53.4664 77.734 53.9384 77.874 54.3304 78.154C54.6664 78.394 54.9664 78.706 55.2304 79.09L55.2304 74.71L56.0944 74.71L56.0944 83.806L55.2424 83.806L55.2424 82.534C54.6984 83.438 53.9224 83.89 52.9144 83.89C52.0824 83.89 51.4024 83.582 50.8744 82.966C50.3704 82.358 50.1184 81.642 50.1184 80.818ZM53.0944 83.134C53.6944 83.142 54.2064 82.91 54.6304 82.438C55.0544 81.966 55.2584 81.422 55.2424 80.806C55.2424 80.414 55.1504 80.046 54.9664 79.702C54.7824 79.35 54.5264 79.062 54.1984 78.838C53.8624 78.622 53.4944 78.514 53.0944 78.514C52.4544 78.514 51.9504 78.734 51.5824 79.174C51.1984 79.622 51.0064 80.178 51.0064 80.842C51.0064 81.714 51.3304 82.37 51.9784 82.81C52.3064 83.026 52.6784 83.134 53.0944 83.134ZM63.3301 81.094L58.5061 81.094C58.5381 81.678 58.7581 82.162 59.1661 82.546C59.5661 82.938 60.0581 83.134 60.6421 83.134C61.0981 83.134 61.4861 83.026 61.8061 82.81C62.1261 82.586 62.3541 82.27 62.4901 81.862L63.2581 82.102C63.0901 82.662 62.7661 83.106 62.2861 83.434C61.7901 83.754 61.2461 83.914 60.6541 83.914C60.0941 83.914 59.5781 83.774 59.1061 83.494C58.6341 83.214 58.2741 82.838 58.0261 82.366C57.7621 81.902 57.6301 81.386 57.6301 80.818C57.6301 80.274 57.7541 79.77 58.0021 79.306C58.2341 78.834 58.5821 78.454 59.0461 78.166C59.4941 77.878 59.9901 77.734 60.5341 77.734C61.1341 77.734 61.6461 77.87 62.0701 78.142C62.5021 78.406 62.8221 78.77 63.0301 79.234C63.2381 79.674 63.3421 80.198 63.3421 80.806C63.3421 80.91 63.3381 81.006 63.3301 81.094ZM58.5181 80.35L62.4661 80.35C62.4101 79.806 62.2101 79.358 61.8661 79.006C61.5301 78.67 61.0861 78.502 60.5341 78.502C60.0301 78.502 59.5861 78.682 59.2021 79.042C58.8181 79.418 58.5901 79.854 58.5181 80.35ZM68.7833 82.114C68.7833 82.65 68.5793 83.078 68.1713 83.398C67.7633 83.734 67.2633 83.902 66.6713 83.902C65.7993 83.902 65.1633 83.614 64.7633 83.038C64.5633 82.766 64.4433 82.462 64.4033 82.126L65.1953 81.922C65.2513 82.25 65.3993 82.538 65.6393 82.786C65.8873 83.026 66.2273 83.146 66.6593 83.146C66.9873 83.146 67.2793 83.054 67.5353 82.87C67.7753 82.702 67.8953 82.466 67.8953 82.162C67.8953 81.922 67.7993 81.73 67.6073 81.586C67.4313 81.442 67.2033 81.338 66.9233 81.274L66.0113 81.07C65.0193 80.854 64.5233 80.334 64.5233 79.51C64.5233 78.894 64.7713 78.434 65.2673 78.13C65.6913 77.866 66.1193 77.734 66.5513 77.734C67.3673 77.742 67.9633 78.006 68.3393 78.526C68.5233 78.79 68.6433 79.058 68.6993 79.33L67.9073 79.558C67.8513 79.326 67.7353 79.102 67.5593 78.886C67.3433 78.63 67.0073 78.502 66.5513 78.502C66.2233 78.502 65.9513 78.594 65.7353 78.778C65.5113 78.954 65.3993 79.178 65.3993 79.45C65.3993 79.85 65.6873 80.122 66.2633 80.266L67.2233 80.482C67.6633 80.586 68.0313 80.774 68.3273 81.046C68.6313 81.318 68.7833 81.674 68.7833 82.114ZM70.1877 80.77L70.1877 79.846L73.3797 79.846L73.3797 80.77L70.1877 80.77ZM24.5112 96.806L21.2472 96.806L21.2472 88.058L24.3912 88.058C25.2072 88.042 25.8792 88.234 26.4072 88.634C26.9432 89.026 27.2112 89.566 27.2112 90.254C27.2112 90.486 27.1712 90.726 27.0912 90.974C27.0432 91.126 26.9712 91.278 26.8752 91.43C26.6512 91.782 26.3192 92.058 25.8792 92.258C26.4952 92.418 26.9472 92.734 27.2352 93.206C27.4752 93.606 27.5952 94.006 27.5952 94.406C27.5952 95.222 27.2872 95.834 26.6712 96.242C26.0872 96.618 25.3672 96.806 24.5112 96.806ZM24.3192 88.898L22.1592 88.898L22.1592 91.946L24.2472 91.946C24.9352 91.946 25.4432 91.798 25.7712 91.502C26.1072 91.206 26.2752 90.826 26.2752 90.362C26.2752 89.866 26.0872 89.498 25.7112 89.258C25.3352 89.018 24.8712 88.898 24.3192 88.898ZM24.3552 92.762L22.1592 92.762L22.1592 95.966L24.5352 95.966C25.1032 95.966 25.5992 95.838 26.0232 95.582C26.4472 95.318 26.6592 94.906 26.6592 94.346C26.6592 93.674 26.3072 93.214 25.6032 92.966C25.2512 92.83 24.8352 92.762 24.3552 92.762ZM34.4668 94.094L29.6428 94.094C29.6748 94.678 29.8948 95.162 30.3028 95.546C30.7028 95.938 31.1948 96.134 31.7788 96.134C32.2348 96.134 32.6228 96.026 32.9428 95.81C33.2628 95.586 33.4908 95.27 33.6268 94.862L34.3948 95.102C34.2268 95.662 33.9028 96.106 33.4228 96.434C32.9268 96.754 32.3828 96.914 31.7908 96.914C31.2308 96.914 30.7148 96.774 30.2428 96.494C29.7708 96.214 29.4108 95.838 29.1628 95.366C28.8988 94.902 28.7668 94.386 28.7668 93.818C28.7668 93.274 28.8908 92.77 29.1388 92.306C29.3708 91.834 29.7188 91.454 30.1828 91.166C30.6308 90.878 31.1268 90.734 31.6708 90.734C32.2708 90.734 32.7828 90.87 33.2068 91.142C33.6388 91.406 33.9588 91.77 34.1668 92.234C34.3748 92.674 34.4788 93.198 34.4788 93.806C34.4788 93.91 34.4748 94.006 34.4668 94.094ZM29.6548 93.35L33.6028 93.35C33.5468 92.806 33.3468 92.358 33.0028 92.006C32.6668 91.67 32.2228 91.502 31.6708 91.502C31.1668 91.502 30.7228 91.682 30.3388 92.042C29.9548 92.418 29.7268 92.854 29.6548 93.35ZM41.156 96.806L40.28 96.806L40.28 93.338C40.28 92.786 40.14 92.346 39.86 92.018C39.58 91.69 39.172 91.526 38.636 91.526C38.116 91.526 37.688 91.706 37.352 92.066C37.024 92.434 36.86 92.882 36.86 93.41L36.86 96.806L35.984 96.806L35.984 90.842L36.836 90.842L36.836 91.934C37.316 91.134 38.004 90.734 38.9 90.734C39.604 90.734 40.16 90.95 40.568 91.382C40.96 91.838 41.156 92.418 41.156 93.122L41.156 96.806ZM43.5664 96.062L47.3104 96.062L47.3104 96.806L42.5344 96.806L42.5344 96.062L46.2544 91.586L42.6184 91.586L42.6184 90.842L47.2984 90.842L47.2984 91.586L43.5664 96.062ZM57.8669 96.806L56.9069 94.574L52.1429 94.574L51.1829 96.806L50.2469 96.806L54.0149 88.058L55.0589 88.058L58.8389 96.806L57.8669 96.806ZM56.5589 93.734L54.5189 89.006L52.4909 93.734L56.5589 93.734ZM67.2586 90.566L66.3826 90.878C66.2466 90.494 66.0466 90.15 65.7826 89.846C65.5826 89.638 65.3906 89.47 65.2066 89.342C64.7106 88.998 64.0986 88.826 63.3706 88.826C62.6986 88.826 62.1066 88.99 61.5946 89.318C61.0586 89.654 60.6506 90.094 60.3706 90.638C60.0826 91.182 59.9386 91.774 59.9386 92.414C59.9386 93.422 60.2426 94.274 60.8506 94.97C61.4826 95.682 62.3266 96.038 63.3826 96.038C64.1826 96.038 64.8786 95.81 65.4706 95.354C66.0866 94.882 66.4186 94.238 66.4666 93.422L62.8186 93.422L62.8186 92.57L67.4506 92.57L67.4506 92.906C67.4506 94.026 67.0906 94.966 66.3706 95.726C65.6186 96.502 64.6186 96.89 63.3706 96.89C62.0426 96.89 60.9786 96.466 60.1786 95.618C59.3866 94.778 58.9906 93.726 58.9906 92.462C58.9906 91.63 59.1826 90.87 59.5666 90.182C59.9506 89.494 60.4786 88.954 61.1506 88.562C61.8146 88.17 62.5626 87.974 63.3946 87.974C64.4506 87.974 65.3066 88.238 65.9626 88.766C66.5786 89.246 67.0106 89.846 67.2586 90.566Z" fill="#FFFFFF" fill-opacity="1.000000" fill-rule="evenodd"/>
	</g>
	<rect id="jaguar" rx="47" ry="47" width="45.934223" height="45.934223" transform="translate(143.580078 24.127930)" fill="#01422D" fill-opacity="1.000000"/>
	<g clip-path="url(#clip108_6136)">
		<rect id="jaguar-cars 1" width="39.111851" height="18.773689" transform="translate(147.773438 37.708191)" fill="#FFFFFF" fill-opacity="0"/>
		<g clip-path="url(#clip108_6137)">
			<path id="Vector" d="M171.182 54.051C171.026 54.6606 170.537 54.9174 169.72 54.9174C169.165 54.9174 168.676 54.8125 168.425 54.5754C168.153 54.324 168.112 53.9771 168.112 53.6064L168.112 51.7885L168.733 51.7885L168.733 53.5753C168.733 53.9789 168.769 54.2197 168.936 54.397C169.126 54.6049 169.455 54.6657 169.732 54.6657C170.318 54.6657 170.708 54.487 170.815 54.0014C170.839 53.8895 170.858 53.7525 170.858 53.5409L170.858 51.7885L171.241 51.7885L171.241 53.4185C171.241 53.7228 171.222 53.8947 171.182 54.051Z" fill="#FFFFFF" fill-opacity="1.000000" fill-rule="nonzero"/>
			<path id="Vector" d="M171.182 54.051C171.026 54.6606 170.537 54.9174 169.72 54.9174C169.165 54.9174 168.676 54.8125 168.425 54.5754C168.153 54.324 168.112 53.9771 168.112 53.6064L168.112 51.7885L168.733 51.7885L168.733 53.5753C168.733 53.9789 168.769 54.2197 168.936 54.397C169.126 54.6049 169.455 54.6657 169.732 54.6657C170.318 54.6657 170.708 54.487 170.815 54.0014C170.839 53.8895 170.858 53.7525 170.858 53.5409L170.858 51.7885L171.241 51.7885L171.241 53.4185C171.241 53.7228 171.222 53.8947 171.182 54.051Z" fill="#FFFFFF" fill-opacity="1.000000" fill-rule="nonzero"/>
			<path id="Vector" d="M169.72 54.9174C169.165 54.9174 168.676 54.8125 168.425 54.5754C168.153 54.324 168.112 53.9771 168.112 53.6064L168.112 51.7885L168.733 51.7885L168.733 53.5753C168.733 53.9789 168.769 54.2197 168.936 54.397C169.126 54.6049 169.455 54.6657 169.732 54.6657C170.318 54.6657 170.708 54.487 170.815 54.0014C170.839 53.8895 170.858 53.7525 170.858 53.5409L170.858 51.7885L171.241 51.7885L171.241 53.4185C171.241 53.7228 171.222 53.8947 171.182 54.051C171.026 54.6606 170.537 54.9174 169.72 54.9174Z" stroke="#FFFFFF" stroke-opacity="1.000000" stroke-width="0.300000"/>
			<path id="Vector" d="M175.813 52.3818L175.187 53.8259L176.409 53.8259L175.813 52.3818ZM176.855 54.9174L176.498 54.0386L175.095 54.0386L174.713 54.9174L174.37 54.9174L175.781 51.7885L176.118 51.7885L177.499 54.9174L176.855 54.9174Z" fill="#FFFFFF" fill-opacity="1.000000" fill-rule="nonzero"/>
			<path id="Vector" d="M175.813 52.3818L175.187 53.8259L176.409 53.8259L175.813 52.3818ZM176.855 54.9174L176.498 54.0386L175.095 54.0386L174.713 54.9174L174.37 54.9174L175.781 51.7885L176.118 51.7885L177.499 54.9174L176.855 54.9174Z" fill="#FFFFFF" fill-opacity="1.000000" fill-rule="nonzero"/>
			<path id="Vector" d="M175.187 53.8259L176.409 53.8259L175.813 52.3818L175.187 53.8259ZM176.498 54.0386L175.095 54.0386L174.713 54.9174L174.37 54.9174L175.781 51.7885L176.118 51.7885L177.499 54.9174L176.855 54.9174L176.498 54.0386Z" stroke="#FFFFFF" stroke-opacity="1.000000" stroke-width="0.300000"/>
			<path id="Vector" d="M157.039 52.3818L156.413 53.8259L157.635 53.8259L157.039 52.3818ZM158.081 54.9174L157.725 54.0386L156.321 54.0386L155.938 54.9174L155.596 54.9174L157.007 51.7885L157.343 51.7885L158.725 54.9174L158.081 54.9174Z" fill="#FFFFFF" fill-opacity="1.000000" fill-rule="nonzero"/>
			<path id="Vector" d="M157.039 52.3818L156.413 53.8259L157.635 53.8259L157.039 52.3818ZM158.081 54.9174L157.725 54.0386L156.321 54.0386L155.938 54.9174L155.596 54.9174L157.007 51.7885L157.343 51.7885L158.725 54.9174L158.081 54.9174Z" fill="#FFFFFF" fill-opacity="1.000000" fill-rule="nonzero"/>
			<path id="Vector" d="M156.413 53.8259L157.635 53.8259L157.039 52.3818L156.413 53.8259ZM157.725 54.0386L156.321 54.0386L155.938 54.9174L155.596 54.9174L157.007 51.7885L157.343 51.7885L158.725 54.9174L158.081 54.9174L157.725 54.0386Z" stroke="#FFFFFF" stroke-opacity="1.000000" stroke-width="0.300000"/>
			<path id="Vector" d="M163.2 54.9174C161.708 54.9174 160.289 54.5759 160.289 53.4216C160.289 53.0466 160.54 52.662 160.917 52.3868C161.51 51.959 162.41 51.7885 163.26 51.7885C163.774 51.7885 164.369 51.866 164.832 52.0225L164.832 52.3795C164.413 52.1714 163.86 52.0278 163.321 52.0278C162.093 52.0278 161.246 52.5386 161.246 53.3837C161.246 54.1486 161.994 54.6722 163.143 54.6722C163.436 54.6722 163.84 54.6376 164.119 54.5666L164.119 53.4692L164.982 53.4692L164.982 54.6946C164.476 54.8463 163.757 54.9174 163.2 54.9174Z" fill="#FFFFFF" fill-opacity="1.000000" fill-rule="nonzero"/>
			<path id="Vector" d="M163.2 54.9174C161.708 54.9174 160.289 54.5759 160.289 53.4216C160.289 53.0466 160.54 52.662 160.917 52.3868C161.51 51.959 162.41 51.7885 163.26 51.7885C163.774 51.7885 164.369 51.866 164.832 52.0225L164.832 52.3795C164.413 52.1714 163.86 52.0278 163.321 52.0278C162.093 52.0278 161.246 52.5386 161.246 53.3837C161.246 54.1486 161.994 54.6722 163.143 54.6722C163.436 54.6722 163.84 54.6376 164.119 54.5666L164.119 53.4692L164.982 53.4692L164.982 54.6946C164.476 54.8463 163.757 54.9174 163.2 54.9174Z" fill="#FFFFFF" fill-opacity="1.000000" fill-rule="nonzero"/>
			<path id="Vector" d="M160.289 53.4216C160.289 53.0466 160.54 52.662 160.917 52.3868C161.51 51.959 162.41 51.7885 163.26 51.7885C163.774 51.7885 164.369 51.866 164.832 52.0225L164.832 52.3795C164.413 52.1714 163.86 52.0278 163.321 52.0278C162.093 52.0278 161.246 52.5386 161.246 53.3837C161.246 54.1486 161.994 54.6722 163.143 54.6722C163.436 54.6722 163.84 54.6376 164.119 54.5666L164.119 53.4692L164.982 53.4692L164.982 54.6946C164.476 54.8463 163.757 54.9174 163.2 54.9174C161.708 54.9174 160.289 54.5759 160.289 53.4216Z" stroke="#FFFFFF" stroke-opacity="1.000000" stroke-width="0.300000"/>
			<path id="Vector" d="M181.812 52.0056L181.31 52.0056L181.31 53.5025L181.749 53.5025C182.116 53.5025 182.336 53.4423 182.508 53.3212C182.689 53.1939 182.797 52.9985 182.797 52.7345C182.797 52.2057 182.358 52.0056 181.812 52.0056ZM182.971 54.9174L182.025 53.7159L181.31 53.7159L181.31 54.9174L180.627 54.9174L180.627 51.7885L181.918 51.7885C182.442 51.7885 182.966 51.855 183.258 52.1377C183.411 52.2854 183.494 52.4908 183.494 52.7551C183.494 53.2387 183.078 53.5317 182.708 53.6469L183.756 54.9174L182.971 54.9174Z" fill="#FFFFFF" fill-opacity="1.000000" fill-rule="nonzero"/>
			<path id="Vector" d="M181.812 52.0056L181.31 52.0056L181.31 53.5025L181.749 53.5025C182.116 53.5025 182.336 53.4423 182.508 53.3212C182.689 53.1939 182.797 52.9985 182.797 52.7345C182.797 52.2057 182.358 52.0056 181.812 52.0056ZM182.971 54.9174L182.025 53.7159L181.31 53.7159L181.31 54.9174L180.627 54.9174L180.627 51.7885L181.918 51.7885C182.442 51.7885 182.966 51.855 183.258 52.1377C183.411 52.2854 183.494 52.4908 183.494 52.7551C183.494 53.2387 183.078 53.5317 182.708 53.6469L183.756 54.9174L182.971 54.9174Z" fill="#FFFFFF" fill-opacity="1.000000" fill-rule="nonzero"/>
			<path id="Vector" d="M181.31 52.0056L181.31 53.5025L181.749 53.5025C182.116 53.5025 182.336 53.4423 182.508 53.3212C182.689 53.1939 182.797 52.9985 182.797 52.7345C182.797 52.2057 182.358 52.0056 181.812 52.0056L181.31 52.0056ZM182.025 53.7159L181.31 53.7159L181.31 54.9174L180.627 54.9174L180.627 51.7885L181.918 51.7885C182.442 51.7885 182.966 51.855 183.258 52.1377C183.411 52.2854 183.494 52.4908 183.494 52.7551C183.494 53.2387 183.078 53.5317 182.708 53.6469L183.756 54.9174L182.971 54.9174L182.025 53.7159Z" stroke="#FFFFFF" stroke-opacity="1.000000" stroke-width="0.300000"/>
			<path id="Vector" d="M151.526 56.3332C151.333 56.4226 151.121 56.4819 150.902 56.4819C151.405 56.1248 151.618 55.7615 151.69 55.1599C151.733 54.8262 151.733 54.4924 151.733 54.1589L151.733 51.7885L152.467 51.7885L152.467 54.6415C152.467 55.3382 152.194 56.0118 151.526 56.3332Z" fill="#FFFFFF" fill-opacity="1.000000" fill-rule="nonzero"/>
			<path id="Vector" d="M151.526 56.3332C151.333 56.4226 151.121 56.4819 150.902 56.4819C151.405 56.1248 151.618 55.7615 151.69 55.1599C151.733 54.8262 151.733 54.4924 151.733 54.1589L151.733 51.7885L152.467 51.7885L152.467 54.6415C152.467 55.3382 152.194 56.0118 151.526 56.3332Z" fill="#FFFFFF" fill-opacity="1.000000" fill-rule="nonzero"/>
			<path id="Vector" d="M150.902 56.4819C151.405 56.1248 151.618 55.7615 151.69 55.1599C151.733 54.8262 151.733 54.4924 151.733 54.1589L151.733 51.7885L152.467 51.7885L152.467 54.6415C152.467 55.3382 152.194 56.0118 151.526 56.3332C151.333 56.4226 151.121 56.4819 150.902 56.4819Z" stroke="#FFFFFF" stroke-opacity="1.000000" stroke-width="0.300000"/>
			<path id="Vector" d="M154.465 38.4742C154.801 38.4838 155.089 38.366 155.09 38.3491C155.091 38.3322 154.719 38.2988 154.719 38.2988C154.377 38.3123 154.238 38.4313 154.236 38.4453C154.234 38.4586 154.325 38.4698 154.465 38.4742Z" fill="#FFFFFF" fill-opacity="1.000000" fill-rule="nonzero"/>
			<path id="Vector" d="M152.183 39.0178C152.183 39.0178 152.203 38.9507 152.212 38.936C152.221 38.9208 152.27 38.7657 152.505 38.7488C152.505 38.7488 152.624 38.7389 152.761 38.7787C152.761 38.7787 152.682 38.9697 152.36 39.0013C152.36 39.0013 152.233 39.0192 152.183 39.0178ZM183.751 47.6302C183.671 47.8163 183.328 48.0534 182.925 48.1802C182.499 48.314 181.61 48.3175 181.156 48.1755C181.156 48.1755 181.06 48.0775 180.74 47.9892C179.997 47.7835 179.757 47.6401 179.379 47.3096C179.113 47.0761 178.819 46.7833 178.535 46.5073C178.408 46.3843 178.1 46.094 177.558 46.0057C176.993 45.9138 175.606 45.8141 175.095 45.6443C174.751 45.5296 174.344 45.3117 173.833 44.5926C173.588 44.2474 173.402 44.1469 173.048 43.9346C173.048 43.9346 173.318 44.1351 173.46 44.3786C173.666 44.7321 173.764 44.9865 173.875 45.1744C173.988 45.3637 174.119 45.5323 174.322 45.686C174.575 45.8766 174.738 45.9186 175.023 45.9728C175.295 46.0248 176.227 46.0634 177.025 46.0928C177.811 46.1214 178.146 46.3501 178.392 46.5438C178.618 46.7231 178.977 47.2352 179.23 47.4448C179.567 47.7238 179.576 47.7277 179.968 47.959C180.166 48.0759 180.341 48.1525 180.501 48.2068C180.861 48.4056 180.712 48.7526 180.712 48.7526C180.609 49.0291 180.238 49.1281 179.805 49.0704C179.149 49.016 178.586 48.5022 178.109 48.1335C177.848 47.9303 177.755 47.8289 177.25 47.4988C176.48 46.9973 174.674 47.0388 174.674 47.0388L173.35 47.0309C170.771 47.0665 169.828 45.1154 169.571 44.706C169.482 44.5635 169.399 44.4487 169.321 44.3547C169.201 44.2021 168.554 43.4078 167.86 43.124C167.86 43.124 168.526 43.6655 168.459 43.9618C168.316 43.9601 168.154 43.9688 167.961 43.9739C165.363 44.0455 164.823 43.9102 164.413 43.8331C164.001 43.7556 163.313 43.5633 162.644 43.2734C162.644 43.2734 162.718 42.6713 162.453 42.171C162.453 42.171 164.597 42.8832 166.303 42.6813C166.303 42.6813 163.549 42.5548 161.832 41.2675C161.832 41.2675 162.256 42.6281 161.921 43.1995C161.921 43.1995 161.469 44.2369 159.155 43.5447C159.155 43.5447 158.09 43.1553 157.262 43.1553C157.262 43.1553 156.639 43.1795 156.564 43.4849C156.564 43.4849 156.524 43.6309 156.687 43.7002C156.687 43.7002 156.867 43.7488 156.782 43.8748C156.642 44.0831 156.446 44.2443 156.253 44.3352C155.607 44.3054 155.655 43.8068 155.655 43.8068C155.667 43.63 155.728 43.5065 155.785 43.3848C156.191 42.531 157.617 42.4071 157.617 42.4071C159.134 42.2646 160.725 42.6072 160.725 42.6072C159.587 42.3521 159.2 42.1649 158.875 41.9098C158.437 41.5658 158.027 40.4101 158.027 40.4101C157.853 40.9767 158.069 41.5494 158.215 41.8435C158 41.52 157.692 41.2466 157.418 41.04C156.717 40.5118 155.7 40.3412 155.7 40.3412C155.406 40.2939 155.29 40.0076 155.29 40.0076C154.913 39.3552 154.486 39.3245 154.486 39.3245C154.696 39.5952 154.674 39.9656 154.674 39.9656C154.674 40.6484 153.741 40.8749 153.741 40.8749C153.042 41.5278 152.921 41.5139 152.785 41.5234C152.648 41.5325 152.548 41.3995 152.548 41.3995C152.503 41.3371 152.577 41.2812 152.577 41.2812C152.695 41.2119 152.807 41.1214 152.807 41.1214C153.487 40.6072 153.583 40.3442 153.528 39.9855C153.417 39.269 152.802 39.3219 152.802 39.3219C152.514 39.3219 152.371 39.5289 152.371 39.5289C152.259 39.6537 152.016 40.0439 152.016 40.0439C151.801 40.3776 151.609 40.3286 151.609 40.3286C151.372 40.3429 151.201 40.1453 151.201 40.1453C151.191 40.1376 151.185 40.1284 151.177 40.1207C151.001 39.9434 151.152 39.7295 151.152 39.7295C151.441 39.2495 151.939 39.2023 152.007 39.1984C152.076 39.1945 152.305 39.1785 152.305 39.1785C152.868 39.1399 153.236 38.634 153.236 38.634C152.999 38.5261 152.575 38.5833 152.575 38.5833C152.162 38.6093 152.053 39.0212 152.053 39.0212C151.695 39.0706 151.713 38.8124 151.79 38.7444C151.85 38.6777 152.062 38.3537 153.431 38.1605C153.431 38.1605 154.157 38.0253 155.446 38.1583C155.494 38.1631 155.54 38.2021 155.479 38.2697C155.317 38.4486 154.81 38.8454 153.997 38.6535C153.997 38.6535 153.981 38.9593 154.869 39.1122C154.869 39.1122 155.669 39.2725 156.975 40.2593C156.975 40.2593 156.342 39.1577 155.247 38.822C155.247 38.822 155.166 38.7734 155.24 38.7037C155.24 38.7037 155.758 38.267 156.672 38.313C156.672 38.313 159.696 38.459 161.396 40.1271C161.396 40.1271 161.336 39.8491 161.078 39.4457C161.078 39.4457 161.025 39.3976 161.056 39.3626C161.056 39.3626 161.078 39.2928 161.374 39.3487C161.374 39.3487 162.453 39.5155 164.958 40.3776C164.958 40.3776 166.836 40.9966 167.86 41.396C169.399 41.9959 173.256 43.4671 175.692 44.735C176.127 44.9612 177.938 45.8029 177.938 45.8029C179.293 46.5934 180.539 47.1656 180.539 47.1656C181.766 47.699 182.658 47.4546 182.658 47.4546C182.943 47.3536 183.488 47.0756 183.7 47.2731C183.808 47.3741 183.814 47.5057 183.751 47.6302ZM184.057 47.1826C183.896 46.8314 183.38 46.9175 183.38 46.9175C183.144 46.931 182.846 47.1635 182.431 47.2437C181.541 47.4165 180.859 47.1315 180.859 47.1315C179.546 46.5788 178.658 45.9766 178.08 45.6656C177.502 45.3546 175.362 44.2975 173.222 43.2861C173.222 43.2861 170.771 42.1043 167.144 40.6943C167.144 40.6943 160.146 37.7083 155.112 37.7083C155.112 37.7083 152.505 37.6774 151.623 38.621C151.623 38.621 151.467 38.7423 151.542 38.8917C151.542 38.8917 151.553 38.9329 151.521 38.9593C151.521 38.9593 151.132 39.1993 150.816 39.5436C150.816 39.5436 150.647 39.7065 150.783 39.9496C150.783 39.9496 150.952 40.226 151.058 40.3447C151.166 40.4629 151.38 40.67 151.708 40.6393C151.853 40.6254 151.857 40.5912 151.857 40.5912C152.008 40.7341 152.271 40.7428 152.271 40.7428C152.245 40.6549 152.144 40.4807 152.135 40.3793C152.125 40.2659 152.172 40.1606 152.172 40.1606C152.228 40.0358 152.33 39.8812 152.435 39.8041C152.528 39.7356 152.758 39.6646 152.931 39.7781C153.069 39.8691 153.216 40.1606 153.05 40.5444C153.05 40.5444 152.864 40.8477 152.691 40.8814L152.644 40.8835C152.545 40.8818 152.325 40.7679 152.325 40.7679C152.325 40.7679 152.316 40.7927 152.34 40.897C152.354 40.9564 152.375 41.0222 152.392 41.0729L152.346 41.1075C152.346 41.1075 152.208 41.2124 152.269 41.3636C152.269 41.3636 152.404 41.8409 152.781 41.8409C153.114 41.8514 153.391 41.5542 153.391 41.5542C154.105 40.8295 155.112 40.732 155.112 40.732C156.229 40.6605 157.823 41.7353 158.258 42.0455C156.605 42.0286 155.938 42.6251 155.938 42.6251C155.007 43.3065 155.37 44.1287 155.37 44.1287C155.437 44.3076 155.628 44.4379 155.75 44.4882C155.925 44.5601 156.069 44.5631 156.205 44.5488C156.303 44.5388 156.411 44.5046 156.466 44.4691C156.592 44.3989 156.818 44.2599 156.928 44.1121C157 44.038 157.074 43.8566 157.025 43.6837C157.025 43.6837 156.996 43.5447 157.129 43.5165C157.129 43.5165 157.567 43.4121 158.452 43.7795C158.452 43.7795 159.413 44.3062 160.659 44.4106C160.659 44.4106 162.076 44.5458 162.418 43.8241C162.418 43.8241 163.233 44.1373 164.424 44.2656C164.424 44.2656 165.586 44.3785 167.469 44.2452C167.84 44.2188 168.275 44.2478 168.275 44.2478C168.878 44.3158 169.262 44.6108 169.413 44.8417C170.03 45.7843 170.767 47.6336 173.782 47.5604L175.147 47.5252C175.977 47.5252 176.652 47.5317 177.316 47.8653C177.605 48.0113 178.371 48.7255 178.842 48.9668C180.237 49.8511 181.043 49.44 181.043 49.44C181.518 49.1797 181.48 48.7165 181.365 48.4572C181.222 48.4146 183.094 48.7152 183.892 47.7298C184.081 47.5101 184.113 47.3088 184.057 47.1826Z" fill="#FFFFFF" fill-opacity="1.000000" fill-rule="nonzero"/>
		</g>
	</g>
	<rect id="jaguar" rx="47" ry="47" width="45.934223" height="45.934223" transform="translate(143.580078 24.127930)" stroke="#CDCCCC" stroke-opacity="1.000000" stroke-width="1.000000"/>
	<rect id="shield-antivirus-svgrepo-com 1" width="35.825710" height="35.825710" transform="translate(177.151855 19.739014) rotate(-13.416809)" fill="#FFFFFF" fill-opacity="0"/>
	<g clip-path="url(#clip108_6152)">
		<g filter="url(#filter_108_6153_dd)">
			<path id="Vector" d="M188.918 55.4019L188.304 54.6172C184.939 50.2982 180.752 44.9249 182.47 37.7246L184.106 30.8641L185.317 31.153C189.688 32.1957 193.44 31.0736 194.044 28.5428L196.465 29.1204C195.861 31.6512 198.703 34.3459 203.074 35.3887L204.285 35.6774L202.648 42.538C200.931 49.7382 194.769 52.6431 189.818 54.9773L188.918 55.4019Z" fill="#7AB9E8" fill-opacity="1.000000" fill-rule="nonzero"/>
		</g>
		<g filter="url(#filter_108_6154_dd)">
			<path id="Vector" d="M203.074 35.3887C198.703 34.3459 195.861 31.6512 196.465 29.1205L195.254 28.8317L188.917 55.4005L188.918 55.4019L189.818 54.9773C194.769 52.6431 200.93 49.7383 202.648 42.538L204.285 35.6775L203.074 35.3887Z" fill="#579ADF" fill-opacity="1.000000" fill-rule="nonzero"/>
		</g>
	</g>
	<rect id="helmet_red" width="30.687067" height="31.986153" transform="matrix(-1 0 0 1 179.748 0)" fill="#FFFFFF" fill-opacity="0"/>
	<g clip-path="url(#clip108_6155)">
		<g filter="url(#filter_108_6157_dd)">
			<path id="Vector" d="M157.148 22.6743C156.837 23.9347 156.529 25.194 156.221 26.4523C159.056 28.0747 162.635 28.9807 167.132 28.9822L167.132 23.7791L157.148 22.6743Z" fill="#535353" fill-opacity="1.000000" fill-rule="evenodd"/>
			<path id="Vector" d="M177.107 22.6743C177.421 23.9347 177.733 25.194 178.042 26.4523C175.201 28.0747 171.63 28.9807 167.131 28.9822L167.131 23.7791L177.107 22.6743Z" fill="#676767" fill-opacity="1.000000" fill-rule="evenodd"/>
			<path id="Vector" d="M169.363 9.11041C175.84 3.38226 163.593 3.92505 160.141 1.02289C159.897 1.26526 159.753 1.55658 159.726 1.86078C159.698 2.16492 159.79 2.46851 159.988 2.7337C158.456 3.68555 155.762 2.3869 154.301 4.21124C155.956 4.13971 156.964 4.6358 157.579 5.29993C153.04 4.77423 154.815 7.97345 150.936 8.15387C153.826 9.37793 160.614 7.02789 164.812 9.88806C166.707 9.83514 167.468 9.16797 169.363 9.11041Z" fill="#1B2241" fill-opacity="1.000000" fill-rule="evenodd"/>
			<path id="Vector" d="M150.938 8.10101C153.798 9.36517 160.537 6.95642 164.704 9.88806C165.479 9.8551 166.242 9.72095 166.961 9.49115C161.511 4.67834 156.676 8.95068 150.936 8.10101L150.938 8.10101Z" fill="#1A1A1A" fill-opacity="1.000000" fill-rule="evenodd"/>
			<path id="Vector" d="M168.985 8.62378C168.237 8.68207 167.503 8.81653 166.805 9.02338L166.755 9.03564C167 8.76312 167.24 8.4906 167.476 8.21808C169.619 6.39471 165.108 4.23761 162.372 3.7951C161.387 4.43201 159.869 4.13043 159.091 4.57745C159.762 5.11945 160.177 6.0564 160.85 6.59833C153.169 5.82062 156.668 7.66998 152.981 8.02826C153.23 7.90277 153.455 7.75409 153.652 7.58582C154.886 6.53711 154.704 5.39191 157.394 5.69812L158.892 5.86804C158.627 5.59454 158.36 5.32153 158.091 5.04901C157.485 4.41602 156.572 3.98297 155.545 3.84106C155.786 3.73621 156.051 3.66608 156.326 3.6344C156.589 3.6048 156.854 3.58893 157.121 3.58691C158.317 3.56549 159.459 3.63593 160.412 3.06335L160.766 2.84747C160.695 2.75256 160.624 2.65918 160.56 2.5658C160.4 2.35614 160.333 2.11469 160.368 1.87531C161.603 2.5719 163.31 3.04034 164.772 3.42926C165.931 3.73541 167.146 4.04163 168.245 4.42285C169.02 4.69531 169.89 5.07349 170.302 5.59094C171.048 6.55548 169.895 7.80933 168.985 8.62378Z" fill="#4386BB" fill-opacity="1.000000" fill-rule="evenodd"/>
			<path id="Vector" d="M167.906 8.75055C167.517 8.82678 167.133 8.91779 166.756 9.02332L166.707 9.03564C166.95 8.76135 167.189 8.48712 167.424 8.21283C169.56 6.37781 165.065 4.20685 162.339 3.7616C161.357 4.40253 159.844 4.099 159.069 4.54889C159.737 5.09436 160.151 6.03729 160.822 6.5827C153.168 5.79999 156.655 7.66125 152.981 8.02179C154.894 7.6474 154.859 6.29462 155.945 5.96948C157.032 5.64441 158.467 6.39319 159.561 6.06812C159.446 5.44104 158.928 4.93103 158.173 4.15295C159.221 3.67682 161.863 4.10211 161.314 2.72772C163.665 4.67682 171.239 3.86945 168.365 8.58264L167.906 8.75055Z" fill="#283A84" fill-opacity="1.000000" fill-rule="evenodd"/>
			<path id="Vector" d="M163.722 10.4847C163.722 11.7559 165.287 12.7863 167.217 12.7863C169.147 12.7863 170.712 11.7559 170.712 10.4847C170.712 9.21368 169.147 8.18323 167.217 8.18323C165.287 8.18323 163.722 9.21368 163.722 10.4847Z" fill="#CDCCCC" fill-opacity="1.000000" fill-rule="evenodd"/>
			<path id="Vector" d="M167.201 10.57C162.82 10.57 159.076 12.3072 157.578 14.7577C156.774 15.0159 156.221 15.5479 156.221 16.1567C156.225 16.3591 156.286 16.5585 156.4 16.7421C156.514 16.9257 156.679 17.0892 156.883 17.222C156.957 20.8055 161.548 23.6973 167.201 23.6973C172.854 23.6973 177.429 20.8117 177.516 17.2374C177.729 17.1041 177.902 16.938 178.022 16.7505C178.143 16.563 178.208 16.3584 178.213 16.1505C178.213 15.5356 177.641 14.9929 176.818 14.7393C175.314 12.2949 171.577 10.57 167.201 10.57Z" fill="#8B8A8A" fill-opacity="1.000000" fill-rule="evenodd"/>
			<path id="Vector" d="M168.836 20.2876C164.984 20.2876 161.847 18.3005 161.847 15.855C161.847 13.4094 164.99 11.4224 168.836 11.4224C172.683 11.4224 175.826 13.4094 175.826 15.855C175.826 18.3005 172.691 20.2876 168.836 20.2876Z" fill="#989898" fill-opacity="1.000000" fill-rule="evenodd"/>
			<path id="Vector" d="M170.968 15.3435C169.512 15.3435 168.325 14.5771 168.325 13.6387C168.325 12.7003 169.512 11.9338 170.968 11.9338C172.424 11.9338 173.61 12.6987 173.61 13.6387C173.61 14.5787 172.412 15.3435 170.968 15.3435Z" fill="#ACACAC" fill-opacity="1.000000" fill-rule="evenodd"/>
			<path id="Vector" d="M167.132 14.3207L167.231 14.3207C168.625 14.3154 170.009 14.5037 171.314 14.8764L178.895 17.0291L178.895 23.4436C175.578 26.3792 171.71 28.6782 167.132 30.1756L167.132 14.3207Z" fill="#CDCCCC" fill-opacity="1.000000" fill-rule="evenodd"/>
			<path id="Vector" d="M168.837 15.3435C169.441 15.4199 170.034 15.5428 170.606 15.7104L172.06 16.1289L172.06 26.864C171.034 27.4553 169.958 27.9921 168.839 28.4708L168.839 15.3435L168.837 15.3435ZM172.742 16.3257L175.002 16.9768L175.002 24.9402C174.288 25.4665 173.535 25.9755 172.742 26.4596L172.742 16.3257ZM175.683 17.172L177.19 17.6061L177.19 23.1743C176.708 23.599 176.205 24.0154 175.683 24.4235L175.683 17.172Z" fill="#333333" fill-opacity="1.000000" fill-rule="evenodd"/>
			<path id="Vector" d="M167.132 14.3207L167.032 14.3207C165.642 14.3163 164.262 14.5046 162.959 14.8764L155.369 17.0275L155.369 23.442C158.688 26.3792 162.556 28.6782 167.132 30.1756L167.132 14.3207Z" fill="#B4B4B4" fill-opacity="1.000000" fill-rule="evenodd"/>
			<path id="Vector" d="M165.427 15.3435C164.811 15.4202 164.206 15.5431 163.621 15.7104L162.138 16.1289L162.138 26.864C163.185 27.455 164.283 27.9918 165.425 28.4708L165.425 15.3435L165.427 15.3435ZM161.441 16.3257L159.136 16.9768L159.136 24.9402C159.863 25.4665 160.631 25.9755 161.441 26.4596L161.441 16.3257ZM158.439 17.172L156.902 17.6061L156.902 23.1743C157.395 23.599 157.907 24.0154 158.439 24.4235L158.439 17.172Z" fill="#1A1A1A" fill-opacity="1.000000" fill-rule="evenodd"/>
			<path id="Vector" d="M168.099 8.6947C167.444 8.6947 167.131 9.00073 167.397 9.37665C167.565 9.57739 167.808 9.74548 168.1 9.86493C168.392 9.98431 168.724 10.051 169.065 10.0586C169.717 10.0586 170.031 9.75391 169.765 9.37665C169.596 9.17627 169.354 9.00842 169.062 8.88904C168.771 8.76971 168.439 8.70282 168.099 8.6947Z" fill="#E3E3E3" fill-opacity="1.000000" fill-rule="evenodd"/>
		</g>
	</g>
	<rect id="sword_red" width="28.994165" height="52.065723" transform="matrix(-1 0 0 1 151.97 0)" fill="#FFFFFF" fill-opacity="0"/>
	<g clip-path="url(#clip108_6173)">
		<g filter="url(#filter_108_6175_dd)">
			<path id="Vector" d="M151.573 47.4634L151.436 47.5341C151.281 47.6171 151.109 47.6624 150.934 47.6662C150.758 47.67 150.584 47.6323 150.425 47.556C150.265 47.4845 150.124 47.3762 150.013 47.2399C149.902 47.1036 149.826 46.9431 149.789 46.7714C149.475 45.4 148.847 43.7242 147.954 41.9935C147.061 40.2628 146.059 38.7815 145.129 37.7318C145.013 37.601 144.928 37.4453 144.881 37.2766C144.834 37.108 144.826 36.9308 144.858 36.7587C144.89 36.5865 144.961 36.424 145.065 36.2834C145.17 36.1428 145.305 36.028 145.46 35.9477L145.599 35.8771L145.031 34.7787L142.363 36.1533L139.695 37.5262L140.263 38.6246L140.4 38.554C140.556 38.4722 140.729 38.4276 140.905 38.4234C141.082 38.4193 141.257 38.4557 141.417 38.5302C141.577 38.6045 141.717 38.7147 141.828 38.8521C141.938 38.9896 142.016 39.1507 142.054 39.3229C142.368 40.6927 142.995 42.3701 143.888 44.0992C144.781 45.8284 145.784 47.3112 146.713 48.361C146.829 48.4919 146.914 48.6477 146.961 48.8165C147.008 48.9852 147.016 49.1625 146.984 49.3348C146.952 49.507 146.881 49.6697 146.777 49.8104C146.672 49.9511 146.537 50.0661 146.382 50.1466L146.244 50.2172L146.812 51.3156L149.479 49.9426L152.141 48.5634L151.573 47.4634Z" fill="#4592CF" fill-opacity="1.000000" fill-rule="evenodd"/>
			<path id="Vector" d="M144.782 38.3795C144.342 38.609 144.954 40.6956 146.149 43.0368C147.345 45.3781 148.671 47.092 149.103 46.8624C149.535 46.6328 148.932 44.5463 147.736 42.205C146.541 39.8638 145.222 38.1499 144.782 38.3795Z" fill="#283A84" fill-opacity="1.000000" fill-rule="evenodd"/>
			<path id="Vector" d="M125.375 3.40967L126.805 11.4889L140.142 37.3359L144.469 35.1028L131.132 9.2558L125.375 3.40967Z" fill="#D1D2D2" fill-opacity="1.000000" fill-rule="evenodd"/>
			<path id="Vector" d="M129.691 7.7738L127.42 6.29498L128.219 11.1149L140.207 37.3359L126.811 11.4889L125.375 3.40967L129.691 7.7738Z" fill="#E6E6E5" fill-opacity="1.000000" fill-rule="evenodd"/>
			<path id="Vector" d="M129.126 10.7405L135.428 23.6112L141.731 36.4835L142.419 36.1334L143.105 35.7833L136.116 23.2627L129.126 10.7405Z" fill="#818181" fill-opacity="1.000000" fill-rule="evenodd"/>
			<path id="Vector" d="M145.788 33.5505L138.159 37.5091C137.767 37.2252 137.291 37.0824 136.808 37.1038C136.325 37.1251 135.863 37.3094 135.498 37.6268C135.132 37.9443 134.883 38.3765 134.791 38.8536C134.699 39.3308 134.77 39.8251 134.991 40.257C135.213 40.6888 135.573 41.033 136.013 41.2339C136.453 41.4349 136.948 41.481 137.417 41.3648C137.886 41.2485 138.303 40.9767 138.6 40.5933C138.896 40.2097 139.056 39.7369 139.053 39.2509L146.682 35.2923C147.074 35.577 147.551 35.7203 148.035 35.6992C148.519 35.6781 148.981 35.4937 149.348 35.1758C149.714 34.858 149.964 34.4251 150.056 33.9471C150.148 33.4691 150.077 32.9739 149.855 32.5413C149.633 32.1087 149.272 31.764 148.832 31.5627C148.391 31.3615 147.896 31.3154 147.425 31.4321C146.955 31.5487 146.538 31.8212 146.241 32.2055C145.944 32.5898 145.784 33.0637 145.788 33.5505Z" fill="#333333" fill-opacity="1.000000" fill-rule="evenodd"/>
		</g>
	</g>
	<g filter="url(#filter_108_6182_dd)">
		<path id="Jaguar" d="M154.178 75.058L155.09 75.058L155.09 81.082C155.09 81.89 154.842 82.562 154.346 83.098C153.85 83.626 153.214 83.89 152.438 83.89C151.606 83.89 150.942 83.638 150.446 83.134C149.95 82.622 149.702 81.946 149.702 81.106L149.702 80.242L150.614 80.242L150.614 81.07C150.614 81.734 150.802 82.234 151.178 82.57C151.53 82.874 151.938 83.026 152.402 83.026C152.914 83.026 153.338 82.842 153.674 82.474C154.01 82.114 154.178 81.658 154.178 81.106L154.178 75.058ZM159.147 80.362L160.803 80.362L160.803 79.966C160.803 78.998 160.295 78.514 159.279 78.514C158.791 78.514 158.415 78.646 158.151 78.91C157.911 79.15 157.767 79.422 157.719 79.726L156.879 79.546C156.887 79.378 156.967 79.166 157.119 78.91C157.271 78.654 157.471 78.426 157.719 78.226C158.143 77.898 158.671 77.734 159.303 77.734C160.391 77.734 161.115 78.146 161.475 78.97C161.595 79.25 161.655 79.578 161.655 79.954L161.655 81.634C161.655 82.61 161.687 83.334 161.751 83.806L160.887 83.806C160.831 83.502 160.803 83.154 160.803 82.762C160.299 83.53 159.627 83.914 158.787 83.914C158.187 83.914 157.707 83.746 157.347 83.41C156.971 83.082 156.783 82.662 156.783 82.15L156.783 82.09C156.783 81.498 157.019 81.062 157.491 80.782C157.971 80.502 158.523 80.362 159.147 80.362ZM160.803 81.286L160.803 81.082L159.135 81.082C158.767 81.082 158.443 81.15 158.163 81.286C157.827 81.43 157.659 81.694 157.659 82.078C157.659 82.406 157.783 82.666 158.031 82.858C158.271 83.05 158.575 83.146 158.943 83.146C159.463 83.146 159.907 82.97 160.275 82.618C160.627 82.282 160.803 81.838 160.803 81.286ZM168.234 83.722L168.234 82.474C167.698 83.378 166.93 83.83 165.93 83.83C165.386 83.83 164.894 83.69 164.454 83.41C164.03 83.138 163.702 82.77 163.47 82.306C163.246 81.85 163.134 81.346 163.134 80.794C163.134 80.258 163.246 79.762 163.47 79.306C163.702 78.842 164.034 78.466 164.466 78.178C164.89 77.882 165.378 77.734 165.93 77.734C166.474 77.734 166.95 77.874 167.358 78.154C167.678 78.378 167.974 78.69 168.246 79.09L168.246 77.842L169.11 77.842L169.11 83.662C169.11 84.678 168.83 85.454 168.27 85.99C167.694 86.526 166.938 86.794 166.002 86.794C165.266 86.794 164.634 86.598 164.106 86.206C163.578 85.798 163.262 85.31 163.158 84.742L163.95 84.478C164.046 84.87 164.258 85.226 164.586 85.546C164.922 85.866 165.39 86.026 165.99 86.026C166.63 86.026 167.154 85.85 167.562 85.498C168.01 85.13 168.234 84.538 168.234 83.722ZM166.11 83.062C166.726 83.062 167.234 82.838 167.634 82.39C168.042 81.942 168.246 81.406 168.246 80.782C168.262 80.19 168.058 79.662 167.634 79.198C167.21 78.734 166.702 78.506 166.11 78.514C165.462 78.514 164.954 78.73 164.586 79.162C164.21 79.586 164.022 80.134 164.022 80.806C164.006 81.438 164.194 81.974 164.586 82.414C164.978 82.854 165.486 83.07 166.11 83.062ZM171.006 77.842L171.87 77.842L171.87 81.31C171.87 81.87 172.014 82.31 172.302 82.63C172.574 82.958 172.982 83.122 173.526 83.122C174.038 83.122 174.462 82.942 174.798 82.582C175.134 82.222 175.302 81.774 175.302 81.238L175.302 77.842L176.166 77.842L176.166 83.806L175.314 83.806L175.314 82.714C174.834 83.522 174.15 83.926 173.262 83.926C172.566 83.926 172.01 83.706 171.594 83.266C171.202 82.826 171.006 82.246 171.006 81.526L171.006 77.842ZM180.076 80.362L181.732 80.362L181.732 79.966C181.732 78.998 181.224 78.514 180.208 78.514C179.72 78.514 179.344 78.646 179.08 78.91C178.84 79.15 178.696 79.422 178.648 79.726L177.808 79.546C177.816 79.378 177.896 79.166 178.048 78.91C178.2 78.654 178.4 78.426 178.648 78.226C179.072 77.898 179.6 77.734 180.232 77.734C181.32 77.734 182.044 78.146 182.404 78.97C182.524 79.25 182.584 79.578 182.584 79.954L182.584 81.634C182.584 82.61 182.616 83.334 182.68 83.806L181.816 83.806C181.76 83.502 181.732 83.154 181.732 82.762C181.228 83.53 180.556 83.914 179.716 83.914C179.116 83.914 178.636 83.746 178.276 83.41C177.9 83.082 177.712 82.662 177.712 82.15L177.712 82.09C177.712 81.498 177.948 81.062 178.42 80.782C178.9 80.502 179.452 80.362 180.076 80.362ZM181.732 81.286L181.732 81.082L180.064 81.082C179.696 81.082 179.372 81.15 179.092 81.286C178.756 81.43 178.588 81.694 178.588 82.078C178.588 82.406 178.712 82.666 178.96 82.858C179.2 83.05 179.504 83.146 179.872 83.146C180.392 83.146 180.836 82.97 181.204 82.618C181.556 82.282 181.732 81.838 181.732 81.286ZM184.484 77.842L185.336 77.842L185.336 79.018C185.616 78.45 186.024 78.066 186.56 77.866C186.776 77.786 187.012 77.746 187.268 77.746C187.42 77.746 187.516 77.754 187.556 77.77L187.556 78.694C187.492 78.678 187.38 78.67 187.22 78.67C186.572 78.67 186.1 78.886 185.804 79.318C185.508 79.75 185.36 80.274 185.36 80.89L185.36 83.806L184.484 83.806L184.484 77.842Z" fill="#FFFFFF" fill-opacity="1.000000" fill-rule="evenodd"/>
	</g>
	<g filter="url(#filter_108_6184_dd)">
		<path id="Vector 1" d="M90.4902 53.5695L85.9795 31.344L125.575 31.344L121.398 53.5695L105.276 60.7823L90.4902 53.5695Z" fill="url(#paint_radial_108_6184_0)" fill-opacity="1.000000" fill-rule="nonzero"/>
	</g>
	<path id="Vector 1" d="M83.5327 29.344L88.7266 54.9343L89.6133 55.367L105.239 62.9897L123.17 54.9676L127.986 29.344L83.5327 29.344ZM90.4902 53.5695L85.9795 31.344L125.575 31.344L125.199 33.344L121.398 53.5695L105.276 60.7823L90.4902 53.5695Z" fill="url(#paint_linear_108_6184_1)" fill-opacity="1.000000" fill-rule="evenodd"/>
	<path id="Vector 2" d="M93.0352 52.3403L89.25 33.7541L122.476 33.7541L118.971 52.3403L105.442 58.3721L93.0352 52.3403Z" fill="url(#paint_radial_108_6185_0)" fill-opacity="1.000000" fill-rule="nonzero"/>
	<path id="Vector 2" d="M86.8018 31.7541L91.2725 53.7072L92.1606 54.139L105.406 60.5781L120.742 53.7404L124.888 31.7541L86.8018 31.7541ZM93.0352 52.3403L89.6572 35.7541L89.25 33.7541L122.476 33.7541L122.099 35.7541L118.971 52.3403L105.442 58.3721L93.0352 52.3403Z" fill="url(#paint_linear_108_6185_1)" fill-opacity="1.000000" fill-rule="evenodd"/>
	<g filter="url(#filter_108_6186_dd)">
		<path id="Vector" d="M112.487 41.6871C112.924 41.8348 113.37 41.9821 113.824 42.1298C114.279 42.2774 114.683 42.4191 115.037 42.5549C115.893 42.8854 116.544 43.3416 116.989 43.9229C117.435 44.5041 117.658 45.2256 117.658 46.0875C117.658 46.6304 117.531 47.1559 117.277 47.6637C117.023 48.1711 116.681 48.5931 116.25 48.9295C115.778 49.3015 115.232 49.5877 114.612 49.7883C113.992 49.9889 113.27 50.0895 112.443 50.0895C111.675 50.0895 110.96 49.9938 110.296 49.8022C109.632 49.6107 109.07 49.385 108.609 49.1256L107.999 49.7448L107.246 49.7448L107.131 45.2086L107.892 45.2086C108.063 45.64 108.282 46.0948 108.547 46.5733C108.813 47.0518 109.12 47.4802 109.468 47.8583C109.828 48.2543 110.231 48.576 110.676 48.8243C111.122 49.0723 111.643 49.1963 112.239 49.1963C113.042 49.1963 113.657 49.0005 114.085 48.6081C114.513 48.2156 114.728 47.7215 114.728 47.1256C114.728 46.636 114.546 46.2244 114.183 45.8911C113.82 45.5579 113.258 45.2698 112.496 45.0272C112 44.8673 111.544 44.7193 111.128 44.5831C110.712 44.447 110.321 44.3077 109.955 44.1656C109.111 43.8292 108.484 43.3483 108.074 42.7225C107.664 42.097 107.458 41.3978 107.458 40.6243C107.458 40.1343 107.564 39.6639 107.777 39.2122C107.989 38.7609 108.299 38.3548 108.707 37.9951C109.096 37.6587 109.595 37.3843 110.203 37.1715C110.811 36.959 111.472 36.8528 112.187 36.8528C112.883 36.8528 113.535 36.95 114.143 37.1447C114.75 37.3394 115.229 37.5336 115.577 37.7283L116.117 37.1976L116.888 37.1976L116.958 41.4772L116.197 41.4772C116.02 41.0164 115.812 40.5452 115.573 40.0637C115.334 39.582 115.081 39.1819 114.816 38.8625C114.526 38.5199 114.193 38.2469 113.815 38.0428C113.438 37.8391 112.995 37.7371 112.487 37.7371C111.85 37.7371 111.329 37.9174 110.924 38.2775C110.52 38.6376 110.318 39.0833 110.318 39.6147C110.318 40.1166 110.494 40.5268 110.845 40.8458C111.196 41.1648 111.744 41.4451 112.487 41.6871ZM105.82 38.2587C105.566 38.4064 105.37 38.5638 105.231 38.7319C105.093 38.8998 104.956 39.1314 104.82 39.426C104.637 39.8328 104.38 40.4265 104.05 41.2076C103.719 41.9887 103.341 42.8774 102.917 43.8734C102.539 44.7694 102.13 45.7511 101.69 46.8178C101.25 47.8848 100.83 48.9076 100.428 49.8862L98.6484 49.8862C97.8223 47.8643 96.981 45.81 96.1255 43.7233C95.2695 41.6363 94.6675 40.1862 94.3193 39.3727C94.1836 39.0781 94.0522 38.8556 93.9253 38.7051C93.7983 38.5551 93.5962 38.4005 93.3188 38.241C93.1177 38.1292 92.9409 38.0511 92.7876 38.0069C92.6343 37.9627 92.4307 37.9227 92.1768 37.8875L92.1768 37.1976L98.9854 37.1976L98.9854 37.8697C98.3481 37.9464 97.916 38.0275 97.689 38.1128C97.4619 38.1984 97.3481 38.306 97.3481 38.4356C97.3481 38.5007 97.3584 38.5697 97.3794 38.6435C97.3999 38.7173 97.4312 38.8159 97.4727 38.9395C97.6611 39.4577 98.0034 40.3043 98.499 41.4792C98.9946 42.6539 99.7295 44.4456 100.703 46.854C101.299 45.3879 101.794 44.1485 102.19 43.1358C102.585 42.1232 102.933 41.2281 103.234 40.4509C103.382 40.0741 103.504 39.722 103.602 39.395C103.699 39.068 103.748 38.8218 103.748 38.6567C103.748 38.468 103.612 38.3106 103.341 38.1835C103.069 38.0571 102.568 37.9641 101.836 37.9052L101.836 37.1976L106.927 37.1976L106.927 37.9052C106.732 37.9227 106.546 37.9582 106.369 38.0111C106.192 38.0644 106.009 38.1469 105.82 38.2587Z" fill="url(#paint_linear_108_6186_0)" fill-opacity="1.000000" fill-rule="nonzero"/>
	</g>
	<path id="Vector" d="M108.609 49.1256C109.07 49.385 109.632 49.6107 110.296 49.8022C110.373 49.8245 110.451 49.8455 110.53 49.8652C111.127 50.0148 111.765 50.0895 112.443 50.0895C112.833 50.0895 113.2 50.0671 113.544 50.0223C113.929 49.9722 114.285 49.8942 114.612 49.7883C115.232 49.5877 115.778 49.3015 116.25 48.9295C116.681 48.5931 117.023 48.1711 117.277 47.6637C117.531 47.1559 117.658 46.6304 117.658 46.0875Q117.658 44.96 117.149 44.1526Q117.075 44.0343 116.989 43.9229C116.544 43.3416 115.893 42.8854 115.037 42.5549C114.683 42.4191 114.279 42.2774 113.824 42.1298C113.37 41.9821 112.924 41.8348 112.487 41.6871C111.744 41.4451 111.196 41.1648 110.845 40.8458C110.494 40.5268 110.318 40.1166 110.318 39.6147C110.318 39.0833 110.52 38.6376 110.924 38.2775C111.118 38.1049 111.339 37.9736 111.586 37.8836C111.855 37.7859 112.155 37.7371 112.487 37.7371C112.995 37.7371 113.438 37.8391 113.815 38.0428C113.877 38.0765 113.939 38.1121 113.999 38.1497C114.302 38.3391 114.574 38.5765 114.816 38.8625C115.081 39.1819 115.334 39.582 115.573 40.0637Q115.775 40.4716 115.948 40.8696Q116.082 41.1763 116.197 41.4772L116.958 41.4772L116.954 41.1863L116.945 40.6569L116.942 40.4772L116.888 37.1976L116.117 37.1976L116.104 37.2106L115.891 37.4199L115.577 37.7283C115.284 37.5646 114.899 37.4011 114.423 37.2374C114.333 37.2065 114.239 37.1756 114.143 37.1447C113.535 36.95 112.883 36.8528 112.187 36.8528Q111.758 36.8528 111.356 36.9036Q110.75 36.9801 110.203 37.1715C109.595 37.3843 109.096 37.6587 108.707 37.9951C108.299 38.3548 107.989 38.7609 107.777 39.2122C107.564 39.6639 107.458 40.1343 107.458 40.6243C107.458 41.3978 107.664 42.097 108.074 42.7225C108.484 43.3483 109.111 43.8292 109.955 44.1656C110.321 44.3077 110.712 44.447 111.128 44.5831C111.544 44.7193 112 44.8673 112.496 45.0272C113.258 45.2698 113.82 45.5579 114.183 45.8911C114.546 46.2244 114.728 46.636 114.728 47.1256C114.728 47.7215 114.513 48.2156 114.085 48.6081C113.877 48.7993 113.624 48.9438 113.327 49.0417C113.013 49.1448 112.651 49.1963 112.239 49.1963Q111.461 49.1963 110.854 48.915Q110.764 48.8728 110.676 48.8243C110.231 48.576 109.828 48.2543 109.468 47.8583C109.12 47.4802 108.813 47.0518 108.547 46.5733C108.399 46.3058 108.265 46.0457 108.146 45.7928C108.052 45.5936 107.968 45.3988 107.892 45.2086L107.131 45.2086L107.139 45.5076L107.151 46.0237L107.156 46.2086L107.246 49.7448L107.999 49.7448L108.018 49.7252L108.24 49.4999L108.609 49.1256ZM108.205 48.1118L108.298 48.0173Q108.248 47.9517 108.199 47.8846L108.205 48.1118ZM115.534 48.2177Q115.585 48.1804 115.635 48.1415Q115.748 48.0532 115.85 47.9536Q116.17 47.6407 116.383 47.2165Q116.6 46.7825 116.646 46.3311Q116.658 46.21 116.658 46.0875Q116.658 45.1395 116.201 44.5384Q116.199 44.5349 116.196 44.5313Q115.698 43.8821 114.679 43.4886Q114.174 43.2949 113.515 43.0808L113.51 43.0791L112.178 42.6381Q110.858 42.2085 110.172 41.586Q109.873 41.3135 109.676 40.9802Q109.594 40.8416 109.53 40.6924Q109.519 40.6646 109.507 40.6365Q109.318 40.1635 109.318 39.6147Q109.318 39.1297 109.468 38.6967Q109.476 38.6736 109.484 38.6509Q109.424 38.6968 109.369 38.7446Q108.913 39.1473 108.682 39.6377Q108.537 39.9468 108.486 40.2708Q108.458 40.4454 108.458 40.6243Q108.458 41.1722 108.641 41.6503Q108.746 41.9238 108.91 42.1744Q109.352 42.8489 110.317 43.2335Q110.841 43.4371 111.437 43.632L112.8 44.0743Q114.152 44.5053 114.859 45.1545Q115.215 45.4814 115.428 45.8842Q115.47 45.9637 115.506 46.0461Q115.549 46.1435 115.583 46.2438Q115.728 46.6599 115.728 47.1256Q115.728 47.7087 115.534 48.2177ZM97.4727 38.9395C97.4312 38.8159 97.3999 38.7173 97.3794 38.6435C97.3584 38.5697 97.3481 38.5007 97.3481 38.4356C97.3481 38.3457 97.4028 38.2664 97.5122 38.1976C97.5605 38.1673 97.6196 38.139 97.689 38.1128C97.916 38.0275 98.3481 37.9464 98.9854 37.8697L98.9854 37.1976L97.9854 37.1976L97.2837 37.1976L93.1768 37.1976L92.2725 37.1976L92.1768 37.1976L92.1768 37.8875C92.4307 37.9227 92.6343 37.9627 92.7876 38.0069C92.9204 38.0452 93.0708 38.1088 93.2388 38.1976C93.2651 38.2114 93.2915 38.2259 93.3188 38.241C93.5962 38.4005 93.7983 38.5551 93.9253 38.7051C94.0522 38.8556 94.1836 39.0781 94.3193 39.3727C94.6675 40.1862 95.2695 41.6363 96.1255 43.7233Q97.4092 46.8533 98.6484 49.8862L100.428 49.8862C100.5 49.7101 100.574 49.5325 100.647 49.3536C100.982 48.5381 101.33 47.6928 101.69 46.8178C102.13 45.7511 102.539 44.7694 102.917 43.8734C103.163 43.2967 103.393 42.756 103.607 42.2513C103.763 41.8843 103.911 41.5364 104.05 41.2076C104.38 40.4265 104.637 39.8328 104.82 39.426C104.956 39.1314 105.093 38.8998 105.231 38.7319C105.37 38.5638 105.566 38.4064 105.82 38.2587C105.856 38.2372 105.893 38.2169 105.928 38.1976C106.079 38.1163 106.226 38.0541 106.369 38.0111C106.546 37.9582 106.732 37.9227 106.927 37.9052L106.927 37.1976L105.927 37.1976L105.697 37.1976L102.836 37.1976L101.893 37.1976L101.836 37.1976L101.836 37.9052C102.568 37.9641 103.069 38.0571 103.341 38.1835C103.351 38.1882 103.36 38.1929 103.37 38.1976C103.622 38.3222 103.748 38.4749 103.748 38.6567C103.748 38.8218 103.699 39.068 103.602 39.395C103.504 39.722 103.382 40.0741 103.234 40.4509C103.071 40.8733 102.893 41.3304 102.702 41.8223C102.541 42.2356 102.37 42.6735 102.19 43.1358C101.92 43.8273 101.603 44.6245 101.24 45.5273C101.071 45.9468 100.892 46.389 100.703 46.854C100.685 46.8093 100.667 46.7648 100.649 46.7204C100.479 46.2998 100.316 45.8984 100.161 45.5162C99.4521 43.7706 98.8979 42.4249 98.499 41.4792C98.0034 40.3043 97.6611 39.4577 97.4727 38.9395ZM100.107 48.0375L97.5776 41.868Q96.8257 40.0855 96.5327 39.2816L96.5283 39.2697L96.5244 39.2577Q96.4536 39.0468 96.4175 38.9161Q96.3481 38.673 96.3481 38.4356Q96.3481 38.314 96.3716 38.1976L94.7969 38.1976Q95.0181 38.4999 95.2275 38.9545L95.2354 38.9717L97.0508 43.3444L99.3198 48.8862L99.7583 48.8862L100.107 48.0375Z" fill="url(#paint_linear_108_6186_1)" fill-opacity="1.000000" fill-rule="evenodd"/>
</svg>
