<svg width="15.000000" height="15.000000" viewBox="0 0 15 15" fill="none" xmlns="http://www.w3.org/2000/svg" xmlns:xlink="http://www.w3.org/1999/xlink">
	<desc>
			Created with Pixso.
	</desc>
	<defs/>
	<path id="Vector" d="M5.25 6.75C4.83582 6.75 4.5 7.08575 4.5 7.5C4.5 7.91425 4.83582 8.25 5.25 8.25C7.62964 8.25 6.91504 8.25 9.75 8.25C10.1642 8.25 10.5 7.91425 10.5 7.5C10.5 7.08575 10.1642 6.75 9.75 6.75C7.39514 6.75 8.04016 6.75 5.25 6.75ZM0 7.5C0 3.35785 3.35791 0 7.5 0C11.6421 0 15 3.35785 15 7.5C15 11.6421 11.6421 15 7.5 15C3.35791 15 0 11.6421 0 7.5Z" fill="#FF2424" fill-opacity="1.000000" fill-rule="evenodd"/>
</svg>
