<svg width="206.000000" height="75.742310" viewBox="0 0 206 75.7423" fill="none" xmlns="http://www.w3.org/2000/svg" xmlns:xlink="http://www.w3.org/1999/xlink">
	<desc>
			Created with Pixso.
	</desc>
	<defs>
		<filter id="filter_1_1485_dd" x="0.000000" y="0.000000" width="206.000000" height="75.742310" filterUnits="userSpaceOnUse" color-interpolation-filters="sRGB">
			<feFlood flood-opacity="0" result="BackgroundImageFix"/>
			<feColorMatrix in="SourceAlpha" type="matrix" values="0 0 0 0 0 0 0 0 0 0 0 0 0 0 0 0 0 0 127 0" result="hardAlpha"/>
			<feOffset dx="0" dy="0"/>
			<feGaussianBlur stdDeviation="2.66667"/>
			<feComposite in2="hardAlpha" operator="out" k2="-1" k3="1"/>
			<feColorMatrix type="matrix" values="0 0 0 0 0.96863 0 0 0 0 0.82353 0 0 0 0 0.38039 0 0 0 1 0"/>
			<feBlend mode="normal" in2="BackgroundImageFix" result="effect_dropShadow_1"/>
			<feBlend mode="normal" in="SourceGraphic" in2="effect_dropShadow_1" result="shape"/>
		</filter>
		<clipPath id="clip1_1486">
			<rect id="candles 1" width="24.040817" height="38.000000" transform="translate(21.878174 18.878174)" fill="white" fill-opacity="0"/>
		</clipPath>
		<filter id="filter_1_1488_dd" x="52.298584" y="33.391846" width="140.024902" height="14.766602" filterUnits="userSpaceOnUse" color-interpolation-filters="sRGB">
			<feFlood flood-opacity="0" result="BackgroundImageFix"/>
			<feColorMatrix in="SourceAlpha" type="matrix" values="0 0 0 0 0 0 0 0 0 0 0 0 0 0 0 0 0 0 127 0" result="hardAlpha"/>
			<feOffset dx="0" dy="2"/>
			<feGaussianBlur stdDeviation="0.666667"/>
			<feComposite in2="hardAlpha" operator="out" k2="-1" k3="1"/>
			<feColorMatrix type="matrix" values="0 0 0 0 0 0 0 0 0 0 0 0 0 0 0 0 0 0 0.5 0"/>
			<feBlend mode="normal" in2="BackgroundImageFix" result="effect_dropShadow_1"/>
			<feBlend mode="normal" in="SourceGraphic" in2="effect_dropShadow_1" result="shape"/>
		</filter>
		<linearGradient id="paint_linear_1_1485_0" x1="8.000000" y1="67.742279" x2="198.000000" y2="67.742279" gradientUnits="userSpaceOnUse">
			<stop stop-color="#A7904C"/>
			<stop offset="0.534524" stop-color="#F1CC5E"/>
			<stop offset="1.000000" stop-color="#9E8A4D"/>
		</linearGradient>
	</defs>
	<g filter="url(#filter_1_1485_dd)">
		<path id="Vector" d="M196.041 58.9279L59.0552 58.9279C53.645 64.3712 46.1528 67.7423 37.8711 67.7423C21.3735 67.7423 8 54.3688 8 37.8711C8 21.3734 21.3735 8 37.8711 8C46.1528 8 53.645 11.371 59.0552 16.8145L196.041 16.8145C197.124 16.8145 198 17.6909 198 18.7732L198 56.9691C198 58.0513 197.124 58.9279 196.041 58.9279Z" fill="#123A1C" fill-opacity="1.000000" fill-rule="evenodd"/>
	</g>
	<path id="Vector" d="M59.0552 58.9279L196.041 58.9279C197.124 58.9279 198 58.0513 198 56.9691L198 18.7732C198 17.6909 197.124 16.8145 196.041 16.8145L59.0552 16.8145C53.645 11.371 46.1528 8 37.8711 8C21.3735 8 8 21.3734 8 37.8711C8 54.3688 21.3735 67.7423 37.8711 67.7423C46.1528 67.7423 53.645 64.3712 59.0552 58.9279ZM196 56.9279L58.2231 56.9279L57.6367 57.5179Q53.5449 61.6348 48.5969 63.6909Q43.6602 65.7423 37.8711 65.7423Q32.0981 65.7423 27.1707 63.701Q22.2441 61.6603 18.1631 57.5791Q14.082 53.498 12.0413 48.5717Q10 43.6443 10 37.8711Q10 32.098 12.0413 27.1705Q14.082 22.2443 18.1631 18.1632Q22.2441 14.082 27.1707 12.0413Q32.0981 10 37.8711 10Q43.6604 10 48.5969 12.0514Q53.5449 14.1074 57.6367 18.2242L58.2231 18.8145L196 18.8145L196 56.9279Z" fill="url(#paint_linear_1_1485_0)" fill-opacity="1.000000" fill-rule="evenodd"/>
	<rect id="candles 1" width="24.040817" height="38.000000" transform="translate(21.878174 18.878174)" fill="#FFFFFF" fill-opacity="0"/>
	<g clip-path="url(#clip1_1486)">
		<path id="Vector" d="M41.2659 44.47L41.2659 32.0619L45.9189 32.0619L45.9189 44.47L41.2659 44.47ZM42.8169 24.3068L44.3679 24.3068L44.3679 31.2864L42.8169 31.2864L42.8169 24.3068ZM31.9597 28.1843L36.6128 28.1843L36.6128 33.6129L31.9597 33.6129L31.9597 28.1843ZM33.5107 18.8782L35.0618 18.8782L35.0618 27.4088L33.5107 27.4088L33.5107 18.8782ZM21.8782 33.6129L26.5312 33.6129L26.5312 44.47L21.8782 44.47L21.8782 33.6129ZM23.4292 27.4088L24.9802 27.4088L24.9802 32.8374L23.4292 32.8374L23.4292 27.4088ZM24.9802 50.6741L23.4292 50.6741L23.4292 45.2455L24.9802 45.2455L24.9802 50.6741ZM35.0618 56.8782L33.5107 56.8782L33.5107 34.3884L35.0618 34.3884L35.0618 56.8782ZM44.3679 52.2251L42.8169 52.2251L42.8169 45.2455L44.3679 45.2455L44.3679 52.2251Z" fill="#FFD762" fill-opacity="1.000000" fill-rule="evenodd"/>
	</g>
	<g filter="url(#filter_1_1488_dd)">
		<path id="STOCK VS STOCK" d="M59.8699 33.9797Q59.9109 33.9524 59.8254 33.7439Q59.7434 33.532 59.7161 33.3918L60.4167 33.3918L61.7737 35.7434L61.3806 36.0647L61.0867 35.6887L60.5295 35.1555Q60.0647 34.6941 59.6238 34.4993Q59.1829 34.301 58.301 34.301Q57.4192 34.301 56.7903 34.9197Q56.1614 35.5349 56.1614 36.1809Q56.1614 36.8235 56.5784 37.1584Q56.9988 37.4934 57.5935 37.7463Q58.1917 37.9993 58.4856 38.0676Q60.051 38.447 60.7517 38.9221Q62.095 39.8176 62.095 41.2327Q62.095 42.0017 61.6951 42.5964Q61.2986 43.1912 60.9055 43.4441Q59.9246 44.0867 58.2737 44.0867Q57.2791 44.0867 56.4553 43.6116L56.2434 43.4851L56.2708 43.738Q56.3152 43.8782 56.3562 44.0046L55.6555 44.0046L54.2986 41.6531L54.6917 41.3318L54.9856 41.7078L55.5427 42.241Q56.5647 43.2903 57.7986 43.2903Q57.8396 43.2903 57.8806 43.2903Q59.1555 43.2493 59.9041 42.6067Q60.6526 41.9607 60.6526 41.2532Q60.6526 40.5457 60.3757 40.2654Q59.7708 39.6638 59.3538 39.5374Q57.2927 38.9221 56.1477 38.3616Q54.801 37.6917 54.801 36.3176L54.801 36.2629Q54.801 35.5759 55.1155 35.0154Q55.4333 34.4548 55.9358 34.1472Q56.9578 33.532 57.9797 33.532Q59.0017 33.532 59.8699 33.9797ZM68.8289 34.8616L68.8289 42.675Q69.0818 43.1775 69.3347 43.2048L70.8865 43.2048L70.8865 43.8782L65.5135 43.8782L65.5135 43.2356L66.843 43.2356Q67.0926 43.2048 67.26 43.0237Q67.4309 42.8425 67.4856 42.6169L67.4856 34.6394Q67.3455 34.3318 67.0515 34.2463Q63.972 34.2463 63.972 35.6169L63.972 36.0955L63.3567 36.0955L63.3567 33.573L73.0569 33.573L73.0569 36.0955L72.4417 36.0955L72.4417 35.6169Q72.4417 34.2463 70.9036 34.2463L69.2493 34.2463Q68.887 34.4412 68.8289 34.8616ZM76.6841 43.4304Q75.4946 42.7024 74.7666 41.4993Q74.0386 40.2927 74.0386 38.8367Q74.0386 37.3806 74.7666 36.157Q75.4946 34.9333 76.6841 34.1917Q77.8736 33.4465 79.3159 33.4465Q80.7583 33.4465 81.9409 34.1472Q83.1236 34.8479 83.8584 36.075Q84.5933 37.2986 84.5933 38.8196Q84.5933 40.3372 83.8584 41.5403Q83.1236 42.7434 81.9409 43.4509Q80.7583 44.1584 79.3159 44.1584Q77.8736 44.1584 76.6841 43.4304ZM79.4014 34.1917L78.9365 34.1917Q77.7471 34.1917 76.7251 35.5623Q75.7031 36.9329 75.7031 38.8948Q75.7031 40.8533 76.7935 42.1282Q77.8872 43.4031 79.4185 43.4031Q80.9531 43.4031 81.9409 42.1077Q82.9287 40.8123 82.9287 38.7683Q82.9287 36.7244 81.8418 35.4597Q80.7583 34.1917 79.4014 34.1917ZM90.6983 43.1775Q93.0772 43.1775 94.1436 41.8752L94.4238 41.4993L94.8272 41.8342Q94.2837 42.5486 94.065 42.7366Q93.8496 42.9246 93.6035 43.1091Q93.3574 43.2903 93.125 43.4031Q92.896 43.5159 92.7969 43.5706L92.5884 43.6526Q91.5801 44.032 90.4727 44.032Q89.3687 44.032 88.4937 43.6252Q87.6187 43.2185 86.9863 42.4768Q86.3574 41.7351 85.9644 40.6448Q85.5747 39.551 85.5747 38.5291Q85.5747 35.9553 87.7588 34.2874Q88.9619 33.3918 90.3325 33.3918Q91.7066 33.3918 92.5747 33.7268Q92.6431 33.7576 92.6773 33.7576Q92.7149 33.7576 92.7149 33.7029Q92.7149 33.6448 92.6294 33.5183L93.3301 33.5183L94.687 35.5896L94.2974 35.9109L94.0034 35.5349L93.4429 35.0017Q92.8106 34.4001 92.1611 34.2737Q91.5117 34.1472 90.9512 34.1472Q90.3906 34.1472 89.8711 34.325Q89.355 34.4993 88.8423 34.8787Q88.333 35.2546 87.9126 35.7605Q87.4922 36.2629 87.2393 36.95Q86.9898 37.6335 86.9898 38.3616Q86.9898 40.3645 88.0733 41.7727Q89.1568 43.1775 90.6983 43.1775ZM98.8472 42.8289Q98.9429 43.2493 99.4897 43.2493L100.399 43.2493L100.399 43.8782L95.9487 43.8782L95.9487 43.2493L96.9434 43.2493Q97.333 43.1912 97.5176 42.8425L97.5176 34.7488Q97.4595 34.4275 96.8579 34.3318L95.9487 34.3318L95.9487 33.6995L100.399 33.6995L100.399 34.3318L99.4214 34.3318Q99.042 34.3865 98.8472 34.7488L98.8472 38.8367L103.342 35.0291Q103.396 34.8752 103.396 34.7659Q103.396 34.4548 102.921 34.3318L102.333 34.3318L102.333 33.6995L106.25 33.6995L106.25 34.3455L105.748 34.3455Q104.812 34.595 104.039 35.2546L100.806 38.0266L105.509 42.8015Q105.943 43.2356 106.685 43.2356L107.149 43.2356L107.149 43.8782L102.655 43.8782L102.655 43.2493L103.297 43.2356Q103.79 43.0818 103.79 42.969Q103.79 42.8562 103.578 42.4768L99.9512 38.7683L98.8472 39.7185L98.8472 42.8289ZM113.238 34.1472L112.469 34.1472L112.469 33.5183L116.779 33.5183L116.779 34.1472L115.941 34.1472Q115.647 34.1472 115.528 34.3079Q115.408 34.4685 115.408 34.6086L115.408 34.7932L118.249 42.7571L121.092 34.7932L121.092 34.6257Q121.092 34.4856 120.952 34.3386Q120.812 34.1917 120.559 34.1472L119.722 34.1472L119.722 33.5183L123.375 33.5183L123.375 34.1472L122.675 34.1472Q122.422 34.1917 122.203 34.3728Q121.988 34.554 121.906 34.7932L118.655 43.8782L117.257 43.8782L114.007 34.7932Q113.812 34.2327 113.238 34.1472ZM129.926 33.9797Q129.967 33.9524 129.881 33.7439Q129.799 33.532 129.772 33.3918L130.473 33.3918L131.83 35.7434L131.437 36.0647L131.143 35.6887L130.586 35.1555Q130.121 34.6941 129.68 34.4993Q129.239 34.301 128.357 34.301Q127.475 34.301 126.846 34.9197Q126.217 35.5349 126.217 36.1809Q126.217 36.8235 126.634 37.1584Q127.055 37.4934 127.65 37.7463Q128.248 37.9993 128.542 38.0676Q130.107 38.447 130.808 38.9221Q132.151 39.8176 132.151 41.2327Q132.151 42.0017 131.751 42.5964Q131.355 43.1912 130.962 43.4441Q129.981 44.0867 128.33 44.0867Q127.335 44.0867 126.511 43.6116L126.299 43.4851L126.327 43.738Q126.371 43.8782 126.412 44.0046L125.712 44.0046L124.355 41.6531L124.748 41.3318L125.042 41.7078L125.599 42.241Q126.621 43.2903 127.855 43.2903Q127.896 43.2903 127.937 43.2903Q129.212 43.2493 129.96 42.6067Q130.709 41.9607 130.709 41.2532Q130.709 40.5457 130.432 40.2654Q129.827 39.6638 129.41 39.5374Q127.349 38.9221 126.204 38.3616Q124.857 37.6917 124.857 36.3176L124.857 36.2629Q124.857 35.5759 125.171 35.0154Q125.489 34.4548 125.992 34.1472Q127.014 33.532 128.036 33.532Q129.058 33.532 129.926 33.9797ZM143.044 33.9797Q143.085 33.9524 142.999 33.7439Q142.917 33.532 142.89 33.3918L143.591 33.3918L144.948 35.7434L144.555 36.0647L144.261 35.6887L143.704 35.1555Q143.239 34.6941 142.798 34.4993Q142.357 34.301 141.475 34.301Q140.593 34.301 139.964 34.9197Q139.335 35.5349 139.335 36.1809Q139.335 36.8235 139.752 37.1584Q140.173 37.4934 140.768 37.7463Q141.366 37.9993 141.66 38.0676Q143.225 38.447 143.926 38.9221Q145.269 39.8176 145.269 41.2327Q145.269 42.0017 144.869 42.5964Q144.473 43.1912 144.08 43.4441Q143.099 44.0867 141.448 44.0867Q140.453 44.0867 139.629 43.6116L139.417 43.4851L139.445 43.738Q139.489 43.8782 139.53 44.0046L138.83 44.0046L137.473 41.6531L137.866 41.3318L138.16 41.7078L138.717 42.241Q139.739 43.2903 140.973 43.2903Q141.014 43.2903 141.055 43.2903Q142.33 43.2493 143.078 42.6067Q143.827 41.9607 143.827 41.2532Q143.827 40.5457 143.55 40.2654Q142.945 39.6638 142.528 39.5374Q140.467 38.9221 139.322 38.3616Q137.975 37.6917 137.975 36.3176L137.975 36.2629Q137.975 35.5759 138.289 35.0154Q138.607 34.4548 139.11 34.1472Q140.132 33.532 141.154 33.532Q142.176 33.532 143.044 33.9797ZM152.003 34.8616L152.003 42.675Q152.256 43.1775 152.509 43.2048L154.061 43.2048L154.061 43.8782L148.687 43.8782L148.687 43.2356L150.017 43.2356Q150.267 43.2048 150.434 43.0237Q150.605 42.8425 150.66 42.6169L150.66 34.6394Q150.519 34.3318 150.226 34.2463Q147.146 34.2463 147.146 35.6169L147.146 36.0955L146.531 36.0955L146.531 33.573L156.231 33.573L156.231 36.0955L155.616 36.0955L155.616 35.6169Q155.616 34.2463 154.078 34.2463L152.423 34.2463Q152.061 34.4412 152.003 34.8616ZM159.858 43.4304Q158.669 42.7024 157.941 41.4993Q157.213 40.2927 157.213 38.8367Q157.213 37.3806 157.941 36.157Q158.669 34.9333 159.858 34.1917Q161.048 33.4465 162.49 33.4465Q163.932 33.4465 165.115 34.1472Q166.298 34.8479 167.032 36.075Q167.767 37.2986 167.767 38.8196Q167.767 40.3372 167.032 41.5403Q166.298 42.7434 165.115 43.4509Q163.932 44.1584 162.49 44.1584Q161.048 44.1584 159.858 43.4304ZM162.575 34.1917L162.111 34.1917Q160.921 34.1917 159.899 35.5623Q158.877 36.9329 158.877 38.8948Q158.877 40.8533 159.967 42.1282Q161.061 43.4031 162.592 43.4031Q164.127 43.4031 165.115 42.1077Q166.103 40.8123 166.103 38.7683Q166.103 36.7244 165.016 35.4597Q163.932 34.1917 162.575 34.1917ZM173.872 43.1775Q176.251 43.1775 177.318 41.8752L177.598 41.4993L178.001 41.8342Q177.458 42.5486 177.239 42.7366Q177.024 42.9246 176.778 43.1091Q176.531 43.2903 176.299 43.4031Q176.07 43.5159 175.971 43.5706L175.762 43.6526Q174.754 44.032 173.647 44.032Q172.543 44.032 171.668 43.6252Q170.793 43.2185 170.16 42.4768Q169.531 41.7351 169.138 40.6448Q168.749 39.551 168.749 38.5291Q168.749 35.9553 170.933 34.2874Q172.136 33.3918 173.507 33.3918Q174.881 33.3918 175.749 33.7268Q175.817 33.7576 175.851 33.7576Q175.889 33.7576 175.889 33.7029Q175.889 33.6448 175.803 33.5183L176.504 33.5183L177.861 35.5896L177.471 35.9109L177.177 35.5349L176.617 35.0017Q175.985 34.4001 175.335 34.2737Q174.686 34.1472 174.125 34.1472Q173.565 34.1472 173.045 34.325Q172.529 34.4993 172.016 34.8787Q171.507 35.2546 171.087 35.7605Q170.666 36.2629 170.413 36.95Q170.164 37.6335 170.164 38.3616Q170.164 40.3645 171.247 41.7727Q172.331 43.1775 173.872 43.1775ZM182.021 42.8289Q182.117 43.2493 182.664 43.2493L183.573 43.2493L183.573 43.8782L179.123 43.8782L179.123 43.2493L180.117 43.2493Q180.507 43.1912 180.692 42.8425L180.692 34.7488Q180.633 34.4275 180.032 34.3318L179.123 34.3318L179.123 33.6995L183.573 33.6995L183.573 34.3318L182.595 34.3318Q182.216 34.3865 182.021 34.7488L182.021 38.8367L186.516 35.0291Q186.57 34.8752 186.57 34.7659Q186.57 34.4548 186.095 34.3318L185.507 34.3318L185.507 33.6995L189.424 33.6995L189.424 34.3455L188.922 34.3455Q187.986 34.595 187.213 35.2546L183.98 38.0266L188.683 42.8015Q189.117 43.2356 189.859 43.2356L190.323 43.2356L190.323 43.8782L185.829 43.8782L185.829 43.2493L186.471 43.2356Q186.964 43.0818 186.964 42.969Q186.964 42.8562 186.752 42.4768L183.125 38.7683L182.021 39.7185L182.021 42.8289Z" fill="#FFD762" fill-opacity="1.000000" fill-rule="evenodd"/>
	</g>
</svg>
