<svg width="212.000000" height="100.000000" viewBox="0 0 212 100" fill="none" xmlns="http://www.w3.org/2000/svg" xmlns:xlink="http://www.w3.org/1999/xlink">
	<desc>
			Created with Pixso.
	</desc>
	<defs>
		<clipPath id="clip108_6350">
			<rect id="tesla" rx="47" ry="47" width="45.934223" height="45.934223" transform="translate(21.502441 24.127930) rotate(-0.000000)" fill="white" fill-opacity="0"/>
		</clipPath>
		<filter id="filter_108_6355_dd" x="3.686279" y="28.471619" width="30.128906" height="34.757202" filterUnits="userSpaceOnUse" color-interpolation-filters="sRGB">
			<feFlood flood-opacity="0" result="BackgroundImageFix"/>
			<feColorMatrix in="SourceAlpha" type="matrix" values="0 0 0 0 0 0 0 0 0 0 0 0 0 0 0 0 0 0 127 0" result="hardAlpha"/>
			<feOffset dx="0" dy="4"/>
			<feGaussianBlur stdDeviation="1.33333"/>
			<feComposite in2="hardAlpha" operator="out" k2="-1" k3="1"/>
			<feColorMatrix type="matrix" values="0 0 0 0 0 0 0 0 0 0 0 0 0 0 0 0 0 0 0.25 0"/>
			<feBlend mode="normal" in2="BackgroundImageFix" result="effect_dropShadow_1"/>
			<feBlend mode="normal" in="SourceGraphic" in2="effect_dropShadow_1" result="shape"/>
		</filter>
		<filter id="filter_108_6356_dd" x="3.686279" y="28.759277" width="23.309570" height="34.469543" filterUnits="userSpaceOnUse" color-interpolation-filters="sRGB">
			<feFlood flood-opacity="0" result="BackgroundImageFix"/>
			<feColorMatrix in="SourceAlpha" type="matrix" values="0 0 0 0 0 0 0 0 0 0 0 0 0 0 0 0 0 0 127 0" result="hardAlpha"/>
			<feOffset dx="0" dy="4"/>
			<feGaussianBlur stdDeviation="1.33333"/>
			<feComposite in2="hardAlpha" operator="out" k2="-1" k3="1"/>
			<feColorMatrix type="matrix" values="0 0 0 0 0 0 0 0 0 0 0 0 0 0 0 0 0 0 0.25 0"/>
			<feBlend mode="normal" in2="BackgroundImageFix" result="effect_dropShadow_1"/>
			<feBlend mode="normal" in="SourceGraphic" in2="effect_dropShadow_1" result="shape"/>
		</filter>
		<clipPath id="clip108_6354">
			<rect id="shield-antivirus-svgrepo-com 1" width="35.689922" height="35.689926" transform="matrix(-0.972708 0.232033 0.232033 0.972708 34.7158 19.7012)" fill="white" fill-opacity="0"/>
		</clipPath>
		<filter id="filter_108_6359_dd" x="22.778809" y="-4.980957" width="47.853271" height="49.042236" filterUnits="userSpaceOnUse" color-interpolation-filters="sRGB">
			<feFlood flood-opacity="0" result="BackgroundImageFix"/>
			<feColorMatrix in="SourceAlpha" type="matrix" values="0 0 0 0 0 0 0 0 0 0 0 0 0 0 0 0 0 0 127 0" result="hardAlpha"/>
			<feOffset dx="0" dy="4"/>
			<feGaussianBlur stdDeviation="3.33333"/>
			<feComposite in2="hardAlpha" operator="out" k2="-1" k3="1"/>
			<feColorMatrix type="matrix" values="0 0 0 0 0 0 0 0 0 0 0 0 0 0 0 0 0 0 0.5 0"/>
			<feBlend mode="normal" in2="BackgroundImageFix" result="effect_dropShadow_1"/>
			<feBlend mode="normal" in="SourceGraphic" in2="effect_dropShadow_1" result="shape"/>
		</filter>
		<clipPath id="clip108_6357">
			<rect id="helmet_red" width="30.570757" height="31.864920" transform="translate(31.929443 0.000000)" fill="white" fill-opacity="0"/>
		</clipPath>
		<filter id="filter_108_6377_dd" x="49.443115" y="-2.603271" width="46.664551" height="67.724365" filterUnits="userSpaceOnUse" color-interpolation-filters="sRGB">
			<feFlood flood-opacity="0" result="BackgroundImageFix"/>
			<feColorMatrix in="SourceAlpha" type="matrix" values="0 0 0 0 0 0 0 0 0 0 0 0 0 0 0 0 0 0 127 0" result="hardAlpha"/>
			<feOffset dx="0" dy="4"/>
			<feGaussianBlur stdDeviation="3.33333"/>
			<feComposite in2="hardAlpha" operator="out" k2="-1" k3="1"/>
			<feColorMatrix type="matrix" values="0 0 0 0 0 0 0 0 0 0 0 0 0 0 0 0 0 0 0.5 0"/>
			<feBlend mode="normal" in2="BackgroundImageFix" result="effect_dropShadow_1"/>
			<feBlend mode="normal" in="SourceGraphic" in2="effect_dropShadow_1" result="shape"/>
		</filter>
		<clipPath id="clip108_6375">
			<rect id="sword_red" width="28.884270" height="51.868382" transform="translate(59.613037 0.000000)" fill="white" fill-opacity="0"/>
		</clipPath>
		<filter id="filter_108_6384_dd" x="17.384521" y="74.697998" width="52.717773" height="13.216614" filterUnits="userSpaceOnUse" color-interpolation-filters="sRGB">
			<feFlood flood-opacity="0" result="BackgroundImageFix"/>
			<feColorMatrix in="SourceAlpha" type="matrix" values="0 0 0 0 0 0 0 0 0 0 0 0 0 0 0 0 0 0 127 0" result="hardAlpha"/>
			<feOffset dx="0" dy="2"/>
			<feGaussianBlur stdDeviation="0.666667"/>
			<feComposite in2="hardAlpha" operator="out" k2="-1" k3="1"/>
			<feColorMatrix type="matrix" values="0 0 0 0 0 0 0 0 0 0 0 0 0 0 0 0 0 0 0.5 0"/>
			<feBlend mode="normal" in2="BackgroundImageFix" result="effect_dropShadow_1"/>
			<feBlend mode="normal" in="SourceGraphic" in2="effect_dropShadow_1" result="shape"/>
		</filter>
		<clipPath id="clip108_6387">
			<rect id="NIO_logo_emblem 1" width="31.289482" height="26.320711" transform="translate(150.902344 34.579224)" fill="white" fill-opacity="0"/>
		</clipPath>
		<clipPath id="clip108_6386">
			<rect id="nio" rx="47" ry="47" width="45.934223" height="45.934223" transform="translate(143.580078 24.127930)" fill="white" fill-opacity="0"/>
		</clipPath>
		<filter id="filter_108_6391_dd" x="174.071533" y="28.542847" width="30.212891" height="34.859070" filterUnits="userSpaceOnUse" color-interpolation-filters="sRGB">
			<feFlood flood-opacity="0" result="BackgroundImageFix"/>
			<feColorMatrix in="SourceAlpha" type="matrix" values="0 0 0 0 0 0 0 0 0 0 0 0 0 0 0 0 0 0 127 0" result="hardAlpha"/>
			<feOffset dx="-4" dy="4"/>
			<feGaussianBlur stdDeviation="1.33333"/>
			<feComposite in2="hardAlpha" operator="out" k2="-1" k3="1"/>
			<feColorMatrix type="matrix" values="0 0 0 0 0 0 0 0 0 0 0 0 0 0 0 0 0 0 0.25 0"/>
			<feBlend mode="normal" in2="BackgroundImageFix" result="effect_dropShadow_1"/>
			<feBlend mode="normal" in="SourceGraphic" in2="effect_dropShadow_1" result="shape"/>
		</filter>
		<filter id="filter_108_6392_dd" x="180.916504" y="28.831665" width="23.367920" height="34.570251" filterUnits="userSpaceOnUse" color-interpolation-filters="sRGB">
			<feFlood flood-opacity="0" result="BackgroundImageFix"/>
			<feColorMatrix in="SourceAlpha" type="matrix" values="0 0 0 0 0 0 0 0 0 0 0 0 0 0 0 0 0 0 127 0" result="hardAlpha"/>
			<feOffset dx="-4" dy="4"/>
			<feGaussianBlur stdDeviation="1.33333"/>
			<feComposite in2="hardAlpha" operator="out" k2="-1" k3="1"/>
			<feColorMatrix type="matrix" values="0 0 0 0 0 0 0 0 0 0 0 0 0 0 0 0 0 0 0.25 0"/>
			<feBlend mode="normal" in2="BackgroundImageFix" result="effect_dropShadow_1"/>
			<feBlend mode="normal" in="SourceGraphic" in2="effect_dropShadow_1" result="shape"/>
		</filter>
		<clipPath id="clip108_6390">
			<rect id="shield-antivirus-svgrepo-com 1" width="35.825710" height="35.825710" transform="translate(177.151855 19.739014) rotate(-13.416809)" fill="white" fill-opacity="0"/>
		</clipPath>
		<filter id="filter_108_6395_dd" x="140.935547" y="-4.977112" width="47.959473" height="49.152710" filterUnits="userSpaceOnUse" color-interpolation-filters="sRGB">
			<feFlood flood-opacity="0" result="BackgroundImageFix"/>
			<feColorMatrix in="SourceAlpha" type="matrix" values="0 0 0 0 0 0 0 0 0 0 0 0 0 0 0 0 0 0 127 0" result="hardAlpha"/>
			<feOffset dx="0" dy="4"/>
			<feGaussianBlur stdDeviation="3.33333"/>
			<feComposite in2="hardAlpha" operator="out" k2="-1" k3="1"/>
			<feColorMatrix type="matrix" values="0 0 0 0 0 0 0 0 0 0 0 0 0 0 0 0 0 0 0.5 0"/>
			<feBlend mode="normal" in2="BackgroundImageFix" result="effect_dropShadow_1"/>
			<feBlend mode="normal" in="SourceGraphic" in2="effect_dropShadow_1" result="shape"/>
		</filter>
		<clipPath id="clip108_6393">
			<rect id="helmet_red" width="30.687067" height="31.986153" transform="matrix(-1 0 0 1 179.748 0)" fill="white" fill-opacity="0"/>
		</clipPath>
		<filter id="filter_108_6413_dd" x="115.375000" y="-2.590332" width="46.766113" height="67.905945" filterUnits="userSpaceOnUse" color-interpolation-filters="sRGB">
			<feFlood flood-opacity="0" result="BackgroundImageFix"/>
			<feColorMatrix in="SourceAlpha" type="matrix" values="0 0 0 0 0 0 0 0 0 0 0 0 0 0 0 0 0 0 127 0" result="hardAlpha"/>
			<feOffset dx="0" dy="4"/>
			<feGaussianBlur stdDeviation="3.33333"/>
			<feComposite in2="hardAlpha" operator="out" k2="-1" k3="1"/>
			<feColorMatrix type="matrix" values="0 0 0 0 0 0 0 0 0 0 0 0 0 0 0 0 0 0 0.5 0"/>
			<feBlend mode="normal" in2="BackgroundImageFix" result="effect_dropShadow_1"/>
			<feBlend mode="normal" in="SourceGraphic" in2="effect_dropShadow_1" result="shape"/>
		</filter>
		<clipPath id="clip108_6411">
			<rect id="sword_red" width="28.994165" height="52.065723" transform="matrix(-1 0 0 1 151.971 0)" fill="white" fill-opacity="0"/>
		</clipPath>
		<filter id="filter_108_6420_dd" x="156.256836" y="74.973999" width="25.098145" height="12.927979" filterUnits="userSpaceOnUse" color-interpolation-filters="sRGB">
			<feFlood flood-opacity="0" result="BackgroundImageFix"/>
			<feColorMatrix in="SourceAlpha" type="matrix" values="0 0 0 0 0 0 0 0 0 0 0 0 0 0 0 0 0 0 127 0" result="hardAlpha"/>
			<feOffset dx="0" dy="2"/>
			<feGaussianBlur stdDeviation="0.666667"/>
			<feComposite in2="hardAlpha" operator="out" k2="-1" k3="1"/>
			<feColorMatrix type="matrix" values="0 0 0 0 0 0 0 0 0 0 0 0 0 0 0 0 0 0 0.5 0"/>
			<feBlend mode="normal" in2="BackgroundImageFix" result="effect_dropShadow_1"/>
			<feBlend mode="normal" in="SourceGraphic" in2="effect_dropShadow_1" result="shape"/>
		</filter>
		<filter id="filter_108_6422_dd" x="58.532715" y="4.343994" width="94.452881" height="83.645691" filterUnits="userSpaceOnUse" color-interpolation-filters="sRGB">
			<feFlood flood-opacity="0" result="BackgroundImageFix"/>
			<feColorMatrix in="SourceAlpha" type="matrix" values="0 0 0 0 0 0 0 0 0 0 0 0 0 0 0 0 0 0 127 0" result="hardAlpha"/>
			<feOffset dx="0" dy="0"/>
			<feGaussianBlur stdDeviation="8.33333"/>
			<feComposite in2="hardAlpha" operator="out" k2="-1" k3="1"/>
			<feColorMatrix type="matrix" values="0 0 0 0 0.98039 0 0 0 0 0.79216 0 0 0 0 0.34902 0 0 0 1 0"/>
			<feBlend mode="normal" in2="BackgroundImageFix" result="effect_dropShadow_1"/>
			<feBlend mode="normal" in="SourceGraphic" in2="effect_dropShadow_1" result="shape"/>
		</filter>
		<filter id="filter_108_6424_dd" x="90.176758" y="36.852844" width="29.481201" height="19.236694" filterUnits="userSpaceOnUse" color-interpolation-filters="sRGB">
			<feFlood flood-opacity="0" result="BackgroundImageFix"/>
			<feColorMatrix in="SourceAlpha" type="matrix" values="0 0 0 0 0 0 0 0 0 0 0 0 0 0 0 0 0 0 127 0" result="hardAlpha"/>
			<feOffset dx="0" dy="4"/>
			<feGaussianBlur stdDeviation="0.666667"/>
			<feComposite in2="hardAlpha" operator="out" k2="-1" k3="1"/>
			<feColorMatrix type="matrix" values="0 0 0 0 0 0 0 0 0 0 0 0 0 0 0 0 0 0 0.5 0"/>
			<feBlend mode="normal" in2="BackgroundImageFix" result="effect_dropShadow_1"/>
			<feBlend mode="normal" in="SourceGraphic" in2="effect_dropShadow_1" result="shape"/>
		</filter>
		<radialGradient id="paint_radial_108_6422_0" cx="0.000000" cy="0.000000" r="1.000000" gradientUnits="userSpaceOnUse" gradientTransform="translate(88.2175 39.4352) rotate(9.60304) scale(34.5708 46.5041)">
			<stop offset="0.102161" stop-color="#B37D16"/>
			<stop offset="0.806940" stop-color="#F8F497"/>
			<stop offset="1.000000" stop-color="#C4963D"/>
		</radialGradient>
		<linearGradient id="paint_linear_108_6422_1" x1="85.979492" y1="31.343988" x2="116.794991" y2="55.273346" gradientUnits="userSpaceOnUse">
			<stop stop-color="#F8F497"/>
			<stop offset="1.000000" stop-color="#B7851F"/>
		</linearGradient>
		<radialGradient id="paint_radial_108_6423_0" cx="0.000000" cy="0.000000" r="1.000000" gradientUnits="userSpaceOnUse" gradientTransform="translate(107.671 33.7541) rotate(95.6824) scale(17.3869 23.4689)">
			<stop stop-color="#AF4190"/>
			<stop offset="0.472281" stop-color="#610547"/>
			<stop offset="1.000000" stop-color="#220119"/>
		</radialGradient>
		<linearGradient id="paint_linear_108_6423_1" x1="92.435326" y1="33.754089" x2="118.086212" y2="52.604912" gradientUnits="userSpaceOnUse">
			<stop stop-color="#F2E586"/>
			<stop offset="0.546840" stop-color="#B37D16"/>
			<stop offset="0.990875" stop-color="#F7F395"/>
		</linearGradient>
		<linearGradient id="paint_linear_108_6424_0" x1="92.176750" y1="51.744133" x2="92.176750" y2="36.852844" gradientUnits="userSpaceOnUse">
			<stop offset="0.276042" stop-color="#B37D16"/>
			<stop offset="0.670000" stop-color="#F8F497"/>
			<stop offset="1.000000" stop-color="#DDB149"/>
		</linearGradient>
		<linearGradient id="paint_linear_108_6424_1" x1="104.917305" y1="36.852844" x2="104.917305" y2="51.313744" gradientUnits="userSpaceOnUse">
			<stop stop-color="#DDB149"/>
			<stop offset="1.000000" stop-color="#F8F497"/>
		</linearGradient>
	</defs>
	<rect id="tesla" rx="47" ry="47" width="45.934223" height="45.934223" transform="translate(21.502441 24.127930) rotate(-0.000000)" fill="#DC1835" fill-opacity="1.000000"/>
	<g clip-path="url(#clip108_6350)">
		<path id="Vector" d="M44.4714 61.0552L48.4109 38.8986C52.166 38.8986 53.3506 39.3103 53.5215 40.9911C53.5215 40.9911 56.0405 40.0518 57.311 38.1442C52.3533 35.8468 47.3716 35.7432 47.3716 35.7432L44.4648 39.2837L44.4714 39.2832L41.5645 35.7426C41.5645 35.7426 36.5828 35.8463 31.6255 38.1437C32.895 40.0513 35.415 40.9906 35.415 40.9906C35.5869 39.3098 36.77 38.898 40.5 38.8953L44.4714 61.0552Z" fill="#FFFFFF" fill-opacity="1.000000" fill-rule="nonzero"/>
		<path id="Vector" d="M44.4697 34.7205C48.4775 34.6899 53.0649 35.3405 57.761 37.3873C58.3887 36.2576 58.55 35.7582 58.55 35.7582C53.4165 33.7273 48.6089 33.0322 44.469 33.0148C40.3296 33.0322 35.5222 33.7274 30.3894 35.7582C30.3894 35.7582 30.6184 36.3732 31.178 37.3873C35.873 35.3405 40.4612 34.6899 44.469 34.7205L44.4697 34.7205Z" fill="#FFFFFF" fill-opacity="1.000000" fill-rule="nonzero"/>
	</g>
	<rect id="tesla" rx="47" ry="47" width="45.934223" height="45.934223" transform="translate(21.502441 24.127930) rotate(-0.000000)" stroke="#CDCCCC" stroke-opacity="1.000000" stroke-width="1.000000"/>
	<rect id="shield-antivirus-svgrepo-com 1" width="35.689922" height="35.689926" transform="matrix(-0.972708 0.232033 0.232033 0.972708 34.7158 19.7012)" fill="#FFFFFF" fill-opacity="0"/>
	<g clip-path="url(#clip108_6354)">
		<g filter="url(#filter_108_6355_dd)">
			<path id="Vector" d="M22.9949 55.2288L23.6062 54.4472C26.9585 50.1445 31.1292 44.7916 29.4182 37.6186L27.7878 30.7841L26.5818 31.0718C22.2271 32.1106 18.4897 30.9927 17.8882 28.4716L15.4761 29.047C16.0774 31.5681 13.2471 34.2527 8.89258 35.2914L7.68628 35.5792L9.31665 42.4136C11.0278 49.5867 17.1658 52.4805 22.0977 54.8058L22.9949 55.2288Z" fill="#D84025" fill-opacity="1.000000" fill-rule="nonzero"/>
		</g>
		<g filter="url(#filter_108_6356_dd)">
			<path id="Vector" d="M8.89233 35.2914C13.2471 34.2526 16.0774 31.5681 15.4761 29.047L16.6821 28.7593L22.9958 55.2274L22.9946 55.2288L22.0974 54.8058C17.1658 52.4805 11.0276 49.5867 9.31665 42.4136L7.68628 35.5792L8.89233 35.2914Z" fill="#A13023" fill-opacity="1.000000" fill-rule="nonzero"/>
		</g>
	</g>
	<rect id="helmet_red" width="30.570757" height="31.864920" transform="translate(31.929443 0.000000)" fill="#FFFFFF" fill-opacity="0"/>
	<g clip-path="url(#clip108_6357)">
		<g filter="url(#filter_108_6359_dd)">
			<path id="Vector" d="M54.4436 22.5884C54.7527 23.8439 55.0605 25.0985 55.3672 26.3521C52.543 27.9683 48.9771 28.8708 44.4976 28.8724L44.4976 23.6889L54.4436 22.5884Z" fill="#535353" fill-opacity="1.000000" fill-rule="evenodd"/>
			<path id="Vector" d="M34.5598 22.5884C34.2463 23.8439 33.9358 25.0985 33.6279 26.3521C36.4583 27.9683 40.0161 28.8708 44.4976 28.8724L44.4976 23.6889L34.5598 22.5884Z" fill="#676767" fill-opacity="1.000000" fill-rule="evenodd"/>
			<path id="Vector" d="M42.2742 9.07593C35.8218 3.36945 48.0227 3.91022 51.4614 1.01904C51.7041 1.2605 51.8479 1.55072 51.8752 1.85376C51.9023 2.15674 51.8118 2.45917 51.6143 2.72339C53.1409 3.67163 55.8242 2.37787 57.2793 4.19531C55.6304 4.12402 54.6265 4.61829 54.0142 5.27991C58.5364 4.75616 56.7671 7.9433 60.6321 8.12305C57.7527 9.34241 50.99 7.00128 46.8086 9.85059C44.9209 9.79791 44.1619 9.13324 42.2742 9.07593Z" fill="#A23023" fill-opacity="1.000000" fill-rule="evenodd"/>
			<path id="Vector" d="M60.6299 8.07031C57.7798 9.32965 51.0664 6.93005 46.9158 9.85059C46.1433 9.81775 45.3835 9.68408 44.6672 9.45514C50.0962 4.66058 54.9133 8.91675 60.6321 8.07031L60.6299 8.07031Z" fill="#1A1A1A" fill-opacity="1.000000" fill-rule="evenodd"/>
			<path id="Vector" d="M42.6509 8.59113C43.396 8.64917 44.127 8.78314 44.8232 8.9892L44.8723 9.0014C44.6292 8.72992 44.3901 8.45844 44.155 8.18695C42.0198 6.37048 46.5137 4.22156 49.2393 3.78076C50.2207 4.41522 51.7332 4.11481 52.5078 4.56012C51.8396 5.10004 51.4258 6.03345 50.7556 6.57336C58.4075 5.79858 54.9216 7.64093 58.5938 7.99786C58.3467 7.87286 58.1221 7.72473 57.9258 7.55707C56.6963 6.51233 56.8787 5.37152 54.1982 5.67657L52.7065 5.84583C52.9702 5.57336 53.2358 5.30139 53.5037 5.02991C54.1079 4.39929 55.0173 3.9679 56.0405 3.82654C55.8008 3.72211 55.5364 3.65222 55.2617 3.62061C55 3.59113 54.7356 3.57532 54.4709 3.57336C53.2781 3.552 52.1409 3.62213 51.1921 3.05176L50.8396 2.83673C50.9094 2.74213 50.981 2.64911 51.0444 2.55609C51.2031 2.34729 51.2698 2.10669 51.2351 1.86823C50.0056 2.56219 48.3047 3.02887 46.8477 3.41626C45.6941 3.72131 44.4829 4.02631 43.3887 4.40607C42.6162 4.67755 41.7493 5.05426 41.3394 5.56976C40.5957 6.53064 41.7451 7.77972 42.6509 8.59113Z" fill="#EF4123" fill-opacity="1.000000" fill-rule="evenodd"/>
			<path id="Vector" d="M43.7261 8.71741C44.1138 8.79333 44.4961 8.88403 44.8716 8.98914L44.9207 9.0014C44.6782 8.72821 44.4402 8.45496 44.2058 8.18176C42.0781 6.35364 46.5564 4.19092 49.2722 3.74731C50.2502 4.38586 51.7573 4.0835 52.5293 4.53168C51.8635 5.07507 51.4512 6.0144 50.7834 6.5578C58.4082 5.77808 54.9348 7.63226 58.5942 7.99139C56.689 7.61841 56.7236 6.27075 55.6414 5.9469C54.5591 5.62305 53.1296 6.36902 52.0393 6.0451C52.1536 5.42041 52.6702 4.91235 53.4216 4.13721C52.3782 3.6629 49.7461 4.08655 50.2932 2.71741C47.9509 4.65912 40.4058 3.8548 43.2686 8.55011L43.7261 8.71741Z" fill="#D03927" fill-opacity="1.000000" fill-rule="evenodd"/>
			<path id="Vector" d="M47.8943 10.445C47.8943 11.7113 46.3354 12.7379 44.4126 12.7379C42.4897 12.7379 40.9309 11.7113 40.9309 10.445C40.9309 9.17877 42.4897 8.15222 44.4126 8.15222C46.3354 8.15222 47.8943 9.17877 47.8943 10.445Z" fill="#CDCCCC" fill-opacity="1.000000" fill-rule="evenodd"/>
			<path id="Vector" d="M44.428 10.5299C48.793 10.5299 52.5227 12.2605 54.0144 14.7017C54.8159 14.959 55.3669 15.4889 55.3669 16.0954C55.363 16.297 55.3022 16.4957 55.1885 16.6786C55.0747 16.8615 54.9109 17.0244 54.7073 17.1567C54.6333 20.7266 50.0593 23.6074 44.428 23.6074C38.7964 23.6074 34.2388 20.7328 34.1528 17.1721C33.9399 17.0392 33.7678 16.8738 33.6479 16.687C33.5281 16.5002 33.4634 16.2964 33.458 16.0892C33.458 15.4767 34.0278 14.936 34.8474 14.6833C36.3455 12.2482 40.0691 10.5299 44.428 10.5299Z" fill="#8B8A8A" fill-opacity="1.000000" fill-rule="evenodd"/>
			<path id="Vector" d="M42.7991 20.2107C46.637 20.2107 49.7625 18.2312 49.7625 15.7949C49.7625 13.3586 46.6309 11.3792 42.7991 11.3792C38.967 11.3792 35.8357 13.3586 35.8357 15.7949C35.8357 18.2312 38.959 20.2107 42.7991 20.2107Z" fill="#989898" fill-opacity="1.000000" fill-rule="evenodd"/>
			<path id="Vector" d="M40.676 15.2853C42.1267 15.2853 43.3083 14.5219 43.3083 13.587C43.3083 12.6521 42.1267 11.8886 40.676 11.8886C39.2251 11.8886 38.0435 12.6505 38.0435 13.587C38.0435 14.5234 39.2373 15.2853 40.676 15.2853Z" fill="#ACACAC" fill-opacity="1.000000" fill-rule="evenodd"/>
			<path id="Vector" d="M44.4976 14.2665L44.3979 14.2665C43.0095 14.2611 41.6313 14.4487 40.3311 14.8201L32.7788 16.9646L32.7788 23.3547C36.0833 26.2792 39.9365 28.5695 44.4976 30.0613L44.4976 14.2665Z" fill="#CDCCCC" fill-opacity="1.000000" fill-rule="evenodd"/>
			<path id="Vector" d="M42.7991 15.2854C42.1973 15.3616 41.6069 15.484 41.0364 15.6509L39.5886 16.0679L39.5886 26.7622C40.6104 27.3513 41.6824 27.886 42.7971 28.3629L42.7971 15.2854L42.7991 15.2854ZM38.9087 16.2639L36.6567 16.9125L36.6567 24.8458C37.3687 25.37 38.1187 25.8771 38.9087 26.3594L38.9087 16.2639ZM35.979 17.1069L34.4771 17.5394L34.4771 23.0865C34.9583 23.5096 35.459 23.9244 35.979 24.3309L35.979 17.1069Z" fill="#333333" fill-opacity="1.000000" fill-rule="evenodd"/>
			<path id="Vector" d="M44.4976 14.2664L44.5972 14.2664C45.9822 14.262 47.3569 14.4496 48.6541 14.82L56.2163 16.963L56.2163 23.3532C52.9099 26.2792 49.0566 28.5695 44.4976 30.0613L44.4976 14.2664Z" fill="#B4B4B4" fill-opacity="1.000000" fill-rule="evenodd"/>
			<path id="Vector" d="M46.1958 15.2854C46.8098 15.3618 47.4126 15.4842 47.9949 15.6509L49.4727 16.0679L49.4727 26.7622C48.4294 27.351 47.3354 27.8857 46.1978 28.3629L46.1978 15.2854L46.1958 15.2854ZM50.1665 16.2639L52.4629 16.9125L52.4629 24.8458C51.7383 25.37 50.9729 25.8771 50.1665 26.3594L50.1665 16.2639ZM53.1567 17.1069L54.6877 17.5394L54.6877 23.0865C54.1978 23.5096 53.6875 23.9244 53.1567 24.3309L53.1567 17.1069Z" fill="#1A1A1A" fill-opacity="1.000000" fill-rule="evenodd"/>
			<path id="Vector" d="M43.5339 8.66174C44.1858 8.66174 44.4985 8.96661 44.2332 9.34106C44.0652 9.54108 43.8242 9.70856 43.5332 9.82751C43.2424 9.94647 42.9114 10.0129 42.5715 10.0204C41.9219 10.0204 41.6091 9.71698 41.8745 9.34106C42.0427 9.14148 42.2832 8.97424 42.5737 8.85535C42.8643 8.73645 43.1948 8.6698 43.5339 8.66174Z" fill="#E3E3E3" fill-opacity="1.000000" fill-rule="evenodd"/>
		</g>
	</g>
	<rect id="sword_red" width="28.884270" height="51.868382" transform="translate(59.613037 0.000000)" fill="#FFFFFF" fill-opacity="0"/>
	<g clip-path="url(#clip108_6375)">
		<g filter="url(#filter_108_6377_dd)">
			<path id="Vector" d="M60.009 47.2835L60.145 47.3539C60.2993 47.4366 60.4707 47.4818 60.6458 47.4855C60.8208 47.4893 60.9941 47.4517 61.1519 47.3757C61.3115 47.3045 61.4521 47.1966 61.5625 47.0608C61.6729 46.925 61.7495 46.7651 61.7864 46.5942C62.0991 45.228 62.7244 43.5585 63.6138 41.8343C64.5034 40.1101 65.5022 38.6345 66.4277 37.5887C66.5437 37.4584 66.6284 37.3033 66.675 37.1353C66.7219 36.9673 66.7297 36.7908 66.698 36.6193C66.666 36.4478 66.5955 36.2859 66.4915 36.1459C66.3875 36.0059 66.2529 35.8914 66.0979 35.8114L65.9602 35.7411L66.5261 34.6469L69.1838 36.0162L71.8413 37.384L71.2754 38.4782L71.1394 38.4078C70.9836 38.3264 70.8113 38.2819 70.6357 38.2777C70.46 38.2736 70.2856 38.31 70.1265 38.3841C69.967 38.4581 69.8269 38.5679 69.7168 38.7048C69.6067 38.8418 69.5298 39.0023 69.4917 39.1738C69.179 40.5385 68.5537 42.2095 67.6643 43.9321C66.7747 45.6547 65.7759 47.1319 64.8503 48.1777C64.7344 48.3081 64.6499 48.4633 64.603 48.6314C64.5562 48.7996 64.5483 48.9761 64.5801 49.1478C64.6121 49.3194 64.6826 49.4814 64.7866 49.6216C64.8906 49.7618 65.0251 49.8763 65.1802 49.9565L65.3179 50.0269L64.752 51.1211L62.0945 49.7533L59.4431 48.3793L60.009 47.2835Z" fill="#CA3927" fill-opacity="1.000000" fill-rule="evenodd"/>
			<path id="Vector" d="M66.7737 38.234C67.2122 38.4626 66.6033 40.5413 65.4124 42.8737C64.2212 45.2061 62.8999 46.9135 62.4695 46.6848C62.0388 46.4561 62.6399 44.3774 63.8308 42.045C65.022 39.7126 66.3354 38.0053 66.7737 38.234Z" fill="#F04B23" fill-opacity="1.000000" fill-rule="evenodd"/>
			<path id="Vector" d="M86.1077 3.39673L84.6833 11.4454L71.3965 37.1944L67.0859 34.9697L80.3728 9.2207L86.1077 3.39673Z" fill="#D1D2D2" fill-opacity="1.000000" fill-rule="evenodd"/>
			<path id="Vector" d="M81.8081 7.74432L84.0703 6.27112L83.2749 11.0728L71.3318 37.1944L84.677 11.4454L86.1077 3.39673L81.8081 7.74432Z" fill="#E6E6E5" fill-opacity="1.000000" fill-rule="evenodd"/>
			<path id="Vector" d="M82.3713 10.6998L76.0933 23.5217L69.814 36.3452L69.1284 35.9965L68.4446 35.6477L75.408 23.1745L82.3713 10.6998Z" fill="#818181" fill-opacity="1.000000" fill-rule="evenodd"/>
			<path id="Vector" d="M65.7727 33.4233L73.3723 37.3669C73.7629 37.084 74.2371 36.9418 74.718 36.9631C75.1992 36.9844 75.6589 37.168 76.0234 37.4843C76.3879 37.8005 76.636 38.231 76.7275 38.7064C76.8191 39.1817 76.7485 39.6742 76.5278 40.1044C76.3069 40.5346 75.9482 40.8774 75.51 41.0777C75.0715 41.2779 74.5789 41.3238 74.1116 41.208C73.644 41.0922 73.229 40.8215 72.9331 40.4394C72.6375 40.0573 72.4783 39.5862 72.4814 39.1021L64.8818 35.1585C64.4905 35.4421 64.0156 35.585 63.5339 35.5639C63.052 35.5428 62.5913 35.3592 62.2261 35.0425C61.8606 34.7258 61.6121 34.2946 61.5203 33.8185C61.4287 33.3423 61.499 32.8489 61.7205 32.418C61.9417 31.987 62.3008 31.6436 62.74 31.4431C63.1792 31.2426 63.6726 31.1968 64.1409 31.3129C64.6091 31.4291 65.0249 31.7006 65.321 32.0834C65.6169 32.4663 65.7761 32.9384 65.7727 33.4233Z" fill="#333333" fill-opacity="1.000000" fill-rule="evenodd"/>
		</g>
	</g>
	<g filter="url(#filter_108_6384_dd)">
		<path id="Tesla Inc." d="M23.2245 75.922L23.2245 83.806L22.3125 83.806L22.3125 75.922L19.3845 75.922L19.3845 75.058L26.1525 75.058L26.1525 75.922L23.2245 75.922ZM30.1192 81.094L25.2952 81.094C25.3272 81.678 25.5472 82.162 25.9552 82.546C26.3552 82.938 26.8472 83.134 27.4312 83.134C27.8872 83.134 28.2752 83.026 28.5952 82.81C28.9152 82.586 29.1432 82.27 29.2792 81.862L30.0472 82.102C29.8792 82.662 29.5552 83.106 29.0752 83.434C28.5792 83.754 28.0352 83.914 27.4432 83.914C26.8832 83.914 26.3672 83.774 25.8952 83.494C25.4232 83.214 25.0632 82.838 24.8152 82.366C24.5512 81.902 24.4192 81.386 24.4192 80.818C24.4192 80.274 24.5432 79.77 24.7912 79.306C25.0232 78.834 25.3712 78.454 25.8352 78.166C26.2832 77.878 26.7792 77.734 27.3232 77.734C27.9232 77.734 28.4352 77.87 28.8592 78.142C29.2912 78.406 29.6112 78.77 29.8192 79.234C30.0272 79.674 30.1312 80.198 30.1312 80.806C30.1312 80.91 30.1272 81.006 30.1192 81.094ZM25.3072 80.35L29.2552 80.35C29.1992 79.806 28.9992 79.358 28.6552 79.006C28.3192 78.67 27.8752 78.502 27.3232 78.502C26.8192 78.502 26.3752 78.682 25.9912 79.042C25.6072 79.418 25.3792 79.854 25.3072 80.35ZM35.5723 82.114C35.5723 82.65 35.3683 83.078 34.9603 83.398C34.5523 83.734 34.0523 83.902 33.4603 83.902C32.5883 83.902 31.9523 83.614 31.5523 83.038C31.3523 82.766 31.2323 82.462 31.1923 82.126L31.9843 81.922C32.0403 82.25 32.1883 82.538 32.4283 82.786C32.6763 83.026 33.0163 83.146 33.4483 83.146C33.7763 83.146 34.0683 83.054 34.3243 82.87C34.5643 82.702 34.6843 82.466 34.6843 82.162C34.6843 81.922 34.5883 81.73 34.3963 81.586C34.2203 81.442 33.9923 81.338 33.7123 81.274L32.8003 81.07C31.8083 80.854 31.3123 80.334 31.3123 79.51C31.3123 78.894 31.5603 78.434 32.0563 78.13C32.4803 77.866 32.9083 77.734 33.3403 77.734C34.1563 77.742 34.7523 78.006 35.1283 78.526C35.3123 78.79 35.4323 79.058 35.4883 79.33L34.6963 79.558C34.6403 79.326 34.5243 79.102 34.3483 78.886C34.1323 78.63 33.7963 78.502 33.3403 78.502C33.0123 78.502 32.7403 78.594 32.5243 78.778C32.3003 78.954 32.1883 79.178 32.1883 79.45C32.1883 79.85 32.4763 80.122 33.0523 80.266L34.0123 80.482C34.4523 80.586 34.8203 80.774 35.1163 81.046C35.4203 81.318 35.5723 81.674 35.5723 82.114ZM37.1207 83.806L37.1207 74.698L37.9967 74.698L37.9967 83.806L37.1207 83.806ZM41.9124 80.362L43.5684 80.362L43.5684 79.966C43.5684 78.998 43.0604 78.514 42.0444 78.514C41.5564 78.514 41.1804 78.646 40.9164 78.91C40.6764 79.15 40.5324 79.422 40.4844 79.726L39.6444 79.546C39.6524 79.378 39.7324 79.166 39.8844 78.91C40.0364 78.654 40.2364 78.426 40.4844 78.226C40.9084 77.898 41.4364 77.734 42.0684 77.734C43.1564 77.734 43.8804 78.146 44.2404 78.97C44.3604 79.25 44.4204 79.578 44.4204 79.954L44.4204 81.634C44.4204 82.61 44.4524 83.334 44.5164 83.806L43.6524 83.806C43.5964 83.502 43.5684 83.154 43.5684 82.762C43.0644 83.53 42.3924 83.914 41.5524 83.914C40.9524 83.914 40.4724 83.746 40.1124 83.41C39.7364 83.082 39.5484 82.662 39.5484 82.15L39.5484 82.09C39.5484 81.498 39.7844 81.062 40.2564 80.782C40.7364 80.502 41.2884 80.362 41.9124 80.362ZM43.5684 81.286L43.5684 81.082L41.9004 81.082C41.5324 81.082 41.2084 81.15 40.9284 81.286C40.5924 81.43 40.4244 81.694 40.4244 82.078C40.4244 82.406 40.5484 82.666 40.7964 82.858C41.0364 83.05 41.3404 83.146 41.7084 83.146C42.2284 83.146 42.6724 82.97 43.0404 82.618C43.3924 82.282 43.5684 81.838 43.5684 81.286ZM49.6651 83.806L49.6651 75.058L50.5891 75.058L50.5891 83.806L49.6651 83.806ZM57.9607 83.806L57.0847 83.806L57.0847 80.338C57.0847 79.786 56.9447 79.346 56.6647 79.018C56.3847 78.69 55.9767 78.526 55.4407 78.526C54.9207 78.526 54.4927 78.706 54.1567 79.066C53.8287 79.434 53.6647 79.882 53.6647 80.41L53.6647 83.806L52.7887 83.806L52.7887 77.842L53.6407 77.842L53.6407 78.934C54.1207 78.134 54.8087 77.734 55.7047 77.734C56.4087 77.734 56.9647 77.95 57.3727 78.382C57.7647 78.838 57.9607 79.418 57.9607 80.122L57.9607 83.806ZM60.3111 80.794C60.3111 81.69 60.6471 82.358 61.3191 82.798C61.6471 83.022 62.0311 83.134 62.4711 83.134C62.9511 83.134 63.3591 83.01 63.6951 82.762C63.8151 82.674 63.9391 82.554 64.0671 82.402C64.2431 82.17 64.3751 81.938 64.4631 81.706L65.2671 81.97C65.1311 82.45 64.8271 82.882 64.3551 83.266C63.8431 83.698 63.2111 83.914 62.4591 83.914C61.6031 83.93 60.8791 83.642 60.2871 83.05C59.7031 82.458 59.4151 81.722 59.4231 80.842C59.4231 80.266 59.5631 79.734 59.8431 79.246C60.1231 78.766 60.4951 78.394 60.9591 78.13C61.4231 77.866 61.9351 77.734 62.4951 77.734C63.1671 77.734 63.7591 77.918 64.2711 78.286C64.7911 78.678 65.1111 79.13 65.2311 79.642L64.4391 79.906C64.3511 79.586 64.1351 79.274 63.7911 78.97C63.4551 78.666 63.0151 78.514 62.4711 78.514C61.8471 78.514 61.3311 78.734 60.9231 79.174C60.5151 79.622 60.3111 80.162 60.3111 80.794ZM66.7343 83.674C66.5743 83.498 66.4943 83.306 66.4943 83.098C66.4943 82.882 66.5743 82.694 66.7343 82.534C66.8863 82.382 67.0743 82.306 67.2983 82.306C67.5223 82.306 67.7103 82.382 67.8623 82.534C68.0223 82.694 68.1023 82.882 68.1023 83.098C68.1023 83.306 68.0223 83.498 67.8623 83.674C67.7103 83.826 67.5223 83.902 67.2983 83.902C67.0743 83.902 66.8863 83.826 66.7343 83.674Z" fill="#FFFFFF" fill-opacity="1.000000" fill-rule="evenodd"/>
	</g>
	<rect id="nio"  rx="47" ry="47"  width="45.934223" height="45.934223" transform="translate(143.580078 24.127930)" fill="#00BEBE" fill-opacity="1.000000"/>
	<g clip-path="url(#clip108_6386)">
		<rect id="NIO_logo_emblem 1" width="31.289482" height="26.320711" transform="translate(150.902344 34.579224)" fill="#FFFFFF" fill-opacity="0"/>
		<g clip-path="url(#clip108_6387)">
			<path id="Vector" d="M173.046 47.7406C172.094 46.7878 172.174 46.8215 170.825 46.8215L162.275 46.8215C160.926 46.8215 161.006 46.7886 160.054 47.7406L155.496 52.2997C156.53 54.385 158.132 56.1354 160.117 57.3491C161.285 56.1819 164.789 52.6812 165.369 52.0975C165.847 51.6197 166.058 51.4343 166.318 51.3547C166.392 51.3286 166.469 51.3141 166.547 51.3118C166.626 51.3139 166.703 51.3284 166.777 51.3547C167.037 51.4313 167.248 51.6197 167.726 52.0975L172.978 57.3491C174.964 56.1357 176.566 54.3852 177.6 52.2997L173.046 47.7406Z" fill="#FFFFFF" fill-opacity="1.000000" fill-rule="nonzero"/>
			<path id="Vector" d="M160.714 46.3735C161.058 46.0021 161.01 45.6842 161.347 44.8134C161.752 43.7628 162.466 42.8594 163.395 42.2224C164.323 41.5853 165.423 41.2443 166.549 41.2443C167.676 41.2443 168.775 41.5853 169.704 42.2224C170.633 42.8594 171.346 43.7628 171.752 44.8134C172.09 45.6873 172.041 46.0021 172.385 46.3735C172.729 46.7449 173.074 46.8207 174.168 46.8207L178.888 46.8207C178.863 43.5652 177.551 40.4518 175.24 38.1589C172.929 35.8659 169.805 34.5792 166.55 34.5792C163.294 34.5792 160.17 35.8659 157.859 38.1589C155.548 40.4518 154.237 43.5652 154.211 46.8207L158.931 46.8207C160.027 46.8207 160.379 46.7357 160.714 46.3735Z" fill="#FFFFFF" fill-opacity="1.000000" fill-rule="nonzero"/>
		</g>
	</g>
	<rect id="nio" rx="47" ry="47"  width="45.934223" height="45.934223" transform="translate(143.580078 24.127930)" stroke="#CDCCCC" stroke-opacity="1.000000" stroke-width="1.000000"/>
	<rect id="shield-antivirus-svgrepo-com 1" width="35.825710" height="35.825710" transform="translate(177.151855 19.739014) rotate(-13.416809)" fill="#FFFFFF" fill-opacity="0"/>
	<g clip-path="url(#clip108_6390)">
		<g filter="url(#filter_108_6391_dd)">
			<path id="Vector" d="M188.918 55.4019L188.304 54.6172C184.939 50.2982 180.752 44.9249 182.47 37.7246L184.107 30.8641L185.317 31.153C189.688 32.1957 193.44 31.0736 194.044 28.5428L196.465 29.1204C195.862 31.6512 198.703 34.3459 203.074 35.3887L204.284 35.6774L202.648 42.538C200.93 49.7382 194.769 52.6431 189.819 54.9773L188.918 55.4019Z" fill="#7AB9E8" fill-opacity="1.000000" fill-rule="nonzero"/>
		</g>
		<g filter="url(#filter_108_6392_dd)">
			<path id="Vector" d="M203.074 35.3887C198.702 34.3459 195.861 31.6512 196.465 29.1205L195.254 28.8317L188.917 55.4005L188.918 55.4019L189.818 54.9773C194.769 52.6431 200.93 49.7383 202.648 42.538L204.284 35.6775L203.074 35.3887Z" fill="#579ADF" fill-opacity="1.000000" fill-rule="nonzero"/>
		</g>
	</g>
	<rect id="helmet_red" width="30.687067" height="31.986153" transform="matrix(-1 0 0 1 179.748 0)" fill="#FFFFFF" fill-opacity="0"/>
	<g clip-path="url(#clip108_6393)">
		<g filter="url(#filter_108_6395_dd)">
			<path id="Vector" d="M157.148 22.6743C156.838 23.9347 156.529 25.194 156.221 26.4523C159.056 28.0747 162.635 28.9807 167.132 28.9822L167.132 23.7791L157.148 22.6743Z" fill="#535353" fill-opacity="1.000000" fill-rule="evenodd"/>
			<path id="Vector" d="M177.107 22.6743C177.422 23.9347 177.733 25.194 178.042 26.4523C175.201 28.0747 171.63 28.9807 167.132 28.9822L167.132 23.7791L177.107 22.6743Z" fill="#676767" fill-opacity="1.000000" fill-rule="evenodd"/>
			<path id="Vector" d="M169.363 9.11041C175.84 3.38226 163.593 3.92505 160.141 1.02289C159.897 1.26526 159.753 1.55658 159.726 1.86078C159.698 2.16492 159.79 2.46851 159.988 2.7337C158.455 3.68555 155.762 2.3869 154.301 4.21124C155.956 4.13971 156.964 4.6358 157.579 5.29993C153.039 4.77423 154.815 7.97345 150.936 8.15387C153.826 9.37793 160.615 7.02789 164.812 9.88806C166.706 9.83514 167.469 9.16797 169.363 9.11041Z" fill="#1B2241" fill-opacity="1.000000" fill-rule="evenodd"/>
			<path id="Vector" d="M150.938 8.10101C153.799 9.36517 160.538 6.95642 164.704 9.88806C165.479 9.8551 166.242 9.72095 166.961 9.49115C161.511 4.67834 156.676 8.95068 150.936 8.10101L150.938 8.10101Z" fill="#1A1A1A" fill-opacity="1.000000" fill-rule="evenodd"/>
			<path id="Vector" d="M168.985 8.62378C168.237 8.68207 167.504 8.81653 166.805 9.02338L166.755 9.03564C167 8.76312 167.24 8.4906 167.475 8.21808C169.619 6.39471 165.108 4.23761 162.372 3.7951C161.387 4.43201 159.869 4.13043 159.091 4.57745C159.761 5.11945 160.177 6.0564 160.85 6.59833C153.169 5.82062 156.668 7.66998 152.982 8.02826C153.23 7.90277 153.455 7.75409 153.652 7.58582C154.886 6.53711 154.703 5.39191 157.394 5.69812L158.891 5.86804C158.627 5.59454 158.36 5.32153 158.091 5.04901C157.485 4.41602 156.572 3.98297 155.545 3.84106C155.785 3.73621 156.051 3.66608 156.326 3.6344C156.589 3.6048 156.854 3.58893 157.12 3.58691C158.318 3.56549 159.459 3.63593 160.412 3.06335L160.765 2.84747C160.696 2.75256 160.624 2.65918 160.56 2.5658C160.4 2.35614 160.333 2.11469 160.368 1.87531C161.603 2.5719 163.31 3.04034 164.772 3.42926C165.931 3.73541 167.146 4.04163 168.245 4.42285C169.02 4.69531 169.89 5.07349 170.302 5.59094C171.048 6.55548 169.895 7.80933 168.985 8.62378Z" fill="#4386BB" fill-opacity="1.000000" fill-rule="evenodd"/>
			<path id="Vector" d="M167.906 8.75055C167.517 8.82678 167.133 8.91779 166.756 9.02332L166.707 9.03564C166.95 8.76135 167.189 8.48712 167.425 8.21283C169.561 6.37781 165.065 4.20685 162.339 3.7616C161.357 4.40253 159.844 4.099 159.07 4.54889C159.738 5.09436 160.152 6.03729 160.822 6.5827C153.168 5.79999 156.655 7.66125 152.982 8.02179C154.894 7.6474 154.859 6.29462 155.946 5.96948C157.032 5.64441 158.467 6.39319 159.562 6.06812C159.447 5.44104 158.928 4.93103 158.174 4.15295C159.221 3.67682 161.864 4.10211 161.314 2.72772C163.665 4.67682 171.239 3.86945 168.365 8.58264L167.906 8.75055Z" fill="#283A84" fill-opacity="1.000000" fill-rule="evenodd"/>
			<path id="Vector" d="M163.722 10.4847C163.722 11.7559 165.287 12.7863 167.217 12.7863C169.147 12.7863 170.712 11.7559 170.712 10.4847C170.712 9.21368 169.147 8.18323 167.217 8.18323C165.287 8.18323 163.722 9.21368 163.722 10.4847Z" fill="#CDCCCC" fill-opacity="1.000000" fill-rule="evenodd"/>
			<path id="Vector" d="M167.201 10.57C162.82 10.57 159.076 12.3072 157.578 14.7577C156.774 15.0159 156.221 15.5479 156.221 16.1567C156.225 16.3591 156.286 16.5585 156.4 16.7421C156.514 16.9257 156.679 17.0892 156.883 17.222C156.957 20.8055 161.549 23.6973 167.201 23.6973C172.854 23.6973 177.429 20.8117 177.516 17.2374C177.729 17.1041 177.902 16.938 178.022 16.7505C178.143 16.563 178.208 16.3584 178.213 16.1505C178.213 15.5356 177.641 14.9929 176.818 14.7393C175.315 12.2949 171.577 10.57 167.201 10.57Z" fill="#8B8A8A" fill-opacity="1.000000" fill-rule="evenodd"/>
			<path id="Vector" d="M168.837 20.2876C164.984 20.2876 161.847 18.3005 161.847 15.855C161.847 13.4094 164.99 11.4224 168.837 11.4224C172.683 11.4224 175.826 13.4094 175.826 15.855C175.826 18.3005 172.691 20.2876 168.837 20.2876Z" fill="#989898" fill-opacity="1.000000" fill-rule="evenodd"/>
			<path id="Vector" d="M170.968 15.3435C169.511 15.3435 168.325 14.5771 168.325 13.6387C168.325 12.7003 169.511 11.9338 170.968 11.9338C172.424 11.9338 173.61 12.6987 173.61 13.6387C173.61 14.5787 172.412 15.3435 170.968 15.3435Z" fill="#ACACAC" fill-opacity="1.000000" fill-rule="evenodd"/>
			<path id="Vector" d="M167.132 14.3207L167.232 14.3207C168.625 14.3154 170.009 14.5037 171.314 14.8764L178.895 17.0291L178.895 23.4436C175.578 26.3792 171.71 28.6782 167.132 30.1756L167.132 14.3207Z" fill="#CDCCCC" fill-opacity="1.000000" fill-rule="evenodd"/>
			<path id="Vector" d="M168.836 15.3435C169.44 15.4199 170.033 15.5428 170.606 15.7104L172.059 16.1289L172.059 26.864C171.033 27.4553 169.958 27.9921 168.838 28.4708L168.838 15.3435L168.836 15.3435ZM172.742 16.3257L175.002 16.9768L175.002 24.9402C174.288 25.4665 173.535 25.9755 172.742 26.4596L172.742 16.3257ZM175.682 17.172L177.19 17.6061L177.19 23.1743C176.707 23.599 176.205 24.0154 175.682 24.4235L175.682 17.172Z" fill="#333333" fill-opacity="1.000000" fill-rule="evenodd"/>
			<path id="Vector" d="M167.132 14.3207L167.032 14.3207C165.642 14.3163 164.262 14.5046 162.96 14.8764L155.368 17.0275L155.368 23.442C158.688 26.3792 162.555 28.6782 167.132 30.1756L167.132 14.3207Z" fill="#B4B4B4" fill-opacity="1.000000" fill-rule="evenodd"/>
			<path id="Vector" d="M165.427 15.3435C164.81 15.4202 164.205 15.5431 163.621 15.7104L162.137 16.1289L162.137 26.864C163.185 27.455 164.283 27.9918 165.425 28.4708L165.425 15.3435L165.427 15.3435ZM161.441 16.3257L159.136 16.9768L159.136 24.9402C159.863 25.4665 160.632 25.9755 161.441 26.4596L161.441 16.3257ZM158.439 17.172L156.903 17.6061L156.903 23.1743C157.394 23.599 157.906 24.0154 158.439 24.4235L158.439 17.172Z" fill="#1A1A1A" fill-opacity="1.000000" fill-rule="evenodd"/>
			<path id="Vector" d="M168.099 8.6947C167.444 8.6947 167.131 9.00073 167.397 9.37665C167.565 9.57739 167.807 9.74548 168.099 9.86493C168.391 9.98431 168.724 10.051 169.065 10.0586C169.717 10.0586 170.031 9.75391 169.765 9.37665C169.596 9.17627 169.354 9.00842 169.062 8.88904C168.771 8.76971 168.439 8.70282 168.099 8.6947Z" fill="#E3E3E3" fill-opacity="1.000000" fill-rule="evenodd"/>
		</g>
	</g>
	<rect id="sword_red" width="28.994165" height="52.065723" transform="matrix(-1 0 0 1 151.971 0)" fill="#FFFFFF" fill-opacity="0"/>
	<g clip-path="url(#clip108_6411)">
		<g filter="url(#filter_108_6413_dd)">
			<path id="Vector" d="M151.573 47.4634L151.437 47.5341C151.282 47.6171 151.11 47.6624 150.934 47.6662C150.758 47.67 150.584 47.6323 150.426 47.556C150.266 47.4845 150.124 47.3762 150.014 47.2399C149.903 47.1036 149.826 46.9431 149.789 46.7714C149.475 45.4 148.847 43.7242 147.955 41.9935C147.062 40.2628 146.059 38.7815 145.13 37.7318C145.013 37.601 144.929 37.4453 144.882 37.2766C144.834 37.108 144.827 36.9308 144.859 36.7587C144.891 36.5865 144.961 36.424 145.066 36.2834C145.17 36.1428 145.305 36.028 145.461 35.9477L145.599 35.8771L145.031 34.7787L142.364 36.1533L139.696 37.5262L140.264 38.6246L140.4 38.554C140.557 38.4722 140.73 38.4276 140.906 38.4234C141.082 38.4193 141.257 38.4557 141.417 38.5302C141.577 38.6045 141.718 38.7147 141.828 38.8521C141.939 38.9896 142.016 39.1507 142.054 39.3229C142.368 40.6927 142.996 42.3701 143.889 44.0992C144.781 45.8284 145.784 47.3112 146.713 48.361C146.83 48.4919 146.915 48.6477 146.962 48.8165C147.009 48.9852 147.016 49.1625 146.985 49.3348C146.953 49.507 146.882 49.6697 146.777 49.8104C146.673 49.9511 146.538 50.0661 146.382 50.1466L146.244 50.2172L146.812 51.3156L149.48 49.9426L152.141 48.5634L151.573 47.4634Z" fill="#4592CF" fill-opacity="1.000000" fill-rule="evenodd"/>
			<path id="Vector" d="M144.782 38.3795C144.342 38.609 144.953 40.6956 146.149 43.0368C147.345 45.3781 148.671 47.092 149.103 46.8624C149.535 46.6328 148.932 44.5463 147.736 42.205C146.541 39.8638 145.222 38.1499 144.782 38.3795Z" fill="#283A84" fill-opacity="1.000000" fill-rule="evenodd"/>
			<path id="Vector" d="M125.375 3.40967L126.805 11.4889L140.142 37.3359L144.469 35.1028L131.132 9.2558L125.375 3.40967Z" fill="#D1D2D2" fill-opacity="1.000000" fill-rule="evenodd"/>
			<path id="Vector" d="M129.691 7.7738L127.42 6.29498L128.219 11.1149L140.207 37.3359L126.811 11.4889L125.375 3.40967L129.691 7.7738Z" fill="#E6E6E5" fill-opacity="1.000000" fill-rule="evenodd"/>
			<path id="Vector" d="M129.126 10.7405L135.427 23.6112L141.731 36.4835L142.419 36.1334L143.105 35.7833L136.116 23.2627L129.126 10.7405Z" fill="#818181" fill-opacity="1.000000" fill-rule="evenodd"/>
			<path id="Vector" d="M145.787 33.5505L138.159 37.5091C137.767 37.2252 137.291 37.0824 136.808 37.1038C136.325 37.1251 135.864 37.3094 135.498 37.6268C135.132 37.9443 134.883 38.3765 134.791 38.8536C134.699 39.3308 134.77 39.8251 134.991 40.257C135.213 40.6888 135.573 41.033 136.013 41.2339C136.453 41.4349 136.948 41.481 137.417 41.3648C137.886 41.2485 138.303 40.9767 138.6 40.5933C138.896 40.2097 139.056 39.7369 139.053 39.2509L146.682 35.2923C147.074 35.577 147.551 35.7203 148.035 35.6992C148.518 35.6781 148.981 35.4937 149.348 35.1758C149.714 34.858 149.964 34.4251 150.056 33.9471C150.148 33.4691 150.077 32.9739 149.855 32.5413C149.633 32.1087 149.272 31.764 148.832 31.5627C148.391 31.3615 147.896 31.3154 147.425 31.4321C146.955 31.5487 146.538 31.8212 146.241 32.2055C145.944 32.5898 145.784 33.0637 145.787 33.5505Z" fill="#333333" fill-opacity="1.000000" fill-rule="evenodd"/>
		</g>
	</g>
	<g filter="url(#filter_108_6420_dd)">
		<path id="NIO" d="M164.485 75.058L165.385 75.058L165.385 83.806L164.389 83.806L159.169 76.366L159.169 83.806L158.257 83.806L158.257 75.058L159.325 75.058L164.485 82.414L164.485 75.058ZM167.819 83.806L167.819 75.058L168.743 75.058L168.743 83.806L167.819 83.806ZM179.355 79.414C179.355 80.238 179.167 80.994 178.791 81.682C178.407 82.362 177.879 82.902 177.207 83.302C176.519 83.702 175.763 83.902 174.939 83.902C174.339 83.902 173.759 83.786 173.199 83.554C172.647 83.322 172.183 83.006 171.807 82.606C171.431 82.23 171.127 81.762 170.895 81.202C170.671 80.626 170.559 80.046 170.559 79.462C170.559 78.63 170.751 77.874 171.135 77.194C171.511 76.498 172.039 75.954 172.719 75.562C173.383 75.17 174.135 74.974 174.975 74.974C175.591 74.974 176.171 75.086 176.715 75.31C177.259 75.55 177.723 75.862 178.107 76.246C178.507 76.67 178.811 77.142 179.019 77.662C179.243 78.206 179.355 78.79 179.355 79.414ZM178.407 79.462C178.407 78.462 178.087 77.61 177.447 76.906C176.791 76.186 175.955 75.826 174.939 75.826C174.307 75.826 173.719 75.986 173.175 76.306C172.647 76.642 172.239 77.078 171.951 77.614C171.663 78.166 171.519 78.766 171.519 79.414C171.519 80.422 171.839 81.27 172.479 81.958C173.135 82.678 173.967 83.038 174.975 83.038C175.615 83.038 176.203 82.874 176.739 82.546C177.267 82.242 177.679 81.81 177.975 81.25C178.263 80.706 178.407 80.11 178.407 79.462Z" fill="#FFFFFF" fill-opacity="1.000000" fill-rule="evenodd"/>
	</g>
	<g filter="url(#filter_108_6422_dd)">
		<path id="Vector 1" d="M90.4902 53.5695L85.9795 31.344L125.575 31.344L121.398 53.5695L105.276 60.7823L90.4902 53.5695Z" fill="url(#paint_radial_108_6422_0)" fill-opacity="1.000000" fill-rule="nonzero"/>
	</g>
	<path id="Vector 1" d="M83.5327 29.344L88.7266 54.9343L89.6135 55.367L105.239 62.9897L123.17 54.9676L127.986 29.344L83.5327 29.344ZM90.4902 53.5695L85.9795 31.344L125.575 31.344L125.199 33.344L121.398 53.5695L105.276 60.7823L90.4902 53.5695Z" fill="url(#paint_linear_108_6422_1)" fill-opacity="1.000000" fill-rule="evenodd"/>
	<path id="Vector 2" d="M93.0356 52.3403L89.2505 33.7541L122.476 33.7541L118.971 52.3403L105.443 58.3721L93.0356 52.3403Z" fill="url(#paint_radial_108_6423_0)" fill-opacity="1.000000" fill-rule="nonzero"/>
	<path id="Vector 2" d="M86.802 31.7541L91.2729 53.7072L92.1611 54.139L105.406 60.5781L120.743 53.7404L124.888 31.7541L86.802 31.7541ZM93.0356 52.3403L89.6577 35.7541L89.2505 33.7541L122.476 33.7541L122.099 35.7541L118.971 52.3403L105.443 58.3721L93.0356 52.3403Z" fill="url(#paint_linear_108_6423_1)" fill-opacity="1.000000" fill-rule="evenodd"/>
	<g filter="url(#filter_108_6424_dd)">
		<path id="Vector" d="M112.487 41.6871C112.924 41.8348 113.37 41.9821 113.824 42.1298C114.279 42.2774 114.683 42.4191 115.037 42.5549C115.893 42.8854 116.544 43.3416 116.99 43.9229C117.435 44.5041 117.658 45.2256 117.658 46.0875C117.658 46.6304 117.531 47.1559 117.277 47.6637C117.023 48.1711 116.681 48.5931 116.25 48.9295C115.778 49.3015 115.232 49.5877 114.612 49.7883C113.992 49.9889 113.27 50.0895 112.443 50.0895C111.676 50.0895 110.96 49.9938 110.296 49.8022C109.632 49.6107 109.07 49.385 108.609 49.1256L107.999 49.7448L107.246 49.7448L107.131 45.2086L107.892 45.2086C108.063 45.64 108.281 46.0948 108.547 46.5733C108.813 47.0518 109.12 47.4802 109.468 47.8583C109.828 48.2543 110.231 48.576 110.677 48.8243C111.122 49.0723 111.643 49.1963 112.239 49.1963C113.042 49.1963 113.657 49.0005 114.085 48.6081C114.513 48.2156 114.727 47.7215 114.727 47.1256C114.727 46.636 114.546 46.2244 114.183 45.8911C113.82 45.5579 113.258 45.2698 112.496 45.0272C112 44.8673 111.544 44.7193 111.128 44.5831C110.712 44.447 110.321 44.3077 109.955 44.1656C109.111 43.8292 108.484 43.3483 108.074 42.7225C107.663 42.097 107.458 41.3978 107.458 40.6243C107.458 40.1343 107.565 39.6639 107.777 39.2122C107.989 38.7609 108.299 38.3548 108.707 37.9951C109.096 37.6587 109.595 37.3843 110.203 37.1715C110.811 36.959 111.472 36.8528 112.186 36.8528C112.883 36.8528 113.535 36.95 114.143 37.1447C114.751 37.3394 115.229 37.5336 115.577 37.7283L116.117 37.1976L116.888 37.1976L116.958 41.4772L116.197 41.4772C116.02 41.0164 115.812 40.5452 115.573 40.0637C115.334 39.582 115.081 39.1819 114.816 38.8625C114.527 38.5199 114.193 38.2469 113.815 38.0428C113.438 37.8391 112.995 37.7371 112.487 37.7371C111.85 37.7371 111.329 37.9174 110.924 38.2775C110.52 38.6376 110.318 39.0833 110.318 39.6147C110.318 40.1166 110.494 40.5268 110.845 40.8458C111.196 41.1648 111.743 41.4451 112.487 41.6871ZM105.821 38.2587C105.567 38.4064 105.37 38.5638 105.231 38.7319C105.093 38.8998 104.956 39.1314 104.82 39.426C104.637 39.8328 104.38 40.4265 104.05 41.2076C103.719 41.9887 103.341 42.8774 102.917 43.8734C102.539 44.7694 102.13 45.7511 101.69 46.8178C101.25 47.8848 100.83 48.9076 100.428 49.8862L98.6487 49.8862C97.8223 47.8643 96.9812 45.81 96.1255 43.7233C95.2693 41.6363 94.6675 40.1862 94.3191 39.3727C94.1836 39.0781 94.052 38.8556 93.925 38.7051C93.7983 38.5551 93.5964 38.4005 93.3188 38.241C93.1179 38.1292 92.9412 38.0511 92.7876 38.0069C92.6343 37.9627 92.4307 37.9227 92.1768 37.8875L92.1768 37.1976L98.9851 37.1976L98.9851 37.8697C98.3481 37.9464 97.916 38.0275 97.689 38.1128C97.4617 38.1984 97.3484 38.306 97.3484 38.4356C97.3484 38.5007 97.3584 38.5697 97.3794 38.6435C97.3999 38.7173 97.4309 38.8159 97.4724 38.9395C97.6611 39.4577 98.0032 40.3043 98.499 41.4792C98.9946 42.6539 99.7292 44.4456 100.703 46.854C101.299 45.3879 101.795 44.1485 102.19 43.1358C102.585 42.1232 102.933 41.2281 103.234 40.4509C103.382 40.0741 103.504 39.722 103.602 39.395C103.699 39.068 103.748 38.8218 103.748 38.6567C103.748 38.468 103.612 38.3106 103.341 38.1835C103.069 38.0571 102.568 37.9641 101.836 37.9052L101.836 37.1976L106.927 37.1976L106.927 37.9052C106.732 37.9227 106.546 37.9582 106.369 38.0111C106.192 38.0644 106.009 38.1469 105.821 38.2587Z" fill="url(#paint_linear_108_6424_0)" fill-opacity="1.000000" fill-rule="nonzero"/>
	</g>
	<path id="Vector" d="M108.609 49.1256C109.07 49.385 109.632 49.6107 110.296 49.8022C110.373 49.8245 110.451 49.8455 110.53 49.8652C111.127 50.0148 111.765 50.0895 112.443 50.0895C112.833 50.0895 113.2 50.0671 113.544 50.0223C113.929 49.9722 114.285 49.8942 114.612 49.7883C115.232 49.5877 115.778 49.3015 116.25 48.9295C116.681 48.5931 117.023 48.1711 117.277 47.6637C117.531 47.1559 117.658 46.6304 117.658 46.0875Q117.658 44.96 117.149 44.1526Q117.075 44.0343 116.99 43.9229C116.544 43.3416 115.893 42.8854 115.037 42.5549C114.683 42.4191 114.279 42.2774 113.824 42.1298C113.37 41.9821 112.924 41.8348 112.487 41.6871C111.743 41.4451 111.196 41.1648 110.845 40.8458C110.494 40.5268 110.318 40.1166 110.318 39.6147C110.318 39.0833 110.52 38.6376 110.924 38.2775C111.118 38.1049 111.339 37.9736 111.586 37.8836C111.855 37.7859 112.156 37.7371 112.487 37.7371C112.995 37.7371 113.438 37.8391 113.815 38.0428C113.878 38.0765 113.939 38.1121 113.999 38.1497C114.302 38.3391 114.574 38.5765 114.816 38.8625C115.081 39.1819 115.334 39.582 115.573 40.0637Q115.775 40.4716 115.948 40.8696Q116.082 41.1763 116.197 41.4772L116.958 41.4772L116.954 41.1863L116.945 40.6569L116.942 40.4772L116.888 37.1976L116.117 37.1976L116.104 37.2106L115.891 37.4199L115.577 37.7283C115.284 37.5646 114.899 37.4011 114.423 37.2374C114.333 37.2065 114.24 37.1756 114.143 37.1447C113.535 36.95 112.883 36.8528 112.186 36.8528Q111.759 36.8528 111.356 36.9036Q110.75 36.9801 110.203 37.1715C109.595 37.3843 109.096 37.6587 108.707 37.9951C108.299 38.3548 107.989 38.7609 107.777 39.2122C107.565 39.6639 107.458 40.1343 107.458 40.6243C107.458 41.3978 107.663 42.097 108.074 42.7225C108.484 43.3483 109.111 43.8292 109.955 44.1656C110.321 44.3077 110.712 44.447 111.128 44.5831C111.544 44.7193 112 44.8673 112.496 45.0272C113.258 45.2698 113.82 45.5579 114.183 45.8911C114.546 46.2244 114.727 46.636 114.727 47.1256C114.727 47.7215 114.513 48.2156 114.085 48.6081C113.877 48.7993 113.624 48.9438 113.326 49.0417C113.013 49.1448 112.651 49.1963 112.239 49.1963Q111.461 49.1963 110.854 48.915Q110.764 48.8728 110.677 48.8243C110.231 48.576 109.828 48.2543 109.468 47.8583C109.12 47.4802 108.813 47.0518 108.547 46.5733C108.399 46.3058 108.265 46.0457 108.146 45.7928C108.052 45.5936 107.968 45.3988 107.892 45.2086L107.131 45.2086L107.138 45.5076L107.152 46.0237L107.156 46.2086L107.246 49.7448L107.999 49.7448L108.018 49.7252L108.24 49.4999L108.609 49.1256ZM108.205 48.1118L108.298 48.0173Q108.248 47.9517 108.199 47.8846L108.205 48.1118ZM115.534 48.2177Q115.585 48.1804 115.635 48.1415Q115.748 48.0532 115.85 47.9536Q116.17 47.6407 116.383 47.2165Q116.6 46.7825 116.646 46.3311Q116.658 46.21 116.658 46.0875Q116.658 45.1395 116.201 44.5384Q116.198 44.5349 116.196 44.5313Q115.698 43.8821 114.679 43.4886Q114.174 43.2949 113.515 43.0808L113.51 43.0791L112.178 42.6381Q110.858 42.2085 110.173 41.586Q109.873 41.3135 109.676 40.9802Q109.594 40.8416 109.531 40.6924Q109.519 40.6646 109.507 40.6365Q109.318 40.1635 109.318 39.6147Q109.318 39.1297 109.468 38.6967Q109.476 38.6736 109.484 38.6509Q109.424 38.6968 109.369 38.7446Q108.913 39.1473 108.682 39.6377Q108.537 39.9468 108.486 40.2708Q108.458 40.4454 108.458 40.6243Q108.458 41.1722 108.641 41.6503Q108.746 41.9238 108.91 42.1744Q109.352 42.8489 110.317 43.2335Q110.842 43.4371 111.437 43.632L112.8 44.0743Q114.152 44.5053 114.859 45.1545Q115.215 45.4814 115.428 45.8842Q115.47 45.9637 115.506 46.0461Q115.549 46.1435 115.584 46.2438Q115.727 46.6599 115.727 47.1256Q115.727 47.7087 115.534 48.2177ZM97.4724 38.9395C97.4309 38.8159 97.3999 38.7173 97.3794 38.6435C97.3584 38.5697 97.3484 38.5007 97.3484 38.4356C97.3484 38.3457 97.4028 38.2664 97.5122 38.1976C97.5605 38.1673 97.6194 38.139 97.689 38.1128C97.916 38.0275 98.3481 37.9464 98.9851 37.8697L98.9851 37.1976L97.9851 37.1976L97.2837 37.1976L93.1768 37.1976L92.2725 37.1976L92.1768 37.1976L92.1768 37.8875C92.4307 37.9227 92.6343 37.9627 92.7876 38.0069C92.9204 38.0452 93.0708 38.1088 93.239 38.1976C93.2651 38.2114 93.2917 38.2259 93.3188 38.241C93.5964 38.4005 93.7983 38.5551 93.925 38.7051C94.052 38.8556 94.1836 39.0781 94.3191 39.3727C94.6675 40.1862 95.2693 41.6363 96.1255 43.7233Q97.4089 46.8533 98.6487 49.8862L100.428 49.8862C100.501 49.7101 100.573 49.5325 100.647 49.3536C100.982 48.5381 101.33 47.6928 101.69 46.8178C102.13 45.7511 102.539 44.7694 102.917 43.8734C103.162 43.2967 103.393 42.756 103.607 42.2513C103.763 41.8843 103.91 41.5364 104.05 41.2076C104.38 40.4265 104.637 39.8328 104.82 39.426C104.956 39.1314 105.093 38.8998 105.231 38.7319C105.37 38.5638 105.567 38.4064 105.821 38.2587C105.857 38.2372 105.893 38.2169 105.928 38.1976C106.079 38.1163 106.226 38.0541 106.369 38.0111C106.546 37.9582 106.732 37.9227 106.927 37.9052L106.927 37.1976L105.927 37.1976L105.697 37.1976L102.836 37.1976L101.893 37.1976L101.836 37.1976L101.836 37.9052C102.568 37.9641 103.069 38.0571 103.341 38.1835C103.351 38.1882 103.361 38.1929 103.37 38.1976C103.622 38.3222 103.748 38.4749 103.748 38.6567C103.748 38.8218 103.699 39.068 103.602 39.395C103.504 39.722 103.382 40.0741 103.234 40.4509C103.071 40.8733 102.893 41.3304 102.702 41.8223C102.541 42.2356 102.37 42.6735 102.19 43.1358C101.92 43.8273 101.603 44.6245 101.24 45.5273C101.071 45.9468 100.892 46.389 100.703 46.854C100.685 46.8093 100.667 46.7648 100.649 46.7204C100.479 46.2998 100.316 45.8984 100.161 45.5162C99.4519 43.7706 98.8979 42.4249 98.499 41.4792C98.0032 40.3043 97.6611 39.4577 97.4724 38.9395ZM100.107 48.0375L97.5779 41.868Q96.8254 40.0855 96.533 39.2816L96.5286 39.2697L96.5244 39.2577Q96.4536 39.0468 96.4172 38.9161Q96.3484 38.673 96.3484 38.4356Q96.3484 38.314 96.3716 38.1976L94.7971 38.1976Q95.0183 38.4999 95.2275 38.9545L95.2354 38.9717L97.051 43.3444L99.3198 48.8862L99.7583 48.8862L100.107 48.0375Z" fill="url(#paint_linear_108_6424_1)" fill-opacity="1.000000" fill-rule="evenodd"/>
</svg>
