<svg width="16" height="16" viewBox="0 0 16 16" fill="none" xmlns="http://www.w3.org/2000/svg">
<g id="rotate 1">
<path id="Vector" fill-rule="evenodd" clip-rule="evenodd" d="M11.8419 1.3338C11.474 1.34744 11.1868 1.65678 11.2005 2.02472L11.2657 3.78322C10.3637 3.08365 9.23067 2.66667 8 2.66667C5.05448 2.66667 2.66667 5.05449 2.66667 8C2.66667 10.9455 5.05448 13.3333 8 13.3333C10.9455 13.3333 13.3333 10.9455 13.3333 8C13.3333 7.63179 13.0349 7.33333 12.6667 7.33333C12.2985 7.33333 12 7.63179 12 8C12 10.2091 10.2091 12 8 12C5.79086 12 4.00001 10.2091 4.00001 8C4.00001 5.79087 5.79086 4 8 4C9.05294 4 10.0112 4.40662 10.726 5.0726L8.45594 5.33784C8.09027 5.38058 7.82847 5.71167 7.8712 6.07738C7.91394 6.44308 8.245 6.70493 8.61074 6.66217L12.0774 6.25711C12.4227 6.21676 12.6791 5.91772 12.6662 5.57024L12.5329 1.9753C12.5192 1.60736 12.2099 1.32015 11.8419 1.3338Z" fill="#FFD762"/>
</g>
</svg>
