<svg width="20" height="20" viewBox="0 0 20 20" fill="none" xmlns="http://www.w3.org/2000/svg">
<g id="crown2 1">
<path id="Vector" d="M3.37418 4.835L6.54501 7.625L9.37001 4.14667C9.44911 4.04942 9.54914 3.97128 9.66263 3.91806C9.77612 3.86483 9.90016 3.8379 10.0255 3.83926C10.1509 3.84062 10.2743 3.87025 10.3866 3.92592C10.4989 3.9816 10.5972 4.0619 10.6742 4.16083L13.37 7.62417L16.6433 4.79417C16.7719 4.68326 16.9312 4.61426 17.1001 4.5964C17.2689 4.57854 17.4392 4.61268 17.5881 4.69425C17.737 4.77581 17.8574 4.90091 17.9333 5.0528C18.0091 5.20469 18.0368 5.37613 18.0125 5.54417L16.7625 14.1667H3.26834L1.99918 5.58333C1.97396 5.41436 2.0013 5.24173 2.07747 5.08881C2.15364 4.93589 2.27497 4.81007 2.42503 4.72841C2.57508 4.64674 2.74661 4.61317 2.91639 4.63223C3.08616 4.6513 3.24597 4.72208 3.37418 4.835ZM3.33334 15H16.6667V15.8333C16.6667 16.0543 16.5789 16.2663 16.4226 16.4226C16.2663 16.5789 16.0544 16.6667 15.8333 16.6667H4.16668C3.94566 16.6667 3.7337 16.5789 3.57742 16.4226C3.42114 16.2663 3.33334 16.0543 3.33334 15.8333V15Z" fill="#F8D05F"/>
</g>
</svg>
