<svg width="20" height="20" viewBox="0 0 20 20" fill="none" xmlns="http://www.w3.org/2000/svg">
<g id="deposit 2">
<path id="Vector" d="M16.3333 17.5H3.66663C2.58329 17.5 1.66663 16.5834 1.66663 15.5V11.6667H3.33329V15.1667C3.33329 15.6667 3.66663 15.8334 4.16663 15.8334H15.8333C16.3333 15.8334 16.6666 15.5 16.6666 15V11.6667H18.3333V15.5C18.3333 16.5834 17.4166 17.5 16.3333 17.5Z" fill="#F8D05F"/>
<path id="Vector_2" d="M12.75 10.0833L11.1667 11.6667V8.33333C11.1667 6.66667 11.1667 4.25 13.1667 2.5C10.3334 3 8.91671 5.16667 8.83337 8.33333V11.6667L7.25004 10.0833L5.83337 10.8333L10 15L14.1667 10.8333L12.75 10.0833Z" fill="#F8D05F"/>
</g>
</svg>
