<svg width="17.000000" height="15.790298" viewBox="0 0 17 15.7903" fill="none" xmlns="http://www.w3.org/2000/svg" xmlns:xlink="http://www.w3.org/1999/xlink">
	<desc>
			Created with Pixso.
	</desc>
	<defs/>
	<path id="Vector" d="M8.5 3.73476L8.50889 3.73476M8.5 6.40141L8.5 8.17918M0.525173 6.40141L6.92187 10.6828C7.49209 11.063 7.77724 11.2531 8.08542 11.3269C8.35769 11.3922 8.6416 11.3922 8.91396 11.3269C9.22213 11.2531 9.50729 11.063 10.0775 10.6828L16.4742 6.40141M1.83168 4.367C1.34552 4.67232 1.10244 4.82497 0.926132 5.03133C0.770088 5.21397 0.652676 5.42636 0.580986 5.65565C0.5 5.9147 0.5 6.20175 0.5 6.7758L0.5 12.4458C0.5 13.4415 0.5 13.9394 0.693768 14.3196C0.864204 14.6541 1.13617 14.9261 1.47068 15.0965C1.85097 15.2903 2.3488 15.2903 3.34444 15.2903L13.6556 15.2903C14.6512 15.2903 15.1491 15.2903 15.5293 15.0965C15.8638 14.9261 16.1358 14.6541 16.3062 14.3196C16.5 13.9394 16.5 13.4415 16.5 12.4458L16.5 6.7758C16.5 6.20175 16.5 5.9147 16.419 5.65565C16.3473 5.42636 16.23 5.21397 16.0739 5.03133C15.8976 4.82497 15.6545 4.67232 15.1684 4.367L10.0128 1.12924C9.46409 0.784683 9.18978 0.612411 8.89547 0.545258C8.63511 0.48587 8.36489 0.48587 8.10453 0.545258C7.81022 0.612411 7.53591 0.784683 6.9872 1.12926L1.83168 4.367Z" stroke="#FEFFAB" stroke-opacity="1.000000" stroke-width="1.000000" stroke-linejoin="round"/>
</svg>
