<svg width="24.000000" height="24.000000" viewBox="0 0 24 24" fill="none" xmlns="http://www.w3.org/2000/svg" xmlns:xlink="http://www.w3.org/1999/xlink">
	<desc>
			Created with Pixso.
	</desc>
	<defs>
		<clipPath id="clip3_548">
			<rect id="Frame" width="24.000000" height="24.000000" fill="white" fill-opacity="0"/>
		</clipPath>
	</defs>
	<g opacity="0.400000">
		<rect id="Frame" width="24.000000" height="24.000000" fill="#FFFFFF" fill-opacity="0"/>
		<g clip-path="url(#clip3_548)">
			<path id="Vector" d="M19 3C20.1045 3 21 3.89543 21 5L21 19C21 20.1046 20.1045 21 19 21L5 21C3.89551 21 3 20.1046 3 19L3 5C3 3.89543 3.89551 3 5 3L19 3Z" stroke="#22041E" stroke-opacity="1.000000" stroke-width="2.000000" stroke-linejoin="round"/>
			<path id="Vector" d="M9 11C7.89551 11 7 10.1046 7 9C7 7.89543 7.89551 7 9 7C10.1045 7 11 7.89543 11 9C11 10.1046 10.1045 11 9 11Z" stroke="#22041E" stroke-opacity="1.000000" stroke-width="2.000000" stroke-linejoin="round"/>
			<path id="Vector" d="M21 15L17.9141 11.914C17.5391 11.5391 17.0303 11.3284 16.5 11.3284C15.9697 11.3284 15.4609 11.5391 15.0859 11.914L6 21" stroke="#22041E" stroke-opacity="1.000000" stroke-width="2.000000" stroke-linejoin="round" stroke-linecap="round"/>
		</g>
	</g>
</svg>
