<svg width="30.000000" height="30.000000" viewBox="0 0 30 30" fill="none" xmlns="http://www.w3.org/2000/svg" xmlns:xlink="http://www.w3.org/1999/xlink">
	<desc>
			Created with Pixso.
	</desc>
	<defs>
		<clipPath id="clip3_507">
			<rect id="horse 1" width="20.000000" height="20.000000" transform="translate(5.000000 5.000000)" fill="white" fill-opacity="0"/>
		</clipPath>
		<clipPath id="clip3_506">
			<rect id="horse" rx="15.000000" width="30.000000" height="30.000000" fill="white" fill-opacity="0"/>
		</clipPath>
		<linearGradient id="paint_linear_3_508_0" x1="14.744204" y1="5.049988" x2="14.744204" y2="24.787491" gradientUnits="userSpaceOnUse">
			<stop stop-color="#960E89"/>
			<stop offset="1.000000" stop-color="#19125D"/>
		</linearGradient>
	</defs>
	<rect id="horse" rx="15.000000" width="30.000000" height="30.000000" fill="#F8D05F" fill-opacity="1.000000"/>
	<g clip-path="url(#clip3_506)">
		<rect id="horse 1" width="20.000000" height="20.000000" transform="translate(5.000000 5.000000)" fill="#FFFFFF" fill-opacity="0"/>
		<g clip-path="url(#clip3_507)">
			<path id="Vector" d="M21.8252 5.04999L21.8252 5.29999L21.7751 5.29999L21.7751 5.36249L21.7251 5.36249L21.7251 5.41249L21.675 5.41249L21.675 5.46249L21.5752 5.46249L21.5752 5.51248L21.5251 5.51248L21.5251 5.56248C21.5171 5.56374 21.509 5.56511 21.5007 5.56636C21.4924 5.56924 21.4839 5.57211 21.4751 5.57498L21.4626 5.61249L21.4126 5.61249L21.4126 5.66249L21.3125 5.67499L21.3125 5.71249C21.2939 5.71861 21.2939 5.71861 21.2751 5.72499L21.2627 5.76248L21.1626 5.77499L21.1626 5.82498L21.1001 5.82498L21.1001 5.87498L21 5.87498L21 5.92499L20.9502 5.92499L20.9502 5.97499L20.8501 5.97499L20.8501 6.02499L20.75 6.03749L20.75 6.07498C20.7422 6.07623 20.7341 6.07761 20.7258 6.07886C20.7173 6.08174 20.7087 6.08461 20.7002 6.08749L20.6875 6.12498L20.5876 6.13748L20.5876 6.18748L20.4875 6.18748L20.4875 6.23749L20.3877 6.23749L20.3877 6.28749L20.3252 6.28749L20.3252 6.33749L20.2251 6.33749L20.2251 6.38748L20.125 6.38748L20.125 6.43748C20.0962 6.44162 20.0674 6.44574 20.0376 6.44998L20.0251 6.48749L19.925 6.49998L19.925 6.53749L19.8625 6.54999L19.8625 6.58749C19.8489 6.59087 19.8352 6.59424 19.8213 6.59761C19.7761 6.60823 19.7761 6.60823 19.7549 6.63274C19.7375 6.64999 19.7375 6.64999 19.7039 6.65236C19.6943 6.65161 19.6851 6.65074 19.675 6.64999L19.675 6.69998L19.5752 6.69998L19.5752 6.74998L19.4751 6.74998L19.4751 6.79999L19.375 6.79999L19.375 6.84999L19.3125 6.84999L19.3125 6.89999L19.2126 6.89999L19.2126 6.94998L19.1125 6.94998L19.1125 6.99998C19.0754 7.00412 19.0383 7.00824 19 7.01248L19 7.06248L18.9001 7.06248L18.9001 7.11249L18.8 7.11249L18.8 7.16249L18.7002 7.16249L18.7002 7.21249L18.6001 7.21249L18.6001 7.26248L18.5376 7.26248L18.5376 7.31248L18.4001 7.32498L18.4001 7.36249L18.3376 7.36249L18.3376 7.41249L18.2375 7.42499L18.2375 7.46249C18.2004 7.46661 18.1633 7.47073 18.125 7.47499L18.125 7.52499L18.0251 7.52499L18.0251 7.57498L17.925 7.57498L17.925 7.62498L17.8252 7.63748L17.8252 7.67499L17.7251 7.68748L17.7251 7.72499L17.6626 7.72499L17.6626 7.77499L17.5625 7.77499L17.5625 7.82498L17.4626 7.83749L17.4626 7.87498C17.4556 7.87636 17.4485 7.87773 17.4412 7.87912C17.4319 7.88112 17.4229 7.88312 17.4133 7.88512C17.4043 7.88699 17.395 7.88887 17.3857 7.89087C17.3782 7.89386 17.3704 7.89687 17.3625 7.89999L17.3501 7.93748C17.3213 7.94162 17.2922 7.94574 17.2627 7.94998L17.25 7.98749C17.2212 7.99161 17.1924 7.99574 17.1626 7.99998L17.1501 8.03749L17.0625 8.03749L17.0625 8.08749C17.0547 8.08875 17.0466 8.09012 17.0383 8.09137C17.0298 8.09424 17.0212 8.09711 17.0127 8.09999L17 8.13748C16.9712 8.14162 16.9424 8.14574 16.9126 8.14999L16.9001 8.18748C16.8711 8.19162 16.8423 8.19574 16.8125 8.19998L16.8 8.23749L16.7002 8.24998L16.7002 8.28749L16.6001 8.29999L16.6001 8.34999L16.5 8.34999L16.5 8.39999L16.4001 8.39999L16.4001 8.44998L16.3 8.46249L16.2876 8.49998L16.2375 8.49998L16.2375 8.54999L16.1377 8.54999L16.1377 8.66249L16.175 8.66249L16.1875 8.76248L16.2375 8.76248L16.2375 8.86249L16.2876 8.86249L16.2876 8.96249L16.3376 8.96249L16.3376 9.06248L16.3877 9.06248L16.4001 9.21249L16.4375 9.21249L16.4375 9.37498C16.3914 9.38649 16.3567 9.38873 16.3101 9.38824C16.2966 9.38811 16.2832 9.38799 16.2693 9.38799C16.259 9.38774 16.2488 9.38762 16.2383 9.38748L16.2256 9.33749L16.1758 9.32498L16.1758 9.28749L16.1257 9.27499L16.1257 9.17499L16.0757 9.17499L16.0632 9.07498L16.0256 9.07498C16.0239 9.06299 16.0239 9.06299 16.0217 9.05074C16.019 9.04224 16.0161 9.03374 16.0132 9.02499C16.0007 9.02086 15.9885 9.01674 15.9756 9.01248L15.9631 8.91249L15.9131 8.91249L15.9131 8.86249L15.8633 8.86249L15.8633 8.76248L15.8132 8.76248L15.8132 8.71249L15.7632 8.71249L15.7632 8.74998L15.7256 8.74998L15.7256 8.91249L15.7632 8.91249C15.7771 8.96799 15.7771 9.02211 15.7764 9.07874C15.7764 9.08798 15.7764 9.09724 15.7764 9.10686C15.7761 9.12949 15.7759 9.15224 15.7756 9.17487L15.8257 9.17487L15.8257 9.58736L15.8757 9.58736L15.8882 10.0374L15.9258 10.0374L15.9258 10.0999C15.9133 10.104 15.9009 10.1081 15.8882 10.1124L15.8882 10.1499L15.9258 10.1499L15.9382 10.3999L15.9756 10.3999L15.9756 10.4624L16.0256 10.4624L16.0256 10.5124L16.0757 10.5124L16.0757 10.5624L16.1257 10.5624L16.1382 10.6624L16.1882 10.6624L16.1882 10.7124L16.2383 10.7124L16.2383 10.7749L16.2881 10.7749L16.2881 10.8249L16.3381 10.8249L16.3381 10.8749L16.3882 10.8749L16.3882 10.9749L16.4382 10.9749L16.4382 11.0249L16.4883 11.0249C16.49 11.0369 16.49 11.0369 16.4922 11.0491C16.4949 11.0576 16.4978 11.0661 16.5007 11.0749C16.5132 11.079 16.5254 11.0831 16.5381 11.0874L16.5508 11.1749L16.6006 11.1874L16.6006 11.2374L16.6506 11.2374L16.6506 11.2874L16.7007 11.2874L16.7007 11.3374L16.7507 11.3374L16.7507 11.3874L16.8008 11.3999L16.8008 11.4499L16.8506 11.4624L16.8506 11.4999L16.9006 11.5124L16.9006 11.5499L16.9507 11.5624L16.9507 11.5999L17.0007 11.5999L17.0132 11.6374C17.0381 11.6525 17.0381 11.6525 17.0632 11.6624L17.0632 11.6874L17.2632 11.6999L17.2632 11.6499L17.3132 11.6499L17.3132 11.5874L17.3506 11.5874L17.3506 11.5124L17.3132 11.5124L17.3132 11.4499L17.2632 11.4499L17.2632 11.3999L17.2131 11.3999L17.2131 11.3499L17.1506 11.3374L17.1506 11.2999L17.1006 11.2999L17.1006 11.2499L17.0508 11.2499L17.0508 11.1999L17.0007 11.1874L17.0007 11.1374L16.9507 11.1374L16.9507 11.0874L16.9006 11.0874L16.9006 11.0374L16.8506 11.0249L16.8381 10.9374L16.8008 10.9374L16.8008 10.8749C16.7927 10.8736 16.7847 10.8722 16.7764 10.871C16.7681 10.8681 16.7595 10.8652 16.7507 10.8624C16.7371 10.8212 16.7371 10.7906 16.7375 10.7475C16.7375 10.734 16.7378 10.7204 16.7378 10.7064C16.738 10.6907 16.738 10.6907 16.7383 10.6749L16.6882 10.6624L16.6882 10.3124L16.7383 10.3124L16.7507 10.2499L16.7881 10.2499L16.8008 10.1999L16.9507 10.1999L16.9507 10.1624C16.9932 10.1495 17.032 10.1484 17.0757 10.1485L17.1221 10.1485C17.1465 10.1485 17.1465 10.1485 17.1716 10.1486C17.1887 10.1486 17.2058 10.1487 17.2229 10.1487C17.2676 10.1487 17.3123 10.1489 17.3567 10.149C17.4023 10.1491 17.448 10.1492 17.4941 10.1492C17.5835 10.1494 17.6729 10.1496 17.7629 10.1499L17.7754 10.0624L17.7253 10.0624L17.7129 9.96236L17.6628 9.94986L17.6628 9.91237C17.6382 9.90823 17.6133 9.90411 17.5879 9.89986L17.5754 9.84987L17.5129 9.84987L17.5129 9.79987L17.4629 9.79987L17.4629 9.74986L17.4128 9.74986L17.4128 9.69986L17.3628 9.69986C17.3608 9.68787 17.3608 9.68787 17.3589 9.67561C17.3562 9.66711 17.3533 9.65862 17.3503 9.64986C17.3379 9.64574 17.3257 9.64162 17.3127 9.63736L17.3003 9.53737L17.2629 9.53737L17.2629 9.48737C17.2751 9.48325 17.2876 9.47911 17.3003 9.47487C17.3096 9.44962 17.3096 9.44962 17.3127 9.42487L17.3628 9.42487L17.3628 9.37486L17.4504 9.37486L17.4629 9.32486L17.5754 9.32486L17.5754 9.28737C17.6165 9.27362 17.647 9.27362 17.6902 9.27411C17.7036 9.27423 17.7173 9.27437 17.7314 9.27437C17.7471 9.27461 17.7471 9.27461 17.7629 9.27486L17.7629 9.22487L18.4377 9.22487L18.4377 9.27486C18.449 9.27473 18.4604 9.27461 18.4722 9.27437C18.4941 9.27423 18.4941 9.27423 18.5166 9.27411C18.5312 9.27399 18.5461 9.27374 18.561 9.27362C18.6003 9.27486 18.6003 9.27486 18.6379 9.28737L18.6379 9.32486L18.7004 9.32486L18.7004 9.37486L18.8003 9.38736L18.8127 9.42487C18.8252 9.42899 18.8376 9.43312 18.8503 9.43736L18.8503 9.47487L18.9504 9.48737L18.9504 9.53737L19.0002 9.53737L19.0129 9.63736L19.0627 9.63736L19.0627 9.68736L19.1128 9.68736L19.1128 9.73737L19.1628 9.74986L19.1628 9.84987L19.2129 9.84987L19.2129 9.94986L19.2629 9.94986L19.2629 10.0999L19.3127 10.0999L19.3127 10.5624L19.2629 10.5749L19.2629 10.7124L19.2129 10.7249L19.2129 10.8124L19.1628 10.8249L19.1628 10.9249L19.1128 10.9374L19.1003 10.9874L19.0627 10.9874L19.0503 11.0374L19.0129 11.0374C19.011 11.0494 19.011 11.0494 19.009 11.0616C19.0061 11.0701 19.0032 11.0786 19.0002 11.0874C18.988 11.0915 18.9756 11.0956 18.9629 11.0999C18.9478 11.1249 18.9478 11.1249 18.9377 11.1499L18.9128 11.1499L18.8879 11.1999L18.8503 11.1999L18.8379 11.2499L18.8003 11.2499L18.7878 11.2999L18.7502 11.2999L18.7378 11.3499L18.6504 11.3499L18.6379 11.3999L18.5879 11.3999L18.5754 11.4499L18.5378 11.4499L18.5254 11.4999L18.4878 11.4999L18.5002 11.6374C18.5127 11.6415 18.5251 11.6456 18.5378 11.6499L18.5503 12.0624L18.5879 12.0624L18.6003 12.3749L18.6379 12.3749C18.6533 12.4581 18.6514 12.5399 18.6504 12.6249L18.6877 12.6249C18.699 12.6632 18.7019 12.6972 18.7017 12.7371C18.7014 12.7489 18.7014 12.7605 18.7014 12.7726C18.7014 12.7846 18.7012 12.7967 18.7012 12.8092C18.7012 12.8215 18.7009 12.8339 18.7009 12.8465C18.7009 12.8767 18.7007 12.9071 18.7004 12.9374L18.7502 12.9374L18.7502 13.0874L18.8003 13.0874L18.8003 13.1374L18.8503 13.1374L18.8503 13.1874L18.9504 13.1999L18.9629 13.2374C18.988 13.2465 18.988 13.2465 19.0129 13.2499L19.0129 13.2874L19.1128 13.2999L19.1128 13.3499L19.2129 13.3499L19.2129 13.3999L19.3003 13.3999L19.3127 13.4499L19.3752 13.4624L19.3752 13.4999L19.4629 13.4999L19.4753 13.5499L19.5254 13.5624L19.5254 13.5999C19.5542 13.604 19.583 13.6081 19.6128 13.6124L19.6252 13.6624L19.6753 13.6749L19.6753 14.0124L19.6252 14.0249L19.6128 14.0874L19.5754 14.0874L19.5754 14.2124L19.5254 14.2249L19.5129 14.2874L19.4753 14.2874C19.4761 14.3071 19.4761 14.3071 19.4768 14.3272C19.4753 14.3716 19.4695 14.398 19.4504 14.4374L19.4253 14.4374L19.4128 14.5249L19.3628 14.5374L19.3628 14.6249L19.3127 14.6374L19.3003 14.6999L19.2754 14.6999L19.2629 14.7874L19.2129 14.7999L19.2129 14.8999L19.1628 14.8999L19.1628 14.9999L19.1128 15.0124C19.1135 15.0325 19.1135 15.0325 19.1143 15.053C19.113 15.0956 19.1101 15.115 19.0879 15.1499L19.0627 15.1499L19.0503 15.2624L19.0129 15.2624L19.0002 15.3624C18.988 15.3665 18.9756 15.3706 18.9629 15.3749L18.9504 15.4624C18.938 15.4665 18.9255 15.4706 18.9128 15.4749L18.9004 15.5749L18.8503 15.5749L18.8503 15.6749L18.8003 15.6749L18.8003 15.7749L18.7502 15.7749L18.7502 15.8749L18.7004 15.8749L18.6877 15.9874L18.6504 15.9874L18.6379 16.0874L18.6003 16.0874L18.5879 16.1499L18.5503 16.1499L18.5378 16.2874L18.4878 16.2874L18.4878 16.3874C18.4753 16.3915 18.4631 16.3956 18.4504 16.3999L18.4377 16.4999L18.3879 16.4999L18.3879 16.5999L18.3379 16.5999L18.3379 16.7124L18.2878 16.7124L18.2878 16.8124L18.2378 16.8124C18.2383 16.8356 18.2383 16.8356 18.2385 16.8592C18.2388 16.8956 18.2371 16.9275 18.2253 16.9624L18.1877 16.9624L18.1753 17.0624L18.1252 17.0624L18.1252 17.1249L18.0879 17.1249L18.0754 17.2124C18.063 17.2165 18.0505 17.2206 18.0378 17.2249C18.0288 17.2501 18.0288 17.2501 18.0254 17.2749L17.9753 17.2749L17.9753 17.3249L17.9253 17.3249L17.9253 17.3749L17.8752 17.3749L17.8752 17.4249L17.8254 17.4249L17.8254 17.4749L17.7754 17.4749L17.7754 17.5249C17.7634 17.5267 17.7634 17.5267 17.751 17.5287C17.7427 17.5316 17.7341 17.5345 17.7253 17.5374L17.7129 17.5749C17.7004 17.579 17.688 17.5831 17.6753 17.5874L17.6628 17.6249C17.634 17.629 17.605 17.6331 17.5754 17.6374L17.5627 17.6874L17.5129 17.6874L17.5129 17.7374L17.4504 17.7374L17.4504 17.7874L17.3628 17.7874L17.3628 17.8374L17.2629 17.8499L17.2629 17.8874L17.2004 17.8874L17.2004 17.9374L17.1003 17.9374L17.1003 17.9874L16.9629 17.9999L16.9504 18.0374L16.8503 18.0499L16.8379 18.0874C16.7942 18.1059 16.7471 18.1007 16.7004 18.0999L16.7004 18.1499L16.5503 18.1499L16.5503 18.1999L16.3879 18.1999L16.3879 18.2499L16.2378 18.2624L16.2378 18.2999L16.0879 18.3124L16.0879 18.3499L15.8879 18.3624L15.8752 18.3999L15.7129 18.4124L15.7129 18.4499C15.6838 18.454 15.655 18.4581 15.6252 18.4624L15.6252 18.5499L15.6628 18.5499L15.6628 18.5999L15.7129 18.6124L15.7253 18.6999L15.7754 18.7124L15.7754 18.7499L15.8254 18.7624L15.8254 18.8124L15.8752 18.8124L15.8752 18.8624L15.9253 18.8749L15.9253 18.9124L15.9753 18.9249L15.9753 18.9624L16.1252 18.9624L16.1379 18.9124L16.1753 18.9124L16.1753 18.8249L16.2253 18.8124L16.2378 18.7499L16.2754 18.7499L16.2878 18.6749L16.3379 18.6624L16.3503 18.5999L16.4377 18.5999L16.4504 18.5499C16.4626 18.554 16.4751 18.5581 16.4878 18.5624L16.4878 18.5999L16.5503 18.6124L16.5503 18.6499C16.5627 18.654 16.5752 18.6581 16.5879 18.6624C16.6018 18.6985 16.6018 18.7335 16.6016 18.772C16.6016 18.7831 16.6016 18.7941 16.6016 18.8056C16.6013 18.8171 16.6013 18.8286 16.6011 18.8405C16.6011 18.8522 16.6011 18.8639 16.6011 18.876C16.6008 18.9047 16.6006 18.9336 16.6003 18.9624L16.6504 18.9749L16.6504 19.0624L16.7004 19.0749L16.7004 19.1249L16.7502 19.1374L16.7502 19.1749L16.8003 19.1874L16.8003 19.2249L16.8503 19.2374L16.8503 19.2749L16.9004 19.2874L16.9004 19.3249L16.9629 19.3374L16.9629 19.3749L17.0129 19.3874L17.0129 19.4249L17.0627 19.4374L17.0627 19.4749L17.1128 19.4874L17.1128 19.5249L17.1504 19.5249L17.1504 19.5749L17.2129 19.5874L17.2129 19.6249L17.3127 19.6374L17.3127 19.6749L17.3503 19.6749L17.3628 18.8624C17.3752 18.8582 17.3877 18.8541 17.4004 18.8499L17.4128 18.5499L17.4629 18.5499L17.4629 18.3999L17.5129 18.3999L17.5129 18.3374L17.5627 18.3374L17.5627 18.2374L17.6128 18.2374L17.6128 18.1874L17.6628 18.1874L17.6628 18.1374L17.7129 18.1374L17.7253 18.0374C17.7542 18.0332 17.7832 18.0291 17.8127 18.0249L17.8254 17.9374L17.9253 17.9249L17.9253 17.8749L17.9753 17.8749L17.9753 17.8249L18.0254 17.8249L18.0254 17.7749L18.0754 17.7749L18.0754 17.7249L18.1379 17.7249L18.1379 17.6749L18.1877 17.6749L18.1877 17.6249L18.2253 17.6249L18.2378 17.5749L18.2754 17.5749L18.2878 17.5249L18.3254 17.5249L18.3379 17.4624L18.3752 17.4624L18.3879 17.4124L18.4253 17.4124L18.4377 17.3249C18.4502 17.3207 18.4626 17.3166 18.4753 17.3124L18.4878 17.2249L18.5378 17.2124L18.5378 17.1249L18.5879 17.1124L18.5879 17.0124C18.6001 17.0082 18.6125 17.0041 18.6252 16.9999L18.6379 16.8124L18.6877 16.7999L18.6877 16.5999L18.7378 16.5874L18.7378 16.4499C18.7974 16.4252 18.8374 16.4247 18.9004 16.4374L18.9004 16.4874L18.9504 16.4874L18.9504 16.5374L19.0002 16.5499C19.002 16.5707 19.002 16.5707 19.0034 16.5921C19.0076 16.6381 19.0076 16.6381 19.0386 16.6554C19.0466 16.6576 19.0547 16.66 19.0627 16.6624L19.0627 16.6999C19.0752 16.704 19.0876 16.7081 19.1003 16.7124L19.1128 16.7999L19.1628 16.8124L19.1628 16.8999L19.2129 16.9124L19.2129 16.9499L19.2629 16.9624L19.2629 17.0499L19.3127 17.0624L19.3254 17.1499C19.3376 17.154 19.3501 17.1581 19.3628 17.1624L19.3752 17.2499C19.3877 17.254 19.4001 17.2581 19.4128 17.2624L19.4253 17.3624L19.4753 17.3749L19.4753 17.4624L19.5254 17.4749L19.5254 17.5749L19.5754 17.5874L19.5754 17.8749L19.6252 17.8874C19.6257 17.9829 19.6257 18.0786 19.626 18.1736C19.626 18.2061 19.6262 18.2385 19.6262 18.271C19.6265 18.3176 19.6265 18.3642 19.6265 18.411C19.6265 18.4256 19.6267 18.4402 19.6267 18.4552L19.6267 18.4961C19.627 18.514 19.627 18.514 19.627 18.5322C19.6252 18.5624 19.6252 18.5624 19.6128 18.5999L19.5754 18.5999C19.5757 18.622 19.5757 18.622 19.5762 18.6446C19.5764 18.6641 19.5767 18.6835 19.5769 18.703C19.5771 18.7127 19.5774 18.7224 19.5776 18.7325C19.5784 18.8214 19.5784 18.8214 19.5503 18.8625L19.5254 18.8625L19.5254 19L19.4753 19.025L19.4753 19.1125C19.4634 19.1156 19.4634 19.1156 19.4512 19.1187C19.4233 19.1347 19.4233 19.1347 19.4192 19.1614C19.4163 19.1867 19.4146 19.2121 19.4128 19.2375L19.3752 19.2375L19.3628 19.3375L19.3254 19.3375L19.3127 19.4375L19.2629 19.4375L19.2629 19.5375L19.2129 19.5375L19.2129 19.6375L19.1628 19.6375L19.1628 19.7375L19.1128 19.7375L19.1003 19.8L19.0627 19.8L19.0503 19.9L19.0002 19.9L19.0002 19.95L18.9504 19.95L18.9504 20L18.9128 20L18.9004 20.0625L18.8628 20.0625L18.8503 20.15L18.8003 20.15L18.8003 20.2125L18.7502 20.2125L18.7502 20.2625L18.7004 20.2625L18.7004 20.3125L18.6504 20.3125L18.6379 20.4125L18.6003 20.4125L18.6003 20.775L18.6379 20.775C18.6501 20.8674 18.6519 20.9575 18.6511 21.0512C18.6511 21.0729 18.6511 21.0729 18.6509 21.0949C18.6509 21.1301 18.6506 21.1652 18.6504 21.2005L18.6877 21.2005C18.7012 21.2756 18.7019 21.348 18.7012 21.4242C18.7012 21.4364 18.7009 21.4485 18.7009 21.461C18.7009 21.4906 18.7007 21.5204 18.7004 21.55L18.7502 21.55L18.7502 21.9125L18.8003 21.9125L18.8127 22.2125C18.8252 22.2166 18.8376 22.2207 18.8503 22.225L18.8503 22.475L18.9004 22.475L18.9004 22.675L18.8503 22.675L18.8503 22.7375L18.8003 22.7375L18.8003 22.7875L18.7502 22.7875L18.7502 22.8375L18.7004 22.8375L18.7004 22.8875L18.6504 22.8875L18.6504 22.9375L18.6003 22.9375L18.6003 22.9875L18.5378 22.9875L18.5378 23.0375L18.4878 23.0375L18.4878 23.0875C18.459 23.0916 18.4302 23.0957 18.4004 23.1L18.3879 23.15L18.3379 23.15L18.3379 23.2L18.2878 23.2L18.2878 23.25L18.2253 23.25L18.2253 23.3L18.1379 23.3L18.1379 23.35C18.1299 23.3512 18.1218 23.3526 18.1135 23.3539C18.105 23.3567 18.0967 23.3596 18.0879 23.3625L18.0754 23.4L18.0254 23.4L18.0254 23.45L17.9753 23.45L17.9753 23.5L17.9253 23.5L17.9253 23.55L17.8254 23.5625L17.8254 23.6125L17.7754 23.6125L17.7754 23.6625L17.7253 23.6625L17.7129 23.7125L17.6628 23.7125L17.6628 23.7625L17.6128 23.7625L17.6128 23.8125L17.5129 23.8125L17.5129 23.8625L17.4629 23.8625L17.4629 23.9125L17.4128 23.9125L17.4128 23.9625L17.3127 23.975L17.3003 24.025L17.2629 24.025L17.2502 24.075L17.2004 24.075L17.2004 24.125L17.1504 24.125L17.1504 24.175L17.1128 24.175L17.1003 24.275L17.0627 24.275L17.0503 24.3375L17.0129 24.3375L17.0129 24.425L16.9629 24.4375C16.9631 24.4607 16.9631 24.4607 16.9636 24.4844C16.9636 24.5207 16.9619 24.5526 16.9504 24.5875L16.9128 24.5875L16.9004 24.6875L16.8628 24.6875L16.8503 24.75L16.8003 24.75L16.8003 24.7875L16.6877 24.7875L16.6877 24.7375L16.5879 24.7375L16.5879 24.7C16.5508 24.6959 16.5137 24.6917 16.4753 24.6875L16.4753 24.6375L16.2754 24.6375L16.2754 24.5875L16.1252 24.5875L16.1252 24.5375L16.0254 24.5375L16.0254 24.4875C16.0178 24.4876 16.0103 24.4877 16.0024 24.488C15.9875 24.4881 15.9875 24.4881 15.9722 24.4882C15.9624 24.4884 15.9524 24.4886 15.9424 24.4887C15.9141 24.4875 15.8899 24.4829 15.8628 24.475L15.8628 24.4375L15.7629 24.425L15.7629 24.3375L15.8127 24.3375L15.8127 24.275L15.8628 24.275L15.8628 24.225L15.9128 24.225L15.9128 24.175L15.9753 24.175L15.9753 24.125L16.0254 24.125L16.0254 24.075L16.1128 24.075L16.1128 24.025L16.1753 24.025L16.1753 23.975L16.2253 23.975L16.2253 23.925L16.2754 23.925L16.2878 23.8625L16.3254 23.8625L16.3379 23.8125L16.3752 23.8125L16.3879 23.7625L16.4377 23.7625L16.4377 23.7125L16.4878 23.7125L16.4878 23.6625L16.5378 23.6625L16.5378 23.6125L16.5879 23.6125L16.5879 23.5625L16.6379 23.5625L16.6379 23.5125L16.6877 23.5125L16.6877 23.4625L16.7378 23.4625L16.7502 23.4L16.7878 23.4L16.8003 23.35L16.8503 23.35L16.8503 23.3L16.9004 23.3L16.9004 23.25L16.9504 23.25L16.9504 23.2L17.0002 23.2L17.0002 23.15L17.0503 23.15L17.0503 23.1L17.1003 23.1L17.1003 23.05L17.1504 23.05L17.1628 22.9875L17.2004 22.9875L17.2129 22.9375L17.2629 22.9375L17.2629 22.8875L17.3127 22.8875L17.3127 22.8375L17.3628 22.8375L17.3628 22.7875L17.4128 22.7875L17.4128 22.7375L17.4629 22.7375L17.4629 22.6875L17.5129 22.6875L17.5129 22.6375C17.5208 22.6362 17.5288 22.6349 17.5371 22.6336C17.5457 22.6307 17.5542 22.6279 17.5627 22.625L17.5754 22.5875C17.5876 22.5834 17.6001 22.5792 17.6128 22.575C17.6221 22.5497 17.6221 22.5497 17.6252 22.525L17.6753 22.525L17.6753 22.475L17.7253 22.475L17.7253 22.425L17.6753 22.425C17.6733 22.413 17.6733 22.413 17.6714 22.4007C17.6687 22.3922 17.6658 22.3837 17.6628 22.375C17.6504 22.3709 17.6382 22.3667 17.6252 22.3625L17.6128 22.325C17.5876 22.3159 17.5876 22.3159 17.5627 22.3125L17.5627 22.2625L17.5129 22.2625L17.5129 22.2125L17.4629 22.2125L17.4629 22.1625L17.4128 22.1625L17.4128 22.1125L17.3628 22.1125L17.3628 22.0625L17.3127 22.0625L17.3127 21.9625L17.2629 21.9625L17.2629 21.9125L17.2004 21.9L17.2004 21.85L17.1504 21.85L17.1504 21.8L17.1003 21.8L17.1003 21.7L17.0503 21.7L17.0503 21.65L17.0002 21.65L17.0002 21.55L16.9504 21.55L16.9377 21.45L16.9004 21.45L16.9004 21.3875L16.8503 21.3875L16.8503 21.2875L16.8003 21.2875L16.7878 21.1875L16.7502 21.1875C16.7336 21.1377 16.7371 21.0894 16.7378 21.0375L16.6877 21.0375L16.6877 20.925L16.6379 20.925L16.6379 20.775L16.5879 20.775L16.5879 20.675L16.5378 20.675L16.5254 20.525C16.5129 20.5209 16.5005 20.5167 16.4878 20.5125L16.4753 20.3625L16.4377 20.3625L16.4377 20.2625L16.3879 20.2625L16.3752 20.1625L16.3254 20.15L16.3254 20.1125L16.2253 20.1L16.2253 20.05L16.1753 20.05L16.1753 20L16.1128 20L16.1128 19.9625C16.084 19.9584 16.0552 19.9542 16.0254 19.95L16.0254 19.9L15.9629 19.9L15.9629 19.85L15.8752 19.85L15.8628 19.8L15.8127 19.7875L15.8127 19.75L15.7629 19.7375L15.7629 19.7C15.7339 19.6959 15.7051 19.6917 15.6753 19.6875L15.6628 19.6375L15.6003 19.625L15.6003 19.5875L15.5129 19.5875L15.5129 19.5375L15.4629 19.5375L15.4629 19.4875L15.3628 19.4875L15.3628 19.4375L15.3127 19.4375L15.3127 19.3875L15.2129 19.375L15.2004 19.3375C15.175 19.3284 15.175 19.3284 15.1504 19.325L15.1504 19.2875C15.1213 19.2834 15.0925 19.2792 15.0627 19.275L15.0503 19.2375C15.0251 19.2284 15.0251 19.2284 15.0002 19.225L15.0002 19.175L14.9004 19.175L14.9004 19.125L14.8003 19.125L14.8003 19.075L14.7378 19.075L14.7378 19.025L14.6379 19.025L14.6379 18.975L14.5378 18.9625L14.5254 18.925C14.5129 18.9209 14.5005 18.9167 14.4878 18.9125L14.4878 18.875L14.3879 18.8625L14.3752 18.825C14.3501 18.8159 14.3501 18.8159 14.3254 18.8125L14.3254 18.775L14.2253 18.7625L14.2253 18.7125L14.1252 18.7125L14.1252 18.6625L14.0754 18.6625L14.0754 18.6125L13.9753 18.6125L13.9753 18.5625L13.8752 18.5625L13.8752 18.5125L13.7754 18.5L13.7629 18.4625C13.7375 18.4534 13.7375 18.4534 13.7129 18.45L13.7129 18.4125L13.6128 18.4L13.6003 18.3625L13.5002 18.35L13.5002 18.3L13.4004 18.3L13.4004 18.25L13.3003 18.25L13.3003 18.2L13.2004 18.2L13.2004 18.15L13.1003 18.15L13.0879 18.1C13.0742 18.1002 13.0605 18.1005 13.0464 18.1007C13.0002 18.1 13.0002 18.1 12.9629 18.0875L12.9629 18.05C12.9258 18.0459 12.8887 18.0417 12.8503 18.0375L12.8503 18L12.7502 17.9875L12.7378 17.95L12.5879 17.9375L12.5879 17.9L12.5378 17.9L12.5378 17.9375L12.4377 17.9375L12.4377 17.9875C12.4299 17.9887 12.4219 17.9901 12.4136 17.9914C12.405 17.9942 12.3965 17.9971 12.3879 18L12.3752 18.0375C12.363 18.0416 12.3506 18.0457 12.3379 18.05L12.3254 18.0875C12.313 18.0916 12.3005 18.0957 12.2878 18.1C12.2788 18.1252 12.2788 18.1252 12.2754 18.15L12.1753 18.15L12.1753 18.2L12.1252 18.2L12.1252 18.25L12.0754 18.25L12.0754 18.3L12.0254 18.3L12.0254 18.35L11.9753 18.35L11.9753 18.4C11.9673 18.4012 11.9592 18.4026 11.9512 18.4039C11.9426 18.4067 11.9341 18.4096 11.9253 18.4125L11.9128 18.45C11.9004 18.4541 11.8882 18.4582 11.8752 18.4625L11.8628 18.5C11.8503 18.5041 11.8381 18.5082 11.8254 18.5125C11.8162 18.5377 11.8162 18.5377 11.8127 18.5625L11.7378 18.5625L11.7253 18.6125L11.6753 18.6125L11.6628 18.6625L11.6252 18.6625L11.6128 18.7125L11.5754 18.7125L11.5627 18.7625L11.5254 18.7625C11.5242 18.7705 11.5227 18.7785 11.5215 18.7867C11.5171 18.7995 11.5171 18.7995 11.5129 18.8125C11.5005 18.8166 11.488 18.8207 11.4753 18.825L11.4629 18.8625C11.4504 18.8666 11.438 18.8707 11.4253 18.875C11.4163 18.9002 11.4163 18.9002 11.4128 18.925L11.3628 18.925L11.3628 18.975L11.3127 18.975L11.3127 19.025L11.2629 19.025L11.2629 19.075L11.2129 19.075L11.2129 19.125C11.2048 19.1262 11.1968 19.1276 11.1885 19.1289C11.1802 19.1317 11.1716 19.1346 11.1628 19.1375L11.1504 19.175L11.1003 19.175L11.1003 19.225L11.0503 19.225L11.0503 19.275C11.0215 19.2791 10.9927 19.2832 10.9629 19.2875L10.9504 19.3375L10.9004 19.3375L10.9004 19.3875L10.8503 19.3875L10.8503 19.4375L10.8003 19.4375L10.8003 19.4875L10.7502 19.4875L10.7502 19.5375L10.7004 19.5375L10.7004 19.5875L10.6504 19.5875L10.6504 19.6375L10.6003 19.65L10.5879 19.7L10.5378 19.7L10.5378 19.75L10.4878 19.75L10.4878 19.8L10.4377 19.8L10.4377 19.85L10.3879 19.85L10.3879 19.9L10.3379 19.9L10.3379 19.95L10.2878 19.95L10.2754 20.0125L10.2378 20.0125L10.2253 20.0625L10.1877 20.0625L10.1753 20.1125L10.1379 20.1125L10.1252 20.2L10.0754 20.2L10.0754 20.2625L10.0254 20.2625L10.0254 20.3125L9.97534 20.3125L9.97534 20.3625L9.92529 20.3625L9.92529 20.4125L9.87524 20.4125L9.87524 20.4625L9.82544 20.4625L9.81274 20.5625L9.76294 20.5625L9.76294 20.6125C9.75049 20.6166 9.73804 20.6207 9.72534 20.625C9.71631 20.6502 9.71631 20.6502 9.71289 20.675L9.66284 20.675L9.66284 20.725L9.61279 20.725L9.61279 20.825L9.56274 20.825L9.56274 20.875L9.51294 20.875L9.51294 20.925L9.46289 20.925L9.45044 20.9875L9.41284 20.9875L9.40039 21.075C9.38794 21.0791 9.37549 21.0832 9.36279 21.0875C9.35376 21.1127 9.35376 21.1127 9.35034 21.1375L9.30029 21.1375L9.30029 21.1875L9.25024 21.1875L9.25024 21.25L9.21289 21.25C9.20654 21.2932 9.20654 21.2932 9.20044 21.3375L9.16284 21.3375C9.16162 21.3455 9.16016 21.3535 9.15894 21.3617C9.15601 21.3702 9.15332 21.3787 9.15039 21.3875C9.13794 21.3916 9.12549 21.3957 9.11279 21.4C9.10669 21.4432 9.10669 21.4432 9.10034 21.4875C9.08789 21.4916 9.07568 21.4957 9.06274 21.5C9.05664 21.5432 9.05664 21.5432 9.05029 21.5875L9.00024 21.6L9.00024 21.7L8.95044 21.7L8.95044 21.8L8.90039 21.8L8.90039 21.8625C8.81177 21.8637 8.72534 21.8637 8.63794 21.85L8.63794 21.8L8.53784 21.8L8.53784 21.75L8.42529 21.75L8.42529 21.7L8.27539 21.7L8.27539 21.65L8.17529 21.65L8.17529 21.6L8.06274 21.6L8.06274 21.55L7.91284 21.55L7.91284 21.5C7.89868 21.5002 7.88452 21.5005 7.86987 21.5007C7.82544 21.5 7.82544 21.5 7.81274 21.4875C7.81201 21.4644 7.81177 21.4411 7.81201 21.418C7.81226 21.4054 7.81226 21.3926 7.81226 21.3796C7.8125 21.3699 7.81274 21.3601 7.81274 21.35L7.86279 21.35L7.86279 21.3L7.96289 21.2875L7.96289 21.2375L8.01294 21.2375L8.01294 21.1875L8.07544 21.1875L8.07544 21.1375L8.12524 21.1375L8.12524 21.0875L8.22534 21.075L8.23779 21.025L8.27539 21.025L8.28784 20.975L8.32544 20.975L8.32544 20.925L8.37524 20.925L8.37524 20.875L8.42529 20.875L8.42529 20.825L8.47534 20.825L8.47534 20.775L8.52539 20.7625C8.53149 20.7192 8.53149 20.7192 8.53784 20.675L8.58789 20.675L8.60034 20.6125L8.63794 20.6125L8.65039 20.5625L8.68774 20.5625L8.70044 20.5L8.73779 20.5L8.73779 20.425L8.78784 20.4125L8.80029 20.35L8.83789 20.35L8.85034 20.3L8.88794 20.3L8.90039 20.25L8.93774 20.25L8.95044 20.2L8.98779 20.2C8.9939 20.1567 8.9939 20.1567 9.00024 20.1125L9.05029 20.1L9.06274 20.05L9.10034 20.05L9.11279 19.9875L9.15039 19.9875L9.16284 19.9375L9.20044 19.9375L9.20044 19.8875L9.25024 19.8875L9.25024 19.8L9.31274 19.7875L9.31274 19.7375L9.36279 19.7375L9.37524 19.675L9.40039 19.675L9.41284 19.625L9.45044 19.625L9.46289 19.5375L9.51294 19.525L9.51294 19.475L9.56274 19.475L9.56274 19.425L9.61279 19.425L9.62524 19.325C9.6377 19.3209 9.65015 19.3167 9.66284 19.3125L9.67529 19.275L9.71289 19.275L9.71289 19.225L9.76294 19.2125L9.77539 19.1625L9.82544 19.1625L9.82544 19.075C9.83765 19.0709 9.8501 19.0667 9.86279 19.0625C9.87207 19.0372 9.87207 19.0372 9.87524 19.0125L9.92529 19.0125L9.92529 18.9625L9.97534 18.9625L9.97534 18.9125L10.0254 18.9125L10.0254 18.8125L10.0754 18.8125L10.0879 18.75L10.1252 18.75L10.1379 18.7L10.1753 18.7L10.1877 18.6L10.2378 18.6L10.2378 18.55L10.2754 18.55L10.2878 18.5L10.3254 18.5L10.3379 18.4L10.3752 18.4L10.3879 18.35L10.4253 18.35L10.4377 18.2875L10.4753 18.2875L10.4878 18.2C10.5002 18.1959 10.5127 18.1917 10.5254 18.1875C10.5344 18.1622 10.5344 18.1622 10.5378 18.1375L10.5879 18.1375L10.6003 18.075L10.6252 18.075C10.6377 18.0317 10.6377 18.0317 10.6504 17.9875L10.6877 17.9875L10.7004 17.925L10.7378 17.925L10.7502 17.875L10.7878 17.875L10.7878 17.7875L10.8379 17.775L10.8503 17.725L10.8879 17.725L10.9004 17.675L10.9377 17.675L10.9504 17.5875L11.0002 17.575L11.0129 17.5125L11.0503 17.5125L11.0627 17.4625L11.0879 17.4625L11.1003 17.375L11.1504 17.3625L11.1504 17.3125L11.2004 17.3125L11.2129 17.25L11.2502 17.25L11.2502 17.125L11.3003 17.1125L11.3003 16.9625L11.2502 16.9625L11.2502 16.9125L11.2004 16.9125L11.2004 16.8125L11.1504 16.8125L11.1504 16.75L11.1003 16.75L11.1003 16.7L11.0503 16.7L11.0503 16.65L10.9878 16.65L10.9878 16.6L10.9004 16.6L10.8879 16.5625L10.7378 16.55L10.7378 16.5L10.5002 16.5L10.4878 16.45L10.2878 16.45L10.2878 16.4C10.2771 16.4001 10.2666 16.4002 10.2559 16.4005C10.1775 16.401 10.1021 16.3996 10.0259 16.3875L10.0259 16.35L9.76343 16.3375L9.76343 16.3L9.61328 16.2875L9.61328 16.2375C9.5144 16.2416 9.41577 16.2457 9.31323 16.25L9.31323 16.2875L9.26343 16.3L9.25073 16.35L9.21338 16.35L9.20093 16.4L9.16333 16.4L9.15088 16.45L9.11328 16.45L9.10083 16.5L9.06323 16.5L9.05078 16.55L9.00073 16.55L8.98828 16.6L8.95093 16.6L8.93823 16.65L8.90088 16.65L8.88843 16.7L8.85083 16.7L8.85083 16.75L8.80078 16.75L8.80078 16.8L8.75073 16.8C8.74463 16.8309 8.74463 16.8309 8.73828 16.8625L8.70093 16.8625L8.68823 16.9125L8.63843 16.9125L8.63843 16.9625L8.58838 16.9625L8.58838 17.0125C8.55957 17.0166 8.53052 17.0207 8.50073 17.025L8.48828 17.0625L8.43823 17.0625L8.43823 17.125L8.38843 17.125L8.38843 17.2125L8.43823 17.225L8.43823 17.2625L8.48828 17.275L8.48828 17.3125L8.53833 17.325L8.53833 17.3625L8.58838 17.375L8.58838 17.4125C8.59644 17.4137 8.60425 17.4151 8.61255 17.4164C8.62109 17.4192 8.62964 17.4221 8.63843 17.425C8.64453 17.4436 8.64453 17.4436 8.65088 17.4625C8.67578 17.4776 8.67578 17.4776 8.70093 17.4875L8.70093 17.525L8.75073 17.5375L8.75073 17.6875L8.70093 17.6875L8.70093 17.7375L8.65088 17.7375L8.65088 17.7875L8.58838 17.7875L8.58838 17.8375L8.48828 17.8375L8.48828 17.8875L8.43823 17.8875L8.43823 17.9375L8.33838 17.9375L8.33838 17.9875L8.23828 18L8.23828 18.0375C8.20117 18.0416 8.16406 18.0457 8.12573 18.05L8.12573 18.0875C8.08301 18.1017 8.0498 18.1012 8.00464 18.1007C7.98999 18.1006 7.9751 18.1005 7.95996 18.1005C7.94873 18.1002 7.9375 18.1001 7.92578 18.1L7.91333 18.0375L7.86328 18.025L7.86328 17.8875L7.81323 17.875L7.80078 17.6375C7.78857 17.6334 7.77612 17.6292 7.76343 17.625L7.75073 17.425C7.73853 17.4209 7.72607 17.4167 7.71338 17.4125C7.70728 17.27 7.70728 17.27 7.70093 17.125L7.67578 17.125C7.66968 17.0692 7.66968 17.0692 7.66333 17.0125L7.71338 17L7.71338 16.9125L7.76343 16.9L7.76343 16.8125L7.81323 16.8C7.81934 16.7691 7.81934 16.7691 7.82593 16.7375L7.85083 16.7375L7.87573 16.65L7.91333 16.65C7.91943 16.6191 7.91943 16.6191 7.92578 16.5875L7.96338 16.5875L7.97583 16.5375L8.01343 16.5375L8.02588 16.4875L8.06323 16.4875L8.07593 16.4L8.12573 16.3875L8.13843 16.3375L8.17578 16.3375L8.18823 16.2875L8.22583 16.2875C8.23193 16.2566 8.23193 16.2566 8.23828 16.225L8.26343 16.225L8.27588 16.1375L8.32593 16.125L8.32593 16.075L8.37573 16.075L8.37573 16.025L8.42578 16.025L8.43823 15.9375L8.48828 15.925L8.48828 15.875L8.53833 15.875L8.53833 15.825C8.55078 15.8209 8.56299 15.8167 8.57593 15.8125C8.58496 15.7872 8.58496 15.7872 8.58838 15.7625L8.63843 15.7625L8.63843 15.7125L8.67578 15.7125L8.68823 15.6125L8.73828 15.6125L8.73828 15.5625L8.78833 15.5625L8.78833 15.5125L8.83838 15.5125L8.83838 15.4625L8.88843 15.4625C8.89453 15.4316 8.89453 15.4316 8.90088 15.4L8.93823 15.4L8.95093 15.35L8.98828 15.35L9.00073 15.3L9.05078 15.3L9.05078 15.25L9.10083 15.25L9.10083 15.2L9.46338 15.2L9.46338 15.25C9.47168 15.25 9.47974 15.25 9.48828 15.2499C9.57324 15.2496 9.6582 15.2495 9.74316 15.2494C9.77515 15.2492 9.80688 15.2491 9.83862 15.249C9.88428 15.2489 9.92993 15.2489 9.97607 15.2487C9.99023 15.2487 10.0044 15.2486 10.0193 15.2486L10.0593 15.2486C10.071 15.2485 10.0828 15.2485 10.0947 15.2485C10.1235 15.2499 10.1482 15.2544 10.1758 15.2625L10.1758 15.3C10.1831 15.2999 10.1907 15.2999 10.1982 15.2997C10.2324 15.2995 10.2666 15.2994 10.3008 15.2992C10.3125 15.2991 10.3242 15.299 10.3362 15.2989C10.4048 15.2986 10.47 15.3024 10.5388 15.3125L10.5388 15.35L10.6887 15.35L10.7012 15.3L10.7388 15.3L10.7263 14.5875C10.7139 14.5834 10.7014 14.5792 10.6887 14.575C10.6885 14.5129 10.6882 14.4509 10.688 14.3887L10.6877 14.3254C10.6875 14.295 10.6875 14.2647 10.6875 14.2344C10.6873 14.2201 10.6873 14.2201 10.6873 14.2056C10.6873 14.1829 10.688 14.1602 10.6887 14.1375C10.7012 14.125 10.7012 14.125 10.7498 14.1236C10.7712 14.1236 10.793 14.1236 10.8147 14.1237C10.8259 14.1237 10.8372 14.1239 10.8489 14.1239C10.8853 14.1239 10.9219 14.124 10.9583 14.1242C10.9829 14.1242 11.0076 14.1244 11.032 14.1244C11.0928 14.1245 11.1533 14.1247 11.2134 14.125L11.2134 14.1625L12.1882 14.1625L12.1882 14.125C12.3037 14.1209 12.4197 14.1167 12.5383 14.1125L12.5383 14.075L12.7383 14.0625L12.7383 14.025C12.7864 14.0137 12.8306 14.0111 12.8796 14.0117C12.8931 14.0119 12.9062 14.012 12.9202 14.012C12.9353 14.0122 12.9353 14.0122 12.9507 14.0125L12.9507 13.975C12.9939 13.9616 13.0337 13.9612 13.0781 13.9617C13.0918 13.9619 13.1052 13.962 13.1191 13.962C13.1294 13.9622 13.1396 13.9624 13.1501 13.9625L13.1626 13.9125L13.3 13.9125L13.3125 13.8625L13.4126 13.8625L13.425 13.8125L13.5 13.8125L13.5 13.7625C13.512 13.7606 13.512 13.7606 13.5244 13.7586C13.5327 13.7557 13.5413 13.7529 13.55 13.75L13.5625 13.7125C13.575 13.7084 13.5874 13.7042 13.6001 13.7C13.6091 13.6747 13.6091 13.6747 13.6125 13.65L13.6626 13.65L13.6626 13.55L13.7126 13.55L13.7126 13.3625L13.5752 13.3625L13.5625 13.4L13.4626 13.4125L13.4626 13.45C13.4128 13.4666 13.3645 13.4634 13.3125 13.4625L13.3125 13.5125L13.1501 13.5125L13.1501 13.5625L12.9502 13.575L12.9502 13.6125L12.7002 13.625L12.7002 13.6625L12.3877 13.675L12.3877 13.7125C11.9988 13.7274 11.9988 13.7274 11.8125 13.725L11.8125 13.7625L11.7751 13.7625L11.7751 13.725L11.675 13.725L11.6626 13.7625L11.4502 13.7625L11.4502 13.725C11.4368 13.7251 11.4233 13.7252 11.4094 13.7255C11.2058 13.7269 11.0032 13.7196 10.7996 13.7125L10.7869 13.6625L10.7371 13.65L10.7371 13.6125L10.687 13.6L10.687 13.5125L10.637 13.5L10.6245 13.3625C10.6121 13.3584 10.5996 13.3542 10.5869 13.35C10.5728 13.2957 10.5754 13.2451 10.5798 13.19C10.5806 13.1812 10.5813 13.1726 10.582 13.1637C10.5835 13.1425 10.5852 13.1214 10.5869 13.1001L10.637 13.0876L10.637 13.0376L10.687 13.0376L10.6995 12.9876L10.7371 12.9876L10.7371 12.9376L10.8369 12.9376L10.8369 12.8876L10.887 12.8876L10.887 12.8376L10.9871 12.8251L10.9871 12.7876C10.999 12.7857 10.999 12.7857 11.0112 12.7837C11.0198 12.7809 11.0283 12.778 11.0369 12.7751L11.0496 12.7376L11.1494 12.7251L11.1494 12.6751L11.1995 12.6751L11.1995 12.6251L11.2495 12.6251L11.2495 12.5751L11.2996 12.5751L11.2996 12.5251L11.3494 12.5251L11.3621 12.4626L11.3994 12.4626L11.4119 12.4126L11.4495 12.4126L11.4619 12.3126L11.512 12.3126L11.512 12.2626L11.562 12.2626L11.562 12.1626L11.6121 12.1626L11.6121 12.0626L11.6619 12.0626L11.6619 11.9001L11.7119 11.9001L11.7119 11.7001L11.762 11.6876L11.762 11.6626L11.7244 11.6626L11.7119 11.5626L11.5745 11.5626L11.562 11.7501C11.5496 11.7542 11.5371 11.7584 11.5244 11.7626L11.512 11.9001L11.4619 11.9126L11.4619 12.0126C11.4495 12.0167 11.4373 12.0209 11.4246 12.0251L11.4119 12.1126L11.3621 12.1251L11.3621 12.2126L11.312 12.2251L11.2996 12.2751L11.262 12.2751L11.2495 12.3251L11.2119 12.3251L11.1995 12.3751L11.1619 12.3751L11.1494 12.4251L11.1121 12.4251L11.0994 12.4751L11.0496 12.4751L11.0369 12.5251L10.9995 12.5251L10.9871 12.5751C10.958 12.5792 10.9292 12.5834 10.8994 12.5876L10.8994 12.6376L10.8494 12.6376L10.8369 12.6876L10.7495 12.6876L10.7495 12.7376L10.6494 12.7376L10.6494 12.7876L10.5496 12.8001L10.5369 12.8376L10.437 12.8376L10.437 12.8876L10.3369 12.9001L10.3369 12.9376C10.2998 12.9417 10.2627 12.9459 10.2244 12.9501L10.2244 12.9876C10.1885 12.9996 10.1658 13.0015 10.1284 13.0009C10.1182 13.0007 10.1082 13.0006 10.0977 13.0006C10.0862 13.0004 10.0862 13.0004 10.0745 13.0001L10.0745 13.0501L9.97437 13.0501L9.97437 13.1001L9.91187 13.1001L9.91187 13.1501L9.86206 13.1501L9.86206 13.2001C9.83301 13.2042 9.8042 13.2084 9.77441 13.2126L9.76196 13.2626L9.72437 13.2626L9.71191 13.3626L9.66187 13.3626L9.66187 13.4501L9.61206 13.4501L9.61206 13.5126L9.56201 13.5126L9.56201 13.5626L9.51196 13.5626L9.51196 13.6126L9.46191 13.6126L9.46191 13.6626L9.36206 13.6751L9.36206 13.7126L9.09937 13.7126L9.09937 13.6751L8.94946 13.6626C8.93921 13.6217 8.93555 13.5942 8.93628 13.5532C8.93628 13.5432 8.93652 13.5332 8.93652 13.523C8.93677 13.5154 8.93677 13.5079 8.93701 13.5001L8.98706 13.5001L8.98706 13.4501L9.04956 13.4501L9.04956 13.4001L9.14941 13.3876L9.14941 13.3501L9.19946 13.3501L9.19946 13.3001L9.24951 13.3001C9.25562 13.2692 9.25562 13.2692 9.26196 13.2376L9.29956 13.2376L9.31201 13.1376L9.36206 13.1376L9.36206 13.0376L9.41187 13.0376L9.41187 12.9376L9.46191 12.9376L9.46191 12.8376L9.51196 12.8376L9.51196 12.7751L9.56201 12.7751L9.56201 12.6751L9.61206 12.6751L9.61206 12.6251L9.66187 12.6251L9.67456 12.5251C9.68677 12.521 9.69922 12.5169 9.71191 12.5126L9.72437 12.4751L9.76196 12.4751L9.77441 12.4126L9.81201 12.4126L9.82446 12.3626L9.86206 12.3626L9.87451 12.3126L9.91187 12.3126L9.92456 12.2126L10.0244 12.2126L10.0244 12.1626L10.0745 12.1626L10.0745 12.1126L10.1245 12.1126L10.1245 12.0626L10.1746 12.0626L10.1746 12.0126C10.1865 12.0107 10.1865 12.0107 10.1987 12.0087C10.2073 12.0059 10.2158 12.003 10.2244 12.0001L10.2371 11.9626C10.2493 11.9585 10.2617 11.9544 10.2744 11.9501L10.2869 11.9126L10.3245 11.9126L10.3369 11.8501L10.3745 11.8501L10.387 11.8001L10.4246 11.8001L10.4246 11.7126L10.4744 11.7001L10.4871 11.6126C10.4993 11.6085 10.5117 11.6044 10.5244 11.6001C10.5264 11.5919 10.5286 11.5836 10.5308 11.5751C10.5327 11.5669 10.5349 11.5586 10.5369 11.5501C10.5493 11.546 10.5618 11.5419 10.5745 11.5376L10.5869 11.3501C10.5994 11.346 10.6118 11.3419 10.6245 11.3376L10.6245 10.7376C10.6121 10.7335 10.5996 10.7294 10.5869 10.7251C10.5867 10.711 10.5864 10.6969 10.5859 10.6822C10.5854 10.6637 10.5845 10.6452 10.5837 10.6266C10.5837 10.6174 10.5835 10.608 10.5833 10.5984C10.5825 10.568 10.5825 10.568 10.5745 10.5251C10.5505 10.5051 10.5505 10.5051 10.5244 10.5001L10.5244 10.4251L10.4744 10.4126L10.4744 10.3626L10.4246 10.3501L10.4246 10.3126L10.3745 10.3001L10.3745 10.2626L10.2869 10.2626L10.2869 10.2126L10.2371 10.2126L10.2244 10.1751C10.1956 10.171 10.1667 10.1669 10.137 10.1626L10.137 10.1126L10.0244 10.1126L10.0244 10.0626L9.92456 10.0501L9.92456 10.0126L9.82446 10.0001L9.81201 9.96262C9.78296 9.9585 9.75415 9.95436 9.72437 9.95012L9.71191 9.91261C9.68677 9.90349 9.68677 9.90349 9.66187 9.90012L9.66187 9.85011L9.56201 9.85011L9.56201 9.80011L9.51196 9.80011L9.51196 9.75011L9.44946 9.73761L9.44946 9.70012L9.41187 9.70012L9.41187 9.65012L9.36206 9.63762L9.36206 9.53761L9.31201 9.52512L9.29956 9.37511L9.26196 9.37511C9.24536 9.32536 9.24854 9.27699 9.24951 9.22511L9.19946 9.22511L9.19946 9.02512L9.24951 9.01262L9.24951 8.96262L9.29956 8.96262L9.31201 8.91261L9.56201 8.91261L9.56201 8.87511C9.61499 8.86024 9.6665 8.86087 9.7207 8.86099L9.75415 8.86099C9.79053 8.86087 9.8269 8.86087 9.86353 8.86099C9.88867 8.86099 9.91406 8.86099 9.93921 8.86087C9.99243 8.86087 10.0454 8.86087 10.0981 8.86099C10.166 8.86111 10.2344 8.86099 10.3018 8.86099C10.3542 8.86087 10.4065 8.86087 10.4592 8.86099C10.4844 8.86099 10.5095 8.86099 10.5347 8.86087C10.5696 8.86087 10.6045 8.86099 10.6396 8.86099C10.6553 8.86099 10.6553 8.86099 10.6711 8.86087C10.7158 8.86111 10.7559 8.86299 10.7986 8.87511L10.7986 8.91261L10.9485 8.91261L10.9612 8.96262C10.9807 8.96223 10.9807 8.96223 11.001 8.96187C11.0403 8.96249 11.0732 8.96599 11.1111 8.97511L11.1111 9.01262L11.261 9.02512L11.261 9.07512L11.3735 9.07512L11.3735 9.11261C11.4023 9.11674 11.4314 9.12086 11.4612 9.12511L11.4736 9.16261L11.5735 9.17511L11.5735 9.22511L11.6736 9.22511L11.6736 9.27512L11.761 9.27512L11.7737 9.32512C11.8025 9.32924 11.8313 9.33336 11.8611 9.33762L11.8611 9.37511L11.9612 9.38762L11.9736 9.42511C11.9988 9.43423 11.9988 9.43423 12.0237 9.43761L12.0237 9.48761L12.0735 9.48761L12.0735 9.52512L12.1736 9.53761L12.1736 9.58762L12.2236 9.58762L12.2236 9.63762L12.2737 9.63762L12.2737 9.68761L12.3735 9.68761L12.3735 9.73761L12.436 9.75011L12.436 9.80011L12.4861 9.80011L12.4861 9.85011L12.5361 9.85011L12.5361 9.90012L12.5862 9.90012L12.5862 9.95012L12.636 9.95012L12.636 10.0001L12.686 10.0001L12.686 10.0501L12.7361 10.0501L12.7361 10.1001L12.7986 10.1001L12.7986 10.1501L12.8486 10.1501L12.8486 10.2001L12.8987 10.2126L12.8987 10.2626L12.9485 10.2626L12.9485 10.3126L12.9985 10.3126L13.011 10.4001C13.0234 10.4042 13.0359 10.4084 13.0486 10.4126L13.0486 10.4626L13.0986 10.4626L13.0986 10.5126L13.1487 10.5126L13.1611 10.6126L13.2112 10.6251L13.2112 10.6626L13.261 10.6751L13.261 10.7626L13.311 10.7626L13.311 10.8251L13.3611 10.8251L13.3611 10.8751L13.4111 10.8751L13.4111 10.9751L13.4612 10.9751L13.4736 11.0751L13.511 11.0751C13.5125 11.0831 13.5137 11.0911 13.5149 11.0994C13.5193 11.1121 13.5193 11.1121 13.5237 11.1251C13.5359 11.1292 13.5483 11.1334 13.561 11.1376L13.5735 11.2251C13.5859 11.2292 13.5984 11.2334 13.6111 11.2376L13.6235 11.3376L13.6736 11.3376L13.6736 11.4376L13.7236 11.4376L13.7236 11.5001L13.7737 11.5001L13.7737 11.6001L13.8235 11.6001L13.8235 11.7501L13.8735 11.7501L13.886 11.8501C13.8984 11.8542 13.9109 11.8584 13.9236 11.8626L13.936 12.0001L13.9736 12.0001L13.9861 12.1126L14.0237 12.1126L14.0361 12.2126C14.0483 12.2167 14.0608 12.2209 14.0735 12.2251C14.092 12.2687 14.0869 12.316 14.0862 12.3626L14.136 12.3751L14.136 12.4251C14.165 12.421 14.1938 12.4169 14.2236 12.4126C14.2231 12.389 14.2231 12.389 14.2229 12.365C14.2222 12.3296 14.2246 12.3095 14.2361 12.2751L14.2737 12.2751L14.2861 12.1626L14.3235 12.1626L14.3362 12.0501L14.3735 12.0501L14.386 11.9501L14.4236 11.9501L14.436 11.8001L14.4861 11.8001L14.4861 11.7001L14.5361 11.7001L14.5361 11.6001L14.5862 11.6001L14.5862 11.5376L14.636 11.5376L14.636 11.4376L14.686 11.4376L14.686 11.3876L14.7361 11.3876L14.7361 11.3376L14.7986 11.3376L14.7986 11.2876L14.8486 11.2876L14.8486 11.3251L14.9985 11.3376L14.9985 11.3876L15.0986 11.3876L15.0986 11.4376L15.1985 11.4501L15.1985 11.4876L15.261 11.5001L15.261 11.5376L15.4111 11.5501L15.4111 11.6001L15.511 11.6001L15.511 11.6376L15.7112 11.6501L15.7112 11.5501L15.6611 11.5376L15.6611 11.5001L15.6235 11.5001L15.6235 11.4501L15.5735 11.4501L15.5735 11.4001L15.5237 11.4001C15.5217 11.3881 15.5217 11.3881 15.5198 11.3759C15.5168 11.3674 15.5139 11.3589 15.511 11.3501C15.4988 11.346 15.4863 11.3419 15.4736 11.3376L15.4612 11.3001C15.4358 11.291 15.4358 11.291 15.4111 11.2876L15.4111 11.2376L15.3611 11.2376L15.3486 11.1501L15.311 11.1501C15.3093 11.1381 15.3093 11.1381 15.3071 11.1259C15.3044 11.1174 15.3015 11.1089 15.2986 11.1001C15.2861 11.096 15.2739 11.0919 15.261 11.0876L15.261 11.0376L15.2112 11.0376L15.2112 10.9376L15.1611 10.9376C15.1592 10.9256 15.1592 10.9256 15.1572 10.9134C15.1543 10.9049 15.1514 10.8964 15.1487 10.8876C15.1362 10.8835 15.1238 10.8794 15.1111 10.8751L15.0986 10.7751L15.0486 10.7751L15.0486 10.6376L14.9985 10.6376L14.9985 10.3251L14.9485 10.3251L14.9485 9.90012L14.8987 9.90012L14.886 9.07512C14.8613 9.07924 14.8367 9.08336 14.811 9.08762L14.7861 9.12511C14.7737 9.12924 14.7612 9.13336 14.7485 9.13762L14.7361 9.16261C14.6541 9.18387 14.571 9.19086 14.4861 9.18761L14.4861 9.21262L14.436 9.21262L14.436 9.17511L14.3735 9.16261C14.3716 9.05936 14.3716 9.05936 14.386 9.02512C14.3984 9.021 14.4109 9.01686 14.4236 9.01262C14.4326 8.98737 14.4326 8.98737 14.436 8.96262L14.4861 8.96262L14.4861 8.91261L14.5361 8.91261L14.5361 8.86261L14.636 8.86261L14.636 8.81261L14.686 8.81261L14.686 8.76262L14.7485 8.76262L14.7485 8.71262L14.7986 8.71262L14.7986 8.66261L14.8486 8.66261L14.8486 8.60011L14.8987 8.60011L14.8987 8.51262C14.9109 8.50848 14.9233 8.50436 14.936 8.50011C14.9453 8.47487 14.9453 8.47487 14.9485 8.45012L14.9985 8.45012L14.9985 8.40012L15.0486 8.40012L15.0486 8.35011L15.0986 8.35011L15.0986 8.30011C15.2209 8.29074 15.3386 8.28474 15.4612 8.30011L15.4612 8.25011L15.5735 8.25011L15.5486 8.10011C15.5361 8.09599 15.5239 8.09186 15.511 8.08762L15.4985 8.00011C15.4861 7.99599 15.4739 7.99187 15.4612 7.98761L15.4485 7.90012C15.4363 7.89598 15.4238 7.89186 15.4111 7.88762C15.407 7.87099 15.4026 7.85423 15.3987 7.83762C15.3862 7.83348 15.3738 7.82936 15.3611 7.82512C15.3523 7.79611 15.344 7.76686 15.3362 7.73761L15.311 7.72511C15.3059 7.69611 15.3018 7.66687 15.2986 7.63762C15.2861 7.63348 15.2739 7.62936 15.261 7.62511C15.2585 7.60112 15.2563 7.57724 15.2542 7.55324C15.2527 7.53986 15.2515 7.52661 15.25 7.51286C15.2488 7.47961 15.2507 7.45636 15.261 7.42511L15.3611 7.42511L15.3611 7.37511L15.4111 7.37511L15.4111 7.42511L15.4612 7.42511L15.4612 7.47511L15.511 7.47511L15.511 7.52512L15.561 7.52512L15.5735 7.62511L15.6111 7.62511C15.613 7.63712 15.613 7.63712 15.615 7.64937C15.6179 7.65787 15.6206 7.66637 15.6235 7.67511C15.636 7.67924 15.6484 7.68336 15.6611 7.68761L15.6736 7.77512C15.686 7.77924 15.6982 7.78336 15.7112 7.78761L15.7236 7.88762L15.761 7.88762L15.7737 7.98761L15.9612 7.98761L15.9612 7.93761L16.0237 7.93761L16.0237 7.88762L16.1235 7.88762L16.1235 7.83762L16.2236 7.83762L16.2236 7.78761L16.3235 7.78761L16.3235 7.73761L16.4236 7.72511L16.436 7.67511L16.5237 7.67511L16.5361 7.62511L16.5862 7.62511L16.5862 7.58762L16.686 7.57512L16.686 7.52512L16.7861 7.52512L16.7861 7.47511L16.886 7.46262L16.8987 7.42511C16.9275 7.42099 16.9563 7.41687 16.9861 7.41261L16.9985 7.37511L17.0986 7.36261L17.0986 7.32512L17.1985 7.31261L17.2112 7.26262L17.261 7.26262L17.261 7.22511L17.3611 7.21262L17.3611 7.16261L17.4612 7.16261L17.4612 7.11261L17.561 7.11261L17.561 7.06261L17.6611 7.06261L17.6611 7.01262L17.761 7.00011L17.7737 6.96262C17.8025 6.95848 17.8313 6.95436 17.8611 6.95012L17.8735 6.91261L17.9736 6.90012L17.9736 6.86261L18.0735 6.85011L18.0862 6.80011L18.1736 6.80011L18.186 6.75011L18.2737 6.75011L18.2737 6.70012L18.3235 6.70012L18.3235 6.65012L18.436 6.65012L18.436 6.60011L18.5361 6.60011L18.5361 6.55011L18.636 6.55011L18.636 6.50011L18.7361 6.48761L18.7361 6.45012L18.8362 6.43761L18.8362 6.40012C18.8918 6.39386 18.8918 6.39386 18.9485 6.38762L18.9485 6.33762L19.0486 6.33762L19.0486 6.28761L19.1487 6.28761L19.1487 6.23761L19.2485 6.23761L19.2485 6.18761L19.3486 6.18761L19.3486 6.13762L19.4485 6.12511L19.4485 6.08762L19.511 6.08762L19.511 6.03761L19.6111 6.03761L19.6111 5.98761C19.6667 5.98137 19.6667 5.98137 19.7236 5.97511L19.7236 5.93761L19.8235 5.92511L19.8235 5.88762L19.9236 5.87511L19.9236 5.82512L20.0237 5.82512L20.0237 5.77512L20.1736 5.76262L20.1736 5.72511L20.2737 5.71262L20.2737 5.67511L20.3362 5.67511L20.3362 5.62511L20.436 5.62511L20.436 5.57512C20.4917 5.56898 20.4917 5.56898 20.5486 5.56261L20.5486 5.52512L20.6487 5.51262L20.6487 5.47511L20.7485 5.46262L20.7485 5.41261L20.8611 5.41261L20.8611 5.36261C20.9229 5.35649 20.9229 5.35649 20.9861 5.35011L20.9861 5.31261L21.0862 5.30011L21.0862 5.26262L21.186 5.25011L21.1985 5.21262C21.2729 5.20636 21.2729 5.20636 21.3486 5.20012L21.3486 5.16261C21.4043 5.15636 21.4043 5.15636 21.4612 5.15012L21.4612 5.11261L21.561 5.10011L21.561 5.06261C21.5837 5.06049 21.6064 5.05836 21.6292 5.05637C21.6479 5.05461 21.6479 5.05461 21.6672 5.05286C21.7192 5.04961 21.7715 5.05011 21.8235 5.05011L21.8252 5.04999ZM14.9375 11.7625L14.9375 11.8C14.9087 11.8041 14.8799 11.8082 14.8501 11.8125C14.8335 11.8622 14.8367 11.9106 14.8376 11.9625L14.7876 11.975L14.7876 12.0625L14.7375 12.075L14.7375 12.175L14.6875 12.175L14.6875 12.275L14.6377 12.275L14.6377 12.3375L14.5876 12.3375L14.5876 12.475L14.5376 12.475L14.5251 12.575C14.5063 12.5812 14.5063 12.5812 14.4875 12.5875L14.4751 12.6875L14.4375 12.6875L14.425 12.775C14.4065 12.7812 14.4065 12.7812 14.3877 12.7875C14.3862 12.8032 14.385 12.819 14.3838 12.8351C14.3784 12.879 14.3711 12.8956 14.3376 12.925C14.3286 12.9576 14.3286 12.9576 14.3252 12.9875C14.3064 12.9937 14.3064 12.9937 14.2876 13L14.2751 13.0875C14.2563 13.0937 14.2563 13.0937 14.2375 13.1L14.2251 13.2C14.2065 13.2062 14.2065 13.2062 14.1875 13.2125L14.175 13.3375C14.1565 13.3437 14.1565 13.3437 14.1377 13.35C14.1313 13.3995 14.1313 13.3995 14.125 13.45C14.1128 13.4541 14.1003 13.4582 14.0876 13.4625L14.0752 13.55C14.0627 13.5541 14.0503 13.5582 14.0376 13.5625C14.0288 13.5915 14.0205 13.6207 14.0127 13.65L13.9875 13.6625C13.9836 13.6769 13.9797 13.6914 13.9758 13.7062C13.9692 13.7279 13.9692 13.7279 13.9626 13.75C13.9502 13.7541 13.9377 13.7582 13.925 13.7625C13.9189 13.812 13.9189 13.812 13.9126 13.8625C13.9001 13.8666 13.8879 13.8707 13.875 13.875L13.8625 13.9625C13.8501 13.9666 13.8379 13.9707 13.8252 13.975L13.8125 14.0625C13.8003 14.0666 13.7878 14.0707 13.7751 14.075L13.7751 14.175L13.7251 14.175L13.7126 14.275C13.7002 14.2791 13.6877 14.2832 13.675 14.2875L13.6626 14.375C13.6501 14.3791 13.6379 14.3832 13.625 14.3875C13.6047 14.4335 13.6118 14.4884 13.6125 14.5375L13.5625 14.55L13.5625 14.65L13.5251 14.65C13.5132 14.686 13.5112 14.7087 13.5117 14.7461C13.512 14.7612 13.512 14.7612 13.512 14.7767C13.5125 14.7844 13.5125 14.7921 13.5127 14.8L13.4626 14.8L13.4626 14.9L13.4126 14.9125L13.4126 15.1625L13.3625 15.1625L13.3625 15.5125L13.4126 15.5125C13.4124 15.5262 13.4124 15.5262 13.4124 15.5404C13.4121 15.5821 13.4119 15.6239 13.4119 15.6654C13.4116 15.6799 13.4116 15.6944 13.4114 15.7092C13.4114 15.7232 13.4114 15.7371 13.4114 15.7515C13.4111 15.7707 13.4111 15.7707 13.4111 15.7904C13.4124 15.8207 13.4163 15.8459 13.425 15.8747L13.4626 15.8747L13.4626 16.0747L13.5127 16.0747C13.5125 16.085 13.5125 16.0952 13.512 16.1057C13.512 16.1192 13.512 16.1327 13.5117 16.1466C13.5117 16.16 13.5115 16.1732 13.5112 16.187C13.5125 16.2189 13.5156 16.2445 13.5251 16.2747L13.5625 16.2747L13.5625 16.3872C13.575 16.3914 13.5874 16.3955 13.6001 16.3997C13.6016 16.4095 13.603 16.4192 13.6047 16.4294C13.6067 16.442 13.6089 16.4546 13.6111 16.4677C13.613 16.4804 13.615 16.493 13.6172 16.506C13.6199 16.5162 13.6223 16.5266 13.625 16.5372L13.6501 16.5497C13.658 16.5837 13.658 16.5837 13.6641 16.6255C13.6672 16.6462 13.6672 16.6462 13.6704 16.6674C13.6719 16.678 13.6736 16.6887 13.675 16.6997C13.6875 16.7039 13.7 16.708 13.7126 16.7122L13.7251 16.7997C13.7375 16.8039 13.7498 16.808 13.7627 16.8122C13.7688 16.8556 13.7688 16.8556 13.7751 16.8997C13.7874 16.9039 13.7998 16.908 13.8125 16.9122C13.8188 16.9802 13.8188 16.9802 13.8252 17.0497C13.8374 17.0539 13.8499 17.058 13.8625 17.0622L13.875 17.1622C13.8875 17.1664 13.8999 17.1705 13.9126 17.1747C13.9189 17.2181 13.9189 17.2181 13.925 17.2622C13.9375 17.2664 13.95 17.2705 13.9626 17.2747C13.9714 17.3037 13.9797 17.333 13.9875 17.3622L14.0127 17.3747C14.0164 17.3889 14.0203 17.4031 14.0244 17.4177C14.0334 17.4651 14.0334 17.4651 14.0752 17.4872C14.0813 17.5059 14.0813 17.5059 14.0876 17.5247L14.1125 17.5372C14.1165 17.5516 14.1204 17.5661 14.1243 17.581C14.1287 17.5954 14.1331 17.6099 14.1377 17.6247C14.1499 17.6289 14.1624 17.633 14.175 17.6372C14.1814 17.6806 14.1814 17.6806 14.1875 17.7247C14.2 17.7289 14.2124 17.733 14.2251 17.7372C14.2292 17.7539 14.2334 17.7706 14.2375 17.7872C14.25 17.7914 14.2625 17.7955 14.2751 17.7997L14.2876 17.8747C14.3 17.8789 14.3123 17.883 14.3252 17.8872C14.3337 17.9162 14.3423 17.9455 14.3501 17.9747L14.375 17.9872C14.3767 17.9955 14.3787 18.0037 14.3806 18.0122C14.3828 18.0205 14.3853 18.0287 14.3877 18.0372C14.3999 18.0414 14.4124 18.0455 14.425 18.0497C14.4314 18.0931 14.4314 18.0931 14.4375 18.1372L14.4875 18.1372L14.4875 18.1872L14.5876 18.1872L14.5876 18.2372L14.75 18.2372L14.75 18.1872L15 18.1872L15 18.1372L15.4126 18.1372L15.4126 18.0872C15.4204 18.0875 15.428 18.0876 15.436 18.0879C15.4712 18.0886 15.5063 18.0891 15.5415 18.0896C15.5537 18.0899 15.5659 18.0902 15.5784 18.0905C15.5901 18.0906 15.6021 18.0907 15.614 18.0909C15.6248 18.0911 15.6355 18.0912 15.6467 18.0915C15.6814 18.0862 15.689 18.0746 15.7126 18.0497C15.7476 18.045 15.78 18.0422 15.8149 18.0411C15.8242 18.0407 15.8337 18.0402 15.8433 18.0399C15.8665 18.0389 15.8894 18.038 15.9126 18.0372L15.925 17.9997C15.9363 17.999 15.9478 17.9982 15.9592 17.9975C15.9814 17.9959 15.9814 17.9959 16.0039 17.9942C16.0186 17.9932 16.0334 17.9922 16.0483 17.9912C16.0879 17.9886 16.0879 17.9886 16.125 17.9747L16.1377 17.9497C16.1777 17.943 16.2175 17.9386 16.2581 17.9346C16.2805 17.9321 16.3027 17.9285 16.3252 17.9247L16.3376 17.8997C16.3716 17.8919 16.3716 17.8919 16.4133 17.8857C16.4272 17.8836 16.4409 17.8815 16.4553 17.8794C16.4658 17.8779 16.4766 17.8762 16.4875 17.8747L16.5 17.8372L16.6377 17.8247L16.6377 17.7747L16.7375 17.7747L16.7375 17.7247C16.749 17.725 16.749 17.725 16.7607 17.7252C16.771 17.7252 16.781 17.7254 16.7915 17.7255C16.8015 17.7256 16.8115 17.7259 16.8218 17.726C16.8523 17.726 16.8523 17.726 16.8877 17.7122L16.8877 17.6747L16.9875 17.6622L16.9875 17.6247L17.05 17.6247L17.05 17.5747L17.1501 17.5747L17.1626 17.5247C17.1914 17.5206 17.2202 17.5165 17.25 17.5122L17.2627 17.4747C17.2883 17.4661 17.2883 17.4661 17.3125 17.4622L17.3125 17.4247L17.4126 17.4122L17.4126 17.3622L17.4626 17.3622L17.4626 17.3122L17.5127 17.3122L17.5127 17.2622L17.5752 17.2622L17.5752 17.2122L17.625 17.2122L17.625 17.1622L17.675 17.1622L17.675 17.1122L17.7251 17.1122L17.7251 17.0622L17.7751 17.0497L17.7751 16.9997L17.8252 16.9997L17.8252 16.8997L17.875 16.8997L17.875 16.8372L17.925 16.8372L17.925 16.7497L17.9751 16.7497L17.9875 16.6497C18 16.6456 18.0125 16.6415 18.0251 16.6372L18.0376 16.5372L18.0752 16.5372L18.0876 16.4372L18.125 16.4372L18.1377 16.3247L18.175 16.3247L18.1875 16.1872L18.2251 16.1872C18.2263 16.1797 18.2278 16.1722 18.229 16.1646C18.2375 16.1372 18.2375 16.1372 18.2563 16.1205C18.2805 16.0939 18.281 16.0765 18.2837 16.0411C18.2849 16.026 18.2849 16.026 18.2861 16.0105C18.2866 16.0029 18.2871 15.9951 18.2876 15.9872C18.3 15.9831 18.3123 15.979 18.3252 15.9747L18.3376 15.9372C18.3499 15.9331 18.3623 15.929 18.375 15.9247C18.3762 15.9109 18.3777 15.8969 18.3789 15.8825C18.3833 15.8601 18.3833 15.8601 18.3877 15.8372L18.425 15.8122C18.4336 15.7831 18.4421 15.754 18.4502 15.7247L18.4751 15.7122C18.4807 15.6906 18.4807 15.6906 18.4868 15.6685C18.4912 15.6541 18.4956 15.6396 18.5 15.6247C18.5125 15.6206 18.5249 15.6165 18.5376 15.6122L18.5376 15.4747L18.4375 15.4747L18.4375 15.5122L18.3376 15.5247L18.3376 15.5747L18.2876 15.5747L18.2876 15.6247L18.2375 15.6247L18.2375 15.6747L18.175 15.6747L18.175 15.7247L18.0876 15.7247L18.0752 15.7747L17.9875 15.7747L17.9751 15.8247L17.925 15.8247L17.925 15.8747C17.9019 15.8744 17.9019 15.8744 17.8782 15.874C17.8418 15.8739 17.8101 15.8756 17.7751 15.8872L17.7751 15.9247L17.6125 15.9372L17.6125 15.9747C17.4326 15.981 17.4326 15.981 17.25 15.9872L17.25 16.0247L17.1125 16.0372L17.1001 16.0747C17.0742 16.0834 17.0742 16.0834 17.05 16.0872L17.05 16.1372L16.9626 16.1372L16.9502 16.1747C16.9333 16.1789 16.9167 16.1831 16.9001 16.1872L16.8877 16.2247C16.8752 16.2289 16.8628 16.233 16.8501 16.2372L16.8376 16.2747C16.8083 16.2831 16.7793 16.2914 16.75 16.2997L16.7375 16.3372C16.7251 16.3414 16.7129 16.3455 16.7002 16.3497L16.6875 16.3872C16.6753 16.3914 16.6628 16.3955 16.6501 16.3997L16.625 16.4372C16.6128 16.4414 16.6003 16.4455 16.5876 16.4497L16.5752 16.4872C16.5503 16.4914 16.5256 16.4955 16.5 16.4997L16.5 16.5497L16.4375 16.5497L16.4375 16.5997L16.3501 16.5997L16.3376 16.6497L16.2876 16.6497L16.2876 16.6997L16.2375 16.6997L16.2375 16.7497L16.1377 16.7622L16.125 16.7997C16.0994 16.8084 16.0994 16.8084 16.0752 16.8122L16.0752 16.8622L16.0251 16.8622L16.0251 16.9122L15.9375 16.9122L15.9375 16.9622L15.875 16.9622L15.875 17.0122L15.8252 17.0122L15.8252 17.0622L15.7751 17.0622L15.7751 17.1122L15.675 17.1247L15.675 17.1622L15.6125 17.1747L15.6125 17.2122L15.5127 17.2247L15.5127 17.2622C15.3638 17.2685 15.3638 17.2685 15.2126 17.2747L15.2126 17.2247C15.1755 17.2206 15.1384 17.2165 15.1001 17.2122L15.1001 17.1747L15 17.1622L15 17.1247C14.9629 17.1206 14.9258 17.1165 14.8877 17.1122L14.8877 17.0747C14.8586 17.0706 14.8298 17.0665 14.8 17.0622L14.8 17.0122L14.7375 17.0122L14.7375 16.9622L14.6501 16.9622L14.6377 16.8122L14.5876 16.8122L14.6001 16.3372L14.6377 16.3372L14.6377 14.7497L14.5876 14.7497L14.5876 14.6372L14.5376 14.6372L14.5376 14.5372L14.4875 14.5372L14.4875 14.4372L14.4375 14.4372L14.4375 14.3372L14.3877 14.3372C14.3877 14.3296 14.3879 14.3219 14.3882 14.314C14.3882 14.3039 14.3882 14.2937 14.3884 14.2834C14.3884 14.2734 14.3887 14.2634 14.3889 14.253C14.3889 14.2226 14.3889 14.2226 14.375 14.1872L14.3376 14.1872C14.3313 14.113 14.3313 14.113 14.3252 14.0372L14.2876 14.0372C14.2812 13.876 14.2812 13.876 14.2751 13.7122L14.2375 13.7122L14.2375 13.5997L14.2751 13.5997L14.2876 13.3372L14.3252 13.3372L14.3376 13.1372L14.375 13.1372C14.3916 13.0875 14.3884 13.0391 14.3877 12.9872L14.4375 12.9872L14.4375 12.8872L14.4875 12.8872L14.4875 12.8247L14.5376 12.8247L14.5376 12.7372L14.5876 12.7372L14.5876 12.6747L14.6501 12.6747L14.6501 12.6247L14.8501 12.6247L14.8501 12.6747L14.9502 12.6747L14.9502 13.1997L15 13.1997L15 13.3497L15.05 13.3497L15.05 13.3997L15.1001 13.3997L15.1001 13.4497L15.1501 13.4497L15.1501 13.4997L15.2126 13.4997L15.2126 13.5497L15.3125 13.5497L15.3125 13.5997L15.4126 13.6122L15.4126 13.6497L15.5127 13.6622L15.5251 13.7122L15.6125 13.7122L15.6125 13.7622L15.7251 13.7622L15.7251 13.8122L15.8252 13.8122L15.8252 13.8622L15.925 13.8622L15.925 13.9122L15.9875 13.9122L15.9875 13.9622L16.125 13.9622L16.125 14.0122C16.1621 14.0164 16.1992 14.0205 16.2375 14.0247L16.2375 14.0622C16.2495 14.0641 16.2495 14.0641 16.2617 14.0661C16.2703 14.069 16.2788 14.0719 16.2876 14.0747L16.3 14.1122L16.4001 14.1247L16.4001 14.1622L16.5251 14.1872L16.5376 14.2247L16.6377 14.2372L16.6501 14.2747C16.6624 14.2789 16.6748 14.283 16.6875 14.2872L16.7002 14.3247L16.8 14.3372L16.8125 14.3747C16.8215 14.3762 16.8303 14.3777 16.8394 14.3794C16.8511 14.3814 16.8625 14.3835 16.8743 14.3857C16.8914 14.3887 16.8914 14.3887 16.9089 14.3919C16.9185 14.3945 16.9277 14.397 16.9375 14.3997L16.9502 14.4247C16.9583 14.4265 16.9666 14.4284 16.9751 14.4302C16.9834 14.4325 16.9917 14.4349 17 14.4372L17.0127 14.4747L17.1001 14.4747L17.1125 14.5247C17.1414 14.5289 17.1704 14.533 17.2002 14.5372L17.2002 14.5747C17.2373 14.5789 17.2744 14.583 17.3125 14.5872L17.3125 14.6247L17.4126 14.6372L17.4126 14.6872L17.5127 14.6872L17.5251 14.7372L17.6626 14.7372L17.6626 14.7872L17.7751 14.7872L17.7751 14.8372L17.9751 14.8497L17.9751 14.8872L18.0251 14.8872L18.0376 14.8497L18.175 14.8372L18.175 14.7872L18.2751 14.7872L18.2876 14.7497C18.3 14.7456 18.3123 14.7415 18.3252 14.7372L18.3376 14.6997C18.3665 14.6956 18.3953 14.6915 18.425 14.6872L18.4375 14.6497C18.4541 14.6456 18.4709 14.6414 18.4875 14.6372L18.5 14.5997C18.5493 14.5814 18.6016 14.5859 18.6526 14.5865C18.6619 14.5865 18.6711 14.5866 18.6809 14.5866C18.7036 14.5867 18.7266 14.587 18.7495 14.5872L18.7495 14.6372L18.7996 14.6372L18.812 14.7372L18.8994 14.7372L18.8994 14.6872L18.9495 14.6872L18.9495 14.5872L18.9995 14.5872L18.9995 14.4872L19.0496 14.4747L19.0496 14.3747L19.0994 14.3747L19.0994 14.3247L19.1494 14.3247L19.1494 14.2122L19.1995 14.2122L19.2119 14.0747L19.2495 14.0747L19.262 13.9622L19.2996 13.9622L19.2996 13.8747L19.262 13.8747L19.2495 13.8122L19.1995 13.8122L19.1995 13.7747L19.0994 13.7622L19.0994 13.7247L18.9995 13.7122L18.9995 13.6622C18.9707 13.6581 18.9417 13.654 18.9119 13.6497L18.8994 13.6122C18.8911 13.6102 18.8831 13.6081 18.8745 13.606C18.8662 13.604 18.8579 13.6019 18.8494 13.5997L18.8369 13.5622C18.8081 13.5581 18.7793 13.554 18.7495 13.5497L18.7371 13.5122C18.7246 13.5081 18.7122 13.504 18.6995 13.4997L18.687 13.4622C18.6582 13.4581 18.6292 13.454 18.5994 13.4497L18.5869 13.4122C18.5762 13.4072 18.5762 13.4072 18.5652 13.4021C18.5369 13.3872 18.5369 13.3872 18.5081 13.3497C18.4746 13.3066 18.4395 13.3004 18.387 13.2872L18.3745 13.2497C18.3621 13.2456 18.3496 13.2415 18.3369 13.2372L18.3245 13.1997C18.312 13.1956 18.2998 13.1915 18.2869 13.1872L18.2744 13.1497L18.187 13.1497L18.187 13.0997L18.137 13.0997L18.137 13.0497L18.0869 13.0497L18.0869 12.9997L18.0369 12.9872L18.0244 12.9372L17.9744 12.9372L17.9744 12.8872L17.9246 12.8872L17.9246 12.8372L17.8745 12.8372L17.8745 12.7872L17.8245 12.7872L17.8245 12.7372L17.7744 12.7372L17.762 12.6372C17.7495 12.6331 17.7373 12.629 17.7244 12.6247L17.7119 12.5872C17.6995 12.5831 17.6873 12.579 17.6746 12.5747L17.6619 12.5372C17.6497 12.5331 17.6372 12.529 17.6245 12.5247C17.6157 12.499 17.6157 12.499 17.6121 12.4747L17.5745 12.4747L17.562 12.3747L17.512 12.3747L17.512 12.2747L17.4619 12.2747L17.4619 12.2247L17.4119 12.2247L17.4119 12.1747L17.262 12.1747L17.2495 12.2122C17.126 12.2131 17.002 12.2137 16.8794 12.2142C16.822 12.2144 16.7649 12.2146 16.707 12.2151C16.6516 12.2155 16.5964 12.2157 16.5408 12.2157C16.5195 12.2159 16.4985 12.216 16.4773 12.2162C16.4478 12.2165 16.4182 12.2165 16.3887 12.2165C16.3755 12.2167 16.3755 12.2167 16.3621 12.2169C16.3379 12.2167 16.3379 12.2167 16.2988 12.2122L16.2737 12.1747C16.2417 12.1709 16.2119 12.1689 16.1799 12.1685C16.1479 12.1681 16.1182 12.1661 16.0862 12.1622C16.0737 12.1436 16.0737 12.1436 16.0613 12.1247C16.0291 12.1186 15.999 12.1144 15.9668 12.1115C15.9353 12.1085 15.9048 12.1047 15.8738 12.0997L15.8613 12.0747C15.8372 12.0689 15.8372 12.0689 15.8081 12.0669C15.7974 12.0657 15.7866 12.0647 15.7756 12.0636C15.7644 12.0626 15.7532 12.0617 15.7417 12.0607C15.7305 12.0596 15.719 12.0585 15.7075 12.0574C15.6797 12.0547 15.6516 12.0522 15.6238 12.0497L15.6113 12.0122L15.4736 12.0122L15.4612 11.9622L15.3613 11.9622L15.3613 11.9122L15.2612 11.9122L15.2612 11.8622L15.1111 11.8622L15.1111 11.8122L14.9988 11.8122L14.9988 11.7622L14.9363 11.7622L14.9375 11.7625ZM15 15.9875L15 16.65L15.05 16.65L15.05 16.75L15.1001 16.75L15.1001 16.8L15.1501 16.8L15.1501 16.85L15.2627 16.85L15.2627 16.9L15.3625 16.9L15.3625 16.85L15.5127 16.85L15.5127 16.8L15.5752 16.8L15.5752 16.75L15.6626 16.75L15.675 16.7125C15.6875 16.7084 15.7 16.7042 15.7126 16.7L15.7251 16.6625C15.7375 16.6584 15.7498 16.6542 15.7627 16.65L15.7751 16.6125C15.7874 16.6084 15.7998 16.6042 15.8125 16.6C15.8147 16.5917 15.8167 16.5835 15.8188 16.575C15.8208 16.5667 15.823 16.5585 15.8252 16.55C15.8374 16.5459 15.8499 16.5417 15.8625 16.5375L15.8625 16.3875C15.844 16.3812 15.844 16.3812 15.8252 16.375C15.8188 16.3564 15.8188 16.3564 15.8125 16.3375C15.8003 16.3334 15.7878 16.3292 15.7751 16.325C15.7688 16.3126 15.7688 16.3126 15.7627 16.3C15.7302 16.2914 15.7302 16.2914 15.6931 16.286C15.6804 16.2839 15.6677 16.2817 15.6548 16.2796C15.645 16.2781 15.6353 16.2765 15.625 16.275C15.6189 16.2564 15.6189 16.2564 15.6125 16.2375L15.5127 16.2375L15.5127 16.1875L15.4126 16.1875L15.4126 16.1375L15.3125 16.1375L15.3125 16.0875L15.25 16.0875L15.25 16.0375L15.1501 16.0375L15.1501 15.9875L15 15.9875Z" fill="url(#paint_linear_3_508_0)" fill-opacity="1.000000" fill-rule="nonzero"/>
			<path id="Vector" d="M21.1626 17.475L21.5625 17.475C21.5686 17.4936 21.5686 17.4936 21.575 17.5125L21.8125 17.525C21.8186 17.5436 21.8186 17.5436 21.825 17.5625C21.8931 17.5687 21.8931 17.5687 21.9626 17.575L21.9751 17.625L22.075 17.625L22.0876 17.675L22.1501 17.6875L22.1501 17.7125L22.2375 17.7375L22.2375 17.775L22.2876 17.7875L22.2876 17.825L22.3376 17.825L22.3376 17.875L22.3875 17.875L22.3875 17.925L22.4375 17.925L22.4375 17.975L22.4875 17.975L22.4875 18.0375L22.5376 18.0375L22.5376 18.0875L22.5876 18.0875L22.6001 18.1875L22.6375 18.1875L22.6501 18.2875L22.6875 18.2875L22.7 18.3875L22.7375 18.3875C22.7388 18.3955 22.7402 18.4035 22.7415 18.4117C22.7456 18.4245 22.7456 18.4245 22.75 18.4375C22.7625 18.4416 22.7749 18.4457 22.7876 18.45C22.8044 18.4912 22.8013 18.5342 22.8008 18.5775C22.8008 18.591 22.8005 18.6045 22.8005 18.6184C22.8003 18.6337 22.8003 18.6337 22.8 18.6494L22.8501 18.6494L22.8501 18.9119L22.9001 18.9119L22.9001 19.0744L22.8501 19.0744L22.8501 19.1619L22.9001 19.1619L22.9001 19.2244L22.8501 19.2244C22.8503 19.2356 22.8503 19.2356 22.8506 19.2472C22.8506 19.2572 22.8506 19.2672 22.8508 19.2775C22.8508 19.2874 22.8511 19.2972 22.8513 19.3074C22.8501 19.3357 22.8455 19.3597 22.8376 19.3869L22.8 19.3869C22.8003 19.4024 22.8005 19.4177 22.8008 19.4337C22.8005 19.5072 22.8005 19.5072 22.7876 19.5369C22.7751 19.541 22.7627 19.5451 22.75 19.5494L22.7375 19.6369C22.7251 19.641 22.7129 19.6451 22.7 19.6494L22.6875 19.7369C22.6753 19.741 22.6628 19.7451 22.6501 19.7494L22.6375 19.8369C22.6252 19.841 22.6128 19.8451 22.6001 19.8494C22.5908 19.8746 22.5908 19.8746 22.5876 19.8994L22.5376 19.8994L22.5376 19.9994L22.4875 19.9994L22.4875 20.0494L22.4375 20.0494L22.425 20.1494L22.3875 20.1494L22.375 20.2119L22.3376 20.2119L22.325 20.2619L22.2876 20.2619L22.2876 20.3119L22.25 20.3119L22.2375 20.3994L22.1875 20.4119L22.1875 20.4619L22.1375 20.4619L22.1375 20.5244L22.0876 20.5244L22.0876 20.6119L22.0376 20.6244L22.0251 20.7244L21.9875 20.7244L21.9751 20.8244L21.9375 20.8244L21.9375 21.3994L21.9751 21.3994C21.9917 21.4491 21.9885 21.4975 21.9875 21.5494L22.0376 21.5494L22.0376 21.6494L22.0876 21.6494L22.0876 21.7494L22.1375 21.7494L22.1375 21.8119L22.1875 21.8119L22.1875 21.8619L22.2375 21.8619L22.25 21.9619L22.2876 21.9619L22.3 21.9994C22.3125 22.0035 22.3247 22.0076 22.3376 22.0119L22.3501 22.0494C22.3623 22.0535 22.3748 22.0576 22.3875 22.0619L22.4001 22.0994C22.4143 22.1035 22.429 22.1076 22.4438 22.1119C22.4583 22.116 22.4727 22.1201 22.4875 22.1244L22.5 22.1619C22.5125 22.166 22.5249 22.1701 22.5376 22.1744L22.55 22.2119C22.5625 22.216 22.5747 22.2201 22.5876 22.2244C22.5999 22.243 22.5999 22.243 22.6125 22.2619C22.625 22.266 22.6372 22.2701 22.6501 22.2744L22.6626 22.3119C22.6748 22.316 22.6873 22.3201 22.7 22.3244L22.7 22.3744L22.75 22.3744L22.75 22.4244L22.8 22.4244L22.8 22.4744L22.4875 22.4744L22.4875 22.4244C22.4727 22.4245 22.4578 22.4246 22.4424 22.4249C22.4229 22.4249 22.4031 22.425 22.3838 22.4251C22.3738 22.4252 22.364 22.4254 22.354 22.4255C22.3396 22.4255 22.3396 22.4255 22.3252 22.4256C22.3123 22.4257 22.3123 22.4257 22.2988 22.4257C22.2751 22.4244 22.2751 22.4244 22.2375 22.4119L22.2375 22.3744C22.2263 22.3745 22.2153 22.3746 22.2039 22.3749C22.1819 22.375 22.1819 22.375 22.1594 22.3751C22.1377 22.3754 22.1377 22.3754 22.1155 22.3756C22.0825 22.3746 22.0564 22.3717 22.0251 22.3619L22.0251 22.3244L21.925 22.3119L21.925 22.2744L21.7751 22.2619C21.769 22.2432 21.769 22.2432 21.7625 22.2244L21.6125 22.2119L21.6125 22.1619L21.5 22.1619L21.5 22.1119L21.3625 22.1119L21.3625 22.0619L21.25 22.0619L21.25 22.0119L21.2 22.0119L21.2 21.9619L21.1001 21.9619L21.1001 21.9119L21.05 21.9119L21.05 21.8619C21.042 21.8606 21.0339 21.8592 21.0259 21.858C21.0129 21.8537 21.0129 21.8537 21 21.8494C20.9939 21.8307 20.9939 21.8307 20.9875 21.8119C20.9626 21.7967 20.9626 21.7967 20.9375 21.7869L20.9375 21.7494L20.8875 21.7369L20.8875 21.6994L20.8376 21.6869L20.8376 21.6494L20.8 21.6494L20.7876 21.5494L20.75 21.5494L20.75 21.4494L20.7 21.4494L20.6875 21.3494L20.6501 21.3494L20.6375 21.2369L20.6001 21.2369L20.5876 21.0244L20.55 21.0244L20.55 20.4619L20.575 20.4494C20.5811 20.4155 20.5854 20.3826 20.5891 20.3486C20.5901 20.3391 20.5913 20.3296 20.5925 20.3199C20.595 20.2964 20.5977 20.2729 20.6001 20.2494L20.6501 20.2494L20.6501 20.1369L20.6875 20.1369C20.6936 20.0874 20.6936 20.0874 20.7 20.0369L20.75 20.0369L20.75 19.9369L20.7876 19.9369L20.7876 19.8494L20.8376 19.8369L20.8376 19.7494L20.8875 19.7244L20.8875 19.6494C20.8997 19.6454 20.8997 19.6454 20.9119 19.6412C20.9412 19.6262 20.9412 19.6262 20.9451 19.5919C20.9458 19.5794 20.9463 19.5669 20.947 19.5541C20.9478 19.5415 20.9482 19.529 20.949 19.5161C20.9495 19.5065 20.9497 19.4967 20.95 19.4869L21 19.4744L21.0125 19.4119L21.0376 19.4119L21.05 19.2744C21.0625 19.2702 21.0747 19.2661 21.0876 19.2619L21.0876 19.0744L21.05 19.0744C21.0439 19.0249 21.0439 19.0249 21.0376 18.9744C21.0256 18.9734 21.0139 18.9724 21.0015 18.9712C20.9626 18.9619 20.9626 18.9619 20.9453 18.9384C20.9375 18.9119 20.9375 18.9119 20.9375 18.8744C20.9087 18.8702 20.8799 18.8661 20.8501 18.8619L20.8501 18.8119L20.8 18.8119L20.7876 18.7744C20.7588 18.7702 20.7297 18.7661 20.7 18.7619L20.7 18.7119L20.6001 18.7119L20.5876 18.6744L20.4875 18.6619L20.4875 18.6119L20.3875 18.6119L20.3875 18.5619C20.3381 18.5557 20.3381 18.5557 20.2876 18.5494C20.2815 18.4566 20.2815 18.4566 20.2751 18.3619L20.2375 18.3619L20.2375 18.2869L20.2751 18.2869L20.2876 17.7744L20.3376 17.7744L20.3376 17.6744L20.3875 17.6744L20.3875 17.6244L20.4875 17.6244L20.4875 17.5744C20.5618 17.5681 20.5618 17.5681 20.6375 17.5619L20.6501 17.5244C20.8176 17.5144 20.9827 17.5102 21.1501 17.5119L21.1626 17.4744L21.1626 17.475Z" fill="#2A1163" fill-opacity="1.000000" fill-rule="nonzero"/>
			<path id="Vector" d="M14.5876 19.475L14.7375 19.475L14.7375 19.525L14.8376 19.5375L14.8376 19.575L14.9001 19.5875L14.9001 19.625L14.95 19.625L14.95 19.675L15.05 19.6875L15.05 19.7375L15.1001 19.7375L15.1001 19.7875L15.1875 19.7875L15.2 19.8375L15.2625 19.85L15.2625 19.8875L15.3125 19.8875L15.3125 19.9375L15.4001 19.9375L15.4126 19.9875C15.4414 19.9916 15.4702 19.9958 15.5 20L15.5125 20.05L15.5625 20.0625L15.5625 20.1L15.625 20.1125L15.625 20.1375L15.7126 20.1625L15.7126 20.2L15.7751 20.2125L15.7751 20.25L15.825 20.2625L15.825 20.3L15.875 20.3125L15.875 20.35L15.925 20.3625L15.925 20.4125L15.9751 20.4125L15.9875 21.6L16.0251 21.6L16.0376 21.8625L16.075 21.8625L16.075 22.0625C16.0627 22.0666 16.0503 22.0708 16.0376 22.075L16.0251 22.1125L15.9751 22.1125L15.9751 22.1625L15.875 22.1625L15.875 22.2125L15.7251 22.225L15.7251 22.2625L15.625 22.275L15.6125 22.3125L15.4626 22.325L15.4626 22.375L15.3625 22.375L15.3625 22.425L15.25 22.425L15.25 22.475L15.1001 22.475L15.1001 22.525L15 22.525L15 22.575L14.8501 22.575L14.8501 22.625L14.7375 22.625L14.7375 22.675L14.5876 22.6875L14.5876 22.725C14.5505 22.7291 14.5134 22.7333 14.4751 22.7375L14.4751 22.775L14.375 22.7875L14.375 22.825C14.3406 22.8365 14.3206 22.8389 14.2852 22.8383C14.2695 22.838 14.2539 22.8378 14.2375 22.8375L14.2375 22.8875L14.0876 22.8875L14.0876 22.9375L13.9375 22.95L13.925 22.9875L13.7751 22.9875L13.7751 23.0375L13.675 23.0375L13.675 23.0875L13.625 23.0875L13.6125 23.35L13.575 23.35C13.5752 23.357 13.5752 23.3639 13.5757 23.3711C13.5764 23.4362 13.572 23.4986 13.5625 23.5624L13.5125 23.5624L13.5125 23.5999L13.4626 23.5999L13.4626 23.5624C13.4255 23.5583 13.3884 23.5541 13.3501 23.5499L13.3501 23.5124L13.2 23.4999L13.2 23.4499L13.0876 23.4499L13.0876 23.4124L12.95 23.3999C12.9438 23.3751 12.9438 23.3751 12.9375 23.3499L12.8501 23.3499L12.8501 23.2999L12.7375 23.2999L12.7375 23.2499L12.6501 23.2499C12.6335 23.2001 12.6367 23.1517 12.6375 23.0999L12.6875 23.0874L12.7 22.9999L12.7375 22.9999L12.75 22.9374C12.7625 22.9333 12.7749 22.9291 12.7876 22.9249L12.8 22.8874L12.8875 22.8874L12.8875 22.8374L12.9375 22.8374L12.9375 22.7874L12.9875 22.7874L12.9875 22.7374L13.05 22.7374L13.05 22.6874C13.0789 22.6833 13.1079 22.6791 13.1375 22.6749L13.1501 22.6374C13.179 22.6333 13.2078 22.6291 13.2375 22.6249L13.25 22.5749L13.3 22.5749L13.3 22.5374L13.4001 22.5249L13.4001 22.4749L13.5125 22.4749L13.5125 22.4249L13.6125 22.4249L13.6125 22.3749L13.7126 22.3749L13.7126 22.3249L13.8125 22.3124L13.8125 22.2749C13.8206 22.2736 13.8286 22.2723 13.8369 22.271C13.8496 22.2668 13.8496 22.2668 13.8625 22.2624L13.875 22.2249C13.9041 22.2207 13.9329 22.2166 13.9626 22.2124L13.9751 22.1749L14.075 22.1624L14.075 22.1249L14.175 22.1124L14.175 22.0624L14.2751 22.0624L14.2751 22.0124L14.3875 22.0124L14.3875 21.9624L14.4875 21.9624L14.4875 21.9124L14.5876 21.9124L14.5876 21.8624L14.6875 21.8499L14.6875 21.8124C14.7246 21.8083 14.7617 21.8041 14.8 21.7999L14.8 21.7624L14.9001 21.7499L14.9001 21.7124L15 21.6999L15 21.6499L15.05 21.6499L15.05 21.4999L15 21.4999L15 21.3999L14.95 21.3999L14.95 21.3374L14.9001 21.3374L14.9001 21.2374L14.8501 21.2374L14.8501 21.1374L14.8 21.1374L14.7876 20.9874L14.75 20.9874L14.7375 20.8749L14.7 20.8749C14.6868 20.8316 14.6863 20.7919 14.6868 20.7474C14.687 20.7339 14.687 20.7204 14.687 20.7065C14.6873 20.6911 14.6873 20.6911 14.6875 20.6755L14.6375 20.6755L14.6375 20.513L14.6001 20.513C14.5869 20.4733 14.5862 20.4451 14.5864 20.4035C14.5864 20.3895 14.5864 20.3755 14.5864 20.3611C14.5867 20.3465 14.5867 20.332 14.5869 20.3169C14.5869 20.3021 14.5869 20.2874 14.5869 20.2723C14.5872 20.2359 14.5874 20.1994 14.5876 20.163L14.5376 20.163L14.5376 19.588L14.5876 19.5755L14.5876 19.4755L14.5876 19.475Z" fill="#2A1163" fill-opacity="1.000000" fill-rule="nonzero"/>
			<path id="Vector" d="M7.4126 9.27499L7.46265 9.27499L7.46265 9.325L7.6626 9.325L7.6626 9.375C7.69971 9.37912 7.73682 9.38324 7.77515 9.3875L7.77515 9.42499L7.92505 9.4375L7.92505 9.48749L8.0376 9.48749L8.0376 9.52499L8.17505 9.53749C8.1814 9.55612 8.1814 9.55612 8.1875 9.575L8.33765 9.58749L8.33765 9.6375L8.48755 9.6375L8.48755 9.6875L8.65015 9.6875L8.65015 9.73749L8.75 9.73749L8.75 9.78749C8.75708 9.78725 8.7644 9.78687 8.77148 9.78662C8.83667 9.78513 8.88843 9.79149 8.9502 9.8125L8.9502 9.84999L9.05029 9.84999L9.06274 9.8875L9.2002 9.89999L9.2002 9.95L9.30029 9.95L9.30029 10L9.36279 10L9.36279 10.0375L9.46289 10.05L9.46289 10.1L9.56274 10.1L9.56274 10.15L9.66284 10.15L9.66284 10.2L9.7627 10.2L9.77539 10.25L9.87524 10.2625L9.87524 10.3L9.97534 10.3125L9.97534 10.3625L10.0254 10.3625L10.0254 10.4L10.1252 10.4125L10.1252 10.4625L10.1753 10.4625L10.1753 10.5125L10.2378 10.5125L10.2378 10.5625L10.2878 10.575L10.2878 10.6125L10.3252 10.6125L10.3379 10.725L10.3752 10.725C10.386 10.7617 10.3894 10.7945 10.3894 10.8326C10.3894 10.844 10.3896 10.8554 10.3896 10.867C10.3896 10.8852 10.3896 10.8852 10.3894 10.9039C10.3894 10.9165 10.3894 10.929 10.3896 10.942C10.3896 10.9686 10.3894 10.9951 10.3894 11.0217C10.3894 11.0624 10.3894 11.103 10.3896 11.1436C10.3896 11.1695 10.3894 11.1953 10.3894 11.2211C10.3894 11.2332 10.3896 11.2454 10.3896 11.258C10.3894 11.275 10.3894 11.275 10.3894 11.2924L10.3894 11.3225C10.3877 11.3499 10.3828 11.3737 10.3752 11.4L10.3379 11.4L10.3379 11.5L10.2878 11.5L10.2754 11.6L10.2253 11.6L10.2253 11.65C10.2129 11.6541 10.2004 11.6582 10.1877 11.6625C10.1787 11.6877 10.1787 11.6877 10.1753 11.7125L10.1252 11.7125L10.1252 11.7625L10.0752 11.7625L10.0752 11.8125L10.0254 11.8125L10.0254 11.8625L9.97534 11.8625L9.97534 11.9125C9.96729 11.9137 9.95923 11.9151 9.95093 11.9164C9.94263 11.9193 9.93408 11.9221 9.92529 11.925L9.91284 11.9625C9.90039 11.9666 9.88794 11.9707 9.87524 11.975L9.86279 12.0125L9.81274 12.0125L9.81274 12.0625L9.7627 12.0625L9.7627 12.1125L9.71289 12.1125L9.71289 12.1625C9.70044 12.1666 9.68799 12.1707 9.67529 12.175C9.66626 12.2002 9.66626 12.2002 9.66284 12.225L9.61279 12.225L9.61279 12.275L9.56274 12.275L9.56274 12.325L9.5127 12.325L9.5127 12.375L9.46289 12.375L9.4502 12.4375L9.41284 12.4375L9.40039 12.4875L9.36279 12.4875L9.35034 12.5875L9.30029 12.5875L9.30029 12.6875L9.25024 12.6875L9.25024 12.7375L9.21289 12.7375L9.2002 12.8375L9.16284 12.8375L9.15039 12.9L9.11279 12.9L9.11279 12.975C9.10498 12.9781 9.09741 12.9812 9.08936 12.9844C9.05835 13.0026 9.05103 13.0172 9.03784 13.05L9.0127 13.05L9.00024 13.1L8.9502 13.1L8.93774 13.15L8.85034 13.15L8.83789 13.2L8.78784 13.2L8.78784 13.15L8.73779 13.15L8.73779 13.1L8.68774 13.1L8.68774 12.775L8.73779 12.775L8.73779 12.575L8.78784 12.575L8.78784 12.425L8.83789 12.425L8.83789 12.3125L8.8877 12.3125C8.89404 12.263 8.89404 12.263 8.90039 12.2125L8.93774 12.2125L8.9502 12.0625C8.96265 12.0584 8.9751 12.0542 8.98779 12.05L9.00024 11.9125C9.0127 11.9084 9.02515 11.9043 9.03784 11.9L9.03784 11.7625C9.02539 11.7584 9.01294 11.7542 9.00024 11.75L8.98779 11.6125C8.97534 11.6084 8.96313 11.6042 8.9502 11.6C8.94092 11.4475 8.93652 11.295 8.93628 11.1425C8.93628 11.1266 8.93628 11.1109 8.93604 11.0945C8.93604 11.0796 8.93628 11.0647 8.93628 11.0495L8.93628 11.0092C8.9375 10.9789 8.94165 10.9535 8.9502 10.9245L8.98779 10.9245L9.00024 10.8245L9.05029 10.8245L9.05029 10.712L9.10034 10.712L9.10034 10.6245L9.05029 10.6245L9.05029 10.5745L9.00024 10.562L9.00024 10.5245L8.93774 10.512L8.93774 10.4745L8.86279 10.4745C8.86035 10.4665 8.85815 10.4585 8.85571 10.4502C8.83862 10.4193 8.83862 10.4193 8.79248 10.4151C8.77856 10.4141 8.76465 10.413 8.75024 10.412L8.73779 10.362C8.71313 10.3557 8.71313 10.3557 8.68774 10.3495L8.68774 10.3245C8.65894 10.3204 8.63013 10.3162 8.60034 10.312L8.58789 10.262L8.50024 10.262L8.48779 10.212L8.42529 10.1995L8.42529 10.162L8.33789 10.162L8.3252 10.112C8.31738 10.1107 8.30933 10.1094 8.30103 10.1081C8.29248 10.1052 8.28394 10.1024 8.27539 10.0995L8.2627 10.062L8.18774 10.062C8.18164 10.0372 8.18164 10.0372 8.17529 10.012C8.14648 10.0079 8.11743 10.0037 8.08789 9.9995C8.08154 9.97475 8.08154 9.97475 8.0752 9.94949L8.0127 9.937L8.0127 9.91199C7.98389 9.90787 7.95508 9.90375 7.92529 9.89949C7.91895 9.87474 7.91895 9.87474 7.91284 9.84949L7.86279 9.83699L7.86279 9.7995L7.77539 9.7995C7.76929 9.77475 7.76929 9.77475 7.7627 9.7495L7.7002 9.737L7.7002 9.69949L7.62524 9.69949L7.62524 9.64949L7.56274 9.64949L7.56274 9.59949L7.46289 9.58699L7.46289 9.53699L7.41284 9.53699L7.40039 9.4995C7.38794 9.49536 7.37549 9.49124 7.36279 9.487L7.36279 9.32449L7.40039 9.32449L7.4126 9.27499ZM9.51245 10.9875L9.5 11.0875L9.46265 11.0875C9.4502 11.1381 9.44897 11.1855 9.44995 11.2375L9.4126 11.2375L9.4126 11.3375L9.44995 11.3375L9.44995 11.3875L9.5 11.3875L9.5 11.4375L9.6626 11.4375L9.6626 11.3875L9.76245 11.3875L9.76245 11.3375L9.8125 11.3375L9.82495 11.2375L9.875 11.225L9.875 11.0375L9.8125 11.0375L9.8125 10.9875L9.51245 10.9875Z" fill="#7C0F80" fill-opacity="1.000000" fill-rule="nonzero"/>
			<path id="Vector" d="M19.5625 9.17499L19.8125 9.17499L19.8125 9.22499L19.9749 9.22499L19.9749 9.27499L20.125 9.27499L20.125 9.32498L20.2249 9.33749C20.231 9.35611 20.231 9.35611 20.2375 9.37498C20.2627 9.38411 20.2627 9.38411 20.2874 9.38748L20.2874 9.43748L20.3374 9.43748L20.3374 9.48749L20.3875 9.48749L20.3875 9.53749L20.4375 9.53749L20.4375 9.58749L20.4875 9.58749L20.4875 9.63748L20.5374 9.63748L20.5374 9.68748L20.5874 9.68748C20.5935 9.73698 20.5935 9.73698 20.5999 9.78749L20.6375 9.78749C20.6387 9.79549 20.6401 9.80348 20.6414 9.81174C20.6443 9.82024 20.647 9.82874 20.6499 9.83749C20.6685 9.84373 20.6685 9.84373 20.6875 9.84999C20.6936 9.89949 20.6936 9.89949 20.7 9.94998L20.7375 9.94998C20.7542 9.99974 20.7507 10.0481 20.75 10.1L20.8 10.1L20.8 10.775L20.75 10.7875C20.7502 10.7967 20.7505 10.8059 20.7507 10.8154C20.751 10.8276 20.7512 10.8397 20.7515 10.8524C20.7517 10.8644 20.752 10.8764 20.7524 10.8889C20.7498 10.9266 20.7407 10.9534 20.7249 10.9875L20.7 10.9875L20.7 11.125L20.7375 11.125C20.7483 11.1624 20.7512 11.1955 20.7507 11.2344C20.7505 11.2444 20.7505 11.2544 20.7505 11.2646C20.7502 11.2722 20.75 11.2797 20.75 11.2875L20.8 11.2875L20.8 11.3375L20.8499 11.3375L20.8499 11.3875L20.8999 11.3875L20.8999 11.4375L21 11.4375L21.0125 11.4875L21.1499 11.4875L21.1624 11.45C21.2021 11.4367 21.2302 11.4361 21.272 11.4362C21.2859 11.4364 21.3 11.4364 21.3142 11.4364C21.3289 11.4365 21.3435 11.4366 21.3586 11.4367C21.3733 11.4367 21.3882 11.4369 21.4031 11.4369C21.4395 11.437 21.4761 11.4372 21.5125 11.4375C21.5325 11.514 21.5371 11.59 21.5 11.6625L21.4749 11.6625L21.45 11.75L21.4124 11.75L21.3999 11.8125L21.3625 11.8125L21.3625 11.8625L21.3125 11.8625L21.3125 11.9125L21.2625 11.9125L21.2625 11.9625L21.2124 11.9625L21.2124 12.0125L21.1624 12.0125L21.1624 12.0625L21.1125 12.0625L21.0999 12.1125C21.071 12.1166 21.0422 12.1207 21.0125 12.125L21 12.175L20.95 12.175L20.95 12.2125C20.9045 12.2276 20.863 12.2265 20.8162 12.2262C20.8069 12.2262 20.7974 12.2261 20.7878 12.2261C20.7578 12.2261 20.728 12.226 20.698 12.2257C20.6777 12.2257 20.6572 12.2256 20.637 12.2256C20.5874 12.2255 20.5376 12.2252 20.4883 12.225L20.4883 12.175C20.4729 12.1752 20.4575 12.1755 20.4414 12.1757C20.405 12.1759 20.3733 12.1741 20.3384 12.1625L20.3384 12.125L20.2383 12.1125L20.2383 12.075L20.1758 12.0625L20.1758 12.025C20.147 12.0209 20.1182 12.0167 20.0884 12.0125L20.0759 11.975C20.0505 11.9659 20.0505 11.9659 20.0259 11.9625L20.0259 11.9125L19.9758 11.9125L19.9758 11.8625L19.9258 11.8625L19.9258 11.7625L19.8757 11.7625L19.8633 11.6625L19.8259 11.6625L19.8132 11.45L19.7759 11.45L19.7759 10.7625L19.8132 10.7625L19.8132 10.575L19.7759 10.575C19.7695 10.5255 19.7695 10.5255 19.7634 10.475L19.7258 10.475C19.7249 10.459 19.7239 10.443 19.7227 10.4265C19.72 10.3994 19.72 10.3994 19.7134 10.375C19.6892 10.3551 19.6892 10.3551 19.6633 10.35L19.6633 10.3125C19.6509 10.3084 19.6387 10.3042 19.6257 10.3C19.6099 10.2519 19.6125 10.2131 19.6133 10.1625L19.5632 10.15L19.5632 10.0125L19.5134 9.99998L19.5134 9.94998L19.4634 9.93748L19.4509 9.79999L19.4133 9.79999L19.4133 9.69998L19.3633 9.68748L19.3508 9.59999C19.3384 9.59586 19.3262 9.59174 19.3132 9.58749L19.3008 9.48749C19.2883 9.48337 19.2761 9.47923 19.2634 9.47499C19.2449 9.43137 19.25 9.38411 19.2507 9.33749L19.3008 9.32498L19.3008 9.27499L19.4009 9.27499L19.4009 9.22499C19.4751 9.21873 19.4751 9.21873 19.5508 9.21249L19.5632 9.17499L19.5625 9.17499Z" fill="#750F7D" fill-opacity="1.000000" fill-rule="nonzero"/>
		</g>
	</g>
</svg>
