<svg width="20.000000" height="20.000000" viewBox="0 0 20 20" fill="none" xmlns="http://www.w3.org/2000/svg" xmlns:xlink="http://www.w3.org/1999/xlink">
	<desc>
			Created with Pixso.
	</desc>
	<defs>
		<clipPath id="clip3_177">
			<rect id="telegram 1" width="20.000000" height="20.000000" fill="white" fill-opacity="0"/>
		</clipPath>
	</defs>
	<rect id="telegram 1" width="20.000000" height="20.000000" fill="#FFFFFF" fill-opacity="0"/>
	<g clip-path="url(#clip3_177)">
		<path id="telegram-1" d="M15.3199 18.9825C15.5883 19.1725 15.9341 19.22 16.2424 19.1033C16.5508 18.9858 16.7775 18.7225 16.8458 18.4033C17.5699 15 19.3267 6.38583 19.9858 3.29001C20.0358 3.05667 19.9525 2.81416 19.7692 2.65834C19.5858 2.5025 19.3317 2.4575 19.105 2.54167C15.6108 3.83501 4.84998 7.8725 0.45166 9.5C0.172485 9.60333 -0.00915527 9.87167 0 10.1658C0.0100098 10.4608 0.208252 10.7167 0.494141 10.8025C2.46667 11.3925 5.05579 12.2133 5.05579 12.2133C5.05579 12.2133 6.26575 15.8675 6.89661 17.7258C6.97583 17.9592 7.15833 18.1425 7.39917 18.2058C7.63916 18.2683 7.89575 18.2025 8.07495 18.0333C9.08826 17.0767 10.6549 15.5975 10.6549 15.5975C10.6549 15.5975 13.6316 17.78 15.3199 18.9825ZM6.14502 11.7517L7.54419 16.3667L7.85498 13.4442C7.85498 13.4442 13.2607 8.56833 16.3424 5.78917C16.4325 5.7075 16.4449 5.57083 16.37 5.47501C16.2958 5.37917 16.1592 5.35667 16.0566 5.42166C12.485 7.7025 6.14502 11.7517 6.14502 11.7517Z" fill="#FFFFFF" fill-opacity="1.000000" fill-rule="evenodd"/>
	</g>
</svg>
