<svg width="20" height="20" viewBox="0 0 20 20" fill="none" xmlns="http://www.w3.org/2000/svg">
<g id="transaction 1">
<path id="Vector" d="M14.1684 10.8333C14.6286 10.8333 15.0017 11.2064 15.0017 11.6667C15.0017 12.094 14.68 12.4462 14.2655 12.4944L14.1684 12.5H4.51419L7.25761 15.2441C7.55802 15.5445 7.58112 16.0172 7.32694 16.3441L7.25761 16.4226C6.95721 16.723 6.48452 16.7461 6.15761 16.4919L6.0791 16.4226L1.91244 12.2559C1.41029 11.7538 1.72863 10.9107 2.407 10.8383L2.50169 10.8333H14.1684ZM13.8441 3.50808L13.9226 3.57741L18.0893 7.74407C18.5914 8.24622 18.2731 9.08931 17.5947 9.16168L17.5 9.16666H5.83335C5.37312 9.16666 5.00002 8.79357 5.00002 8.33333C5.00002 7.90596 5.32172 7.55374 5.73617 7.5056L5.83335 7.49999H15.4875L12.7441 4.75592C12.4437 4.45551 12.4206 3.98282 12.6748 3.65591L12.7441 3.57741C13.0445 3.277 13.5172 3.25389 13.8441 3.50808Z" fill="#F8D05F"/>
</g>
</svg>
