<svg width="24.000000" height="24.000000" viewBox="0 0 24 24" fill="none" xmlns="http://www.w3.org/2000/svg" xmlns:xlink="http://www.w3.org/1999/xlink">
	<desc>
			Created with Pixso.
	</desc>
	<defs>
		<clipPath id="clip3_173">
			<rect id="whatsapp 1" width="24.000000" height="24.000000" fill="white" fill-opacity="0"/>
		</clipPath>
	</defs>
	<rect id="whatsapp 1" width="24.000000" height="24.000000" fill="#FFFFFF" fill-opacity="0"/>
	<g clip-path="url(#clip3_173)">
		<path id="Vector" d="M0.0570068 24L1.74402 17.837C0.703003 16.033 0.156006 13.988 0.156982 11.891C0.160034 5.335 5.495 0 12.05 0C15.231 0.000999451 18.217 1.24 20.463 3.488C22.708 5.736 23.944 8.724 23.943 11.902C23.9401 18.459 18.605 23.794 12.05 23.794C10.0601 23.793 8.099 23.294 6.36206 22.346L0.0570068 24ZM6.65405 20.193C8.32996 21.188 9.93005 21.784 12.046 21.785C17.494 21.785 21.932 17.351 21.9351 11.9C21.937 6.438 17.52 2.01 12.054 2.008C6.60205 2.008 2.16699 6.442 2.16504 11.892C2.16406 14.117 2.81604 15.783 3.91101 17.526L2.91199 21.174L6.65405 20.193ZM18.041 14.729C17.967 14.605 17.769 14.531 17.4709 14.382C17.174 14.233 15.713 13.514 15.4401 13.415C15.168 13.316 14.97 13.266 14.771 13.564C14.573 13.861 14.0031 14.531 13.83 14.729C13.657 14.927 13.483 14.952 13.186 14.803C12.889 14.654 11.931 14.341 10.796 13.328C9.91296 12.54 9.31604 11.567 9.14307 11.269C8.96997 10.972 9.125 10.811 9.27295 10.663C9.40698 10.53 9.56995 10.316 9.71899 10.142C9.87 9.97 9.91895 9.846 10.019 9.647C10.118 9.449 10.069 9.275 9.99402 9.126C9.91907 8.978 9.32495 7.515 9.078 6.92C8.83606 6.341 8.59106 6.419 8.40906 6.41L7.83899 6.4C7.64099 6.4 7.31897 6.474 7.047 6.772C6.77502 7.07 6.00696 7.788 6.00696 9.251C6.00696 10.714 7.07202 12.127 7.21997 12.325C7.36902 12.523 9.31506 15.525 12.296 16.812C13.005 17.118 13.559 17.301 13.99 17.438C14.702 17.664 15.35 17.632 15.8621 17.556C16.433 17.471 17.62 16.837 17.868 16.143C18.116 15.448 18.116 14.853 18.041 14.729Z" fill="#FFFFFF" fill-opacity="1.000000" fill-rule="nonzero"/>
	</g>
</svg>
