<svg width="50.000000" height="70.000000" viewBox="0 0 50 70" fill="none" xmlns="http://www.w3.org/2000/svg" xmlns:xlink="http://www.w3.org/1999/xlink">
	<desc>
			Created with Pixso.
	</desc>
	<defs>
		<clipPath id="clip28_3467">
			<rect id="card5" rx="1.500000" width="49.000000" height="69.000000" transform="translate(0.500000 0.500000)" fill="white" fill-opacity="0"/>
		</clipPath>
	</defs>
	<rect id="card5" rx="1.500000" width="49.000000" height="69.000000" transform="translate(0.500000 0.500000)" fill="#FEFFAB" fill-opacity="1.000000"/>
	<g clip-path="url(#clip28_3467)">
		<path id="AAPL" d="M14.4042 40.357L13.5922 38.173L9.19619 38.173L8.38419 40.357L6.22819 40.357L10.1342 30.151L12.6682 30.151L16.5882 40.357L14.4042 40.357ZM11.3802 32.195L9.89619 36.213L12.8642 36.213L11.3802 32.195ZM24.7265 40.357L23.9145 38.173L19.5185 38.173L18.7065 40.357L16.5505 40.357L20.4565 30.151L22.9905 30.151L26.9105 40.357L24.7265 40.357ZM21.7025 32.195L20.2185 36.213L23.1865 36.213L21.7025 32.195ZM35.5107 33.427C35.5107 34.547 35.1561 35.3823 34.4467 35.933C33.7654 36.4837 32.8787 36.759 31.7867 36.759L30.1907 36.759L30.1907 40.357L28.0767 40.357L28.0767 30.151L31.8567 30.151C32.9301 30.151 33.7981 30.4263 34.4607 30.977C35.1607 31.5463 35.5107 32.363 35.5107 33.427ZM33.3827 33.469C33.3827 33.1703 33.3034 32.9183 33.1447 32.713C32.9861 32.4983 32.7761 32.349 32.5147 32.265C32.2627 32.181 31.9827 32.139 31.6747 32.139L30.1907 32.139L30.1907 34.799L31.6887 34.799C32.1554 34.799 32.5521 34.6917 32.8787 34.477C33.2147 34.253 33.3827 33.917 33.3827 33.469ZM43.5545 40.357L37.0865 40.357L37.0865 30.151L39.1865 30.151L39.1865 38.341L43.5545 38.341L43.5545 40.357Z" fill="#960E89" fill-opacity="1.000000" fill-rule="evenodd"/>
	</g>
	<rect id="card5" rx="1.500000" width="49.000000" height="69.000000" transform="translate(0.500000 0.500000)" stroke="#FFD762" stroke-opacity="1.000000" stroke-width="1.000000"/>
</svg>
