<svg width="50.000000" height="70.000000" viewBox="0 0 50 70" fill="none" xmlns="http://www.w3.org/2000/svg" xmlns:xlink="http://www.w3.org/1999/xlink">
	<desc>
			Created with Pixso.
	</desc>
	<defs>
		<clipPath id="clip27_2912">
			<rect id="card3" rx="1.500000" width="49.000000" height="69.000000" transform="translate(0.500000 0.500000)" fill="white" fill-opacity="0"/>
		</clipPath>
	</defs>
	<rect id="card3" rx="1.500000" width="49.000000" height="69.000000" transform="translate(0.500000 0.500000)" fill="#FEFFAB" fill-opacity="1.000000"/>
	<g clip-path="url(#clip27_2912)">
		<path id="GOOG" d="M7.48928 34.869L12.8093 34.869L12.8093 35.667C12.8093 36.9083 12.4779 37.935 11.8153 38.747C11.4979 39.139 11.1386 39.461 10.7373 39.713C9.94395 40.245 9.01995 40.511 7.96528 40.511C7.18128 40.511 6.46262 40.371 5.80928 40.091C5.14661 39.8203 4.59128 39.447 4.14328 38.971C3.16328 37.9723 2.67328 36.7357 2.67328 35.261C2.67328 34.309 2.91595 33.4177 3.40128 32.587C3.88661 31.775 4.53061 31.1403 5.33328 30.683C6.13595 30.2257 7.02261 29.997 7.99328 29.997C9.23462 29.997 10.2613 30.3143 11.0733 30.949C11.8386 31.537 12.3379 32.2557 12.5713 33.105L10.5133 33.735C10.4013 33.2777 10.1119 32.8717 9.64528 32.517C9.17861 32.181 8.61862 32.013 7.96528 32.013C7.40528 32.013 6.87795 32.153 6.38328 32.433C5.89795 32.713 5.51995 33.1003 5.24928 33.595C4.95995 34.0897 4.81528 34.6403 4.81528 35.247C4.81528 35.8443 4.94595 36.3903 5.20728 36.885C5.47795 37.3797 5.85595 37.7717 6.34128 38.061C6.82661 38.3597 7.36795 38.509 7.96528 38.509C8.62795 38.509 9.20662 38.3503 9.70128 38.033C10.1679 37.7157 10.4666 37.3003 10.5973 36.787L7.48928 36.787L7.48928 34.869ZM13.8432 35.261C13.8432 34.5517 13.9832 33.8657 14.2632 33.203C14.5432 32.5403 14.9212 31.9803 15.3972 31.523C15.8545 31.0657 16.4239 30.6923 17.1052 30.403C17.7772 30.1323 18.4632 29.997 19.1632 29.997C19.9099 29.997 20.6005 30.1323 21.2352 30.403C21.8792 30.6737 22.4392 31.0377 22.9152 31.495C23.3819 31.9617 23.7552 32.517 24.0352 33.161C24.3059 33.8143 24.4412 34.5003 24.4412 35.219C24.4412 35.947 24.3012 36.633 24.0212 37.277C23.7319 37.949 23.3539 38.5137 22.8872 38.971C22.4019 39.4563 21.8372 39.8297 21.1932 40.091C20.5305 40.371 19.8399 40.511 19.1212 40.511C17.6465 40.511 16.3959 40.007 15.3692 38.999C14.3519 37.9817 13.8432 36.7357 13.8432 35.261ZM16.4192 33.637C16.1485 34.1317 16.0132 34.6683 16.0132 35.247C16.0132 35.8257 16.1485 36.3623 16.4192 36.857C16.6992 37.3423 17.0772 37.7343 17.5532 38.033C18.0385 38.3223 18.5705 38.467 19.1492 38.467C19.7372 38.467 20.2645 38.3223 20.7312 38.033C21.2165 37.7437 21.5992 37.3517 21.8792 36.857C22.1499 36.3623 22.2852 35.8257 22.2852 35.247C22.3039 34.379 22.0005 33.6277 21.3752 32.993C20.7499 32.349 20.0079 32.0317 19.1492 32.041C18.5705 32.041 18.0385 32.1857 17.5532 32.475C17.0772 32.755 16.6992 33.1423 16.4192 33.637ZM25.56 35.261C25.56 34.5517 25.7 33.8657 25.98 33.203C26.26 32.5403 26.638 31.9803 27.114 31.523C27.5713 31.0657 28.1407 30.6923 28.822 30.403C29.494 30.1323 30.18 29.997 30.88 29.997C31.6267 29.997 32.3173 30.1323 32.952 30.403C33.596 30.6737 34.156 31.0377 34.632 31.495C35.0987 31.9617 35.472 32.517 35.752 33.161C36.0227 33.8143 36.158 34.5003 36.158 35.219C36.158 35.947 36.018 36.633 35.738 37.277C35.4487 37.949 35.0707 38.5137 34.604 38.971C34.1187 39.4563 33.554 39.8297 32.91 40.091C32.2473 40.371 31.5567 40.511 30.838 40.511C29.3633 40.511 28.1127 40.007 27.086 38.999C26.0687 37.9817 25.56 36.7357 25.56 35.261ZM28.136 33.637C27.8653 34.1317 27.73 34.6683 27.73 35.247C27.73 35.8257 27.8653 36.3623 28.136 36.857C28.416 37.3423 28.794 37.7343 29.27 38.033C29.7553 38.3223 30.2873 38.467 30.866 38.467C31.454 38.467 31.9813 38.3223 32.448 38.033C32.9333 37.7437 33.316 37.3517 33.596 36.857C33.8667 36.3623 34.002 35.8257 34.002 35.247C34.0207 34.379 33.7173 33.6277 33.092 32.993C32.4667 32.349 31.7247 32.0317 30.866 32.041C30.2873 32.041 29.7553 32.1857 29.27 32.475C28.794 32.755 28.416 33.1423 28.136 33.637ZM42.0928 34.869L47.4128 34.869L47.4128 35.667C47.4128 36.9083 47.0815 37.935 46.4188 38.747C46.1015 39.139 45.7421 39.461 45.3408 39.713C44.5475 40.245 43.6235 40.511 42.5688 40.511C41.7848 40.511 41.0661 40.371 40.4128 40.091C39.7501 39.8203 39.1948 39.447 38.7468 38.971C37.7668 37.9723 37.2768 36.7357 37.2768 35.261C37.2768 34.309 37.5195 33.4177 38.0048 32.587C38.4901 31.775 39.1341 31.1403 39.9368 30.683C40.7395 30.2257 41.6261 29.997 42.5968 29.997C43.8381 29.997 44.8648 30.3143 45.6768 30.949C46.4421 31.537 46.9415 32.2557 47.1748 33.105L45.1168 33.735C45.0048 33.2777 44.7155 32.8717 44.2488 32.517C43.7821 32.181 43.2221 32.013 42.5688 32.013C42.0088 32.013 41.4815 32.153 40.9868 32.433C40.5015 32.713 40.1235 33.1003 39.8528 33.595C39.5635 34.0897 39.4188 34.6403 39.4188 35.247C39.4188 35.8443 39.5495 36.3903 39.8108 36.885C40.0815 37.3797 40.4595 37.7717 40.9448 38.061C41.4301 38.3597 41.9715 38.509 42.5688 38.509C43.2315 38.509 43.8101 38.3503 44.3048 38.033C44.7715 37.7157 45.0701 37.3003 45.2008 36.787L42.0928 36.787L42.0928 34.869Z" fill="#960E89" fill-opacity="1.000000" fill-rule="evenodd"/>
	</g>
	<rect id="card3" rx="1.500000" width="49.000000" height="69.000000" transform="translate(0.500000 0.500000)" stroke="#FFD762" stroke-opacity="1.000000" stroke-width="1.000000"/>
</svg>
