<svg width="50.000000" height="70.000000" viewBox="0 0 50 70" fill="none" xmlns="http://www.w3.org/2000/svg" xmlns:xlink="http://www.w3.org/1999/xlink">
	<desc>
			Created with Pixso.
	</desc>
	<defs>
		<clipPath id="clip27_1132">
			<rect id="horse 1" width="42.000000" height="42.000000" transform="translate(4.000000 14.000000)" fill="white" fill-opacity="0"/>
		</clipPath>
		<clipPath id="clip27_1131">
			<rect id="card1" rx="1.500000" width="49.000000" height="69.000000" transform="translate(0.500000 0.500000)" fill="white" fill-opacity="0"/>
		</clipPath>
		<linearGradient id="paint_linear_27_1133_0" x1="24.462616" y1="14.104980" x2="24.462616" y2="55.553738" gradientUnits="userSpaceOnUse">
			<stop stop-color="#960E89"/>
			<stop offset="1.000000" stop-color="#19125D"/>
		</linearGradient>
	</defs>
	<rect id="card1" rx="1.500000" width="49.000000" height="69.000000" transform="translate(0.500000 0.500000)" fill="#66BF95" fill-opacity="1.000000"/>
	<g clip-path="url(#clip27_1131)">
		<rect id="horse 1" width="42.000000" height="42.000000" transform="translate(4.000000 14.000000)" fill="#FFFFFF" fill-opacity="0"/>
		<g clip-path="url(#clip27_1132)">
			<path id="Vector" d="M39.3325 14.105L39.3325 14.63L39.2275 14.63L39.2275 14.7612L39.1226 14.7612L39.1226 14.8662L39.0176 14.8662L39.0176 14.9712L38.8076 14.9712L38.8076 15.0762L38.7026 15.0762L38.7026 15.1812C38.6855 15.1839 38.6689 15.1867 38.6514 15.1894C38.6338 15.1954 38.6157 15.2014 38.5977 15.2075L38.5713 15.2862L38.4663 15.2862L38.4663 15.3912L38.2563 15.4175L38.2563 15.4962C38.2173 15.5091 38.2173 15.5091 38.1772 15.5225L38.1514 15.6012L37.9414 15.6275L37.9414 15.7325L37.8101 15.7325L37.8101 15.8375L37.6001 15.8375L37.6001 15.9425L37.4951 15.9425L37.4951 16.0475L37.2852 16.0475L37.2852 16.1525L37.0747 16.1787L37.0747 16.2575C37.0581 16.2601 37.0415 16.263 37.0239 16.2656C37.0063 16.2717 36.9883 16.2777 36.9697 16.2837L36.9438 16.3625L36.7339 16.3887L36.7339 16.4937L36.5239 16.4937L36.5239 16.5987L36.3135 16.5987L36.3135 16.7037L36.1826 16.7037L36.1826 16.8087L35.9727 16.8087L35.9727 16.9137L35.7627 16.9137L35.7627 17.0187C35.7017 17.0274 35.6411 17.036 35.5786 17.045L35.5522 17.1237L35.3423 17.15L35.3423 17.2287L35.2114 17.255L35.2114 17.3337C35.1826 17.3408 35.1538 17.3479 35.1245 17.355C35.0298 17.3773 35.0298 17.3773 34.9849 17.4287C34.9487 17.465 34.9487 17.465 34.8779 17.47C34.8579 17.4684 34.8384 17.4666 34.8174 17.465L34.8174 17.57L34.6074 17.57L34.6074 17.675L34.3975 17.675L34.3975 17.78L34.1875 17.78L34.1875 17.885L34.0562 17.885L34.0562 17.99L33.8462 17.99L33.8462 18.095L33.6362 18.095L33.6362 18.2C33.5581 18.2086 33.4805 18.2173 33.3999 18.2262L33.3999 18.3312L33.1899 18.3312L33.1899 18.4362L32.98 18.4362L32.98 18.5412L32.77 18.5412L32.77 18.6462L32.5601 18.6462L32.5601 18.7512L32.4287 18.7512L32.4287 18.8562L32.1401 18.8825L32.1401 18.9612L32.0088 18.9612L32.0088 19.0662L31.7988 19.0925L31.7988 19.1712C31.7207 19.1799 31.6426 19.1886 31.5625 19.1975L31.5625 19.3025L31.3525 19.3025L31.3525 19.4075L31.1426 19.4075L31.1426 19.5125L30.9326 19.5387L30.9326 19.6175L30.7227 19.6437L30.7227 19.7225L30.5913 19.7225L30.5913 19.8275L30.3813 19.8275L30.3813 19.9325L30.1714 19.9587L30.1714 20.0375C30.1562 20.0404 30.1416 20.0432 30.1265 20.0461C30.1069 20.0504 30.0879 20.0545 30.0679 20.0587C30.0488 20.0627 30.0293 20.0666 30.0098 20.0708C29.9937 20.0771 29.9775 20.0834 29.9614 20.09L29.9351 20.1687C29.8745 20.1774 29.8135 20.1861 29.751 20.195L29.7251 20.2737C29.6646 20.2824 29.6035 20.291 29.541 20.3L29.5151 20.3787L29.3311 20.3787L29.3311 20.4837C29.3145 20.4864 29.2974 20.4893 29.2803 20.4919C29.2622 20.4979 29.2446 20.5039 29.2261 20.51L29.1997 20.5887C29.1392 20.5974 29.0786 20.606 29.0161 20.615L28.9897 20.6937C28.9292 20.7024 28.8687 20.7111 28.8062 20.72L28.7798 20.7987L28.5698 20.825L28.5698 20.9037L28.3599 20.93L28.3599 21.035L28.1499 21.035L28.1499 21.14L27.9399 21.14L27.9399 21.245L27.73 21.2712L27.7036 21.35L27.5986 21.35L27.5986 21.455L27.3887 21.455L27.3887 21.6912L27.4673 21.6912L27.4937 21.9012L27.5986 21.9012L27.5986 22.1112L27.7036 22.1112L27.7036 22.3212L27.8086 22.3212L27.8086 22.5312L27.9136 22.5312L27.9399 22.8462L28.0186 22.8462L28.0186 23.1875C27.9219 23.2116 27.8486 23.2164 27.751 23.2153C27.7227 23.2151 27.6943 23.2148 27.665 23.2148C27.6436 23.2143 27.6221 23.214 27.6001 23.2137L27.5737 23.1087L27.4688 23.0825L27.4688 23.0037L27.3638 22.9775L27.3638 22.7675L27.2588 22.7675L27.2324 22.5575L27.1538 22.5575C27.1499 22.5323 27.1499 22.5323 27.1455 22.5066C27.1396 22.4887 27.1338 22.4709 27.1274 22.4525C27.1016 22.4438 27.0757 22.4352 27.0488 22.4262L27.0225 22.2162L26.9175 22.2162L26.9175 22.1112L26.8125 22.1112L26.8125 21.9012L26.7075 21.9012L26.7075 21.7962L26.6025 21.7962L26.6025 21.875L26.5239 21.875L26.5239 22.2162L26.6025 22.2162C26.6318 22.3328 26.6318 22.4464 26.6304 22.5654C26.6304 22.5848 26.6299 22.6042 26.6299 22.6244C26.6299 22.6719 26.6294 22.7197 26.6289 22.7672L26.7339 22.7672L26.7339 23.6335L26.8389 23.6335L26.8652 24.5785L26.9438 24.5785L26.9438 24.7097C26.918 24.7184 26.8916 24.7271 26.8652 24.736L26.8652 24.8147L26.9438 24.8147L26.9702 25.3397L27.0488 25.3397L27.0488 25.471L27.1538 25.471L27.1538 25.576L27.2588 25.576L27.2588 25.681L27.3638 25.681L27.3901 25.891L27.4951 25.891L27.4951 25.996L27.6001 25.996L27.6001 26.1272L27.7051 26.1272L27.7051 26.2322L27.8101 26.2322L27.8101 26.3372L27.915 26.3372L27.915 26.5472L28.02 26.5472L28.02 26.6522L28.125 26.6522C28.1289 26.6774 28.1289 26.6774 28.1333 26.7032C28.1392 26.721 28.145 26.7388 28.1514 26.7572C28.1772 26.7659 28.2031 26.7745 28.23 26.7835L28.2563 26.9672L28.3613 26.9935L28.3613 27.0985L28.4663 27.0985L28.4663 27.2035L28.5713 27.2035L28.5713 27.3085L28.6763 27.3085L28.6763 27.4135L28.7812 27.4397L28.7812 27.5447L28.8862 27.571L28.8862 27.6497L28.9912 27.676L28.9912 27.7547L29.0962 27.781L29.0962 27.8597L29.2012 27.8597L29.2275 27.9385C29.2798 27.9702 29.2798 27.9702 29.3325 27.991L29.3325 28.0435L29.7524 28.0697L29.7524 27.9647L29.8574 27.9647L29.8574 27.8335L29.936 27.8335L29.936 27.676L29.8574 27.676L29.8574 27.5447L29.7524 27.5447L29.7524 27.4397L29.6475 27.4397L29.6475 27.3347L29.5161 27.3085L29.5161 27.2297L29.4111 27.2297L29.4111 27.1247L29.3062 27.1247L29.3062 27.0197L29.2012 26.9935L29.2012 26.8885L29.0962 26.8885L29.0962 26.7835L28.9912 26.7835L28.9912 26.6785L28.8862 26.6522L28.8599 26.4685L28.7812 26.4685L28.7812 26.3372C28.7646 26.3346 28.7476 26.3317 28.7305 26.3291C28.7124 26.3231 28.6948 26.317 28.6763 26.311C28.6475 26.2246 28.6475 26.1603 28.6484 26.0697C28.6489 26.0414 28.6489 26.0128 28.6489 25.9834C28.6494 25.9506 28.6494 25.9506 28.6499 25.9172L28.5449 25.891L28.5449 25.156L28.6499 25.156L28.6763 25.0247L28.7549 25.0247L28.7812 24.9197L29.0962 24.9197L29.0962 24.841C29.1855 24.8139 29.2671 24.8116 29.3589 24.8118L29.4561 24.8118C29.5078 24.8118 29.5078 24.8118 29.5605 24.8121C29.5962 24.8121 29.6318 24.8123 29.668 24.8123C29.7617 24.8123 29.8555 24.8126 29.9487 24.8129C30.0444 24.8131 30.1406 24.8134 30.2373 24.8134C30.4253 24.8137 30.6128 24.8142 30.8018 24.8147L30.8281 24.631L30.7231 24.631L30.6968 24.421L30.5918 24.3947L30.5918 24.316C30.5396 24.3073 30.4878 24.2986 30.4341 24.2897L30.4082 24.1847L30.2769 24.1847L30.2769 24.0797L30.1719 24.0797L30.1719 23.9747L30.0669 23.9747L30.0669 23.8697L29.9619 23.8697C29.958 23.8445 29.958 23.8445 29.9536 23.8188C29.9478 23.8009 29.9414 23.7831 29.9355 23.7647C29.9097 23.756 29.8833 23.7474 29.8569 23.7385L29.8306 23.5285L29.752 23.5285L29.752 23.4235C29.7778 23.4148 29.8037 23.4062 29.8306 23.3972C29.8496 23.3442 29.8496 23.3442 29.8569 23.2922L29.9619 23.2922L29.9619 23.1872L30.1455 23.1872L30.1719 23.0822L30.4082 23.0822L30.4082 23.0035C30.4941 22.9746 30.5586 22.9746 30.6494 22.9756C30.6777 22.9759 30.7061 22.9762 30.7354 22.9762C30.7686 22.9767 30.7686 22.9767 30.8018 22.9772L30.8018 22.8722L32.2192 22.8722L32.2192 22.9772C32.2427 22.977 32.2666 22.9767 32.291 22.9762C32.3374 22.9759 32.3374 22.9759 32.3848 22.9756C32.4155 22.9754 32.4468 22.9749 32.478 22.9746C32.5605 22.9772 32.5605 22.9772 32.6392 23.0035L32.6392 23.0822L32.7705 23.0822L32.7705 23.1872L32.9805 23.2135L33.0068 23.2922C33.0327 23.3009 33.0586 23.3095 33.0854 23.3185L33.0854 23.3972L33.2954 23.4235L33.2954 23.5285L33.4004 23.5285L33.4268 23.7385L33.5317 23.7385L33.5317 23.8435L33.6367 23.8435L33.6367 23.9485L33.7417 23.9747L33.7417 24.1847L33.8467 24.1847L33.8467 24.3947L33.9517 24.3947L33.9517 24.7097L34.0566 24.7097L34.0566 25.681L33.9517 25.7072L33.9517 25.996L33.8467 26.0222L33.8467 26.206L33.7417 26.2322L33.7417 26.4422L33.6367 26.4685L33.6104 26.5735L33.5317 26.5735L33.5054 26.6785L33.4268 26.6785C33.4229 26.7037 33.4229 26.7037 33.4185 26.7294C33.4126 26.7473 33.4067 26.7651 33.4004 26.7835C33.3745 26.7921 33.3486 26.8008 33.3218 26.8097C33.29 26.8622 33.29 26.8622 33.269 26.9147L33.2168 26.9147L33.1641 27.0197L33.0854 27.0197L33.0591 27.1247L32.9805 27.1247L32.9541 27.2297L32.8755 27.2297L32.8491 27.3347L32.6655 27.3347L32.6392 27.4397L32.5342 27.4397L32.5078 27.5447L32.4292 27.5447L32.4028 27.6497L32.3242 27.6497L32.3506 27.9385C32.3765 27.9471 32.4023 27.9558 32.4292 27.9647L32.4556 28.831L32.5342 28.831L32.5605 29.4872L32.6392 29.4872C32.6719 29.662 32.668 29.8337 32.6655 30.0122L32.7441 30.0122C32.7681 30.0928 32.7734 30.1642 32.7729 30.248C32.7729 30.2726 32.7729 30.297 32.7729 30.3225C32.7725 30.3477 32.7725 30.3732 32.772 30.3994C32.772 30.4251 32.772 30.4511 32.772 30.4776C32.7715 30.5412 32.771 30.6049 32.7705 30.6685L32.8755 30.6685L32.8755 30.9835L32.9805 30.9835L32.9805 31.0885L33.0854 31.0885L33.0854 31.1935L33.2954 31.2197L33.3218 31.2985C33.3745 31.3176 33.3745 31.3176 33.4268 31.3247L33.4268 31.4035L33.6367 31.4297L33.6367 31.5347L33.8467 31.5347L33.8467 31.6397L34.0303 31.6397L34.0566 31.7447L34.188 31.771L34.188 31.8497L34.3716 31.8497L34.3979 31.9547L34.5029 31.981L34.5029 32.0597C34.5635 32.0684 34.624 32.0771 34.6865 32.086L34.7129 32.191L34.8179 32.2172L34.8179 32.926L34.7129 32.9522L34.6865 33.0835L34.6079 33.0835L34.6079 33.346L34.5029 33.3722L34.4766 33.5035L34.3979 33.5035C34.3994 33.545 34.3994 33.545 34.4014 33.5872C34.3984 33.6804 34.3857 33.7358 34.3457 33.8185L34.293 33.8185L34.2666 34.0022L34.1616 34.0285L34.1616 34.2122L34.0566 34.2385L34.0303 34.3697L33.978 34.3697L33.9517 34.5535L33.8467 34.5797L33.8467 34.7897L33.7417 34.7897L33.7417 34.9997L33.6367 35.026C33.6382 35.0682 33.6382 35.0682 33.6396 35.1113C33.6372 35.2008 33.6313 35.2415 33.584 35.3147L33.5317 35.3147L33.5054 35.551L33.4268 35.551L33.4004 35.761C33.3745 35.7696 33.3486 35.7783 33.3218 35.7872L33.2954 35.971C33.2695 35.9796 33.2437 35.9883 33.2168 35.9972L33.1904 36.2072L33.0854 36.2072L33.0854 36.4172L32.9805 36.4172L32.9805 36.6272L32.8755 36.6272L32.8755 36.8372L32.7705 36.8372L32.7441 37.0735L32.6655 37.0735L32.6392 37.2835L32.5605 37.2835L32.5342 37.4147L32.4556 37.4147L32.4292 37.7035L32.3242 37.7035L32.3242 37.9135C32.2983 37.9221 32.2725 37.9308 32.2456 37.9397L32.2192 38.1497L32.1143 38.1497L32.1143 38.3597L32.0093 38.3597L32.0093 38.596L31.9043 38.596L31.9043 38.806L31.7993 38.806C31.7998 38.8548 31.7998 38.8548 31.8008 38.9044C31.8013 38.9808 31.7974 39.0477 31.7729 39.121L31.6943 39.121L31.668 39.331L31.563 39.331L31.563 39.4622L31.4844 39.4622L31.458 39.646C31.4321 39.6546 31.4058 39.6633 31.3794 39.6722C31.3599 39.7253 31.3599 39.7253 31.353 39.7772L31.248 39.7772L31.248 39.8822L31.1431 39.8822L31.1431 39.9872L31.0381 39.9872L31.0381 40.0922L30.9331 40.0922L30.9331 40.1972L30.8281 40.1972L30.8281 40.3022C30.8027 40.3062 30.8027 40.3062 30.7769 40.3104C30.7593 40.3164 30.7412 40.3224 30.7231 40.3285L30.6968 40.4072C30.6709 40.4159 30.6445 40.4246 30.6182 40.4335L30.5918 40.5122C30.5312 40.5209 30.4702 40.5295 30.4082 40.5385L30.3818 40.6435L30.2769 40.6435L30.2769 40.7485L30.1455 40.7485L30.1455 40.8535L29.9619 40.8535L29.9619 40.9585L29.752 40.9847L29.752 41.0635L29.6206 41.0635L29.6206 41.1685L29.4106 41.1685L29.4106 41.2735L29.1216 41.2997L29.0957 41.3785L28.8853 41.4047L28.8594 41.4835C28.7676 41.5223 28.6685 41.5116 28.5703 41.5097L28.5703 41.6147L28.2554 41.6147L28.2554 41.7197L27.9141 41.7197L27.9141 41.8247L27.5991 41.851L27.5991 41.9297L27.2842 41.956L27.2842 42.0347L26.8643 42.061L26.8379 42.1397L26.4966 42.166L26.4966 42.2447C26.436 42.2534 26.3755 42.2621 26.313 42.271L26.313 42.4547L26.3916 42.4547L26.3916 42.5597L26.4966 42.586L26.5229 42.7697L26.6279 42.796L26.6279 42.8747L26.7329 42.901L26.7329 43.006L26.8379 43.006L26.8379 43.111L26.9429 43.1372L26.9429 43.216L27.0479 43.2422L27.0479 43.321L27.3628 43.321L27.3892 43.216L27.4678 43.216L27.4678 43.0322L27.5728 43.006L27.5991 42.8747L27.6777 42.8747L27.7041 42.7172L27.8091 42.691L27.8354 42.5597L28.019 42.5597L28.0454 42.4547C28.0713 42.4634 28.0977 42.472 28.124 42.481L28.124 42.5597L28.2554 42.586L28.2554 42.6647C28.2812 42.6734 28.3076 42.682 28.334 42.691C28.3638 42.7668 28.3638 42.8403 28.3633 42.9212C28.3628 42.9445 28.3628 42.9677 28.3628 42.9918C28.3628 43.016 28.3623 43.0401 28.3618 43.065C28.3618 43.0897 28.3618 43.1141 28.3618 43.1396C28.3613 43.2 28.3608 43.2606 28.3604 43.321L28.4653 43.3472L28.4653 43.531L28.5703 43.5572L28.5703 43.6622L28.6753 43.6885L28.6753 43.7672L28.7803 43.7935L28.7803 43.8722L28.8853 43.8985L28.8853 43.9772L28.9902 44.0035L28.9902 44.0822L29.1216 44.1085L29.1216 44.1872L29.2266 44.2135L29.2266 44.2922L29.3315 44.3185L29.3315 44.3972L29.4365 44.4235L29.4365 44.5022L29.5156 44.5022L29.5156 44.6072L29.6465 44.6335L29.6465 44.7122L29.8569 44.7385L29.8569 44.8172L29.9355 44.8172L29.9619 43.111C29.9878 43.1023 30.0137 43.0937 30.0405 43.0847L30.0669 42.4547L30.1719 42.4547L30.1719 42.1397L30.2769 42.1397L30.2769 42.0085L30.3818 42.0085L30.3818 41.7985L30.4868 41.7985L30.4868 41.6935L30.5918 41.6935L30.5918 41.5885L30.6968 41.5885L30.7231 41.3785C30.7837 41.3698 30.8442 41.3611 30.9067 41.3522L30.9331 41.1685L31.1431 41.1422L31.1431 41.0372L31.248 41.0372L31.248 40.9322L31.353 40.9322L31.353 40.8272L31.458 40.8272L31.458 40.7222L31.5894 40.7222L31.5894 40.6172L31.6943 40.6172L31.6943 40.5122L31.7729 40.5122L31.7993 40.4072L31.8779 40.4072L31.9043 40.3022L31.9829 40.3022L32.0093 40.171L32.0879 40.171L32.1143 40.066L32.1929 40.066L32.2192 39.8822C32.2451 39.8736 32.271 39.8649 32.2979 39.856L32.3242 39.6722L32.4292 39.646L32.4292 39.4622L32.5342 39.436L32.5342 39.226C32.5601 39.2173 32.5864 39.2086 32.6128 39.1997L32.6392 38.806L32.7441 38.7797L32.7441 38.3597L32.8491 38.3335L32.8491 38.0447C32.9741 37.993 33.0581 37.9919 33.1904 38.0185L33.1904 38.1235L33.2954 38.1235L33.2954 38.2285L33.4004 38.2547C33.4038 38.2986 33.4038 38.2986 33.4072 38.3434C33.4155 38.44 33.4155 38.44 33.481 38.4763C33.4976 38.481 33.5142 38.486 33.5317 38.491L33.5317 38.5697C33.5576 38.5784 33.5835 38.587 33.6104 38.596L33.6367 38.7797L33.7417 38.806L33.7417 38.9897L33.8467 39.016L33.8467 39.0947L33.9517 39.121L33.9517 39.3047L34.0566 39.331L34.083 39.5147C34.1089 39.5234 34.1348 39.532 34.1616 39.541L34.188 39.7247C34.2139 39.7334 34.2397 39.742 34.2666 39.751L34.293 39.961L34.3979 39.9872L34.3979 40.171L34.5029 40.1972L34.5029 40.4072L34.6079 40.4335L34.6079 41.0372L34.7129 41.0635C34.7139 41.264 34.7139 41.4651 34.7144 41.6646C34.7144 41.7328 34.7148 41.8008 34.7148 41.8691C34.7153 41.967 34.7153 42.0649 34.7158 42.1631C34.7158 42.1938 34.7158 42.2245 34.7158 42.256L34.7158 42.3419C34.7163 42.3794 34.7163 42.3794 34.7163 42.4177C34.7129 42.481 34.7129 42.481 34.6865 42.5597L34.6079 42.5597C34.6089 42.6062 34.6089 42.6062 34.6099 42.6537C34.6104 42.6946 34.6108 42.7353 34.6113 42.7763C34.6118 42.7968 34.6123 42.817 34.6128 42.8382C34.6143 43.0249 34.6143 43.0249 34.5557 43.1112L34.5029 43.1112L34.5029 43.4L34.3979 43.4525L34.3979 43.6362C34.3726 43.6428 34.3726 43.6428 34.3472 43.6494C34.2886 43.683 34.2886 43.683 34.2803 43.7389C34.2739 43.7922 34.27 43.8455 34.2666 43.8987L34.188 43.8987L34.1616 44.1087L34.083 44.1087L34.0566 44.3187L33.9517 44.3187L33.9517 44.5287L33.8467 44.5287L33.8467 44.7387L33.7417 44.7387L33.7417 44.9487L33.6367 44.9487L33.6104 45.08L33.5317 45.08L33.5054 45.29L33.4004 45.29L33.4004 45.395L33.2954 45.395L33.2954 45.5L33.2168 45.5L33.1904 45.6312L33.1118 45.6312L33.0854 45.815L32.9805 45.815L32.9805 45.9462L32.8755 45.9462L32.8755 46.0512L32.7705 46.0512L32.7705 46.1562L32.6655 46.1562L32.6392 46.3662L32.5605 46.3662L32.5605 47.1275L32.6392 47.1275C32.665 47.3215 32.6685 47.5107 32.667 47.7076C32.667 47.753 32.667 47.753 32.667 47.7992C32.6665 47.8732 32.666 47.947 32.6655 48.021L32.7441 48.021C32.772 48.1788 32.7734 48.3308 32.772 48.4909C32.772 48.5164 32.772 48.5418 32.772 48.5681C32.7715 48.6303 32.771 48.6928 32.7705 48.755L32.8755 48.755L32.8755 49.5162L32.9805 49.5162L33.0068 50.1462C33.0327 50.1549 33.0586 50.1636 33.0854 50.1725L33.0854 50.6975L33.1904 50.6975L33.1904 51.1175L33.0854 51.1175L33.0854 51.2487L32.9805 51.2487L32.9805 51.3537L32.8755 51.3537L32.8755 51.4587L32.7705 51.4587L32.7705 51.5637L32.6655 51.5637L32.6655 51.6687L32.5605 51.6687L32.5605 51.7737L32.4292 51.7737L32.4292 51.8787L32.3242 51.8787L32.3242 51.9837C32.2637 51.9924 32.2031 52.0011 32.1406 52.01L32.1143 52.115L32.0093 52.115L32.0093 52.22L31.9043 52.22L31.9043 52.325L31.7729 52.325L31.7729 52.43L31.5894 52.43L31.5894 52.535C31.5723 52.5376 31.5557 52.5405 31.5381 52.5431C31.5205 52.5492 31.5024 52.5552 31.4844 52.5612L31.458 52.64L31.353 52.64L31.353 52.745L31.248 52.745L31.248 52.85L31.1431 52.85L31.1431 52.955L30.9331 52.9812L30.9331 53.0862L30.8281 53.0862L30.8281 53.1912L30.7231 53.1912L30.6968 53.2962L30.5918 53.2962L30.5918 53.4012L30.4868 53.4012L30.4868 53.5062L30.2769 53.5062L30.2769 53.6112L30.1719 53.6112L30.1719 53.7162L30.0669 53.7162L30.0669 53.8212L29.8569 53.8475L29.8306 53.9525L29.752 53.9525L29.7256 54.0575L29.6206 54.0575L29.6206 54.1625L29.5156 54.1625L29.5156 54.2675L29.4365 54.2675L29.4106 54.4775L29.3315 54.4775L29.3057 54.6087L29.2266 54.6087L29.2266 54.7925L29.1216 54.8187C29.1226 54.8676 29.1226 54.8676 29.1235 54.9172C29.1235 54.9936 29.1201 55.0605 29.0957 55.1337L29.0166 55.1337L28.9902 55.3438L28.9116 55.3438L28.8853 55.475L28.7803 55.475L28.7803 55.5537L28.5444 55.5537L28.5444 55.4487L28.334 55.4487L28.334 55.37C28.2563 55.3613 28.1782 55.3527 28.0981 55.3438L28.0981 55.2387L27.6777 55.2387L27.6777 55.1337L27.3628 55.1337L27.3628 55.0287L27.1528 55.0287L27.1528 54.9237C27.1372 54.924 27.1211 54.9243 27.105 54.9248C27.0732 54.925 27.0732 54.925 27.0415 54.9253C27.0205 54.9256 27 54.9261 26.9785 54.9264C26.9189 54.9237 26.8687 54.914 26.8115 54.8975L26.8115 54.8187L26.6016 54.7925L26.6016 54.6087L26.7065 54.6087L26.7065 54.4775L26.8115 54.4775L26.8115 54.3725L26.9165 54.3725L26.9165 54.2675L27.0479 54.2675L27.0479 54.1625L27.1528 54.1625L27.1528 54.0575L27.3369 54.0575L27.3369 53.9525L27.4678 53.9525L27.4678 53.8475L27.5728 53.8475L27.5728 53.7425L27.6777 53.7425L27.7041 53.6112L27.7832 53.6112L27.8091 53.5062L27.8882 53.5062L27.9141 53.4012L28.019 53.4012L28.019 53.2962L28.124 53.2962L28.124 53.1912L28.229 53.1912L28.229 53.0862L28.334 53.0862L28.334 52.9812L28.4395 52.9812L28.4395 52.8762L28.5444 52.8762L28.5444 52.7712L28.6494 52.7712L28.6753 52.64L28.7544 52.64L28.7803 52.535L28.8853 52.535L28.8853 52.43L28.9902 52.43L28.9902 52.325L29.0957 52.325L29.0957 52.22L29.2007 52.22L29.2007 52.115L29.3057 52.115L29.3057 52.01L29.4106 52.01L29.4106 51.905L29.5156 51.905L29.5415 51.7737L29.6206 51.7737L29.6465 51.6687L29.752 51.6687L29.752 51.5637L29.8569 51.5637L29.8569 51.4587L29.9619 51.4587L29.9619 51.3537L30.0669 51.3537L30.0669 51.2487L30.1719 51.2487L30.1719 51.1437L30.2769 51.1437L30.2769 51.0387C30.2935 51.0361 30.3105 51.0332 30.3276 51.0306C30.3457 51.0246 30.3633 51.0185 30.3818 51.0125L30.4082 50.9337C30.4341 50.9251 30.46 50.9164 30.4868 50.9075C30.5059 50.8545 30.5059 50.8545 30.5132 50.8025L30.6182 50.8025L30.6182 50.6975L30.7231 50.6975L30.7231 50.5925L30.6182 50.5925C30.6143 50.5673 30.6143 50.5673 30.6099 50.5416C30.604 50.5237 30.5977 50.5059 30.5918 50.4875C30.5659 50.4788 30.5396 50.4702 30.5132 50.4612L30.4868 50.3825C30.4336 50.3633 30.4336 50.3633 30.3818 50.3562L30.3818 50.2512L30.2769 50.2512L30.2769 50.1462L30.1719 50.1462L30.1719 50.0412L30.0669 50.0412L30.0669 49.9362L29.9619 49.9362L29.9619 49.8312L29.8569 49.8312L29.8569 49.6212L29.752 49.6212L29.752 49.5162L29.6206 49.49L29.6206 49.385L29.5156 49.385L29.5156 49.28L29.4106 49.28L29.4106 49.07L29.3057 49.07L29.3057 48.965L29.2007 48.965L29.2007 48.755L29.0957 48.755L29.0693 48.545L28.9902 48.545L28.9902 48.4137L28.8853 48.4137L28.8853 48.2037L28.7803 48.2037L28.7544 47.9937L28.6753 47.9937C28.6406 47.8893 28.6475 47.7877 28.6494 47.6787L28.5444 47.6787L28.5444 47.4425L28.4395 47.4425L28.4395 47.1275L28.334 47.1275L28.334 46.9175L28.229 46.9175L28.2031 46.6025C28.1768 46.5938 28.1509 46.5851 28.124 46.5762L28.0981 46.2612L28.019 46.2612L28.019 46.0512L27.9141 46.0512L27.8882 45.8412L27.7832 45.815L27.7832 45.7362L27.5728 45.71L27.5728 45.605L27.4678 45.605L27.4678 45.5L27.3369 45.5L27.3369 45.4212C27.2759 45.4126 27.2153 45.4039 27.1528 45.395L27.1528 45.29L27.0215 45.29L27.0215 45.185L26.8379 45.185L26.8115 45.08L26.7065 45.0537L26.7065 44.975L26.6016 44.9487L26.6016 44.87C26.541 44.8613 26.4805 44.8527 26.418 44.8438L26.3916 44.7387L26.2603 44.7125L26.2603 44.6337L26.0767 44.6337L26.0767 44.5287L25.9717 44.5287L25.9717 44.4237L25.7617 44.4237L25.7617 44.3187L25.6567 44.3187L25.6567 44.2137L25.4468 44.1875L25.4204 44.1087C25.3677 44.0896 25.3677 44.0896 25.3154 44.0825L25.3154 44.0037C25.2549 43.9951 25.1943 43.9864 25.1318 43.9775L25.1055 43.8987C25.0522 43.8796 25.0522 43.8796 25.0005 43.8725L25.0005 43.7675L24.7905 43.7675L24.7905 43.6625L24.5806 43.6625L24.5806 43.5575L24.4492 43.5575L24.4492 43.4525L24.2393 43.4525L24.2393 43.3475L24.0293 43.3212L24.0029 43.2425C23.9771 43.2338 23.9512 43.2252 23.9243 43.2162L23.9243 43.1375L23.7144 43.1112L23.688 43.0325C23.6348 43.0133 23.6348 43.0133 23.583 43.0062L23.583 42.9275L23.373 42.9012L23.373 42.7962L23.1631 42.7962L23.1631 42.6912L23.0581 42.6912L23.0581 42.5862L22.8481 42.5862L22.8481 42.4812L22.6382 42.4812L22.6382 42.3762L22.4277 42.35L22.4019 42.2712C22.3486 42.2521 22.3486 42.2521 22.2969 42.245L22.2969 42.1662L22.0869 42.14L22.0605 42.0612L21.8506 42.035L21.8506 41.93L21.6406 41.93L21.6406 41.825L21.4307 41.825L21.4307 41.72L21.2207 41.72L21.2207 41.615L21.0103 41.615L20.9844 41.51C20.9556 41.5105 20.9268 41.511 20.8975 41.5116C20.8003 41.51 20.8003 41.51 20.7217 41.4837L20.7217 41.405C20.6436 41.3963 20.5659 41.3877 20.4854 41.3787L20.4854 41.3L20.2754 41.2737L20.249 41.195L19.9341 41.1687L19.9341 41.09L19.8291 41.09L19.8291 41.1687L19.6191 41.1687L19.6191 41.2737C19.6025 41.2764 19.5854 41.2792 19.5684 41.2819C19.5503 41.2879 19.5327 41.2939 19.5142 41.3L19.4878 41.3787C19.4619 41.3874 19.436 41.3961 19.4092 41.405L19.3828 41.4837C19.3569 41.4924 19.3311 41.5011 19.3042 41.51C19.2852 41.563 19.2852 41.563 19.2778 41.615L19.0679 41.615L19.0679 41.72L18.9629 41.72L18.9629 41.825L18.8579 41.825L18.8579 41.93L18.7529 41.93L18.7529 42.035L18.6479 42.035L18.6479 42.14C18.6313 42.1426 18.6143 42.1455 18.5972 42.1481C18.5791 42.1542 18.5615 42.1602 18.543 42.1662L18.5166 42.245C18.4907 42.2536 18.4648 42.2623 18.438 42.2712L18.4116 42.35C18.3857 42.3586 18.3599 42.3673 18.333 42.3762C18.314 42.4293 18.314 42.4293 18.3066 42.4812L18.1494 42.4812L18.123 42.5862L18.0181 42.5862L17.9917 42.6912L17.9131 42.6912L17.8867 42.7962L17.8081 42.7962L17.7817 42.9012L17.7031 42.9012C17.7002 42.918 17.6973 42.9348 17.6948 42.9521C17.686 42.9789 17.686 42.9789 17.6768 43.0062C17.6509 43.0149 17.6245 43.0236 17.5981 43.0325L17.5718 43.1112C17.5459 43.1199 17.5195 43.1286 17.4932 43.1375C17.4736 43.1905 17.4736 43.1905 17.4668 43.2425L17.3618 43.2425L17.3618 43.3475L17.2568 43.3475L17.2568 43.4525L17.1519 43.4525L17.1519 43.5575L17.0469 43.5575L17.0469 43.6625C17.0298 43.6651 17.0132 43.668 16.9956 43.6706C16.978 43.6767 16.96 43.6827 16.9419 43.6887L16.9155 43.7675L16.8105 43.7675L16.8105 43.8725L16.7056 43.8725L16.7056 43.9775C16.645 43.9861 16.584 43.9948 16.5215 44.0037L16.4956 44.1087L16.3906 44.1087L16.3906 44.2137L16.2856 44.2137L16.2856 44.3187L16.1807 44.3187L16.1807 44.4237L16.0757 44.4237L16.0757 44.5287L15.9707 44.5287L15.9707 44.6337L15.8652 44.6337L15.8652 44.7387L15.7603 44.765L15.7344 44.87L15.6294 44.87L15.6294 44.975L15.5244 44.975L15.5244 45.08L15.4194 45.08L15.4194 45.185L15.3145 45.185L15.3145 45.29L15.209 45.29L15.209 45.395L15.104 45.395L15.0781 45.5262L14.999 45.5262L14.9731 45.6312L14.894 45.6312L14.8682 45.7362L14.7891 45.7362L14.7632 45.92L14.6582 45.92L14.6582 46.0512L14.5527 46.0512L14.5527 46.1562L14.4478 46.1562L14.4478 46.2612L14.3428 46.2612L14.3428 46.3662L14.2378 46.3662L14.2378 46.4713L14.1328 46.4713L14.1069 46.6812L14.002 46.6812L14.002 46.7862C13.9756 46.7949 13.9497 46.8036 13.9229 46.8125C13.9038 46.8655 13.9038 46.8655 13.8965 46.9175L13.7915 46.9175L13.7915 47.0225L13.6865 47.0225L13.6865 47.2325L13.5815 47.2325L13.5815 47.3375L13.4766 47.3375L13.4766 47.4425L13.3716 47.4425L13.3457 47.5737L13.2666 47.5737L13.2402 47.7575C13.2144 47.7661 13.1885 47.7748 13.1616 47.7838C13.1426 47.8368 13.1426 47.8368 13.1353 47.8887L13.0303 47.8887L13.0303 47.9937L12.9253 47.9937L12.9253 48.125L12.8467 48.125C12.8335 48.2158 12.8335 48.2158 12.8203 48.3087L12.7417 48.3087C12.7393 48.3255 12.7363 48.3423 12.7334 48.3596C12.7275 48.3775 12.7217 48.3954 12.7153 48.4137C12.6895 48.4224 12.6636 48.4311 12.6367 48.44C12.6235 48.5308 12.6235 48.5308 12.6104 48.6237C12.5845 48.6324 12.5586 48.6411 12.5317 48.65C12.5186 48.7408 12.5186 48.7408 12.5054 48.8337L12.4004 48.86L12.4004 49.07L12.2954 49.07L12.2954 49.28L12.1904 49.28L12.1904 49.4112C12.0044 49.4138 11.8228 49.4138 11.6392 49.385L11.6392 49.28L11.4292 49.28L11.4292 49.175L11.1929 49.175L11.1929 49.07L10.8779 49.07L10.8779 48.965L10.668 48.965L10.668 48.86L10.4316 48.86L10.4316 48.755L10.1167 48.755L10.1167 48.65C10.0869 48.6505 10.0571 48.651 10.0264 48.6516C9.93311 48.65 9.93311 48.65 9.90674 48.6237C9.90479 48.5752 9.90479 48.5263 9.90527 48.4778C9.90527 48.4513 9.90576 48.4245 9.90576 48.3972C9.90625 48.3767 9.90625 48.3563 9.90674 48.335L10.0117 48.335L10.0117 48.23L10.2217 48.2037L10.2217 48.0987L10.3267 48.0987L10.3267 47.9937L10.458 47.9937L10.458 47.8887L10.563 47.8887L10.563 47.7838L10.7729 47.7575L10.7993 47.6525L10.8779 47.6525L10.9043 47.5475L10.9829 47.5475L10.9829 47.4425L11.0879 47.4425L11.0879 47.3375L11.1929 47.3375L11.1929 47.2325L11.2979 47.2325L11.2979 47.1275L11.4028 47.1012C11.416 47.0104 11.416 47.0104 11.4292 46.9175L11.5342 46.9175L11.5605 46.7862L11.6392 46.7862L11.6655 46.6812L11.7441 46.6812L11.7705 46.55L11.8491 46.55L11.8491 46.3925L11.9541 46.3662L11.9805 46.235L12.0591 46.235L12.0854 46.13L12.1641 46.13L12.1904 46.025L12.269 46.025L12.2954 45.92L12.374 45.92C12.3872 45.8292 12.3872 45.8292 12.4004 45.7362L12.5054 45.71L12.5317 45.605L12.6104 45.605L12.6367 45.4737L12.7153 45.4737L12.7417 45.3687L12.8203 45.3687L12.8203 45.2637L12.9253 45.2637L12.9253 45.08L13.0566 45.0537L13.0566 44.9487L13.1616 44.9487L13.188 44.8175L13.2402 44.8175L13.2666 44.7125L13.3457 44.7125L13.3716 44.5287L13.4766 44.5025L13.4766 44.3975L13.5815 44.3975L13.5815 44.2925L13.6865 44.2925L13.7129 44.0825C13.7388 44.0738 13.7651 44.0652 13.7915 44.0562L13.8179 43.9775L13.8965 43.9775L13.8965 43.8725L14.002 43.8463L14.0278 43.7412L14.1328 43.7412L14.1328 43.5575C14.1592 43.5488 14.1851 43.5402 14.2119 43.5312C14.231 43.4782 14.231 43.4782 14.2378 43.4262L14.3428 43.4262L14.3428 43.3212L14.4478 43.3212L14.4478 43.2162L14.5527 43.2162L14.5527 43.0062L14.6582 43.0062L14.6841 42.875L14.7632 42.875L14.7891 42.77L14.8682 42.77L14.894 42.56L14.999 42.56L14.999 42.455L15.0781 42.455L15.104 42.35L15.1831 42.35L15.209 42.14L15.2881 42.14L15.3145 42.035L15.3931 42.035L15.4194 41.9037L15.498 41.9037L15.5244 41.72C15.5503 41.7113 15.5762 41.7027 15.603 41.6937C15.6221 41.6407 15.6221 41.6407 15.6294 41.5887L15.7344 41.5887L15.7603 41.4575L15.813 41.4575C15.8389 41.3667 15.8389 41.3667 15.8652 41.2737L15.9443 41.2737L15.9707 41.1425L16.0493 41.1425L16.0757 41.0375L16.1543 41.0375L16.1543 40.8537L16.2593 40.8275L16.2856 40.7225L16.3643 40.7225L16.3906 40.6175L16.4692 40.6175L16.4956 40.4337L16.6006 40.4075L16.627 40.2762L16.7056 40.2762L16.7319 40.1712L16.7842 40.1712L16.8105 39.9875L16.9155 39.9612L16.9155 39.8562L17.0205 39.8562L17.0469 39.725L17.1255 39.725L17.1255 39.4625L17.2305 39.4362L17.2305 39.1212L17.1255 39.1212L17.1255 39.0162L17.0205 39.0162L17.0205 38.8062L16.9155 38.8062L16.9155 38.675L16.8105 38.675L16.8105 38.57L16.7056 38.57L16.7056 38.465L16.5742 38.465L16.5742 38.36L16.3906 38.36L16.3643 38.2812L16.0493 38.255L16.0493 38.15L15.5503 38.15L15.5244 38.045L15.104 38.045L15.104 37.94C15.082 37.9402 15.0601 37.9405 15.0371 37.941C14.8726 37.9421 14.7144 37.9392 14.5542 37.9137L14.5542 37.835L14.0029 37.8087L14.0029 37.73L13.688 37.7037L13.688 37.5987C13.48 37.6074 13.2729 37.6161 13.0576 37.625L13.0576 37.7037L12.9526 37.73L12.9268 37.835L12.8477 37.835L12.8213 37.94L12.7427 37.94L12.7163 38.045L12.6377 38.045L12.6113 38.15L12.5327 38.15L12.5063 38.255L12.4014 38.255L12.3755 38.36L12.2964 38.36L12.2705 38.465L12.1914 38.465L12.165 38.57L12.0864 38.57L12.0864 38.675L11.9814 38.675L11.9814 38.78L11.8765 38.78C11.8638 38.8448 11.8638 38.8448 11.8501 38.9112L11.7715 38.9112L11.7451 39.0162L11.6401 39.0162L11.6401 39.1212L11.5352 39.1212L11.5352 39.2262C11.4746 39.2349 11.4141 39.2436 11.3516 39.2525L11.3252 39.3312L11.2202 39.3312L11.2202 39.4625L11.1152 39.4625L11.1152 39.6462L11.2202 39.6725L11.2202 39.7512L11.3252 39.7775L11.3252 39.8562L11.4302 39.8825L11.4302 39.9612L11.5352 39.9875L11.5352 40.0662C11.5522 40.0688 11.5688 40.0717 11.5864 40.0744C11.604 40.0804 11.6221 40.0865 11.6401 40.0925C11.6533 40.1316 11.6533 40.1316 11.6665 40.1712C11.7192 40.203 11.7192 40.203 11.7715 40.2237L11.7715 40.3025L11.8765 40.3287L11.8765 40.6437L11.7715 40.6437L11.7715 40.7487L11.6665 40.7487L11.6665 40.8537L11.5352 40.8537L11.5352 40.9587L11.3252 40.9587L11.3252 41.0637L11.2202 41.0637L11.2202 41.1687L11.0103 41.1687L11.0103 41.2737L10.8003 41.3L10.8003 41.3787C10.7222 41.3874 10.6445 41.3961 10.564 41.405L10.564 41.4837C10.4741 41.5137 10.4043 41.5126 10.3096 41.5116C10.2788 41.5113 10.2476 41.511 10.2158 41.511C10.1919 41.5105 10.1685 41.5103 10.144 41.51L10.1177 41.3787L10.0127 41.3525L10.0127 41.0637L9.90771 41.0375L9.88135 40.5387C9.85547 40.5301 9.82959 40.5214 9.80273 40.5125L9.77637 40.0925C9.75049 40.0838 9.72461 40.0752 9.69775 40.0662C9.68506 39.767 9.68506 39.767 9.67139 39.4625L9.61914 39.4625C9.60596 39.3454 9.60596 39.3454 9.59277 39.2262L9.69775 39.2L9.69775 39.0162L9.80273 38.99L9.80273 38.8062L9.90771 38.78C9.92041 38.7151 9.92041 38.7151 9.93408 38.6487L9.98633 38.6487L10.0391 38.465L10.1177 38.465C10.1309 38.4001 10.1309 38.4001 10.144 38.3337L10.2227 38.3337L10.249 38.2287L10.3276 38.2287L10.354 38.1237L10.4326 38.1237L10.459 37.94L10.564 37.9137L10.5903 37.8087L10.6689 37.8087L10.6953 37.7037L10.7739 37.7037C10.7871 37.6389 10.7871 37.6389 10.8003 37.5725L10.8525 37.5725L10.8789 37.3887L10.9839 37.3625L10.9839 37.2575L11.0889 37.2575L11.0889 37.1525L11.1938 37.1525L11.2202 36.9688L11.3252 36.9425L11.3252 36.8375L11.4302 36.8375L11.4302 36.7325C11.4561 36.7238 11.4824 36.7151 11.5088 36.7062C11.5283 36.6532 11.5283 36.6532 11.5352 36.6012L11.6401 36.6012L11.6401 36.4962L11.7192 36.4962L11.7451 36.2862L11.8501 36.2862L11.8501 36.1812L11.9551 36.1812L11.9551 36.0762L12.0601 36.0762L12.0601 35.9712L12.165 35.9712C12.1782 35.9064 12.1782 35.9064 12.1914 35.84L12.2705 35.84L12.2964 35.735L12.3755 35.735L12.4014 35.63L12.5063 35.63L12.5063 35.525L12.6113 35.525L12.6113 35.42L13.3726 35.42L13.3726 35.525C13.3901 35.525 13.4072 35.525 13.4248 35.5247C13.604 35.5242 13.7822 35.5239 13.9604 35.5237C14.0273 35.5234 14.0942 35.5231 14.1606 35.5229C14.2568 35.5226 14.3525 35.5226 14.4497 35.5224C14.479 35.5224 14.5093 35.5221 14.54 35.5221L14.6245 35.5221C14.6489 35.5218 14.6733 35.5218 14.6987 35.5218C14.7593 35.5247 14.811 35.5342 14.8691 35.5512L14.8691 35.63C14.8843 35.6297 14.9004 35.6297 14.9165 35.6295C14.9878 35.6289 15.0601 35.6287 15.1313 35.6284C15.1558 35.6281 15.1807 35.6279 15.2061 35.6276C15.3501 35.6271 15.4868 35.635 15.6309 35.6562L15.6309 35.735L15.9463 35.735L15.9722 35.63L16.0513 35.63L16.0249 34.1337C15.999 34.1251 15.9727 34.1164 15.9463 34.1075C15.9453 33.977 15.9448 33.8468 15.9448 33.7164L15.9438 33.5833C15.9438 33.5195 15.9438 33.456 15.9434 33.3922C15.9434 33.3622 15.9434 33.3622 15.9434 33.3318C15.9434 33.284 15.9443 33.2365 15.9463 33.1887C15.9722 33.1625 15.9722 33.1625 16.0742 33.1596C16.1196 33.1596 16.165 33.1596 16.2104 33.1599C16.2344 33.1599 16.2578 33.1601 16.2827 33.1601C16.3589 33.1601 16.4355 33.1604 16.5122 33.1609C16.564 33.1609 16.6152 33.1612 16.667 33.1612C16.7944 33.1614 16.9214 33.162 17.0479 33.1625L17.0479 33.2412L19.0952 33.2412L19.0952 33.1625C19.3379 33.1538 19.5811 33.1452 19.8301 33.1362L19.8301 33.0575L20.2505 33.0312L20.2505 32.9525C20.3511 32.9289 20.4438 32.9233 20.5469 32.9247C20.5752 32.9249 20.603 32.9252 20.6318 32.9252C20.6636 32.9257 20.6636 32.9257 20.6963 32.9262L20.6963 32.8475C20.7871 32.8194 20.8706 32.8186 20.9639 32.8197C20.9922 32.8199 21.0205 32.8202 21.0498 32.8202C21.0713 32.8207 21.0928 32.821 21.1147 32.8212L21.1411 32.7162L21.4302 32.7162L21.4561 32.6112L21.666 32.6112L21.6924 32.5062L21.8501 32.5062L21.8501 32.4012C21.875 32.3973 21.875 32.3973 21.9009 32.3931C21.9189 32.3871 21.9365 32.381 21.9551 32.375L21.981 32.2962C22.0073 32.2876 22.0332 32.2789 22.0601 32.27C22.0791 32.2169 22.0791 32.2169 22.0864 32.165L22.1914 32.165L22.1914 31.955L22.2964 31.955L22.2964 31.5612L22.0073 31.5612L21.981 31.64L21.771 31.6662L21.771 31.745C21.6665 31.7799 21.5649 31.7731 21.4561 31.7712L21.4561 31.8762L21.1147 31.8762L21.1147 31.9812L20.6948 32.0075L20.6948 32.0862L20.1699 32.1125L20.1699 32.1912L19.5137 32.2175L19.5137 32.2962C18.6973 32.3275 18.6973 32.3275 18.3062 32.3225L18.3062 32.4012L18.2275 32.4012L18.2275 32.3225L18.0176 32.3225L17.9912 32.4012L17.5449 32.4012L17.5449 32.3225C17.5171 32.3228 17.4888 32.323 17.4595 32.3235C17.0317 32.3264 16.6064 32.3112 16.1787 32.2962L16.1523 32.1912L16.0474 32.165L16.0474 32.0862L15.9424 32.06L15.9424 31.8762L15.8374 31.85L15.811 31.5612C15.7852 31.5526 15.7593 31.5439 15.7324 31.535C15.7026 31.4211 15.708 31.3148 15.7178 31.199C15.7192 31.1806 15.7202 31.1625 15.7217 31.1439C15.7251 31.0992 15.7285 31.0549 15.7324 31.0103L15.8374 30.984L15.8374 30.879L15.9424 30.879L15.9688 30.774L16.0474 30.774L16.0474 30.669L16.2573 30.669L16.2573 30.564L16.3623 30.564L16.3623 30.459L16.5723 30.4327L16.5723 30.354C16.5977 30.3501 16.5977 30.3501 16.6235 30.3459C16.6411 30.3398 16.6592 30.3338 16.6772 30.3278L16.7036 30.249L16.9136 30.2227L16.9136 30.1177L17.0186 30.1177L17.0186 30.0128L17.1235 30.0128L17.1235 29.9077L17.2285 29.9077L17.2285 29.8027L17.3335 29.8027L17.3599 29.6715L17.4385 29.6715L17.4648 29.5665L17.5435 29.5665L17.5698 29.3565L17.6748 29.3565L17.6748 29.2515L17.7798 29.2515L17.7798 29.0415L17.8848 29.0415L17.8848 28.8315L17.9897 28.8315L17.9897 28.4902L18.0947 28.4902L18.0947 28.0703L18.1997 28.044L18.1997 27.9915L18.1211 27.9915L18.0947 27.7815L17.8062 27.7815L17.7798 28.1752C17.7539 28.1839 17.728 28.1926 17.7012 28.2015L17.6748 28.4902L17.5698 28.5165L17.5698 28.7265C17.5439 28.7352 17.5181 28.7438 17.4912 28.7527L17.4648 28.9365L17.3599 28.9627L17.3599 29.1465L17.2549 29.1728L17.2285 29.2777L17.1499 29.2777L17.1235 29.3828L17.0449 29.3828L17.0186 29.4877L16.9399 29.4877L16.9136 29.5927L16.835 29.5927L16.8086 29.6978L16.7036 29.6978L16.6772 29.8027L16.5986 29.8027L16.5723 29.9077C16.5117 29.9164 16.4512 29.9251 16.3887 29.934L16.3887 30.039L16.2837 30.039L16.2573 30.144L16.0737 30.144L16.0737 30.249L15.8638 30.249L15.8638 30.354L15.6538 30.3802L15.6274 30.459L15.4175 30.459L15.4175 30.564L15.2075 30.5902L15.2075 30.669C15.1294 30.6777 15.0513 30.6863 14.9712 30.6953L14.9712 30.774C14.8955 30.7992 14.8477 30.8031 14.769 30.8018C14.748 30.8016 14.7271 30.8013 14.7051 30.8013C14.6807 30.8008 14.6807 30.8008 14.6562 30.8002L14.6562 30.9052L14.4463 30.9052L14.4463 31.0103L14.3149 31.0103L14.3149 31.1152L14.21 31.1152L14.21 31.2202C14.1494 31.2289 14.0884 31.2376 14.0264 31.2465L14 31.3515L13.9209 31.3515L13.895 31.5615L13.79 31.5615L13.79 31.7452L13.6851 31.7452L13.6851 31.8765L13.5801 31.8765L13.5801 31.9815L13.4751 31.9815L13.4751 32.0865L13.3701 32.0865L13.3701 32.1915L13.1597 32.2177L13.1597 32.2965L12.6084 32.2965L12.6084 32.2177L12.2935 32.1915C12.272 32.1057 12.2646 32.0479 12.2656 31.9618C12.2661 31.9408 12.2661 31.9198 12.2661 31.8983C12.2671 31.8823 12.2671 31.8665 12.2676 31.8503L12.3726 31.8503L12.3726 31.7452L12.5034 31.7452L12.5034 31.6403L12.7139 31.614L12.7139 31.5352L12.8188 31.5352L12.8188 31.4302L12.9238 31.4302C12.9365 31.3654 12.9365 31.3654 12.9497 31.299L13.0288 31.299L13.0547 31.089L13.1597 31.089L13.1597 30.879L13.2646 30.879L13.2646 30.669L13.3701 30.669L13.3701 30.459L13.4751 30.459L13.4751 30.3278L13.5801 30.3278L13.5801 30.1177L13.6851 30.1177L13.6851 30.0128L13.79 30.0128L13.8159 29.8027C13.8423 29.7941 13.8682 29.7854 13.895 29.7765L13.9209 29.6978L14 29.6978L14.0264 29.5665L14.105 29.5665L14.1313 29.4615L14.21 29.4615L14.2363 29.3565L14.3149 29.3565L14.3413 29.1465L14.5513 29.1465L14.5513 29.0415L14.6562 29.0415L14.6562 28.9365L14.7612 28.9365L14.7612 28.8315L14.8662 28.8315L14.8662 28.7265C14.8911 28.7226 14.8911 28.7226 14.917 28.7184C14.9351 28.7123 14.9526 28.7063 14.9712 28.7003L14.9976 28.6215C15.0234 28.6128 15.0493 28.6042 15.0762 28.5952L15.1025 28.5165L15.1812 28.5165L15.2075 28.3853L15.2861 28.3853L15.3125 28.2802L15.3911 28.2802L15.3911 28.0965L15.4961 28.0703L15.5225 27.8865C15.5483 27.8778 15.5742 27.8692 15.6011 27.8603C15.6055 27.8429 15.6099 27.8256 15.6143 27.8077C15.6187 27.7904 15.623 27.7731 15.6274 27.7552C15.6533 27.7466 15.6792 27.7379 15.7061 27.729L15.7324 27.3352C15.7583 27.3266 15.7842 27.3179 15.811 27.309L15.811 26.049C15.7852 26.0403 15.7593 26.0317 15.7324 26.0227C15.7314 25.9931 15.731 25.9634 15.7305 25.9327C15.729 25.8939 15.7275 25.855 15.7256 25.8159C15.7256 25.7965 15.7251 25.7768 15.7246 25.7566C15.7231 25.6928 15.7231 25.6928 15.7061 25.6028C15.6558 25.5607 15.6558 25.5607 15.6011 25.5502L15.6011 25.3927L15.4961 25.3665L15.4961 25.2615L15.3911 25.2353L15.3911 25.1565L15.2861 25.1302L15.2861 25.0515L15.1025 25.0515L15.1025 24.9465L14.9976 24.9465L14.9712 24.8677C14.9106 24.8591 14.8501 24.8504 14.7876 24.8415L14.7876 24.7365L14.5513 24.7365L14.5513 24.6315L14.3413 24.6053L14.3413 24.5265L14.1313 24.5002L14.105 24.4215C14.0444 24.4128 13.9834 24.4042 13.9209 24.3952L13.895 24.3165C13.8418 24.2973 13.8418 24.2973 13.79 24.2903L13.79 24.1852L13.5801 24.1852L13.5801 24.0802L13.4751 24.0802L13.4751 23.9753L13.3438 23.949L13.3438 23.8702L13.2646 23.8702L13.2646 23.7653L13.1597 23.739L13.1597 23.529L13.0547 23.5027L13.0288 23.1877L12.9497 23.1877C12.915 23.0833 12.9219 22.9817 12.9238 22.8727L12.8188 22.8727L12.8188 22.4528L12.9238 22.4265L12.9238 22.3215L13.0288 22.3215L13.0547 22.2165L13.5801 22.2165L13.5801 22.1378C13.6914 22.1065 13.7998 22.1078 13.9131 22.1081L13.9834 22.1081C14.0601 22.1078 14.1362 22.1078 14.2129 22.1081C14.2661 22.1081 14.3193 22.1081 14.3726 22.1078C14.4839 22.1078 14.5952 22.1078 14.7056 22.1081C14.8486 22.1083 14.9917 22.1081 15.1338 22.1081C15.2437 22.1078 15.3535 22.1078 15.4644 22.1081C15.5171 22.1081 15.5698 22.1081 15.6226 22.1078C15.6958 22.1078 15.7695 22.1081 15.8433 22.1081C15.8755 22.1081 15.8755 22.1081 15.9092 22.1078C16.0029 22.1083 16.0874 22.1123 16.1768 22.1378L16.1768 22.2165L16.4917 22.2165L16.5181 22.3215C16.5596 22.3207 16.5596 22.3207 16.6016 22.3199C16.6841 22.3212 16.7534 22.3286 16.833 22.3477L16.833 22.4265L17.1479 22.4528L17.1479 22.5577L17.3843 22.5577L17.3843 22.6365C17.4448 22.6451 17.5054 22.6538 17.5679 22.6628L17.5942 22.7415L17.8042 22.7677L17.8042 22.8727L18.0142 22.8727L18.0142 22.9778L18.1982 22.9778L18.2241 23.0827C18.2852 23.0914 18.3457 23.1001 18.4082 23.109L18.4082 23.1877L18.6182 23.214L18.6445 23.2928C18.6973 23.3119 18.6973 23.3119 18.7495 23.319L18.7495 23.424L18.8545 23.424L18.8545 23.5027L19.0645 23.529L19.0645 23.634L19.1694 23.634L19.1694 23.739L19.2744 23.739L19.2744 23.844L19.4844 23.844L19.4844 23.949L19.6157 23.9753L19.6157 24.0802L19.7207 24.0802L19.7207 24.1852L19.8257 24.1852L19.8257 24.2903L19.9307 24.2903L19.9307 24.3952L20.0356 24.3952L20.0356 24.5002L20.1406 24.5002L20.1406 24.6053L20.2456 24.6053L20.2456 24.7102L20.377 24.7102L20.377 24.8152L20.4819 24.8152L20.4819 24.9203L20.5869 24.9465L20.5869 25.0515L20.6919 25.0515L20.6919 25.1565L20.7969 25.1565L20.8232 25.3402C20.8491 25.3489 20.875 25.3576 20.9019 25.3665L20.9019 25.4715L21.0068 25.4715L21.0068 25.5765L21.1118 25.5765L21.1382 25.7865L21.2432 25.8127L21.2432 25.8915L21.3481 25.9178L21.3481 26.1015L21.4531 26.1015L21.4531 26.2328L21.5581 26.2328L21.5581 26.3377L21.6631 26.3377L21.6631 26.5477L21.7681 26.5477L21.7944 26.7578L21.873 26.7578C21.8755 26.7745 21.8784 26.7914 21.8813 26.8087C21.8901 26.8354 21.8901 26.8354 21.8994 26.8627C21.9253 26.8714 21.9512 26.8801 21.978 26.889L22.0044 27.0728C22.0303 27.0814 22.0562 27.0901 22.083 27.099L22.1094 27.309L22.2144 27.309L22.2144 27.519L22.3193 27.519L22.3193 27.6502L22.4243 27.6502L22.4243 27.8603L22.5293 27.8603L22.5293 28.1752L22.6343 28.1752L22.6606 28.3853C22.6865 28.3939 22.7124 28.4026 22.7393 28.4115L22.7656 28.7003L22.8442 28.7003L22.8706 28.9365L22.9492 28.9365L22.9756 29.1465C23.0015 29.1552 23.0273 29.1638 23.0542 29.1728C23.0933 29.2643 23.0825 29.3636 23.0806 29.4615L23.1855 29.4877L23.1855 29.5927C23.2461 29.5841 23.3066 29.5754 23.3691 29.5665C23.3687 29.5169 23.3687 29.5169 23.3677 29.4665C23.3662 29.3922 23.3716 29.3499 23.3955 29.2777L23.4741 29.2777L23.5005 29.0415L23.5791 29.0415L23.6055 28.8052L23.6841 28.8052L23.7104 28.5952L23.7891 28.5952L23.8154 28.2802L23.9204 28.2802L23.9204 28.0703L24.0254 28.0703L24.0254 27.8603L24.1304 27.8603L24.1304 27.729L24.2354 27.729L24.2354 27.519L24.3403 27.519L24.3403 27.414L24.4453 27.414L24.4453 27.309L24.5767 27.309L24.5767 27.204L24.6816 27.204L24.6816 27.2827L24.9966 27.309L24.9966 27.414L25.207 27.414L25.207 27.519L25.417 27.5453L25.417 27.624L25.5479 27.6502L25.5479 27.729L25.8633 27.7552L25.8633 27.8603L26.0732 27.8603L26.0732 27.939L26.4932 27.9652L26.4932 27.7552L26.3882 27.729L26.3882 27.6502L26.3091 27.6502L26.3091 27.5453L26.2041 27.5453L26.2041 27.4402L26.0991 27.4402C26.0952 27.415 26.0952 27.415 26.0913 27.3893C26.085 27.3715 26.0791 27.3536 26.0732 27.3352C26.0469 27.3266 26.021 27.3179 25.9941 27.309L25.9683 27.2303C25.915 27.2111 25.915 27.2111 25.8633 27.204L25.8633 27.099L25.7578 27.099L25.7319 26.9153L25.6528 26.9153C25.6489 26.89 25.6489 26.89 25.645 26.8643C25.6387 26.8465 25.6328 26.8286 25.627 26.8102C25.6006 26.8016 25.5747 26.7929 25.5479 26.784L25.5479 26.679L25.4429 26.679L25.4429 26.469L25.3379 26.469C25.334 26.4438 25.334 26.4438 25.3301 26.4181C25.3237 26.4002 25.3179 26.3824 25.312 26.364C25.2856 26.3553 25.2598 26.3467 25.2329 26.3377L25.207 26.1277L25.1016 26.1277L25.1016 25.839L24.9966 25.839L24.9966 25.1827L24.8916 25.1827L24.8916 24.2903L24.7866 24.2903L24.7607 22.5577C24.7085 22.5664 24.6567 22.5751 24.603 22.584L24.5508 22.6628C24.5244 22.6714 24.4985 22.6801 24.4717 22.689L24.4453 22.7415C24.2729 22.7861 24.0991 22.8008 23.9204 22.794L23.9204 22.8465L23.8154 22.8465L23.8154 22.7677L23.6841 22.7415C23.6802 22.5247 23.6802 22.5247 23.7104 22.4528C23.7363 22.4441 23.7627 22.4354 23.7891 22.4265C23.8086 22.3735 23.8086 22.3735 23.8154 22.3215L23.9204 22.3215L23.9204 22.2165L24.0254 22.2165L24.0254 22.1115L24.2354 22.1115L24.2354 22.0065L24.3403 22.0065L24.3403 21.9015L24.4717 21.9015L24.4717 21.7965L24.5767 21.7965L24.5767 21.6915L24.6816 21.6915L24.6816 21.5602L24.7866 21.5602L24.7866 21.3765C24.813 21.3678 24.8389 21.3592 24.8657 21.3503C24.8848 21.2972 24.8848 21.2972 24.8916 21.2452L24.9966 21.2452L24.9966 21.1403L25.1016 21.1403L25.1016 21.0352L25.207 21.0352L25.207 20.9302C25.4639 20.9106 25.7109 20.8979 25.9683 20.9302L25.9683 20.8253L26.2041 20.8253L26.1519 20.5103C26.126 20.5016 26.0996 20.4929 26.0732 20.484L26.0469 20.3002C26.021 20.2916 25.9946 20.2829 25.9683 20.274L25.9419 20.0902C25.916 20.0816 25.8896 20.0729 25.8633 20.064C25.8545 20.0291 25.8457 19.9939 25.8369 19.959C25.811 19.9503 25.7847 19.9417 25.7578 19.9327C25.7397 19.8719 25.7222 19.8104 25.7056 19.749L25.6528 19.7227C25.6421 19.6618 25.6338 19.6004 25.627 19.539C25.6006 19.5303 25.5747 19.5217 25.5479 19.5128C25.543 19.4623 25.5381 19.4122 25.5332 19.3618C25.5303 19.3337 25.5278 19.3059 25.5249 19.277C25.522 19.2072 25.5264 19.1584 25.5479 19.0927L25.7578 19.0927L25.7578 18.9877L25.8633 18.9877L25.8633 19.0927L25.9683 19.0927L25.9683 19.1978L26.0732 19.1978L26.0732 19.3027L26.1782 19.3027L26.2041 19.5128L26.2832 19.5128C26.2871 19.5379 26.2871 19.5379 26.291 19.5637C26.2974 19.5815 26.3032 19.5994 26.3091 19.6177C26.3354 19.6264 26.3613 19.6351 26.3882 19.644L26.4141 19.8278C26.4404 19.8364 26.4663 19.8451 26.4932 19.854L26.5195 20.064L26.5981 20.064L26.6245 20.274L27.0181 20.274L27.0181 20.169L27.1494 20.169L27.1494 20.064L27.3594 20.064L27.3594 19.959L27.5693 19.959L27.5693 19.854L27.7793 19.854L27.7793 19.749L27.9893 19.7227L28.0156 19.6177L28.1992 19.6177L28.2256 19.5128L28.3306 19.5128L28.3306 19.434L28.5405 19.4077L28.5405 19.3027L28.7505 19.3027L28.7505 19.1978L28.9604 19.1715L28.9868 19.0927C29.0474 19.0841 29.1079 19.0754 29.1704 19.0665L29.1968 18.9877L29.4067 18.9615L29.4067 18.8828L29.6167 18.8565L29.6431 18.7515L29.748 18.7515L29.748 18.6727L29.958 18.6465L29.958 18.5415L30.168 18.5415L30.168 18.4365L30.3779 18.4365L30.3779 18.3315L30.5879 18.3315L30.5879 18.2265L30.7979 18.2003L30.8242 18.1215C30.8848 18.1128 30.9458 18.1042 31.0078 18.0952L31.0342 18.0165L31.2441 17.9902L31.2441 17.9115L31.4541 17.8853L31.4805 17.7802L31.6641 17.7802L31.6904 17.6752L31.8745 17.6752L31.8745 17.5703L31.9795 17.5703L31.9795 17.4652L32.2153 17.4652L32.2153 17.3602L32.4258 17.3602L32.4258 17.2552L32.6357 17.2552L32.6357 17.1502L32.8457 17.124L32.8457 17.0453L33.0557 17.019L33.0557 16.9402C33.1729 16.9271 33.1729 16.9271 33.292 16.914L33.292 16.809L33.502 16.809L33.502 16.704L33.7119 16.704L33.7119 16.599L33.9219 16.599L33.9219 16.494L34.1318 16.494L34.1318 16.389L34.3418 16.3627L34.3418 16.284L34.4731 16.284L34.4731 16.179L34.6831 16.179L34.6831 16.074C34.8003 16.0609 34.8003 16.0609 34.9194 16.0477L34.9194 15.969L35.1294 15.9427L35.1294 15.864L35.3394 15.8377L35.3394 15.7328L35.5493 15.7328L35.5493 15.6277L35.8643 15.6015L35.8643 15.5227L36.0742 15.4965L36.0742 15.4178L36.2056 15.4178L36.2056 15.3127L36.4155 15.3127L36.4155 15.2077C36.5322 15.1949 36.5322 15.1949 36.6519 15.1815L36.6519 15.1028L36.8618 15.0765L36.8618 14.9977L37.0718 14.9715L37.0718 14.8665L37.3081 14.8665L37.3081 14.7615C37.438 14.7486 37.438 14.7486 37.5703 14.7352L37.5703 14.6565L37.7808 14.6302L37.7808 14.5515L37.9907 14.5252L38.0166 14.4465C38.1729 14.4334 38.1729 14.4334 38.332 14.4203L38.332 14.3415C38.4487 14.3284 38.4487 14.3284 38.5679 14.3152L38.5679 14.2365L38.7778 14.2102L38.7778 14.1315C38.8257 14.127 38.873 14.1226 38.9209 14.1184C38.9604 14.1147 38.9604 14.1147 39.001 14.111C39.1104 14.1042 39.2197 14.1053 39.3291 14.1053L39.3325 14.105ZM24.8687 28.2012L24.8687 28.28C24.8081 28.2886 24.7476 28.2973 24.6851 28.3062C24.6499 28.4107 24.6567 28.5123 24.6587 28.6212L24.5537 28.6475L24.5537 28.8312L24.4487 28.8575L24.4487 29.0675L24.3438 29.0675L24.3438 29.2775L24.2388 29.2775L24.2388 29.4087L24.1338 29.4087L24.1338 29.6975L24.0288 29.6975L24.0024 29.9075C23.9634 29.9206 23.9634 29.9206 23.9238 29.9337L23.8975 30.1437L23.8188 30.1437L23.7925 30.3275C23.7534 30.3406 23.7534 30.3406 23.7139 30.3537C23.7109 30.3868 23.708 30.4199 23.7056 30.4537C23.6943 30.5459 23.6792 30.5808 23.6089 30.6425C23.5898 30.711 23.5898 30.711 23.5825 30.7737C23.5435 30.7869 23.5435 30.7869 23.5039 30.8L23.4775 30.9837C23.4385 30.9969 23.4385 30.9969 23.3989 31.01L23.3726 31.22C23.3335 31.2331 23.3335 31.2331 23.2935 31.2462L23.2676 31.5087C23.2285 31.5219 23.2285 31.5219 23.1885 31.535C23.1758 31.6389 23.1758 31.6389 23.1626 31.745C23.1362 31.7537 23.1104 31.7623 23.0835 31.7712L23.0576 31.955C23.0312 31.9637 23.0054 31.9723 22.9785 31.9812C22.9604 32.0421 22.9429 32.1035 22.9263 32.165L22.8735 32.1912C22.8657 32.2214 22.8574 32.2519 22.8491 32.2831C22.8354 32.3285 22.8354 32.3285 22.8213 32.375C22.7954 32.3836 22.769 32.3923 22.7427 32.4012C22.7295 32.5052 22.7295 32.5052 22.7163 32.6112C22.6904 32.6199 22.6641 32.6286 22.6372 32.6375L22.6113 32.8212C22.5854 32.8299 22.5591 32.8386 22.5322 32.8475L22.5063 33.0312C22.48 33.0399 22.4541 33.0486 22.4272 33.0575L22.4272 33.2675L22.3223 33.2675L22.2964 33.4775C22.27 33.4861 22.2441 33.4948 22.2173 33.5037L22.1914 33.6875C22.165 33.6961 22.1392 33.7048 22.1123 33.7137C22.0698 33.8103 22.0845 33.9256 22.0864 34.0287L21.981 34.055L21.981 34.265L21.9023 34.265C21.8774 34.3406 21.8735 34.3884 21.8745 34.4669C21.875 34.4986 21.875 34.4986 21.875 34.5312C21.8755 34.5472 21.876 34.5634 21.876 34.58L21.771 34.58L21.771 34.79L21.666 34.8162L21.666 35.3412L21.561 35.3412L21.561 36.0762L21.666 36.0762C21.666 36.1051 21.666 36.1051 21.6655 36.1348C21.665 36.2224 21.665 36.3101 21.6646 36.3973C21.6646 36.4277 21.6641 36.4582 21.6641 36.4894C21.6641 36.5188 21.6641 36.5479 21.6636 36.5781C21.6631 36.6186 21.6631 36.6186 21.6631 36.6598C21.666 36.7236 21.6743 36.7763 21.6924 36.8369L21.771 36.8369L21.771 37.257L21.876 37.257C21.876 37.2785 21.8755 37.3 21.875 37.3221C21.875 37.3504 21.875 37.3788 21.8745 37.4079C21.8745 37.436 21.874 37.4638 21.8735 37.4927C21.8755 37.5596 21.8828 37.6134 21.9023 37.677L21.981 37.677L21.981 37.9132C22.0073 37.9219 22.0332 37.9305 22.0601 37.9395C22.063 37.9599 22.0664 37.9804 22.0698 38.0017C22.0737 38.0282 22.0781 38.0547 22.083 38.0823C22.0874 38.1088 22.0913 38.1353 22.0957 38.1626C22.1016 38.1841 22.1064 38.2059 22.1123 38.2282L22.165 38.2545C22.1816 38.3259 22.1816 38.3259 22.1943 38.4135C22.2012 38.4571 22.2012 38.4571 22.2075 38.5015C22.2109 38.5238 22.2144 38.5464 22.2173 38.5695C22.2437 38.5781 22.2695 38.5868 22.2964 38.5957L22.3223 38.7794C22.3486 38.7881 22.3745 38.7968 22.4014 38.8057C22.4146 38.8968 22.4146 38.8968 22.4272 38.9895C22.4536 38.9981 22.4795 39.0068 22.5063 39.0157C22.5195 39.1585 22.5195 39.1585 22.5322 39.3045C22.5586 39.3131 22.5845 39.3218 22.6113 39.3307L22.6372 39.5407C22.6636 39.5494 22.6895 39.558 22.7163 39.567C22.7295 39.6581 22.7295 39.6581 22.7427 39.7507C22.7686 39.7594 22.7944 39.768 22.8213 39.7769C22.8394 39.8379 22.8569 39.8993 22.8735 39.9607L22.9263 39.987C22.9346 40.0166 22.9424 40.0465 22.9507 40.0773C22.9697 40.1768 22.9697 40.1768 23.0576 40.2232C23.0708 40.2623 23.0708 40.2623 23.0835 40.302L23.1362 40.3282C23.1445 40.3584 23.1523 40.3889 23.1606 40.4201C23.1699 40.4503 23.1792 40.4807 23.1885 40.512C23.2148 40.5206 23.2407 40.5293 23.2676 40.5382C23.2808 40.6293 23.2808 40.6293 23.2935 40.722C23.3198 40.7306 23.3457 40.7393 23.3726 40.7482C23.3813 40.7831 23.3901 40.8183 23.3989 40.8532C23.4248 40.8619 23.4507 40.8705 23.4775 40.8795L23.5039 41.037C23.5298 41.0456 23.5557 41.0543 23.5825 41.0632C23.6006 41.1241 23.6187 41.1855 23.6348 41.2469L23.6875 41.2732C23.6909 41.2905 23.6948 41.3079 23.6992 41.3257C23.7036 41.343 23.7085 41.3604 23.7139 41.3782C23.7397 41.3869 23.7656 41.3955 23.7925 41.4044C23.8057 41.4955 23.8057 41.4955 23.8188 41.5882L23.9238 41.5882L23.9238 41.6932L24.1338 41.6932L24.1338 41.7982L24.4751 41.7982L24.4751 41.6932L25 41.6932L25 41.5882L25.8662 41.5882L25.8662 41.4832C25.8823 41.4837 25.8989 41.484 25.9155 41.4845C25.9893 41.4861 26.063 41.4872 26.1367 41.4882C26.1626 41.4887 26.1885 41.4895 26.2144 41.49C26.2393 41.4903 26.2637 41.4906 26.2891 41.4908C26.312 41.4913 26.3345 41.4916 26.3579 41.4921C26.4307 41.4811 26.4468 41.4567 26.4961 41.4044C26.5693 41.3945 26.6377 41.3887 26.7114 41.3864C26.731 41.3856 26.7505 41.3845 26.771 41.3837C26.8193 41.3816 26.8677 41.3798 26.916 41.3782L26.9424 41.2995C26.9663 41.2979 26.9897 41.2963 27.0142 41.2947C27.061 41.2913 27.061 41.2913 27.1079 41.2879C27.1387 41.2858 27.1699 41.2837 27.2012 41.2816C27.2847 41.2761 27.2847 41.2761 27.3623 41.2469L27.3887 41.1945C27.4731 41.1803 27.5566 41.1711 27.6416 41.1627C27.689 41.1574 27.7358 41.1498 27.7822 41.142L27.8086 41.0894C27.8799 41.0729 27.8799 41.0729 27.9678 41.0601C27.9971 41.0556 28.0259 41.0511 28.0557 41.0467C28.0781 41.0435 28.1006 41.0401 28.1235 41.037L28.1499 40.9582L28.4385 40.9319L28.4385 40.827L28.6489 40.827L28.6489 40.722C28.6729 40.7225 28.6729 40.7225 28.6978 40.723C28.7188 40.723 28.7402 40.7233 28.7617 40.7235C28.7827 40.7238 28.8037 40.7243 28.8257 40.7246C28.8896 40.7246 28.8896 40.7246 28.9639 40.6957L28.9639 40.6169L29.1738 40.5907L29.1738 40.512L29.3052 40.512L29.3052 40.407L29.5151 40.407L29.541 40.302C29.6021 40.2933 29.6626 40.2846 29.7251 40.2757L29.751 40.197C29.8052 40.1788 29.8052 40.1788 29.8564 40.1707L29.8564 40.0919L30.0664 40.0657L30.0664 39.9607L30.1714 39.9607L30.1714 39.8557L30.2764 39.8557L30.2764 39.7507L30.4072 39.7507L30.4072 39.6457L30.5122 39.6457L30.5122 39.5407L30.6177 39.5407L30.6177 39.4357L30.7227 39.4357L30.7227 39.3307L30.8276 39.3045L30.8276 39.1995L30.9326 39.1995L30.9326 38.9895L31.0376 38.9895L31.0376 38.8582L31.1426 38.8582L31.1426 38.6745L31.2476 38.6745L31.2739 38.4644C31.2998 38.4558 31.3257 38.4471 31.3525 38.4382L31.3789 38.2282L31.4575 38.2282L31.4839 38.0182L31.5625 38.0182L31.5889 37.782L31.6675 37.782L31.6938 37.4932L31.7725 37.4932C31.7749 37.4774 31.7778 37.4617 31.7808 37.4457C31.7988 37.3882 31.7988 37.3882 31.8379 37.353C31.8887 37.2971 31.8901 37.2606 31.8955 37.1863C31.8979 37.1546 31.8979 37.1546 31.9009 37.122C31.9014 37.106 31.9028 37.0898 31.9038 37.0732C31.9297 37.0645 31.9556 37.0559 31.9824 37.047L32.0088 36.9682C32.0347 36.9595 32.0605 36.9509 32.0874 36.942C32.0898 36.9128 32.0928 36.8834 32.0957 36.8532C32.1045 36.8062 32.1045 36.8062 32.1138 36.7582L32.1924 36.7057C32.2104 36.6445 32.228 36.5834 32.2451 36.522L32.2974 36.4957C32.3096 36.4503 32.3096 36.4503 32.3223 36.4038C32.3315 36.3737 32.3403 36.3432 32.3501 36.312C32.376 36.3033 32.4019 36.2946 32.4287 36.2857L32.4287 35.9969L32.2188 35.9969L32.2188 36.0757L32.0088 36.102L32.0088 36.207L31.9038 36.207L31.9038 36.312L31.7988 36.312L31.7988 36.417L31.6675 36.417L31.6675 36.522L31.4839 36.522L31.4575 36.627L31.2739 36.627L31.2476 36.732L31.1426 36.732L31.1426 36.8369C31.0938 36.8362 31.0938 36.8362 31.0439 36.8354C30.9678 36.8351 30.9009 36.8388 30.8276 36.8632L30.8276 36.942L30.4863 36.9682L30.4863 37.047C30.1084 37.0601 30.1084 37.0601 29.7251 37.0732L29.7251 37.1519L29.436 37.1782L29.4102 37.257C29.356 37.2751 29.356 37.2751 29.3052 37.2832L29.3052 37.3882L29.1211 37.3882L29.0947 37.4669C29.0601 37.4756 29.0249 37.4846 28.9897 37.4932L28.9639 37.572C28.9375 37.5806 28.9116 37.5893 28.8848 37.5982L28.8589 37.677C28.7974 37.6945 28.7363 37.7119 28.6748 37.7295L28.6489 37.8082C28.6226 37.8169 28.5967 37.8255 28.5698 37.8345L28.5435 37.9132C28.5176 37.9219 28.4917 37.9305 28.4648 37.9395L28.4126 38.0182C28.3862 38.0269 28.3604 38.0355 28.3335 38.0445L28.3076 38.1232C28.2554 38.1319 28.2036 38.1405 28.1499 38.1494L28.1499 38.2545L28.0186 38.2545L28.0186 38.3595L27.835 38.3595L27.8086 38.4644L27.7036 38.4644L27.7036 38.5695L27.5986 38.5695L27.5986 38.6745L27.3887 38.7007L27.3623 38.7794C27.3086 38.7976 27.3086 38.7976 27.2573 38.8057L27.2573 38.9107L27.1523 38.9107L27.1523 39.0157L26.9688 39.0157L26.9688 39.1207L26.8374 39.1207L26.8374 39.2257L26.7324 39.2257L26.7324 39.3307L26.6274 39.3307L26.6274 39.4357L26.4175 39.462L26.4175 39.5407L26.2861 39.567L26.2861 39.6457L26.0762 39.672L26.0762 39.7507C25.7637 39.7638 25.7637 39.7638 25.4463 39.7769L25.4463 39.672C25.3682 39.6633 25.29 39.6546 25.21 39.6457L25.21 39.567L25 39.5407L25 39.462C24.9219 39.4533 24.8442 39.4446 24.7637 39.4357L24.7637 39.357C24.7031 39.3483 24.6426 39.3396 24.5801 39.3307L24.5801 39.2257L24.4487 39.2257L24.4487 39.1207L24.2651 39.1207L24.2388 38.8057L24.1338 38.8057L24.1602 37.8082L24.2388 37.8082L24.2388 34.4745L24.1338 34.4745L24.1338 34.2382L24.0288 34.2382L24.0288 34.0282L23.9238 34.0282L23.9238 33.8182L23.8188 33.8182L23.8188 33.6082L23.7139 33.6082C23.7139 33.5922 23.7144 33.5759 23.7148 33.5594C23.7148 33.5381 23.7148 33.5168 23.7153 33.4951C23.7153 33.4741 23.7158 33.4531 23.7163 33.4313C23.7163 33.3675 23.7163 33.3675 23.6875 33.2932L23.6089 33.2932C23.5957 33.1373 23.5957 33.1373 23.5825 32.9782L23.5039 32.9782C23.4907 32.6396 23.4907 32.6396 23.4775 32.2957L23.3989 32.2957L23.3989 32.0594L23.4775 32.0594L23.5039 31.5082L23.5825 31.5082L23.6089 31.0882L23.6875 31.0882C23.7222 30.9837 23.7153 30.8821 23.7139 30.7732L23.8188 30.7732L23.8188 30.5632L23.9238 30.5632L23.9238 30.4319L24.0288 30.4319L24.0288 30.2482L24.1338 30.2482L24.1338 30.1169L24.2651 30.1169L24.2651 30.012L24.6851 30.012L24.6851 30.1169L24.895 30.1169L24.895 31.2195L25 31.2195L25 31.5345L25.105 31.5345L25.105 31.6395L25.21 31.6395L25.21 31.7444L25.3149 31.7444L25.3149 31.8495L25.4463 31.8495L25.4463 31.9545L25.6562 31.9545L25.6562 32.0594L25.8662 32.0857L25.8662 32.1645L26.0762 32.1907L26.1025 32.2957L26.2861 32.2957L26.2861 32.4007L26.5225 32.4007L26.5225 32.5057L26.7324 32.5057L26.7324 32.6107L26.9424 32.6107L26.9424 32.7157L27.0737 32.7157L27.0737 32.8207L27.3623 32.8207L27.3623 32.9257C27.4404 32.9344 27.5186 32.943 27.5986 32.952L27.5986 33.0307C27.624 33.0346 27.624 33.0346 27.6494 33.0388C27.6675 33.0449 27.6855 33.0509 27.7036 33.0569L27.73 33.1357L27.9399 33.162L27.9399 33.2407L28.2026 33.2932L28.2285 33.3719L28.4385 33.3982L28.4648 33.477C28.4907 33.4856 28.5171 33.4943 28.5435 33.5032L28.5698 33.582L28.7798 33.6082L28.8062 33.687C28.8247 33.6901 28.8433 33.6933 28.8628 33.6967C28.8867 33.7009 28.9111 33.7053 28.936 33.7101C28.9717 33.7164 28.9717 33.7164 29.0088 33.7229C29.0283 33.7284 29.0483 33.7337 29.0688 33.7395L29.0947 33.792C29.1123 33.7956 29.1294 33.7996 29.1475 33.8035C29.1646 33.8082 29.1821 33.8132 29.1997 33.8182L29.2261 33.897L29.4102 33.897L29.436 34.002C29.4971 34.0106 29.5576 34.0193 29.6201 34.0282L29.6201 34.107C29.6978 34.1156 29.7759 34.1243 29.8564 34.1332L29.8564 34.2119L30.0664 34.2382L30.0664 34.3432L30.2764 34.3432L30.3022 34.4482L30.5913 34.4482L30.5913 34.5532L30.8276 34.5532L30.8276 34.6582L31.2476 34.6844L31.2476 34.7632L31.3525 34.7632L31.3789 34.6844L31.6675 34.6582L31.6675 34.5532L31.8774 34.5532L31.9038 34.4745C31.9297 34.4658 31.9556 34.4571 31.9824 34.4482L32.0088 34.3694C32.0693 34.3608 32.1299 34.3521 32.1924 34.3432L32.2188 34.2645C32.2534 34.2558 32.2886 34.2469 32.3237 34.2382L32.3501 34.1595C32.4531 34.1209 32.563 34.1303 32.6704 34.1316C32.6899 34.1316 32.7095 34.1319 32.7295 34.1319C32.7773 34.1322 32.8257 34.1327 32.8735 34.1332L32.8735 34.2382L32.9785 34.2382L33.0049 34.4482L33.1885 34.4482L33.1885 34.3432L33.2935 34.3432L33.2935 34.1332L33.3984 34.1332L33.3984 33.9232L33.5034 33.897L33.5034 33.687L33.6084 33.687L33.6084 33.582L33.7139 33.582L33.7139 33.3457L33.8188 33.3457L33.8447 33.0569L33.9238 33.0569L33.9497 32.8207L34.0288 32.8207L34.0288 32.637L33.9497 32.637L33.9238 32.5057L33.8188 32.5057L33.8188 32.427L33.6084 32.4007L33.6084 32.322L33.3984 32.2957L33.3984 32.1907C33.3379 32.182 33.2773 32.1734 33.2148 32.1645L33.1885 32.0857C33.1714 32.0815 33.1538 32.0771 33.1362 32.0726C33.1187 32.0684 33.1016 32.0639 33.0835 32.0594L33.0576 31.9807C32.9966 31.972 32.936 31.9634 32.8735 31.9545L32.8472 31.8757C32.8213 31.867 32.7954 31.8584 32.7686 31.8495L32.7422 31.7707C32.6816 31.7621 32.6211 31.7534 32.5586 31.7444L32.5322 31.6657C32.5098 31.6552 32.5098 31.6552 32.4863 31.6444C32.4272 31.6132 32.4272 31.6132 32.3667 31.5345C32.2964 31.4439 32.2227 31.4308 32.1123 31.4032L32.0859 31.3245C32.0601 31.3158 32.0342 31.3071 32.0073 31.2982L31.981 31.2195C31.9551 31.2108 31.9292 31.2021 31.9023 31.1932L31.876 31.1145L31.6924 31.1145L31.6924 31.0095L31.5874 31.0095L31.5874 30.9044L31.4824 30.9044L31.4824 30.7995L31.3774 30.7732L31.3511 30.6682L31.2461 30.6682L31.2461 30.5632L31.1411 30.5632L31.1411 30.4582L31.0361 30.4582L31.0361 30.3532L30.9312 30.3532L30.9312 30.2482L30.8262 30.2482L30.7998 30.0382C30.7739 30.0295 30.748 30.0209 30.7212 30.012L30.6948 29.9332C30.6689 29.9245 30.6431 29.9159 30.6162 29.907L30.5898 29.8282C30.564 29.8195 30.5381 29.8109 30.5112 29.802C30.4932 29.7479 30.4932 29.7479 30.4849 29.697L30.4062 29.697L30.3799 29.487L30.2749 29.487L30.2749 29.2769L30.1699 29.2769L30.1699 29.172L30.0649 29.172L30.0649 29.067L29.75 29.067L29.7236 29.1457C29.4644 29.1476 29.2041 29.1489 28.9468 29.1499C28.8262 29.1502 28.7061 29.1507 28.5845 29.1517C28.4683 29.1525 28.3525 29.153 28.2354 29.153C28.1909 29.1533 28.1465 29.1536 28.1021 29.1541C28.04 29.1546 27.978 29.1546 27.916 29.1546C27.8887 29.1552 27.8887 29.1552 27.8604 29.1554C27.8091 29.1552 27.8091 29.1552 27.7271 29.1457L27.6748 29.067C27.6074 29.0588 27.5449 29.0546 27.4775 29.0538C27.4106 29.053 27.3481 29.0489 27.2808 29.0407C27.2549 29.0016 27.2549 29.0016 27.2285 28.9619C27.1606 28.9491 27.0977 28.9402 27.0298 28.9341C26.9639 28.9278 26.8999 28.92 26.8345 28.9095L26.8081 28.857C26.7578 28.8446 26.7578 28.8446 26.6968 28.8404C26.6743 28.838 26.6519 28.836 26.6289 28.8336C26.605 28.8315 26.5815 28.8297 26.5571 28.8275C26.5337 28.8252 26.5098 28.8228 26.4858 28.8205C26.4268 28.815 26.3682 28.8097 26.3096 28.8044L26.2832 28.7257L25.9946 28.7257L25.9683 28.6207L25.7583 28.6207L25.7583 28.5157L25.5483 28.5157L25.5483 28.4107L25.2334 28.4107L25.2334 28.3057L24.9971 28.3057L24.9971 28.2007L24.8657 28.2007L24.8687 28.2012ZM25 37.0737L25 38.465L25.105 38.465L25.105 38.675L25.21 38.675L25.21 38.78L25.3149 38.78L25.3149 38.885L25.5513 38.885L25.5513 38.99L25.7612 38.99L25.7612 38.885L26.0762 38.885L26.0762 38.78L26.2075 38.78L26.2075 38.675L26.3911 38.675L26.4175 38.5962C26.4434 38.5876 26.4692 38.5789 26.4961 38.57L26.5225 38.4912C26.5483 38.4826 26.5742 38.4739 26.6011 38.465L26.6274 38.3862C26.6533 38.3776 26.6792 38.3689 26.7061 38.36C26.7104 38.3427 26.7148 38.3253 26.7192 38.3075C26.7236 38.2902 26.728 38.2728 26.7324 38.255C26.7583 38.2463 26.7842 38.2377 26.811 38.2287L26.811 37.9137C26.772 37.9006 26.772 37.9006 26.7324 37.8875C26.7192 37.8484 26.7192 37.8484 26.7061 37.8087C26.6802 37.8001 26.6543 37.7914 26.6274 37.7825C26.6143 37.7565 26.6143 37.7565 26.6011 37.73C26.5337 37.7119 26.5337 37.7119 26.4551 37.7006C26.4287 37.6961 26.4019 37.6917 26.3745 37.6872C26.354 37.6841 26.3335 37.6806 26.3125 37.6775C26.2993 37.6384 26.2993 37.6384 26.2861 37.5987L26.0762 37.5987L26.0762 37.4937L25.8662 37.4937L25.8662 37.3887L25.6562 37.3887L25.6562 37.2837L25.5249 37.2837L25.5249 37.1787L25.3149 37.1787L25.3149 37.0737L25 37.0737Z" fill="url(#paint_linear_27_1133_0)" fill-opacity="1.000000" fill-rule="nonzero"/>
			<path id="Vector" d="M37.9414 40.1975L38.7817 40.1975C38.7944 40.2366 38.7944 40.2366 38.8076 40.2762L39.3066 40.3025C39.3193 40.3416 39.3193 40.3416 39.333 40.3812C39.4756 40.3943 39.4756 40.3943 39.6216 40.4075L39.6479 40.5125L39.8579 40.5125L39.8838 40.6175L40.0151 40.6437L40.0151 40.6962L40.1992 40.7487L40.1992 40.8275L40.3042 40.8537L40.3042 40.9325L40.4092 40.9325L40.4092 41.0375L40.5142 41.0375L40.5142 41.1425L40.6191 41.1425L40.6191 41.2475L40.7241 41.2475L40.7241 41.3787L40.8291 41.3787L40.8291 41.4837L40.9341 41.4837L40.9604 41.6937L41.0391 41.6937L41.0654 41.9037L41.144 41.9037L41.1704 42.1137L41.249 42.1137C41.2515 42.1305 41.2544 42.1473 41.2573 42.1646C41.2661 42.1914 41.2661 42.1914 41.2754 42.2187C41.3013 42.2274 41.3271 42.2361 41.354 42.245C41.3896 42.3316 41.3828 42.4219 41.3818 42.5127C41.3813 42.5411 41.3813 42.5694 41.3813 42.5986C41.3809 42.6309 41.3809 42.6309 41.3804 42.6637L41.4854 42.6637L41.4854 43.2149L41.5903 43.2149L41.5903 43.5562L41.4854 43.5562L41.4854 43.7399L41.5903 43.7399L41.5903 43.8712L41.4854 43.8712C41.4858 43.8948 41.4858 43.8948 41.4863 43.9192C41.4863 43.9402 41.4868 43.9612 41.4868 43.9827C41.4873 44.0035 41.4878 44.0242 41.4878 44.0455C41.4854 44.105 41.4756 44.1555 41.459 44.2124L41.3804 44.2124C41.3809 44.245 41.3813 44.2773 41.3818 44.3109C41.3813 44.4652 41.3813 44.4652 41.354 44.5274C41.3281 44.5361 41.3022 44.5447 41.2754 44.5537L41.249 44.7374C41.2231 44.7461 41.1973 44.7547 41.1704 44.7637L41.144 44.9474C41.1182 44.9561 41.0923 44.9648 41.0654 44.9737L41.0391 45.1574C41.0132 45.1661 40.9868 45.1747 40.9604 45.1837C40.9409 45.2367 40.9409 45.2367 40.9341 45.2887L40.8291 45.2887L40.8291 45.4987L40.7241 45.4987L40.7241 45.6037L40.6191 45.6037L40.5928 45.8137L40.5142 45.8137L40.4878 45.9449L40.4092 45.9449L40.3828 46.0499L40.3042 46.0499L40.3042 46.1549L40.2251 46.1549L40.1992 46.3387L40.0942 46.3649L40.0942 46.4699L39.9893 46.4699L39.9893 46.6012L39.8838 46.6012L39.8838 46.7849L39.7788 46.8112L39.7529 47.0212L39.6738 47.0212L39.6479 47.2312L39.5688 47.2312L39.5688 48.4387L39.6479 48.4387C39.6826 48.5432 39.6758 48.6447 39.6738 48.7537L39.7788 48.7537L39.7788 48.9637L39.8838 48.9637L39.8838 49.1737L39.9893 49.1737L39.9893 49.3049L40.0942 49.3049L40.0942 49.4099L40.1992 49.4099L40.2251 49.6199L40.3042 49.6199L40.3301 49.6987C40.3564 49.7073 40.3823 49.716 40.4092 49.7249L40.4351 49.8037C40.4614 49.8123 40.4873 49.821 40.5142 49.8299L40.54 49.9087C40.5703 49.9173 40.6011 49.926 40.6323 49.9349C40.6621 49.9436 40.6929 49.9522 40.7241 49.9612L40.7505 50.0399C40.7764 50.0486 40.8022 50.0573 40.8291 50.0662L40.8555 50.1449C40.8813 50.1536 40.9072 50.1622 40.9341 50.1712C40.96 50.2103 40.96 50.2103 40.9863 50.2499C41.0127 50.2586 41.0386 50.2672 41.0654 50.2762L41.0913 50.3549C41.1177 50.3636 41.1436 50.3723 41.1704 50.3812L41.1704 50.4862L41.2754 50.4862L41.2754 50.5912L41.3804 50.5912L41.3804 50.6962L40.7241 50.6962L40.7241 50.5912C40.6929 50.5914 40.6616 50.5917 40.6294 50.5922C40.5879 50.5922 40.5469 50.5925 40.5059 50.5927C40.4854 50.593 40.4648 50.5933 40.4434 50.5935C40.4136 50.5935 40.4136 50.5935 40.3828 50.5938C40.356 50.5941 40.356 50.5941 40.3276 50.5941C40.2778 50.5912 40.2778 50.5912 40.1992 50.5649L40.1992 50.4862C40.1758 50.4864 40.1523 50.4867 40.1279 50.4872C40.082 50.4875 40.082 50.4875 40.0352 50.4877C39.9893 50.4883 39.9893 50.4883 39.9424 50.4888C39.873 50.4867 39.8184 50.4807 39.7529 50.4599L39.7529 50.3812L39.543 50.3549L39.543 50.2762L39.2275 50.2499C39.2148 50.2108 39.2148 50.2108 39.2017 50.1712L38.8867 50.1449L38.8867 50.0399L38.6504 50.0399L38.6504 49.9349L38.3613 49.9349L38.3613 49.8299L38.1255 49.8299L38.1255 49.7249L38.0205 49.7249L38.0205 49.6199L37.8101 49.6199L37.8101 49.5149L37.7051 49.5149L37.7051 49.4099C37.6885 49.4073 37.6719 49.4044 37.6543 49.4018C37.6274 49.3929 37.6274 49.3929 37.6001 49.3837C37.5874 49.3445 37.5874 49.3445 37.5742 49.3049C37.5215 49.2732 37.5215 49.2732 37.4692 49.2524L37.4692 49.1737L37.3643 49.1474L37.3643 49.0687L37.2588 49.0424L37.2588 48.9637L37.1802 48.9637L37.1538 48.7537L37.0752 48.7537L37.0752 48.5437L36.9702 48.5437L36.9438 48.3337L36.8652 48.3337L36.8389 48.0974L36.7603 48.0974L36.7339 47.6512L36.6553 47.6512L36.6553 46.4699L36.708 46.4437C36.7202 46.3725 36.73 46.3035 36.7373 46.2321C36.7397 46.2121 36.7417 46.1922 36.7441 46.1717C36.75 46.1224 36.7549 46.073 36.7603 46.0237L36.8652 46.0237L36.8652 45.7874L36.9438 45.7874C36.957 45.6835 36.957 45.6835 36.9702 45.5774L37.0752 45.5774L37.0752 45.3674L37.1538 45.3674L37.1538 45.1837L37.2588 45.1574L37.2588 44.9737L37.3643 44.9212L37.3643 44.7637C37.3896 44.7553 37.3896 44.7553 37.415 44.7466C37.4766 44.7151 37.4766 44.7151 37.4849 44.6429C37.4863 44.6167 37.4873 44.5904 37.4888 44.5636C37.4902 44.5371 37.4917 44.5109 37.4932 44.4839C37.4941 44.4636 37.4946 44.4431 37.4951 44.4224L37.6001 44.3962L37.6265 44.2649L37.6792 44.2649L37.7051 43.9762C37.7314 43.9675 37.7573 43.9588 37.7842 43.9499L37.7842 43.5562L37.7051 43.5562C37.6924 43.4522 37.6924 43.4522 37.6792 43.3462C37.6543 43.3441 37.6289 43.342 37.6035 43.3396C37.5215 43.3199 37.5215 43.3199 37.4854 43.2706C37.4692 43.2149 37.4692 43.2149 37.4692 43.1362C37.4082 43.1275 37.3477 43.1188 37.2852 43.1099L37.2852 43.0049L37.1802 43.0049L37.1538 42.9262C37.0933 42.9175 37.0327 42.9088 36.9702 42.8999L36.9702 42.7949L36.7603 42.7949L36.7339 42.7162L36.5239 42.6899L36.5239 42.5849L36.314 42.5849L36.314 42.4799C36.21 42.467 36.21 42.467 36.104 42.4537C36.0913 42.2589 36.0913 42.2589 36.0776 42.0599L35.999 42.0599L35.999 41.9024L36.0776 41.9024L36.104 40.8262L36.209 40.8262L36.209 40.6162L36.314 40.6162L36.314 40.5112L36.5239 40.5112L36.5239 40.4062C36.6802 40.393 36.6802 40.393 36.8389 40.3799L36.8652 40.3012C37.2168 40.2802 37.5635 40.2715 37.915 40.2749L37.9414 40.1962L37.9414 40.1975Z" fill="#2A1163" fill-opacity="1.000000" fill-rule="nonzero"/>
			<path id="Vector" d="M24.1338 44.3975L24.4487 44.3975L24.4487 44.5025L24.6587 44.5287L24.6587 44.6075L24.79 44.6337L24.79 44.7125L24.895 44.7125L24.895 44.8175L25.105 44.8438L25.105 44.9487L25.21 44.9487L25.21 45.0537L25.394 45.0537L25.4199 45.1588L25.5513 45.185L25.5513 45.2637L25.6562 45.2637L25.6562 45.3687L25.8403 45.3687L25.8662 45.4738C25.9272 45.4824 25.9878 45.4911 26.0503 45.5L26.0762 45.605L26.1812 45.6313L26.1812 45.71L26.3125 45.7362L26.3125 45.7887L26.4966 45.8412L26.4966 45.92L26.6274 45.9462L26.6274 46.025L26.7324 46.0512L26.7324 46.13L26.8374 46.1562L26.8374 46.235L26.9429 46.2612L26.9429 46.3662L27.0479 46.3662L27.0737 48.86L27.1528 48.86L27.1787 49.4113L27.2578 49.4113L27.2578 49.8312C27.2314 49.8399 27.2056 49.8486 27.1787 49.8575L27.1528 49.9362L27.0479 49.9362L27.0479 50.0412L26.8374 50.0412L26.8374 50.1462L26.5225 50.1725L26.5225 50.2513L26.3125 50.2775L26.2866 50.3562L25.9712 50.3825L25.9712 50.4875L25.7612 50.4875L25.7612 50.5925L25.5249 50.5925L25.5249 50.6975L25.21 50.6975L25.21 50.8025L25 50.8025L25 50.9075L24.6851 50.9075L24.6851 51.0125L24.4487 51.0125L24.4487 51.1175L24.1338 51.1437L24.1338 51.2225C24.0562 51.2311 23.978 51.2398 23.8975 51.2487L23.8975 51.3275L23.6875 51.3537L23.6875 51.4325C23.6152 51.4566 23.5732 51.4616 23.499 51.4603C23.4658 51.4598 23.4331 51.4593 23.3989 51.4587L23.3989 51.5638L23.084 51.5638L23.084 51.6687L22.769 51.695L22.7427 51.7737L22.4277 51.7737L22.4277 51.8788L22.2178 51.8788L22.2178 51.9837L22.1128 51.9837L22.0864 52.535L22.0078 52.535C22.0078 52.5497 22.0083 52.5641 22.0088 52.5793C22.0103 52.7161 22.001 52.8471 21.9814 52.981L21.8765 52.981L21.8765 53.0597L21.7715 53.0597L21.7715 52.981C21.6934 52.9723 21.6152 52.9637 21.5352 52.9547L21.5352 52.876L21.2202 52.8497L21.2202 52.7447L20.9839 52.7447L20.9839 52.666L20.6953 52.6397C20.6821 52.5878 20.6821 52.5878 20.6689 52.5347L20.4854 52.5347L20.4854 52.4297L20.249 52.4297L20.249 52.3247L20.0649 52.3247C20.0303 52.2202 20.0371 52.1187 20.0391 52.0097L20.144 51.9835L20.1699 51.7997L20.249 51.7997L20.2749 51.6685C20.3013 51.6598 20.3271 51.6512 20.354 51.6422L20.3804 51.5635L20.564 51.5635L20.564 51.4585L20.6689 51.4585L20.6689 51.3535L20.7739 51.3535L20.7739 51.2485L20.9053 51.2485L20.9053 51.1435C20.9658 51.1348 21.0264 51.1262 21.0889 51.1172L21.1152 51.0385C21.1758 51.0298 21.2363 51.0211 21.2988 51.0122L21.3252 50.9072L21.4302 50.9072L21.4302 50.8285L21.6401 50.8022L21.6401 50.6972L21.8765 50.6972L21.8765 50.5922L22.0864 50.5922L22.0864 50.4872L22.2964 50.4872L22.2964 50.3822L22.5063 50.356L22.5063 50.2772C22.5229 50.2746 22.54 50.2717 22.5571 50.2691C22.584 50.2602 22.584 50.2602 22.6113 50.251L22.6377 50.1722C22.6982 50.1636 22.7588 50.1549 22.8213 50.146L22.8477 50.0672L23.0576 50.041L23.0576 49.9622L23.2676 49.936L23.2676 49.831L23.4775 49.831L23.4775 49.726L23.7139 49.726L23.7139 49.621L23.9238 49.621L23.9238 49.516L24.1338 49.516L24.1338 49.411L24.3438 49.3847L24.3438 49.306C24.4219 49.2973 24.5 49.2887 24.5801 49.2797L24.5801 49.201L24.79 49.1747L24.79 49.096L25 49.0697L25 48.9647L25.105 48.9647L25.105 48.6497L25 48.6497L25 48.4397L24.895 48.4397L24.895 48.3085L24.79 48.3085L24.79 48.0985L24.6851 48.0985L24.6851 47.8885L24.5801 47.8885L24.5537 47.5735L24.4751 47.5735L24.4487 47.3372L24.3701 47.3372C24.3423 47.2464 24.3413 47.1629 24.3423 47.0695C24.3428 47.0411 24.3428 47.0128 24.3428 46.9836C24.3433 46.9514 24.3433 46.9514 24.3438 46.9185L24.2388 46.9185L24.2388 46.5773L24.1602 46.5773C24.1323 46.4938 24.1309 46.4348 24.1313 46.3474C24.1313 46.3179 24.1313 46.2885 24.1313 46.2584C24.1318 46.2276 24.1318 46.1972 24.1323 46.1654C24.1323 46.1345 24.1323 46.1035 24.1323 46.0717C24.1328 45.9953 24.1333 45.9187 24.1338 45.8423L24.0288 45.8423L24.0288 44.6348L24.1338 44.6086L24.1338 44.3985L24.1338 44.3975Z" fill="#2A1163" fill-opacity="1.000000" fill-rule="nonzero"/>
			<path id="Vector" d="M9.06641 22.9775L9.17139 22.9775L9.17139 23.0825L9.59131 23.0825L9.59131 23.1875C9.66943 23.1962 9.74707 23.2048 9.82764 23.2137L9.82764 23.2925L10.1426 23.3188L10.1426 23.4238L10.3789 23.4238L10.3789 23.5025L10.6675 23.5287C10.6807 23.5679 10.6807 23.5679 10.6938 23.6075L11.0088 23.6338L11.0088 23.7388L11.3237 23.7388L11.3237 23.8438L11.665 23.8438L11.665 23.9488L11.875 23.9488L11.875 24.0538C11.8901 24.0532 11.9053 24.0525 11.9204 24.0519C12.0571 24.0488 12.1655 24.0622 12.2959 24.1063L12.2959 24.185L12.5059 24.185L12.5317 24.2638L12.8208 24.29L12.8208 24.395L13.0308 24.395L13.0308 24.5L13.1621 24.5L13.1621 24.5788L13.3721 24.605L13.3721 24.71L13.582 24.71L13.582 24.815L13.792 24.815L13.792 24.92L14.002 24.92L14.0283 25.025L14.2383 25.0513L14.2383 25.13L14.4482 25.1562L14.4482 25.2613L14.5532 25.2613L14.5532 25.34L14.7632 25.3663L14.7632 25.4713L14.8682 25.4713L14.8682 25.5763L14.9995 25.5763L14.9995 25.6812L15.1045 25.7075L15.1045 25.7863L15.1831 25.7863L15.2095 26.0225L15.2881 26.0225C15.3105 26.0997 15.3179 26.1685 15.3179 26.2485C15.3179 26.2724 15.3179 26.2963 15.3179 26.3207C15.3179 26.359 15.3179 26.359 15.3179 26.3981C15.3179 26.4247 15.3179 26.4509 15.3179 26.4782C15.3179 26.5341 15.3179 26.5898 15.3179 26.6457C15.3179 26.731 15.3179 26.8163 15.3179 26.9016C15.3179 26.956 15.3179 27.01 15.3179 27.0644C15.3179 27.0898 15.3179 27.1153 15.3179 27.1418C15.3179 27.1775 15.3179 27.1775 15.3179 27.214L15.3179 27.2773C15.3145 27.3347 15.3037 27.3849 15.2881 27.44L15.2095 27.44L15.2095 27.65L15.1045 27.65L15.0781 27.86L14.9731 27.86L14.9731 27.965C14.9473 27.9737 14.9214 27.9823 14.8945 27.9913C14.8755 28.0443 14.8755 28.0443 14.8682 28.0963L14.7632 28.0963L14.7632 28.2013L14.6582 28.2013L14.6582 28.3062L14.5532 28.3062L14.5532 28.4113L14.4482 28.4113L14.4482 28.5163C14.4312 28.5189 14.4146 28.5218 14.3975 28.5244C14.3794 28.5304 14.3613 28.5365 14.3433 28.5425L14.3169 28.6212C14.291 28.6299 14.2651 28.6386 14.2383 28.6475L14.2119 28.7263L14.1069 28.7263L14.1069 28.8313L14.002 28.8313L14.002 28.9362L13.897 28.9362L13.897 29.0413C13.8711 29.0499 13.8447 29.0586 13.8184 29.0675C13.7988 29.1205 13.7988 29.1205 13.792 29.1725L13.687 29.1725L13.687 29.2775L13.582 29.2775L13.582 29.3825L13.4771 29.3825L13.4771 29.4875L13.3721 29.4875L13.3457 29.6187L13.2671 29.6187L13.2407 29.7238L13.1621 29.7238L13.1357 29.9337L13.0308 29.9337L13.0308 30.1438L12.9258 30.1438L12.9258 30.2487L12.8467 30.2487L12.8208 30.4588L12.7417 30.4588L12.7158 30.59L12.6367 30.59L12.6367 30.7475C12.6206 30.7541 12.6045 30.7606 12.5874 30.7672C12.5229 30.8055 12.5068 30.8362 12.4795 30.905L12.4268 30.905L12.4009 31.01L12.2959 31.01L12.2695 31.115L12.0854 31.115L12.0596 31.22L11.9546 31.22L11.9546 31.115L11.8496 31.115L11.8496 31.01L11.7446 31.01L11.7446 30.3275L11.8496 30.3275L11.8496 29.9075L11.9546 29.9075L11.9546 29.5925L12.0596 29.5925L12.0596 29.3563L12.1646 29.3563C12.1777 29.2523 12.1777 29.2523 12.1904 29.1463L12.2695 29.1463L12.2959 28.8313C12.3218 28.8226 12.3477 28.8139 12.3745 28.805L12.4009 28.5163C12.4268 28.5076 12.4526 28.4989 12.4795 28.49L12.4795 28.2013C12.4536 28.1926 12.4272 28.1839 12.4009 28.175L12.3745 27.8863C12.3486 27.8776 12.3223 27.8689 12.2959 27.86C12.2759 27.5398 12.2666 27.2195 12.2661 26.8993C12.2661 26.8659 12.2661 26.8329 12.2656 26.7985C12.2656 26.7672 12.2661 26.736 12.2661 26.7039L12.2661 26.6194C12.269 26.5556 12.2773 26.5023 12.2959 26.4415L12.3745 26.4415L12.4009 26.2314L12.5059 26.2314L12.5059 25.9952L12.6108 25.9952L12.6108 25.8115L12.5059 25.8115L12.5059 25.7065L12.4009 25.6802L12.4009 25.6015L12.2695 25.5752L12.2695 25.4965L12.1118 25.4965C12.1069 25.4796 12.1021 25.4629 12.0972 25.4455C12.061 25.3804 12.061 25.3804 11.9644 25.3718C11.9351 25.3697 11.9058 25.3673 11.8755 25.3652L11.8496 25.2602C11.7974 25.2471 11.7974 25.2471 11.7446 25.2339L11.7446 25.1815C11.6836 25.1728 11.623 25.1641 11.5605 25.1552L11.5342 25.0502L11.3506 25.0502L11.3242 24.9452L11.1934 24.9189L11.1934 24.8402L11.0093 24.8402L10.9834 24.7352C10.9663 24.7326 10.9497 24.7297 10.9321 24.7271C10.9146 24.721 10.8965 24.715 10.8779 24.709L10.8521 24.6302L10.6943 24.6302C10.6812 24.5782 10.6812 24.5782 10.668 24.5252C10.6074 24.5165 10.5469 24.5079 10.4844 24.499C10.4712 24.447 10.4712 24.447 10.458 24.394L10.3271 24.3677L10.3271 24.3152C10.2661 24.3065 10.2056 24.2979 10.1431 24.289C10.1299 24.237 10.1299 24.237 10.1167 24.184L10.0117 24.1577L10.0117 24.0789L9.82812 24.0789C9.81543 24.027 9.81543 24.027 9.80176 23.974L9.6709 23.9477L9.6709 23.869L9.51318 23.869L9.51318 23.7639L9.38184 23.7639L9.38184 23.659L9.17188 23.6327L9.17188 23.5277L9.06689 23.5277L9.04053 23.4489C9.01465 23.4403 8.98877 23.4316 8.96191 23.4227L8.96191 23.0815L9.04053 23.0815L9.06641 22.9775ZM13.4766 26.5738L13.4502 26.7838L13.3716 26.7838C13.3457 26.8901 13.3433 26.9896 13.3452 27.0988L13.2666 27.0988L13.2666 27.3087L13.3452 27.3087L13.3452 27.4138L13.4502 27.4138L13.4502 27.5188L13.7915 27.5188L13.7915 27.4138L14.0015 27.4138L14.0015 27.3087L14.1064 27.3087L14.1328 27.0988L14.2378 27.0725L14.2378 26.6788L14.1064 26.6788L14.1064 26.5738L13.4766 26.5738Z" fill="#7C0F80" fill-opacity="1.000000" fill-rule="nonzero"/>
			<path id="Vector" d="M34.5811 22.7675L35.106 22.7675L35.106 22.8725L35.4473 22.8725L35.4473 22.9775L35.7622 22.9775L35.7622 23.0825L35.9722 23.1088C35.9849 23.1479 35.9849 23.1479 35.9985 23.1875C36.0518 23.2067 36.0518 23.2067 36.1035 23.2138L36.1035 23.3188L36.2085 23.3188L36.2085 23.4238L36.3135 23.4238L36.3135 23.5288L36.4185 23.5288L36.4185 23.6338L36.5234 23.6338L36.5234 23.7388L36.6284 23.7388L36.6284 23.8438L36.7334 23.8438C36.7466 23.9477 36.7466 23.9477 36.7598 24.0538L36.8384 24.0538C36.8413 24.0706 36.8442 24.0874 36.8467 24.1047C36.8525 24.1225 36.8589 24.1404 36.8647 24.1588C36.9038 24.1719 36.9038 24.1719 36.9434 24.185C36.9565 24.289 36.9565 24.289 36.9697 24.395L37.0483 24.395C37.0835 24.4995 37.0767 24.6011 37.0747 24.71L37.1797 24.71L37.1797 26.1275L37.0747 26.1538C37.0752 26.1732 37.0762 26.1924 37.0767 26.2123C37.0771 26.238 37.0776 26.2635 37.0781 26.29C37.0786 26.3152 37.0791 26.3404 37.0801 26.3667C37.0747 26.4459 37.0557 26.5021 37.0225 26.5738L36.9697 26.5738L36.9697 26.8625L37.0483 26.8625C37.0713 26.941 37.0776 27.0106 37.0762 27.0922C37.0762 27.1132 37.0757 27.1342 37.0757 27.1557C37.0752 27.1718 37.0752 27.1875 37.0747 27.2038L37.1797 27.2038L37.1797 27.3088L37.2847 27.3088L37.2847 27.4138L37.3896 27.4138L37.3896 27.5188L37.5996 27.5188L37.626 27.6238L37.9146 27.6238L37.9409 27.545C38.0244 27.5172 38.0835 27.5159 38.1709 27.5161C38.2002 27.5164 38.23 27.5164 38.2598 27.5164C38.2905 27.5167 38.3213 27.5169 38.353 27.5172C38.3838 27.5172 38.415 27.5175 38.4468 27.5175C38.5229 27.5177 38.5996 27.5182 38.6758 27.5188C38.7183 27.6794 38.7275 27.839 38.6499 27.9913L38.5972 27.9913L38.5449 28.175L38.4658 28.175L38.4399 28.3063L38.3608 28.3063L38.3608 28.4113L38.2559 28.4113L38.2559 28.5163L38.1509 28.5163L38.1509 28.6213L38.0459 28.6213L38.0459 28.7263L37.9409 28.7263L37.9409 28.8313L37.8359 28.8313L37.8096 28.9363C37.749 28.9449 37.6885 28.9536 37.626 28.9625L37.5996 29.0675L37.4946 29.0675L37.4946 29.1463C37.3994 29.178 37.3125 29.1757 37.2139 29.1751C37.1943 29.1751 37.1743 29.1749 37.1543 29.1749C37.0913 29.1749 37.0283 29.1746 36.9653 29.1741C36.9229 29.1741 36.8804 29.1738 36.8379 29.1738C36.7334 29.1736 36.6289 29.173 36.5254 29.1725L36.5254 29.0675C36.4927 29.0681 36.4604 29.0686 36.4268 29.0691C36.3506 29.0694 36.2837 29.0657 36.2104 29.0413L36.2104 28.9625L36.0005 28.9363L36.0005 28.8575L35.8691 28.8313L35.8691 28.7525C35.8086 28.7439 35.748 28.7352 35.6855 28.7263L35.6592 28.6475C35.606 28.6284 35.606 28.6284 35.5542 28.6213L35.5542 28.5163L35.4492 28.5163L35.4492 28.4113L35.3442 28.4113L35.3442 28.2013L35.2393 28.2013L35.2129 27.9913L35.1343 27.9913L35.1079 27.545L35.0293 27.545L35.0293 26.1013L35.1079 26.1013L35.1079 25.7075L35.0293 25.7075C35.0161 25.6036 35.0161 25.6036 35.0029 25.4975L34.9243 25.4975C34.9219 25.4639 34.9199 25.4303 34.9175 25.3957C34.9121 25.3387 34.9121 25.3387 34.8979 25.2875C34.8477 25.2458 34.8477 25.2458 34.793 25.235L34.793 25.1563C34.7666 25.1476 34.7407 25.1389 34.7139 25.13C34.6807 25.029 34.686 24.9476 34.688 24.8413L34.583 24.815L34.583 24.5263L34.478 24.5L34.478 24.395L34.373 24.3688L34.3467 24.08L34.2681 24.08L34.2681 23.87L34.1626 23.8438L34.1367 23.66C34.1104 23.6514 34.0845 23.6427 34.0576 23.6338L34.0317 23.4238C34.0054 23.4151 33.9795 23.4064 33.9526 23.3975C33.9141 23.3059 33.9248 23.2067 33.9268 23.1088L34.0317 23.0825L34.0317 22.9775L34.2417 22.9775L34.2417 22.8725C34.3975 22.8594 34.3975 22.8594 34.5566 22.8463L34.583 22.7675L34.5811 22.7675Z" fill="#750F7D" fill-opacity="1.000000" fill-rule="nonzero"/>
		</g>
	</g>
	<rect id="card1" rx="1.500000" width="49.000000" height="69.000000" transform="translate(0.500000 0.500000)" stroke="#FFD762" stroke-opacity="1.000000" stroke-width="1.000000"/>
</svg>
