<svg width="70.000000" height="50.000000" viewBox="0 0 70 50" fill="none" xmlns="http://www.w3.org/2000/svg" xmlns:xlink="http://www.w3.org/1999/xlink">
	<desc>
			Created with Pixso.
	</desc>
	<defs>
		<clipPath id="clip27_1175">
			<rect id="horse 1" width="42.000000" height="42.000000" transform="translate(56.000000 4.000000) rotate(90.000000)" fill="white" fill-opacity="0"/>
		</clipPath>
		<clipPath id="clip27_1174">
			<rect id="card2" rx="1.500000" width="49.000000" height="69.000000" transform="translate(70.500000 0.500000) rotate(90.000000)" fill="white" fill-opacity="0"/>
		</clipPath>
		<linearGradient id="paint_linear_27_1176_0" x1="55.895020" y1="24.462677" x2="14.446260" y2="24.462675" gradientUnits="userSpaceOnUse">
			<stop stop-color="#960E89"/>
			<stop offset="1.000000" stop-color="#19125D"/>
		</linearGradient>
	</defs>
	<rect id="card2" rx="1.500000" width="49.000000" height="69.000000" transform="translate(70.500000 0.500000) rotate(90.000000)" fill="#66BF95" fill-opacity="1.000000"/>
	<g clip-path="url(#clip27_1174)">
		<rect id="horse 1" width="42.000000" height="42.000000" transform="translate(56.000000 4.000000) rotate(90.000000)" fill="#FFFFFF" fill-opacity="0"/>
		<g clip-path="url(#clip27_1175)">
			<path id="Vector" d="M55.895 39.3325L55.3701 39.3325L55.3701 39.2275L55.2388 39.2275L55.2388 39.1225L55.1338 39.1225L55.1338 39.0175L55.0288 39.0175L55.0288 38.8075L54.9238 38.8075L54.9238 38.7025L54.8188 38.7025C54.8159 38.6857 54.8135 38.6689 54.8105 38.6516C54.8047 38.6337 54.7983 38.6159 54.7925 38.5975L54.7139 38.5713L54.7139 38.4663L54.6089 38.4663L54.5825 38.2563L54.5039 38.2563C54.4907 38.2171 54.4907 38.2171 54.4775 38.1775L54.3989 38.1513L54.3726 37.9413L54.2676 37.9413L54.2676 37.81L54.1626 37.81L54.1626 37.6L54.0576 37.6L54.0576 37.495L53.9526 37.495L53.9526 37.285L53.8477 37.285L53.8213 37.075L53.7427 37.075C53.7397 37.0582 53.7368 37.0414 53.7344 37.0241C53.7285 37.0062 53.7222 36.9884 53.7163 36.97L53.6377 36.9438L53.6113 36.7338L53.5063 36.7338L53.5063 36.5238L53.4014 36.5238L53.4014 36.3138L53.2964 36.3138L53.2964 36.1825L53.1914 36.1825L53.1914 35.9725L53.0864 35.9725L53.0864 35.7625L52.9814 35.7625C52.9727 35.7019 52.9639 35.6412 52.9551 35.5788L52.8765 35.5525L52.8501 35.3425L52.7715 35.3425L52.7451 35.2113L52.6665 35.2113C52.6592 35.1826 52.6519 35.1538 52.645 35.1244C52.6226 35.0299 52.6226 35.0299 52.5713 34.985C52.5352 34.9488 52.5352 34.9488 52.5303 34.8781C52.5317 34.8582 52.5332 34.8382 52.5352 34.8175L52.4302 34.8175L52.4302 34.6075L52.3252 34.6075L52.3252 34.3975L52.2202 34.3975L52.2202 34.1875L52.1152 34.1875L52.1152 34.0563L52.0103 34.0563L52.0103 33.8463L51.9048 33.8463L51.9048 33.6363L51.7998 33.6363C51.7915 33.5583 51.7827 33.4803 51.7739 33.4L51.6689 33.4L51.6689 33.19L51.564 33.19L51.564 32.98L51.459 32.98L51.459 32.77L51.354 32.77L51.354 32.56L51.2485 32.56L51.2485 32.4288L51.1436 32.4288L51.1177 32.14L51.0386 32.14L51.0386 32.0088L50.9336 32.0088L50.9077 31.7988L50.8286 31.7988C50.8203 31.7208 50.8115 31.6428 50.8027 31.5625L50.6978 31.5625L50.6978 31.3525L50.5923 31.3525L50.5923 31.1425L50.4873 31.1425L50.4614 30.9325L50.3823 30.9325L50.3564 30.7225L50.2773 30.7225L50.2773 30.5913L50.1724 30.5913L50.1724 30.3813L50.0674 30.3813L50.0415 30.1713L49.9624 30.1713C49.9595 30.1563 49.9565 30.1416 49.9536 30.1264C49.9497 30.1069 49.9453 30.0878 49.9414 30.0678C49.9375 30.0487 49.9336 30.0295 49.9292 30.0098C49.9229 29.9938 49.9165 29.9778 49.9102 29.9613L49.8311 29.935C49.8228 29.8744 49.814 29.8137 49.8052 29.7513L49.7261 29.725C49.7178 29.6644 49.709 29.6037 49.7002 29.5413L49.6211 29.515L49.6211 29.3313L49.5161 29.3313C49.5137 29.3145 49.5107 29.2977 49.5083 29.2803C49.502 29.2625 49.4961 29.2446 49.4902 29.2263L49.4111 29.2C49.4028 29.1394 49.394 29.0787 49.3853 29.0163L49.3062 28.99C49.2974 28.9294 49.2891 28.8687 49.2798 28.8063L49.2012 28.78L49.1748 28.57L49.0962 28.57L49.0698 28.36L48.9648 28.36L48.9648 28.15L48.8599 28.15L48.8599 27.94L48.7549 27.94L48.729 27.73L48.6499 27.7038L48.6499 27.5988L48.5449 27.5988L48.5449 27.3888L48.3086 27.3888L48.3086 27.4675L48.0986 27.4938L48.0986 27.5988L47.8887 27.5988L47.8887 27.7038L47.6787 27.7038L47.6787 27.8088L47.4688 27.8088L47.4688 27.9138L47.1538 27.94L47.1538 28.0188L46.8125 28.0188C46.7886 27.9219 46.7837 27.8487 46.7847 27.751C46.7852 27.7227 46.7852 27.6943 46.7852 27.6652C46.7856 27.6436 46.7861 27.6221 46.7861 27.6001L46.8911 27.5738L46.9175 27.4688L46.9961 27.4688L47.0225 27.3638L47.2324 27.3638L47.2324 27.2588L47.4424 27.2326L47.4424 27.1538C47.4678 27.1499 47.4678 27.1499 47.4937 27.1457C47.5112 27.1396 47.5293 27.1336 47.5474 27.1276C47.5562 27.1016 47.5649 27.0756 47.5737 27.0488L47.7837 27.0226L47.7837 26.9176L47.8887 26.9176L47.8887 26.8126L48.0986 26.8126L48.0986 26.7076L48.2036 26.7076L48.2036 26.6026L48.125 26.6026L48.125 26.5238L47.7837 26.5238L47.7837 26.6026C47.667 26.6317 47.5537 26.632 47.4346 26.6304C47.415 26.6304 47.396 26.6301 47.3755 26.6301C47.3281 26.6299 47.2803 26.6293 47.2329 26.6288L47.2329 26.7338L46.3667 26.7338L46.3667 26.8388L45.4214 26.8651L45.4214 26.9438L45.29 26.9438C45.2817 26.9178 45.2729 26.8918 45.2642 26.8651L45.1851 26.8651L45.1851 26.9438L44.6602 26.9701L44.6602 27.0488L44.5288 27.0488L44.5288 27.1538L44.4238 27.1538L44.4238 27.2588L44.3188 27.2588L44.3188 27.3638L44.1089 27.3901L44.1089 27.4951L44.0039 27.4951L44.0039 27.6001L43.8726 27.6001L43.8726 27.7051L43.7676 27.7051L43.7676 27.8101L43.6626 27.8101L43.6626 27.9151L43.4526 27.9151L43.4526 28.0201L43.3477 28.0201L43.3477 28.1251C43.3228 28.129 43.3228 28.129 43.2969 28.1332C43.2788 28.1393 43.2612 28.1453 43.2427 28.1513C43.2339 28.1773 43.2256 28.2033 43.2163 28.2301L43.0327 28.2563L43.0063 28.3613L42.9014 28.3613L42.9014 28.4663L42.7964 28.4663L42.7964 28.5713L42.6914 28.5713L42.6914 28.6763L42.5864 28.6763L42.5601 28.7813L42.4551 28.7813L42.4292 28.8863L42.3501 28.8863L42.3242 28.9913L42.2451 28.9913L42.2192 29.0963L42.1401 29.0963L42.1401 29.2013L42.0615 29.2276C42.0298 29.2801 42.0298 29.2801 42.0088 29.3326L41.9565 29.3326L41.9302 29.7526L42.0352 29.7526L42.0352 29.8576L42.1665 29.8576L42.1665 29.9363L42.3242 29.9363L42.3242 29.8576L42.4551 29.8576L42.4551 29.7526L42.5601 29.7526L42.5601 29.6476L42.665 29.6476L42.6914 29.5163L42.7705 29.5163L42.7705 29.4113L42.8755 29.4113L42.8755 29.3063L42.9805 29.3063L43.0063 29.2013L43.1113 29.2013L43.1113 29.0963L43.2163 29.0963L43.2163 28.9913L43.3213 28.9913L43.3477 28.8863L43.5317 28.8601L43.5317 28.7813L43.6626 28.7813C43.6655 28.7645 43.6685 28.7477 43.6709 28.7304C43.6768 28.7126 43.6831 28.6947 43.689 28.6763C43.7754 28.6474 43.8398 28.6474 43.9302 28.6485C43.9585 28.6488 43.9873 28.649 44.0166 28.649C44.0493 28.6496 44.0493 28.6496 44.083 28.6501L44.1089 28.5451L44.8442 28.5451L44.8442 28.6501L44.9751 28.6763L44.9751 28.7551L45.0801 28.7813L45.0801 29.0963L45.1592 29.0963C45.186 29.1856 45.1885 29.2672 45.188 29.3588L45.188 29.4559C45.188 29.5077 45.188 29.5077 45.188 29.5604C45.188 29.5964 45.1875 29.6321 45.1875 29.6678C45.1875 29.7618 45.1875 29.8555 45.187 29.9487C45.187 30.0447 45.1865 30.1405 45.1865 30.2374C45.1865 30.4254 45.186 30.6128 45.1851 30.8018L45.3691 30.828L45.3691 30.723L45.5791 30.6968L45.6055 30.5918L45.6841 30.5918C45.6929 30.5398 45.7012 30.4878 45.7104 30.4343L45.8154 30.408L45.8154 30.2768L45.9204 30.2768L45.9204 30.1718L46.0254 30.1718L46.0254 30.0668L46.1304 30.0668L46.1304 29.9618C46.1553 29.9579 46.1553 29.9579 46.1812 29.9536C46.1992 29.9476 46.2168 29.9416 46.2354 29.9355C46.2441 29.9095 46.2524 29.8836 46.2617 29.8568L46.4717 29.8305L46.4717 29.7518L46.5767 29.7518C46.585 29.7778 46.5938 29.8038 46.6025 29.8305C46.6558 29.8497 46.6558 29.8497 46.708 29.8568L46.708 29.9618L46.813 29.9618L46.813 30.1455L46.918 30.1718L46.918 30.408L46.9966 30.408C47.0254 30.4944 47.0254 30.5587 47.0244 30.6493C47.0239 30.6776 47.0239 30.7062 47.0239 30.7356C47.0234 30.7684 47.0234 30.7684 47.0229 30.8018L47.1279 30.8018L47.1279 32.2193L47.0229 32.2193C47.0229 32.2429 47.0234 32.2668 47.0239 32.2912C47.0239 32.3377 47.0239 32.3377 47.0244 32.3849C47.0244 32.4156 47.0249 32.4466 47.0254 32.4781C47.0229 32.5605 47.0229 32.5605 46.9966 32.6393L46.918 32.6393L46.918 32.7705L46.813 32.7705L46.7866 32.9805L46.708 33.0068C46.6992 33.0328 46.6904 33.0588 46.6816 33.0855L46.6025 33.0855L46.5767 33.2955L46.4717 33.2955L46.4717 33.4005L46.2617 33.4268L46.2617 33.5318L46.1567 33.5318L46.1567 33.6368L46.0518 33.6368L46.0254 33.7418L45.8154 33.7418L45.8154 33.8468L45.6055 33.8468L45.6055 33.9518L45.29 33.9518L45.29 34.0568L44.3188 34.0568L44.293 33.9518L44.0039 33.9518L43.9775 33.8468L43.7939 33.8468L43.7676 33.7418L43.5576 33.7418L43.5317 33.6368L43.4268 33.6105L43.4268 33.5318L43.3213 33.5055L43.3213 33.4268C43.2964 33.4229 43.2964 33.4229 43.2705 33.4186C43.2529 33.4126 43.2349 33.4066 43.2163 33.4005C43.208 33.3745 43.1992 33.3486 43.1904 33.3218C43.1377 33.29 43.1377 33.29 43.0854 33.2693L43.0854 33.2168L42.9805 33.1643L42.9805 33.0855L42.8755 33.0593L42.8755 32.9805L42.7705 32.9543L42.7705 32.8755L42.665 32.8493L42.665 32.6655L42.5601 32.6393L42.5601 32.5343L42.4551 32.508L42.4551 32.4293L42.3501 32.403L42.3501 32.3243L42.0615 32.3505C42.0527 32.3765 42.0444 32.4025 42.0352 32.4293L41.1689 32.4555L41.1689 32.5343L40.5127 32.5605L40.5127 32.6393C40.3379 32.6718 40.1665 32.6679 39.9878 32.6655L39.9878 32.7443C39.9072 32.7679 39.8359 32.7737 39.752 32.7732C39.7275 32.7729 39.7031 32.7729 39.6777 32.7729C39.6523 32.7726 39.627 32.7724 39.6006 32.7721C39.5747 32.7721 39.5488 32.7719 39.5225 32.7719C39.459 32.7716 39.395 32.7711 39.3315 32.7705L39.3315 32.8755L39.0166 32.8755L39.0166 32.9805L38.9116 32.9805L38.9116 33.0855L38.8066 33.0855L38.7803 33.2955L38.7017 33.3218C38.6821 33.3748 38.6821 33.3748 38.6753 33.4268L38.5967 33.4268L38.5703 33.6368L38.4653 33.6368L38.4653 33.8468L38.3604 33.8468L38.3604 34.0305L38.2554 34.0568L38.229 34.188L38.1504 34.188L38.1504 34.3718L38.0454 34.398L38.019 34.503L37.9404 34.503C37.9316 34.5637 37.9229 34.6243 37.9141 34.6868L37.8091 34.713L37.7827 34.818L37.0742 34.818L37.0479 34.713L36.9165 34.6868L36.9165 34.608L36.6538 34.608L36.6279 34.503L36.4966 34.4768L36.4966 34.398C36.4551 34.3996 36.4551 34.3996 36.4126 34.4012C36.3198 34.3983 36.2642 34.3857 36.1816 34.3455L36.1816 34.293L35.9976 34.2668L35.9717 34.1618L35.7876 34.1618L35.7617 34.0568L35.6304 34.0305L35.6304 33.978L35.4463 33.9518L35.4204 33.8468L35.2104 33.8468L35.2104 33.7418L35.0005 33.7418L34.9741 33.6368C34.9316 33.6384 34.9316 33.6384 34.8887 33.6399C34.7993 33.6371 34.7583 33.6313 34.6851 33.5843L34.6851 33.5318L34.4492 33.5055L34.4492 33.4268L34.2393 33.4005C34.2305 33.3745 34.2217 33.3486 34.2129 33.3218L34.0288 33.2955C34.0205 33.2695 34.0117 33.2436 34.0029 33.2168L33.793 33.1905L33.793 33.0855L33.583 33.0855L33.583 32.9805L33.3726 32.9805L33.3726 32.8755L33.1626 32.8755L33.1626 32.7705L32.9268 32.7443L32.9268 32.6655L32.7163 32.6393L32.7163 32.5605L32.5854 32.5343L32.5854 32.4555L32.2964 32.4293L32.2964 32.3243L32.0864 32.3243C32.0776 32.2983 32.0693 32.2723 32.0601 32.2455L31.8501 32.2193L31.8501 32.1143L31.6401 32.1143L31.6401 32.0093L31.4038 32.0093L31.4038 31.9043L31.1938 31.9043L31.1938 31.7993C31.145 31.8001 31.145 31.8001 31.0957 31.8009C31.019 31.8011 30.9521 31.7975 30.8789 31.773L30.8789 31.6943L30.6689 31.668L30.6689 31.563L30.5376 31.563L30.5376 31.4843L30.354 31.458C30.3452 31.4321 30.3369 31.4061 30.3276 31.3793C30.2749 31.3601 30.2749 31.3601 30.2227 31.353L30.2227 31.248L30.1177 31.248L30.1177 31.143L30.0127 31.143L30.0127 31.038L29.9077 31.038L29.9077 30.933L29.8027 30.933L29.8027 30.828L29.6978 30.828C29.6938 30.8028 29.6938 30.8028 29.6895 30.7771C29.6836 30.7593 29.6777 30.7414 29.6714 30.723L29.5928 30.6968C29.584 30.6708 29.5757 30.6448 29.5664 30.618L29.4878 30.5918C29.479 30.5311 29.4702 30.4705 29.4614 30.408L29.3564 30.3818L29.3564 30.2768L29.2515 30.2768L29.2515 30.1455L29.1465 30.1455L29.1465 29.9618L29.0415 29.9618L29.0151 29.7518L28.9365 29.7518L28.9365 29.6205L28.8315 29.6205L28.8315 29.4105L28.7266 29.4105L28.7002 29.1218L28.6216 29.0955L28.5952 28.8855L28.5166 28.8593C28.4775 28.7677 28.4883 28.6684 28.4902 28.5705L28.3853 28.5705L28.3853 28.2555L28.2803 28.2555L28.2803 27.9143L28.1753 27.9143L28.1489 27.5993L28.0703 27.5993L28.0439 27.2843L27.9653 27.2843L27.939 26.8643L27.8604 26.838L27.834 26.4968L27.7554 26.4968C27.7466 26.4361 27.7378 26.3755 27.729 26.313L27.5454 26.313L27.5454 26.3918L27.4404 26.3918L27.4141 26.4968L27.2305 26.523L27.2041 26.628L27.1255 26.628L27.0991 26.733L26.9941 26.733L26.9941 26.838L26.8892 26.838L26.8628 26.943L26.7842 26.943L26.7578 27.048L26.6792 27.048L26.6792 27.363L26.7842 27.3893L26.7842 27.468L26.9678 27.468L26.9941 27.573L27.1255 27.5993L27.1255 27.678L27.2827 27.7043L27.3091 27.8093L27.4404 27.8355L27.4404 28.0193L27.5454 28.0455C27.5366 28.0715 27.5278 28.0975 27.519 28.1243L27.4404 28.1243L27.4141 28.2555L27.3354 28.2555C27.3267 28.2815 27.3179 28.3075 27.3091 28.3343C27.2334 28.3637 27.1597 28.3637 27.0786 28.3632C27.0557 28.3629 27.0322 28.3629 27.0083 28.3629C26.9839 28.3626 26.96 28.3624 26.9351 28.3621C26.9102 28.3621 26.8857 28.3618 26.8604 28.3618C26.7998 28.3616 26.7393 28.3611 26.6792 28.3605L26.6528 28.4655L26.4692 28.4655L26.4429 28.5705L26.3379 28.5705L26.3115 28.6755L26.2329 28.6755L26.2065 28.7805L26.1279 28.7805L26.1016 28.8855L26.0229 28.8855L25.9966 28.9905L25.918 28.9905L25.8916 29.1218L25.813 29.1218L25.7866 29.2268L25.708 29.2268L25.6816 29.3318L25.6025 29.3318L25.5767 29.4368L25.4976 29.4368L25.4976 29.5155L25.3926 29.5155L25.3667 29.6468L25.2876 29.6468L25.2617 29.8568L25.1826 29.8568L25.1826 29.9355L26.8892 29.9618C26.8975 29.9878 26.9062 30.0138 26.915 30.0405L27.5454 30.0668L27.5454 30.1718L27.8604 30.1718L27.8604 30.2768L27.9917 30.2768L27.9917 30.3818L28.2017 30.3818L28.2017 30.4868L28.3066 30.4868L28.3066 30.5918L28.4116 30.5918L28.4116 30.6968L28.6216 30.723C28.6304 30.7837 28.6387 30.8443 28.6479 30.9068L28.8315 30.933L28.8579 31.143L28.9629 31.143L28.9629 31.248L29.0679 31.248L29.0679 31.353L29.1729 31.353L29.1729 31.458L29.2778 31.458L29.2778 31.5893L29.3828 31.5893L29.3828 31.6943L29.4878 31.6943L29.4878 31.773L29.5928 31.7993L29.5928 31.878L29.6978 31.9043L29.6978 31.983L29.8291 32.0093L29.8291 32.088L29.9341 32.1143L29.9341 32.193L30.1177 32.2193C30.1265 32.2453 30.1353 32.2713 30.144 32.298L30.3276 32.3243L30.354 32.4293L30.5376 32.4293L30.564 32.5343L30.7739 32.5343C30.7827 32.5603 30.7915 32.5863 30.8003 32.613L31.1938 32.6393L31.2202 32.7443L31.6401 32.7443L31.6665 32.8493L31.9551 32.8493C32.0068 32.9742 32.0078 33.0582 31.9814 33.1905L31.8765 33.1905L31.8765 33.2955L31.7715 33.2955L31.7451 33.4005C31.7017 33.4037 31.7017 33.4037 31.6567 33.4071C31.5601 33.4158 31.5601 33.4158 31.5239 33.4809C31.519 33.4977 31.5142 33.5145 31.5088 33.5318L31.4302 33.5318C31.4214 33.5578 31.4131 33.5838 31.4038 33.6105L31.2202 33.6368L31.1938 33.7418L31.0103 33.7418L30.9839 33.8468L30.9053 33.8468L30.8789 33.9518L30.6953 33.9518L30.6689 34.0568L30.4854 34.083C30.4766 34.109 30.4678 34.135 30.459 34.1618L30.2754 34.188C30.2666 34.214 30.2578 34.24 30.249 34.2668L30.0391 34.293L30.0127 34.398L29.8291 34.398L29.8027 34.503L29.5928 34.503L29.5664 34.608L28.9629 34.608L28.9365 34.713C28.7358 34.7138 28.5347 34.7141 28.3354 34.7144C28.2671 34.7146 28.1992 34.7149 28.1309 34.7151C28.0332 34.7154 27.9351 34.7154 27.8369 34.7157C27.8062 34.7157 27.7754 34.7159 27.7441 34.7159L27.6582 34.7159C27.6206 34.7162 27.6206 34.7162 27.5825 34.7162C27.519 34.713 27.519 34.713 27.4404 34.6868L27.4404 34.608C27.394 34.6088 27.394 34.6088 27.3462 34.6099C27.3052 34.6104 27.2646 34.6109 27.2236 34.6112C27.2031 34.6117 27.1831 34.6122 27.1616 34.6128C26.9751 34.6143 26.9751 34.6143 26.8887 34.5555L26.8887 34.503L26.6001 34.503L26.5474 34.398L26.3638 34.398C26.3574 34.3728 26.3574 34.3728 26.3506 34.3471C26.3169 34.2888 26.3169 34.2888 26.2612 34.2802C26.208 34.2739 26.1548 34.2702 26.1011 34.2668L26.1011 34.188L25.8911 34.1618L25.8911 34.083L25.6812 34.0568L25.6812 33.9518L25.4712 33.9518L25.4712 33.8468L25.2612 33.8468L25.2612 33.7418L25.0513 33.7418L25.0513 33.6368L24.9199 33.6105L24.9199 33.5318L24.71 33.5055L24.71 33.4005L24.605 33.4005L24.605 33.2955L24.5 33.2955L24.5 33.2168L24.3687 33.1905L24.3687 33.1118L24.1851 33.0855L24.1851 32.9805L24.0537 32.9805L24.0537 32.8755L23.9487 32.8755L23.9487 32.7705L23.8438 32.7705L23.8438 32.6655L23.6338 32.6393L23.6338 32.5605L22.8726 32.5605L22.8726 32.6393C22.6787 32.6653 22.4893 32.6687 22.2925 32.6671C22.2471 32.6671 22.2471 32.6671 22.2007 32.6668C22.127 32.6666 22.0532 32.6661 21.979 32.6655L21.979 32.7443C21.8213 32.7721 21.6694 32.7737 21.5093 32.7721C21.4834 32.7721 21.458 32.7719 21.4321 32.7719C21.3696 32.7716 21.3071 32.7711 21.2451 32.7705L21.2451 32.8755L20.4839 32.8755L20.4839 32.9805L19.854 33.0068C19.8452 33.0328 19.8364 33.0588 19.8276 33.0855L19.3027 33.0855L19.3027 33.1905L18.8823 33.1905L18.8823 33.0855L18.7515 33.0855L18.7515 32.9805L18.6465 32.9805L18.6465 32.8755L18.5415 32.8755L18.5415 32.7705L18.436 32.7705L18.436 32.6655L18.3311 32.6655L18.3311 32.5605L18.2261 32.5605L18.2261 32.4293L18.1211 32.4293L18.1211 32.3243L18.0161 32.3243C18.0078 32.2636 17.999 32.203 17.9902 32.1405L17.8853 32.1143L17.8853 32.0093L17.7798 32.0093L17.7798 31.9043L17.6748 31.9043L17.6748 31.773L17.5698 31.773L17.5698 31.5893L17.4648 31.5893C17.4624 31.5725 17.4595 31.5557 17.457 31.5384C17.4507 31.5205 17.4448 31.5027 17.439 31.4843L17.3599 31.458L17.3599 31.353L17.2549 31.353L17.2549 31.248L17.1499 31.248L17.1499 31.143L17.0449 31.143L17.0186 30.933L16.9136 30.933L16.9136 30.828L16.8086 30.828L16.8086 30.723L16.7036 30.6968L16.7036 30.5918L16.5986 30.5918L16.5986 30.4868L16.4937 30.4868L16.4937 30.2768L16.3887 30.2768L16.3887 30.1718L16.2837 30.1718L16.2837 30.0668L16.1787 30.0668L16.1523 29.8568L16.0474 29.8305L16.0474 29.7518L15.9424 29.7255L15.9424 29.6205L15.8374 29.6205L15.8374 29.5155L15.7324 29.5155L15.7324 29.4368L15.5225 29.4105L15.5225 29.3318L15.3911 29.3055L15.3911 29.2268L15.2075 29.2268L15.1812 29.1218C15.1323 29.1226 15.1323 29.1226 15.083 29.1234C15.0063 29.1236 14.9395 29.1199 14.8662 29.0955L14.8662 29.0168L14.6562 28.9905L14.6562 28.9118L14.5249 28.8855L14.5249 28.7805L14.4463 28.7805L14.4463 28.5443L14.5513 28.5443L14.5513 28.3343L14.6299 28.3343C14.6387 28.2563 14.6475 28.1784 14.6562 28.098L14.7612 28.098L14.7612 27.678L14.8662 27.678L14.8662 27.363L14.9712 27.363L14.9712 27.153L15.0762 27.153C15.0762 27.1373 15.0757 27.1213 15.0752 27.105C15.0747 27.0735 15.0747 27.0735 15.0747 27.0415C15.0742 27.0207 15.0737 27 15.0737 26.9787C15.0762 26.9191 15.0859 26.8687 15.1025 26.8118L15.1812 26.8118L15.2075 26.6018L15.3911 26.6018L15.3911 26.7068L15.5225 26.7068L15.5225 26.8118L15.6274 26.8118L15.6274 26.9168L15.7324 26.9168L15.7324 27.048L15.8374 27.048L15.8374 27.153L15.9424 27.153L15.9424 27.3368L16.0474 27.3368L16.0474 27.468L16.1523 27.468L16.1523 27.573L16.2573 27.573L16.2573 27.678L16.3887 27.7043L16.3887 27.783L16.4937 27.8093L16.4937 27.888L16.5986 27.9143L16.5986 28.0193L16.7036 28.0193L16.7036 28.1243L16.8086 28.1243L16.8086 28.2293L16.9136 28.2293L16.9136 28.3343L17.0186 28.3343L17.0186 28.4393L17.1235 28.4393L17.1235 28.5443L17.229 28.5443L17.229 28.6493L17.3599 28.6755L17.3599 28.7543L17.4648 28.7805L17.4648 28.8855L17.5698 28.8855L17.5698 28.9905L17.6748 28.9905L17.6748 29.0955L17.7798 29.0955L17.7798 29.2005L17.8853 29.2005L17.8853 29.3055L17.9902 29.3055L17.9902 29.4105L18.0952 29.4105L18.0952 29.5155L18.2261 29.5418L18.2261 29.6205L18.3311 29.6468L18.3311 29.7518L18.436 29.7518L18.436 29.8568L18.5415 29.8568L18.5415 29.9618L18.6465 29.9618L18.6465 30.0668L18.7515 30.0668L18.7515 30.1718L18.8564 30.1718L18.8564 30.2768L18.9614 30.2768C18.9639 30.2936 18.9668 30.3104 18.9692 30.3277C18.9756 30.3456 18.9814 30.3634 18.9873 30.3818L19.0664 30.408C19.0747 30.434 19.0835 30.46 19.0923 30.4868C19.1455 30.506 19.1455 30.506 19.1978 30.513L19.1978 30.618L19.3027 30.618L19.3027 30.723L19.4077 30.723L19.4077 30.618C19.4326 30.6141 19.4326 30.6141 19.4585 30.6099C19.4761 30.6039 19.4941 30.5978 19.5127 30.5918C19.521 30.5658 19.5298 30.5398 19.5386 30.513L19.6177 30.4868C19.6367 30.4338 19.6367 30.4338 19.6436 30.3818L19.7485 30.3818L19.7485 30.2768L19.854 30.2768L19.854 30.1718L19.959 30.1718L19.959 30.0668L20.064 30.0668L20.064 29.9618L20.1689 29.9618L20.1689 29.8568L20.3789 29.8568L20.3789 29.7518L20.4839 29.7518L20.5103 29.6205L20.6152 29.6205L20.6152 29.5155L20.7202 29.5155L20.7202 29.4105L20.9302 29.4105L20.9302 29.3055L21.0352 29.3055L21.0352 29.2005L21.2451 29.2005L21.2451 29.0955L21.4551 29.0693L21.4551 28.9905L21.5864 28.9905L21.5864 28.8855L21.7964 28.8855L21.7964 28.7805L22.0063 28.7543L22.0063 28.6755C22.1108 28.6406 22.2124 28.6474 22.3213 28.6493L22.3213 28.5443L22.5576 28.5443L22.5576 28.4393L22.8726 28.4393L22.8726 28.3343L23.0825 28.3343L23.0825 28.2293L23.3975 28.203C23.4062 28.177 23.415 28.1511 23.4238 28.1243L23.7388 28.098L23.7388 28.0193L23.9487 28.0193L23.9487 27.9143L24.1587 27.888L24.1851 27.783L24.2637 27.783L24.29 27.573L24.395 27.573L24.395 27.468L24.5 27.468L24.5 27.3368L24.5786 27.3368C24.5874 27.2762 24.5962 27.2155 24.605 27.153L24.71 27.153L24.71 27.0218L24.8149 27.0218L24.8149 26.838L24.9199 26.8118L24.9463 26.7068L25.0249 26.7068L25.0513 26.6018L25.1299 26.6018C25.1387 26.5411 25.1475 26.4805 25.1562 26.418L25.2612 26.3918L25.2876 26.2605L25.3662 26.2605L25.3662 26.0768L25.4712 26.0768L25.4712 25.9718L25.5762 25.9718L25.5762 25.7618L25.6812 25.7618L25.6812 25.6568L25.7861 25.6568L25.8125 25.4468L25.8911 25.4205C25.9106 25.3675 25.9106 25.3675 25.9175 25.3155L25.9961 25.3155C26.0049 25.2549 26.0137 25.1943 26.0225 25.1318L26.1011 25.1055C26.1206 25.0525 26.1206 25.0525 26.1274 25.0005L26.2324 25.0005L26.2324 24.7905L26.3374 24.7905L26.3374 24.5805L26.4424 24.5805L26.4424 24.4493L26.5474 24.4493L26.5474 24.2393L26.6523 24.2393L26.6787 24.0293L26.7573 24.003C26.7661 23.9771 26.7749 23.9511 26.7837 23.9243L26.8623 23.9243L26.8887 23.7143L26.9673 23.688C26.9868 23.635 26.9868 23.635 26.9937 23.583L27.0728 23.583L27.0986 23.373L27.2036 23.373L27.2036 23.163L27.3086 23.163L27.3086 23.058L27.4136 23.058L27.4136 22.848L27.5186 22.848L27.5186 22.638L27.6235 22.638L27.6499 22.428L27.729 22.4018C27.748 22.3488 27.748 22.3488 27.7549 22.2968L27.834 22.2968L27.8599 22.0868L27.939 22.0605L27.9648 21.8505L28.0698 21.8505L28.0698 21.6405L28.1748 21.6405L28.1748 21.4305L28.2798 21.4305L28.2798 21.2205L28.3853 21.2205L28.3853 21.0105L28.4902 20.9843C28.4893 20.9557 28.4888 20.9268 28.4883 20.8974C28.4902 20.8005 28.4902 20.8005 28.5161 20.7218L28.5952 20.7218C28.6035 20.6438 28.6123 20.5659 28.6211 20.4855L28.7002 20.4855L28.7261 20.2755L28.8052 20.2493L28.8311 19.9343L28.9102 19.9343L28.9102 19.8293L28.8311 19.8293L28.8311 19.6193L28.7261 19.6193C28.7236 19.6025 28.7207 19.5857 28.7183 19.5684C28.7119 19.5505 28.7061 19.5327 28.7002 19.5143L28.6211 19.488C28.6128 19.4621 28.604 19.4361 28.5952 19.4093L28.5161 19.383C28.5078 19.357 28.499 19.3311 28.4902 19.3043C28.437 19.2851 28.437 19.2851 28.3853 19.278L28.3853 19.068L28.2798 19.068L28.2798 18.963L28.1748 18.963L28.1748 18.858L28.0698 18.858L28.0698 18.753L27.9648 18.753L27.9648 18.648L27.8599 18.648C27.8574 18.6312 27.8545 18.6144 27.8521 18.5971C27.8457 18.5793 27.8398 18.5614 27.834 18.543L27.7549 18.5168C27.7466 18.4908 27.7378 18.4648 27.729 18.438L27.6499 18.4118C27.6411 18.3858 27.6328 18.3598 27.6235 18.333C27.5708 18.3139 27.5708 18.3139 27.5186 18.3068L27.5186 18.1493L27.4136 18.123L27.4136 18.018L27.3086 17.9918L27.3086 17.913L27.2036 17.8868L27.2036 17.808L27.0986 17.7818L27.0986 17.703C27.082 17.7004 27.0649 17.6975 27.0479 17.6949C27.021 17.686 27.021 17.686 26.9937 17.6768C26.9849 17.6508 26.9766 17.6248 26.9673 17.598L26.8887 17.5718C26.8799 17.5458 26.8716 17.5198 26.8623 17.493C26.8096 17.4739 26.8096 17.4739 26.7573 17.4668L26.7573 17.3618L26.6523 17.3618L26.6523 17.2568L26.5474 17.2568L26.5474 17.1518L26.4424 17.1518L26.4424 17.0468L26.3374 17.0468C26.335 17.03 26.332 17.0132 26.3296 16.9959C26.3232 16.978 26.3174 16.9602 26.311 16.9418L26.2324 16.9155L26.2324 16.8105L26.1274 16.8105L26.1274 16.7055L26.0225 16.7055C26.0137 16.6449 26.0054 16.5843 25.9961 16.5218L25.8911 16.4955L25.8911 16.3905L25.7861 16.3905L25.7861 16.2855L25.6812 16.2855L25.6812 16.1805L25.5762 16.1805L25.5762 16.0755L25.4712 16.0755L25.4712 15.9705L25.3662 15.9705L25.3662 15.8655L25.2612 15.8655L25.2349 15.7605L25.1299 15.7343L25.1299 15.6293L25.0249 15.6293L25.0249 15.5243L24.9199 15.5243L24.9199 15.4193L24.8149 15.4193L24.8149 15.3143L24.71 15.3143L24.71 15.2093L24.605 15.2093L24.605 15.1043L24.4736 15.078L24.4736 14.9993L24.3687 14.973L24.3687 14.8943L24.2637 14.868L24.2637 14.7893L24.0801 14.763L24.0801 14.658L23.9487 14.658L23.9487 14.553L23.8438 14.553L23.8438 14.448L23.7388 14.448L23.7388 14.343L23.6338 14.343L23.6338 14.238L23.5288 14.238L23.5288 14.133L23.3188 14.1068L23.3188 14.0018L23.2139 14.0018C23.2051 13.9758 23.1963 13.9498 23.1875 13.923C23.1343 13.9039 23.1343 13.9039 23.0825 13.8968L23.0825 13.7918L22.9775 13.7918L22.9775 13.6868L22.7676 13.6868L22.7676 13.5818L22.6626 13.5818L22.6626 13.4768L22.5576 13.4768L22.5576 13.3718L22.4263 13.3455L22.4263 13.2668L22.2427 13.2405C22.2339 13.2145 22.2251 13.1886 22.2163 13.1618C22.1631 13.1426 22.1631 13.1426 22.1113 13.1355L22.1113 13.0305L22.0063 13.0305L22.0063 12.9255L21.875 12.9255L21.875 12.8468C21.7842 12.8337 21.7842 12.8337 21.6914 12.8205L21.6914 12.7418C21.6743 12.7392 21.6577 12.7363 21.6401 12.7336C21.6226 12.7276 21.6045 12.7216 21.5864 12.7155C21.5776 12.6895 21.5688 12.6636 21.5601 12.6368C21.4692 12.6237 21.4692 12.6237 21.3765 12.6105C21.3677 12.5845 21.3589 12.5586 21.3501 12.5318C21.2593 12.5187 21.2593 12.5187 21.1665 12.5055L21.1401 12.4005L20.9302 12.4005L20.9302 12.2955L20.7202 12.2955L20.7202 12.1905L20.5889 12.1905C20.5859 12.0044 20.5859 11.823 20.6152 11.6393L20.7202 11.6393L20.7202 11.4293L20.8252 11.4293L20.8252 11.193L20.9302 11.193L20.9302 10.878L21.0352 10.878L21.0352 10.668L21.1401 10.668L21.1401 10.4318L21.2451 10.4318L21.2451 10.1168L21.3501 10.1168C21.3496 10.0871 21.3491 10.0572 21.3486 10.0265C21.3501 9.93303 21.3501 9.93303 21.3765 9.90678C21.4248 9.90494 21.4736 9.90468 21.5225 9.90521C21.5488 9.90547 21.5757 9.90573 21.603 9.90573C21.623 9.90625 21.6436 9.90652 21.665 9.90678L21.665 10.0118L21.77 10.0118L21.7964 10.2218L21.9014 10.2218L21.9014 10.3268L22.0063 10.3268L22.0063 10.458L22.1113 10.458L22.1113 10.563L22.2163 10.563L22.2427 10.773L22.3477 10.7993L22.3477 10.878L22.4526 10.9043L22.4526 10.983L22.5576 10.983L22.5576 11.088L22.6626 11.088L22.6626 11.193L22.7676 11.193L22.7676 11.298L22.8726 11.298L22.8989 11.403C22.9897 11.4159 22.9897 11.4159 23.0825 11.4293L23.0825 11.5343L23.2139 11.5605L23.2139 11.6393L23.3188 11.6655L23.3188 11.7443L23.4502 11.7705L23.4502 11.8493L23.6074 11.8493L23.6338 11.9543L23.7651 11.9805L23.7651 12.0593L23.8701 12.0855L23.8701 12.1643L23.9751 12.1905L23.9751 12.2693L24.0801 12.2955L24.0801 12.3743C24.1709 12.3871 24.1709 12.3871 24.2637 12.4005L24.29 12.5055L24.395 12.5318L24.395 12.6105L24.5264 12.6368L24.5264 12.7155L24.6313 12.7418L24.6313 12.8205L24.7363 12.8205L24.7363 12.9255L24.9199 12.9255L24.9463 13.0568L25.0513 13.0568L25.0513 13.1618L25.1826 13.188L25.1826 13.2405L25.2876 13.2668L25.2876 13.3455L25.4712 13.3718L25.4976 13.4768L25.6025 13.4768L25.6025 13.5818L25.7075 13.5818L25.7075 13.6868L25.9175 13.713C25.9263 13.739 25.9351 13.765 25.9438 13.7918L26.0225 13.818L26.0225 13.8968L26.1274 13.8968L26.1538 14.0018L26.2588 14.028L26.2588 14.133L26.4424 14.133C26.4512 14.159 26.46 14.185 26.4688 14.2118C26.522 14.2309 26.522 14.2309 26.5737 14.238L26.5737 14.343L26.6787 14.343L26.6787 14.448L26.7837 14.448L26.7837 14.553L26.9937 14.553L26.9937 14.658L27.125 14.6843L27.125 14.763L27.23 14.7893L27.23 14.868L27.4399 14.8943L27.4399 14.9993L27.5449 14.9993L27.5449 15.078L27.6499 15.1043L27.6499 15.183L27.8599 15.2093L27.8599 15.288L27.9648 15.3143L27.9648 15.393L28.0962 15.4193L28.0962 15.498L28.2798 15.5243C28.2886 15.5503 28.2974 15.5763 28.3062 15.603C28.3594 15.6222 28.3594 15.6222 28.4111 15.6293L28.4111 15.7343L28.5425 15.7605L28.5425 15.813C28.6333 15.839 28.6333 15.839 28.7261 15.8655L28.7261 15.9443L28.8574 15.9705L28.8574 16.0493L28.9624 16.0755L28.9624 16.1543L29.1465 16.1543L29.1724 16.2593L29.2773 16.2855L29.2773 16.3643L29.3823 16.3905L29.3823 16.4693L29.5664 16.4955L29.5923 16.6005L29.7236 16.6268L29.7236 16.7055L29.8286 16.7318L29.8286 16.7843L30.0127 16.8105L30.0386 16.9155L30.1436 16.9155L30.1436 17.0205L30.2749 17.0468L30.2749 17.1255L30.5376 17.1255L30.564 17.2305L30.8789 17.2305L30.8789 17.1255L30.9839 17.1255L30.9839 17.0205L31.1938 17.0205L31.1938 16.9155L31.3252 16.9155L31.3252 16.8105L31.4302 16.8105L31.4302 16.7055L31.5352 16.7055L31.5352 16.5743L31.6401 16.5743L31.6401 16.3905L31.7188 16.3643L31.7451 16.0493L31.8501 16.0493L31.8501 15.5505L31.9551 15.5243L31.9551 15.1043L32.0601 15.1043C32.0596 15.082 32.0596 15.0599 32.0591 15.0371C32.0581 14.8728 32.061 14.7142 32.0864 14.5541L32.165 14.5541L32.1914 14.0028L32.27 14.0028L32.2964 13.6878L32.4014 13.6878C32.3926 13.4799 32.3838 13.2731 32.375 13.0578L32.2964 13.0578L32.27 12.9528L32.165 12.9266L32.165 12.8478L32.0601 12.8216L32.0601 12.7428L31.9551 12.7166L31.9551 12.6378L31.8501 12.6116L31.8501 12.5328L31.7451 12.5066L31.7451 12.4016L31.6401 12.3753L31.6401 12.2966L31.5352 12.2703L31.5352 12.1916L31.4302 12.1653L31.4302 12.0866L31.3252 12.0866L31.3252 11.9816L31.2202 11.9816L31.2202 11.8766C31.1553 11.8637 31.1553 11.8637 31.0889 11.8503L31.0889 11.7716L30.9839 11.7453L30.9839 11.6403L30.8789 11.6403L30.8789 11.5353L30.7739 11.5353C30.7651 11.4747 30.7563 11.4141 30.7476 11.3516L30.6689 11.3253L30.6689 11.2203L30.5376 11.2203L30.5376 11.1153L30.354 11.1153L30.3276 11.2203L30.2485 11.2203L30.2227 11.3253L30.1436 11.3253L30.1177 11.4303L30.0386 11.4303L30.0127 11.5353L29.9336 11.5353C29.9312 11.5521 29.9282 11.5689 29.9258 11.5863C29.9194 11.6041 29.9136 11.622 29.9077 11.6403C29.8682 11.6532 29.8682 11.6532 29.8286 11.6666C29.7969 11.7191 29.7969 11.7191 29.7764 11.7716L29.6978 11.7716L29.6714 11.8766L29.3564 11.8766L29.3564 11.7716L29.2515 11.7716L29.2515 11.6666L29.1465 11.6666L29.1465 11.5353L29.0415 11.5353L29.0415 11.3253L28.936 11.3253L28.936 11.2203L28.8311 11.2203L28.8311 11.0103L28.7261 11.0103L28.7002 10.8003L28.6211 10.8003C28.6128 10.7224 28.604 10.6444 28.5952 10.5641L28.5161 10.5641C28.4863 10.4743 28.4873 10.4042 28.4883 10.3097C28.4888 10.2787 28.4888 10.2478 28.4888 10.216C28.4893 10.1921 28.4897 10.1685 28.4902 10.1441L28.6211 10.1178L28.6475 10.0128L28.936 10.0128L28.9624 9.90784L29.4614 9.88158C29.4697 9.85559 29.4785 9.82961 29.4873 9.80283L29.9077 9.77658C29.916 9.7506 29.9248 9.72461 29.9336 9.69783C30.2329 9.68497 30.2329 9.68497 30.5376 9.67159L30.5376 9.61908C30.6548 9.60622 30.6548 9.60622 30.7739 9.59283L30.7998 9.69783L30.9839 9.69783L31.0103 9.80283L31.1938 9.80283L31.2202 9.90784C31.2847 9.9207 31.2847 9.9207 31.3511 9.93408L31.3511 9.98659L31.5352 10.0391L31.5352 10.1178C31.5996 10.1307 31.5996 10.1307 31.6665 10.1441L31.6665 10.2228L31.7715 10.2491L31.7715 10.3278L31.8765 10.3541L31.8765 10.4328L32.0601 10.4591L32.0864 10.5641L32.1914 10.5903L32.1914 10.6691L32.2964 10.6953L32.2964 10.7741C32.3613 10.7869 32.3613 10.7869 32.4277 10.8003L32.4277 10.8528L32.6113 10.8791L32.6377 10.9841L32.7427 10.9841L32.7427 11.0891L32.8477 11.0891L32.8477 11.1941L33.0312 11.2203L33.0576 11.3253L33.1626 11.3253L33.1626 11.4303L33.2676 11.4303C33.2764 11.4563 33.2847 11.4823 33.2939 11.5091C33.3467 11.5282 33.3467 11.5282 33.3989 11.5353L33.3989 11.6403L33.5039 11.6403L33.5039 11.7191L33.7139 11.7453L33.7139 11.8503L33.8188 11.8503L33.8188 11.9553L33.9238 11.9553L33.9238 12.0603L34.0288 12.0603L34.0288 12.1653C34.0938 12.1782 34.0938 12.1782 34.1602 12.1916L34.1602 12.2703L34.2651 12.2966L34.2651 12.3753L34.3701 12.4016L34.3701 12.5066L34.4751 12.5066L34.4751 12.6116L34.5801 12.6116L34.5801 13.3728L34.4751 13.3728C34.4751 13.3902 34.4751 13.4072 34.4751 13.4251C34.4756 13.6038 34.4761 13.7821 34.4766 13.9606C34.4766 14.0275 34.4771 14.0942 34.4771 14.1609C34.4775 14.2569 34.4775 14.3528 34.4775 14.4496C34.4775 14.4793 34.478 14.5092 34.478 14.5402L34.478 14.6244C34.478 14.6488 34.478 14.6735 34.478 14.6987C34.4751 14.7594 34.4658 14.8111 34.4487 14.8691L34.3701 14.8691C34.3701 14.8846 34.3701 14.9003 34.3706 14.9163C34.3711 14.988 34.3711 15.0599 34.3716 15.1316C34.3721 15.156 34.3721 15.1807 34.3726 15.2059C34.373 15.35 34.3652 15.4867 34.3438 15.6311L34.2651 15.6311L34.2651 15.9461L34.3701 15.9724L34.3701 16.0511L35.8662 16.0249C35.875 15.9989 35.8838 15.9729 35.8926 15.9461C36.0229 15.9456 36.1533 15.9451 36.2837 15.9448L36.4165 15.944C36.4805 15.9438 36.5439 15.9438 36.6079 15.9435C36.6377 15.9432 36.6377 15.9432 36.668 15.9432C36.7158 15.9432 36.7637 15.9445 36.811 15.9461C36.8374 15.9724 36.8374 15.9724 36.8403 16.0742C36.8403 16.1196 36.8403 16.165 36.8403 16.2105C36.8403 16.2343 36.8398 16.258 36.8398 16.2826C36.8398 16.359 36.8398 16.4357 36.8389 16.5121C36.8389 16.5638 36.8389 16.6155 36.8389 16.6672C36.8384 16.7945 36.8379 16.9216 36.8374 17.0478L36.7588 17.0478L36.7588 19.0953L36.8374 19.0953C36.8462 19.3379 36.855 19.581 36.8638 19.8303L36.9424 19.8303L36.9688 20.2503L37.0474 20.2503C37.0713 20.3511 37.0767 20.4441 37.0752 20.547C37.0752 20.575 37.0747 20.6031 37.0747 20.632C37.0742 20.6638 37.0742 20.6638 37.0737 20.6963L37.1523 20.6963C37.1807 20.7871 37.1812 20.8706 37.1802 20.9641C37.1802 20.9924 37.1797 21.0208 37.1797 21.0499C37.1792 21.0714 37.1792 21.093 37.1787 21.115L37.2837 21.1413L37.2837 21.43L37.3887 21.4563L37.3887 21.6663L37.4937 21.6925L37.4937 21.85L37.5986 21.85C37.6025 21.8752 37.6025 21.8752 37.6069 21.9009C37.6128 21.9188 37.6191 21.9366 37.625 21.955L37.7036 21.9813C37.7124 22.0072 37.7212 22.0332 37.73 22.06C37.7832 22.0792 37.7832 22.0792 37.835 22.0863L37.835 22.1913L38.0449 22.1913L38.0449 22.2963L38.439 22.2963L38.439 22.0075L38.3599 21.9813L38.334 21.7713L38.2549 21.7713C38.2202 21.6668 38.2271 21.5652 38.229 21.4563L38.1235 21.4563L38.1235 21.115L38.0186 21.115L37.9927 20.695L37.9136 20.695L37.8877 20.17L37.8086 20.17L37.7827 19.5138L37.7036 19.5138C37.6724 18.6974 37.6724 18.6974 37.6777 18.3063L37.5986 18.3063L37.5986 18.2275L37.6777 18.2275L37.6777 18.0175L37.5986 17.9913L37.5986 17.545L37.6777 17.545C37.6772 17.5169 37.6768 17.4888 37.6763 17.4597C37.6733 17.0318 37.689 16.6066 37.7036 16.1787L37.8086 16.1525L37.835 16.0474L37.9136 16.0474L37.9399 15.9424L38.1235 15.9424L38.1499 15.8374L38.439 15.8112C38.4473 15.7852 38.4561 15.7592 38.4648 15.7325C38.5791 15.7025 38.6851 15.708 38.8008 15.7177C38.8193 15.7191 38.8374 15.7204 38.856 15.7219C38.9009 15.7251 38.9453 15.7288 38.9897 15.7325L39.0161 15.8374L39.1211 15.8374L39.1211 15.9424L39.2261 15.9687L39.2261 16.0474L39.3311 16.0474L39.3311 16.2574L39.436 16.2574L39.436 16.3624L39.541 16.3624L39.5674 16.5724L39.646 16.5724C39.6499 16.5976 39.6499 16.5976 39.6543 16.6234C39.6602 16.6412 39.666 16.6591 39.6724 16.6774L39.751 16.7037L39.7773 16.9137L39.8823 16.9137L39.8823 17.0187L39.9873 17.0187L39.9873 17.1237L40.0923 17.1237L40.0923 17.2287L40.1973 17.2287L40.1973 17.3337L40.3286 17.3599L40.3286 17.4387L40.4336 17.465L40.4336 17.5437L40.6436 17.5699L40.6436 17.6749L40.7485 17.6749L40.7485 17.78L40.9585 17.78L40.9585 17.8849L41.1685 17.8849L41.1685 17.9899L41.5098 17.9899L41.5098 18.0949L41.9297 18.0949L41.9561 18.2L42.0083 18.2L42.0083 18.1212L42.2183 18.0949L42.2183 17.8062L41.8247 17.78C41.8159 17.754 41.8076 17.728 41.7983 17.7012L41.5098 17.6749L41.4834 17.5699L41.2734 17.5699C41.2646 17.544 41.2563 17.518 41.2471 17.4912L41.0635 17.465L41.0371 17.3599L40.8535 17.3599L40.8271 17.2549L40.7222 17.2287L40.7222 17.1499L40.6172 17.1237L40.6172 17.045L40.5122 17.0187L40.5122 16.9399L40.4072 16.9137L40.4072 16.8349L40.3022 16.8087L40.3022 16.7037L40.1973 16.6774L40.1973 16.5987L40.0923 16.5724C40.0835 16.5118 40.0747 16.4512 40.0659 16.3887L39.9609 16.3887L39.9609 16.2837L39.856 16.2574L39.856 16.0737L39.751 16.0737L39.751 15.8637L39.646 15.8637L39.6196 15.6537L39.541 15.6274L39.541 15.4174L39.436 15.4174L39.4097 15.2074L39.3311 15.2074C39.3223 15.1295 39.3135 15.0515 39.3047 14.9712L39.2261 14.9712C39.2007 14.8956 39.1968 14.8478 39.1982 14.7693C39.1982 14.7481 39.1987 14.7271 39.1987 14.705C39.1992 14.6809 39.1992 14.6809 39.1997 14.6562L39.0947 14.6562L39.0947 14.4462L38.9897 14.4462L38.9897 14.3149L38.8848 14.3149L38.8848 14.2099L38.7798 14.2099C38.771 14.1493 38.7622 14.0887 38.7534 14.0262L38.6484 13.9999L38.6484 13.9212L38.4385 13.8949L38.4385 13.7899L38.2549 13.7899L38.2549 13.685L38.1235 13.685L38.1235 13.5799L38.0186 13.5799L38.0186 13.4749L37.9136 13.4749L37.9136 13.3699L37.8086 13.3699L37.7822 13.1599L37.7036 13.1599L37.7036 12.6087L37.7822 12.6087L37.8086 12.2937C37.8945 12.2722 37.9521 12.2646 38.0381 12.2659C38.0591 12.2661 38.0801 12.2664 38.1016 12.2664C38.1177 12.2669 38.1333 12.2672 38.1499 12.2674L38.1499 12.3724L38.2549 12.3724L38.2549 12.5037L38.3599 12.5037L38.3862 12.7137L38.4648 12.7137L38.4648 12.8187L38.5698 12.8187L38.5698 12.9237C38.6348 12.9368 38.6348 12.9368 38.7012 12.95L38.7012 13.0287L38.9111 13.0549L38.9111 13.1599L39.1211 13.1599L39.1211 13.2649L39.3311 13.2649L39.3311 13.3699L39.541 13.3699L39.541 13.4749L39.6724 13.4749L39.6724 13.5799L39.8823 13.5799L39.8823 13.685L39.9873 13.685L39.9873 13.7899L40.1973 13.8162C40.2061 13.8422 40.2144 13.8682 40.2236 13.8949L40.3022 13.9212L40.3022 13.9999L40.4336 14.0262L40.4336 14.1049L40.5386 14.1312L40.5386 14.2099L40.6436 14.2362L40.6436 14.3149L40.8535 14.3412L40.8535 14.5512L40.9585 14.5512L40.9585 14.6562L41.0635 14.6562L41.0635 14.7612L41.1685 14.7612L41.1685 14.8662L41.2734 14.8662C41.2773 14.8914 41.2773 14.8914 41.2817 14.9171C41.2876 14.935 41.2939 14.9528 41.2998 14.9712L41.3784 14.9975C41.3872 15.0234 41.396 15.0494 41.4048 15.0762L41.4834 15.1024L41.4834 15.1812L41.6147 15.2074L41.6147 15.2862L41.7197 15.3124L41.7197 15.3912L41.9033 15.3912L41.9297 15.4962L42.1133 15.5224C42.1221 15.5484 42.1309 15.5744 42.1396 15.6012C42.1572 15.6054 42.1743 15.6099 42.1924 15.6143C42.2095 15.6185 42.2271 15.623 42.2446 15.6274C42.2534 15.6534 42.2622 15.6794 42.271 15.7062L42.6646 15.7325C42.6733 15.7584 42.6821 15.7844 42.6909 15.8112L43.9512 15.8112C43.9595 15.7852 43.9683 15.7592 43.9771 15.7325C44.0068 15.7317 44.0366 15.7311 44.0674 15.7303C44.106 15.729 44.145 15.7275 44.1841 15.7259C44.2036 15.7256 44.2231 15.7251 44.2437 15.7248C44.3071 15.723 44.3071 15.723 44.3975 15.7062C44.4395 15.6561 44.4395 15.6561 44.4497 15.6012L44.6074 15.6012L44.6333 15.4962L44.7383 15.4962L44.7646 15.3912L44.8433 15.3912L44.8696 15.2862L44.9487 15.2862L44.9487 15.1024L45.0537 15.1024L45.0537 14.9975L45.1323 14.9712C45.1411 14.9106 45.1494 14.8499 45.1587 14.7874L45.2637 14.7874L45.2637 14.5512L45.3687 14.5512L45.3945 14.3412L45.4736 14.3412L45.4995 14.1312L45.5786 14.1049C45.5874 14.0443 45.5957 13.9837 45.605 13.9212L45.6836 13.8949C45.7026 13.8419 45.7026 13.8419 45.71 13.7899L45.8149 13.7899L45.8149 13.5799L45.9199 13.5799L45.9199 13.4749L46.0249 13.4749L46.0508 13.3437L46.1299 13.3437L46.1299 13.2649L46.2349 13.2649L46.2612 13.1599L46.4712 13.1599L46.4971 13.0549L46.8125 13.0287L46.8125 12.95C46.9165 12.915 47.0186 12.9219 47.1274 12.9237L47.1274 12.8187L47.5474 12.8187L47.5737 12.9237L47.6787 12.9237L47.6787 13.0287L47.7837 13.0549L47.7837 13.5799L47.8623 13.5799C47.8936 13.6913 47.8921 13.7997 47.8921 13.9133L47.8921 13.9837C47.8921 14.0601 47.8921 14.1364 47.8921 14.2131C47.8921 14.2661 47.8921 14.3194 47.8921 14.3724C47.8921 14.4837 47.8921 14.5953 47.8921 14.7058C47.8916 14.8486 47.8921 14.9919 47.8921 15.1337C47.8921 15.2437 47.8921 15.3534 47.8921 15.4644C47.8921 15.5169 47.8921 15.5697 47.8921 15.6225C47.8921 15.696 47.8921 15.7695 47.8921 15.8432C47.8921 15.8758 47.8921 15.8758 47.8921 15.9091C47.8916 16.0031 47.8877 16.0873 47.8623 16.1769L47.7837 16.1769L47.7837 16.4919L47.6787 16.5181C47.6792 16.5596 47.6792 16.5596 47.6802 16.6019C47.6787 16.6843 47.6714 16.7536 47.6523 16.8331L47.5737 16.8331L47.5474 17.1481L47.4424 17.1481L47.4424 17.3844L47.3633 17.3844C47.355 17.445 47.3462 17.5056 47.3374 17.5681L47.2583 17.5944L47.2324 17.8044L47.1274 17.8044L47.1274 18.0144L47.0225 18.0144L47.0225 18.1981L46.9175 18.2244C46.9087 18.285 46.8999 18.3456 46.8911 18.4081L46.8125 18.4081L46.7861 18.6181L46.707 18.6444C46.688 18.6974 46.688 18.6974 46.6812 18.7494L46.5762 18.7494L46.5762 18.8544L46.4971 18.8544L46.4712 19.0644L46.3662 19.0644L46.3662 19.1694L46.2612 19.1694L46.2612 19.2744L46.1558 19.2744L46.1558 19.4844L46.0508 19.4844L46.0249 19.6156L45.9199 19.6156L45.9199 19.7206L45.8149 19.7206L45.8149 19.8256L45.71 19.8256L45.71 19.9306L45.605 19.9306L45.605 20.0356L45.4995 20.0356L45.4995 20.1406L45.3945 20.1406L45.3945 20.2456L45.2896 20.2456L45.2896 20.3769L45.1846 20.3769L45.1846 20.4819L45.0796 20.4819L45.0537 20.5869L44.9487 20.5869L44.9487 20.6919L44.8433 20.6919L44.8433 20.7969L44.6597 20.8231C44.6509 20.8491 44.6426 20.8751 44.6333 20.9019L44.5283 20.9019L44.5283 21.0069L44.4233 21.0069L44.4233 21.1119L44.2134 21.1381L44.187 21.2431L44.1084 21.2431L44.082 21.3481L43.8984 21.3481L43.8984 21.4531L43.7671 21.4531L43.7671 21.5581L43.6621 21.5581L43.6621 21.6631L43.4521 21.6631L43.4521 21.7681L43.2422 21.7944L43.2422 21.8731C43.2256 21.8757 43.2085 21.8786 43.1914 21.8812C43.1646 21.8902 43.1646 21.8902 43.1372 21.8994C43.1284 21.9254 43.1201 21.9513 43.1108 21.9781L42.9272 22.0044C42.9185 22.0303 42.9102 22.0563 42.9009 22.0831L42.6909 22.1094L42.6909 22.2144L42.481 22.2144L42.481 22.3194L42.3496 22.3194L42.3496 22.4244L42.1396 22.4244L42.1396 22.5294L41.8247 22.5294L41.8247 22.6344L41.6147 22.6606C41.606 22.6866 41.5977 22.7126 41.5884 22.7394L41.2998 22.7656L41.2998 22.8444L41.0635 22.8706L41.0635 22.9494L40.8535 22.9756C40.8447 23.0016 40.8359 23.0276 40.8271 23.0544C40.7358 23.0932 40.6362 23.0824 40.5386 23.0806L40.5122 23.1856L40.4072 23.1856C40.416 23.2462 40.4248 23.3069 40.4336 23.3694C40.4829 23.3686 40.4829 23.3686 40.5337 23.3678C40.6079 23.3665 40.6499 23.3715 40.7222 23.3956L40.7222 23.4744L40.9585 23.5006L40.9585 23.5794L41.1948 23.6056L41.1948 23.6844L41.4048 23.7106L41.4048 23.7894L41.7197 23.8156L41.7197 23.9206L41.9297 23.9206L41.9297 24.0256L42.1396 24.0256L42.1396 24.1306L42.271 24.1306L42.271 24.2356L42.481 24.2356L42.481 24.3406L42.5859 24.3406L42.5859 24.4456L42.6909 24.4456L42.6909 24.5769L42.7959 24.5769L42.7959 24.6819L42.7173 24.6819L42.6909 24.9969L42.5859 24.9969L42.5859 25.2069L42.481 25.2069L42.4546 25.4169L42.376 25.4169L42.3496 25.5481L42.271 25.5481L42.2446 25.8631L42.1396 25.8631L42.1396 26.0731L42.061 26.0731L42.0347 26.4931L42.2446 26.4931L42.271 26.3881L42.3496 26.3881L42.3496 26.3094L42.4546 26.3094L42.4546 26.2044L42.5596 26.2044L42.5596 26.0994C42.585 26.0954 42.585 26.0954 42.6108 26.0912C42.6284 26.0852 42.6465 26.0791 42.6646 26.0731C42.6733 26.0471 42.6821 26.0211 42.6909 25.9944L42.7695 25.9681C42.7891 25.9151 42.7891 25.9151 42.7959 25.8631L42.9009 25.8631L42.9009 25.7581L43.085 25.7319L43.085 25.6531C43.1099 25.6492 43.1099 25.6492 43.1357 25.645C43.1533 25.6389 43.1714 25.6329 43.1899 25.6269C43.1982 25.6009 43.207 25.5749 43.2158 25.5481L43.3208 25.5481L43.3208 25.4431L43.5308 25.4431L43.5308 25.3381C43.5562 25.3342 43.5562 25.3342 43.582 25.33C43.5996 25.3239 43.6177 25.3179 43.6362 25.3119C43.6445 25.2859 43.6533 25.2599 43.6621 25.2331L43.8721 25.2069L43.8721 25.1019L44.1611 25.1019L44.1611 24.9969L44.8174 24.9969L44.8174 24.8919L45.71 24.8919L45.71 24.7869L47.4424 24.7606C47.4336 24.7086 47.4248 24.6567 47.416 24.6031L47.3374 24.5506C47.3286 24.5246 47.3198 24.4986 47.311 24.4719L47.2583 24.4456C47.2139 24.2731 47.1992 24.0991 47.2061 23.9206L47.1533 23.9206L47.1533 23.8156L47.2324 23.8156L47.2583 23.6844C47.4751 23.6802 47.4751 23.6802 47.5474 23.7106C47.5562 23.7366 47.5645 23.7626 47.5737 23.7894C47.6265 23.8085 47.6265 23.8085 47.6787 23.8156L47.6787 23.9206L47.7837 23.9206L47.7837 24.0256L47.8887 24.0256L47.8887 24.2356L47.9937 24.2356L47.9937 24.3406L48.0986 24.3406L48.0986 24.4719L48.2036 24.4719L48.2036 24.5769L48.3086 24.5769L48.3086 24.6819L48.4399 24.6819L48.4399 24.7869L48.6235 24.7869C48.6323 24.8129 48.6406 24.8388 48.6499 24.8656C48.7026 24.8848 48.7026 24.8848 48.7549 24.8919L48.7549 24.9969L48.8599 24.9969L48.8599 25.1019L48.9648 25.1019L48.9648 25.2069L49.0698 25.2069C49.0894 25.4639 49.1021 25.7109 49.0698 25.9681L49.1748 25.9681L49.1748 26.2044L49.4897 26.1519C49.4985 26.1259 49.5068 26.0999 49.5161 26.0731L49.6997 26.0469C49.7085 26.0209 49.7173 25.9949 49.7261 25.9681L49.9097 25.9419C49.9185 25.9159 49.9272 25.8899 49.936 25.8631C49.9707 25.8544 50.0059 25.8455 50.041 25.8369C50.0498 25.8109 50.0581 25.7849 50.0674 25.7581C50.1279 25.7397 50.1895 25.7222 50.251 25.7056L50.2773 25.6531C50.3384 25.6423 50.3994 25.6337 50.4609 25.6269C50.4697 25.6009 50.4785 25.5749 50.4873 25.5481C50.5376 25.5429 50.5879 25.5381 50.6382 25.5334C50.6665 25.5305 50.6943 25.5279 50.7231 25.525C50.793 25.5221 50.8418 25.5266 50.9072 25.5481L50.9072 25.7581L51.0122 25.7581L51.0122 25.8631L50.9072 25.8631L50.9072 25.9681L50.8022 25.9681L50.8022 26.0731L50.6973 26.0731L50.6973 26.1781L50.4873 26.2044L50.4873 26.2831C50.4619 26.287 50.4619 26.287 50.4365 26.2912C50.4185 26.2973 50.4004 26.3033 50.3823 26.3094C50.3735 26.3353 50.3647 26.3613 50.356 26.3881L50.1724 26.4144C50.1636 26.4404 50.1548 26.4663 50.146 26.4931L49.936 26.5194L49.936 26.5981L49.7261 26.6244L49.7261 27.0181L49.8311 27.0181L49.8311 27.1494L49.936 27.1494L49.936 27.3594L50.041 27.3594L50.041 27.5694L50.146 27.5694L50.146 27.7794L50.251 27.7794L50.2773 27.9894L50.3823 28.0156L50.3823 28.1994L50.4873 28.2256L50.4873 28.3306L50.5659 28.3306L50.5923 28.5406L50.6973 28.5406L50.6973 28.7506L50.8022 28.7506L50.8286 28.9606L50.9072 28.9869C50.916 29.0475 50.9248 29.1081 50.9336 29.1706L51.0122 29.1969L51.0386 29.4069L51.1172 29.4069L51.1436 29.6169L51.2485 29.6431L51.2485 29.7481L51.3271 29.7481L51.3535 29.9581L51.4585 29.9581L51.4585 30.1681L51.5635 30.1681L51.5635 30.3781L51.6685 30.3781L51.6685 30.5881L51.7734 30.5881L51.7998 30.7981L51.8784 30.8244C51.8872 30.885 51.896 30.9456 51.9048 31.0081L51.9834 31.0344L52.0098 31.2444L52.0884 31.2444L52.1147 31.4544L52.2197 31.4806L52.2197 31.6644L52.3247 31.6906L52.3247 31.8744L52.4297 31.8744L52.4297 31.9794L52.5347 31.9794L52.5347 32.2156L52.6396 32.2156L52.6396 32.4256L52.7446 32.4256L52.7446 32.6356L52.8496 32.6356L52.876 32.8456L52.9546 32.8456L52.981 33.0556L53.0596 33.0556C53.0728 33.1727 53.0728 33.1727 53.0859 33.2919L53.1909 33.2919L53.1909 33.5019L53.2959 33.5019L53.2959 33.7119L53.4009 33.7119L53.4009 33.9219L53.5059 33.9219L53.5059 34.1319L53.6108 34.1319L53.6372 34.3419L53.7158 34.3419L53.7158 34.4731L53.8208 34.4731L53.8208 34.6831L53.9258 34.6831C53.939 34.8002 53.939 34.8002 53.9521 34.9194L54.0308 34.9194L54.0571 35.1294L54.1362 35.1294L54.1621 35.3394L54.2671 35.3394L54.2671 35.5494L54.3721 35.5494L54.3984 35.8644L54.4771 35.8644L54.5034 36.0744L54.582 36.0744L54.582 36.2056L54.687 36.2056L54.687 36.4156L54.7925 36.4156C54.8052 36.5324 54.8052 36.5324 54.8184 36.6519L54.8975 36.6519L54.9233 36.8619L55.0024 36.8619L55.0283 37.0719L55.1333 37.0719L55.1333 37.3081L55.2383 37.3081C55.2515 37.438 55.2515 37.438 55.2646 37.5706L55.3433 37.5706L55.3696 37.7806L55.4487 37.7806L55.4746 37.9906L55.5537 38.0169C55.5664 38.1728 55.5664 38.1728 55.5796 38.3319L55.6587 38.3319C55.6714 38.4487 55.6714 38.4487 55.6846 38.5681L55.7637 38.5681L55.7896 38.7781L55.8687 38.7781C55.873 38.8256 55.8774 38.8731 55.8818 38.9209C55.8853 38.9605 55.8853 38.9605 55.8892 39.0012C55.896 39.1104 55.8945 39.2199 55.8945 39.3294L55.895 39.3325ZM41.7988 24.8688L41.7202 24.8688C41.7114 24.8081 41.7026 24.7475 41.6938 24.685C41.5894 24.6501 41.4878 24.6569 41.3789 24.6588L41.3525 24.5538L41.1689 24.5538L41.1426 24.4488L40.9326 24.4488L40.9326 24.3438L40.7227 24.3438L40.7227 24.2388L40.5913 24.2388L40.5913 24.1338L40.3027 24.1338L40.3027 24.0288L40.0923 24.0025C40.0796 23.9634 40.0796 23.9634 40.0664 23.9238L39.8564 23.8975L39.8564 23.8188L39.6724 23.7925C39.6592 23.7534 39.6592 23.7534 39.6465 23.7138C39.6133 23.7111 39.5801 23.7083 39.5464 23.7056C39.4541 23.6943 39.4194 23.6794 39.3574 23.6088C39.2891 23.5899 39.2891 23.5899 39.2261 23.5825C39.2134 23.5434 39.2134 23.5434 39.2002 23.5038L39.0161 23.4775C39.0029 23.4384 39.0029 23.4384 38.9902 23.3988L38.7798 23.3725C38.7671 23.3334 38.7671 23.3334 38.7539 23.2938L38.4912 23.2675C38.478 23.2284 38.478 23.2284 38.4648 23.1888C38.3608 23.1756 38.3608 23.1756 38.2549 23.1625C38.2466 23.1365 38.2378 23.1105 38.229 23.0838L38.0449 23.0575C38.0361 23.0315 38.0278 23.0055 38.0186 22.9788C37.958 22.9604 37.8965 22.9428 37.835 22.9263L37.8086 22.8738C37.7788 22.8656 37.748 22.8575 37.7168 22.8491C37.6714 22.8354 37.6714 22.8354 37.625 22.8213C37.6162 22.7953 37.6079 22.7693 37.5986 22.7425C37.4946 22.7294 37.4946 22.7294 37.3887 22.7163C37.3799 22.6903 37.3716 22.6643 37.3623 22.6375L37.1787 22.6113C37.1699 22.5853 37.1616 22.5593 37.1523 22.5325L36.9688 22.5063C36.96 22.4803 36.9517 22.4543 36.9424 22.4275L36.7324 22.4275L36.7324 22.3225L36.5225 22.2963C36.5137 22.2703 36.5054 22.2443 36.4961 22.2175L36.3125 22.1913C36.3037 22.1653 36.2954 22.1393 36.2861 22.1125C36.1895 22.07 36.0742 22.0844 35.9712 22.0863L35.9448 21.9813L35.7349 21.9813L35.7349 21.9025C35.6592 21.8773 35.6118 21.8734 35.5332 21.8747C35.5015 21.8749 35.5015 21.8749 35.4688 21.8752C35.4526 21.8757 35.4365 21.876 35.4199 21.8763L35.4199 21.7713L35.21 21.7713L35.1836 21.6663L34.6587 21.6663L34.6587 21.5613L33.9238 21.5613L33.9238 21.6663C33.895 21.666 33.895 21.666 33.8652 21.6657C33.7773 21.6652 33.6899 21.6649 33.6025 21.6647C33.5723 21.6644 33.542 21.6642 33.5107 21.6639C33.481 21.6639 33.4521 21.6639 33.4219 21.6636C33.3813 21.6634 33.3813 21.6634 33.3403 21.6634C33.2764 21.666 33.2236 21.6741 33.1631 21.6925L33.1631 21.7713L32.7432 21.7713L32.7432 21.8763C32.7217 21.876 32.7002 21.8757 32.6777 21.8752C32.6494 21.8752 32.6211 21.8749 32.5923 21.8747C32.564 21.8744 32.5361 21.8739 32.5073 21.8736C32.4404 21.8757 32.3867 21.8828 32.3232 21.9025L32.3232 21.9813L32.0869 21.9813C32.0781 22.0072 32.0693 22.0332 32.0605 22.06C32.04 22.0632 32.0195 22.0663 31.9985 22.0697C31.9717 22.0739 31.9453 22.0784 31.918 22.0831C31.8911 22.0873 31.8647 22.0915 31.8374 22.096C31.8159 22.1015 31.7939 22.1067 31.772 22.1125L31.7456 22.165C31.6743 22.1815 31.6743 22.1815 31.5864 22.1944C31.543 22.2012 31.543 22.2012 31.4985 22.2078C31.4761 22.211 31.4536 22.2144 31.4307 22.2175C31.4219 22.2435 31.4131 22.2695 31.4043 22.2963L31.2207 22.3225C31.2119 22.3485 31.2031 22.3745 31.1943 22.4013C31.103 22.4144 31.103 22.4144 31.0107 22.4275C31.002 22.4535 30.9932 22.4795 30.9844 22.5063C30.8413 22.5194 30.8413 22.5194 30.6953 22.5325C30.687 22.5585 30.6782 22.5845 30.6694 22.6113L30.4595 22.6375C30.4507 22.6635 30.4419 22.6895 30.4331 22.7163C30.3418 22.7294 30.3418 22.7294 30.2495 22.7425C30.2407 22.7685 30.2319 22.7945 30.2231 22.8213C30.1621 22.8396 30.1006 22.8572 30.0391 22.8738L30.0132 22.9263C29.9834 22.9344 29.9536 22.9425 29.9229 22.9509C29.8232 22.9698 29.8232 22.9698 29.7769 23.0575C29.7378 23.0706 29.7378 23.0706 29.6982 23.0838L29.6719 23.1363C29.6416 23.1444 29.6113 23.1525 29.5801 23.1609C29.5498 23.1701 29.519 23.1793 29.4883 23.1888C29.4795 23.2148 29.4707 23.2407 29.4619 23.2675C29.3706 23.2806 29.3706 23.2806 29.2778 23.2938C29.2695 23.3197 29.2607 23.3457 29.252 23.3725C29.2168 23.3812 29.1816 23.3901 29.147 23.3988C29.1382 23.4247 29.1294 23.4507 29.1206 23.4775L28.9629 23.5038C28.9546 23.5297 28.9458 23.5557 28.937 23.5825C28.876 23.6009 28.8145 23.6185 28.7529 23.635L28.7266 23.6875C28.7095 23.6912 28.6924 23.6951 28.6743 23.6991C28.6567 23.7038 28.6396 23.7088 28.6216 23.7138C28.6133 23.7397 28.6045 23.7657 28.5957 23.7925C28.5044 23.8056 28.5044 23.8056 28.4116 23.8188L28.4116 23.9238L28.3066 23.9238L28.3066 24.1338L28.2017 24.1338L28.2017 24.475L28.3066 24.475L28.3066 25L28.4116 25L28.4116 25.8663L28.5166 25.8663C28.5161 25.8825 28.5161 25.8988 28.5156 25.9156C28.5137 25.9894 28.5127 26.0631 28.5117 26.1369C28.5112 26.1626 28.5103 26.1884 28.5098 26.2146C28.5098 26.2393 28.5093 26.2639 28.5093 26.2891C28.5088 26.312 28.5083 26.3346 28.5078 26.3579C28.519 26.4309 28.5435 26.4469 28.5957 26.4963C28.6055 26.5695 28.6113 26.6377 28.6138 26.7112C28.6143 26.7309 28.6157 26.7506 28.6162 26.7708C28.6182 26.8194 28.6201 26.8677 28.6216 26.9163L28.7007 26.9425C28.7021 26.9661 28.7036 26.99 28.7051 27.0144C28.7085 27.0609 28.7085 27.0609 28.7119 27.1082C28.7144 27.1389 28.7163 27.1698 28.7183 27.2013C28.7241 27.2845 28.7241 27.2845 28.7529 27.3625L28.8057 27.3888C28.8198 27.473 28.8291 27.5565 28.8374 27.6415C28.8428 27.6888 28.8501 27.7358 28.8579 27.7825L28.9106 27.8088C28.9272 27.8802 28.9272 27.8802 28.9399 27.9678C28.9443 27.997 28.9487 28.0258 28.9531 28.0558C28.9565 28.0781 28.96 28.1007 28.9629 28.1238L29.042 28.15L29.0679 28.4388L29.1729 28.4388L29.1729 28.6488L29.2778 28.6488C29.2773 28.6729 29.2773 28.6729 29.2769 28.6976C29.2769 28.7188 29.2769 28.7401 29.2764 28.7619C29.2764 28.7829 29.2759 28.8039 29.2754 28.8257C29.2754 28.8895 29.2754 28.8895 29.3042 28.9638L29.3828 28.9638L29.4092 29.1738L29.4883 29.1738L29.4883 29.305L29.5933 29.305L29.5933 29.515L29.6982 29.5413C29.7065 29.6019 29.7153 29.6625 29.7241 29.725L29.8032 29.7513C29.8213 29.8053 29.8213 29.8053 29.8291 29.8563L29.9082 29.8563L29.9341 30.0663L30.0391 30.0663L30.0391 30.1713L30.1445 30.1713L30.1445 30.2763L30.2495 30.2763L30.2495 30.4075L30.3545 30.4075L30.3545 30.5125L30.4595 30.5125L30.4595 30.6175L30.5645 30.6175L30.5645 30.7225L30.6694 30.7225L30.6953 30.8275L30.8008 30.8275L30.8008 30.9325L31.0107 30.9325L31.0107 31.0375L31.1416 31.0375L31.1416 31.1425L31.3257 31.1425L31.3257 31.2475L31.5356 31.2738C31.5444 31.2997 31.5527 31.3257 31.562 31.3525L31.772 31.3788L31.772 31.4575L31.9819 31.4838L31.9819 31.5625L32.2183 31.5888L32.2183 31.6675L32.5068 31.6938L32.5068 31.7725C32.5225 31.7751 32.5381 31.778 32.5542 31.7806C32.6118 31.7988 32.6118 31.7988 32.647 31.8381C32.7026 31.8888 32.7393 31.8901 32.8135 31.8956C32.8452 31.8983 32.8452 31.8983 32.8779 31.9009C32.894 31.9017 32.9102 31.9027 32.9268 31.9038C32.9355 31.9297 32.9443 31.9557 32.9531 31.9825L33.0317 32.0088C33.0405 32.0347 33.0493 32.0607 33.0581 32.0875C33.0874 32.0901 33.1167 32.093 33.147 32.0956C33.1938 32.1046 33.1938 32.1046 33.2417 32.1138L33.2944 32.1925C33.3555 32.2106 33.4165 32.2282 33.478 32.245L33.5044 32.2975C33.5498 32.3096 33.5498 32.3096 33.5962 32.3222C33.6265 32.3314 33.6567 32.3406 33.688 32.35C33.6968 32.376 33.7056 32.402 33.7144 32.4288L34.0029 32.4288L34.0029 32.2188L33.9243 32.2188L33.8979 32.0088L33.793 32.0088L33.793 31.9038L33.688 31.9038L33.688 31.7988L33.583 31.7988L33.583 31.6675L33.478 31.6675L33.478 31.4838L33.373 31.4575L33.373 31.2738L33.2681 31.2475L33.2681 31.1425L33.1631 31.1425C33.1641 31.0937 33.1641 31.0937 33.1646 31.0441C33.165 30.9677 33.1611 30.9007 33.1367 30.8275L33.0581 30.8275L33.0317 30.4863L32.9531 30.4863C32.9399 30.1083 32.9399 30.1083 32.9268 29.725L32.8481 29.725L32.8218 29.4363L32.7432 29.41C32.7251 29.3559 32.7251 29.3559 32.7168 29.305L32.6118 29.305L32.6118 29.1213L32.5332 29.095C32.5244 29.0601 32.5156 29.0249 32.5068 28.99L32.4282 28.9638C32.4194 28.9378 32.4106 28.9118 32.4019 28.885L32.3232 28.8588C32.3057 28.7976 32.2881 28.7362 32.2705 28.675L32.1919 28.6488C32.1831 28.6228 32.1743 28.5968 32.1655 28.57L32.0869 28.5438C32.0781 28.5178 32.0693 28.4918 32.0605 28.465L31.9819 28.4125C31.9731 28.3865 31.9644 28.3605 31.9556 28.3338L31.877 28.3075C31.8682 28.2555 31.8594 28.2036 31.8506 28.15L31.7456 28.15L31.7456 28.0188L31.6406 28.0188L31.6406 27.835L31.5356 27.8088L31.5356 27.7038L31.4307 27.7038L31.4307 27.5988L31.3257 27.5988L31.2993 27.3888L31.2207 27.3625C31.2026 27.3084 31.2026 27.3084 31.1943 27.2575L31.0894 27.2575L31.0894 27.1525L30.9844 27.1525L30.9844 26.9688L30.8794 26.9688L30.8794 26.8375L30.7744 26.8375L30.7744 26.7325L30.6694 26.7325L30.6694 26.6275L30.5645 26.6275L30.5381 26.4175L30.4595 26.4175L30.4331 26.2863L30.3545 26.2863L30.3281 26.0763L30.2495 26.0763C30.2363 25.7639 30.2363 25.7639 30.2231 25.4463L30.3281 25.4463C30.3369 25.3683 30.3452 25.2903 30.3545 25.21L30.4331 25.21L30.4595 25L30.5381 25C30.5469 24.922 30.5552 24.8441 30.5645 24.7638L30.6431 24.7638C30.6519 24.7031 30.6602 24.6425 30.6694 24.58L30.7744 24.58L30.7744 24.4488L30.8794 24.4488L30.8794 24.265L31.1943 24.2388L31.1943 24.1338L32.1919 24.16L32.1919 24.2388L35.5254 24.2388L35.5254 24.1338L35.7617 24.1338L35.7617 24.0288L35.9717 24.0288L35.9717 23.9238L36.1816 23.9238L36.1816 23.8188L36.3916 23.8188L36.3916 23.7138C36.4077 23.714 36.4243 23.7143 36.4404 23.7148C36.4619 23.7148 36.4829 23.7151 36.5049 23.7153C36.5259 23.7156 36.5469 23.7161 36.5688 23.7164C36.6323 23.7164 36.6323 23.7164 36.707 23.6875L36.707 23.6088C36.8628 23.5956 36.8628 23.5956 37.022 23.5825L37.022 23.5038C37.3604 23.4906 37.3604 23.4906 37.7041 23.4775L37.7041 23.3988L37.9404 23.3988L37.9404 23.4775L38.4917 23.5038L38.4917 23.5825L38.9116 23.6088L38.9116 23.6875C39.0161 23.7224 39.1177 23.7156 39.2266 23.7138L39.2266 23.8188L39.437 23.8188L39.437 23.9238L39.5679 23.9238L39.5679 24.0288L39.752 24.0288L39.752 24.1338L39.8828 24.1338L39.8828 24.265L39.9883 24.265L39.9883 24.685L39.8828 24.685L39.8828 24.895L38.7808 24.895L38.7808 25L38.4653 25L38.4653 25.105L38.3604 25.105L38.3604 25.21L38.2554 25.21L38.2554 25.315L38.1504 25.315L38.1504 25.4463L38.0454 25.4463L38.0454 25.6563L37.9404 25.6563L37.9141 25.8663L37.8354 25.8663L37.8091 26.0763L37.7041 26.1025L37.7041 26.2863L37.5991 26.2863L37.5991 26.5225L37.4941 26.5225L37.4941 26.7325L37.3892 26.7325L37.3892 26.9425L37.2842 26.9425L37.2842 27.0738L37.1792 27.0738L37.1792 27.3625L37.0742 27.3625C37.0654 27.4405 37.0571 27.5184 37.0479 27.5988L36.9692 27.5988C36.9653 27.624 36.9653 27.624 36.9609 27.6497C36.9551 27.6675 36.9492 27.6854 36.9429 27.7038L36.8643 27.73L36.8379 27.94L36.7593 27.94L36.707 28.2025L36.6279 28.2288L36.6016 28.4388L36.5229 28.465C36.5142 28.491 36.5059 28.517 36.4966 28.5438L36.418 28.57L36.3916 28.78L36.313 28.8063C36.3101 28.8249 36.3066 28.8435 36.3032 28.8627C36.2993 28.8868 36.2944 28.911 36.29 28.9359C36.2837 28.9719 36.2837 28.9719 36.2769 29.0087C36.2715 29.0286 36.2661 29.0483 36.2607 29.0688L36.208 29.095C36.2046 29.1123 36.2002 29.1297 36.1963 29.1475C36.1919 29.1648 36.187 29.1822 36.1816 29.2L36.103 29.2263L36.103 29.41L35.998 29.4363C35.9893 29.4969 35.981 29.5575 35.9717 29.62L35.8931 29.62C35.8843 29.698 35.8755 29.7759 35.8667 29.8563L35.7881 29.8563L35.7617 30.0663L35.6567 30.0663L35.6567 30.2763L35.5518 30.3025L35.5518 30.5913L35.4468 30.5913L35.4468 30.8275L35.3418 30.8275L35.3154 31.2475L35.2368 31.2475L35.2368 31.3525L35.3154 31.3788L35.3418 31.6675L35.4468 31.6675L35.4468 31.8775L35.5254 31.9038C35.5342 31.9297 35.543 31.9557 35.5518 31.9825L35.6304 32.0088C35.6392 32.0694 35.6479 32.13 35.6567 32.1925L35.7354 32.2188C35.7441 32.2537 35.7529 32.2888 35.7617 32.3238L35.8403 32.35C35.8789 32.4532 35.8696 32.5629 35.8682 32.6703C35.8682 32.6899 35.8682 32.7094 35.8682 32.7296C35.8677 32.7776 35.8672 32.8257 35.8667 32.8737L35.7617 32.8737L35.7617 32.9787L35.5518 33.0049L35.5518 33.1887L35.6567 33.1887L35.6567 33.2937L35.8667 33.2937L35.8667 33.3987L36.0767 33.3987L36.103 33.5037L36.313 33.5037L36.313 33.6087L36.418 33.6087L36.418 33.7137L36.6543 33.7137L36.6543 33.8187L36.9429 33.8449L36.9429 33.9237L37.1792 33.95L37.1792 34.0287L37.3633 34.0287L37.3633 33.95L37.4941 33.9237L37.4941 33.8187L37.5732 33.8187L37.5991 33.6087L37.6782 33.6087L37.7041 33.3987L37.8091 33.3987C37.8179 33.3381 37.8267 33.2774 37.8354 33.215L37.9141 33.1887C37.9185 33.1714 37.9229 33.1541 37.9272 33.1362C37.9316 33.1189 37.936 33.1015 37.9404 33.0837L38.0195 33.0574C38.0278 32.9968 38.0366 32.9362 38.0454 32.8737L38.1245 32.8474C38.1328 32.8215 38.1416 32.7955 38.1504 32.7687L38.2295 32.7424C38.2378 32.6818 38.2466 32.6212 38.2554 32.5587L38.3345 32.5324C38.3447 32.5096 38.3447 32.5096 38.3555 32.4865C38.3867 32.4274 38.3867 32.4274 38.4653 32.3668C38.5562 32.2965 38.5693 32.2227 38.5967 32.1124L38.6758 32.0862C38.6841 32.0602 38.6929 32.0342 38.7017 32.0074L38.7808 31.9812C38.7891 31.9552 38.7979 31.9292 38.8066 31.9025L38.8857 31.8762L38.8857 31.6924L38.9907 31.6924L38.9907 31.5874L39.0957 31.5874L39.0957 31.4825L39.2007 31.4825L39.2266 31.3774L39.332 31.3512L39.332 31.2462L39.437 31.2462L39.437 31.1412L39.542 31.1412L39.542 31.0362L39.647 31.0362L39.647 30.9312L39.752 30.9312L39.752 30.8262L39.9619 30.8C39.9702 30.774 39.979 30.748 39.9883 30.7212L40.0669 30.6949C40.0757 30.669 40.084 30.643 40.0933 30.6162L40.1719 30.59C40.1807 30.564 40.189 30.538 40.1982 30.5112C40.252 30.4931 40.252 30.4931 40.3032 30.485L40.3032 30.4062L40.5132 30.3799L40.5132 30.2749L40.7231 30.2749L40.7231 30.17L40.8281 30.17L40.8281 30.0649L40.9331 30.0649L40.9331 29.75L40.8545 29.7237C40.8525 29.4646 40.8511 29.2039 40.8501 28.9467C40.8496 28.8262 40.8491 28.706 40.8481 28.5844C40.8477 28.4684 40.8472 28.3524 40.8472 28.2353C40.8467 28.191 40.8462 28.1466 40.8457 28.1022C40.8452 28.0403 40.8452 27.9781 40.8452 27.9161C40.8447 27.8886 40.8447 27.8886 40.8447 27.8602C40.8447 27.8093 40.8447 27.8093 40.8545 27.7271L40.9331 27.6746C40.9414 27.6074 40.9453 27.545 40.9463 27.4778C40.9468 27.4106 40.9512 27.3481 40.9595 27.2809C40.9985 27.2549 40.9985 27.2549 41.0381 27.2284C41.0508 27.1609 41.0601 27.0979 41.0659 27.0299C41.0723 26.964 41.0801 26.9 41.0903 26.8346L41.1431 26.8084C41.1553 26.7577 41.1553 26.7577 41.1597 26.6968C41.1621 26.6742 41.1641 26.6519 41.1665 26.6288C41.1685 26.6052 41.1704 26.5816 41.1724 26.5574C41.1748 26.5338 41.1772 26.5099 41.1797 26.4858C41.1851 26.427 41.1904 26.3684 41.1953 26.3096L41.2744 26.2834L41.2744 25.9946L41.3794 25.9684L41.3794 25.7584L41.4844 25.7584L41.4844 25.5484L41.5894 25.5484L41.5894 25.2334L41.6943 25.2334L41.6943 24.9971L41.7993 24.9971L41.7993 24.8659L41.7988 24.8688ZM32.9263 25L31.5352 25L31.5352 25.105L31.3252 25.105L31.3252 25.21L31.2202 25.21L31.2202 25.315L31.1152 25.315L31.1152 25.5513L31.0103 25.5513L31.0103 25.7613L31.1152 25.7613L31.1152 26.0763L31.2202 26.0763L31.2202 26.2075L31.3252 26.2075L31.3252 26.3913L31.4038 26.4175C31.4126 26.4435 31.4209 26.4695 31.4302 26.4963L31.5088 26.5225C31.5176 26.5485 31.5259 26.5745 31.5352 26.6013L31.6138 26.6275C31.6226 26.6535 31.6309 26.6795 31.6401 26.7063C31.6572 26.7105 31.6748 26.7149 31.6924 26.7194C31.71 26.7236 31.7271 26.728 31.7451 26.7325C31.7539 26.7585 31.7622 26.7845 31.7715 26.8113L32.0864 26.8113C32.0996 26.7721 32.0996 26.7721 32.1123 26.7325C32.1519 26.7194 32.1519 26.7194 32.1914 26.7063C32.1997 26.6803 32.2085 26.6543 32.2173 26.6275C32.2437 26.6144 32.2437 26.6144 32.27 26.6013C32.2881 26.5335 32.2881 26.5335 32.2993 26.4553C32.3037 26.4288 32.3081 26.402 32.313 26.3747C32.3159 26.3542 32.3193 26.3338 32.3228 26.3125C32.3618 26.2994 32.3618 26.2994 32.4014 26.2863L32.4014 26.0763L32.5063 26.0763L32.5063 25.8663L32.6113 25.8663L32.6113 25.6562L32.7163 25.6562L32.7163 25.525L32.8213 25.525L32.8213 25.315L32.9263 25.315L32.9263 25Z" fill="url(#paint_linear_27_1176_0)" fill-opacity="1.000000" fill-rule="nonzero"/>
			<path id="Vector" d="M29.8022 37.9413L29.8022 38.7813C29.7632 38.7941 29.7632 38.7941 29.7236 38.8075L29.6973 39.3063C29.6582 39.3191 29.6582 39.3191 29.6187 39.3325C29.6055 39.4753 29.6055 39.4753 29.5923 39.6213L29.4873 39.6475L29.4873 39.8575L29.3823 39.8838L29.356 40.015L29.3037 40.015L29.251 40.1988L29.1724 40.1988L29.146 40.3038L29.0674 40.3038L29.0674 40.4088L28.9624 40.4088L28.9624 40.5138L28.8574 40.5138L28.8574 40.6188L28.7524 40.6188L28.7524 40.7238L28.6211 40.7238L28.6211 40.8288L28.5161 40.8288L28.5161 40.9338L28.3062 40.96L28.3062 41.0388L28.0962 41.065L28.0962 41.1438L27.8862 41.17L27.8862 41.2488C27.8691 41.2514 27.8525 41.2543 27.8354 41.2569C27.8086 41.2658 27.8086 41.2658 27.7812 41.275C27.7725 41.301 27.7637 41.327 27.7549 41.3538C27.6685 41.3892 27.5781 41.3827 27.4873 41.3816C27.459 41.3813 27.4307 41.3811 27.4014 41.3811C27.3691 41.3806 27.3691 41.3806 27.3364 41.38L27.3364 41.485L26.7852 41.485L26.7852 41.59L26.4438 41.59L26.4438 41.485L26.2598 41.485L26.2598 41.59L26.1289 41.59L26.1289 41.485C26.105 41.4855 26.105 41.4855 26.0806 41.4861C26.0596 41.4861 26.0386 41.4863 26.0171 41.4866C25.9966 41.4869 25.9756 41.4874 25.9546 41.4877C25.895 41.485 25.8442 41.4753 25.7876 41.4588L25.7876 41.38C25.7549 41.3806 25.7227 41.3811 25.689 41.3816C25.5347 41.3811 25.5347 41.3811 25.4727 41.3538C25.4639 41.3278 25.4551 41.3018 25.4463 41.275L25.2627 41.2488C25.2539 41.2228 25.2451 41.1968 25.2363 41.17L25.0522 41.1438C25.0439 41.1178 25.0352 41.0918 25.0264 41.065L24.8423 41.0388C24.834 41.0128 24.8252 40.9868 24.8164 40.96C24.7632 40.9409 24.7632 40.9409 24.7114 40.9338L24.7114 40.8288L24.501 40.8288L24.501 40.7238L24.396 40.7238L24.396 40.6188L24.186 40.5925L24.186 40.5138L24.0552 40.4875L24.0552 40.4088L23.9502 40.3825L23.9502 40.3038L23.8447 40.3038L23.8447 40.225L23.6611 40.1988L23.6348 40.0938L23.5298 40.0938L23.5298 39.9888L23.3989 39.9888L23.3989 39.8838L23.2148 39.8838L23.1885 39.7788L22.9785 39.7525L22.9785 39.6738L22.7686 39.6475L22.7686 39.5688L21.561 39.5688L21.561 39.6475C21.4565 39.6824 21.355 39.6756 21.2461 39.6738L21.2461 39.7788L21.0361 39.7788L21.0361 39.8838L20.8262 39.8838L20.8262 39.9888L20.6948 39.9888L20.6948 40.0938L20.5898 40.0938L20.5898 40.1988L20.3799 40.225L20.3799 40.3038L20.3013 40.33C20.2925 40.356 20.2837 40.382 20.2749 40.4088L20.1963 40.435C20.1875 40.461 20.1787 40.487 20.1699 40.5138L20.0913 40.54C20.0825 40.5702 20.0737 40.6007 20.0649 40.6319C20.0562 40.6621 20.0479 40.6925 20.0386 40.7238L19.96 40.75C19.9512 40.776 19.9429 40.802 19.9336 40.8288L19.855 40.855C19.8462 40.881 19.8374 40.907 19.8286 40.9338C19.7896 40.9598 19.7896 40.9598 19.75 40.9863C19.7412 41.0123 19.7324 41.0383 19.7236 41.065L19.645 41.0913C19.6362 41.1173 19.6274 41.1432 19.6187 41.17L19.5137 41.17L19.5137 41.275L19.4087 41.275L19.4087 41.38L19.3037 41.38L19.3037 40.7238L19.4087 40.7238C19.4087 40.6925 19.4082 40.6613 19.4077 40.629C19.4077 40.5878 19.4072 40.5466 19.4072 40.5056C19.4067 40.4849 19.4067 40.4644 19.4062 40.4432C19.4062 40.4132 19.4062 40.4132 19.4062 40.3828C19.4058 40.3555 19.4058 40.3555 19.4058 40.3274C19.4087 40.2775 19.4087 40.2775 19.4351 40.1988L19.5137 40.1988C19.5137 40.1754 19.5132 40.1521 19.5127 40.1279C19.5122 40.0817 19.5122 40.0817 19.5122 40.0347C19.5117 39.989 19.5117 39.989 19.5112 39.9423C19.5132 39.873 19.519 39.8182 19.54 39.7525L19.6187 39.7525L19.645 39.5425L19.7236 39.5425L19.75 39.2275C19.7891 39.2147 19.7891 39.2147 19.8286 39.2013L19.855 38.8863L19.96 38.8863L19.96 38.65L20.0649 38.65L20.0649 38.3613L20.1699 38.3613L20.1699 38.125L20.2749 38.125L20.2749 38.02L20.3799 38.02L20.3799 37.81L20.4849 37.81L20.4849 37.705L20.5898 37.705C20.5928 37.6882 20.5957 37.6714 20.5981 37.6541C20.6069 37.6273 20.6069 37.6273 20.6162 37.6C20.6553 37.5872 20.6553 37.5872 20.6948 37.5738C20.7266 37.5213 20.7266 37.5213 20.7476 37.4688L20.8262 37.4688L20.8525 37.3638L20.9312 37.3638L20.9575 37.2588L21.0361 37.2588L21.0361 37.18L21.2461 37.1538L21.2461 37.075L21.4561 37.075L21.4561 36.97L21.666 36.9438L21.666 36.865L21.9023 36.8388L21.9023 36.76L22.3486 36.7338L22.3486 36.655L23.5298 36.655L23.5562 36.7075C23.6274 36.7201 23.6963 36.7296 23.7676 36.7369C23.7876 36.7393 23.8076 36.7417 23.8281 36.744C23.8774 36.7495 23.9268 36.7548 23.9761 36.76L23.9761 36.865L24.2124 36.865L24.2124 36.9438C24.3164 36.9566 24.3164 36.9566 24.4224 36.97L24.4224 37.075L24.6323 37.075L24.6323 37.1538L24.8164 37.1538L24.8423 37.2588L25.0264 37.2588L25.0786 37.3638L25.2363 37.3638C25.2446 37.3892 25.2446 37.3892 25.2534 37.415C25.2847 37.4761 25.2847 37.4761 25.3569 37.4848C25.3833 37.4861 25.4097 37.4872 25.436 37.4885C25.4629 37.49 25.4888 37.4913 25.5161 37.4929C25.5361 37.4937 25.5566 37.4942 25.5776 37.495L25.6035 37.6L25.7349 37.6263L25.7349 37.6788L26.0239 37.705C26.0322 37.731 26.041 37.757 26.0498 37.7838L26.4438 37.7838L26.4438 37.705C26.5479 37.6922 26.5479 37.6922 26.6538 37.6788C26.6558 37.6538 26.6577 37.6289 26.6602 37.6032C26.6802 37.5213 26.6802 37.5213 26.7295 37.4851C26.7852 37.4688 26.7852 37.4688 26.8638 37.4688C26.8726 37.4081 26.8809 37.3475 26.8901 37.285L26.9951 37.285L26.9951 37.18L27.0737 37.1538C27.0825 37.0931 27.0908 37.0325 27.1001 36.97L27.2051 36.97L27.2051 36.76L27.2837 36.7338L27.3101 36.5238L27.415 36.5238L27.415 36.3138L27.52 36.3138C27.5327 36.2098 27.5327 36.2098 27.5464 36.1038C27.7412 36.0909 27.7412 36.0909 27.9399 36.0775L27.9399 35.9988L28.0977 35.9988L28.0977 36.0775L29.1738 36.1038L29.1738 36.2088L29.3838 36.2088L29.3838 36.3138L29.4888 36.3138L29.4888 36.5238L29.5938 36.5238C29.6069 36.6797 29.6069 36.6797 29.6201 36.8388L29.6987 36.865C29.7197 37.2168 29.7285 37.5633 29.7251 37.915L29.8037 37.9413L29.8022 37.9413Z" fill="#2A1163" fill-opacity="1.000000" fill-rule="nonzero"/>
			<path id="Vector" d="M25.6025 24.1338L25.6025 24.4488L25.4976 24.4488L25.4712 24.6588L25.3926 24.6588L25.3662 24.79L25.2876 24.79L25.2876 24.895L25.1826 24.895L25.1562 25.105L25.0513 25.105L25.0513 25.21L24.9463 25.21L24.9463 25.3938L24.8413 25.42L24.8149 25.5513L24.7363 25.5513L24.7363 25.6562L24.6313 25.6562L24.6313 25.84L24.5264 25.8663C24.5176 25.9269 24.5088 25.9875 24.5 26.05L24.395 26.0763L24.3687 26.1813L24.29 26.1813L24.2637 26.3125L24.2114 26.3125L24.1587 26.4963L24.0801 26.4963L24.0537 26.6275L23.9751 26.6275L23.9487 26.7325L23.8701 26.7325L23.8438 26.8375L23.7651 26.8375L23.7388 26.9425L23.6338 26.9425L23.6338 27.0475L21.1401 27.0738L21.1401 27.1525L20.5889 27.1788L20.5889 27.2575L20.1689 27.2575C20.1602 27.2315 20.1514 27.2055 20.1426 27.1788L20.064 27.1525L20.064 27.0475L19.959 27.0475L19.959 26.8375L19.854 26.8375L19.8276 26.5225L19.749 26.5225L19.7227 26.3125L19.6436 26.2863L19.6177 25.9713L19.5127 25.9713L19.5127 25.7613L19.4077 25.7613L19.4077 25.525L19.3027 25.525L19.3027 25.21L19.1978 25.21L19.1978 25L19.0928 25L19.0928 24.685L18.9873 24.685L18.9873 24.4488L18.8823 24.4488L18.8564 24.1338L18.7773 24.1338C18.769 24.0558 18.7603 23.9778 18.7515 23.8975L18.6724 23.8975L18.6465 23.6875L18.5674 23.6875C18.5435 23.6153 18.5386 23.5731 18.5396 23.4988C18.54 23.4657 18.5405 23.4329 18.5415 23.3988L18.4365 23.3988L18.4365 23.0838L18.3311 23.0838L18.3052 22.7688L18.2261 22.7425L18.2261 22.4275L18.1211 22.4275L18.1211 22.2175L18.0161 22.2175L18.0161 22.1125L17.4648 22.0863L17.4648 22.0075C17.4502 22.0078 17.436 22.008 17.4209 22.0086C17.2837 22.0101 17.1528 22.0009 17.019 21.9813L17.019 21.8763L16.9404 21.8763L16.9404 21.7713L17.019 21.7713C17.0278 21.6933 17.0361 21.6153 17.0454 21.535L17.124 21.535L17.1504 21.22L17.2554 21.22L17.2554 20.9837L17.334 20.9837L17.3604 20.695C17.4121 20.6819 17.4121 20.6819 17.4653 20.6688L17.4653 20.485L17.5703 20.485L17.5703 20.2488L17.6753 20.2488L17.6753 20.065C17.7798 20.0301 17.8813 20.0369 17.9902 20.0388L18.0166 20.1438L18.2002 20.17L18.2002 20.2488L18.3315 20.275C18.3403 20.301 18.3486 20.327 18.3579 20.3538L18.4365 20.38L18.4365 20.5638L18.5415 20.5638L18.5415 20.6688L18.6465 20.6688L18.6465 20.7738L18.7515 20.7738L18.7515 20.905L18.8564 20.905C18.8652 20.9656 18.874 21.0263 18.8828 21.0888L18.9614 21.115C18.9702 21.1756 18.979 21.2363 18.9878 21.2988L19.0928 21.325L19.0928 21.43L19.1714 21.43L19.1978 21.64L19.3027 21.64L19.3027 21.8763L19.4077 21.8763L19.4077 22.0863L19.5127 22.0863L19.5127 22.2963L19.6177 22.2963L19.644 22.5063L19.7227 22.5063C19.7256 22.5231 19.7285 22.5399 19.731 22.5572C19.7397 22.584 19.7397 22.584 19.749 22.6113L19.8276 22.6375C19.8364 22.6982 19.8452 22.7588 19.854 22.8213L19.9326 22.8475L19.959 23.0575L20.0376 23.0575L20.064 23.2675L20.1689 23.2675L20.1689 23.4775L20.2739 23.4775L20.2739 23.7138L20.3789 23.7138L20.3789 23.9238L20.4839 23.9238L20.4839 24.1338L20.5889 24.1338L20.6152 24.3438L20.6938 24.3438C20.7026 24.4217 20.7114 24.4997 20.7202 24.58L20.7988 24.58L20.8252 24.79L20.9038 24.79L20.9302 25L21.0352 25L21.0352 25.105L21.3501 25.105L21.3501 25L21.5601 25L21.5601 24.895L21.6914 24.895L21.6914 24.79L21.9014 24.79L21.9014 24.685L22.1113 24.685L22.1113 24.58L22.4268 24.5538L22.4268 24.475L22.6626 24.4488L22.6626 24.37C22.7534 24.3419 22.8369 24.3411 22.9307 24.3422C22.959 24.3424 22.9873 24.3427 23.0166 24.3427C23.0488 24.3432 23.0488 24.3432 23.0815 24.3438L23.0815 24.2388L23.4229 24.2388L23.4229 24.16C23.5063 24.1322 23.5654 24.1309 23.6528 24.1311C23.6821 24.1314 23.7114 24.1314 23.7417 24.1314C23.7725 24.1317 23.8027 24.1319 23.8345 24.1322C23.8657 24.1322 23.8965 24.1324 23.9282 24.1324C24.0049 24.1327 24.0815 24.1332 24.1577 24.1338L24.1577 24.0288L25.3652 24.0288L25.3916 24.1338L25.6016 24.1338L25.6025 24.1338Z" fill="#2A1163" fill-opacity="1.000000" fill-rule="nonzero"/>
			<path id="Vector" d="M47.0225 9.06627L47.0225 9.17126L46.9175 9.17126L46.9175 9.59126L46.8125 9.59126C46.8037 9.66924 46.7949 9.74719 46.7861 9.82751L46.7075 9.82751L46.6812 10.1425L46.5762 10.1425L46.5762 10.3788L46.4976 10.3788L46.4712 10.6675C46.4321 10.6806 46.4321 10.6806 46.3926 10.6938L46.3662 11.0088L46.2612 11.0088L46.2612 11.3238L46.1562 11.3238L46.1562 11.665L46.0513 11.665L46.0513 11.875L45.9463 11.875C45.9468 11.89 45.9478 11.9049 45.9482 11.9202C45.9512 12.0569 45.938 12.1656 45.8936 12.2955L45.8149 12.2955L45.8149 12.5055L45.7363 12.5318L45.71 12.8205L45.605 12.8205L45.605 13.0305L45.5 13.0305L45.5 13.1618L45.4214 13.1618L45.395 13.3718L45.29 13.3718L45.29 13.5818L45.1851 13.5818L45.1851 13.7918L45.0801 13.7918L45.0801 14.0018L44.9751 14.028L44.9487 14.238L44.8701 14.238L44.8438 14.448L44.7388 14.448L44.7388 14.553L44.6602 14.553L44.6338 14.763L44.5288 14.763L44.5288 14.868L44.4238 14.868L44.4238 14.9993L44.3188 14.9993L44.2925 15.1043L44.2139 15.1043L44.2139 15.183L43.9775 15.2093L43.9775 15.288C43.9004 15.3103 43.8315 15.3177 43.7515 15.3177C43.7275 15.3177 43.7036 15.318 43.6792 15.318C43.6411 15.318 43.6411 15.318 43.6021 15.3177C43.5752 15.3177 43.5488 15.3177 43.522 15.318C43.4658 15.318 43.4102 15.3177 43.3545 15.3177C43.269 15.3177 43.1836 15.3177 43.0981 15.318C43.0439 15.318 42.9897 15.3177 42.9355 15.3177C42.9102 15.3177 42.8848 15.318 42.8584 15.318C42.8223 15.3177 42.8223 15.3177 42.7861 15.3177L42.7227 15.3177C42.665 15.3143 42.6152 15.3038 42.5601 15.288L42.5601 15.2093L42.3501 15.2093L42.3501 15.1043L42.1401 15.078L42.1401 14.973L42.0352 14.973C42.0264 14.9471 42.0176 14.9211 42.0088 14.8943C41.9556 14.8751 41.9556 14.8751 41.9038 14.868L41.9038 14.763L41.7988 14.763L41.7988 14.658L41.6938 14.658L41.6938 14.553L41.5889 14.553L41.5889 14.448L41.4839 14.448C41.481 14.4312 41.478 14.4144 41.4756 14.3971C41.4697 14.3793 41.4634 14.3614 41.4575 14.343L41.3789 14.3168C41.3701 14.2908 41.3613 14.2648 41.3525 14.238L41.2739 14.2118L41.2739 14.1068L41.1689 14.1068L41.1689 14.0018L41.0635 14.0018L41.0635 13.8968L40.9585 13.8968C40.9502 13.8708 40.9414 13.8448 40.9326 13.818C40.8794 13.7989 40.8794 13.7989 40.8276 13.7918L40.8276 13.6868L40.7227 13.6868L40.7227 13.5818L40.6177 13.5818L40.6177 13.4768L40.5127 13.4768L40.5127 13.3718L40.3813 13.3455L40.3813 13.2668L40.2764 13.2405L40.2764 13.1618L40.0664 13.1355L40.0664 13.0305L39.8564 13.0305L39.8564 12.9255L39.751 12.9255L39.751 12.8468L39.541 12.8205L39.541 12.7418L39.4102 12.7155L39.4102 12.6368L39.2524 12.6368C39.2461 12.6205 39.2393 12.6042 39.2329 12.5874C39.1943 12.5226 39.1636 12.5069 39.0947 12.4793L39.0947 12.4268L38.9897 12.4005L38.9897 12.2955L38.8848 12.2693L38.8848 12.0855L38.7798 12.0593L38.7798 11.9543L38.8848 11.9543L38.8848 11.8493L38.9897 11.8493L38.9897 11.7443L39.6724 11.7443L39.6724 11.8493L40.0923 11.8493L40.0923 11.9543L40.4072 11.9543L40.4072 12.0593L40.6436 12.0593L40.6436 12.1643C40.7476 12.1774 40.7476 12.1774 40.8535 12.1905L40.8535 12.2693L41.1689 12.2955C41.1772 12.3215 41.186 12.3475 41.1948 12.3743L41.4839 12.4005C41.4922 12.4265 41.501 12.4525 41.5098 12.4793L41.7988 12.4793C41.8076 12.4533 41.8159 12.4273 41.8252 12.4005L42.1138 12.3743C42.1226 12.3483 42.1309 12.3223 42.1401 12.2955C42.4604 12.2758 42.7803 12.2664 43.1006 12.2661C43.1343 12.2659 43.167 12.2659 43.2017 12.2656C43.2329 12.2656 43.2642 12.2659 43.2959 12.2659L43.3804 12.2659C43.4443 12.2688 43.4976 12.2772 43.5586 12.2955L43.5586 12.3743L43.7686 12.4005L43.7686 12.5055L44.0049 12.5055L44.0049 12.6105L44.1885 12.6105L44.1885 12.5055L44.2935 12.5055L44.3198 12.4005L44.3984 12.4005L44.4248 12.2693L44.5034 12.2693L44.5034 12.1118C44.5205 12.1068 44.5371 12.1021 44.5542 12.0971C44.6196 12.0609 44.6196 12.0609 44.6284 11.9643C44.6304 11.9349 44.6328 11.9057 44.6348 11.8755L44.7397 11.8493C44.7529 11.7973 44.7529 11.7973 44.7661 11.7443L44.8184 11.7443C44.8271 11.6837 44.8359 11.623 44.8447 11.5605L44.9497 11.5343L44.9497 11.3505L45.0547 11.3243L45.0811 11.193L45.1597 11.193L45.1597 11.0093L45.2646 10.983C45.2676 10.9662 45.2705 10.9494 45.2729 10.9321C45.2788 10.9143 45.2852 10.8964 45.291 10.878L45.3696 10.8518L45.3696 10.6943C45.4219 10.6812 45.4219 10.6812 45.4746 10.668C45.4834 10.6074 45.4922 10.5468 45.501 10.4843C45.5532 10.4712 45.5532 10.4712 45.606 10.458L45.6323 10.3268L45.6846 10.3268C45.6934 10.2662 45.7021 10.2055 45.7109 10.143C45.7632 10.1299 45.7632 10.1299 45.8159 10.1168L45.8423 10.0118L45.9209 10.0118L45.9209 9.82805C45.9731 9.81519 45.9731 9.81519 46.0259 9.80179L46.0522 9.67055L46.1309 9.67055L46.1309 9.51305L46.2358 9.51305L46.2358 9.38179L46.3408 9.38179L46.3672 9.1718L46.4722 9.1718L46.4722 9.06679L46.5508 9.04054C46.5596 9.01456 46.5684 8.98857 46.5771 8.96179L46.9185 8.96179L46.9185 9.04054L47.0225 9.06627ZM43.4263 13.4763L43.2163 13.45L43.2163 13.3713C43.1099 13.3455 43.0103 13.3429 42.9014 13.345L42.9014 13.2663L42.6914 13.2663L42.6914 13.345L42.5864 13.345L42.5864 13.45L42.4814 13.45L42.4814 13.7913L42.5864 13.7913L42.5864 14.0013L42.6914 14.0013L42.6914 14.1063L42.9014 14.1325L42.9272 14.2375L43.3213 14.2375L43.3213 14.1063L43.4263 14.1063L43.4263 13.4763Z" fill="#7C0F80" fill-opacity="1.000000" fill-rule="nonzero"/>
			<path id="Vector" d="M47.2324 34.5812L47.2324 35.1062L47.1274 35.1062L47.1274 35.4475L47.0225 35.4475L47.0225 35.7625L46.9175 35.7625L46.8911 35.9725C46.8521 35.9854 46.8521 35.9854 46.8125 35.9987C46.7935 36.0518 46.7935 36.0518 46.7861 36.1037L46.6812 36.1037L46.6812 36.2087L46.5762 36.2087L46.5762 36.3137L46.4712 36.3137L46.4712 36.4187L46.3662 36.4187L46.3662 36.5237L46.2612 36.5237L46.2612 36.6287L46.1562 36.6287L46.1562 36.7337C46.0522 36.7466 46.0522 36.7466 45.9463 36.76L45.9463 36.8387C45.9292 36.8414 45.9126 36.8443 45.895 36.8469C45.8774 36.8529 45.8594 36.8589 45.8413 36.865C45.8281 36.9038 45.8281 36.9038 45.8149 36.9437C45.7109 36.9566 45.7109 36.9566 45.605 36.97L45.605 37.0487C45.5005 37.0836 45.3989 37.0768 45.29 37.075L45.29 37.18L43.8726 37.18L43.8462 37.075C43.8267 37.0755 43.8076 37.0763 43.7876 37.0768C43.7617 37.0773 43.7363 37.0779 43.71 37.0781C43.6846 37.0789 43.6597 37.0795 43.6333 37.0802C43.5542 37.0747 43.498 37.0558 43.4263 37.0225L43.4263 36.97L43.1372 36.97L43.1372 37.0487C43.0591 37.0716 42.9893 37.0779 42.9077 37.0766C42.8867 37.0763 42.8657 37.076 42.8442 37.076C42.8281 37.0755 42.8125 37.0752 42.7964 37.075L42.7964 37.18L42.6914 37.18L42.6914 37.285L42.5859 37.285L42.5859 37.39L42.481 37.39L42.481 37.6L42.376 37.6262L42.376 37.915L42.4551 37.9412C42.4829 38.0247 42.4839 38.0838 42.4839 38.1712C42.4834 38.2006 42.4834 38.23 42.4834 38.2602C42.4834 38.2909 42.4829 38.3213 42.4829 38.3531C42.4829 38.3841 42.4824 38.4151 42.4824 38.4468C42.4824 38.5232 42.4819 38.5999 42.481 38.6762C42.3203 38.7185 42.1611 38.728 42.0088 38.65L42.0088 38.5975L41.8247 38.545L41.8247 38.4662L41.6938 38.44L41.6938 38.3612L41.5889 38.3612L41.5889 38.2562L41.4839 38.2562L41.4839 38.1512L41.3789 38.1512L41.3789 38.0462L41.2734 38.0462L41.2734 37.9412L41.1685 37.9412L41.1685 37.8362L41.0635 37.81C41.0552 37.7493 41.0464 37.6887 41.0376 37.6262L40.9326 37.6L40.9326 37.495L40.8535 37.495C40.8218 37.3997 40.8242 37.3125 40.8247 37.2141C40.8247 37.1944 40.8252 37.1747 40.8252 37.1545C40.8252 37.0915 40.8252 37.0288 40.8257 36.9658C40.8257 36.9233 40.8262 36.8805 40.8262 36.838C40.8262 36.7335 40.8267 36.629 40.8276 36.5256L40.9326 36.5256C40.9321 36.493 40.9312 36.4607 40.9307 36.4271C40.9307 36.3508 40.9341 36.2838 40.9585 36.2106L41.0376 36.2106L41.0635 36.0006L41.1426 36.0006L41.1685 35.8693L41.2476 35.8693C41.2559 35.8087 41.2646 35.748 41.2734 35.6856L41.3525 35.6593C41.3716 35.6063 41.3716 35.6063 41.3789 35.5543L41.4839 35.5543L41.4839 35.4493L41.5889 35.4493L41.5889 35.3443L41.7988 35.3443L41.7988 35.2393L42.0088 35.2131L42.0088 35.1343L42.4551 35.1081L42.4551 35.0293L43.8984 35.0293L43.8984 35.1081L44.2925 35.1081L44.2925 35.0293C44.3965 35.0162 44.3965 35.0162 44.5024 35.0031L44.5024 34.9243C44.5361 34.9222 44.5698 34.9201 44.6045 34.9178C44.6611 34.9122 44.6611 34.9122 44.7124 34.8981C44.7544 34.8477 44.7544 34.8477 44.7651 34.7931L44.8438 34.7931C44.8525 34.7671 44.8608 34.7411 44.8701 34.7143C44.9712 34.6807 45.0522 34.6862 45.1587 34.6881L45.1851 34.5831L45.4736 34.5831L45.5 34.4781L45.605 34.4781L45.6313 34.3731L45.9199 34.3468L45.9199 34.2681L46.1299 34.2681L46.1562 34.1631L46.3398 34.1368C46.3486 34.1108 46.3574 34.0849 46.3662 34.0581L46.5762 34.0318C46.585 34.0058 46.5933 33.9798 46.6025 33.9531C46.6938 33.9142 46.7935 33.925 46.8911 33.9268L46.9175 34.0318L47.0225 34.0318L47.0225 34.2418L47.1274 34.2418C47.1406 34.3978 47.1406 34.3978 47.1538 34.5568L47.2324 34.5831L47.2324 34.5812Z" fill="#750F7D" fill-opacity="1.000000" fill-rule="nonzero"/>
		</g>
	</g>
	<rect id="card2" rx="1.500000" width="49.000000" height="69.000000" transform="translate(70.500000 0.500000) rotate(90.000000)" stroke="#FFD762" stroke-opacity="1.000000" stroke-width="1.000000"/>
</svg>
