<svg width="50.000000" height="70.000000" viewBox="0 0 50 70" fill="none" xmlns="http://www.w3.org/2000/svg" xmlns:xlink="http://www.w3.org/1999/xlink">
	<desc>
			Created with Pixso.
	</desc>
	<defs>
		<clipPath id="clip28_3202">
			<rect id="card2" rx="1.500000" width="49.000000" height="69.000000" transform="translate(0.500000 0.500000)" fill="white" fill-opacity="0"/>
		</clipPath>
	</defs>
	<rect id="card2" rx="1.500000" width="49.000000" height="69.000000" transform="translate(0.500000 0.500000)" fill="#FEFFAB" fill-opacity="1.000000"/>
	<g clip-path="url(#clip28_3202)">
		<path id="MCD" d="M17.7738 40.357L17.7738 33.399L17.7458 33.399L14.8618 40.357L13.4478 40.357L10.5778 33.441L10.5638 33.441L10.5638 40.357L8.49176 40.357L8.49176 30.151L11.3478 30.151L14.1618 36.941L16.9198 30.151L19.8458 30.151L19.8458 40.357L17.7738 40.357ZM26.852 40.497C25.4333 40.497 24.2107 40.021 23.184 39.069C22.7173 38.6303 22.3347 38.075 22.036 37.403C21.7467 36.7217 21.602 36.0077 21.602 35.261C21.602 34.5423 21.7467 33.8377 22.036 33.147C22.3347 32.503 22.722 31.9477 23.198 31.481C23.6647 31.0237 24.2293 30.6597 24.892 30.389C25.564 30.1277 26.236 29.997 26.908 29.997C28.0093 29.997 28.9473 30.2537 29.722 30.767C30.058 30.963 30.366 31.2197 30.646 31.537C31.15 32.0877 31.486 32.6757 31.654 33.301L29.652 33.987C29.6053 33.7723 29.4887 33.5297 29.302 33.259C29.1153 32.9883 28.8727 32.7503 28.574 32.545C28.098 32.2183 27.5333 32.055 26.88 32.055C26.292 32.055 25.7647 32.1997 25.298 32.489C24.8127 32.769 24.444 33.1517 24.192 33.637C23.9213 34.1317 23.786 34.6683 23.786 35.247C23.786 35.8257 23.9167 36.3623 24.178 36.857C24.4393 37.3423 24.808 37.7297 25.284 38.019C25.7693 38.3177 26.3013 38.467 26.88 38.467C27.5427 38.467 28.1073 38.299 28.574 37.963C28.7607 37.8323 28.9427 37.669 29.12 37.473C29.4093 37.137 29.6007 36.787 29.694 36.423L31.71 37.123C31.57 37.7203 31.248 38.2943 30.744 38.845C30.464 39.153 30.1467 39.4283 29.792 39.671C29.456 39.9043 29.022 40.105 28.49 40.273C27.986 40.4223 27.44 40.497 26.852 40.497ZM42.1279 35.233C42.1279 36.773 41.6145 38.005 40.5879 38.929C39.5332 39.881 38.1099 40.357 36.3179 40.357L33.2379 40.357L33.2379 30.151L36.3599 30.151C38.1425 30.151 39.5519 30.599 40.5879 31.495C41.6145 32.391 42.1279 33.637 42.1279 35.233ZM39.9579 35.233C39.9579 34.253 39.6265 33.4923 38.9639 32.951C38.3012 32.4097 37.4519 32.139 36.4159 32.139L35.3379 32.139L35.3379 38.355L36.3879 38.355C37.4799 38.355 38.3432 38.0843 38.9779 37.543C39.6312 37.0017 39.9579 36.2317 39.9579 35.233Z" fill="#960E89" fill-opacity="1.000000" fill-rule="evenodd"/>
	</g>
	<rect id="card2" rx="1.500000" width="49.000000" height="69.000000" transform="translate(0.500000 0.500000)" stroke="#FFD762" stroke-opacity="1.000000" stroke-width="1.000000"/>
</svg>
