<svg width="70.000000" height="50.000000" viewBox="0 0 70 50" fill="none" xmlns="http://www.w3.org/2000/svg" xmlns:xlink="http://www.w3.org/1999/xlink">
	<desc>
			Created with Pixso.
	</desc>
	<defs>
		<clipPath id="clip27_1952">
			<rect id="card5" rx="1.500000" width="49.000000" height="69.000000" transform="translate(70.500000 0.500000) rotate(90.000000)" fill="white" fill-opacity="0"/>
		</clipPath>
	</defs>
	<rect id="card5" rx="1.500000" width="49.000000" height="69.000000" transform="translate(70.500000 0.500000) rotate(90.000000)" fill="#FEFFAB" fill-opacity="1.000000"/>
	<g clip-path="url(#clip27_1952)">
		<path id="MCD" d="M27.7738 30.357L27.7738 23.399L27.7458 23.399L24.8618 30.357L23.4478 30.357L20.5778 23.441L20.5638 23.441L20.5638 30.357L18.4918 30.357L18.4918 20.151L21.3478 20.151L24.1618 26.941L26.9198 20.151L29.8458 20.151L29.8458 30.357L27.7738 30.357ZM36.852 30.497C35.4333 30.497 34.2107 30.021 33.184 29.069C32.7173 28.6303 32.3347 28.075 32.036 27.403C31.7467 26.7217 31.602 26.0077 31.602 25.261C31.602 24.5423 31.7467 23.8377 32.036 23.147C32.3347 22.503 32.722 21.9477 33.198 21.481C33.6647 21.0237 34.2293 20.6597 34.892 20.389C35.564 20.1277 36.236 19.997 36.908 19.997C38.0093 19.997 38.9473 20.2537 39.722 20.767C40.058 20.963 40.366 21.2197 40.646 21.537C41.15 22.0877 41.486 22.6757 41.654 23.301L39.652 23.987C39.6053 23.7723 39.4887 23.5297 39.302 23.259C39.1153 22.9883 38.8727 22.7503 38.574 22.545C38.098 22.2183 37.5333 22.055 36.88 22.055C36.292 22.055 35.7647 22.1997 35.298 22.489C34.8127 22.769 34.444 23.1517 34.192 23.637C33.9213 24.1317 33.786 24.6683 33.786 25.247C33.786 25.8257 33.9167 26.3623 34.178 26.857C34.4393 27.3423 34.808 27.7297 35.284 28.019C35.7693 28.3177 36.3013 28.467 36.88 28.467C37.5427 28.467 38.1073 28.299 38.574 27.963C38.7607 27.8323 38.9427 27.669 39.12 27.473C39.4093 27.137 39.6007 26.787 39.694 26.423L41.71 27.123C41.57 27.7203 41.248 28.2943 40.744 28.845C40.464 29.153 40.1467 29.4283 39.792 29.671C39.456 29.9043 39.022 30.105 38.49 30.273C37.986 30.4223 37.44 30.497 36.852 30.497ZM52.1279 25.233C52.1279 26.773 51.6145 28.005 50.5879 28.929C49.5332 29.881 48.1099 30.357 46.3179 30.357L43.2379 30.357L43.2379 20.151L46.3599 20.151C48.1425 20.151 49.5519 20.599 50.5879 21.495C51.6145 22.391 52.1279 23.637 52.1279 25.233ZM49.9579 25.233C49.9579 24.253 49.6265 23.4923 48.9639 22.951C48.3012 22.4097 47.4519 22.139 46.4159 22.139L45.3379 22.139L45.3379 28.355L46.3879 28.355C47.4799 28.355 48.3432 28.0843 48.9779 27.543C49.6312 27.0017 49.9579 26.2317 49.9579 25.233Z" fill="#960E89" fill-opacity="1.000000" fill-rule="evenodd"/>
	</g>
	<rect id="card5" rx="1.500000" width="49.000000" height="69.000000" transform="translate(70.500000 0.500000) rotate(90.000000)" stroke="#FFD762" stroke-opacity="1.000000" stroke-width="1.000000"/>
</svg>
