<svg width="50.000000" height="70.000000" viewBox="0 0 50 70" fill="none" xmlns="http://www.w3.org/2000/svg" xmlns:xlink="http://www.w3.org/1999/xlink">
	<desc>
			Created with Pixso.
	</desc>
	<defs>
		<clipPath id="clip27_2402">
			<rect id="card2" rx="1.500000" width="49.000000" height="69.000000" transform="translate(0.500000 0.500000)" fill="white" fill-opacity="0"/>
		</clipPath>
	</defs>
	<rect id="card2" rx="1.500000" width="49.000000" height="69.000000" transform="translate(0.500000 0.500000)" fill="#FEFFAB" fill-opacity="1.000000"/>
	<g clip-path="url(#clip27_2402)">
		<path id="MSFT" d="M15.5316 40.357L15.5316 33.399L15.5036 33.399L12.6196 40.357L11.2056 40.357L8.33557 33.441L8.32157 33.441L8.32157 40.357L6.24957 40.357L6.24957 30.151L9.10557 30.151L11.9196 36.941L14.6776 30.151L17.6036 30.151L17.6036 40.357L15.5316 40.357ZM23.3498 40.511C22.1645 40.511 21.2311 40.231 20.5498 39.671C19.8591 39.1017 19.4298 38.327 19.2618 37.347L21.2358 36.885C21.3198 37.4357 21.5625 37.8603 21.9638 38.159C22.3558 38.4577 22.8411 38.607 23.4198 38.607C23.9145 38.607 24.2878 38.4997 24.5398 38.285C24.8198 38.061 24.9598 37.7857 24.9598 37.459C24.9598 37.207 24.8525 36.983 24.6378 36.787C24.4325 36.591 24.1525 36.4603 23.7978 36.395L22.3558 36.101C21.5345 35.9517 20.8718 35.6157 20.3678 35.093C19.8825 34.5797 19.6398 33.9403 19.6398 33.175C19.6398 32.2697 19.9945 31.509 20.7038 30.893C21.4225 30.2957 22.2718 29.997 23.2518 29.997C24.3811 29.997 25.2678 30.2817 25.9118 30.851C26.4905 31.3923 26.8311 32.013 26.9338 32.713L25.0158 33.273C24.9225 32.8437 24.7218 32.5077 24.4138 32.265C24.1151 32.013 23.7185 31.887 23.2238 31.887C22.8131 31.887 22.4585 31.999 22.1598 32.223C21.8798 32.447 21.7398 32.7083 21.7398 33.007C21.7398 33.5763 22.0898 33.931 22.7898 34.071L24.2178 34.337C25.1511 34.505 25.8651 34.8597 26.3598 35.401C26.8545 35.9517 27.1018 36.5957 27.1018 37.333C27.1018 38.1357 26.7845 38.8637 26.1498 39.517C25.4591 40.1797 24.5258 40.511 23.3498 40.511ZM35.5965 32.167L30.9765 32.167L30.9765 34.323L35.1205 34.323L35.1205 36.339L30.9765 36.339L30.9765 40.357L28.8765 40.357L28.8765 30.151L35.5965 30.151L35.5965 32.167ZM41.6091 32.195L41.6091 40.357L39.4951 40.357L39.4951 32.195L36.4431 32.195L36.4431 30.151L44.6611 30.151L44.6611 32.195L41.6091 32.195Z" fill="#960E89" fill-opacity="1.000000" fill-rule="evenodd"/>
	</g>
	<rect id="card2" rx="1.500000" width="49.000000" height="69.000000" transform="translate(0.500000 0.500000)" stroke="#FFD762" stroke-opacity="1.000000" stroke-width="1.000000"/>
</svg>
