<svg width="50.000000" height="70.000000" viewBox="0 0 50 70" fill="none" xmlns="http://www.w3.org/2000/svg" xmlns:xlink="http://www.w3.org/1999/xlink">
	<desc>
			Created with Pixso.
	</desc>
	<defs>
		<clipPath id="clip27_2514">
			<rect id="card4" rx="1.500000" width="49.000000" height="69.000000" transform="translate(0.500000 0.500000)" fill="white" fill-opacity="0"/>
		</clipPath>
	</defs>
	<rect id="card4" rx="1.500000" width="49.000000" height="69.000000" transform="translate(0.500000 0.500000)" fill="#FEFFAB" fill-opacity="1.000000"/>
	<g clip-path="url(#clip27_2514)">
		<path id="NFLX" d="M13.9839 40.357L9.53186 33.343L9.53186 40.357L7.44586 40.357L7.44586 30.151L9.89586 30.151L14.2919 37.053L14.2919 30.151L16.3779 30.151L16.3779 40.357L13.9839 40.357ZM25.4725 32.167L20.8525 32.167L20.8525 34.323L24.9965 34.323L24.9965 36.339L20.8525 36.339L20.8525 40.357L18.7525 40.357L18.7525 30.151L25.4725 30.151L25.4725 32.167ZM33.6971 40.357L27.2291 40.357L27.2291 30.151L29.3291 30.151L29.3291 38.341L33.6971 38.341L33.6971 40.357ZM41.2924 40.357L38.8004 36.689L36.2664 40.357L33.8864 40.357L37.5544 35.107L34.0964 30.151L36.5604 30.151L38.8284 33.469L41.1104 30.151L43.5604 30.151L40.0744 35.093L43.7564 40.357L41.2924 40.357Z" fill="#960E89" fill-opacity="1.000000" fill-rule="evenodd"/>
	</g>
	<rect id="card4" rx="1.500000" width="49.000000" height="69.000000" transform="translate(0.500000 0.500000)" stroke="#FFD762" stroke-opacity="1.000000" stroke-width="1.000000"/>
</svg>
