<svg width="50.000000" height="70.000000" viewBox="0 0 50 70" fill="none" xmlns="http://www.w3.org/2000/svg" xmlns:xlink="http://www.w3.org/1999/xlink">
	<desc>
			Created with Pixso.
	</desc>
	<defs>
		<clipPath id="clip28_3180">
			<rect id="card4" rx="1.500000" width="49.000000" height="69.000000" transform="translate(0.500000 0.500000)" fill="white" fill-opacity="0"/>
		</clipPath>
	</defs>
	<rect id="card4" rx="1.500000" width="49.000000" height="69.000000" transform="translate(0.500000 0.500000)" fill="#FEFFAB" fill-opacity="1.000000"/>
	<g clip-path="url(#clip28_3180)">
		<path id="NKE" d="M17.9624 40.357L13.5104 33.343L13.5104 40.357L11.4244 40.357L11.4244 30.151L13.8744 30.151L18.2704 37.053L18.2704 30.151L20.3564 30.151L20.3564 40.357L17.9624 40.357ZM28.499 40.357L24.831 35.513L24.831 40.357L22.731 40.357L22.731 30.151L24.831 30.151L24.831 34.589L28.331 30.151L30.963 30.151L27.071 35.037L31.215 40.357L28.499 40.357ZM39.035 40.357L32.315 40.357L32.315 30.151L38.993 30.151L38.993 32.125L34.401 32.125L34.401 34.211L38.517 34.211L38.517 36.185L34.401 36.185L34.401 38.383L39.035 38.383L39.035 40.357Z" fill="#960E89" fill-opacity="1.000000" fill-rule="evenodd"/>
	</g>
	<rect id="card4" rx="1.500000" width="49.000000" height="69.000000" transform="translate(0.500000 0.500000)" stroke="#FFD762" stroke-opacity="1.000000" stroke-width="1.000000"/>
</svg>
