<svg width="50.000000" height="70.000000" viewBox="0 0 50 70" fill="none" xmlns="http://www.w3.org/2000/svg" xmlns:xlink="http://www.w3.org/1999/xlink">
	<desc>
			Created with Pixso.
	</desc>
	<defs>
		<clipPath id="clip27_1888">
			<rect id="card1" rx="1.500000" width="49.000000" height="69.000000" transform="translate(0.500000 0.500000)" fill="white" fill-opacity="0"/>
		</clipPath>
	</defs>
	<rect id="card1" rx="1.500000" width="49.000000" height="69.000000" transform="translate(0.500000 0.500000)" fill="#FEFFAB" fill-opacity="1.000000"/>
	<g clip-path="url(#clip27_1888)">
		<path id="PEP" d="M20.2939 33.427C20.2939 34.547 19.9393 35.3823 19.2299 35.933C18.5486 36.4837 17.6619 36.759 16.5699 36.759L14.9739 36.759L14.9739 40.357L12.8599 40.357L12.8599 30.151L16.6399 30.151C17.7133 30.151 18.5813 30.4263 19.2439 30.977C19.9439 31.5463 20.2939 32.363 20.2939 33.427ZM18.1659 33.469C18.1659 33.1703 18.0866 32.9183 17.9279 32.713C17.7693 32.4983 17.5593 32.349 17.2979 32.265C17.0459 32.181 16.7659 32.139 16.4579 32.139L14.9739 32.139L14.9739 34.799L16.4719 34.799C16.9386 34.799 17.3353 34.6917 17.6619 34.477C17.9979 34.253 18.1659 33.917 18.1659 33.469ZM28.5897 40.357L21.8697 40.357L21.8697 30.151L28.5477 30.151L28.5477 32.125L23.9557 32.125L23.9557 34.211L28.0717 34.211L28.0717 36.185L23.9557 36.185L23.9557 38.383L28.5897 38.383L28.5897 40.357ZM37.9443 33.427C37.9443 34.547 37.5896 35.3823 36.8803 35.933C36.199 36.4837 35.3123 36.759 34.2203 36.759L32.6243 36.759L32.6243 40.357L30.5103 40.357L30.5103 30.151L34.2903 30.151C35.3636 30.151 36.2316 30.4263 36.8943 30.977C37.5943 31.5463 37.9443 32.363 37.9443 33.427ZM35.8163 33.469C35.8163 33.1703 35.737 32.9183 35.5783 32.713C35.4196 32.4983 35.2096 32.349 34.9483 32.265C34.6963 32.181 34.4163 32.139 34.1083 32.139L32.6243 32.139L32.6243 34.799L34.1223 34.799C34.589 34.799 34.9856 34.6917 35.3123 34.477C35.6483 34.253 35.8163 33.917 35.8163 33.469Z" fill="#960E89" fill-opacity="1.000000" fill-rule="evenodd"/>
	</g>
	<rect id="card1" rx="1.500000" width="49.000000" height="69.000000" transform="translate(0.500000 0.500000)" stroke="#FFD762" stroke-opacity="1.000000" stroke-width="1.000000"/>
</svg>
