<svg width="206.000000" height="75.742310" viewBox="0 0 206 75.7423" fill="none" xmlns="http://www.w3.org/2000/svg" xmlns:xlink="http://www.w3.org/1999/xlink">
	<desc>
			Created with Pixso.
	</desc>
	<defs>
		<filter id="filter_1_576_dd" x="0.000000" y="0.000000" width="206.000000" height="75.742310" filterUnits="userSpaceOnUse" color-interpolation-filters="sRGB">
			<feFlood flood-opacity="0" result="BackgroundImageFix"/>
			<feColorMatrix in="SourceAlpha" type="matrix" values="0 0 0 0 0 0 0 0 0 0 0 0 0 0 0 0 0 0 127 0" result="hardAlpha"/>
			<feOffset dx="0" dy="0"/>
			<feGaussianBlur stdDeviation="2.66667"/>
			<feComposite in2="hardAlpha" operator="out" k2="-1" k3="1"/>
			<feColorMatrix type="matrix" values="0 0 0 0 0.96863 0 0 0 0 0.82353 0 0 0 0 0.38039 0 0 0 1 0"/>
			<feBlend mode="normal" in2="BackgroundImageFix" result="effect_dropShadow_1"/>
			<feBlend mode="normal" in="SourceGraphic" in2="effect_dropShadow_1" result="shape"/>
		</filter>
		<clipPath id="clip1_577">
			<rect id="poker 1" width="38.000000" height="38.000000" transform="translate(17.878174 18.878174)" fill="white" fill-opacity="0"/>
		</clipPath>
		<filter id="filter_1_579_dd" x="62.438721" y="33.446533" width="111.072525" height="14.711914" filterUnits="userSpaceOnUse" color-interpolation-filters="sRGB">
			<feFlood flood-opacity="0" result="BackgroundImageFix"/>
			<feColorMatrix in="SourceAlpha" type="matrix" values="0 0 0 0 0 0 0 0 0 0 0 0 0 0 0 0 0 0 127 0" result="hardAlpha"/>
			<feOffset dx="0" dy="2"/>
			<feGaussianBlur stdDeviation="0.666667"/>
			<feComposite in2="hardAlpha" operator="out" k2="-1" k3="1"/>
			<feColorMatrix type="matrix" values="0 0 0 0 0 0 0 0 0 0 0 0 0 0 0 0 0 0 0.5 0"/>
			<feBlend mode="normal" in2="BackgroundImageFix" result="effect_dropShadow_1"/>
			<feBlend mode="normal" in="SourceGraphic" in2="effect_dropShadow_1" result="shape"/>
		</filter>
		<linearGradient id="paint_linear_1_576_0" x1="8.000000" y1="67.742279" x2="198.000000" y2="67.742279" gradientUnits="userSpaceOnUse">
			<stop stop-color="#A7904C"/>
			<stop offset="0.534524" stop-color="#F1CC5E"/>
			<stop offset="1.000000" stop-color="#9E8A4D"/>
		</linearGradient>
	</defs>
	<g filter="url(#filter_1_576_dd)">
		<path id="Vector" d="M196.041 58.9279L59.0552 58.9279C53.6451 64.3712 46.1528 67.7423 37.8711 67.7423C21.3735 67.7423 8 54.3688 8 37.8711C8 21.3734 21.3735 8 37.8711 8C46.1528 8 53.6451 11.371 59.0552 16.8145L196.041 16.8145C197.123 16.8145 198 17.6909 198 18.7732L198 56.9691C198 58.0513 197.123 58.9279 196.041 58.9279Z" fill="#123A1C" fill-opacity="1.000000" fill-rule="evenodd"/>
	</g>
	<path id="Vector" d="M59.0552 58.9279L196.041 58.9279C197.123 58.9279 198 58.0513 198 56.9691L198 18.7732C198 17.6909 197.123 16.8145 196.041 16.8145L59.0552 16.8145C53.6451 11.371 46.1528 8 37.8711 8C21.3735 8 8 21.3734 8 37.8711C8 54.3688 21.3735 67.7423 37.8711 67.7423C46.1528 67.7423 53.6451 64.3712 59.0552 58.9279ZM196 56.9279L58.2231 56.9279L57.6366 57.5179Q53.5449 61.6348 48.5969 63.6909Q43.6602 65.7423 37.8711 65.7423Q32.098 65.7423 27.1706 63.701Q22.2442 61.6603 18.1631 57.5791Q14.0821 53.498 12.0413 48.5717Q10 43.6443 10 37.8711Q10 32.098 12.0413 27.1705Q14.0821 22.2443 18.1631 18.1632Q22.2442 14.082 27.1705 12.0413Q32.098 10 37.8711 10Q43.6603 10 48.597 12.0514Q53.545 14.1074 57.6366 18.2242L58.2231 18.8145L196 18.8145L196 56.9279Z" fill="url(#paint_linear_1_576_0)" fill-opacity="1.000000" fill-rule="evenodd"/>
	<rect id="poker 1" width="38.000000" height="38.000000" transform="translate(17.878174 18.878174)" fill="#FFFFFF" fill-opacity="0"/>
	<g clip-path="url(#clip1_577)">
		<path id="Vector" d="M36.8782 18.8782C33.1203 18.8782 29.4469 19.9926 26.3223 22.0802C23.1978 24.168 20.7625 27.1354 19.3245 30.6072C17.8864 34.079 17.5101 37.8993 18.2433 41.5848C18.9764 45.2705 20.7859 48.656 23.4431 51.3132C26.1004 53.9705 29.4858 55.78 33.1715 56.5131C36.8571 57.2462 40.6774 56.87 44.1492 55.4319C47.621 53.9938 50.5883 51.5586 52.6761 48.434C54.7639 45.3094 55.8782 41.636 55.8782 37.8782C55.8727 32.8407 53.8692 28.0112 50.3072 24.4492C46.7452 20.8872 41.9156 18.8837 36.8782 18.8782ZM52.7115 37.8782C52.7095 38.8881 52.6109 39.8954 52.417 40.8865L49.358 39.9681C49.6071 38.5859 49.6071 37.1704 49.358 35.7882L52.417 34.8699C52.6109 35.861 52.7095 36.8683 52.7115 37.8782ZM51.5082 31.8362L48.4523 32.7529C47.1719 29.8813 44.8751 27.5845 42.0034 26.304L42.9202 23.2482C46.8049 24.864 49.8924 27.9514 51.5082 31.8362ZM36.8782 47.3782C34.9993 47.3782 33.1625 46.821 31.6003 45.7771C30.038 44.7333 28.8204 43.2495 28.1013 41.5137C27.3823 39.7778 27.1942 37.8677 27.5607 36.0248C27.9273 34.182 28.8321 32.4893 30.1607 31.1606C31.4893 29.832 33.182 28.9272 35.0248 28.5607C36.8676 28.1942 38.7778 28.3823 40.5137 29.1013C42.2496 29.8203 43.7333 31.038 44.7771 32.6002C45.821 34.1625 46.3782 35.9993 46.3782 37.8782C46.3757 40.397 45.374 42.8119 43.5929 44.5929C41.8119 46.374 39.397 47.3756 36.8782 47.3782ZM39.8865 22.3394L38.9682 25.3983C37.586 25.1492 36.1704 25.1492 34.7882 25.3983L33.8698 22.3394C35.8562 21.9468 37.9002 21.9468 39.8865 22.3394ZM30.8362 23.2482L31.7529 26.304C28.8813 27.5845 26.5844 29.8813 25.304 32.7529L22.2482 31.8362C23.864 27.9514 26.9514 24.864 30.8362 23.2482ZM21.0448 37.8782C21.0469 36.8683 21.1455 35.861 21.3394 34.8699L24.3983 35.7882C24.1492 37.1704 24.1492 38.5859 24.3983 39.9681L21.3394 40.8865C21.1455 39.8954 21.0469 38.8881 21.0448 37.8782ZM22.2482 43.9202L25.304 43.0034C26.5844 45.875 28.8813 48.1719 31.7529 49.4524L30.8362 52.5082C26.9514 50.8923 23.864 47.8049 22.2482 43.9202ZM33.8698 53.4202L34.7882 50.3612C36.1704 50.6104 37.586 50.6104 38.9682 50.3612L39.8865 53.4202C37.9002 53.8127 35.8562 53.8127 33.8698 53.4202ZM42.9202 52.5098L42.0034 49.4556C44.8751 48.175 47.1719 45.8782 48.4523 43.0066L51.5082 43.9233C49.8921 47.8068 46.8045 50.8926 42.9202 52.5066L42.9202 52.5098ZM41.0439 36.1239C41.4232 36.6301 41.6282 37.2456 41.6282 37.8782C41.6282 38.5107 41.4232 39.1262 41.0439 39.6326L38.0467 43.6272C37.9107 43.8088 37.7343 43.9562 37.5315 44.0577C37.3287 44.1592 37.105 44.212 36.8782 44.212C36.6514 44.212 36.4277 44.1592 36.2249 44.0577C36.022 43.9562 35.8456 43.8088 35.7097 43.6272L32.7124 39.6326C32.3332 39.1262 32.1282 38.5107 32.1282 37.8782C32.1282 37.2456 32.3332 36.6301 32.7124 36.1239L35.7097 32.1292C35.8456 31.9475 36.022 31.8002 36.2249 31.6986C36.4277 31.5972 36.6514 31.5443 36.8782 31.5443C37.105 31.5443 37.3287 31.5972 37.5315 31.6986C37.7343 31.8002 37.9107 31.9475 38.0467 32.1292L41.0439 36.1239Z" fill="#FFD762" fill-opacity="1.000000" fill-rule="nonzero"/>
	</g>
	<g filter="url(#filter_1_579_dd)">
		<path id="POKER ROOM" d="M69.2136 38.6418Q71.2986 38.6418 71.2986 36.5432Q71.2986 34.4412 69.9963 34.2737Q69.5349 34.219 68.8547 34.219Q68.1746 34.219 67.8396 34.2463Q67.6038 34.2874 67.3372 34.7795L67.3372 38.6418L69.2136 38.6418ZM67.3372 42.8152Q67.4329 43.2356 67.9797 43.2356L68.8889 43.2356L68.8889 43.8645L64.4387 43.8645L64.4387 43.2356L65.4333 43.2185Q65.823 43.1638 66.0076 42.8152L66.0076 34.8479Q65.9631 34.6086 65.7888 34.4343Q65.6145 34.26 65.3479 34.219L64.4387 34.219L64.4387 33.573L69.5212 33.5867Q71.0593 33.5867 71.9207 34.4275Q72.782 35.2683 72.782 36.5706Q72.782 39.2878 69.3367 39.2878L67.3372 39.2878L67.3372 42.8152ZM76.5481 43.4304Q75.3586 42.7024 74.6306 41.4993Q73.9026 40.2927 73.9026 38.8367Q73.9026 37.3806 74.6306 36.157Q75.3586 34.9333 76.5481 34.1917Q77.7375 33.4465 79.1799 33.4465Q80.6223 33.4465 81.8049 34.1472Q82.9875 34.8479 83.7224 36.075Q84.4573 37.2986 84.4573 38.8196Q84.4573 40.3372 83.7224 41.5403Q82.9875 42.7434 81.8049 43.4509Q80.6223 44.1584 79.1799 44.1584Q77.7375 44.1584 76.5481 43.4304ZM79.2654 34.1917L78.8005 34.1917Q77.6111 34.1917 76.5891 35.5623Q75.5671 36.9329 75.5671 38.8948Q75.5671 40.8533 76.6575 42.1282Q77.7512 43.4031 79.2825 43.4031Q80.8171 43.4031 81.8049 42.1077Q82.7927 40.8123 82.7927 38.7683Q82.7927 36.7244 81.7058 35.4597Q80.6223 34.1917 79.2654 34.1917ZM88.3372 42.8289Q88.4329 43.2493 88.9797 43.2493L89.8889 43.2493L89.8889 43.8782L85.4387 43.8782L85.4387 43.2493L86.4333 43.2493Q86.823 43.1912 87.0076 42.8425L87.0076 34.7488Q86.9495 34.4275 86.3479 34.3318L85.4387 34.3318L85.4387 33.6995L89.8889 33.6995L89.8889 34.3318L88.9114 34.3318Q88.532 34.3865 88.3372 34.7488L88.3372 38.8367L92.8318 35.0291Q92.8865 34.8752 92.8865 34.7659Q92.8865 34.4548 92.4114 34.3318L91.8235 34.3318L91.8235 33.6995L95.7405 33.6995L95.7405 34.3455L95.238 34.3455Q94.3015 34.595 93.5291 35.2546L90.2957 38.0266L94.9988 42.8015Q95.4329 43.2356 96.1746 43.2356L96.6394 43.2356L96.6394 43.8782L92.1448 43.8782L92.1448 43.2493L92.7874 43.2356Q93.2795 43.0818 93.2795 42.969Q93.2795 42.8562 93.0676 42.4768L89.4412 38.7683L88.3372 39.7185L88.3372 42.8289ZM103.651 38.054Q104.352 37.8318 104.352 37.1311L104.352 36.4988L104.981 36.4988L104.981 40.2517L104.352 40.2517L104.352 39.5374Q104.352 38.9905 103.651 38.6965L100.657 38.6965L100.657 42.6033Q100.726 43.01 101.091 43.2048L105.08 43.2185Q105.808 43.1228 105.808 42.4358L105.808 41.6667L106.437 41.6667L106.437 43.8782L97.7587 43.8782L97.7587 43.2493L98.7533 43.2493Q99.143 43.1912 99.3276 42.8425L99.3276 34.8479Q99.2831 34.6086 99.1088 34.4343Q98.9345 34.26 98.6679 34.219L97.7587 34.219L97.7587 33.5867L106.215 33.5867L106.215 35.8152L105.582 35.8152L105.582 34.9607Q105.528 34.5676 104.885 34.2463L101.16 34.2463Q100.924 34.2874 100.657 34.7795L100.657 38.054L103.651 38.054ZM117.29 43.2493L118.072 43.2493L118.072 43.8782L113.619 43.8782L113.619 43.2493L114.6 43.2493Q114.894 43.2493 114.894 43.1091Q114.894 43.01 114.781 42.8699L111.927 39.2708L110.679 39.2708L110.679 42.8425Q110.679 43.2493 111.312 43.2493L112.234 43.2493L112.234 43.8782L107.699 43.8782L107.699 43.2493L108.707 43.2493Q108.916 43.2493 109.104 43.1296Q109.295 43.01 109.295 42.8425L109.295 34.8342Q109.295 34.595 109.104 34.4001Q108.916 34.2053 108.622 34.2053L107.699 34.2053L107.699 33.573L112.781 33.573Q114.306 33.573 115.181 34.4207Q116.056 35.2683 116.056 36.5569Q116.056 38.9495 113.369 39.2297L116.25 42.8699Q116.575 43.2493 117.29 43.2493ZM110.679 34.7659L110.679 38.6418L112.487 38.6418Q114.559 38.6418 114.559 36.5364Q114.559 34.4275 113.256 34.26Q112.822 34.2053 111.927 34.2053Q111.031 34.2053 110.854 34.366Q110.679 34.5266 110.679 34.7659ZM132.984 43.2493L133.766 43.2493L133.766 43.8782L129.313 43.8782L129.313 43.2493L130.294 43.2493Q130.588 43.2493 130.588 43.1091Q130.588 43.01 130.475 42.8699L127.621 39.2708L126.373 39.2708L126.373 42.8425Q126.373 43.2493 127.006 43.2493L127.928 43.2493L127.928 43.8782L123.393 43.8782L123.393 43.2493L124.401 43.2493Q124.61 43.2493 124.798 43.1296Q124.989 43.01 124.989 42.8425L124.989 34.8342Q124.989 34.595 124.798 34.4001Q124.61 34.2053 124.316 34.2053L123.393 34.2053L123.393 33.573L128.475 33.573Q130 33.573 130.875 34.4207Q131.75 35.2683 131.75 36.5569Q131.75 38.9495 129.063 39.2297L131.944 42.8699Q132.269 43.2493 132.984 43.2493ZM126.373 34.7659L126.373 38.6418L128.181 38.6418Q130.253 38.6418 130.253 36.5364Q130.253 34.4275 128.95 34.26Q128.516 34.2053 127.621 34.2053Q126.725 34.2053 126.548 34.366Q126.373 34.5266 126.373 34.7659ZM137.392 43.4304Q136.203 42.7024 135.475 41.4993Q134.747 40.2927 134.747 38.8367Q134.747 37.3806 135.475 36.157Q136.203 34.9333 137.392 34.1917Q138.582 33.4465 140.024 33.4465Q141.466 33.4465 142.649 34.1472Q143.832 34.8479 144.566 36.075Q145.301 37.2986 145.301 38.8196Q145.301 40.3372 144.566 41.5403Q143.832 42.7434 142.649 43.4509Q141.466 44.1584 140.024 44.1584Q138.582 44.1584 137.392 43.4304ZM140.109 34.1917L139.645 34.1917Q138.455 34.1917 137.433 35.5623Q136.411 36.9329 136.411 38.8948Q136.411 40.8533 137.501 42.1282Q138.595 43.4031 140.126 43.4031Q141.661 43.4031 142.649 42.1077Q143.637 40.8123 143.637 38.7683Q143.637 36.7244 142.55 35.4597Q141.466 34.1917 140.109 34.1917ZM148.788 43.4304Q147.599 42.7024 146.871 41.4993Q146.143 40.2927 146.143 38.8367Q146.143 37.3806 146.871 36.157Q147.599 34.9333 148.788 34.1917Q149.978 33.4465 151.42 33.4465Q152.862 33.4465 154.045 34.1472Q155.228 34.8479 155.962 36.075Q156.697 37.2986 156.697 38.8196Q156.697 40.3372 155.962 41.5403Q155.228 42.7434 154.045 43.4509Q152.862 44.1584 151.42 44.1584Q149.978 44.1584 148.788 43.4304ZM151.505 34.1917L151.041 34.1917Q149.851 34.1917 148.829 35.5623Q147.807 36.9329 147.807 38.8948Q147.807 40.8533 148.897 42.1282Q149.991 43.4031 151.522 43.4031Q153.057 43.4031 154.045 42.1077Q155.033 40.8123 155.033 38.7683Q155.033 36.7244 153.946 35.4597Q152.862 34.1917 151.505 34.1917ZM160.239 42.4084Q160.239 43.2493 161.432 43.2493L161.794 43.2493L161.794 43.8782L157.819 43.8782L157.819 43.2493L158.308 43.2356Q159.388 43.2048 159.388 42.4084L159.388 35.0291Q159.388 34.4275 158.728 34.3318L157.819 34.3318L157.819 33.6995L160.225 33.6995L164.665 41.5813L168.64 33.6995L171.511 33.6995L171.511 34.3318L170.53 34.3318Q169.97 34.4275 169.97 35.0291L169.97 42.4084Q169.97 43.2493 171.146 43.2493L171.511 43.2493L171.511 43.8782L167.058 43.8782L167.058 43.2493L167.55 43.2356Q168.626 43.2048 168.626 42.4084L168.626 35.4495L164.48 43.5706L160.239 36.1365L160.239 42.4084Z" fill="#FFD762" fill-opacity="1.000000" fill-rule="evenodd"/>
	</g>
</svg>
