<svg width="10.666626" height="12.000000" viewBox="0 0 10.6666 12" fill="none" xmlns="http://www.w3.org/2000/svg" xmlns:xlink="http://www.w3.org/1999/xlink">
	<desc>
			Created with Pixso.
	</desc>
	<defs/>
	<path id="Vector" d="M9.17529 0.000457764C8.80737 0.0140991 8.52014 0.323456 8.53381 0.691376L8.599 2.44989C7.69702 1.75031 6.56396 1.33334 5.33337 1.33334C2.38782 1.33334 0 3.72116 0 6.66666C0 9.61221 2.38782 12 5.33337 12C8.27881 12 10.6666 9.61221 10.6666 6.66666C10.6666 6.29846 10.3682 6 10 6C9.63184 6 9.33337 6.29846 9.33337 6.66666C9.33337 8.87579 7.54248 10.6667 5.33337 10.6667C3.12415 10.6667 1.33337 8.87579 1.33337 6.66666C1.33337 4.45755 3.12415 2.66669 5.33337 2.66669C6.38623 2.66669 7.34448 3.0733 8.05933 3.73929L5.78931 4.00452C5.42358 4.04724 5.16174 4.37833 5.20459 4.74405C5.24731 5.10974 5.57837 5.37161 5.94409 5.32883L9.41077 4.92377C9.7561 4.88342 10.0125 4.58438 9.99951 4.23691L9.86621 0.641968C9.85254 0.274017 9.54321 -0.0131836 9.17529 0.000457764Z" fill="#FFD762" fill-opacity="1.000000" fill-rule="evenodd"/>
</svg>
