<svg width="38.000000" height="38.000000" viewBox="0 0 38 38" fill="none" xmlns="http://www.w3.org/2000/svg" xmlns:xlink="http://www.w3.org/1999/xlink">
	<desc>
			Created with Pixso.
	</desc>
	<defs/>
	<path id="Vector" d="M19 0C15.2422 0 11.5688 1.11438 8.44434 3.20203C5.31982 5.28979 2.88428 8.2572 1.44629 11.729C0.00830078 15.2008 -0.368164 19.0211 0.365234 22.7067C1.09814 26.3923 2.90771 29.7778 5.56494 32.4351C8.22217 35.0923 11.6074 36.9019 15.2935 37.6349C18.979 38.368 22.7993 37.9918 26.271 36.5537C29.7427 35.1156 32.71 32.6804 34.7979 29.5558C36.8857 26.4313 38 22.7578 38 19C37.9946 13.9625 35.9912 9.13306 32.4292 5.57104C28.8672 2.00903 24.0376 0.00549316 19 0ZM34.8335 19C34.8315 20.0099 34.7329 21.0172 34.5391 22.0083L31.48 21.09C31.729 19.7078 31.729 18.2922 31.48 16.91L34.5391 15.9917C34.7329 16.9828 34.8315 17.9901 34.8335 19ZM33.6299 12.958L30.5742 13.8748C29.2939 11.0032 26.9971 8.7063 24.1255 7.42578L25.042 4.37C28.9268 5.98584 32.0142 9.07324 33.6299 12.958ZM19 28.5C17.1211 28.5 15.2842 27.9429 13.7222 26.8989C12.1597 25.8551 10.9424 24.3713 10.2231 22.6355C9.50391 20.8997 9.31592 18.9895 9.68262 17.1466C10.0493 15.3038 10.9541 13.6111 12.2827 12.2825C13.6113 10.9539 15.3037 10.0491 17.1465 9.6825C18.9893 9.31604 20.8994 9.50415 22.6357 10.2231C24.3716 10.9421 25.855 12.1598 26.8989 13.722C27.9429 15.2843 28.5 17.1211 28.5 19C28.4976 21.5188 27.4956 23.9337 25.7148 25.7147C23.9336 27.4958 21.5186 28.4974 19 28.5ZM22.0083 3.46118L21.0898 6.52014C19.708 6.271 18.292 6.271 16.9102 6.52014L15.9917 3.46118C17.978 3.0686 20.022 3.0686 22.0083 3.46118ZM12.958 4.37L13.875 7.42578C11.0029 8.7063 8.70605 11.0032 7.42578 13.8748L4.37012 12.958C5.98584 9.07324 9.07324 5.98584 12.958 4.37ZM3.1665 19C3.16846 17.9901 3.26709 16.9828 3.46094 15.9917L6.52002 16.91C6.271 18.2922 6.271 19.7078 6.52002 21.09L3.46094 22.0083C3.26709 21.0172 3.16846 20.0099 3.1665 19ZM4.37012 25.042L7.42578 24.1252C8.70605 26.9968 11.0029 29.2937 13.875 30.5742L12.958 33.63C9.07324 32.0142 5.98584 28.9268 4.37012 25.042ZM15.9917 34.542L16.9102 31.483C18.292 31.7322 19.708 31.7322 21.0898 31.483L22.0083 34.542C20.022 34.9346 17.978 34.9346 15.9917 34.542ZM25.042 33.6316L24.1255 30.5774C26.9971 29.2969 29.2939 27 30.5742 24.1284L33.6299 25.0452C32.0137 28.9286 28.9263 32.0144 25.042 33.6284L25.042 33.6316ZM23.1655 17.2457C23.5449 17.752 23.75 18.3674 23.75 19C23.75 19.6326 23.5449 20.248 23.1655 20.7544L20.1685 24.749C20.0327 24.9307 19.856 25.078 19.6533 25.1796C19.4507 25.281 19.2271 25.3339 19 25.3339C18.7734 25.3339 18.5493 25.281 18.3467 25.1796C18.144 25.078 17.9673 24.9307 17.8315 24.749L14.8345 20.7544C14.4551 20.248 14.25 19.6326 14.25 19C14.25 18.3674 14.4551 17.752 14.8345 17.2457L17.8315 13.251C17.9673 13.0693 18.144 12.922 18.3467 12.8204C18.5493 12.719 18.7734 12.6661 19 12.6661C19.2271 12.6661 19.4507 12.719 19.6533 12.8204C19.856 12.922 20.0327 13.0693 20.1685 13.251L23.1655 17.2457Z" fill="#FFD762" fill-opacity="1.000000" fill-rule="nonzero"/>
</svg>
