<svg width="70.000000" height="50.000000" viewBox="0 0 70 50" fill="none" xmlns="http://www.w3.org/2000/svg" xmlns:xlink="http://www.w3.org/1999/xlink">
	<desc>
			Created with Pixso.
	</desc>
	<defs>
		<clipPath id="clip27_1960">
			<rect id="card1" rx="1.500000" width="49.000000" height="69.000000" transform="matrix(4.37114e-08 1 1 -4.37114e-08 0.5 0.5)" fill="white" fill-opacity="0"/>
		</clipPath>
	</defs>
	<rect id="card1" rx="1.500000" width="49.000000" height="69.000000" transform="matrix(4.37114e-08 1 1 -4.37114e-08 0.5 0.5)" fill="#FEFFAB" fill-opacity="1.000000"/>
	<g clip-path="url(#clip27_1960)">
		<path id="SBUX" d="M20.1564 30.511C18.9711 30.511 18.0378 30.231 17.3564 29.671C16.6658 29.1017 16.2364 28.327 16.0684 27.347L18.0424 26.885C18.1264 27.4357 18.3691 27.8603 18.7704 28.159C19.1624 28.4577 19.6478 28.607 20.2264 28.607C20.7211 28.607 21.0944 28.4997 21.3464 28.285C21.6264 28.061 21.7664 27.7857 21.7664 27.459C21.7664 27.207 21.6591 26.983 21.4444 26.787C21.2391 26.591 20.9591 26.4603 20.6044 26.395L19.1624 26.101C18.3411 25.9517 17.6784 25.6157 17.1744 25.093C16.6891 24.5797 16.4464 23.9403 16.4464 23.175C16.4464 22.2697 16.8011 21.509 17.5104 20.893C18.2291 20.2957 19.0784 19.997 20.0584 19.997C21.1878 19.997 22.0744 20.2817 22.7184 20.851C23.2971 21.3923 23.6378 22.013 23.7404 22.713L21.8224 23.273C21.7291 22.8437 21.5284 22.5077 21.2204 22.265C20.9218 22.013 20.5251 21.887 20.0304 21.887C19.6198 21.887 19.2651 21.999 18.9664 22.223C18.6864 22.447 18.5464 22.7083 18.5464 23.007C18.5464 23.5763 18.8964 23.931 19.5964 24.071L21.0244 24.337C21.9578 24.505 22.6718 24.8597 23.1664 25.401C23.6611 25.9517 23.9084 26.5957 23.9084 27.333C23.9084 28.1357 23.5911 28.8637 22.9564 29.517C22.2658 30.1797 21.3324 30.511 20.1564 30.511ZM33.6072 27.543C33.6072 28.0377 33.5045 28.4763 33.2992 28.859C33.0938 29.2323 32.8138 29.5263 32.4592 29.741C32.1045 29.9463 31.7172 30.1003 31.2972 30.203C30.8865 30.3057 30.4478 30.357 29.9812 30.357L25.6832 30.357L25.6832 20.151L29.9112 20.151C30.7792 20.151 31.5258 20.3703 32.1512 20.809C32.8325 21.285 33.1732 21.9663 33.1732 22.853C33.1732 23.805 32.6972 24.533 31.7452 25.037L31.7452 25.051C32.3705 25.2843 32.8418 25.597 33.1592 25.989C33.4578 26.3717 33.6072 26.8897 33.6072 27.543ZM31.1012 23.175C31.1012 22.7923 30.9565 22.517 30.6672 22.349C30.3872 22.181 30.0372 22.097 29.6172 22.097L27.7412 22.097L27.7412 24.295L29.4772 24.295C29.8972 24.295 30.2612 24.225 30.5692 24.085C30.9238 23.9263 31.1012 23.623 31.1012 23.175ZM31.5492 27.263C31.5492 26.507 30.9938 26.129 29.8832 26.129L27.7412 26.129L27.7412 28.397L29.9532 28.397C30.3638 28.397 30.7232 28.3223 31.0312 28.173C31.3765 28.005 31.5492 27.7017 31.5492 27.263ZM41.3825 20.151L43.4685 20.151L43.4685 26.241C43.4685 27.5663 43.1185 28.607 42.4185 29.363C41.7279 30.119 40.7059 30.497 39.3525 30.497C37.9712 30.497 36.9352 30.1097 36.2445 29.335C35.6005 28.607 35.2785 27.599 35.2785 26.311L35.2785 20.151L37.3925 20.151L37.3785 26.269C37.3785 26.9877 37.5652 27.5337 37.9385 27.907C38.3025 28.2803 38.7785 28.467 39.3665 28.467C40.0012 28.467 40.4959 28.2757 40.8505 27.893C41.2052 27.4917 41.3825 26.9643 41.3825 26.311L41.3825 20.151ZM51.9418 30.357L49.4498 26.689L46.9158 30.357L44.5358 30.357L48.2038 25.107L44.7458 20.151L47.2098 20.151L49.4778 23.469L51.7598 20.151L54.2098 20.151L50.7238 25.093L54.4058 30.357L51.9418 30.357Z" fill="#960E89" fill-opacity="1.000000" fill-rule="evenodd"/>
	</g>
	<rect id="card1" rx="1.500000" width="49.000000" height="69.000000" transform="matrix(4.37114e-08 1 1 -4.37114e-08 0.5 0.5)" stroke="#FFD762" stroke-opacity="1.000000" stroke-width="1.000000"/>
</svg>
