<svg width="50.000000" height="70.000000" viewBox="0 0 50 70" fill="none" xmlns="http://www.w3.org/2000/svg" xmlns:xlink="http://www.w3.org/1999/xlink">
	<desc>
			Created with Pixso.
	</desc>
	<defs>
		<clipPath id="clip27_2876">
			<rect id="card3" rx="1.500000" width="49.000000" height="69.000000" transform="translate(0.500000 0.500000)" fill="white" fill-opacity="0"/>
		</clipPath>
	</defs>
	<rect id="card3" rx="1.500000" width="49.000000" height="69.000000" transform="translate(0.500000 0.500000)" fill="#FEFFAB" fill-opacity="1.000000"/>
	<g clip-path="url(#clip27_2876)">
		<path id="SBUX" d="M10.1564 40.511C8.97111 40.511 8.03778 40.231 7.35645 39.671C6.66578 39.1017 6.23645 38.327 6.06845 37.347L8.04245 36.885C8.12645 37.4357 8.36911 37.8603 8.77044 38.159C9.16245 38.4577 9.64778 38.607 10.2264 38.607C10.7211 38.607 11.0944 38.4997 11.3464 38.285C11.6264 38.061 11.7664 37.7857 11.7664 37.459C11.7664 37.207 11.6591 36.983 11.4444 36.787C11.2391 36.591 10.9591 36.4603 10.6044 36.395L9.16245 36.101C8.34111 35.9517 7.67845 35.6157 7.17445 35.093C6.68911 34.5797 6.44645 33.9403 6.44645 33.175C6.44645 32.2697 6.80111 31.509 7.51045 30.893C8.22911 30.2957 9.07845 29.997 10.0584 29.997C11.1878 29.997 12.0744 30.2817 12.7184 30.851C13.2971 31.3923 13.6378 32.013 13.7404 32.713L11.8224 33.273C11.7291 32.8437 11.5284 32.5077 11.2204 32.265C10.9218 32.013 10.5251 31.887 10.0304 31.887C9.61978 31.887 9.26511 31.999 8.96645 32.223C8.68645 32.447 8.54645 32.7083 8.54645 33.007C8.54645 33.5763 8.89645 33.931 9.59645 34.071L11.0244 34.337C11.9578 34.505 12.6718 34.8597 13.1664 35.401C13.6611 35.9517 13.9084 36.5957 13.9084 37.333C13.9084 38.1357 13.5911 38.8637 12.9564 39.517C12.2658 40.1797 11.3324 40.511 10.1564 40.511ZM23.6072 37.543C23.6072 38.0377 23.5045 38.4763 23.2992 38.859C23.0938 39.2323 22.8138 39.5263 22.4592 39.741C22.1045 39.9463 21.7172 40.1003 21.2972 40.203C20.8865 40.3057 20.4478 40.357 19.9812 40.357L15.6832 40.357L15.6832 30.151L19.9112 30.151C20.7792 30.151 21.5258 30.3703 22.1512 30.809C22.8325 31.285 23.1732 31.9663 23.1732 32.853C23.1732 33.805 22.6972 34.533 21.7452 35.037L21.7452 35.051C22.3705 35.2843 22.8418 35.597 23.1592 35.989C23.4578 36.3717 23.6072 36.8897 23.6072 37.543ZM21.1012 33.175C21.1012 32.7923 20.9565 32.517 20.6672 32.349C20.3872 32.181 20.0372 32.097 19.6172 32.097L17.7412 32.097L17.7412 34.295L19.4772 34.295C19.8972 34.295 20.2612 34.225 20.5692 34.085C20.9238 33.9263 21.1012 33.623 21.1012 33.175ZM21.5492 37.263C21.5492 36.507 20.9938 36.129 19.8832 36.129L17.7412 36.129L17.7412 38.397L19.9532 38.397C20.3638 38.397 20.7232 38.3223 21.0312 38.173C21.3765 38.005 21.5492 37.7017 21.5492 37.263ZM31.3825 30.151L33.4685 30.151L33.4685 36.241C33.4685 37.5663 33.1185 38.607 32.4185 39.363C31.7279 40.119 30.7059 40.497 29.3525 40.497C27.9712 40.497 26.9352 40.1097 26.2445 39.335C25.6005 38.607 25.2785 37.599 25.2785 36.311L25.2785 30.151L27.3925 30.151L27.3785 36.269C27.3785 36.9877 27.5652 37.5337 27.9385 37.907C28.3025 38.2803 28.7785 38.467 29.3665 38.467C30.0012 38.467 30.4959 38.2757 30.8505 37.893C31.2052 37.4917 31.3825 36.9643 31.3825 36.311L31.3825 30.151ZM41.9418 40.357L39.4498 36.689L36.9158 40.357L34.5358 40.357L38.2038 35.107L34.7458 30.151L37.2098 30.151L39.4778 33.469L41.7598 30.151L44.2098 30.151L40.7238 35.093L44.4058 40.357L41.9418 40.357Z" fill="#960E89" fill-opacity="1.000000" fill-rule="evenodd"/>
	</g>
	<rect id="card3" rx="1.500000" width="49.000000" height="69.000000" transform="translate(0.500000 0.500000)" stroke="#FFD762" stroke-opacity="1.000000" stroke-width="1.000000"/>
</svg>
