<svg width="50.000000" height="70.000000" viewBox="0 0 50 70" fill="none" xmlns="http://www.w3.org/2000/svg" xmlns:xlink="http://www.w3.org/1999/xlink">
	<desc>
			Created with Pixso.
	</desc>
	<defs>
		<clipPath id="clip27_2024">
			<rect id="card5" rx="1.500000" width="49.000000" height="69.000000" transform="translate(0.500000 0.500000)" fill="white" fill-opacity="0"/>
		</clipPath>
	</defs>
	<rect id="card5" rx="1.500000" width="49.000000" height="69.000000" transform="translate(0.500000 0.500000)" fill="#FEFFAB" fill-opacity="1.000000"/>
	<g clip-path="url(#clip27_2024)">
		<path id="TKTK" d="M12.0847 32.195L12.0847 40.357L9.97067 40.357L9.97067 32.195L6.91867 32.195L6.91867 30.151L15.1367 30.151L15.1367 32.195L12.0847 32.195ZM22.374 40.357L18.706 35.513L18.706 40.357L16.606 40.357L16.606 30.151L18.706 30.151L18.706 34.589L22.206 30.151L24.838 30.151L20.946 35.037L25.09 40.357L22.374 40.357ZM30.446 32.195L30.446 40.357L28.332 40.357L28.332 32.195L25.28 32.195L25.28 30.151L33.498 30.151L33.498 32.195L30.446 32.195ZM40.7353 40.357L37.0673 35.513L37.0673 40.357L34.9673 40.357L34.9673 30.151L37.0673 30.151L37.0673 34.589L40.5673 30.151L43.1993 30.151L39.3073 35.037L43.4513 40.357L40.7353 40.357Z" fill="#960E89" fill-opacity="1.000000" fill-rule="evenodd"/>
	</g>
	<rect id="card5" rx="1.500000" width="49.000000" height="69.000000" transform="translate(0.500000 0.500000)" stroke="#FFD762" stroke-opacity="1.000000" stroke-width="1.000000"/>
</svg>
