<svg width="277.000000" height="153.207397" viewBox="0 0 277 153.207" fill="none" xmlns="http://www.w3.org/2000/svg" xmlns:xlink="http://www.w3.org/1999/xlink">
	<desc>
			Created with Pixso.
	</desc>
	<defs>
		<clipPath id="clip1_599">
			<rect id="player 2" width="50.000000" height="50.000000" transform="translate(0.000000 63.000000)" fill="white" fill-opacity="0"/>
		</clipPath>
		<clipPath id="clip1_603">
			<rect id="player 3" width="50.000000" height="50.000000" transform="translate(227.000000 63.000000)" fill="white" fill-opacity="0"/>
		</clipPath>
		<filter id="filter_1_750_dd" x="64.553314" y="30.000000" width="147.664551" height="123.207397" filterUnits="userSpaceOnUse" color-interpolation-filters="sRGB">
			<feFlood flood-opacity="0" result="BackgroundImageFix"/>
			<feColorMatrix in="SourceAlpha" type="matrix" values="0 0 0 0 0 0 0 0 0 0 0 0 0 0 0 0 0 0 127 0" result="hardAlpha"/>
			<feOffset dx="0" dy="0"/>
			<feGaussianBlur stdDeviation="8.33333"/>
			<feComposite in2="hardAlpha" operator="out" k2="-1" k3="1"/>
			<feColorMatrix type="matrix" values="0 0 0 0 0.98039 0 0 0 0 0.79216 0 0 0 0 0.34902 0 0 0 1 0"/>
			<feBlend mode="normal" in2="BackgroundImageFix" result="effect_dropShadow_1"/>
			<feBlend mode="normal" in="SourceGraphic" in2="effect_dropShadow_1" result="shape"/>
		</filter>
		<filter id="filter_1_752_dd" x="104.526062" y="69.912231" width="63.724854" height="37.025269" filterUnits="userSpaceOnUse" color-interpolation-filters="sRGB">
			<feFlood flood-opacity="0" result="BackgroundImageFix"/>
			<feColorMatrix in="SourceAlpha" type="matrix" values="0 0 0 0 0 0 0 0 0 0 0 0 0 0 0 0 0 0 127 0" result="hardAlpha"/>
			<feOffset dx="0" dy="4"/>
			<feGaussianBlur stdDeviation="0.666667"/>
			<feComposite in2="hardAlpha" operator="out" k2="-1" k3="1"/>
			<feColorMatrix type="matrix" values="0 0 0 0 0 0 0 0 0 0 0 0 0 0 0 0 0 0 0.5 0"/>
			<feBlend mode="normal" in2="BackgroundImageFix" result="effect_dropShadow_1"/>
			<feBlend mode="normal" in="SourceGraphic" in2="effect_dropShadow_1" result="shape"/>
		</filter>
		<clipPath id="clip1_753">
			<rect id="poker 1" width="38.000000" height="38.000000" transform="translate(119.000000 0.000000)" fill="white" fill-opacity="0"/>
		</clipPath>
		<radialGradient id="paint_radial_1_750_0" cx="0.000000" cy="0.000000" r="1.000000" gradientUnits="userSpaceOnUse" gradientTransform="translate(97.2456 75.9649) rotate(9.60303) scale(81.0302 109)">
			<stop offset="0.102161" stop-color="#B37D16"/>
			<stop offset="0.806940" stop-color="#F8F497"/>
			<stop offset="1.000000" stop-color="#C4963D"/>
		</radialGradient>
		<linearGradient id="paint_linear_1_750_1" x1="91.999985" y1="56.999985" x2="164.228012" y2="113.087708" gradientUnits="userSpaceOnUse">
			<stop stop-color="#F8F497"/>
			<stop offset="1.000000" stop-color="#B7851F"/>
		</linearGradient>
		<radialGradient id="paint_radial_1_751_0" cx="0.000000" cy="0.000000" r="1.000000" gradientUnits="userSpaceOnUse" gradientTransform="translate(142.842 62.6492) rotate(95.6823) scale(40.7529 55.0084)">
			<stop stop-color="#AF4190"/>
			<stop offset="0.472281" stop-color="#610547"/>
			<stop offset="1.000000" stop-color="#220119"/>
		</radialGradient>
		<linearGradient id="paint_linear_1_751_1" x1="107.131485" y1="62.649162" x2="167.254288" y2="106.833389" gradientUnits="userSpaceOnUse">
			<stop stop-color="#F2E586"/>
			<stop offset="0.546840" stop-color="#B37D16"/>
			<stop offset="0.990875" stop-color="#F7F395"/>
		</linearGradient>
		<linearGradient id="paint_linear_1_752_0" x1="106.526062" y1="104.815735" x2="106.526062" y2="69.912231" gradientUnits="userSpaceOnUse">
			<stop offset="0.276042" stop-color="#B37D16"/>
			<stop offset="0.670000" stop-color="#F8F497"/>
			<stop offset="1.000000" stop-color="#DDB149"/>
		</linearGradient>
		<linearGradient id="paint_linear_1_752_1" x1="136.388489" y1="69.912231" x2="136.388489" y2="103.806961" gradientUnits="userSpaceOnUse">
			<stop stop-color="#DDB149"/>
			<stop offset="1.000000" stop-color="#F8F497"/>
		</linearGradient>
	</defs>
	<rect id="player 2" width="50.000000" height="50.000000" transform="translate(0.000000 63.000000)" fill="#FFFFFF" fill-opacity="0"/>
	<g clip-path="url(#clip1_599)">
		<path id="Vector" d="M25 63C38.808 63 50 74.192 50 88C50 101.808 38.808 113 25 113C11.192 113 0 101.808 0 88C0 74.192 11.192 63 25 63Z" fill="#F8D05F" fill-opacity="1.000000" fill-rule="evenodd"/>
		<path id="Vector" d="M25 77C28.866 77 32 80.134 32 84C32 87.866 28.866 91 25 91C21.134 91 18 87.866 18 84C18 80.134 21.134 77 25 77Z" fill="#1F0D15" fill-opacity="1.000000" fill-rule="evenodd"/>
		<path id="Vector" d="M25 95C34.388 95 42 102 42 102C42 102 34.388 109 25 109C15.612 109 8 102 8 102C8 102 15.612 95 25 95Z" fill="#1F0D15" fill-opacity="1.000000" fill-rule="evenodd"/>
	</g>
	<rect id="player 3" width="50.000000" height="50.000000" transform="translate(227.000000 63.000000)" fill="#FFFFFF" fill-opacity="0"/>
	<g clip-path="url(#clip1_603)">
		<path id="Vector" d="M252 63C265.808 63 277 74.192 277 88C277 101.808 265.808 113 252 113C238.192 113 227 101.808 227 88C227 74.192 238.192 63 252 63Z" fill="#F8D05F" fill-opacity="1.000000" fill-rule="evenodd"/>
		<path id="Vector" d="M252 77C255.866 77 259 80.134 259 84C259 87.866 255.866 91 252 91C248.134 91 245 87.866 245 84C245 80.134 248.134 77 252 77Z" fill="#1F0D15" fill-opacity="1.000000" fill-rule="evenodd"/>
		<path id="Vector" d="M252 95C261.388 95 269 102 269 102C269 102 261.388 109 252 109C242.612 109 235 102 235 102C235 102 242.612 95 252 95Z" fill="#1F0D15" fill-opacity="1.000000" fill-rule="evenodd"/>
	</g>
	<g filter="url(#filter_1_750_dd)">
		<path id="Vector 1" d="M102.573 109.094L92 57L184.807 57L175.017 109.094L137.229 126L102.573 109.094Z" fill="url(#paint_radial_1_750_0)" fill-opacity="1.000000" fill-rule="nonzero"/>
	</g>
	<path id="Vector 1" d="M89.5533 55L100.809 110.459L101.696 110.892L137.192 128.207L176.789 110.492L187.218 55L89.5533 55ZM102.573 109.094L92 57L184.807 57L184.431 59L175.017 109.094L137.229 126L102.573 109.094Z" fill="url(#paint_linear_1_750_1)" fill-opacity="1.000000" fill-rule="evenodd"/>
	<path id="Vector 2" d="M108.539 106.213L99.6666 62.6492L177.544 62.6492L169.329 106.213L137.619 120.351L108.539 106.213Z" fill="url(#paint_radial_1_751_0)" fill-opacity="1.000000" fill-rule="nonzero"/>
	<path id="Vector 2" d="M97.2182 60.6492L106.776 107.58L107.664 108.012L137.583 122.557L171.1 107.613L179.956 60.6492L97.2182 60.6492ZM108.539 106.213L99.6666 62.6492L177.544 62.6492L177.167 64.6492L169.329 106.213L137.619 120.351L108.539 106.213Z" fill="url(#paint_linear_1_751_1)" fill-opacity="1.000000" fill-rule="evenodd"/>
	<g filter="url(#filter_1_752_dd)">
		<path id="Vector" d="M154.132 81.2433C155.155 81.5894 156.199 81.9347 157.265 82.2808C158.33 82.6268 159.278 82.959 160.108 83.2773C162.114 84.052 163.64 85.1212 164.684 86.4835C165.729 87.8458 166.251 89.5371 166.251 91.5573C166.251 92.8298 165.953 94.0615 165.358 95.2516C164.763 96.4409 163.961 97.4302 162.951 98.2186C161.844 99.0903 160.565 99.7614 159.112 100.231C157.659 100.702 155.965 100.938 154.028 100.938C152.229 100.938 150.552 100.713 148.996 100.264C147.439 99.8152 146.121 99.2863 145.042 98.6782L143.61 100.129L141.847 100.129L141.577 89.4971L143.361 89.4971C143.762 90.5084 144.274 91.5745 144.897 92.6959C145.52 93.8175 146.239 94.8214 147.055 95.7079C147.899 96.636 148.843 97.3901 149.887 97.9722C150.932 98.5533 152.153 98.8439 153.551 98.8439C155.432 98.8439 156.874 98.3851 157.877 97.4652C158.88 96.5453 159.382 95.3871 159.382 93.9905C159.382 92.8429 158.956 91.8781 158.105 91.0969C157.255 90.3158 155.937 89.6407 154.152 89.0719C152.99 88.6971 151.922 88.3503 150.946 88.0311C149.971 87.712 149.054 87.3855 148.196 87.0525C146.218 86.2639 144.748 85.1367 143.787 83.6699C142.825 82.204 142.344 80.5649 142.344 78.7521C142.344 77.6036 142.594 76.501 143.091 75.4423C143.589 74.3844 144.316 73.4326 145.27 72.5895C146.183 71.801 147.352 71.1578 148.777 70.6591C150.202 70.1611 151.752 69.9122 153.426 69.9122C155.059 69.9122 156.587 70.14 158.012 70.5962C159.437 71.0525 160.557 71.5079 161.374 71.9642L162.64 70.7203L164.445 70.7203L164.611 80.7511L162.827 80.7511C162.412 79.6711 161.924 78.5668 161.363 77.438C160.803 76.3091 160.212 75.3712 159.59 74.6228C158.911 73.8196 158.13 73.1797 157.244 72.7013C156.359 72.2239 155.321 71.9846 154.132 71.9846C152.638 71.9846 151.417 72.4075 150.468 73.2515C149.521 74.0955 149.047 75.1403 149.047 76.3859C149.047 77.562 149.459 78.5236 150.282 79.2712C151.105 80.0189 152.388 80.676 154.132 81.2433ZM138.505 73.2074C137.91 73.5535 137.45 73.9224 137.125 74.3167C136.8 74.7101 136.478 75.2529 136.16 75.9435C135.731 76.8969 135.129 78.2885 134.355 80.1193C133.579 81.9502 132.694 84.0332 131.699 86.3677C130.813 88.4678 129.855 90.7688 128.824 93.2689C127.794 95.7699 126.808 98.1672 125.867 100.461L121.696 100.461C119.758 95.7218 117.787 90.9067 115.781 86.0159C113.775 81.1241 112.364 77.7253 111.548 75.8186C111.23 75.1281 110.922 74.6064 110.624 74.2538C110.327 73.902 109.853 73.5396 109.203 73.1658C108.732 72.9038 108.318 72.7209 107.958 72.6173C107.598 72.5135 107.121 72.4197 106.526 72.3373L106.526 70.7203L122.484 70.7203L122.484 72.2957C120.991 72.4752 119.978 72.6654 119.446 72.8654C118.913 73.0662 118.648 73.3184 118.648 73.6221C118.648 73.7747 118.671 73.9363 118.72 74.1094C118.769 74.2823 118.841 74.5134 118.939 74.8031C119.381 76.0177 120.183 78.002 121.345 80.756C122.506 83.5092 124.228 87.7087 126.51 93.3539C127.907 89.9175 129.069 87.0125 129.995 84.6388C130.922 82.2653 131.738 80.1675 132.444 78.3456C132.79 77.4624 133.077 76.6372 133.305 75.8707C133.534 75.1044 133.647 74.5272 133.647 74.1404C133.647 73.698 133.329 73.329 132.693 73.0311C132.057 72.7347 130.881 72.5168 129.167 72.3789L129.167 70.7203L141.1 70.7203L141.1 72.3789C140.643 72.4197 140.207 72.5029 139.792 72.6271C139.377 72.752 138.948 72.9454 138.505 73.2074Z" fill="url(#paint_linear_1_752_0)" fill-opacity="1.000000" fill-rule="nonzero"/>
	</g>
	<path id="Vector" d="M145.042 98.6782C146.121 99.2863 147.439 99.8152 148.996 100.264C150.552 100.713 152.229 100.938 154.028 100.938C155.965 100.938 157.659 100.702 159.112 100.231C160.565 99.7614 161.844 99.0903 162.951 98.2186C163.961 97.4302 164.763 96.4409 165.358 95.2516C165.953 94.0615 166.251 92.8298 166.251 91.5573C166.251 89.5371 165.729 87.8458 164.684 86.4835C163.64 85.1212 162.114 84.052 160.108 83.2773C159.278 82.959 158.33 82.6268 157.265 82.2808C156.199 81.9347 155.155 81.5894 154.132 81.2433C152.388 80.676 151.105 80.0189 150.282 79.2712C149.459 78.5236 149.047 77.562 149.047 76.3859C149.047 75.1403 149.521 74.0955 150.468 73.2515C151.417 72.4075 152.638 71.9846 154.132 71.9846C155.321 71.9846 156.359 72.2239 157.244 72.7013C158.13 73.1797 158.911 73.8196 159.59 74.6228C160.212 75.3712 160.803 76.3091 161.363 77.438C161.924 78.5668 162.412 79.6711 162.827 80.7511L164.611 80.7511L164.595 79.7511L164.445 70.7206L164.445 70.7203L162.64 70.7203L161.374 71.9642C160.557 71.5079 159.437 71.0525 158.012 70.5962C156.587 70.14 155.059 69.9122 153.426 69.9122C151.752 69.9122 150.202 70.1611 148.777 70.6591C147.352 71.1578 146.183 71.801 145.27 72.5895C144.316 73.4326 143.589 74.3844 143.091 75.4423C142.594 76.501 142.344 77.6036 142.344 78.7521C142.344 80.5649 142.825 82.204 143.787 83.6699C144.748 85.1367 146.218 86.2639 148.196 87.0525C149.054 87.3855 149.971 87.712 150.946 88.0311C151.922 88.3503 152.99 88.6971 154.152 89.0719C155.937 89.6407 157.255 90.3158 158.105 91.0969C158.956 91.8781 159.382 92.8429 159.382 93.9905C159.382 95.3871 158.88 96.5453 157.877 97.4652C156.874 98.3851 155.432 98.8439 153.551 98.8439Q151.454 98.8439 149.887 97.9722C148.843 97.3901 147.899 96.636 147.055 95.7079C146.239 94.8214 145.52 93.8175 144.897 92.6959C144.274 91.5745 143.762 90.5084 143.361 89.4971L141.577 89.4971L141.602 90.4971L141.847 100.129L143.61 100.129L145.042 98.6782ZM143.192 99.1294L144.867 97.4316L145.533 97.807Q147.052 98.6628 149.273 99.3033Q151.471 99.9375 154.028 99.9375Q156.772 99.9375 158.804 99.28Q160.812 98.6304 162.336 97.4305Q162.716 97.1333 163.053 96.7925Q163.898 95.9362 164.464 94.8044Q165.043 93.6454 165.196 92.4326Q165.251 91.9984 165.251 91.5573Q165.251 89.0902 164.108 87.3937Q164.004 87.2397 163.891 87.092Q162.494 85.2704 159.75 84.2109Q158.534 83.7446 156.956 83.2318L156.951 83.2301L153.822 82.1942Q151.002 81.2766 149.61 80.0115Q148.933 79.3969 148.55 78.6349Q148.047 77.6368 148.047 76.3859Q148.047 75.281 148.447 74.3472Q148.885 73.3231 149.804 72.5045Q150.211 72.1418 150.671 71.8656Q152.136 70.9846 154.132 70.9846Q156.168 70.9846 157.719 71.8214Q158.012 71.9795 158.291 72.1586Q159.439 72.894 160.359 73.9836Q161.37 75.2001 162.259 76.9932Q162.955 78.3955 163.507 79.7511L163.595 79.7511L163.462 71.7203L163.049 71.7203L161.54 73.2028L160.886 72.8372Q159.752 72.2036 157.707 71.5486Q155.719 70.9122 153.426 70.9122Q151.084 70.9122 149.108 71.603Q147.149 72.2883 145.932 73.339Q144.656 74.4667 143.996 75.8678Q143.592 76.7279 143.438 77.6309Q143.344 78.1835 143.344 78.7521Q143.344 80.2394 143.827 81.5486Q144.13 82.3704 144.623 83.1218Q145.892 85.0577 148.558 86.1204Q149.822 86.611 151.254 87.08L154.456 88.119Q157.343 89.0392 158.782 90.3604Q159.595 91.1072 159.995 92.0326Q160.382 92.928 160.382 93.9905Q160.382 95.339 159.864 96.4451Q159.409 97.4175 158.553 98.2024Q158.496 98.2546 158.438 98.3052Q156.66 99.8439 153.551 99.8439Q151.195 99.8439 149.401 98.8457Q149.167 98.7153 148.939 98.5747Q147.502 97.6862 146.32 96.3854Q145.015 94.9691 144.023 93.1814Q143.249 91.7882 142.693 90.4971L142.603 90.4971L142.822 99.1294L143.192 99.1294ZM111.548 75.8186C111.23 75.1281 110.922 74.6064 110.624 74.2538C110.327 73.902 109.853 73.5396 109.203 73.1658C108.732 72.9038 108.318 72.7209 107.958 72.6173C107.598 72.5135 107.121 72.4197 106.526 72.3373L106.526 70.7203L122.484 70.7203L122.484 72.2957C120.991 72.4752 119.978 72.6654 119.446 72.8654C118.913 73.0662 118.648 73.3184 118.648 73.6221C118.648 73.7747 118.671 73.9363 118.72 74.1094C118.769 74.2823 118.841 74.5134 118.939 74.8031C119.381 76.0177 120.183 78.002 121.345 80.756C122.413 83.287 123.954 87.0402 125.969 92.0151C126.146 92.4519 126.326 92.8982 126.51 93.3539C126.694 92.9031 126.873 92.4614 127.048 92.0289C128.208 89.1644 129.191 86.701 129.995 84.6388C130.922 82.2653 131.738 80.1675 132.444 78.3456C132.79 77.4624 133.077 76.6372 133.305 75.8707C133.534 75.1044 133.647 74.5272 133.647 74.1404C133.647 73.698 133.329 73.329 132.693 73.0311C132.057 72.7347 130.881 72.5168 129.167 72.3789L129.167 70.7203L141.1 70.7203L141.1 71.7203L141.1 72.3789C140.643 72.4197 140.207 72.5029 139.792 72.6271C139.377 72.752 138.948 72.9454 138.505 73.2074C137.91 73.5535 137.45 73.9224 137.125 74.3167C136.8 74.7101 136.478 75.2529 136.16 75.9435C135.731 76.8969 135.129 78.2885 134.355 80.1193C133.579 81.9502 132.694 84.0332 131.699 86.3677C130.813 88.4678 129.855 90.7688 128.824 93.2689C127.794 95.7699 126.808 98.1672 125.867 100.461L121.696 100.461Q118.79 93.3522 115.781 86.0159C113.775 81.1241 112.364 77.7253 111.548 75.8186ZM122.367 99.4608L116.707 85.637L112.464 75.4176L112.456 75.4003Q111.923 74.2426 111.388 73.609Q110.828 72.9463 109.701 72.2987Q109.009 71.9132 108.439 71.7203L119.808 71.7203Q119.38 71.8219 119.094 71.9293Q118.055 72.3209 117.762 73.0237Q117.648 73.299 117.648 73.6221Q117.648 73.9916 117.758 74.382Q117.836 74.66 117.991 75.1213L117.995 75.1333L117.999 75.1453Q118.673 76.9977 120.424 81.1448L126.522 96.0181L130.924 85.0101L133.376 78.7083Q133.909 77.3475 134.263 76.156Q134.647 74.87 134.647 74.1404Q134.647 73.7744 134.526 73.4546Q134.216 72.6401 133.118 72.1256Q132.618 71.8931 131.797 71.7203L139.343 71.7203Q138.68 71.9418 137.996 72.347Q136.954 72.9529 136.354 73.6794L136.354 73.6802Q135.785 74.3687 135.252 75.5253Q134.584 77.0096 133.434 79.73L130.778 85.9764L127.901 92.8844L125.197 99.4608L122.367 99.4608Z" fill="url(#paint_linear_1_752_1)" fill-opacity="1.000000" fill-rule="evenodd"/>
	<rect id="poker 1" width="38.000000" height="38.000000" transform="translate(119.000000 0.000000)" fill="#FFFFFF" fill-opacity="0"/>
	<g clip-path="url(#clip1_753)">
		<path id="Vector" d="M138 0C134.242 0 130.569 1.11438 127.444 3.20203C124.32 5.28979 121.884 8.2572 120.446 11.729C119.008 15.2008 118.632 19.0211 119.365 22.7067C120.098 26.3923 121.908 29.7778 124.565 32.4351C127.222 35.0923 130.608 36.9019 134.293 37.6349C137.979 38.368 141.799 37.9918 145.271 36.5537C148.743 35.1156 151.71 32.6804 153.798 29.5558C155.886 26.4313 157 22.7578 157 19C156.995 13.9625 154.991 9.13306 151.429 5.57104C147.867 2.00903 143.037 0.00549316 138 0ZM153.833 19C153.831 20.0099 153.733 21.0172 153.539 22.0083L150.48 21.09C150.729 19.7078 150.729 18.2922 150.48 16.91L153.539 15.9917C153.733 16.9828 153.831 17.9901 153.833 19ZM152.63 12.958L149.574 13.8748C148.294 11.0032 145.997 8.7063 143.125 7.42578L144.042 4.37C147.927 5.98584 151.014 9.07324 152.63 12.958ZM138 28.5C136.121 28.5 134.284 27.9429 132.722 26.8989C131.16 25.8551 129.942 24.3713 129.223 22.6355C128.504 20.8997 128.316 18.9895 128.683 17.1466C129.049 15.3038 129.954 13.6111 131.283 12.2825C132.611 10.9539 134.304 10.0491 136.147 9.6825C137.989 9.31604 139.9 9.50415 141.635 10.2231C143.371 10.9421 144.855 12.1598 145.899 13.722C146.943 15.2843 147.5 17.1211 147.5 19C147.497 21.5188 146.496 23.9337 144.715 25.7147C142.934 27.4958 140.519 28.4974 138 28.5ZM141.008 3.46118L140.09 6.52014C138.708 6.271 137.292 6.271 135.91 6.52014L134.992 3.46118C136.978 3.0686 139.022 3.0686 141.008 3.46118ZM131.958 4.37L132.875 7.42578C130.003 8.7063 127.706 11.0032 126.426 13.8748L123.37 12.958C124.986 9.07324 128.073 5.98584 131.958 4.37ZM122.167 19C122.169 17.9901 122.267 16.9828 122.461 15.9917L125.52 16.91C125.271 18.2922 125.271 19.7078 125.52 21.09L122.461 22.0083C122.267 21.0172 122.169 20.0099 122.167 19ZM123.37 25.042L126.426 24.1252C127.706 26.9968 130.003 29.2937 132.875 30.5742L131.958 33.63C128.073 32.0142 124.986 28.9268 123.37 25.042ZM134.992 34.542L135.91 31.483C137.292 31.7322 138.708 31.7322 140.09 31.483L141.008 34.542C139.022 34.9346 136.978 34.9346 134.992 34.542ZM144.042 33.6316L143.125 30.5774C145.997 29.2969 148.294 27 149.574 24.1284L152.63 25.0452C151.014 28.9286 147.926 32.0144 144.042 33.6284L144.042 33.6316ZM142.166 17.2457C142.545 17.752 142.75 18.3674 142.75 19C142.75 19.6326 142.545 20.248 142.166 20.7544L139.169 24.749C139.033 24.9307 138.856 25.078 138.653 25.1796C138.451 25.281 138.227 25.3339 138 25.3339C137.773 25.3339 137.549 25.281 137.347 25.1796C137.144 25.078 136.967 24.9307 136.832 24.749L133.834 20.7544C133.455 20.248 133.25 19.6326 133.25 19C133.25 18.3674 133.455 17.752 133.834 17.2457L136.832 13.251C136.967 13.0693 137.144 12.922 137.347 12.8204C137.549 12.719 137.773 12.6661 138 12.6661C138.227 12.6661 138.451 12.719 138.653 12.8204C138.856 12.922 139.033 13.0693 139.169 13.251L142.166 17.2457Z" fill="#FFD762" fill-opacity="1.000000" fill-rule="nonzero"/>
	</g>
</svg>
