<svg width="323.000000" height="153.207397" viewBox="0 0 323 153.207" fill="none" xmlns="http://www.w3.org/2000/svg" xmlns:xlink="http://www.w3.org/1999/xlink">
	<desc>
			Created with Pixso.
	</desc>
	<defs>
		<clipPath id="clip1_622">
			<rect id="player 2" width="40.000000" height="40.000000" transform="translate(0.000000 60.000000)" fill="white" fill-opacity="0"/>
		</clipPath>
		<clipPath id="clip1_626">
			<rect id="player 4" width="40.000000" height="40.000000" transform="translate(45.000000 60.000000)" fill="white" fill-opacity="0"/>
		</clipPath>
		<clipPath id="clip1_634">
			<rect id="player 6" width="40.000000" height="40.000000" transform="translate(238.000000 60.000000)" fill="white" fill-opacity="0"/>
		</clipPath>
		<clipPath id="clip1_638">
			<rect id="player 7" width="40.000000" height="40.000000" transform="translate(283.000000 60.000000)" fill="white" fill-opacity="0"/>
		</clipPath>
		<filter id="filter_1_756_dd" x="86.553299" y="30.000000" width="147.664566" height="123.207397" filterUnits="userSpaceOnUse" color-interpolation-filters="sRGB">
			<feFlood flood-opacity="0" result="BackgroundImageFix"/>
			<feColorMatrix in="SourceAlpha" type="matrix" values="0 0 0 0 0 0 0 0 0 0 0 0 0 0 0 0 0 0 127 0" result="hardAlpha"/>
			<feOffset dx="0" dy="0"/>
			<feGaussianBlur stdDeviation="8.33333"/>
			<feComposite in2="hardAlpha" operator="out" k2="-1" k3="1"/>
			<feColorMatrix type="matrix" values="0 0 0 0 0.98039 0 0 0 0 0.79216 0 0 0 0 0.34902 0 0 0 1 0"/>
			<feBlend mode="normal" in2="BackgroundImageFix" result="effect_dropShadow_1"/>
			<feBlend mode="normal" in="SourceGraphic" in2="effect_dropShadow_1" result="shape"/>
		</filter>
		<filter id="filter_1_758_dd" x="126.526123" y="69.912231" width="63.724854" height="37.025269" filterUnits="userSpaceOnUse" color-interpolation-filters="sRGB">
			<feFlood flood-opacity="0" result="BackgroundImageFix"/>
			<feColorMatrix in="SourceAlpha" type="matrix" values="0 0 0 0 0 0 0 0 0 0 0 0 0 0 0 0 0 0 127 0" result="hardAlpha"/>
			<feOffset dx="0" dy="4"/>
			<feGaussianBlur stdDeviation="0.666667"/>
			<feComposite in2="hardAlpha" operator="out" k2="-1" k3="1"/>
			<feColorMatrix type="matrix" values="0 0 0 0 0 0 0 0 0 0 0 0 0 0 0 0 0 0 0.5 0"/>
			<feBlend mode="normal" in2="BackgroundImageFix" result="effect_dropShadow_1"/>
			<feBlend mode="normal" in="SourceGraphic" in2="effect_dropShadow_1" result="shape"/>
		</filter>
		<clipPath id="clip1_759">
			<rect id="poker 1" width="38.000000" height="38.000000" transform="translate(141.000000 0.000000)" fill="white" fill-opacity="0"/>
		</clipPath>
		<radialGradient id="paint_radial_1_756_0" cx="0.000000" cy="0.000000" r="1.000000" gradientUnits="userSpaceOnUse" gradientTransform="translate(119.246 75.9649) rotate(9.60303) scale(81.0302 109)">
			<stop offset="0.102161" stop-color="#B37D16"/>
			<stop offset="0.806940" stop-color="#F8F497"/>
			<stop offset="1.000000" stop-color="#C4963D"/>
		</radialGradient>
		<linearGradient id="paint_linear_1_756_1" x1="113.999985" y1="56.999985" x2="186.228012" y2="113.087708" gradientUnits="userSpaceOnUse">
			<stop stop-color="#F8F497"/>
			<stop offset="1.000000" stop-color="#B7851F"/>
		</linearGradient>
		<radialGradient id="paint_radial_1_757_0" cx="0.000000" cy="0.000000" r="1.000000" gradientUnits="userSpaceOnUse" gradientTransform="translate(164.842 62.6492) rotate(95.6823) scale(40.7529 55.0084)">
			<stop stop-color="#AF4190"/>
			<stop offset="0.472281" stop-color="#610547"/>
			<stop offset="1.000000" stop-color="#220119"/>
		</radialGradient>
		<linearGradient id="paint_linear_1_757_1" x1="129.131424" y1="62.649162" x2="189.254227" y2="106.833389" gradientUnits="userSpaceOnUse">
			<stop stop-color="#F2E586"/>
			<stop offset="0.546840" stop-color="#B37D16"/>
			<stop offset="0.990875" stop-color="#F7F395"/>
		</linearGradient>
		<linearGradient id="paint_linear_1_758_0" x1="128.526123" y1="104.815735" x2="128.526123" y2="69.912231" gradientUnits="userSpaceOnUse">
			<stop offset="0.276042" stop-color="#B37D16"/>
			<stop offset="0.670000" stop-color="#F8F497"/>
			<stop offset="1.000000" stop-color="#DDB149"/>
		</linearGradient>
		<linearGradient id="paint_linear_1_758_1" x1="158.388550" y1="69.912231" x2="158.388550" y2="103.806961" gradientUnits="userSpaceOnUse">
			<stop stop-color="#DDB149"/>
			<stop offset="1.000000" stop-color="#F8F497"/>
		</linearGradient>
	</defs>
	<rect id="player 2" width="40.000000" height="40.000000" transform="translate(0.000000 60.000000)" fill="#FFFFFF" fill-opacity="0"/>
	<g clip-path="url(#clip1_622)">
		<path id="Vector" d="M20 60C31.0464 60 40 68.9536 40 80C40 91.0464 31.0464 100 20 100C8.9536 100 0 91.0464 0 80C0 68.9536 8.9536 60 20 60Z" fill="#F8D05F" fill-opacity="1.000000" fill-rule="evenodd"/>
		<path id="Vector" d="M20 71.2C23.0928 71.2 25.6 73.7072 25.6 76.7999C25.6 79.8927 23.0928 82.3999 20 82.3999C16.9072 82.3999 14.4 79.8927 14.4 76.7999C14.4 73.7072 16.9072 71.2 20 71.2Z" fill="#1F0D15" fill-opacity="1.000000" fill-rule="evenodd"/>
		<path id="Vector" d="M20 85.6C27.5104 85.6 33.6 91.2 33.6 91.2C33.6 91.2 27.5104 96.7999 20 96.7999C12.4896 96.7999 6.40002 91.2 6.40002 91.2C6.40002 91.2 12.4896 85.6 20 85.6Z" fill="#1F0D15" fill-opacity="1.000000" fill-rule="evenodd"/>
	</g>
	<rect id="player 4" width="40.000000" height="40.000000" transform="translate(45.000000 60.000000)" fill="#FFFFFF" fill-opacity="0"/>
	<g clip-path="url(#clip1_626)">
		<path id="Vector" d="M65 60C76.0464 60 85 68.9536 85 80C85 91.0464 76.0464 100 65 100C53.9536 100 45 91.0464 45 80C45 68.9536 53.9536 60 65 60Z" fill="#F8D05F" fill-opacity="1.000000" fill-rule="evenodd"/>
		<path id="Vector" d="M65 71.2C68.0928 71.2 70.6 73.7072 70.6 76.7999C70.6 79.8927 68.0928 82.3999 65 82.3999C61.9072 82.3999 59.4 79.8927 59.4 76.7999C59.4 73.7072 61.9072 71.2 65 71.2Z" fill="#1F0D15" fill-opacity="1.000000" fill-rule="evenodd"/>
		<path id="Vector" d="M65 85.6C72.5104 85.6 78.6 91.2 78.6 91.2C78.6 91.2 72.5104 96.7999 65 96.7999C57.4896 96.7999 51.4 91.2 51.4 91.2C51.4 91.2 57.4896 85.6 65 85.6Z" fill="#1F0D15" fill-opacity="1.000000" fill-rule="evenodd"/>
	</g>
	<rect id="player 6" width="40.000000" height="40.000000" transform="translate(238.000000 60.000000)" fill="#FFFFFF" fill-opacity="0"/>
	<g clip-path="url(#clip1_634)">
		<path id="Vector" d="M258 60C269.046 60 278 68.9536 278 80C278 91.0464 269.046 100 258 100C246.954 100 238 91.0464 238 80C238 68.9536 246.954 60 258 60Z" fill="#F8D05F" fill-opacity="1.000000" fill-rule="evenodd"/>
		<path id="Vector" d="M258 71.2C261.093 71.2 263.6 73.7072 263.6 76.7999C263.6 79.8927 261.093 82.3999 258 82.3999C254.907 82.3999 252.4 79.8927 252.4 76.7999C252.4 73.7072 254.907 71.2 258 71.2Z" fill="#1F0D15" fill-opacity="1.000000" fill-rule="evenodd"/>
		<path id="Vector" d="M258 85.6C265.51 85.6 271.6 91.2 271.6 91.2C271.6 91.2 265.51 96.7999 258 96.7999C250.49 96.7999 244.4 91.2 244.4 91.2C244.4 91.2 250.49 85.6 258 85.6Z" fill="#1F0D15" fill-opacity="1.000000" fill-rule="evenodd"/>
	</g>
	<rect id="player 7" width="40.000000" height="40.000000" transform="translate(283.000000 60.000000)" fill="#FFFFFF" fill-opacity="0"/>
	<g clip-path="url(#clip1_638)">
		<path id="Vector" d="M303 60C314.046 60 323 68.9536 323 80C323 91.0464 314.046 100 303 100C291.954 100 283 91.0464 283 80C283 68.9536 291.954 60 303 60Z" fill="#F8D05F" fill-opacity="1.000000" fill-rule="evenodd"/>
		<path id="Vector" d="M303 71.2C306.093 71.2 308.6 73.7072 308.6 76.7999C308.6 79.8927 306.093 82.3999 303 82.3999C299.907 82.3999 297.4 79.8927 297.4 76.7999C297.4 73.7072 299.907 71.2 303 71.2Z" fill="#1F0D15" fill-opacity="1.000000" fill-rule="evenodd"/>
		<path id="Vector" d="M303 85.6C310.51 85.6 316.6 91.2 316.6 91.2C316.6 91.2 310.51 96.7999 303 96.7999C295.49 96.7999 289.4 91.2 289.4 91.2C289.4 91.2 295.49 85.6 303 85.6Z" fill="#1F0D15" fill-opacity="1.000000" fill-rule="evenodd"/>
	</g>
	<g filter="url(#filter_1_756_dd)">
		<path id="Vector 1" d="M124.573 109.094L114 57L206.807 57L197.017 109.094L159.229 126L124.573 109.094Z" fill="url(#paint_radial_1_756_0)" fill-opacity="1.000000" fill-rule="nonzero"/>
	</g>
	<path id="Vector 1" d="M111.553 55L122.809 110.459L123.696 110.892L159.192 128.207L198.789 110.492L209.218 55L111.553 55ZM124.573 109.094L114 57L206.807 57L206.431 59L197.017 109.094L159.229 126L124.573 109.094Z" fill="url(#paint_linear_1_756_1)" fill-opacity="1.000000" fill-rule="evenodd"/>
	<path id="Vector 2" d="M130.539 106.213L121.667 62.6492L199.544 62.6492L191.329 106.213L159.619 120.351L130.539 106.213Z" fill="url(#paint_radial_1_757_0)" fill-opacity="1.000000" fill-rule="nonzero"/>
	<path id="Vector 2" d="M119.218 60.6492L128.776 107.58L129.664 108.012L159.583 122.557L193.1 107.613L201.956 60.6492L119.218 60.6492ZM130.539 106.213L121.667 62.6492L199.544 62.6492L199.167 64.6492L191.329 106.213L159.619 120.351L130.539 106.213Z" fill="url(#paint_linear_1_757_1)" fill-opacity="1.000000" fill-rule="evenodd"/>
	<g filter="url(#filter_1_758_dd)">
		<path id="Vector" d="M176.132 81.2433C177.155 81.5894 178.2 81.9347 179.265 82.2808C180.33 82.6268 181.278 82.959 182.108 83.2773C184.115 84.052 185.64 85.1212 186.684 86.4835C187.729 87.8458 188.251 89.5371 188.251 91.5573C188.251 92.8298 187.953 94.0615 187.358 95.2516C186.763 96.4409 185.961 97.4302 184.951 98.2186C183.844 99.0903 182.565 99.7614 181.112 100.231C179.659 100.702 177.965 100.938 176.028 100.938C174.229 100.938 172.552 100.713 170.996 100.264C169.439 99.8152 168.121 99.2863 167.042 98.6782L165.61 100.129L163.847 100.129L163.577 89.4971L165.361 89.4971C165.762 90.5084 166.274 91.5745 166.897 92.6959C167.52 93.8175 168.239 94.8214 169.055 95.7079C169.899 96.636 170.843 97.3901 171.887 97.9722C172.932 98.5533 174.153 98.8439 175.551 98.8439C177.432 98.8439 178.874 98.3851 179.878 97.4652C180.88 96.5453 181.382 95.3871 181.382 93.9905C181.382 92.8429 180.956 91.8781 180.106 91.0969C179.255 90.3158 177.937 89.6407 176.152 89.0719C174.99 88.6971 173.922 88.3503 172.946 88.0311C171.971 87.712 171.054 87.3855 170.196 87.0525C168.218 86.2639 166.748 85.1367 165.787 83.6699C164.825 82.204 164.344 80.5649 164.344 78.7521C164.344 77.6036 164.594 76.501 165.091 75.4423C165.589 74.3844 166.316 73.4326 167.27 72.5895C168.183 71.801 169.352 71.1578 170.777 70.6591C172.202 70.1611 173.752 69.9122 175.426 69.9122C177.059 69.9122 178.587 70.14 180.012 70.5962C181.437 71.0525 182.557 71.5079 183.374 71.9642L184.64 70.7203L186.445 70.7203L186.611 80.7511L184.827 80.7511C184.412 79.6711 183.924 78.5668 183.363 77.438C182.804 76.3091 182.212 75.3712 181.59 74.6228C180.911 73.8196 180.13 73.1797 179.244 72.7013C178.359 72.2239 177.321 71.9846 176.132 71.9846C174.638 71.9846 173.417 72.4075 172.469 73.2515C171.521 74.0955 171.047 75.1403 171.047 76.3859C171.047 77.562 171.459 78.5236 172.282 79.2712C173.105 80.0189 174.388 80.676 176.132 81.2433ZM160.505 73.2074C159.91 73.5535 159.45 73.9224 159.125 74.3167C158.8 74.7101 158.478 75.2529 158.161 75.9435C157.731 76.8969 157.129 78.2885 156.355 80.1193C155.579 81.9502 154.694 84.0332 153.699 86.3677C152.813 88.4678 151.855 90.7688 150.824 93.2689C149.794 95.7699 148.808 98.1672 147.867 100.461L143.696 100.461C141.759 95.7218 139.787 90.9067 137.781 86.0159C135.775 81.1241 134.364 77.7253 133.548 75.8186C133.23 75.1281 132.922 74.6064 132.624 74.2538C132.327 73.902 131.853 73.5396 131.203 73.1658C130.732 72.9038 130.318 72.7209 129.958 72.6173C129.598 72.5135 129.121 72.4197 128.526 72.3373L128.526 70.7203L144.484 70.7203L144.484 72.2957C142.991 72.4752 141.978 72.6654 141.446 72.8654C140.913 73.0662 140.648 73.3184 140.648 73.6221C140.648 73.7747 140.671 73.9363 140.721 74.1094C140.769 74.2823 140.842 74.5134 140.939 74.8031C141.381 76.0177 142.183 78.002 143.345 80.756C144.506 83.5092 146.228 87.7087 148.51 93.3539C149.907 89.9175 151.069 87.0125 151.995 84.6388C152.922 82.2653 153.738 80.1675 154.444 78.3456C154.79 77.4624 155.077 76.6372 155.305 75.8707C155.534 75.1044 155.647 74.5272 155.647 74.1404C155.647 73.698 155.329 73.329 154.693 73.0311C154.057 72.7347 152.881 72.5168 151.167 72.3789L151.167 70.7203L163.1 70.7203L163.1 72.3789C162.643 72.4197 162.207 72.5029 161.792 72.6271C161.377 72.752 160.948 72.9454 160.505 73.2074Z" fill="url(#paint_linear_1_758_0)" fill-opacity="1.000000" fill-rule="nonzero"/>
	</g>
	<path id="Vector" d="M167.042 98.6782C168.121 99.2863 169.439 99.8152 170.996 100.264C172.552 100.713 174.229 100.938 176.028 100.938C177.965 100.938 179.659 100.702 181.112 100.231C182.565 99.7614 183.844 99.0903 184.951 98.2186C185.961 97.4302 186.763 96.4409 187.358 95.2516C187.953 94.0615 188.251 92.8298 188.251 91.5573C188.251 89.5371 187.729 87.8458 186.684 86.4835C185.64 85.1212 184.115 84.052 182.108 83.2773C181.278 82.959 180.33 82.6268 179.265 82.2808C178.2 81.9347 177.155 81.5894 176.132 81.2433C174.388 80.676 173.105 80.0189 172.282 79.2712C171.459 78.5236 171.047 77.562 171.047 76.3859C171.047 75.1403 171.521 74.0955 172.469 73.2515C173.417 72.4075 174.638 71.9846 176.132 71.9846C177.321 71.9846 178.359 72.2239 179.244 72.7013C180.13 73.1797 180.911 73.8196 181.59 74.6228C182.212 75.3712 182.804 76.3091 183.363 77.438C183.924 78.5668 184.412 79.6711 184.827 80.7511L186.611 80.7511L186.595 79.7511L186.445 70.7206L186.445 70.7203L184.64 70.7203L183.374 71.9642C182.557 71.5079 181.437 71.0525 180.012 70.5962C178.587 70.14 177.059 69.9122 175.426 69.9122C173.752 69.9122 172.202 70.1611 170.777 70.6591C169.352 71.1578 168.183 71.801 167.27 72.5895C166.316 73.4326 165.589 74.3844 165.091 75.4423C164.594 76.501 164.344 77.6036 164.344 78.7521C164.344 80.5649 164.825 82.204 165.787 83.6699C166.748 85.1367 168.218 86.2639 170.196 87.0525C171.054 87.3855 171.971 87.712 172.946 88.0311C173.922 88.3503 174.99 88.6971 176.152 89.0719C177.937 89.6407 179.255 90.3158 180.106 91.0969C180.956 91.8781 181.382 92.8429 181.382 93.9905C181.382 95.3871 180.88 96.5453 179.878 97.4652C178.874 98.3851 177.432 98.8439 175.551 98.8439Q173.454 98.8439 171.887 97.9722C170.843 97.3901 169.899 96.636 169.055 95.7079C168.239 94.8214 167.52 93.8175 166.897 92.6959C166.274 91.5745 165.762 90.5084 165.361 89.4971L163.577 89.4971L163.602 90.4971L163.847 100.129L165.61 100.129L167.042 98.6782ZM165.192 99.1294L166.867 97.4316L167.533 97.807Q169.052 98.6628 171.273 99.3033Q173.471 99.9375 176.028 99.9375Q178.772 99.9375 180.805 99.28Q182.812 98.6304 184.336 97.4305Q184.716 97.1333 185.053 96.7925Q185.898 95.9362 186.464 94.8044Q187.043 93.6454 187.196 92.4326Q187.251 91.9984 187.251 91.5573Q187.251 89.0902 186.108 87.3937Q186.004 87.2397 185.891 87.092Q184.494 85.2704 181.75 84.2109Q180.534 83.7446 178.956 83.2318L178.951 83.2301L175.822 82.1942Q173.003 81.2766 171.61 80.0115Q170.933 79.3969 170.55 78.6349Q170.047 77.6368 170.047 76.3859Q170.047 75.281 170.447 74.3472Q170.885 73.3231 171.804 72.5045Q172.211 72.1418 172.671 71.8656Q174.136 70.9846 176.132 70.9846Q178.168 70.9846 179.719 71.8214Q180.012 71.9795 180.291 72.1586Q181.439 72.894 182.359 73.9836Q183.37 75.2001 184.259 76.9932Q184.956 78.3955 185.507 79.7511L185.595 79.7511L185.462 71.7203L185.049 71.7203L183.54 73.2028L182.886 72.8372Q181.752 72.2036 179.708 71.5486Q177.719 70.9122 175.426 70.9122Q173.084 70.9122 171.108 71.603Q169.149 72.2883 167.932 73.339Q166.656 74.4667 165.996 75.8678Q165.592 76.7279 165.438 77.6309Q165.344 78.1835 165.344 78.7521Q165.344 80.2394 165.827 81.5486Q166.13 82.3704 166.623 83.1218Q167.892 85.0577 170.558 86.1204Q171.822 86.611 173.255 87.08L176.456 88.119Q179.343 89.0392 180.782 90.3604Q181.595 91.1072 181.995 92.0326Q182.382 92.928 182.382 93.9905Q182.382 95.339 181.864 96.4451Q181.409 97.4175 180.553 98.2024Q180.496 98.2546 180.438 98.3052Q178.66 99.8439 175.551 99.8439Q173.195 99.8439 171.401 98.8457Q171.167 98.7153 170.939 98.5747Q169.502 97.6862 168.32 96.3854Q167.015 94.9691 166.023 93.1814Q165.249 91.7882 164.693 90.4971L164.603 90.4971L164.822 99.1294L165.192 99.1294ZM133.548 75.8186C133.23 75.1281 132.922 74.6064 132.624 74.2538C132.327 73.902 131.853 73.5396 131.203 73.1658C130.732 72.9038 130.318 72.7209 129.958 72.6173C129.598 72.5135 129.121 72.4197 128.526 72.3373L128.526 70.7203L144.484 70.7203L144.484 72.2957C142.991 72.4752 141.978 72.6654 141.446 72.8654C140.913 73.0662 140.648 73.3184 140.648 73.6221C140.648 73.7747 140.671 73.9363 140.721 74.1094C140.769 74.2823 140.842 74.5134 140.939 74.8031C141.381 76.0177 142.183 78.002 143.345 80.756C144.413 83.287 145.954 87.0402 147.969 92.0151C148.146 92.4519 148.326 92.8982 148.51 93.3539C148.694 92.9031 148.873 92.4614 149.048 92.0289C150.208 89.1644 151.191 86.701 151.995 84.6388C152.922 82.2653 153.738 80.1675 154.444 78.3456C154.79 77.4624 155.077 76.6372 155.305 75.8707C155.534 75.1044 155.647 74.5272 155.647 74.1404C155.647 73.698 155.329 73.329 154.693 73.0311C154.057 72.7347 152.881 72.5168 151.167 72.3789L151.167 70.7203L163.1 70.7203L163.1 71.7203L163.1 72.3789C162.643 72.4197 162.207 72.5029 161.792 72.6271C161.377 72.752 160.948 72.9454 160.505 73.2074C159.91 73.5535 159.45 73.9224 159.125 74.3167C158.8 74.7101 158.478 75.2529 158.161 75.9435C157.731 76.8969 157.129 78.2885 156.355 80.1193C155.579 81.9502 154.694 84.0332 153.699 86.3677C152.813 88.4678 151.855 90.7688 150.824 93.2689C149.794 95.7699 148.808 98.1672 147.867 100.461L143.696 100.461Q140.79 93.3522 137.781 86.0159C135.775 81.1241 134.364 77.7253 133.548 75.8186ZM144.367 99.4608L138.707 85.637L134.464 75.4176L134.456 75.4003Q133.923 74.2426 133.388 73.609Q132.828 72.9463 131.701 72.2987Q131.009 71.9132 130.439 71.7203L141.808 71.7203Q141.38 71.8219 141.094 71.9293Q140.055 72.3209 139.762 73.0237Q139.648 73.299 139.648 73.6221Q139.648 73.9916 139.758 74.382Q139.836 74.66 139.991 75.1213L139.995 75.1333L139.999 75.1453Q140.674 76.9977 142.424 81.1448L148.522 96.0181L152.924 85.0101L155.376 78.7083Q155.909 77.3475 156.263 76.156Q156.647 74.87 156.647 74.1404Q156.647 73.7744 156.526 73.4546Q156.216 72.6401 155.118 72.1256Q154.618 71.8931 153.797 71.7203L161.344 71.7203Q160.68 71.9418 159.996 72.347Q158.954 72.9529 158.354 73.6794L158.354 73.6802Q157.785 74.3687 157.252 75.5253Q156.584 77.0096 155.434 79.73L152.778 85.9764L149.901 92.8844L147.197 99.4608L144.367 99.4608Z" fill="url(#paint_linear_1_758_1)" fill-opacity="1.000000" fill-rule="evenodd"/>
	<rect id="poker 1" width="38.000000" height="38.000000" transform="translate(141.000000 0.000000)" fill="#FFFFFF" fill-opacity="0"/>
	<g clip-path="url(#clip1_759)">
		<path id="Vector" d="M160 0C156.242 0 152.569 1.11438 149.444 3.20203C146.32 5.28979 143.884 8.2572 142.446 11.729C141.008 15.2008 140.632 19.0211 141.365 22.7067C142.098 26.3923 143.908 29.7778 146.565 32.4351C149.222 35.0923 152.608 36.9019 156.293 37.6349C159.979 38.368 163.799 37.9918 167.271 36.5537C170.743 35.1156 173.71 32.6804 175.798 29.5558C177.886 26.4313 179 22.7578 179 19C178.995 13.9625 176.991 9.13306 173.429 5.57104C169.867 2.00903 165.037 0.00549316 160 0ZM175.833 19C175.831 20.0099 175.733 21.0172 175.539 22.0083L172.48 21.09C172.729 19.7078 172.729 18.2922 172.48 16.91L175.539 15.9917C175.733 16.9828 175.831 17.9901 175.833 19ZM174.63 12.958L171.574 13.8748C170.294 11.0032 167.997 8.7063 165.125 7.42578L166.042 4.37C169.927 5.98584 173.014 9.07324 174.63 12.958ZM160 28.5C158.121 28.5 156.284 27.9429 154.722 26.8989C153.16 25.8551 151.942 24.3713 151.223 22.6355C150.504 20.8997 150.316 18.9895 150.683 17.1466C151.049 15.3038 151.954 13.6111 153.283 12.2825C154.611 10.9539 156.304 10.0491 158.147 9.6825C159.989 9.31604 161.9 9.50415 163.635 10.2231C165.371 10.9421 166.855 12.1598 167.899 13.722C168.943 15.2843 169.5 17.1211 169.5 19C169.497 21.5188 168.496 23.9337 166.715 25.7147C164.934 27.4958 162.519 28.4974 160 28.5ZM163.008 3.46118L162.09 6.52014C160.708 6.271 159.292 6.271 157.91 6.52014L156.992 3.46118C158.978 3.0686 161.022 3.0686 163.008 3.46118ZM153.958 4.37L154.875 7.42578C152.003 8.7063 149.706 11.0032 148.426 13.8748L145.37 12.958C146.986 9.07324 150.073 5.98584 153.958 4.37ZM144.167 19C144.169 17.9901 144.267 16.9828 144.461 15.9917L147.52 16.91C147.271 18.2922 147.271 19.7078 147.52 21.09L144.461 22.0083C144.267 21.0172 144.169 20.0099 144.167 19ZM145.37 25.042L148.426 24.1252C149.706 26.9968 152.003 29.2937 154.875 30.5742L153.958 33.63C150.073 32.0142 146.986 28.9268 145.37 25.042ZM156.992 34.542L157.91 31.483C159.292 31.7322 160.708 31.7322 162.09 31.483L163.008 34.542C161.022 34.9346 158.978 34.9346 156.992 34.542ZM166.042 33.6316L165.125 30.5774C167.997 29.2969 170.294 27 171.574 24.1284L174.63 25.0452C173.014 28.9286 169.926 32.0144 166.042 33.6284L166.042 33.6316ZM164.166 17.2457C164.545 17.752 164.75 18.3674 164.75 19C164.75 19.6326 164.545 20.248 164.166 20.7544L161.169 24.749C161.033 24.9307 160.856 25.078 160.653 25.1796C160.451 25.281 160.227 25.3339 160 25.3339C159.773 25.3339 159.549 25.281 159.347 25.1796C159.144 25.078 158.967 24.9307 158.832 24.749L155.834 20.7544C155.455 20.248 155.25 19.6326 155.25 19C155.25 18.3674 155.455 17.752 155.834 17.2457L158.832 13.251C158.967 13.0693 159.144 12.922 159.347 12.8204C159.549 12.719 159.773 12.6661 160 12.6661C160.227 12.6661 160.451 12.719 160.653 12.8204C160.856 12.922 161.033 13.0693 161.169 13.251L164.166 17.2457Z" fill="#FFD762" fill-opacity="1.000000" fill-rule="nonzero"/>
	</g>
</svg>
