<svg width="40" height="40" viewBox="0 0 40 40" fill="none" xmlns="http://www.w3.org/2000/svg">
<path d="M20 20.8333C21.841 20.8333 23.3333 19.341 23.3333 17.5C23.3333 15.659 21.841 14.1667 20 14.1667C18.159 14.1667 16.6667 15.659 16.6667 17.5C16.6667 19.341 18.159 20.8333 20 20.8333ZM20 20.8333V25.8333M33.3333 20C33.3333 27.4352 24.2333 32.8228 21.069 34.4717C20.7268 34.65 20.5557 34.7392 20.3183 34.7853C20.1333 34.8213 19.8667 34.8213 19.6817 34.7853C19.4443 34.7392 19.2732 34.65 18.931 34.4717C15.7666 32.8228 6.66667 27.4352 6.66667 20V13.696C6.66667 12.3635 6.66667 11.6972 6.8846 11.1245C7.07712 10.6186 7.38997 10.1671 7.7961 9.8092C8.25583 9.40405 8.87967 9.17012 10.1273 8.70224L19.0637 5.35112C19.4102 5.22119 19.5833 5.15622 19.7617 5.13045C19.9197 5.10762 20.0803 5.10762 20.2383 5.13045C20.4167 5.15622 20.5898 5.22119 20.9363 5.35112L29.8727 8.70224C31.1203 9.17012 31.7442 9.40405 32.2038 9.8092C32.61 10.1671 32.9228 10.6186 33.1153 11.1245C33.3333 11.6972 33.3333 12.3635 33.3333 13.696V20Z" stroke="#FFD762" stroke-width="2" stroke-linecap="round" stroke-linejoin="round"/>
</svg>
