<svg width="110" height="28" viewBox="0 0 110 28" fill="none" xmlns="http://www.w3.org/2000/svg">
<rect width="110" height="28" rx="5" fill="#9519E3"/>
<path d="M19.0552 12.232H23.5772V13.716H19.0552V18H17.4592V7.794H23.9692V9.278H19.0552V12.232ZM26.3167 9.81C26.0461 9.81 25.8081 9.70733 25.6027 9.502C25.3974 9.29667 25.2947 9.05867 25.2947 8.788C25.2947 8.508 25.3974 8.26533 25.6027 8.06C25.7987 7.85467 26.0367 7.752 26.3167 7.752C26.6061 7.752 26.8487 7.85467 27.0447 8.06C27.2407 8.256 27.3387 8.49867 27.3387 8.788C27.3387 9.068 27.2407 9.306 27.0447 9.502C26.8394 9.70733 26.5967 9.81 26.3167 9.81ZM25.5467 18V11.042H27.1007V18H25.5467ZM33.8738 18V14.108C33.8738 13.5667 33.7431 13.142 33.4818 12.834C33.2205 12.526 32.8378 12.372 32.3338 12.372C31.8391 12.372 31.4471 12.5307 31.1578 12.848C30.8685 13.1653 30.7238 13.59 30.7238 14.122V18H29.1698V11.042H30.6818V11.98C30.8871 11.7093 31.1345 11.4853 31.4238 11.308C31.7131 11.14 31.9605 11.028 32.1658 10.972C32.3991 10.9253 32.6138 10.902 32.8098 10.902C33.6685 10.902 34.3171 11.1633 34.7558 11.686C35.1945 12.19 35.4138 12.8667 35.4138 13.716V18H33.8738ZM38.1839 9.81C37.9133 9.81 37.6753 9.70733 37.4699 9.502C37.2646 9.29667 37.1619 9.05867 37.1619 8.788C37.1619 8.508 37.2646 8.26533 37.4699 8.06C37.6659 7.85467 37.9039 7.752 38.1839 7.752C38.4733 7.752 38.7159 7.85467 38.9119 8.06C39.1079 8.256 39.2059 8.49867 39.2059 8.788C39.2059 9.068 39.1079 9.306 38.9119 9.502C38.7066 9.70733 38.4639 9.81 38.1839 9.81ZM37.4139 18V11.042H38.9679V18H37.4139ZM43.305 18.126C42.269 18.1167 41.5083 17.79 41.023 17.146C40.743 16.782 40.589 16.432 40.561 16.096L41.891 15.746C41.9656 16.082 42.1243 16.3527 42.367 16.558C42.6096 16.754 42.9176 16.852 43.291 16.852C43.599 16.852 43.837 16.782 44.005 16.642C44.1823 16.4927 44.271 16.292 44.271 16.04C44.271 15.6573 43.9956 15.4007 43.445 15.27L42.563 15.06C41.9656 14.92 41.5083 14.6773 41.191 14.332C40.8736 13.9773 40.715 13.5573 40.715 13.072C40.715 12.4747 40.953 11.9613 41.429 11.532C41.905 11.1027 42.4883 10.888 43.179 10.888C44.159 10.8973 44.873 11.2053 45.321 11.812C45.5543 12.12 45.6943 12.4327 45.741 12.75L44.439 13.114C44.3736 12.8247 44.2336 12.5913 44.019 12.414C43.8136 12.2367 43.5336 12.148 43.179 12.148C42.9176 12.148 42.6936 12.2227 42.507 12.372C42.3203 12.5027 42.227 12.6893 42.227 12.932C42.227 13.324 42.4603 13.5667 42.927 13.66L43.879 13.856C44.5043 13.996 44.9896 14.2527 45.335 14.626C45.6803 15.018 45.853 15.4613 45.853 15.956C45.853 16.544 45.629 17.0527 45.181 17.482C44.7423 17.9113 44.117 18.126 43.305 18.126ZM52.1941 18V14.108C52.1941 13.5667 52.0634 13.142 51.8021 12.834C51.5408 12.526 51.1581 12.372 50.6541 12.372C50.1594 12.372 49.7674 12.5307 49.4781 12.848C49.1888 13.1653 49.0441 13.59 49.0441 14.122V18H47.4901V7.388H49.0441V11.924C49.2494 11.6627 49.4874 11.448 49.7581 11.28C50.0661 11.112 50.3134 11.0093 50.5001 10.972C50.7334 10.9253 50.9434 10.902 51.1301 10.902C51.9888 10.902 52.6374 11.1633 53.0761 11.686C53.5148 12.19 53.7341 12.8667 53.7341 13.716V18H52.1941ZM62.1462 14.976H56.8542C56.8636 15.48 57.0782 15.914 57.4982 16.278C57.9182 16.6327 58.3849 16.8053 58.8982 16.796C59.8689 16.796 60.4849 16.404 60.7462 15.62L62.0482 16.026C61.9269 16.446 61.7029 16.8193 61.3762 17.146C61.0589 17.4727 60.6856 17.72 60.2562 17.888C59.8082 18.0467 59.3602 18.126 58.9122 18.126C57.9042 18.1447 57.0409 17.7993 56.3222 17.09C55.6036 16.3807 55.2536 15.522 55.2722 14.514C55.2722 13.8607 55.4216 13.2587 55.7202 12.708C56.0282 12.1387 56.4482 11.7 56.9802 11.392C57.5216 11.0653 58.1189 10.902 58.7722 10.902C59.8362 10.902 60.6669 11.2333 61.2642 11.896C61.8709 12.5587 62.1742 13.4267 62.1742 14.5C62.1742 14.6307 62.1649 14.7893 62.1462 14.976ZM58.7862 12.232C58.2916 12.232 57.8809 12.3767 57.5542 12.666C57.2089 12.946 57.0036 13.324 56.9382 13.8H60.5922C60.5642 13.3333 60.3822 12.9507 60.0462 12.652C59.6916 12.372 59.2716 12.232 58.7862 12.232ZM63.2836 14.514C63.2836 13.5993 63.587 12.778 64.1936 12.05C64.847 11.2847 65.701 10.902 66.7556 10.902C67.129 10.902 67.535 11 67.9736 11.196C68.431 11.3827 68.7763 11.6627 69.0096 12.036V7.388H70.5636V18H69.0376V16.908C68.8696 17.188 68.6316 17.426 68.3236 17.622C68.0063 17.7993 67.7123 17.9253 67.4416 18C67.1616 18.0747 66.919 18.112 66.7136 18.112C66.0696 18.112 65.4816 17.9393 64.9496 17.594C64.427 17.2673 64.0163 16.824 63.7176 16.264C63.4283 15.704 63.2836 15.1207 63.2836 14.514ZM69.0236 14.514C69.0236 13.8887 68.8323 13.366 68.4496 12.946C68.0576 12.526 67.5536 12.316 66.9376 12.316C66.331 12.316 65.8316 12.526 65.4396 12.946C65.0476 13.3847 64.8516 13.9073 64.8516 14.514C64.8516 15.1207 65.0476 15.6387 65.4396 16.068C65.8316 16.488 66.331 16.698 66.9376 16.698C67.5536 16.698 68.0576 16.488 68.4496 16.068C68.8323 15.648 69.0236 15.13 69.0236 14.514ZM78.164 9.516L75.882 10.888L75.14 9.67L78.248 7.794H79.774V18H78.164V9.516ZM84.3616 18.126C83.3256 18.1167 82.565 17.79 82.0796 17.146C81.7996 16.782 81.6456 16.432 81.6176 16.096L82.9476 15.746C83.0223 16.082 83.181 16.3527 83.4236 16.558C83.6663 16.754 83.9743 16.852 84.3476 16.852C84.6556 16.852 84.8936 16.782 85.0616 16.642C85.239 16.4927 85.3276 16.292 85.3276 16.04C85.3276 15.6573 85.0523 15.4007 84.5016 15.27L83.6196 15.06C83.0223 14.92 82.565 14.6773 82.2476 14.332C81.9303 13.9773 81.7716 13.5573 81.7716 13.072C81.7716 12.4747 82.0096 11.9613 82.4856 11.532C82.9616 11.1027 83.545 10.888 84.2356 10.888C85.2156 10.8973 85.9296 11.2053 86.3776 11.812C86.611 12.12 86.751 12.4327 86.7976 12.75L85.4956 13.114C85.4303 12.8247 85.2903 12.5913 85.0756 12.414C84.8703 12.2367 84.5903 12.148 84.2356 12.148C83.9743 12.148 83.7503 12.2227 83.5636 12.372C83.377 12.5027 83.2836 12.6893 83.2836 12.932C83.2836 13.324 83.517 13.5667 83.9836 13.66L84.9356 13.856C85.561 13.996 86.0463 14.2527 86.3916 14.626C86.737 15.018 86.9096 15.4613 86.9096 15.956C86.9096 16.544 86.6856 17.0527 86.2376 17.482C85.799 17.9113 85.1736 18.126 84.3616 18.126ZM92.262 11.042V12.442H90.498V15.76C90.498 16.068 90.582 16.2967 90.75 16.446C90.918 16.586 91.1887 16.656 91.562 16.656C91.7487 16.656 91.9587 16.6373 92.192 16.6V17.93C91.8467 18.0233 91.478 18.07 91.086 18.07C90.3673 18.07 89.8307 17.902 89.476 17.566C89.1213 17.23 88.944 16.656 88.944 15.844V12.442H87.6V11.042H88.944V8.886H90.498V11.042H92.262Z" fill="white"/>
</svg>
