<svg width="55" height="28" viewBox="0 0 55 28" fill="none" xmlns="http://www.w3.org/2000/svg">
<rect width="55" height="28" rx="5" fill="#2151A1"/>
<path d="M10.0995 14.99C9.82881 14.346 9.69348 13.6553 9.69348 12.918C9.69348 12.1807 9.83348 11.49 10.1135 10.846C10.3748 10.1927 10.7481 9.63267 11.2335 9.166C11.6908 8.69933 12.2508 8.33067 12.9135 8.06C13.5388 7.78 14.2155 7.64 14.9435 7.64C15.8861 7.64 16.7635 7.86867 17.5755 8.326C18.3781 8.774 19.0081 9.404 19.4655 10.216C19.9321 11.0187 20.1655 11.9053 20.1655 12.876C20.1655 13.604 20.0255 14.2993 19.7455 14.962C19.4655 15.6247 19.0921 16.18 18.6255 16.628C18.1495 17.0947 17.5895 17.4587 16.9455 17.72C16.2735 17.9907 15.5921 18.126 14.9015 18.126C14.2015 18.126 13.5248 17.9907 12.8715 17.72C12.2368 17.468 11.6815 17.1133 11.2055 16.656C10.7481 16.1987 10.3795 15.6433 10.0995 14.99ZM11.3735 12.89C11.3548 13.9073 11.6955 14.7893 12.3955 15.536C13.1048 16.2827 13.9495 16.6467 14.9295 16.628C15.9095 16.628 16.7541 16.264 17.4635 15.536C18.1448 14.808 18.4855 13.926 18.4855 12.89C18.4855 12.2087 18.3315 11.5787 18.0235 11C17.7061 10.4307 17.2721 9.978 16.7215 9.642C16.1708 9.306 15.5735 9.138 14.9295 9.138C13.9495 9.11933 13.1048 9.48333 12.3955 10.23C11.6955 10.9767 11.3548 11.8633 11.3735 12.89ZM29.0959 14.5C29.0959 15.1347 28.9559 15.7227 28.6759 16.264C28.3773 16.824 27.9666 17.2673 27.4439 17.594C26.8839 17.9393 26.2819 18.112 25.6379 18.112C25.1526 18.112 24.6393 17.958 24.0979 17.65C23.7899 17.4727 23.5519 17.2487 23.3839 16.978V21.43H21.8299V11.042H23.3419V12.12C23.6219 11.6627 24.0093 11.3407 24.5039 11.154C24.9333 10.986 25.3253 10.902 25.6799 10.902C26.7159 10.902 27.5559 11.2847 28.1999 12.05C28.7973 12.778 29.0959 13.5947 29.0959 14.5ZM23.9439 12.946C23.5519 13.3847 23.3559 13.9073 23.3559 14.514C23.3559 15.1207 23.5519 15.6387 23.9439 16.068C24.3359 16.488 24.8353 16.698 25.4419 16.698C26.0579 16.698 26.5619 16.488 26.9539 16.068C27.3366 15.648 27.5279 15.13 27.5279 14.514C27.5279 13.8887 27.3366 13.366 26.9539 12.946C26.5619 12.526 26.0579 12.316 25.4419 12.316C24.8353 12.316 24.3359 12.526 23.9439 12.946ZM37.115 14.976H31.823C31.8323 15.48 32.047 15.914 32.467 16.278C32.887 16.6327 33.3537 16.8053 33.867 16.796C34.8377 16.796 35.4537 16.404 35.715 15.62L37.017 16.026C36.8957 16.446 36.6717 16.8193 36.345 17.146C36.0277 17.4727 35.6543 17.72 35.225 17.888C34.777 18.0467 34.329 18.126 33.881 18.126C32.873 18.1447 32.0097 17.7993 31.291 17.09C30.5723 16.3807 30.2223 15.522 30.241 14.514C30.241 13.8607 30.3903 13.2587 30.689 12.708C30.997 12.1387 31.417 11.7 31.949 11.392C32.4903 11.0653 33.0877 10.902 33.741 10.902C34.805 10.902 35.6357 11.2333 36.233 11.896C36.8397 12.5587 37.143 13.4267 37.143 14.5C37.143 14.6307 37.1337 14.7893 37.115 14.976ZM33.755 12.232C33.2603 12.232 32.8497 12.3767 32.523 12.666C32.1777 12.946 31.9723 13.324 31.907 13.8H35.561C35.533 13.3333 35.351 12.9507 35.015 12.652C34.6603 12.372 34.2403 12.232 33.755 12.232ZM43.4324 18V14.108C43.4324 13.5667 43.3017 13.142 43.0404 12.834C42.779 12.526 42.3964 12.372 41.8924 12.372C41.3977 12.372 41.0057 12.5307 40.7164 12.848C40.427 13.1653 40.2824 13.59 40.2824 14.122V18H38.7284V11.042H40.2404V11.98C40.4457 11.7093 40.693 11.4853 40.9824 11.308C41.2717 11.14 41.519 11.028 41.7244 10.972C41.9577 10.9253 42.1724 10.902 42.3684 10.902C43.227 10.902 43.8757 11.1633 44.3144 11.686C44.753 12.19 44.9724 12.8667 44.9724 13.716V18H43.4324Z" fill="white"/>
</svg>
