<svg width="110" height="28" viewBox="0 0 110 28" fill="none" xmlns="http://www.w3.org/2000/svg">
<rect width="110" height="28" rx="5" fill="#9519E3"/>
<path d="M16.6353 12.232H21.1573V13.716H16.6353V18H15.0393V7.794H21.5493V9.278H16.6353V12.232ZM23.8968 9.81C23.6262 9.81 23.3882 9.70733 23.1828 9.502C22.9775 9.29667 22.8748 9.05867 22.8748 8.788C22.8748 8.508 22.9775 8.26533 23.1828 8.06C23.3788 7.85467 23.6168 7.752 23.8968 7.752C24.1862 7.752 24.4288 7.85467 24.6248 8.06C24.8208 8.256 24.9188 8.49867 24.9188 8.788C24.9188 9.068 24.8208 9.306 24.6248 9.502C24.4195 9.70733 24.1768 9.81 23.8968 9.81ZM23.1268 18V11.042H24.6808V18H23.1268ZM31.4539 18V14.108C31.4539 13.5667 31.3232 13.142 31.0619 12.834C30.8005 12.526 30.4179 12.372 29.9139 12.372C29.4192 12.372 29.0272 12.5307 28.7379 12.848C28.4485 13.1653 28.3039 13.59 28.3039 14.122V18H26.7499V11.042H28.2619V11.98C28.4672 11.7093 28.7145 11.4853 29.0039 11.308C29.2932 11.14 29.5405 11.028 29.7459 10.972C29.9792 10.9253 30.1939 10.902 30.3899 10.902C31.2485 10.902 31.8972 11.1633 32.3359 11.686C32.7745 12.19 32.9939 12.8667 32.9939 13.716V18H31.4539ZM35.764 9.81C35.4933 9.81 35.2553 9.70733 35.05 9.502C34.8447 9.29667 34.742 9.05867 34.742 8.788C34.742 8.508 34.8447 8.26533 35.05 8.06C35.246 7.85467 35.484 7.752 35.764 7.752C36.0533 7.752 36.296 7.85467 36.492 8.06C36.688 8.256 36.786 8.49867 36.786 8.788C36.786 9.068 36.688 9.306 36.492 9.502C36.2867 9.70733 36.044 9.81 35.764 9.81ZM34.994 18V11.042H36.548V18H34.994ZM40.8851 18.126C39.8491 18.1167 39.0884 17.79 38.6031 17.146C38.3231 16.782 38.1691 16.432 38.1411 16.096L39.4711 15.746C39.5457 16.082 39.7044 16.3527 39.9471 16.558C40.1897 16.754 40.4977 16.852 40.8711 16.852C41.1791 16.852 41.4171 16.782 41.5851 16.642C41.7624 16.4927 41.8511 16.292 41.8511 16.04C41.8511 15.6573 41.5757 15.4007 41.0251 15.27L40.1431 15.06C39.5457 14.92 39.0884 14.6773 38.7711 14.332C38.4537 13.9773 38.2951 13.5573 38.2951 13.072C38.2951 12.4747 38.5331 11.9613 39.0091 11.532C39.4851 11.1027 40.0684 10.888 40.7591 10.888C41.7391 10.8973 42.4531 11.2053 42.9011 11.812C43.1344 12.12 43.2744 12.4327 43.3211 12.75L42.0191 13.114C41.9537 12.8247 41.8137 12.5913 41.5991 12.414C41.3937 12.2367 41.1137 12.148 40.7591 12.148C40.4977 12.148 40.2737 12.2227 40.0871 12.372C39.9004 12.5027 39.8071 12.6893 39.8071 12.932C39.8071 13.324 40.0404 13.5667 40.5071 13.66L41.4591 13.856C42.0844 13.996 42.5697 14.2527 42.9151 14.626C43.2604 15.018 43.4331 15.4613 43.4331 15.956C43.4331 16.544 43.2091 17.0527 42.7611 17.482C42.3224 17.9113 41.6971 18.126 40.8851 18.126ZM49.7742 18V14.108C49.7742 13.5667 49.6435 13.142 49.3822 12.834C49.1208 12.526 48.7382 12.372 48.2342 12.372C47.7395 12.372 47.3475 12.5307 47.0582 12.848C46.7688 13.1653 46.6242 13.59 46.6242 14.122V18H45.0702V7.388H46.6242V11.924C46.8295 11.6627 47.0675 11.448 47.3382 11.28C47.6462 11.112 47.8935 11.0093 48.0802 10.972C48.3135 10.9253 48.5235 10.902 48.7102 10.902C49.5688 10.902 50.2175 11.1633 50.6562 11.686C51.0948 12.19 51.3142 12.8667 51.3142 13.716V18H49.7742ZM59.7263 14.976H54.4343C54.4437 15.48 54.6583 15.914 55.0783 16.278C55.4983 16.6327 55.965 16.8053 56.4783 16.796C57.449 16.796 58.065 16.404 58.3263 15.62L59.6283 16.026C59.507 16.446 59.283 16.8193 58.9563 17.146C58.639 17.4727 58.2657 17.72 57.8363 17.888C57.3883 18.0467 56.9403 18.126 56.4923 18.126C55.4843 18.1447 54.621 17.7993 53.9023 17.09C53.1837 16.3807 52.8337 15.522 52.8523 14.514C52.8523 13.8607 53.0017 13.2587 53.3003 12.708C53.6083 12.1387 54.0283 11.7 54.5603 11.392C55.1017 11.0653 55.699 10.902 56.3523 10.902C57.4163 10.902 58.247 11.2333 58.8443 11.896C59.451 12.5587 59.7543 13.4267 59.7543 14.5C59.7543 14.6307 59.745 14.7893 59.7263 14.976ZM56.3663 12.232C55.8717 12.232 55.461 12.3767 55.1343 12.666C54.789 12.946 54.5837 13.324 54.5183 13.8H58.1723C58.1443 13.3333 57.9623 12.9507 57.6263 12.652C57.2717 12.372 56.8517 12.232 56.3663 12.232ZM60.8637 14.514C60.8637 13.5993 61.167 12.778 61.7737 12.05C62.427 11.2847 63.281 10.902 64.3357 10.902C64.709 10.902 65.115 11 65.5537 11.196C66.011 11.3827 66.3564 11.6627 66.5897 12.036V7.388H68.1437V18H66.6177V16.908C66.4497 17.188 66.2117 17.426 65.9037 17.622C65.5864 17.7993 65.2924 17.9253 65.0217 18C64.7417 18.0747 64.499 18.112 64.2937 18.112C63.6497 18.112 63.0617 17.9393 62.5297 17.594C62.007 17.2673 61.5964 16.824 61.2977 16.264C61.0084 15.704 60.8637 15.1207 60.8637 14.514ZM66.6037 14.514C66.6037 13.8887 66.4124 13.366 66.0297 12.946C65.6377 12.526 65.1337 12.316 64.5177 12.316C63.911 12.316 63.4117 12.526 63.0197 12.946C62.6277 13.3847 62.4317 13.9073 62.4317 14.514C62.4317 15.1207 62.6277 15.6387 63.0197 16.068C63.4117 16.488 63.911 16.698 64.5177 16.698C65.1337 16.698 65.6377 16.488 66.0297 16.068C66.4124 15.648 66.6037 15.13 66.6037 14.514ZM77.0461 18.112C76.0941 18.112 75.2494 17.874 74.5121 17.398C74.1574 17.1647 73.8727 16.8567 73.6581 16.474C73.4434 16.082 73.3361 15.662 73.3361 15.214C73.3361 14.6727 73.5041 14.178 73.8401 13.73C74.1854 13.2633 74.6521 12.932 75.2401 12.736C74.7454 12.568 74.3394 12.2693 74.0221 11.84C73.7141 11.42 73.5601 10.958 73.5601 10.454C73.5601 10.0433 73.6581 9.656 73.8541 9.292C74.0594 8.928 74.3347 8.62933 74.6801 8.396C75.3801 7.892 76.1687 7.64 77.0461 7.64C77.6434 7.64 78.1987 7.752 78.7121 7.976C79.2441 8.2 79.6827 8.52667 80.0281 8.956C80.3641 9.39467 80.5321 9.894 80.5321 10.454C80.5321 10.93 80.3781 11.3827 80.0701 11.812C79.7807 12.232 79.3747 12.54 78.8521 12.736C79.4494 12.9227 79.9207 13.254 80.2661 13.73C80.5927 14.1687 80.7561 14.6633 80.7561 15.214C80.7561 15.7553 80.6067 16.236 80.3081 16.656C80.0094 17.076 79.6127 17.4027 79.1181 17.636C78.4927 17.9533 77.8021 18.112 77.0461 18.112ZM75.1421 10.58C75.1421 11.0093 75.3287 11.3733 75.7021 11.672C76.0754 11.9613 76.5234 12.106 77.0461 12.106C77.6061 12.106 78.0634 11.9613 78.4181 11.672C78.7634 11.392 78.9361 11.028 78.9361 10.58C78.9361 10.132 78.7494 9.76333 78.3761 9.474C78.0214 9.18467 77.5734 9.04 77.0321 9.04C76.4814 9.04 76.0287 9.18 75.6741 9.46C75.3194 9.75867 75.1421 10.132 75.1421 10.58ZM74.9321 15.06C74.9321 15.5173 75.1374 15.914 75.5481 16.25C75.9494 16.5673 76.4487 16.726 77.0461 16.726C77.6434 16.726 78.1474 16.572 78.5581 16.264C78.9594 15.9467 79.1601 15.5453 79.1601 15.06C79.1601 14.5933 78.9547 14.1967 78.5441 13.87C78.1147 13.5527 77.6107 13.394 77.0321 13.394C76.4254 13.394 75.9307 13.5527 75.5481 13.87C75.1374 14.178 74.9321 14.5747 74.9321 15.06ZM86.4378 11.042V12.442H84.6738V15.76C84.6738 16.068 84.7578 16.2967 84.9258 16.446C85.0938 16.586 85.3644 16.656 85.7378 16.656C85.9244 16.656 86.1344 16.6373 86.3678 16.6V17.93C86.0224 18.0233 85.6538 18.07 85.2618 18.07C84.5431 18.07 84.0064 17.902 83.6518 17.566C83.2971 17.23 83.1198 16.656 83.1198 15.844V12.442H81.7758V11.042H83.1198V8.886H84.6738V11.042H86.4378ZM92.7586 18V14.108C92.7586 13.5667 92.6279 13.142 92.3666 12.834C92.1052 12.526 91.7226 12.372 91.2186 12.372C90.7239 12.372 90.3319 12.5307 90.0426 12.848C89.7532 13.1653 89.6086 13.59 89.6086 14.122V18H88.0546V7.388H89.6086V11.924C89.8139 11.6627 90.0519 11.448 90.3226 11.28C90.6306 11.112 90.8779 11.0093 91.0646 10.972C91.2979 10.9253 91.5079 10.902 91.6946 10.902C92.5532 10.902 93.2019 11.1633 93.6406 11.686C94.0792 12.19 94.2986 12.8667 94.2986 13.716V18H92.7586Z" fill="white"/>
</svg>
