<svg width="206" height="72" viewBox="0 0 206 72" fill="none" xmlns="http://www.w3.org/2000/svg">
<g filter="url(#filter0_d_264_6)">
<path fill-rule="evenodd" clip-rule="evenodd" d="M195.163 57.0497H58.177C52.7669 62.4931 45.2746 65.8641 36.993 65.8641C20.4953 65.8641 7.12183 52.4906 7.12183 35.993C7.12183 19.4953 20.4953 6.12183 36.993 6.12183C45.2746 6.12183 52.7669 9.49286 58.177 14.9363H195.163C196.245 14.9363 197.122 15.8128 197.122 16.895V55.0909C197.122 56.1731 196.245 57.0497 195.163 57.0497Z" fill="#123A1C"/>
<path d="M58.177 56.0497H57.761L57.4677 56.3447C52.2375 61.6071 44.9975 64.8641 36.993 64.8641C21.0476 64.8641 8.12183 51.9384 8.12183 35.993C8.12183 20.0476 21.0476 7.12183 36.993 7.12183C44.9975 7.12183 52.2375 10.3788 57.4677 15.6412L57.761 15.9363H58.177H195.163C195.693 15.9363 196.122 16.3651 196.122 16.895V55.0909C196.122 55.6208 195.693 56.0497 195.163 56.0497H58.177Z" stroke="url(#paint0_linear_264_6)" stroke-width="2"/>
</g>
<g clip-path="url(#clip0_264_6)">
<path d="M51.6203 48.7296L51.12 48.2293C50.6622 47.7715 49.9457 47.7319 49.4383 48.1044L43.8002 42.4664C44.2295 41.7581 44.5321 40.9783 44.6884 40.1544C44.7847 39.6481 44.6494 39.1352 44.3176 38.7473C43.9918 38.3669 43.5185 38.1595 43.0166 38.1738C42.4965 38.1909 42.0332 38.4545 41.7421 38.8513L39.3916 36.5008L49.8834 26.0084C49.9379 25.9539 49.9803 25.889 50.0078 25.8175L51.9631 20.749C52.0413 20.5459 51.9929 20.3159 51.8387 20.1618C51.6847 20.0078 51.4535 19.9588 51.2515 20.0374L46.1837 21.9927C46.1116 22.0203 46.0466 22.0632 45.9921 22.1171L35.5003 32.6095L25.0079 22.1171C24.9534 22.0632 24.8884 22.0203 24.8169 21.9927L19.7484 20.0374C19.5459 19.9588 19.3153 20.0077 19.1613 20.1618C19.0072 20.3159 18.9588 20.5459 19.0369 20.749L20.9921 25.8175C21.0197 25.889 21.0621 25.9539 21.1166 26.0084L31.6089 36.5008L29.258 38.8513C28.9669 38.4545 28.5035 38.1909 27.9835 38.1738C27.4777 38.1584 27.0083 38.3669 26.6831 38.7473C26.3507 39.1352 26.2153 39.6481 26.3116 40.1544C26.4674 40.9766 26.77 41.7548 27.2009 42.4652L21.5618 48.1044C21.0544 47.7324 20.3384 47.7714 19.88 48.2293L19.3803 48.7295C18.8746 49.2353 18.8746 50.0586 19.3803 50.5643L21.4364 52.6203C21.6895 52.8735 22.0219 53 22.3543 53C22.6862 53 23.0186 52.8735 23.2717 52.6203L23.7714 52.1207C24.2298 51.6623 24.2683 50.9463 23.8969 50.4389L29.5228 44.8129C30.2701 45.2758 31.1006 45.5977 31.9816 45.7595C32.0774 45.7771 32.1732 45.7853 32.2689 45.7853C32.6453 45.7853 33.0129 45.6511 33.309 45.4001C33.6915 45.0749 33.9061 44.6005 33.8962 44.0964C33.8857 43.534 33.5907 43.0343 33.1467 42.7459L35.5004 40.3922L37.8541 42.7459C37.4094 43.0342 37.1145 43.5345 37.104 44.0991C37.0947 44.6004 37.3087 45.0748 37.6912 45.4001C37.9878 45.651 38.3555 45.7853 38.7319 45.7853C38.8271 45.7853 38.9234 45.777 39.0191 45.7594C39.9002 45.5976 40.7307 45.2757 41.4774 44.8129L47.1033 50.4388C46.9404 50.66 46.8491 50.9236 46.8491 51.2032C46.8491 51.5499 46.9839 51.8757 47.2288 52.1206L47.7285 52.6203C47.9816 52.8734 48.314 53 48.6464 53C48.9783 53 49.3107 52.8734 49.5638 52.6203L51.6198 50.5648C51.8647 50.3194 52.0001 49.9936 52.0001 49.6468C52 49.3003 51.8646 48.9739 51.6203 48.7296ZM23.1323 49.647L22.3542 48.8683L27.8326 43.3892L28.2371 43.7937L28.2421 43.7992C28.2432 43.8003 28.2448 43.8014 28.2459 43.8025L28.6113 44.1679L23.1323 49.647ZM46.6883 22.9778L50.4894 21.5118L49.0228 25.3123L38.6134 35.7227L37.8347 34.944L47.4516 25.3276C47.6662 25.1125 47.6662 24.7641 47.4516 24.5495C47.2364 24.3343 46.888 24.3343 46.6734 24.5495L37.0565 34.1658L36.2784 33.3876L46.6883 22.9778ZM31.9914 42.3442C31.7642 42.2638 31.5495 42.1587 31.3426 42.0387C31.2677 41.9942 31.1934 41.949 31.1214 41.8995C31.0641 41.861 31.0069 41.8219 30.9519 41.7801C30.8165 41.6766 30.6839 41.5682 30.5595 41.4466C30.444 41.3293 30.3411 41.2039 30.2431 41.0751C30.193 41.0085 30.1468 40.9397 30.1017 40.8698C30.0648 40.8148 30.0301 40.7581 29.9965 40.7015C29.9393 40.6024 29.8838 40.5022 29.8364 40.3982C29.832 40.3894 29.8287 40.38 29.8249 40.3713C29.7688 40.2469 29.7187 40.1192 29.6769 39.9888L32.3872 37.279L34.7217 39.614L31.9914 42.3442ZM23.549 25.3277C23.3337 25.1125 23.3337 24.7642 23.549 24.5495C23.7636 24.3343 24.112 24.3343 24.3271 24.5495L39.2006 39.4231C39.4158 39.6382 39.4158 39.9866 39.2006 40.2012C39.0933 40.3091 38.9524 40.3624 38.8115 40.3624C38.6706 40.3624 38.5298 40.309 38.4225 40.2012L23.549 25.3277ZM43.6071 39.9492C43.3886 41.101 42.8355 42.1532 42.0002 43.0002L41.9765 43.0243C41.1268 43.8718 40.0064 44.459 38.8199 44.677C38.6223 44.7139 38.4737 44.6198 38.4038 44.5608C38.2739 44.4508 38.2013 44.2895 38.2046 44.1173C38.209 43.8586 38.3862 43.6396 38.6256 43.5955C38.7472 43.5736 38.8644 43.5328 38.9839 43.5009C38.9882 43.4998 38.9921 43.5003 38.9965 43.4992C39.0042 43.497 39.0108 43.4937 39.0185 43.4915C39.2023 43.4414 39.3823 43.3814 39.5594 43.3093C39.6073 43.2901 39.6541 43.2681 39.7009 43.2477C39.8434 43.1838 39.9848 43.1189 40.1219 43.0413C40.2275 42.9829 40.3282 42.9147 40.4301 42.8482C40.5132 42.7931 40.5979 42.7436 40.6788 42.6831C40.8659 42.5444 41.0464 42.3936 41.217 42.2263L41.2225 42.2208C41.223 42.2203 41.2236 42.2203 41.2242 42.2191C41.2346 42.2092 41.2424 42.1971 41.2523 42.1867C41.4003 42.0337 41.5384 41.873 41.6639 41.7029C41.7613 41.573 41.8427 41.4349 41.9253 41.2973C41.9544 41.2489 41.9874 41.2038 42.0144 41.1542C42.1107 40.9803 42.191 40.7999 42.2648 40.616C42.2709 40.6001 42.2791 40.5847 42.2852 40.5687C42.3589 40.3771 42.4173 40.1813 42.4657 39.9815C42.4679 39.971 42.4723 39.9617 42.4745 39.9512C42.4756 39.9485 42.4751 39.9452 42.4756 39.9419C42.4943 39.8621 42.5224 39.7861 42.5367 39.7053C42.5791 39.4637 42.7959 39.2821 43.0524 39.2738C43.0584 39.2732 43.065 39.2732 43.0711 39.2732C43.2863 39.2732 43.42 39.391 43.4811 39.4625C43.5949 39.5953 43.6406 39.7731 43.6071 39.9492ZM50.8416 49.7862L48.7855 51.8422C48.7085 51.9187 48.583 51.9193 48.5071 51.8422L48.0068 51.3426C47.9567 51.2925 47.9496 51.2336 47.9496 51.2033C47.9496 51.1731 47.9568 51.1142 48.0074 51.0641L48.2567 50.8143L49.8136 49.258L50.0634 49.0076C50.1019 48.9696 50.1526 48.9503 50.2027 48.9503C50.2533 48.9503 50.3034 48.9696 50.3419 49.0076L50.8416 49.5078C50.8917 49.5579 50.8994 49.6162 50.8994 49.647C50.8994 49.6772 50.8917 49.7361 50.8416 49.7862Z" fill="#FFD762"/>
</g>
<g filter="url(#filter1_d_264_6)">
<path d="M72.408 38.948C72.408 40.9827 71.036 42 68.292 42H63.56V41.37H64.554C64.862 41.314 65.0533 41.1787 65.128 40.964V32.97C65.1 32.8113 65.0253 32.676 64.904 32.564C64.792 32.4427 64.6473 32.368 64.47 32.34H63.56V31.71H68.292C69.3187 31.71 70.1167 31.9153 70.686 32.326C71.2647 32.7367 71.554 33.376 71.554 34.244C71.554 35.42 71.05 36.162 70.042 36.47C70.7793 36.582 71.358 36.8387 71.778 37.24C72.198 37.6413 72.408 38.2107 72.408 38.948ZM69.118 35.994C69.7527 35.8353 70.07 35.2567 70.07 34.258C70.07 33.1287 69.636 32.508 68.768 32.396C68.46 32.3587 68.138 32.34 67.802 32.34C67.466 32.34 67.186 32.3493 66.962 32.368C66.8033 32.396 66.6353 32.5733 66.458 32.9V36.176H67.704C68.1707 36.176 68.642 36.1153 69.118 35.994ZM70.182 37.184C69.8647 36.9413 69.3467 36.82 68.628 36.82H66.458V40.726C66.5047 40.9967 66.6493 41.1973 66.892 41.328H67.718C68.6887 41.328 69.384 41.2393 69.804 41.062C70.5133 40.7633 70.868 40.138 70.868 39.186C70.868 38.2247 70.6393 37.5573 70.182 37.184ZM83.7142 41.37H84.4842V42H80.3122V41.37H81.1522C81.3482 41.37 81.4835 41.314 81.5582 41.202C81.6422 41.09 81.6842 40.992 81.6842 40.908V40.726L80.7882 38.248H76.8682L76.0002 40.726V40.894C76.0002 40.9873 76.0469 41.0853 76.1402 41.188C76.2335 41.2813 76.3642 41.342 76.5322 41.37H77.3722V42H73.7182V41.37H74.4182C74.5862 41.342 74.7449 41.2673 74.8942 41.146C75.0342 41.0247 75.1322 40.8847 75.1882 40.726L78.4362 31.64H79.6962L82.9442 40.726C83.0749 41.0993 83.3315 41.314 83.7142 41.37ZM77.1202 37.59H80.5642L78.8422 32.76L77.1202 37.59ZM91.0731 32.984V40.796C91.2411 41.132 91.4091 41.3093 91.5771 41.328H93.1311V42H87.7551V41.356H89.0851C89.2531 41.3373 89.3931 41.2673 89.5051 41.146C89.6171 41.0247 89.6917 40.8893 89.7291 40.74V32.76C89.6357 32.5547 89.4911 32.424 89.2951 32.368C87.2417 32.368 86.2151 32.8253 86.2151 33.74V34.216H85.5991V31.696H95.3011V34.216H94.6851V33.74C94.6851 32.8253 94.1717 32.368 93.1451 32.368H91.4931C91.2504 32.4987 91.1104 32.704 91.0731 32.984ZM101.901 32.984V40.796C102.069 41.132 102.237 41.3093 102.405 41.328H103.959V42H98.5832V41.356H99.9132C100.081 41.3373 100.221 41.2673 100.333 41.146C100.445 41.0247 100.52 40.8893 100.557 40.74V32.76C100.464 32.5547 100.319 32.424 100.123 32.368C98.0699 32.368 97.0432 32.8253 97.0432 33.74V34.216H96.4272V31.696H106.129V34.216H105.513V33.74C105.513 32.8253 105 32.368 103.973 32.368H102.321C102.079 32.4987 101.939 32.704 101.901 32.984ZM110.153 40.726C110.2 40.9967 110.345 41.1973 110.587 41.328L113.765 41.342C114.792 41.342 115.305 40.8847 115.305 39.97V39.494H115.935V42H107.255V41.37H108.249C108.511 41.3327 108.702 41.1973 108.823 40.964V32.97C108.795 32.8113 108.721 32.676 108.599 32.564C108.487 32.4427 108.343 32.368 108.165 32.34H107.255V31.71H111.805V32.368H110.657C110.499 32.396 110.331 32.5733 110.153 32.9V40.726ZM122.952 36.176C123.419 36.0267 123.652 35.7187 123.652 35.252V34.622H124.282V38.374H123.652V37.66C123.652 37.296 123.419 37.016 122.952 36.82H119.956V40.726C120.003 40.9967 120.147 41.1973 120.39 41.328L124.38 41.342C124.865 41.2767 125.108 41.0153 125.108 40.558V39.788H125.738V42H117.058V41.37H118.052C118.313 41.3327 118.505 41.1973 118.626 40.964V32.97C118.598 32.8113 118.523 32.676 118.402 32.564C118.29 32.4427 118.145 32.368 117.968 32.34H117.058V31.71H125.514V33.936H124.884V33.082C124.847 32.8207 124.613 32.5827 124.184 32.368H120.46C120.301 32.396 120.133 32.5733 119.956 32.9V36.176H122.952ZM140.785 41.37H141.569V42H137.117V41.37H138.097C138.293 41.37 138.391 41.3233 138.391 41.23C138.391 41.1647 138.353 41.0853 138.279 40.992L135.423 37.394H134.177V40.964C134.177 41.2347 134.387 41.37 134.807 41.37H135.731V42H131.195V41.37H132.203C132.343 41.37 132.473 41.3327 132.595 41.258C132.725 41.174 132.791 41.076 132.791 40.964V32.956C132.791 32.7973 132.725 32.6527 132.595 32.522C132.473 32.3913 132.315 32.326 132.119 32.326H131.195V31.696H136.277C137.294 31.696 138.092 31.9807 138.671 32.55C139.259 33.11 139.553 33.8193 139.553 34.678C139.553 36.274 138.657 37.1653 136.865 37.352L139.749 40.992C139.963 41.244 140.309 41.37 140.785 41.37ZM134.177 32.886V36.764H135.983C137.364 36.764 138.055 36.064 138.055 34.664C138.055 33.2547 137.621 32.494 136.753 32.382C136.463 32.3447 136.02 32.326 135.423 32.326C134.825 32.326 134.466 32.382 134.345 32.494C134.233 32.5967 134.177 32.7273 134.177 32.886ZM145.199 41.552C144.405 41.0667 143.766 40.4227 143.281 39.62C142.795 38.8173 142.553 37.9307 142.553 36.96C142.553 35.9893 142.795 35.098 143.281 34.286C143.766 33.4647 144.405 32.8067 145.199 32.312C145.992 31.8173 146.869 31.57 147.831 31.57C148.792 31.57 149.665 31.8033 150.449 32.27C151.242 32.7367 151.881 33.3807 152.367 34.202C152.861 35.014 153.109 35.9287 153.109 36.946C153.109 37.954 152.861 38.8593 152.367 39.662C151.881 40.4647 151.242 41.104 150.449 41.58C149.665 42.0467 148.792 42.28 147.831 42.28C146.869 42.28 145.992 42.0373 145.199 41.552ZM147.915 32.312H147.453C146.659 32.312 145.922 32.7693 145.241 33.684C144.559 34.5987 144.219 35.7093 144.219 37.016C144.219 38.3227 144.583 39.4007 145.311 40.25C146.039 41.0993 146.911 41.524 147.929 41.524C148.955 41.524 149.795 41.0947 150.449 40.236C151.111 39.368 151.443 38.2527 151.443 36.89C151.443 35.5273 151.079 34.426 150.351 33.586C149.632 32.7367 148.82 32.312 147.915 32.312ZM156.601 41.552C155.808 41.0667 155.168 40.4227 154.683 39.62C154.198 38.8173 153.955 37.9307 153.955 36.96C153.955 35.9893 154.198 35.098 154.683 34.286C155.168 33.4647 155.808 32.8067 156.601 32.312C157.394 31.8173 158.272 31.57 159.233 31.57C160.194 31.57 161.067 31.8033 161.851 32.27C162.644 32.7367 163.284 33.3807 163.769 34.202C164.264 35.014 164.511 35.9287 164.511 36.946C164.511 37.954 164.264 38.8593 163.769 39.662C163.284 40.4647 162.644 41.104 161.851 41.58C161.067 42.0467 160.194 42.28 159.233 42.28C158.272 42.28 157.394 42.0373 156.601 41.552ZM159.317 32.312H158.855C158.062 32.312 157.324 32.7693 156.643 33.684C155.962 34.5987 155.621 35.7093 155.621 37.016C155.621 38.3227 155.985 39.4007 156.713 40.25C157.441 41.0993 158.314 41.524 159.331 41.524C160.358 41.524 161.198 41.0947 161.851 40.236C162.514 39.368 162.845 38.2527 162.845 36.89C162.845 35.5273 162.481 34.426 161.753 33.586C161.034 32.7367 160.222 32.312 159.317 32.312ZM168.06 40.53C168.06 41.09 168.456 41.37 169.25 41.37H169.614V42H165.638V41.37L166.128 41.356C166.846 41.3373 167.206 41.062 167.206 40.53V33.152C167.206 32.7507 166.986 32.5173 166.548 32.452H165.638V31.822H168.046L172.484 39.704L176.46 31.822H179.329V32.452H178.35C177.976 32.5173 177.79 32.7507 177.79 33.152V40.53C177.79 41.09 178.182 41.37 178.966 41.37H179.329V42H174.878V41.37L175.368 41.356C176.086 41.3373 176.446 41.062 176.446 40.53V33.572L172.302 41.692L168.06 34.258V40.53Z" fill="#FFD762"/>
</g>
<defs>
<filter id="filter0_d_264_6" x="-0.878174" y="-1.87817" width="206" height="75.7423" filterUnits="userSpaceOnUse" color-interpolation-filters="sRGB">
<feFlood flood-opacity="0" result="BackgroundImageFix"/>
<feColorMatrix in="SourceAlpha" type="matrix" values="0 0 0 0 0 0 0 0 0 0 0 0 0 0 0 0 0 0 127 0" result="hardAlpha"/>
<feOffset/>
<feGaussianBlur stdDeviation="4"/>
<feComposite in2="hardAlpha" operator="out"/>
<feColorMatrix type="matrix" values="0 0 0 0 0.968627 0 0 0 0 0.823529 0 0 0 0 0.380392 0 0 0 1 0"/>
<feBlend mode="normal" in2="BackgroundImageFix" result="effect1_dropShadow_264_6"/>
<feBlend mode="normal" in="SourceGraphic" in2="effect1_dropShadow_264_6" result="shape"/>
</filter>
<filter id="filter1_d_264_6" x="61.56" y="31.5699" width="119.77" height="14.7101" filterUnits="userSpaceOnUse" color-interpolation-filters="sRGB">
<feFlood flood-opacity="0" result="BackgroundImageFix"/>
<feColorMatrix in="SourceAlpha" type="matrix" values="0 0 0 0 0 0 0 0 0 0 0 0 0 0 0 0 0 0 127 0" result="hardAlpha"/>
<feOffset dy="2"/>
<feGaussianBlur stdDeviation="1"/>
<feComposite in2="hardAlpha" operator="out"/>
<feColorMatrix type="matrix" values="0 0 0 0 0 0 0 0 0 0 0 0 0 0 0 0 0 0 0.5 0"/>
<feBlend mode="normal" in2="BackgroundImageFix" result="effect1_dropShadow_264_6"/>
<feBlend mode="normal" in="SourceGraphic" in2="effect1_dropShadow_264_6" result="shape"/>
</filter>
<linearGradient id="paint0_linear_264_6" x1="7.12183" y1="65.8641" x2="197.122" y2="65.8641" gradientUnits="userSpaceOnUse">
<stop stop-color="#A7904C"/>
<stop offset="0.534524" stop-color="#F1CC5E"/>
<stop offset="1" stop-color="#9E8A4D"/>
</linearGradient>
<clipPath id="clip0_264_6">
<rect width="33" height="33" fill="white" transform="translate(19 20)"/>
</clipPath>
</defs>
</svg>
