<svg width="15" height="15" viewBox="0 0 15 15" fill="none" xmlns="http://www.w3.org/2000/svg">
<g id="34660 1" clip-path="url(#clip0_227_8655)">
<g id="Group">
<path id="Vector" d="M0.00356445 0.055068C0.00708008 0.086709 0.0691895 0.678505 0.141846 1.37108L0.275439 2.62968L3.00239 5.2371C4.50356 6.67147 5.73052 7.84804 5.73052 7.85155C5.73052 7.85975 4.3395 9.41366 4.32075 9.42655C4.30903 9.43358 4.12739 9.3035 3.68208 8.966C3.33989 8.70819 3.05395 8.49608 3.0481 8.49608C3.03638 8.49608 2.18208 9.46054 2.1727 9.48515C2.16919 9.49452 2.42231 9.61991 2.92974 9.86132C3.3481 10.0594 3.69145 10.2258 3.69145 10.2293C3.69145 10.2328 3.67153 10.2586 3.64692 10.2844C3.61528 10.3172 3.5813 10.3394 3.53794 10.3535C3.49692 10.3664 3.4477 10.398 3.39849 10.4391C3.3563 10.4754 3.32114 10.5047 3.31997 10.5058C3.3188 10.5058 3.32466 10.534 3.33286 10.568L3.34927 10.6289L3.25669 10.732C3.16645 10.834 3.16294 10.8363 3.09145 10.8516C3.02349 10.8656 3.01177 10.8726 2.94614 10.9406L2.87349 11.0133L2.8852 11.073L2.89575 11.1316L2.80786 11.243L2.71997 11.3531L2.6356 11.3637L2.55122 11.373L2.48208 11.4516L2.41177 11.5301L2.43052 11.5922L2.44927 11.6543L2.35903 11.7422C2.27231 11.8266 2.26294 11.8312 2.17856 11.8512C2.0977 11.8699 2.08364 11.8781 2.02739 11.9355L1.96528 11.9988L1.98286 12.0621L2.00161 12.1266L1.93247 12.2144L1.86333 12.3035L1.78247 12.3117C1.70513 12.3187 1.69927 12.3211 1.62544 12.3879C1.58325 12.4266 1.54575 12.457 1.54224 12.457C1.53872 12.457 1.32778 12.2988 1.07349 12.1055C0.818018 11.9121 0.605908 11.7539 0.601221 11.7539C0.58833 11.7551 0.0059082 12.6328 0.0059082 12.6516C0.0059082 12.6598 0.164111 12.7816 0.357471 12.9211C0.55083 13.0617 0.711377 13.1777 0.713721 13.1801C0.717236 13.1824 0.66333 13.2984 0.596533 13.4391L0.473486 13.6933L1.23989 14.2476L2.0063 14.8008L2.25708 14.6484C2.39419 14.5652 2.51138 14.4961 2.51724 14.4961C2.5231 14.4961 2.68481 14.6098 2.877 14.7492C3.06802 14.8875 3.22974 15 3.23442 14.9976C3.25083 14.9918 4.03013 14.3625 4.0313 14.3543C4.0313 14.3508 3.83677 14.2008 3.59888 14.0203C3.27895 13.7777 3.17349 13.6922 3.19224 13.6898C3.20513 13.6875 3.24966 13.6535 3.29067 13.6137C3.35864 13.5469 3.36333 13.5375 3.36333 13.4883C3.3645 13.4379 3.37036 13.4285 3.47114 13.3148L3.57895 13.1953H3.66216H3.74536L3.79927 13.1226C3.83794 13.0676 3.85435 13.0336 3.8602 12.9902C3.86724 12.9375 3.87544 12.9234 3.9563 12.8426L4.04536 12.7535L4.13911 12.7465C4.23052 12.7394 4.23403 12.7383 4.302 12.6785L4.37231 12.6176L4.36411 12.5402L4.35708 12.4629L4.43677 12.3914C4.53403 12.3058 4.54458 12.3 4.63481 12.2812C4.69458 12.2683 4.7145 12.2566 4.7731 12.2004L4.84224 12.1348L4.8352 12.0691L4.82935 12.0035L4.94067 11.9051C5.0438 11.8137 5.05669 11.8055 5.13403 11.7879C5.20786 11.7703 5.22427 11.7609 5.28052 11.7058C5.34028 11.6461 5.3438 11.6402 5.3438 11.584C5.3438 11.5348 5.34966 11.5183 5.37427 11.4961L5.40356 11.468L5.56997 11.6367C5.66255 11.7305 5.89927 11.973 6.09614 12.1758L6.45474 12.5437L6.91528 12.0891C7.16958 11.8394 7.377 11.6297 7.377 11.6226C7.377 11.6168 7.11099 11.4281 6.7852 11.2031C6.45942 10.9793 6.19341 10.7941 6.19341 10.7918C6.19341 10.7836 7.49185 9.54491 7.50005 9.54491C7.5106 9.54491 8.7938 10.7719 8.79849 10.7871C8.80083 10.7941 8.53716 10.9816 8.21255 11.2055C7.88794 11.4281 7.6231 11.6168 7.6231 11.6226C7.6231 11.6297 7.83052 11.8394 8.08481 12.0891L8.54536 12.5437L8.90395 12.1758C9.10083 11.973 9.33755 11.7305 9.43013 11.6367L9.59653 11.468L9.62583 11.4961C9.65044 11.5183 9.6563 11.5348 9.6563 11.584C9.6563 11.6402 9.65981 11.6461 9.71958 11.7058C9.77583 11.7609 9.79224 11.7703 9.86606 11.7879C9.94341 11.8055 9.9563 11.8137 10.0594 11.9051L10.1708 12.0035L10.1649 12.0691L10.1579 12.1348L10.227 12.2004C10.2856 12.2566 10.3055 12.2683 10.3653 12.2812C10.4555 12.3 10.4661 12.3058 10.5633 12.3914L10.643 12.4629L10.636 12.5402L10.6278 12.6176L10.6981 12.6785C10.7661 12.7383 10.7696 12.7394 10.861 12.7465L10.9547 12.7535L11.0438 12.8426C11.1247 12.9234 11.1329 12.9375 11.1399 12.9902C11.1458 13.0336 11.1622 13.0676 11.2008 13.1215L11.2547 13.1953H11.3379H11.4211L11.529 13.3148C11.6297 13.4285 11.6356 13.4379 11.6368 13.4883C11.6368 13.5375 11.6415 13.5469 11.7106 13.6137C11.7504 13.6535 11.795 13.6875 11.8079 13.6898C11.8266 13.6922 11.7211 13.7777 11.4012 14.0203C11.1633 14.2008 10.9688 14.3508 10.9688 14.3543C10.97 14.3625 11.7493 14.9918 11.7657 14.9976C11.7704 15 11.9321 14.8875 12.1231 14.7492C12.3153 14.6098 12.477 14.4961 12.4829 14.4961C12.4887 14.4961 12.6059 14.5652 12.743 14.6484L12.9938 14.8008L13.7602 14.2476L14.5266 13.6933L14.4036 13.4391C14.3368 13.2984 14.2829 13.1824 14.2864 13.1801C14.2887 13.1777 14.4493 13.0617 14.6426 12.9211C14.836 12.7816 14.9942 12.6598 14.9942 12.6516C14.9942 12.6328 14.4118 11.7551 14.3989 11.7539C14.3942 11.7539 14.1821 11.9121 13.9266 12.1055C13.6723 12.2988 13.4614 12.457 13.4579 12.457C13.4543 12.457 13.4168 12.4266 13.3747 12.3879C13.3008 12.3211 13.295 12.3187 13.2176 12.3117L13.1368 12.3035L13.0676 12.2144L12.9985 12.1266L13.0172 12.0621L13.0348 11.9988L12.9727 11.9355C12.9165 11.8781 12.9024 11.8699 12.8215 11.8512C12.7372 11.8312 12.7278 11.8266 12.6411 11.7422L12.5508 11.6543L12.5696 11.5922L12.5883 11.5301L12.518 11.4516L12.4489 11.373L12.3645 11.3637L12.2801 11.3531L12.1922 11.243L12.1043 11.1316L12.1149 11.073L12.1266 11.0133L12.054 10.9406C11.9883 10.8726 11.9766 10.8656 11.9086 10.8516C11.8372 10.8363 11.8336 10.834 11.7434 10.732L11.6508 10.6289L11.6672 10.568C11.6754 10.534 11.6813 10.5058 11.6801 10.5058C11.679 10.5047 11.6438 10.4754 11.6016 10.4391C11.5524 10.398 11.5032 10.3664 11.4622 10.3535C11.4188 10.3394 11.3848 10.3172 11.3532 10.2844C11.3286 10.2586 11.3086 10.2328 11.3086 10.2293C11.3086 10.2258 11.652 10.0594 12.0704 9.86132C12.5778 9.61991 12.8309 9.49452 12.8274 9.48515C12.818 9.46054 11.9637 8.49608 11.952 8.49608C11.9461 8.49608 11.6602 8.70819 11.318 8.966C10.8727 9.3035 10.6911 9.43358 10.6793 9.42655C10.6606 9.41366 9.26958 7.85975 9.26958 7.85155C9.26958 7.84804 10.4965 6.67147 11.9977 5.23827L14.7247 2.62968L14.8629 1.31952C14.9391 0.598818 14.9989 0.00584888 14.9954 0.00233364C14.9918 -0.0011816 14.3051 0.201552 13.4708 0.452333L11.9532 0.907021L10.3793 2.66601C9.51333 3.6328 8.51372 4.7496 8.15747 5.14686C7.80005 5.5453 7.50474 5.87108 7.50005 5.87108C7.49536 5.87108 7.20005 5.5453 6.84263 5.14686C6.48638 4.7496 5.48677 3.6328 4.62075 2.66601L3.04692 0.907021L1.53286 0.453506C0.699658 0.203897 0.0129395 -0.0011816 0.00708008 -1.04904e-05C0.0012207 -1.04904e-05 4.88282e-05 0.0245991 0.00356445 0.055068Z" fill="#960E89"/>
</g>
</g>
<defs>
<clipPath id="clip0_227_8655">
<rect width="15" height="15" fill="white"/>
</clipPath>
</defs>
</svg>
