<svg width="20" height="20" viewBox="0 0 20 20" fill="none" xmlns="http://www.w3.org/2000/svg">
<g id="crown2 1">
<path id="Vector" d="M3.37411 4.83502L6.54495 7.62502L9.36995 4.14669C9.44905 4.04945 9.54908 3.9713 9.66257 3.91808C9.77606 3.86486 9.9001 3.83792 10.0254 3.83928C10.1508 3.84064 10.2742 3.87027 10.3865 3.92594C10.4988 3.98162 10.5971 4.06192 10.6741 4.16085L13.3699 7.62419L16.6433 4.79419C16.7718 4.68328 16.9312 4.61428 17.1 4.59642C17.2689 4.57857 17.4391 4.6127 17.588 4.69427C17.7369 4.77583 17.8574 4.90093 17.9332 5.05282C18.0091 5.20472 18.0367 5.37615 18.0124 5.54419L16.7624 14.1667H3.26828L1.99911 5.58335C1.9739 5.41438 2.00124 5.24175 2.07741 5.08883C2.15358 4.93591 2.27491 4.81009 2.42496 4.72843C2.57502 4.64676 2.74655 4.61319 2.91633 4.63225C3.0861 4.65132 3.24591 4.7221 3.37411 4.83502ZM3.33328 15H16.6666V15.8334C16.6666 16.0544 16.5788 16.2663 16.4225 16.4226C16.2663 16.5789 16.0543 16.6667 15.8333 16.6667H4.16661C3.9456 16.6667 3.73364 16.5789 3.57736 16.4226C3.42108 16.2663 3.33328 16.0544 3.33328 15.8334V15Z" fill="#960E89"/>
</g>
</svg>
