<svg width="206" height="72" viewBox="0 0 206 72" fill="none" xmlns="http://www.w3.org/2000/svg">
<g filter="url(#filter0_d_264_8)">
<path fill-rule="evenodd" clip-rule="evenodd" d="M195.163 57.0497H58.177C52.7669 62.4931 45.2746 65.8641 36.993 65.8641C20.4953 65.8641 7.12183 52.4906 7.12183 35.993C7.12183 19.4953 20.4953 6.12183 36.993 6.12183C45.2746 6.12183 52.7669 9.49286 58.177 14.9363H195.163C196.245 14.9363 197.122 15.8128 197.122 16.895V55.0909C197.122 56.1731 196.245 57.0497 195.163 57.0497Z" fill="#22041E"/>
<path d="M58.177 56.0497H57.761L57.4677 56.3447C52.2375 61.6071 44.9975 64.8641 36.993 64.8641C21.0476 64.8641 8.12183 51.9384 8.12183 35.993C8.12183 20.0476 21.0476 7.12183 36.993 7.12183C44.9975 7.12183 52.2375 10.3788 57.4677 15.6412L57.761 15.9363H58.177H195.163C195.693 15.9363 196.122 16.3651 196.122 16.895V55.0909C196.122 55.6208 195.693 56.0497 195.163 56.0497H58.177Z" stroke="url(#paint0_linear_264_8)" stroke-width="2"/>
</g>
<g clip-path="url(#clip0_264_8)">
<path d="M36 17C32.2422 17 28.5687 18.1143 25.4442 20.2021C22.3196 22.2898 19.8844 25.2572 18.4463 28.729C17.0082 32.2008 16.632 36.0211 17.3651 39.7067C18.0982 43.3924 19.9078 46.7778 22.565 49.435C25.2222 52.0922 28.6077 53.9018 32.2933 54.6349C35.9789 55.368 39.7992 54.9918 43.271 53.5537C46.7428 52.1156 49.7102 49.6804 51.7979 46.5558C53.8857 43.4313 55 39.7578 55 36C54.9946 30.9626 52.991 26.133 49.429 22.571C45.867 19.009 41.0374 17.0054 36 17ZM51.8333 36C51.8313 37.0099 51.7327 38.0172 51.5388 39.0083L48.4798 38.09C48.729 36.7078 48.729 35.2922 48.4798 33.91L51.5388 32.9917C51.7327 33.9828 51.8313 34.9901 51.8333 36ZM50.63 29.958L47.5742 30.8747C46.2938 28.0031 43.9969 25.7062 41.1253 24.4258L42.042 21.37C45.9267 22.9858 49.0142 26.0733 50.63 29.958ZM36 45.5C34.1211 45.5 32.2844 44.9428 30.7221 43.899C29.1598 42.8551 27.9422 41.3714 27.2232 39.6355C26.5041 37.8996 26.316 35.9895 26.6825 34.1466C27.0491 32.3038 27.9539 30.6111 29.2825 29.2825C30.6111 27.9539 32.3038 27.0491 34.1467 26.6825C35.9895 26.316 37.8996 26.5041 39.6355 27.2231C41.3714 27.9422 42.8551 29.1598 43.899 30.7221C44.9428 32.2843 45.5 34.1211 45.5 36C45.4975 38.5188 44.4958 40.9337 42.7147 42.7147C40.9337 44.4958 38.5188 45.4975 36 45.5ZM39.0083 20.4612L38.09 23.5202C36.7078 23.2711 35.2922 23.2711 33.91 23.5202L32.9917 20.4612C34.978 20.0686 37.022 20.0686 39.0083 20.4612ZM29.958 21.37L30.8748 24.4258C28.0031 25.7062 25.7063 28.0031 24.4258 30.8747L21.37 29.958C22.9858 26.0733 26.0733 22.9858 29.958 21.37ZM20.1667 36C20.1687 34.9901 20.2673 33.9828 20.4612 32.9917L23.5202 33.91C23.2711 35.2922 23.2711 36.7078 23.5202 38.09L20.4612 39.0083C20.2673 38.0172 20.1687 37.0099 20.1667 36ZM21.37 42.042L24.4258 41.1253C25.7063 43.9969 28.0031 46.2938 30.8748 47.5742L29.958 50.63C26.0733 49.0142 22.9858 45.9267 21.37 42.042ZM32.9917 51.542L33.91 48.483C35.2922 48.7321 36.7078 48.7321 38.09 48.483L39.0083 51.542C37.022 51.9346 34.978 51.9346 32.9917 51.542ZM42.042 50.6316L41.1253 47.5773C43.9969 46.2969 46.2938 44.0001 47.5742 41.1284L50.63 42.0452C49.0139 45.9286 45.9263 49.0145 42.042 50.6284V50.6316ZM40.1658 34.2457C40.545 34.7519 40.75 35.3674 40.75 36C40.75 36.6326 40.545 37.2481 40.1658 37.7543L37.1685 41.7491C37.0326 41.9306 36.8562 42.078 36.6533 42.1795C36.4505 42.281 36.2268 42.3339 36 42.3339C35.7732 42.3339 35.5495 42.281 35.3467 42.1795C35.1439 42.078 34.9675 41.9306 34.8315 41.7491L31.8343 37.7543C31.455 37.2481 31.25 36.6326 31.25 36C31.25 35.3674 31.455 34.7519 31.8343 34.2457L34.8315 30.2509C34.9675 30.0694 35.1439 29.922 35.3467 29.8205C35.5495 29.719 35.7732 29.6661 36 29.6661C36.2268 29.6661 36.4505 29.719 36.6533 29.8205C36.8562 29.922 37.0326 30.0694 37.1685 30.2509L40.1658 34.2457Z" fill="#FFD762"/>
</g>
<g filter="url(#filter1_d_264_8)">
<path d="M68.334 36.764C69.7247 36.764 70.42 36.064 70.42 34.664C70.42 33.264 69.986 32.508 69.118 32.396C68.81 32.3587 68.4273 32.34 67.97 32.34C67.522 32.34 67.186 32.3493 66.962 32.368C66.8033 32.396 66.6353 32.5733 66.458 32.9V36.764H68.334ZM66.458 40.936C66.5233 41.216 66.738 41.356 67.102 41.356H68.012V41.986H63.56V41.356L64.554 41.342C64.8153 41.3047 65.0067 41.1693 65.128 40.936V32.97C65.1 32.8113 65.0253 32.676 64.904 32.564C64.792 32.4427 64.6473 32.368 64.47 32.34H63.56V31.696L68.642 31.71C69.6687 31.71 70.4667 31.99 71.036 32.55C71.6147 33.11 71.904 33.824 71.904 34.692C71.904 36.5027 70.756 37.408 68.46 37.408H66.458V40.936ZM75.6637 41.552C74.8703 41.0667 74.231 40.4227 73.7457 39.62C73.2603 38.8173 73.0177 37.9307 73.0177 36.96C73.0177 35.9893 73.2603 35.098 73.7457 34.286C74.231 33.4647 74.8703 32.8067 75.6637 32.312C76.457 31.8173 77.3343 31.57 78.2957 31.57C79.257 31.57 80.1297 31.8033 80.9137 32.27C81.707 32.7367 82.3463 33.3807 82.8317 34.202C83.3263 35.014 83.5737 35.9287 83.5737 36.946C83.5737 37.954 83.3263 38.8593 82.8317 39.662C82.3463 40.4647 81.707 41.104 80.9137 41.58C80.1297 42.0467 79.257 42.28 78.2957 42.28C77.3343 42.28 76.457 42.0373 75.6637 41.552ZM78.3797 32.312H77.9177C77.1243 32.312 76.387 32.7693 75.7057 33.684C75.0243 34.5987 74.6837 35.7093 74.6837 37.016C74.6837 38.3227 75.0477 39.4007 75.7757 40.25C76.5037 41.0993 77.3763 41.524 78.3937 41.524C79.4203 41.524 80.2603 41.0947 80.9137 40.236C81.5763 39.368 81.9077 38.2527 81.9077 36.89C81.9077 35.5273 81.5437 34.426 80.8157 33.586C80.097 32.7367 79.285 32.312 78.3797 32.312ZM87.458 40.95C87.5233 41.23 87.738 41.37 88.102 41.37H89.012V42H84.56V41.37H85.554C85.8153 41.3327 86.0067 41.1973 86.128 40.964V32.872C86.0907 32.6573 85.8713 32.5173 85.47 32.452H84.56V31.822H89.012V32.452H88.032C87.78 32.4893 87.5887 32.6293 87.458 32.872V36.96L91.952 33.152C91.9893 33.0493 92.008 32.9607 92.008 32.886C92.008 32.6807 91.8493 32.536 91.532 32.452H90.944V31.822H94.864V32.466H94.36C93.7347 32.634 93.1653 32.9373 92.652 33.376L89.418 36.148L94.122 40.922C94.4113 41.2113 94.8033 41.356 95.298 41.356H95.76V42H91.266V41.37L91.91 41.356C92.2367 41.2533 92.4 41.1647 92.4 41.09C92.4 41.0153 92.33 40.852 92.19 40.6L88.564 36.89L87.458 37.842V40.95ZM102.772 36.176C103.239 36.0267 103.472 35.7187 103.472 35.252V34.622H104.102V38.374H103.472V37.66C103.472 37.296 103.239 37.016 102.772 36.82H99.7764V40.726C99.823 40.9967 99.9677 41.1973 100.21 41.328L104.2 41.342C104.686 41.2767 104.928 41.0153 104.928 40.558V39.788H105.558V42H96.8784V41.37H97.8724C98.1337 41.3327 98.325 41.1973 98.4464 40.964V32.97C98.4184 32.8113 98.3437 32.676 98.2224 32.564C98.1104 32.4427 97.9657 32.368 97.7884 32.34H96.8784V31.71H105.334V33.936H104.704V33.082C104.667 32.8207 104.434 32.5827 104.004 32.368H100.28C100.122 32.396 99.9537 32.5733 99.7764 32.9V36.176H102.772ZM116.408 41.37H117.192V42H112.74V41.37H113.72C113.916 41.37 114.014 41.3233 114.014 41.23C114.014 41.1647 113.976 41.0853 113.902 40.992L111.046 37.394H109.8V40.964C109.8 41.2347 110.01 41.37 110.43 41.37H111.354V42H106.818V41.37H107.826C107.966 41.37 108.096 41.3327 108.218 41.258C108.348 41.174 108.414 41.076 108.414 40.964V32.956C108.414 32.7973 108.348 32.6527 108.218 32.522C108.096 32.3913 107.938 32.326 107.742 32.326H106.818V31.696H111.9C112.917 31.696 113.715 31.9807 114.294 32.55C114.882 33.11 115.176 33.8193 115.176 34.678C115.176 36.274 114.28 37.1653 112.488 37.352L115.372 40.992C115.586 41.244 115.932 41.37 116.408 41.37ZM109.8 32.886V36.764H111.606C112.987 36.764 113.678 36.064 113.678 34.664C113.678 33.2547 113.244 32.494 112.376 32.382C112.086 32.3447 111.643 32.326 111.046 32.326C110.448 32.326 110.089 32.382 109.968 32.494C109.856 32.5967 109.8 32.7273 109.8 32.886ZM132.103 41.37H132.887V42H128.435V41.37H129.415C129.611 41.37 129.709 41.3233 129.709 41.23C129.709 41.1647 129.672 41.0853 129.597 40.992L126.741 37.394H125.495V40.964C125.495 41.2347 125.705 41.37 126.125 41.37H127.049V42H122.513V41.37H123.521C123.661 41.37 123.792 41.3327 123.913 41.258C124.044 41.174 124.109 41.076 124.109 40.964V32.956C124.109 32.7973 124.044 32.6527 123.913 32.522C123.792 32.3913 123.633 32.326 123.437 32.326H122.513V31.696H127.595C128.612 31.696 129.41 31.9807 129.989 32.55C130.577 33.11 130.871 33.8193 130.871 34.678C130.871 36.274 129.975 37.1653 128.183 37.352L131.067 40.992C131.282 41.244 131.627 41.37 132.103 41.37ZM125.495 32.886V36.764H127.301C128.682 36.764 129.373 36.064 129.373 34.664C129.373 33.2547 128.939 32.494 128.071 32.382C127.782 32.3447 127.338 32.326 126.741 32.326C126.144 32.326 125.784 32.382 125.663 32.494C125.551 32.5967 125.495 32.7273 125.495 32.886ZM136.517 41.552C135.724 41.0667 135.085 40.4227 134.599 39.62C134.114 38.8173 133.871 37.9307 133.871 36.96C133.871 35.9893 134.114 35.098 134.599 34.286C135.085 33.4647 135.724 32.8067 136.517 32.312C137.311 31.8173 138.188 31.57 139.149 31.57C140.111 31.57 140.983 31.8033 141.767 32.27C142.561 32.7367 143.2 33.3807 143.685 34.202C144.18 35.014 144.427 35.9287 144.427 36.946C144.427 37.954 144.18 38.8593 143.685 39.662C143.2 40.4647 142.561 41.104 141.767 41.58C140.983 42.0467 140.111 42.28 139.149 42.28C138.188 42.28 137.311 42.0373 136.517 41.552ZM139.233 32.312H138.771C137.978 32.312 137.241 32.7693 136.559 33.684C135.878 34.5987 135.537 35.7093 135.537 37.016C135.537 38.3227 135.901 39.4007 136.629 40.25C137.357 41.0993 138.23 41.524 139.247 41.524C140.274 41.524 141.114 41.0947 141.767 40.236C142.43 39.368 142.761 38.2527 142.761 36.89C142.761 35.5273 142.397 34.426 141.669 33.586C140.951 32.7367 140.139 32.312 139.233 32.312ZM147.92 41.552C147.126 41.0667 146.487 40.4227 146.002 39.62C145.516 38.8173 145.274 37.9307 145.274 36.96C145.274 35.9893 145.516 35.098 146.002 34.286C146.487 33.4647 147.126 32.8067 147.92 32.312C148.713 31.8173 149.59 31.57 150.552 31.57C151.513 31.57 152.386 31.8033 153.17 32.27C153.963 32.7367 154.602 33.3807 155.088 34.202C155.582 35.014 155.83 35.9287 155.83 36.946C155.83 37.954 155.582 38.8593 155.088 39.662C154.602 40.4647 153.963 41.104 153.17 41.58C152.386 42.0467 151.513 42.28 150.552 42.28C149.59 42.28 148.713 42.0373 147.92 41.552ZM150.636 32.312H150.174C149.38 32.312 148.643 32.7693 147.962 33.684C147.28 34.5987 146.94 35.7093 146.94 37.016C146.94 38.3227 147.304 39.4007 148.032 40.25C148.76 41.0993 149.632 41.524 150.65 41.524C151.676 41.524 152.516 41.0947 153.17 40.236C153.832 39.368 154.164 38.2527 154.164 36.89C154.164 35.5273 153.8 34.426 153.072 33.586C152.353 32.7367 151.541 32.312 150.636 32.312ZM159.378 40.53C159.378 41.09 159.775 41.37 160.568 41.37H160.932V42H156.956V41.37L157.446 41.356C158.165 41.3373 158.524 41.062 158.524 40.53V33.152C158.524 32.7507 158.305 32.5173 157.866 32.452H156.956V31.822H159.364L163.802 39.704L167.778 31.822H170.648V32.452H169.668C169.295 32.5173 169.108 32.7507 169.108 33.152V40.53C169.108 41.09 169.5 41.37 170.284 41.37H170.648V42H166.196V41.37L166.686 41.356C167.405 41.3373 167.764 41.062 167.764 40.53V33.572L163.62 41.692L159.378 34.258V40.53Z" fill="#FFD762"/>
</g>
<defs>
<filter id="filter0_d_264_8" x="-0.878174" y="-1.87817" width="206" height="75.7423" filterUnits="userSpaceOnUse" color-interpolation-filters="sRGB">
<feFlood flood-opacity="0" result="BackgroundImageFix"/>
<feColorMatrix in="SourceAlpha" type="matrix" values="0 0 0 0 0 0 0 0 0 0 0 0 0 0 0 0 0 0 127 0" result="hardAlpha"/>
<feOffset/>
<feGaussianBlur stdDeviation="4"/>
<feComposite in2="hardAlpha" operator="out"/>
<feColorMatrix type="matrix" values="0 0 0 0 0.968627 0 0 0 0 0.823529 0 0 0 0 0.380392 0 0 0 1 0"/>
<feBlend mode="normal" in2="BackgroundImageFix" result="effect1_dropShadow_264_8"/>
<feBlend mode="normal" in="SourceGraphic" in2="effect1_dropShadow_264_8" result="shape"/>
</filter>
<filter id="filter1_d_264_8" x="61.56" y="31.5699" width="111.088" height="14.7101" filterUnits="userSpaceOnUse" color-interpolation-filters="sRGB">
<feFlood flood-opacity="0" result="BackgroundImageFix"/>
<feColorMatrix in="SourceAlpha" type="matrix" values="0 0 0 0 0 0 0 0 0 0 0 0 0 0 0 0 0 0 127 0" result="hardAlpha"/>
<feOffset dy="2"/>
<feGaussianBlur stdDeviation="1"/>
<feComposite in2="hardAlpha" operator="out"/>
<feColorMatrix type="matrix" values="0 0 0 0 0 0 0 0 0 0 0 0 0 0 0 0 0 0 0.5 0"/>
<feBlend mode="normal" in2="BackgroundImageFix" result="effect1_dropShadow_264_8"/>
<feBlend mode="normal" in="SourceGraphic" in2="effect1_dropShadow_264_8" result="shape"/>
</filter>
<linearGradient id="paint0_linear_264_8" x1="7.12183" y1="65.8641" x2="197.122" y2="65.8641" gradientUnits="userSpaceOnUse">
<stop stop-color="#A7904C"/>
<stop offset="0.534524" stop-color="#F1CC5E"/>
<stop offset="1" stop-color="#9E8A4D"/>
</linearGradient>
<clipPath id="clip0_264_8">
<rect width="38" height="38" fill="white" transform="translate(17 17)"/>
</clipPath>
</defs>
</svg>
