<svg width="40" height="40" viewBox="0 0 40 40" fill="none" xmlns="http://www.w3.org/2000/svg">
<g id="question 1">
<path id="Vector" d="M20 5C11.7333 5 5 11.7333 5 20C5 28.2667 11.7333 35 20 35C28.2667 35 35 28.2667 35 20C35 11.7333 28.2667 5 20 5ZM20 32.5C13.1 32.5 7.5 26.9 7.5 20C7.5 13.1 13.1 7.5 20 7.5C26.9 7.5 32.5 13.1 32.5 20C32.5 26.9 26.9 32.5 20 32.5ZM23.8333 12.8333C24.85 13.85 25.4167 15.2167 25.4167 16.6667C25.4167 18.1167 24.85 19.4667 23.8333 20.5C23.1167 21.2167 22.2167 21.7167 21.25 21.9333V22.5C21.25 23.1833 20.6833 23.75 20 23.75C19.3167 23.75 18.75 23.1833 18.75 22.5V20.8333C18.75 20.15 19.3167 19.5833 20 19.5833C20.7833 19.5833 21.5167 19.2833 22.0667 18.7333C22.6167 18.1833 22.9167 17.45 22.9167 16.6667C22.9167 15.8833 22.6167 15.15 22.0667 14.6C20.9667 13.5 19.05 13.5 17.95 14.6C17.4 15.15 17.1 15.8833 17.1 16.6667C17.1 17.35 16.5333 17.9167 15.85 17.9167C15.1667 17.9167 14.6 17.35 14.6 16.6667C14.6 15.2167 15.1667 13.8667 16.1833 12.8333C18.2333 10.7833 21.8 10.7833 23.85 12.8333H23.8333ZM21.6667 27.0833C21.6667 28 20.9167 28.75 20 28.75C19.0833 28.75 18.3333 28 18.3333 27.0833C18.3333 26.1667 19.0833 25.4167 20 25.4167C20.9167 25.4167 21.6667 26.1667 21.6667 27.0833Z" fill="#F8D05F"/>
</g>
</svg>
