<svg width="20" height="20" viewBox="0 0 20 20" fill="none" xmlns="http://www.w3.org/2000/svg">
<path fill-rule="evenodd" clip-rule="evenodd" d="M9.90587 18.3167C9.96921 18.3384 10.0309 18.3392 10.0942 18.3167C10.9034 18.0417 16.6667 15.8484 16.6667 9.37753V3.5867C16.6669 3.51222 16.6421 3.43984 16.5963 3.38108C16.5506 3.32233 16.4865 3.28059 16.4142 3.26253L10.0809 1.6767C10.0278 1.66343 9.97228 1.66343 9.91921 1.6767L3.58587 3.26253C3.51362 3.28059 3.4495 3.32233 3.40374 3.38108C3.35797 3.43984 3.3332 3.51222 3.33337 3.5867V9.3767C3.33337 15.7825 9.09837 18.0325 9.90587 18.3167ZM10.84 5.83336C10.84 6.05438 10.7522 6.26634 10.596 6.42262C10.4397 6.5789 10.2277 6.6667 10.0067 6.6667H10C9.77903 6.6667 9.56707 6.5789 9.41079 6.42262C9.25451 6.26634 9.16671 6.05438 9.16671 5.83336C9.16671 5.61235 9.25451 5.40039 9.41079 5.24411C9.56707 5.08783 9.77903 5.00003 10 5.00003H10.0067C10.2277 5.00003 10.4397 5.08783 10.596 5.24411C10.7522 5.40039 10.84 5.61235 10.84 5.83336ZM10.0067 13.3334C9.78569 13.3334 9.57373 13.2456 9.41745 13.0893C9.26117 12.933 9.17337 12.721 9.17337 12.5V8.33336C9.17337 8.11235 9.26117 7.90039 9.41745 7.74411C9.57373 7.58783 9.78569 7.50003 10.0067 7.50003C10.2277 7.50003 10.4397 7.58783 10.596 7.74411C10.7522 7.90039 10.84 8.11235 10.84 8.33336V12.5C10.84 12.721 10.7522 12.933 10.596 13.0893C10.4397 13.2456 10.2277 13.3334 10.0067 13.3334Z" fill="#FF3449"/>
</svg>
