<svg width="206" height="72" viewBox="0 0 206 72" fill="none" xmlns="http://www.w3.org/2000/svg">
<g filter="url(#filter0_d_264_9)">
<path fill-rule="evenodd" clip-rule="evenodd" d="M195.163 57.0497H58.177C52.7669 62.4931 45.2746 65.8641 36.993 65.8641C20.4953 65.8641 7.12183 52.4906 7.12183 35.993C7.12183 19.4953 20.4953 6.12183 36.993 6.12183C45.2746 6.12183 52.7669 9.49286 58.177 14.9363H195.163C196.245 14.9363 197.122 15.8128 197.122 16.895V55.0909C197.122 56.1731 196.245 57.0497 195.163 57.0497Z" fill="#22041E"/>
<path d="M58.177 56.0497H57.761L57.4677 56.3447C52.2375 61.6071 44.9975 64.8641 36.993 64.8641C21.0476 64.8641 8.12183 51.9384 8.12183 35.993C8.12183 20.0476 21.0476 7.12183 36.993 7.12183C44.9975 7.12183 52.2375 10.3788 57.4677 15.6412L57.761 15.9363H58.177H195.163C195.693 15.9363 196.122 16.3651 196.122 16.895V55.0909C196.122 55.6208 195.693 56.0497 195.163 56.0497H58.177Z" stroke="url(#paint0_linear_264_9)" stroke-width="2"/>
</g>
<g clip-path="url(#clip0_264_9)">
<path fill-rule="evenodd" clip-rule="evenodd" d="M40.3878 42.5918V30.1837H45.0408V42.5918H40.3878ZM41.9388 22.4286H43.4898V29.4082H41.9388V22.4286ZM31.0816 26.3061H35.7347V31.7347H31.0816V26.3061ZM32.6327 17H34.1837V25.5306H32.6327V17ZM21 31.7347H25.6531V42.5918H21V31.7347ZM22.551 25.5306H24.102V30.9592H22.551V25.5306ZM24.102 48.7959H22.551V43.3673H24.102V48.7959ZM34.1837 55H32.6327V32.5102H34.1837V55ZM43.4898 50.3469H41.9388V43.3673H43.4898V50.3469Z" fill="#FFD762"/>
</g>
<g filter="url(#filter1_d_264_9)">
<path d="M58.992 32.102C59.02 32.0833 59.006 32.004 58.95 31.864C58.894 31.724 58.8567 31.6073 58.838 31.514H59.538L60.896 33.866L60.504 34.188L60.21 33.81L59.65 33.278C59.342 32.97 59.0387 32.7507 58.74 32.62C58.4507 32.4893 58.012 32.424 57.424 32.424C56.836 32.424 56.332 32.6293 55.912 33.04C55.492 33.4507 55.282 33.8707 55.282 34.3C55.282 34.7293 55.422 35.056 55.702 35.28C55.982 35.504 56.318 35.7 56.71 35.868C57.1113 36.036 57.41 36.1433 57.606 36.19C58.6513 36.442 59.4073 36.7267 59.874 37.044C60.77 37.6413 61.218 38.4113 61.218 39.354C61.218 39.8673 61.0827 40.3247 60.812 40.726C60.5507 41.118 60.2893 41.398 60.028 41.566C59.3747 41.9953 58.4973 42.21 57.396 42.21C56.7333 42.21 56.1267 42.0513 55.576 41.734L55.366 41.608L55.394 41.86C55.422 41.9533 55.45 42.042 55.478 42.126H54.778L53.42 39.774L53.812 39.452L54.106 39.83L54.666 40.362C55.3473 41.062 56.0987 41.412 56.92 41.412C56.948 41.412 56.976 41.412 57.004 41.412C57.8533 41.384 58.5253 41.1553 59.02 40.726C59.524 40.2967 59.776 39.8487 59.776 39.382C59.776 38.906 59.6827 38.5747 59.496 38.388C59.0947 37.9867 58.754 37.744 58.474 37.66C57.102 37.2493 56.0333 36.8573 55.268 36.484C54.372 36.036 53.924 35.3547 53.924 34.44V34.384C53.924 33.9267 54.0267 33.5113 54.232 33.138C54.4467 32.7647 54.722 32.4753 55.058 32.27C55.7393 31.8593 56.4207 31.654 57.102 31.654C57.7833 31.654 58.4133 31.8033 58.992 32.102ZM67.9481 32.984V40.796C68.1161 41.132 68.2841 41.3093 68.4521 41.328H70.0061V42H64.6301V41.356H65.9601C66.1281 41.3373 66.2681 41.2673 66.3801 41.146C66.4921 41.0247 66.5667 40.8893 66.6041 40.74V32.76C66.5107 32.5547 66.3661 32.424 66.1701 32.368C64.1167 32.368 63.0901 32.8253 63.0901 33.74V34.216H62.4741V31.696H72.1761V34.216H71.5601V33.74C71.5601 32.8253 71.0467 32.368 70.0201 32.368H68.3681C68.1254 32.4987 67.9854 32.704 67.9481 32.984ZM75.8082 41.552C75.0149 41.0667 74.3755 40.4227 73.8902 39.62C73.4049 38.8173 73.1622 37.9307 73.1622 36.96C73.1622 35.9893 73.4049 35.098 73.8902 34.286C74.3755 33.4647 75.0149 32.8067 75.8082 32.312C76.6015 31.8173 77.4789 31.57 78.4402 31.57C79.4015 31.57 80.2742 31.8033 81.0582 32.27C81.8515 32.7367 82.4909 33.3807 82.9762 34.202C83.4709 35.014 83.7182 35.9287 83.7182 36.946C83.7182 37.954 83.4709 38.8593 82.9762 39.662C82.4909 40.4647 81.8515 41.104 81.0582 41.58C80.2742 42.0467 79.4015 42.28 78.4402 42.28C77.4789 42.28 76.6015 42.0373 75.8082 41.552ZM78.5242 32.312H78.0622C77.2689 32.312 76.5315 32.7693 75.8502 33.684C75.1689 34.5987 74.8282 35.7093 74.8282 37.016C74.8282 38.3227 75.1922 39.4007 75.9202 40.25C76.6482 41.0993 77.5209 41.524 78.5382 41.524C79.5649 41.524 80.4049 41.0947 81.0582 40.236C81.7209 39.368 82.0522 38.2527 82.0522 36.89C82.0522 35.5273 81.6882 34.426 80.9602 33.586C80.2415 32.7367 79.4295 32.312 78.5242 32.312ZM89.8285 41.3C91.4152 41.3 92.5632 40.866 93.2725 39.998L93.5525 39.62L93.9585 39.956C93.5945 40.432 93.3379 40.7353 93.1885 40.866C93.0485 40.9873 92.8945 41.1087 92.7265 41.23C92.5679 41.3513 92.4092 41.4493 92.2505 41.524C92.1012 41.5987 91.9939 41.6547 91.9285 41.692L91.7185 41.776C91.0465 42.028 90.3419 42.154 89.6045 42.154C88.8672 42.154 88.2045 42.0187 87.6165 41.748C87.0379 41.4773 86.5385 41.0947 86.1185 40.6C85.6985 40.1053 85.3579 39.494 85.0965 38.766C84.8352 38.038 84.7045 37.3333 84.7045 36.652C84.7045 34.9347 85.4325 33.5207 86.8885 32.41C87.6912 31.8127 88.5499 31.514 89.4645 31.514C90.3792 31.514 91.1259 31.626 91.7045 31.85C91.7512 31.8687 91.7839 31.878 91.8025 31.878C91.8305 31.878 91.8445 31.8593 91.8445 31.822C91.8445 31.7847 91.8165 31.724 91.7605 31.64H92.4605L93.8185 33.712L93.4265 34.034L93.1325 33.656L92.5725 33.124C92.1525 32.7227 91.7232 32.48 91.2845 32.396C90.8552 32.312 90.4539 32.27 90.0805 32.27C89.7072 32.27 89.3479 32.3307 89.0025 32.452C88.6572 32.564 88.3119 32.746 87.9665 32.998C87.6305 33.25 87.3225 33.544 87.0425 33.88C86.7625 34.216 86.5385 34.6127 86.3705 35.07C86.2025 35.5273 86.1185 35.9987 86.1185 36.484C86.1185 37.8187 86.4779 38.9573 87.1965 39.9C87.9245 40.8333 88.8019 41.3 89.8285 41.3ZM97.9795 40.95C98.0448 41.23 98.2595 41.37 98.6235 41.37H99.5335V42H95.0815V41.37H96.0755C96.3368 41.3327 96.5282 41.1973 96.6495 40.964V32.872C96.6122 32.6573 96.3928 32.5173 95.9915 32.452H95.0815V31.822H99.5335V32.452H98.5535C98.3015 32.4893 98.1102 32.6293 97.9795 32.872V36.96L102.473 33.152C102.511 33.0493 102.529 32.9607 102.529 32.886C102.529 32.6807 102.371 32.536 102.053 32.452H101.465V31.822H105.385V32.466H104.881C104.256 32.634 103.687 32.9373 103.173 33.376L99.9395 36.148L104.643 40.922C104.933 41.2113 105.325 41.356 105.819 41.356H106.281V42H101.787V41.37L102.431 41.356C102.758 41.2533 102.921 41.1647 102.921 41.09C102.921 41.0153 102.851 40.852 102.711 40.6L99.0855 36.89L97.9795 37.842V40.95ZM112.367 32.27H111.597V31.64H115.909V32.27H115.069C114.873 32.27 114.733 32.326 114.649 32.438C114.574 32.5407 114.537 32.6387 114.537 32.732V32.914L117.379 40.88L120.221 32.914V32.746C120.221 32.6527 120.174 32.5593 120.081 32.466C119.988 32.3633 119.857 32.298 119.689 32.27H118.849V31.64H122.503V32.27H121.803C121.635 32.298 121.476 32.3727 121.327 32.494C121.187 32.6153 121.089 32.7553 121.033 32.914L117.785 42H116.385L113.137 32.914C113.006 32.5407 112.75 32.326 112.367 32.27ZM129.06 32.102C129.088 32.0833 129.074 32.004 129.018 31.864C128.962 31.724 128.925 31.6073 128.906 31.514H129.606L130.964 33.866L130.572 34.188L130.278 33.81L129.718 33.278C129.41 32.97 129.107 32.7507 128.808 32.62C128.519 32.4893 128.08 32.424 127.492 32.424C126.904 32.424 126.4 32.6293 125.98 33.04C125.56 33.4507 125.35 33.8707 125.35 34.3C125.35 34.7293 125.49 35.056 125.77 35.28C126.05 35.504 126.386 35.7 126.778 35.868C127.18 36.036 127.478 36.1433 127.674 36.19C128.72 36.442 129.476 36.7267 129.942 37.044C130.838 37.6413 131.286 38.4113 131.286 39.354C131.286 39.8673 131.151 40.3247 130.88 40.726C130.619 41.118 130.358 41.398 130.096 41.566C129.443 41.9953 128.566 42.21 127.464 42.21C126.802 42.21 126.195 42.0513 125.644 41.734L125.434 41.608L125.462 41.86C125.49 41.9533 125.518 42.042 125.546 42.126H124.846L123.488 39.774L123.88 39.452L124.174 39.83L124.734 40.362C125.416 41.062 126.167 41.412 126.988 41.412C127.016 41.412 127.044 41.412 127.072 41.412C127.922 41.384 128.594 41.1553 129.088 40.726C129.592 40.2967 129.844 39.8487 129.844 39.382C129.844 38.906 129.751 38.5747 129.564 38.388C129.163 37.9867 128.822 37.744 128.542 37.66C127.17 37.2493 126.102 36.8573 125.336 36.484C124.44 36.036 123.992 35.3547 123.992 34.44V34.384C123.992 33.9267 124.095 33.5113 124.3 33.138C124.515 32.7647 124.79 32.4753 125.126 32.27C125.808 31.8593 126.489 31.654 127.17 31.654C127.852 31.654 128.482 31.8033 129.06 32.102ZM142.172 32.102C142.2 32.0833 142.186 32.004 142.13 31.864C142.074 31.724 142.036 31.6073 142.018 31.514H142.718L144.076 33.866L143.684 34.188L143.39 33.81L142.83 33.278C142.522 32.97 142.218 32.7507 141.92 32.62C141.63 32.4893 141.192 32.424 140.604 32.424C140.016 32.424 139.512 32.6293 139.092 33.04C138.672 33.4507 138.462 33.8707 138.462 34.3C138.462 34.7293 138.602 35.056 138.882 35.28C139.162 35.504 139.498 35.7 139.89 35.868C140.291 36.036 140.59 36.1433 140.786 36.19C141.831 36.442 142.587 36.7267 143.054 37.044C143.95 37.6413 144.398 38.4113 144.398 39.354C144.398 39.8673 144.262 40.3247 143.992 40.726C143.73 41.118 143.469 41.398 143.208 41.566C142.554 41.9953 141.677 42.21 140.576 42.21C139.913 42.21 139.306 42.0513 138.756 41.734L138.546 41.608L138.574 41.86C138.602 41.9533 138.63 42.042 138.658 42.126H137.958L136.6 39.774L136.992 39.452L137.286 39.83L137.846 40.362C138.527 41.062 139.278 41.412 140.1 41.412C140.128 41.412 140.156 41.412 140.184 41.412C141.033 41.384 141.705 41.1553 142.2 40.726C142.704 40.2967 142.956 39.8487 142.956 39.382C142.956 38.906 142.862 38.5747 142.676 38.388C142.274 37.9867 141.934 37.744 141.654 37.66C140.282 37.2493 139.213 36.8573 138.448 36.484C137.552 36.036 137.104 35.3547 137.104 34.44V34.384C137.104 33.9267 137.206 33.5113 137.412 33.138C137.626 32.7647 137.902 32.4753 138.238 32.27C138.919 31.8593 139.6 31.654 140.282 31.654C140.963 31.654 141.593 31.8033 142.172 32.102ZM151.128 32.984V40.796C151.296 41.132 151.464 41.3093 151.632 41.328H153.186V42H147.81V41.356H149.14C149.308 41.3373 149.448 41.2673 149.56 41.146C149.672 41.0247 149.746 40.8893 149.784 40.74V32.76C149.69 32.5547 149.546 32.424 149.35 32.368C147.296 32.368 146.27 32.8253 146.27 33.74V34.216H145.654V31.696H155.356V34.216H154.74V33.74C154.74 32.8253 154.226 32.368 153.2 32.368H151.548C151.305 32.4987 151.165 32.704 151.128 32.984ZM158.988 41.552C158.195 41.0667 157.555 40.4227 157.07 39.62C156.585 38.8173 156.342 37.9307 156.342 36.96C156.342 35.9893 156.585 35.098 157.07 34.286C157.555 33.4647 158.195 32.8067 158.988 32.312C159.781 31.8173 160.659 31.57 161.62 31.57C162.581 31.57 163.454 31.8033 164.238 32.27C165.031 32.7367 165.671 33.3807 166.156 34.202C166.651 35.014 166.898 35.9287 166.898 36.946C166.898 37.954 166.651 38.8593 166.156 39.662C165.671 40.4647 165.031 41.104 164.238 41.58C163.454 42.0467 162.581 42.28 161.62 42.28C160.659 42.28 159.781 42.0373 158.988 41.552ZM161.704 32.312H161.242C160.449 32.312 159.711 32.7693 159.03 33.684C158.349 34.5987 158.008 35.7093 158.008 37.016C158.008 38.3227 158.372 39.4007 159.1 40.25C159.828 41.0993 160.701 41.524 161.718 41.524C162.745 41.524 163.585 41.0947 164.238 40.236C164.901 39.368 165.232 38.2527 165.232 36.89C165.232 35.5273 164.868 34.426 164.14 33.586C163.421 32.7367 162.609 32.312 161.704 32.312ZM173.008 41.3C174.595 41.3 175.743 40.866 176.452 39.998L176.732 39.62L177.138 39.956C176.774 40.432 176.518 40.7353 176.368 40.866C176.228 40.9873 176.074 41.1087 175.906 41.23C175.748 41.3513 175.589 41.4493 175.43 41.524C175.281 41.5987 175.174 41.6547 175.108 41.692L174.898 41.776C174.226 42.028 173.522 42.154 172.784 42.154C172.047 42.154 171.384 42.0187 170.796 41.748C170.218 41.4773 169.718 41.0947 169.298 40.6C168.878 40.1053 168.538 39.494 168.276 38.766C168.015 38.038 167.884 37.3333 167.884 36.652C167.884 34.9347 168.612 33.5207 170.068 32.41C170.871 31.8127 171.73 31.514 172.644 31.514C173.559 31.514 174.306 31.626 174.884 31.85C174.931 31.8687 174.964 31.878 174.982 31.878C175.01 31.878 175.024 31.8593 175.024 31.822C175.024 31.7847 174.996 31.724 174.94 31.64H175.64L176.998 33.712L176.606 34.034L176.312 33.656L175.752 33.124C175.332 32.7227 174.903 32.48 174.464 32.396C174.035 32.312 173.634 32.27 173.26 32.27C172.887 32.27 172.528 32.3307 172.182 32.452C171.837 32.564 171.492 32.746 171.146 32.998C170.81 33.25 170.502 33.544 170.222 33.88C169.942 34.216 169.718 34.6127 169.55 35.07C169.382 35.5273 169.298 35.9987 169.298 36.484C169.298 37.8187 169.658 38.9573 170.376 39.9C171.104 40.8333 171.982 41.3 173.008 41.3ZM181.159 40.95C181.225 41.23 181.439 41.37 181.803 41.37H182.713V42H178.261V41.37H179.255C179.517 41.3327 179.708 41.1973 179.829 40.964V32.872C179.792 32.6573 179.573 32.5173 179.171 32.452H178.261V31.822H182.713V32.452H181.733C181.481 32.4893 181.29 32.6293 181.159 32.872V36.96L185.653 33.152C185.691 33.0493 185.709 32.9607 185.709 32.886C185.709 32.6807 185.551 32.536 185.233 32.452H184.645V31.822H188.565V32.466H188.061C187.436 32.634 186.867 32.9373 186.353 33.376L183.119 36.148L187.823 40.922C188.113 41.2113 188.505 41.356 188.999 41.356H189.461V42H184.967V41.37L185.611 41.356C185.938 41.2533 186.101 41.1647 186.101 41.09C186.101 41.0153 186.031 40.852 185.891 40.6L182.265 36.89L181.159 37.842V40.95Z" fill="#FFD762"/>
</g>
<defs>
<filter id="filter0_d_264_9" x="-0.878174" y="-1.87817" width="206" height="75.7423" filterUnits="userSpaceOnUse" color-interpolation-filters="sRGB">
<feFlood flood-opacity="0" result="BackgroundImageFix"/>
<feColorMatrix in="SourceAlpha" type="matrix" values="0 0 0 0 0 0 0 0 0 0 0 0 0 0 0 0 0 0 127 0" result="hardAlpha"/>
<feOffset/>
<feGaussianBlur stdDeviation="4"/>
<feComposite in2="hardAlpha" operator="out"/>
<feColorMatrix type="matrix" values="0 0 0 0 0.968627 0 0 0 0 0.823529 0 0 0 0 0.380392 0 0 0 1 0"/>
<feBlend mode="normal" in2="BackgroundImageFix" result="effect1_dropShadow_264_9"/>
<feBlend mode="normal" in="SourceGraphic" in2="effect1_dropShadow_264_9" result="shape"/>
</filter>
<filter id="filter1_d_264_9" x="51.42" y="31.514" width="140.041" height="14.766" filterUnits="userSpaceOnUse" color-interpolation-filters="sRGB">
<feFlood flood-opacity="0" result="BackgroundImageFix"/>
<feColorMatrix in="SourceAlpha" type="matrix" values="0 0 0 0 0 0 0 0 0 0 0 0 0 0 0 0 0 0 127 0" result="hardAlpha"/>
<feOffset dy="2"/>
<feGaussianBlur stdDeviation="1"/>
<feComposite in2="hardAlpha" operator="out"/>
<feColorMatrix type="matrix" values="0 0 0 0 0 0 0 0 0 0 0 0 0 0 0 0 0 0 0.5 0"/>
<feBlend mode="normal" in2="BackgroundImageFix" result="effect1_dropShadow_264_9"/>
<feBlend mode="normal" in="SourceGraphic" in2="effect1_dropShadow_264_9" result="shape"/>
</filter>
<linearGradient id="paint0_linear_264_9" x1="7.12183" y1="65.8641" x2="197.122" y2="65.8641" gradientUnits="userSpaceOnUse">
<stop stop-color="#A7904C"/>
<stop offset="0.534524" stop-color="#F1CC5E"/>
<stop offset="1" stop-color="#9E8A4D"/>
</linearGradient>
<clipPath id="clip0_264_9">
<rect width="24.0408" height="38" fill="white" transform="translate(21 17)"/>
</clipPath>
</defs>
</svg>
