<svg width="15.000000" height="16.000000" viewBox="0 0 15 16" fill="none" xmlns="http://www.w3.org/2000/svg" xmlns:xlink="http://www.w3.org/1999/xlink">
	<desc>
			Created with Pixso.
	</desc>
	<defs/>
	<path id="Vector" d="M7.10529 0C5.43024 0 3.82379 0.674284 2.63934 1.87452C1.4549 3.07475 0.78949 4.70261 0.78949 6.4L0.78949 7.92C0.551331 8.13028 0.358337 8.38791 0.222534 8.67691C0.086731 8.9659 0.0109863 9.2801 0 9.6C0.0180054 10.0639 0.173828 10.5114 0.447144 10.884C0.720398 11.2566 1.09839 11.5368 1.53156 11.688C2.55792 14.176 4.61841 16 7.10529 16L9.47369 16L9.47369 14.4L7.10529 14.4C5.32104 14.4 3.70264 13.04 2.88947 10.888L2.72369 10.448L2.25787 10.4C2.06818 10.3728 1.89471 10.2767 1.76984 10.1295C1.6449 9.98232 1.57709 9.79412 1.57892 9.6C1.57977 9.46039 1.61664 9.32343 1.68591 9.20273C1.75513 9.08204 1.85437 8.9818 1.97369 8.912L2.36841 8.68L2.36841 7.2C2.36841 6.98783 2.4516 6.78434 2.59967 6.63432C2.74768 6.48429 2.94849 6.4 3.1579 6.4L11.0526 6.4C11.262 6.4 11.4628 6.48429 11.6109 6.63432C11.7589 6.78434 11.8421 6.98783 11.8421 7.2L11.8421 11.2L8.61316 11.2C8.5415 10.9963 8.41687 10.8161 8.25244 10.6783C8.08795 10.5405 7.88983 10.4503 7.67902 10.4172C7.46814 10.3841 7.25238 10.4094 7.0545 10.4903C6.85663 10.5712 6.68402 10.7048 6.55493 10.877C6.42584 11.0491 6.34503 11.2534 6.32104 11.4683C6.29706 11.6831 6.33081 11.9005 6.41876 12.0975C6.50665 12.2945 6.64551 12.4638 6.82056 12.5875C6.99554 12.7111 7.20032 12.7846 7.41315 12.8L13.4211 12.8C13.8398 12.8 14.2415 12.6314 14.5375 12.3314C14.8336 12.0313 15 11.6243 15 11.2L15 9.6C15 9.17565 14.8336 8.76869 14.5375 8.46863C14.2415 8.16857 13.8398 8 13.4211 8L13.4211 6.4C13.4211 4.70261 12.7556 3.07475 11.5712 1.87452C10.3868 0.674284 8.78033 0 7.10529 0Z" fill="#960E89" fill-opacity="1.000000" fill-rule="nonzero"/>
</svg>
