<svg width="20" height="20" viewBox="0 0 20 20" fill="none" xmlns="http://www.w3.org/2000/svg">
<path d="M14.1683 10.8333C14.6285 10.8333 15.0016 11.2064 15.0016 11.6666C15.0016 12.094 14.6799 12.4462 14.2655 12.4944L14.1683 12.5H4.51413L7.25755 15.2441C7.55796 15.5445 7.58106 16.0172 7.32688 16.3441L7.25755 16.4226C6.95715 16.723 6.48446 16.7461 6.15755 16.4919L6.07904 16.4226L1.91237 12.2559C1.41023 11.7538 1.72857 10.9107 2.40694 10.8383L2.50163 10.8333H14.1683ZM13.844 3.50807L13.9225 3.57739L18.0892 7.74406C18.5914 8.2462 18.273 9.0893 17.5947 9.16166L17.5 9.16665H5.83329C5.37306 9.16665 4.99996 8.79355 4.99996 8.33331C4.99996 7.90595 5.32166 7.55372 5.73611 7.50559L5.83329 7.49998H15.4875L12.744 4.7559C12.4436 4.4555 12.4205 3.98281 12.6747 3.6559L12.744 3.57739C13.0444 3.27699 13.5171 3.25388 13.844 3.50807Z" fill="#960E89"/>
</svg>
