<svg width="206" height="72" viewBox="0 0 206 72" fill="none" xmlns="http://www.w3.org/2000/svg">
<g filter="url(#filter0_d_264_7)">
<path fill-rule="evenodd" clip-rule="evenodd" d="M195.163 57.0497H58.177C52.7669 62.4931 45.2746 65.8641 36.993 65.8641C20.4953 65.8641 7.12183 52.4906 7.12183 35.993C7.12183 19.4953 20.4953 6.12183 36.993 6.12183C45.2746 6.12183 52.7669 9.49286 58.177 14.9363H195.163C196.245 14.9363 197.122 15.8128 197.122 16.895V55.0909C197.122 56.1731 196.245 57.0497 195.163 57.0497Z" fill="#22041E"/>
<path d="M58.177 56.0497H57.761L57.4677 56.3447C52.2375 61.6071 44.9975 64.8641 36.993 64.8641C21.0476 64.8641 8.12183 51.9384 8.12183 35.993C8.12183 20.0476 21.0476 7.12183 36.993 7.12183C44.9975 7.12183 52.2375 10.3788 57.4677 15.6412L57.761 15.9363H58.177H195.163C195.693 15.9363 196.122 16.3651 196.122 16.895V55.0909C196.122 55.6208 195.693 56.0497 195.163 56.0497H58.177Z" stroke="url(#paint0_linear_264_7)" stroke-width="2"/>
</g>
<path d="M52.3583 26.2739C50.8994 26.2739 49.7142 27.4568 49.7142 28.9156C49.7142 29.8446 50.1943 30.6621 50.9191 31.1329C50.2314 33.4917 48.849 36.9243 47.5966 37.6363C45.2181 38.9873 43.0623 36.9451 44.106 31.3498C45.4281 31.2048 46.4579 30.0834 46.4579 28.7231C46.4579 27.2631 45.275 26.0803 43.815 26.0803C42.3551 26.0803 41.1722 27.2632 41.1722 28.7231C41.1722 29.6242 41.6244 30.4186 42.3133 30.8963C41.6082 34.0182 40.5691 35.2648 39.3027 35.092C37.3893 34.831 37.0391 31.3798 37.0089 26.5614C37.9692 26.166 38.6429 25.2208 38.6429 24.1192C38.6429 22.6591 37.46 21.4763 36.0001 21.4763C34.5412 21.4763 33.3583 22.6592 33.3583 24.1192C33.3583 25.2209 34.0333 26.166 34.9911 26.5614C34.9609 31.3799 34.6119 34.8311 32.6973 35.092C31.4309 35.2648 30.3918 34.0182 29.6879 30.8964C30.3779 30.4186 30.8278 29.6242 30.8278 28.7232C30.8278 27.2632 29.6449 26.0803 28.1861 26.0803C26.7249 26.0803 25.5421 27.2632 25.5421 28.7232C25.5421 30.0835 26.5718 31.2049 27.8939 31.3499C28.9376 36.9453 26.7829 38.9874 24.4056 37.6364C23.1509 36.9243 21.7697 33.4917 21.082 31.1329C21.8069 30.6621 22.2858 29.8446 22.2858 28.9156C22.2858 27.4568 21.1029 26.2739 19.6417 26.2739C18.184 26.2739 17 27.4568 17 28.9156C17 30.2968 18.0599 31.4286 19.4098 31.5481L21.3198 44.5863H50.6814L52.5902 31.5481C53.9412 31.4286 55 30.2968 55 28.9156C55 27.4568 53.8172 26.2739 52.3583 26.2739Z" fill="#FFD762"/>
<path d="M22.1895 50.5238H36H49.8117L50.3335 46.9613H21.6677L22.1895 50.5238Z" fill="#FFD762"/>
<g filter="url(#filter1_d_264_7)">
<path d="M64.33 32.27H63.56V31.64H67.872V32.27H67.032C66.836 32.27 66.696 32.326 66.612 32.438C66.5373 32.5407 66.5 32.6387 66.5 32.732V32.914L69.342 40.88L72.184 32.914V32.746C72.184 32.6527 72.1373 32.5593 72.044 32.466C71.9507 32.3633 71.82 32.298 71.652 32.27H70.812V31.64H74.466V32.27H73.766C73.598 32.298 73.4393 32.3727 73.29 32.494C73.15 32.6153 73.052 32.7553 72.996 32.914L69.748 42H68.348L65.1 32.914C64.9693 32.5407 64.7127 32.326 64.33 32.27ZM78.4893 40.95C78.5546 41.23 78.7693 41.37 79.1333 41.37H80.0433V42H75.5913V41.37L76.5853 41.356C76.8466 41.3187 77.0379 41.1833 77.1593 40.95V32.872C77.1219 32.6573 76.9026 32.5173 76.5013 32.452H75.5913V31.822H80.0433V32.452H79.0633C78.8113 32.4893 78.6199 32.6293 78.4893 32.872V40.95ZM85.9434 36.764C87.334 36.764 88.0294 36.064 88.0294 34.664C88.0294 33.264 87.5954 32.508 86.7274 32.396C86.4194 32.3587 86.0367 32.34 85.5794 32.34C85.1314 32.34 84.7954 32.3493 84.5714 32.368C84.4127 32.396 84.2447 32.5733 84.0674 32.9V36.764H85.9434ZM84.0674 40.936C84.1327 41.216 84.3474 41.356 84.7114 41.356H85.6214V41.986H81.1694V41.356L82.1634 41.342C82.4247 41.3047 82.616 41.1693 82.7374 40.936V32.97C82.7094 32.8113 82.6347 32.676 82.5134 32.564C82.4014 32.4427 82.2567 32.368 82.0794 32.34H81.1694V31.696L86.2514 31.71C87.278 31.71 88.076 31.99 88.6454 32.55C89.224 33.11 89.5134 33.824 89.5134 34.692C89.5134 36.5027 88.3654 37.408 86.0694 37.408H84.0674V40.936ZM104.554 41.37H105.338V42H100.886V41.37H101.866C102.062 41.37 102.16 41.3233 102.16 41.23C102.16 41.1647 102.123 41.0853 102.048 40.992L99.1923 37.394H97.9463V40.964C97.9463 41.2347 98.1563 41.37 98.5763 41.37H99.5003V42H94.9643V41.37H95.9723C96.1123 41.37 96.243 41.3327 96.3643 41.258C96.495 41.174 96.5603 41.076 96.5603 40.964V32.956C96.5603 32.7973 96.495 32.6527 96.3643 32.522C96.243 32.3913 96.0843 32.326 95.8883 32.326H94.9643V31.696H100.046C101.064 31.696 101.862 31.9807 102.44 32.55C103.028 33.11 103.322 33.8193 103.322 34.678C103.322 36.274 102.426 37.1653 100.634 37.352L103.518 40.992C103.733 41.244 104.078 41.37 104.554 41.37ZM97.9463 32.886V36.764H99.7523C101.134 36.764 101.824 36.064 101.824 34.664C101.824 33.2547 101.39 32.494 100.522 32.382C100.233 32.3447 99.7896 32.326 99.1923 32.326C98.595 32.326 98.2356 32.382 98.1143 32.494C98.0023 32.5967 97.9463 32.7273 97.9463 32.886ZM108.968 41.552C108.175 41.0667 107.536 40.4227 107.05 39.62C106.565 38.8173 106.322 37.9307 106.322 36.96C106.322 35.9893 106.565 35.098 107.05 34.286C107.536 33.4647 108.175 32.8067 108.968 32.312C109.762 31.8173 110.639 31.57 111.6 31.57C112.562 31.57 113.434 31.8033 114.218 32.27C115.012 32.7367 115.651 33.3807 116.136 34.202C116.631 35.014 116.878 35.9287 116.878 36.946C116.878 37.954 116.631 38.8593 116.136 39.662C115.651 40.4647 115.012 41.104 114.218 41.58C113.434 42.0467 112.562 42.28 111.6 42.28C110.639 42.28 109.762 42.0373 108.968 41.552ZM111.684 32.312H111.222C110.429 32.312 109.692 32.7693 109.01 33.684C108.329 34.5987 107.988 35.7093 107.988 37.016C107.988 38.3227 108.352 39.4007 109.08 40.25C109.808 41.0993 110.681 41.524 111.698 41.524C112.725 41.524 113.565 41.0947 114.218 40.236C114.881 39.368 115.212 38.2527 115.212 36.89C115.212 35.5273 114.848 34.426 114.12 33.586C113.402 32.7367 112.59 32.312 111.684 32.312ZM120.371 41.552C119.577 41.0667 118.938 40.4227 118.453 39.62C117.967 38.8173 117.725 37.9307 117.725 36.96C117.725 35.9893 117.967 35.098 118.453 34.286C118.938 33.4647 119.577 32.8067 120.371 32.312C121.164 31.8173 122.041 31.57 123.003 31.57C123.964 31.57 124.837 31.8033 125.621 32.27C126.414 32.7367 127.053 33.3807 127.539 34.202C128.033 35.014 128.281 35.9287 128.281 36.946C128.281 37.954 128.033 38.8593 127.539 39.662C127.053 40.4647 126.414 41.104 125.621 41.58C124.837 42.0467 123.964 42.28 123.003 42.28C122.041 42.28 121.164 42.0373 120.371 41.552ZM123.087 32.312H122.625C121.831 32.312 121.094 32.7693 120.413 33.684C119.731 34.5987 119.391 35.7093 119.391 37.016C119.391 38.3227 119.755 39.4007 120.483 40.25C121.211 41.0993 122.083 41.524 123.101 41.524C124.127 41.524 124.967 41.0947 125.621 40.236C126.283 39.368 126.615 38.2527 126.615 36.89C126.615 35.5273 126.251 34.426 125.523 33.586C124.804 32.7367 123.992 32.312 123.087 32.312ZM131.829 40.53C131.829 41.09 132.226 41.37 133.019 41.37H133.383V42H129.407V41.37L129.897 41.356C130.616 41.3373 130.975 41.062 130.975 40.53V33.152C130.975 32.7507 130.756 32.5173 130.317 32.452H129.407V31.822H131.815L136.253 39.704L140.229 31.822H143.099V32.452H142.119C141.746 32.5173 141.559 32.7507 141.559 33.152V40.53C141.559 41.09 141.951 41.37 142.735 41.37H143.099V42H138.647V41.37L139.137 41.356C139.856 41.3373 140.215 41.062 140.215 40.53V33.572L136.071 41.692L131.829 34.258V40.53Z" fill="#FFD762"/>
</g>
<defs>
<filter id="filter0_d_264_7" x="-0.878174" y="-1.87817" width="206" height="75.7423" filterUnits="userSpaceOnUse" color-interpolation-filters="sRGB">
<feFlood flood-opacity="0" result="BackgroundImageFix"/>
<feColorMatrix in="SourceAlpha" type="matrix" values="0 0 0 0 0 0 0 0 0 0 0 0 0 0 0 0 0 0 127 0" result="hardAlpha"/>
<feOffset/>
<feGaussianBlur stdDeviation="4"/>
<feComposite in2="hardAlpha" operator="out"/>
<feColorMatrix type="matrix" values="0 0 0 0 0.968627 0 0 0 0 0.823529 0 0 0 0 0.380392 0 0 0 1 0"/>
<feBlend mode="normal" in2="BackgroundImageFix" result="effect1_dropShadow_264_7"/>
<feBlend mode="normal" in="SourceGraphic" in2="effect1_dropShadow_264_7" result="shape"/>
</filter>
<filter id="filter1_d_264_7" x="61.56" y="31.5699" width="83.539" height="14.7101" filterUnits="userSpaceOnUse" color-interpolation-filters="sRGB">
<feFlood flood-opacity="0" result="BackgroundImageFix"/>
<feColorMatrix in="SourceAlpha" type="matrix" values="0 0 0 0 0 0 0 0 0 0 0 0 0 0 0 0 0 0 127 0" result="hardAlpha"/>
<feOffset dy="2"/>
<feGaussianBlur stdDeviation="1"/>
<feComposite in2="hardAlpha" operator="out"/>
<feColorMatrix type="matrix" values="0 0 0 0 0 0 0 0 0 0 0 0 0 0 0 0 0 0 0.5 0"/>
<feBlend mode="normal" in2="BackgroundImageFix" result="effect1_dropShadow_264_7"/>
<feBlend mode="normal" in="SourceGraphic" in2="effect1_dropShadow_264_7" result="shape"/>
</filter>
<linearGradient id="paint0_linear_264_7" x1="7.12183" y1="65.8641" x2="197.122" y2="65.8641" gradientUnits="userSpaceOnUse">
<stop stop-color="#A7904C"/>
<stop offset="0.534524" stop-color="#F1CC5E"/>
<stop offset="1" stop-color="#9E8A4D"/>
</linearGradient>
</defs>
</svg>
