<svg width="20" height="20" viewBox="0 0 20 20" fill="none" xmlns="http://www.w3.org/2000/svg">
<g id="deposit 2">
<path id="Vector" d="M3.66671 2.49998H16.3334C17.4167 2.49998 18.3334 3.41665 18.3334 4.49998V8.33331H16.6667V4.83331C16.6667 4.33331 16.3334 4.16665 15.8334 4.16665H4.16671C3.66671 4.16665 3.33337 4.49998 3.33337 4.99998V8.33331H1.66671V4.49998C1.66671 3.41665 2.58337 2.49998 3.66671 2.49998Z" fill="#960E89"/>
<path id="Vector_2" d="M7.24996 9.91667L8.83329 8.33333V11.6667C8.83329 13.3333 8.83329 15.75 6.83329 17.5C9.66663 17 11.0833 14.8333 11.1666 11.6667V8.33333L12.75 9.91667L14.1666 9.16667L9.99996 5L5.83329 9.16667L7.24996 9.91667Z" fill="#960E89"/>
</g>
</svg>
