<svg width="20" height="20" viewBox="0 0 20 20" fill="none" xmlns="http://www.w3.org/2000/svg">
<path d="M3.66668 2.5H16.3333C17.4167 2.5 18.3333 3.41666 18.3333 4.49999V8.33333H16.6667V4.83333C16.6667 4.33333 16.3333 4.16666 15.8333 4.16666H4.16668C3.66668 4.16666 3.33334 4.49999 3.33334 4.99999V8.33333H1.66668V4.49999C1.66668 3.41666 2.58334 2.5 3.66668 2.5Z" fill="#F8D05F"/>
<path d="M7.24999 9.91667L8.83332 8.33333V11.6667C8.83332 13.3333 8.83332 15.75 6.83332 17.5C9.66666 17 11.0833 14.8333 11.1667 11.6667V8.33333L12.75 9.91667L14.1667 9.16667L9.99999 5L5.83332 9.16667L7.24999 9.91667Z" fill="#F8D05F"/>
</svg>
